/* XPM */
static char *out[] = {
/* columns rows colors chars-per-pixel */
"64 64 207 2 ",
"   c None",
".  c #000000",
"X  c #0E0505",
"o  c #06040A",
"O  c #09060C",
"+  c #0D0C0D",
"@  c #11090C",
"#  c #16070A",
"$  c #0B0612",
"%  c #0B0A14",
"&  c #0F0A18",
"*  c #1C0D13",
"=  c #120B1B",
"-  c #15071C",
";  c #151415",
":  c #1E1114",
">  c #1A1A1A",
",  c #18111C",
"<  c #0C1316",
"1  c #2C0F1D",
"2  c #220D18",
"3  c #2C101D",
"4  c #3D1213",
"5  c #371E1E",
"6  c #320C13",
"7  c #150E23",
"8  c #170E29",
"9  c #180F29",
"0  c #190F21",
"q  c #0F132A",
"w  c #1B122C",
"e  c #14132A",
"r  c #1D1232",
"t  c #1B193B",
"y  c #161633",
"u  c #2B1224",
"i  c #3A182A",
"p  c #240D31",
"a  c #211535",
"s  c #231836",
"d  c #23163B",
"f  c #26193C",
"g  c #281B3E",
"h  c #291737",
"j  c #361B38",
"k  c #232323",
"l  c #2D2C2C",
"z  c #2C2D30",
"x  c #3D2234",
"c  c #333333",
"v  c #393737",
"b  c #3A3A3A",
"n  c #3C2829",
"m  c #4C0F0F",
"M  c #500F0F",
"N  c #520E10",
"B  c #411414",
"V  c #561212",
"C  c #7D1616",
"Z  c #791717",
"A  c #65141B",
"S  c #42192D",
"D  c #491B34",
"F  c #501C36",
"G  c #6F1C24",
"H  c #432121",
"J  c #43292D",
"K  c #462934",
"L  c #58283A",
"P  c #553239",
"I  c #59393D",
"U  c #56383C",
"Y  c #6E2E2E",
"T  c #6F3737",
"R  c #1A1F48",
"E  c #251A42",
"W  c #2A1C45",
"Q  c #2D1E49",
"!  c #261D4D",
"~  c #391E46",
"^  c #24224B",
"/  c #2F2048",
"(  c #31214E",
")  c #39234B",
"_  c #2F3344",
"`  c #333F4C",
"'  c #262154",
"]  c #262958",
"[  c #342353",
"{  c #3D2754",
"}  c #39275A",
"|  c #3C295D",
" . c #382755",
".. c #232A63",
"X. c #2B2D64",
"o. c #2A356B",
"O. c #3B356C",
"+. c #383166",
"@. c #2A3372",
"#. c #2E3873",
"$. c #2E3A79",
"%. c #313974",
"&. c #383873",
"*. c #4D2643",
"=. c #582844",
"-. c #5F3848",
";. c #5E3157",
":. c #513159",
">. c #483058",
",. c #622341",
"<. c #692949",
"1. c #733F4D",
"2. c #693A58",
"3. c #763757",
"4. c #593D63",
"5. c #3C4051",
"6. c #32505B",
"7. c #33417E",
"8. c #394475",
"9. c #454545",
"0. c gray30",
"q. c #5D4040",
"w. c #4F5159",
"e. c #555555",
"r. c #5B5A5A",
"t. c #56575D",
"y. c #5D4A56",
"u. c #7B4449",
"i. c #7D4653",
"p. c #764758",
"a. c #664953",
"s. c #444C6C",
"d. c #484F6A",
"f. c #494A65",
"g. c #4E5264",
"h. c #424B70",
"j. c #554871",
"k. c #684663",
"l. c #794666",
"z. c #6E546F",
"x. c #646363",
"c. c #6A6565",
"v. c gray42",
"b. c #7F6D7E",
"n. c #727272",
"m. c #626678",
"M. c #801818",
"N. c #892121",
"B. c #992727",
"V. c #942B2B",
"C. c #982727",
"Z. c #872C36",
"A. c #983030",
"S. c #A03238",
"D. c #863C51",
"F. c #8C3D63",
"G. c #824646",
"H. c #8C4A4A",
"J. c #8E4556",
"K. c #A3464A",
"L. c #864D68",
"P. c #815278",
"I. c #885478",
"U. c #875776",
"Y. c #8E5B6B",
"T. c #A25D71",
"R. c #986868",
"E. c #9F647E",
"W. c #A46F6F",
"Q. c #A66177",
"!. c #AD6171",
"~. c #B7687B",
"^. c #B66779",
"/. c #C36C7E",
"(. c #6D5985",
"). c #7D5D82",
"_. c #686782",
"`. c #647F8E",
"'. c #7F6D92",
"]. c #967287",
"[. c #BD7380",
"{. c #A77887",
"}. c #C56F81",
"|. c #C77182",
" X c #C47C86",
".X c #CC7C8B",
"XX c #C67C89",
"oX c #D17E8D",
"OX c #668D9B",
"+X c #9A9A9A",
"@X c #8E8798",
"#X c #B98997",
"$X c #AA959B",
"%X c #AEAEAE",
"&X c #A1A0AE",
"*X c #CA848C",
"=X c #D0808E",
"-X c #C88897",
";X c #D78592",
":X c #DA8892",
">X c #D88994",
",X c #D6939E",
"<X c #E08F9B",
"1X c #E4949E",
"2X c #D2A6B2",
"3X c #B9B7C4",
"4X c #D9C8D7",
/* pixels */
"                                                                                                                                ",
"                                                                                                                                ",
"                                                                                                                                ",
"                                                                                                                                ",
"                                                                                                                                ",
"                                                                                                                                ",
"                                                  . . . . . . . . .           . . .                                             ",
"                                                O o O O O $ O O o O         O O o .                                             ",
"                                              o 7 r h g E f E E a w % . . o w s % .                                             ",
"                                            o % a ( [ | | | | | [ W 9 O o $ g [ 0 .                                             ",
"                                          o 7 a Q } | | | | | | } [ / s w 8 f Q 7 .                                             ",
"                                        O % a ( } } | | | | | | | | | [ W r d a % .                                             ",
"                                      o 7 a Q } } | | | >.| | | | | [ ( W f w % o .                                             ",
"                                    . o r ( [ | | | | | | | | | | | [ Q Q E 7 o o O                                             ",
"                                    . O f } | | | | | | | | | | | | } [ ( Q a r s s = . .                                       ",
"                                    . $ f | | | | | | | | | | } | | | } [ W W Q [ [ 9 . .                                       ",
"                                    . $ g } [ [ } | | | | | [ [ } | >.} Q Q Q Q W d = . .                                       ",
"                                    . O f } / Q [ } } | | } [ Q } | | } [ Q W W d 7 $ . .                                       ",
"                                    . o a Q d t E [ } >.[ [ [ } } } } Q Q Q Q E 8 $ o . .                                       ",
"                                    . O w h a a ~ { } } Q Q [ } } } Q Q Q W W E 7 o . . .                                       ",
"                                        = 0 j *.2.l.:.Q f a ^ [ [ [ Q W E d E W a w $ . .                                       ",
"                                        . + x p.T.^.k.) h w /  .( W ! W E r E W E a = . .                                       ",
"                                        . % ` m.{.*XQ.L.;.*.g.z.>.Q Q W d r a a 9 = $                                           ",
"                                        . < 6.`.#X>X.X~.L.a.].+Xj.Q Q W d r r 8 $ .                                             ",
"                                        . ; y.].-X1X:X*XU.m.&X3X(. .Q Q d p 7 $ O                                               ",
"                                        . * 1.~.=X1X,X,X@XOX3X4X].} Q W d 9 - X                                                 ",
"                                        . + x 2.Q.oX:X1X#X$X2X2X(.} [ W 7 - i =.u .                                             ",
"                                        . o 7 j i.!..X>X:X:X:X.Xz.} [ E = @ L F.S X                                             ",
"                                        . o 7 a x P D.S.K.K.K.D.2.| [ E = @ =.F.,.S 2 . .                                       ",
"                                        . o 7 w - # N C C C Z A *.} Q a & @ L F.3.,.1 . .                                       ",
"                                        . O t ^ h i G B.B.N.N 6 j [ a = o X D <.<.,.1 . .                                       ",
"                                        @ , ] O.>.L Z.S.S.Z.4 o f [ 7 . o $ u F ,.,.1 . .                                       ",
"                                      : P i.U.].].Y.l.;.;.=.0 o f [ 7 o q t w 1 F L 1 . .                                       ",
"                                    . : J.|.:X1X1X-X(.@.@...q o h Q 7 $ R ..q o S ,.1 . .                                       ",
"                                    . : i.|.;X1X1XoX(.$.$.o.e o & e t R ....q X S ,.1 . .                                       ",
"                                    . : u.^.XX*X,XXX(.7.7.o.e o o % ^ %.&.X.e o S L 3 . .                                       ",
"                                      : J P I 1.l.L.4.7.7.#.t - y ^ 4.P.P.l.x . * 1 *                                           ",
"                                        . . . o p ~ &.7.7.#.W p ' O.I././.T.K . . .                                             ",
"                                          . . $ ! +.%.7.7.%.E p ' &.I./.=X~.P . . .                                             ",
"                                            . o ] 7.7.7.7.%.! a ' O.I.|.:X*XI . . .                                             ",
"                                            . % _ s.8.7.7.7.] ' W ~ L.}.;X*XI . .                                               ",
"                                            . + b t.8.8.7.7.#.o.E j L.}.;X*XI .                                                 ",
"                                            . < b t.g.d.d.s.8.#.] } L.}.>X*XI .                                                 ",
"                                            . + b r.e.r.e.e.8.8.%.O.P.}.*X[.U .                                                 ",
"                                            . + b e.0.9.c l 5.d.f.f.z.Y.a.q.n                                                   ",
"                                            . @ b 0.9.b > < v e.t.r.r.0.k .                                                     ",
"                                              + k l U 0.9.b l l 9.r.x.r.l .                                                     ",
"                                                . + c r.c.c.l + b r.v.x.l .                                                     ",
"                                                . X H T G.G.5 + b r.v.x.l .                                                     ",
"                                                + # M C B.V.4 X v e.c.x.l +                                                     ",
"                                              > 0.r.Y M.B.V.4 o > z 0.x.0.b k                                                   ",
"                                            . > n.$XH.M.B.V.B . . + v r.c.c.l .                                                 ",
"                                                              . . X H T G.G.5 .                                                 ",
"                                                                . X m Z B.A.B .                                                 ",
"                                                                . @ q.R.W.R.J .                                                 ",
"                                                                . ; n.%X%X+X9..                                                 ",
"                                                                . > v.%X%X+X9..                                                 ",
"                                                                                                                                ",
"                                                                                                                                ",
"                                                                                                                                ",
"                                                                                                                                ",
"                                                                                                                                ",
"                                                                                                                                ",
"                                                                                                                                "
};
