/* XPM */
static char *out[] = {
/* columns rows colors chars-per-pixel */
"64 64 211 2 ",
"   c None",
".  c #000000",
"X  c #0E0505",
"o  c #06040A",
"O  c #09060C",
"+  c #0D0C0C",
"@  c #11090C",
"#  c #180809",
"$  c #0B0612",
"%  c #0C0915",
"&  c #0F0A18",
"*  c #1C0C12",
"=  c #120C1B",
"-  c #160A1D",
";  c #151415",
":  c #1A1A1A",
">  c #1C1116",
",  c #0C1316",
"<  c #2C0F1D",
"1  c #230D18",
"2  c #2D101E",
"3  c #201114",
"4  c #3E1213",
"5  c #371E1E",
"6  c #320C13",
"7  c #150E23",
"8  c #170E29",
"9  c #180F29",
"0  c #190F21",
"q  c #0F132A",
"w  c #1B122B",
"e  c #14132A",
"r  c #1D1232",
"t  c #181837",
"y  c #2F1324",
"u  c #281224",
"i  c #3E1629",
"p  c #361729",
"a  c #240F34",
"s  c #211535",
"d  c #231937",
"f  c #23163B",
"g  c #26193C",
"h  c #281B3E",
"j  c #291737",
"k  c #361B38",
"l  c #232323",
"z  c #2D2C2C",
"x  c #2C2D30",
"c  c #3A2433",
"v  c #333333",
"b  c #393737",
"n  c #3A3A3A",
"m  c #3D272B",
"M  c #4C0F0F",
"N  c #510F0F",
"B  c #411414",
"V  c #561212",
"C  c #7D1616",
"Z  c #791717",
"A  c #66141B",
"S  c #43192F",
"D  c #541D3B",
"F  c #4E1B37",
"G  c #6F1C24",
"H  c #432121",
"J  c #43292D",
"K  c #462934",
"L  c #59273A",
"P  c #553239",
"I  c #59393E",
"U  c #55353A",
"Y  c #6E2E2E",
"T  c #6F3737",
"R  c #181D44",
"E  c #261843",
"W  c #2A1C45",
"Q  c #2D1E49",
"!  c #261D4D",
"~  c #321E42",
"^  c #2B204A",
"/  c #31214E",
"(  c #382249",
")  c #333F4B",
"_  c #272658",
"`  c #342353",
"'  c #3C2754",
"]  c #39275A",
"[  c #3C295D",
"{  c #382755",
"}  c #232A63",
"|  c #292D6A",
" . c #2C2D63",
".. c #2C326C",
"X. c #2C386E",
"o. c #3B386B",
"O. c #293171",
"+. c #2E3873",
"@. c #2E3A79",
"#. c #343873",
"$. c #492444",
"%. c #5C2941",
"&. c #572744",
"*. c #5D324C",
"=. c #483A58",
"-. c #5F3156",
";. c #513159",
":. c #482955",
">. c #622342",
",. c #6A2949",
"<. c #603F44",
"1. c #733F4D",
"2. c #713F59",
"3. c #7B3054",
"4. c #623457",
"5. c #5D3C65",
"6. c #3C4051",
"7. c #32505B",
"8. c #33417E",
"9. c #374173",
"0. c #454545",
"q. c gray30",
"w. c #5D4040",
"e. c #4F5159",
"r. c #555555",
"t. c #5B595A",
"y. c #56575D",
"u. c #5C4A56",
"i. c #7C4449",
"p. c #7F4652",
"a. c #764757",
"s. c #645859",
"d. c #694453",
"f. c #444B6C",
"g. c #484F6A",
"h. c #454A66",
"j. c #574B69",
"k. c #4E5264",
"l. c #424B70",
"z. c #514576",
"x. c #674562",
"c. c #794665",
"v. c #7F5177",
"b. c #71566D",
"n. c #646363",
"m. c #6A6565",
"M. c #6D6D6D",
"N. c #7F6D7E",
"B. c #727272",
"V. c #626678",
"C. c #801818",
"Z. c #882121",
"A. c #992727",
"S. c #942B2B",
"D. c #982727",
"F. c #882C36",
"G. c #983030",
"H. c #A13237",
"J. c #863C51",
"K. c #8C3D63",
"L. c #824646",
"P. c #8C4A4A",
"I. c #8E4556",
"U. c #A4474B",
"Y. c #864E68",
"T. c #895877",
"R. c #955B72",
"E. c #835D65",
"W. c #A25D71",
"Q. c #97666A",
"!. c #9E647D",
"~. c #A46F6F",
"^. c #AB6173",
"/. c #A36077",
"(. c #B4667A",
"). c #BC6B7D",
"_. c #B66777",
"`. c #BC737F",
"'. c #C26C7E",
"]. c #6D5985",
"[. c #7D5D82",
"{. c #686782",
"}. c #637F8E",
"|. c #7F6D92",
" X c #957288",
".X c #A77887",
"XX c #C56F81",
"oX c #C77182",
"OX c #CC7C8A",
"+X c #C57D89",
"@X c #D27E8D",
"#X c #658D9B",
"$X c #9A9A9A",
"%X c #8D8797",
"&X c #AF8C98",
"*X c #A9959B",
"=X c #BA8F9A",
"-X c #A09FAE",
";X c #AEAEAE",
":X c #CA848C",
">X c #D0808E",
",X c #C68697",
"<X c #DA8892",
"1X c #D88894",
"2X c #D6939E",
"3X c #E08F9B",
"4X c #E4949E",
"5X c #D2A6B2",
"6X c #BCAFC0",
"7X c #B6BDC8",
"8X c #D9C8D7",
/* pixels */
"                                                                                                                                ",
"                                                                                                                                ",
"                                                                                                                                ",
"                                                                                                                                ",
"                                                                                                                                ",
"                                                                                                                                ",
"                                                                                                                                ",
"                                                                                                                                ",
"                                                  . . . . . . . . .           . . .                                             ",
"                                                o o O $ O O $ O O o         O O o .                                             ",
"                                              o 7 r d g g h E E s w % . . o w s & .                                             ",
"                                            o % s / ] [ [ [ [ [ ` W 7 O o $ h ` 7 .                                             ",
"                                          o 7 s ^ { ] [ [ [ [ [ ] ` W d w 8 h W = .                                             ",
"                                        o % s Q { [ [ [ :.[ [ [ [ [ ] ] W t f s = .                                             ",
"                                      O 0 s Q ] [ [ [ [ [ [ [ [ [ [ { Q W f 9 & o .                                             ",
"                                    . O r / ] [ [ [ [ [ [ [ [ [ [ [ ` Q Q W 7 o o O                                             ",
"                                    . O g { ] [ [ [ [ [ [ [ [ [ [ ] ] { Q W d w d d 7 . .                                       ",
"                                    . O h [ [ [ [ [ [ [ [ [ [ [ [ [ [ ] ` Q Q / ` / 7 . .                                       ",
"                                    . $ g [ ` ` ] [ [ [ [ [ ` ` ] [ [ [ ` W W Q W d & . .                                       ",
"                                    . O g ] Q Q ` [ [ [ [ ] ` Q ] [ ] ] / Q Q W f 8 $ . .                                       ",
"                                    . O s / g t W ` ] ] ` ` ` ` ] [ ` ` Q Q Q E 8 $ o . .                                       ",
"                                    . O w g a s ~ ' ] ] Q ! ` ] ] ] / W Q W W E 7 . . . .                                       ",
"                                        = 9 p $.2.c.;.Q E s Q ` ` Q Q Q E f E W f 9 $ . .                                       ",
"                                        . @ c a.W.(.2.( j s x { / Q Q W g r g W E g = . .                                       ",
"                                        . % 6.V.!.OX^.c.*.$.j.b.=.Q Q E f r f f 9 = %                                           ",
"                                        . , 7.#X&X2X@X_.Y.x. X%Xj.Q Q W f r r 8 % .                                             ",
"                                        . ; u. X,X4X<X:X XV.-X;X].` / Q f r = $ O                                               ",
"                                        . * i.(.@X2X4X2X%X#X7X8X X ./ E f 8 - O                                                 ",
"                                        . + k a.^.>X3X2X=X&X5X5X[.] ` E 8 - i L y .                                             ",
"                                        . o 7 k a._.'.<X<X<X<X+Xv.] / g & @ &.K.S o                                             ",
"                                        . o = s K L J.U.U.U.U.P.-.] ` E & @ L K.>.i 1 . .                                       ",
"                                        . o 7 r & # N C C C Z A $.] Q g - * &.K.3.>.< . .                                       ",
"                                        . O t ! a i G D.D.Z.V 6 k { d 0 y S %.,.,.>.2 . .                                       ",
"                                        @ - _ o.:.&.F.G.G.F.4 o g ` 0 X i >.D D >.>.< . .                                       ",
"                                      > P a.T. X!.R.c.-.4.&.u o g ` 0 . 1 y S D >.>.< . .                                       ",
"                                    . 3 L.'.1X4X4X,X].O.O.} q O d / 9 o . $ y D >.>.< . .                                       ",
"                                    . 3 p.XX1X4X4X,X].@.@.| q . & w t R R t 9 2 F L 2 . .                                       ",
"                                    . 3 i._.OX1X1X,X].8.8.X.t . o % R O.O.} e O S D 6 o .                                       ",
"                                      > J P I 1.a.Y.z.8.8.+.f - t R _ O.O.} e . * y *                                           ",
"                                        . . . X a ( o.8.8.+.Q s ! | ..#.#.| e . . .                                             ",
"                                          . . + x =.l.@.8.@.} ! ! Q 5.v.T.x.p . . .                                             ",
"                                            . + n y.f.8.8.8.+.| E k K..X'.^.K . . .                                             ",
"                                            . + n r.k.g.g.f.#.+.} [ Y.XX+X`.U . .                                               ",
"                                            . + n t.t.r.t.r.f.8.@.;.T.XX1X:XI .                                                 ",
"                                            . + n r.q.0.v z 6.k.h.j.Q.XX1X:XI .                                                 ",
"                                            . + b r.0.n : , b r.y.s.Q.'.OX+X*..                                                 ",
"                                              + l z n q.0.n v z 0.s.b.E.a.w.m                                                   ",
"                                                . + n s.m.n.l + b y.t.q.l .                                                     ",
"                                                . X H T L.i.5 + n t.n.t.z .                                                     ",
"                                                O # N C.A.S.B + v t.n.n.z o                                                     ",
"                                              : q.s.Y C A.S.4 o : v q.n.q.n l                                                   ",
"                                            . : B.*XP.C.A.S.B . . + b t.m.m.z .                                                 ",
"                                                              . . X H T L.L.5 .                                                 ",
"                                                                . X M Z A.G.B .                                                 ",
"                                                                . @ w.Q.~.Q.J .                                                 ",
"                                                                . : M.;X;X$X0..                                                 ",
"                                                                . : M.;X;X$X0..                                                 ",
"                                                                                                                                ",
"                                                                                                                                ",
"                                                                                                                                ",
"                                                                                                                                ",
"                                                                                                                                ",
"                                                                                                                                ",
"                                                                                                                                "
};
