/* XPM */
static char *out[] = {
/* columns rows colors chars-per-pixel */
"64 64 211 2 ",
"   c None",
".  c #000000",
"X  c #0C0506",
"o  c #06040A",
"O  c #09060C",
"+  c #0D0C0D",
"@  c #110A0C",
"#  c #15070A",
"$  c #0B0613",
"%  c #0B0A14",
"&  c #0F0A18",
"*  c #1D0D13",
"=  c #110C1C",
"-  c #170B1E",
";  c #151415",
":  c #1E1114",
">  c #1A1A1A",
",  c #15101B",
"<  c #0C1316",
"1  c #2C0F1D",
"2  c #230D18",
"3  c #29121C",
"4  c #3D1213",
"5  c #371E1E",
"6  c #320C13",
"7  c #150E23",
"8  c #1A0F21",
"9  c #170E29",
"0  c #180F28",
"q  c #0F132A",
"w  c #1B112C",
"e  c #14132A",
"r  c #1D1232",
"t  c #1B193B",
"y  c #161633",
"u  c #2A1322",
"i  c #391729",
"p  c #240D31",
"a  c #211534",
"s  c #23163B",
"d  c #26193C",
"f  c #26193A",
"g  c #371B37",
"h  c #232323",
"j  c #2D2C2C",
"k  c #2C2D30",
"l  c #3D2234",
"z  c #333333",
"x  c #393737",
"c  c #3A3A3A",
"v  c #3D272B",
"b  c #4C0F0F",
"n  c #500F0F",
"m  c #520E10",
"M  c #411414",
"N  c #561212",
"B  c #7D1616",
"V  c #791717",
"C  c #65141B",
"Z  c #42192D",
"A  c #481B37",
"S  c #511B39",
"D  c #6F1C24",
"F  c #432121",
"G  c #43292D",
"H  c #462934",
"J  c #58273B",
"K  c #553239",
"L  c #58393D",
"P  c #53373A",
"I  c #6E2E2E",
"U  c #6F3737",
"Y  c #7F2839",
"T  c #181D45",
"R  c #261843",
"E  c #2A1C45",
"W  c #2D1E49",
"Q  c #261D4D",
"!  c #381E4A",
"~  c #29214B",
"^  c #31214E",
"/  c #39234B",
"(  c #333F4C",
")  c #262154",
"_  c #24295A",
"`  c #342353",
"'  c #3D2754",
"]  c #39275A",
"[  c #3C295D",
"{  c #382755",
"}  c #2F3344",
"|  c #232A63",
" . c #2B2C68",
".. c #2C2D63",
"X. c #2A356B",
"o. c #3C356D",
"O. c #2A3171",
"+. c #2E3873",
"@. c #2E3A79",
"#. c #343471",
"$. c #303973",
"%. c #373B75",
"&. c #372B61",
"*. c #4C2545",
"=. c #542847",
"-. c #5E324D",
";. c #5E3157",
":. c #513159",
">. c #473058",
",. c #622341",
"<. c #612A44",
"1. c #6E2A4C",
"2. c #643E45",
"3. c #733F4D",
"4. c #683A55",
"5. c #793757",
"6. c #423563",
"7. c #3C4051",
"8. c #32505B",
"9. c #33417E",
"0. c #394475",
"q. c #454545",
"w. c gray30",
"e. c #5D4040",
"r. c #4F5159",
"t. c #555555",
"y. c #5B595A",
"u. c #56575D",
"i. c #5D4A56",
"p. c #7B4449",
"a. c #794756",
"s. c #645859",
"d. c #694757",
"f. c #444C6C",
"g. c #484F6A",
"h. c #454A66",
"j. c #574B69",
"k. c #424B70",
"l. c #5B4677",
"z. c #4E5264",
"x. c #684663",
"c. c #794766",
"v. c #705471",
"b. c #646363",
"n. c #6A6565",
"m. c #6D6D6D",
"M. c #7F6D7E",
"N. c #727272",
"B. c #626678",
"V. c #801818",
"C. c #892121",
"Z. c #992727",
"A. c #942B2B",
"S. c #982727",
"D. c #983030",
"F. c #8A2B30",
"G. c #A03238",
"H. c #863C51",
"J. c #8B3D63",
"K. c #824646",
"L. c #8C4A4A",
"P. c #8E4556",
"I. c #A3464A",
"U. c #864D68",
"Y. c #895D65",
"T. c #825277",
"R. c #895578",
"E. c #925C75",
"W. c #A25D71",
"Q. c #97666A",
"!. c #9E647D",
"~. c #A46F6F",
"^. c #A66177",
"/. c #AD6177",
"(. c #B7687B",
"). c #BB6B7D",
"_. c #B36578",
"`. c #B8727D",
"'. c #C26C7E",
"]. c #4D4E84",
"[. c #725F8A",
"{. c #7D5D82",
"}. c #6D5D8A",
"|. c #686782",
" X c #647F8E",
".X c #7F6D92",
"XX c #957287",
"oX c #A67287",
"OX c #C56F81",
"+X c #CD7C8B",
"@X c #C57C88",
"#X c #D17E8D",
"$X c #668D9B",
"%X c #9A9A9A",
"&X c #8E8798",
"*X c #B98A99",
"=X c #AA959B",
"-X c #AEAEAE",
";X c #A1A0AE",
":X c #CA848C",
">X c #D0808E",
",X c #C98998",
"<X c #D68592",
"1X c #DA8892",
"2X c #D88C97",
"3X c #D6939E",
"4X c #E08F9B",
"5X c #E4949E",
"6X c #D2A6B2",
"7X c #B9B7C4",
"8X c #D9C8D7",
/* pixels */
"                                                                                                                                ",
"                                                                                                                                ",
"                                                                                                                                ",
"                                                                                                                                ",
"                                                                                                                                ",
"                                                                                                                                ",
"                                                  . . . . . . . . .                                                             ",
"                                                O o O O O $ O O O O                                                             ",
"                                              O 7 a f d d d R d r w & . . . . . . .                                             ",
"                                            o % a ^ ` [ 6.[ [ [ ` R 0 O o o O O . .                                             ",
"                                          o 7 a W ` [ [ [ [ [ [ ` { ~ f w 7 r a & .                                             ",
"                                        O % a ^ ] [ [ [ [ [ &.[ [ [ ] { R a W ^ 7 .                                             ",
"                                      O 0 r W ] [ [ [ [ [ [ [ [ [ [ ` ^ E d w = O .                                             ",
"                                    . O r ! ` [ [ [ [ [ [ [ [ [ [ ] ` W W R 7 o . .                                             ",
"                                    . O f { [ [ [ [ [ [ [ [ [ [ [ [ ] { ^ E s w % .                                             ",
"                                    . O R [ [ [ [ [ [ [ [ [ [ ] [ [ [ [ ` E W d 0 O                                             ",
"                                    . O R [ ` ` ] [ [ [ [ [ ` ` ] [ [ ] ^ W W E d f = . .                                       ",
"                                    . O d { ^ W ` [ [ [ ] ] ` ! ] [ [ ] ^ E W W ` ^ 0 . .                                       ",
"                                    . O a W s r R ^ ] ] { ` ` ` ] [ ` ^ W W W W E d = . .                                       ",
"                                    . O w f a a ! ' ' ] W W ` ] ] ] ^ W W E E E s r $ . .                                       ",
"                                        = 8 g *.d.c.:.W d s E ^ ^ ` W E R R R W R s & . .                                       ",
"                                        . + l a.W./.c.! f u ~ { ! Q W E s r d E R f = . .                                       ",
"                                        . + 7.B.oX:X^.a.-.*.z.B.>.W W E s r r s 0 = %                                           ",
"                                        . + 8.$X*X5X#X(.U.x.XX&Xj.W W E s r r 0 $ .                                             ",
"                                        . ; i.XX,X5X1X@XE.|.;X7X[.{ ! Q s 9 7 $ +                                               ",
"                                        . * 3.(.>X5X5X3X&X$X7X8X.X] ! E s 0 $ .                                                 ",
"                                        . + l d./.#X2X3X*X=X6X6X{.] ^ E 0 $ o .                                                 ",
"                                        . o 7 g a._.+X1X1X1X<X+Xv.] ^ R = . O X                                                 ",
"                                        . o 7 a l K H.I.I.I.I.H.4.] ^ R = X i J u .                                             ",
"                                        . o 7 e & # m B B B V C *.] ^ d - * =.J.Z X                                             ",
"                                        . O t ) p i D Z.C.C.N 6 g ` a 8 Z =.H.J.,.i 2 . .                                       ",
"                                        @ = Q  .! S F.G.G.F.4 X d ` 0 @ J J.J.J.5.,.1 . .                                       ",
"                                      : K 4.6. .` *.=.;.;.=.8 O d ` 7 o 2 H J 1.1.,.1 . .                                       ",
"                                    . 2 P._.l.o.' *.&.O.O.| q O a ^ e o o O u S ,.,.1 X .                                       ",
"                                    . 2 p.oXoXXXoXR.l.@.@.X.e o = w t T T T 0 1 S J 1 . .                                       ",
"                                    . 2 3.'.<X5X5X#X|.9.9.X.y . . % T O. .| q X Z ,.1 . .                                       ",
"                                      : G 2.`.5X5X,X}.9.9.+.t - r T _ O.O.| e X Z ,.1 . .                                       ",
"                                        . 3 Y.<X2X+X}.9.9.$.E p ) O.O.o.#. .q X Z S 1 . .                                       ",
"                                          : K d.[.[.].9.9.+.R p ) #.l.T.v.c.g . * 1 *                                           ",
"                                            . $ _ 9.9.9.9.+.E a ) o.R.'.OX/.H . . .                                             ",
"                                            . % } f.0.9.9.9...) Q ! U.OX+X`.P . . .                                             ",
"                                            . + c u.k.9.0.9.+. .R g J.OX<X:XL . . .                                             ",
"                                            . + c y.z.g.g.0.0.X...' U.OX<X:Xe.. .                                               ",
"                                            . + c y.y.t.t.r.h.9.+.%.T.OX<X:XL .                                                 ",
"                                            . + c t.w.q.z j 7.g.h.j.E.'.4X>XL .                                                 ",
"                                            . ; x t.q.c > ; x t.t.s.W.oX:X'.L .                                                 ",
"                                              + h j c w.q.c z j q.y.n.Y.a.e.v                                                   ",
"                                                . + c y.n.b.h + c y.s.w.h .                                                     ",
"                                                . X F U K.K.5 + c y.b.y.j .                                                     ",
"                                                + # n V.Z.A.4 + z y.n.b.j X                                                     ",
"                                              > q.s.I V.Z.A.4 o > k w.b.w.c h                                                   ",
"                                            . > N.=XL.V.Z.A.M . . + x y.n.b.j .                                                 ",
"                                                              . . X F U K.K.5 .                                                 ",
"                                                                . X b B Z.D.M .                                                 ",
"                                                                . + e.Q.~.Q.G .                                                 ",
"                                                                . > N.-X-X%Xq..                                                 ",
"                                                                . > m.-X-X%Xq..                                                 ",
"                                                                                                                                ",
"                                                                                                                                ",
"                                                                                                                                ",
"                                                                                                                                ",
"                                                                                                                                ",
"                                                                                                                                ",
"                                                                                                                                "
};
