/* XPM */
static char *out[] = {
/* columns rows colors chars-per-pixel */
"64 64 210 2 ",
"   c None",
".  c #000000",
"X  c #0D0405",
"o  c #06040A",
"O  c #09060D",
"+  c #0D0C0C",
"@  c #110404",
"#  c #120A0C",
"$  c #15070A",
"%  c #0B0613",
"&  c #0B0A13",
"*  c #0F0A18",
"=  c #1D0D13",
"-  c #120C1C",
";  c #170B1E",
":  c #151415",
">  c #1E1114",
",  c #1A1A1A",
"<  c #16101C",
"1  c #0C1316",
"2  c #2C0F1D",
"3  c #220D18",
"4  c #28121C",
"5  c #3D1213",
"6  c #371E1E",
"7  c #320C0E",
"8  c #150E23",
"9  c #1A0F21",
"0  c #170E29",
"q  c #180F28",
"w  c #0F132A",
"e  c #1B112C",
"r  c #14132A",
"t  c #1E1332",
"y  c #1B193B",
"u  c #161634",
"i  c #2A1322",
"p  c #391729",
"a  c #240D31",
"s  c #221535",
"d  c #23163B",
"f  c #26193C",
"g  c #26193A",
"h  c #371B37",
"j  c #232323",
"k  c #2D2C2C",
"l  c #3B2828",
"z  c #3D2233",
"x  c #343434",
"c  c #393737",
"v  c #3A3A3A",
"b  c #2B2C30",
"n  c #4C0D0D",
"m  c #500F0F",
"M  c #530E10",
"N  c #411313",
"B  c #551212",
"V  c #681518",
"C  c #7D1616",
"Z  c #7B1A1A",
"A  c #741313",
"S  c #421A2D",
"D  c #4B1A3B",
"F  c #511B39",
"G  c #6F1C25",
"H  c #432020",
"J  c #42242C",
"K  c #462934",
"L  c #57263A",
"P  c #58393D",
"I  c #543439",
"U  c #6E2E2E",
"Y  c #6F3636",
"T  c #7E2839",
"R  c #181D44",
"E  c #2A1C45",
"W  c #2D1E49",
"Q  c #261B48",
"!  c #381E4A",
"~  c #1A204A",
"^  c #28224D",
"/  c #31214E",
"(  c #362249",
")  c #333F4C",
"_  c #262153",
"`  c #24295A",
"'  c #342353",
"]  c #392954",
"[  c #39265A",
"{  c #3C295D",
"}  c #3D2754",
"|  c #2F3344",
" . c #232A63",
".. c #2B2C68",
"X. c #2C2D63",
"o. c #2A356B",
"O. c #3C366D",
"+. c #293171",
"@. c #2E3973",
"#. c #2E3A79",
"$. c #333471",
"%. c #303973",
"&. c #373B75",
"*. c #382C61",
"=. c #4D2546",
"-. c #542847",
";. c #5F3848",
":. c #5E3157",
">. c #513159",
",. c #483058",
"<. c #622341",
"1. c #612A45",
"2. c #6D2A4C",
"3. c #723F4C",
"4. c #683B55",
"5. c #793858",
"6. c #673C45",
"7. c #423563",
"8. c #3C4051",
"9. c #33505B",
"0. c #33417E",
"q. c #394475",
"w. c #454545",
"e. c gray30",
"r. c #5D4040",
"t. c #4F5159",
"y. c #555555",
"u. c #5B595A",
"i. c #56575D",
"p. c #5D4A56",
"a. c #7C4349",
"s. c #784655",
"d. c #645859",
"f. c #684656",
"g. c #444C6B",
"h. c #484F69",
"j. c #454A65",
"k. c #574C69",
"l. c #424B70",
"z. c #5B4777",
"x. c #4E5264",
"c. c #684663",
"v. c #7A4766",
"b. c #705471",
"n. c #646363",
"m. c #6A6565",
"M. c #6D6D6D",
"N. c #7F6D7E",
"B. c #727272",
"V. c #626678",
"C. c #861C1C",
"Z. c #892121",
"A. c #952424",
"S. c #992727",
"D. c #952B2B",
"F. c #9F3238",
"G. c #892B30",
"H. c #853C50",
"J. c #8B3D63",
"K. c #873C60",
"L. c #834545",
"P. c #8C4A4A",
"I. c #8A4B57",
"U. c #A3464A",
"Y. c #864D68",
"T. c #895D64",
"R. c #855378",
"E. c #925C75",
"W. c #A25D71",
"Q. c #956569",
"!. c #9F647E",
"~. c #A96277",
"^. c #BB6B7D",
"/. c #B56679",
"(. c #B2717A",
"). c #C36C7E",
"_. c #4D4E84",
"`. c #725F8A",
"'. c #7D5D82",
"]. c #6C5C89",
"[. c #5F6E80",
"{. c #6F6083",
"}. c #647F8E",
"|. c #7F6D91",
" X c #967288",
".X c #BD7380",
"XX c #A77287",
"oX c #C56F81",
"OX c #CD7D8C",
"+X c #C57C88",
"@X c #D27E8D",
"#X c #678D9B",
"$X c #9A9A9A",
"%X c #8E8798",
"&X c #B88A99",
"*X c #AA959B",
"=X c #AEAEAE",
"-X c #A1A0AF",
";X c #CA848C",
":X c #D3838F",
">X c #CA8998",
",X c #D78592",
"<X c #D98790",
"1X c #D88B97",
"2X c #D6939E",
"3X c #E08F9B",
"4X c #E4949E",
"5X c #D2A5B2",
"6X c #B9B7C5",
"7X c #D9C8D6",
/* pixels */
"                                                                                                                                ",
"                                                                                                                                ",
"                                                                                                                                ",
"                                                                                                                                ",
"                                                  . . . . . . . . .                                                             ",
"                                                o O O O O % O O O O                                                             ",
"                                              o 8 t g f f E f f s e * . . . . . . .                                             ",
"                                            O * s / ] { { { { { ' E 8 O o o O O o .                                             ",
"                                          o 8 s W [ { { { { { { ] ' W g e 8 s s * .                                             ",
"                                        o * s W [ { { { { { { { { { { ' E s E W ; .                                             ",
"                                      O 8 s W [ [ { { { { 7.{ { { { ' / E f e - O .                                             ",
"                                    . O t / ] { { { { { { { { { { { ' W ^ E 8 o . .                                             ",
"                                    . O d [ { { { { { { { { { { { { [ ' W E s q & .                                             ",
"                                    . O f { { [ { { { { { { { { { { { { / W E E 8 O                                             ",
"                                    . % f { ' ' [ { { { { { ' ' [ { { { ' W W Q E g - . .                                       ",
"                                    . O d [ W W ' { { { [ [ ' W ' { { [ / W W W ' / 8 . .                                       ",
"                                    . O s / d t W ' [ { ' ' ' [ [ [ ' / W W W W E d - . .                                       ",
"                                    . O e d s s h } ] [ W E ' [ { [ / W W E E E d t % . .                                       ",
"                                        - ; h -.5.v.>.W d s E ( ' / W W Q a Q E E d * . .                                       ",
"                                        . + K f.W./.c.( g s W ] W W W Q d a d Q f d - . .                                       ",
"                                        . & 8.V.XX;X~.Y.;.-.k.b.,.W W E d t d d 0 - %                                           ",
"                                        . 1 9.#X&X1X;X/.Y.c. X%Xk./ W E d t e 0 % .                                             ",
"                                        . : e.XX;X4X1X&XN.V.-X6X{.' / E d e 8 % O                                               ",
"                                        . $ 3./.:X2X4X2X%X#X6X7X|.[ ' E s 8 % .                                                 ",
"                                        . + h f.~.@X1X4X&X&X5X5X'.[ / E 0 % o .                                                 ",
"                                        . o ; h s./.OX,X<X:X<X+Xb.[ W E ; . X #                                                 ",
"                                        . o 8 s z U H.U.U.U.U.H.4.[ ' E * X p L i .                                             ",
"                                        . o 8 t % @ M A C C.A V D { W d ; 3 -.K.S O                                             ",
"                                        . O u _ s p G A.S.C.M 2 h ] s ; z -.K.J.<.S 3 . .                                       ",
"                                        # < _ ..! F G.H.F.D.5 o E ' 9 # L K.J.J.5.<.2 . .                                       ",
"                                      > I 4.7.$.! D -.:.:.-.a o g ' 8 o 4 S L 2.2.<.2 . .                                       ",
"                                    . 3 I.W.z.7.,.=.*.+.+. .0 o t / 0 o o + i F <.<.2 . .                                       ",
"                                    . > L.^.XX X XE.z.#.#.o.w . * r y R y y e 2 F <.2 . .                                       ",
"                                    . > 3.^.@X4X4X>X{.0.0.o.u o o & ~ +.+. .w X S <.2 . .                                       ",
"                                      > K 6.(.4X4X>X`.0.0.@.g - u R  .+.+. .w O S L 2 . .                                       ",
"                                        . 4 T.<X2XOX].0.0.@.Q a _ +.+.$.$.X.w X S L 2 . .                                       ",
"                                          4 I p.b.]._.0.0.#.E a _ +.:.R.R.v.h . = 2 =                                           ",
"                                            . & ` 0.0.0.0.%.^ a _ $. X.XoX~.K . . .                                             ",
"                                            . & | l.q.0.0.%.X.Q Q ' Y.oXOX^.I . . .                                             ",
"                                            . + v i.l.0.0.0.#.X.Q h I.oX<X;XP . . .                                             ",
"                                            . + v i.x.h.h.h.q.o._ { R.oX,X;XP . .                                               ",
"                                            . + v u.u.y.y.t.q.0.#.7.R.oX,X;XP .                                                 ",
"                                            . + c y.e.w.x k 8.h.j.k.E.oX,X;XP .                                                 ",
"                                            . + c y.w.c , 1 v y.y.d.E.oXOX+XP .                                                 ",
"                                              + j k v e.w.v k k w.d.m.T.s.r.l                                                   ",
"                                                . # v u.m.n.k + v u.u.e.j .                                                     ",
"                                                . @ H Y L.L.6 + v u.n.u.j .                                                     ",
"                                                . @ n C S.D.5 + x i.m.n.x o                                                     ",
"                                                . @ n C.S.D.5 o , k e.n.e.v j                                                   ",
"                                                O $ m C S.D.N . . + c u.m.m.k .                                                 ",
"                                              , w.d.U C A.    . . X H Y L.L.6 .                                                 ",
"                                            . , B.*XP.A         . X n Z A.D.N .                                                 ",
"                                                                . @ n C C.Z 7 .                                                 ",
"                                                                . X n C A A 7 .                                                 ",
"                                                                . + r.Q.Q.T.l .                                                 ",
"                                                                . : M.=X=X$Xw..                                                 ",
"                                                                . , M.=X=X$Xw..                                                 ",
"                                                                                                                                ",
"                                                                                                                                ",
"                                                                                                                                ",
"                                                                                                                                ",
"                                                                                                                                ",
"                                                                                                                                ",
"                                                                                                                                "
};
