/* XPM */
static char *out[] = {
/* columns rows colors chars-per-pixel */
"64 64 208 2 ",
"   c None",
".  c #000000",
"X  c #0C0506",
"o  c #06040A",
"O  c #09060C",
"+  c #0D0C0C",
"@  c #14060A",
"#  c #140B0B",
"$  c #0B0612",
"%  c #0C0914",
"&  c #0F0A18",
"*  c #1D0D13",
"=  c #110C1C",
"-  c #160B1D",
";  c #151415",
":  c #1A1A1A",
">  c #1C1116",
",  c #0C1316",
"<  c #2C0F1D",
"1  c #230D18",
"2  c #2D101E",
"3  c #231118",
"4  c #3E1213",
"5  c #371E1E",
"6  c #320C13",
"7  c #150E22",
"8  c #170D28",
"9  c #180F28",
"0  c #1A0F22",
"q  c #0F132A",
"w  c #1B122B",
"e  c #14132A",
"r  c #1D1232",
"t  c #181837",
"y  c #2B1223",
"u  c #391728",
"i  c #211535",
"p  c #231937",
"a  c #23163B",
"s  c #26193C",
"d  c #281B3E",
"f  c #291737",
"g  c #371B37",
"h  c #240F34",
"j  c #232323",
"k  c #2D2C2C",
"l  c #2C2D30",
"z  c #3A2433",
"x  c #343434",
"c  c #393737",
"v  c #3A3A3A",
"b  c #3C272A",
"n  c #4C0F0F",
"m  c #510F0F",
"M  c #411414",
"N  c #561212",
"B  c #7D1616",
"V  c #791717",
"C  c #66141B",
"Z  c #42192C",
"A  c #491C34",
"S  c #501C36",
"D  c #6F1C24",
"F  c #432121",
"G  c #43292D",
"H  c #462934",
"J  c #58273B",
"K  c #553239",
"L  c #59393D",
"P  c #56353A",
"I  c #6E2E2E",
"U  c #6F3737",
"Y  c #181D44",
"T  c #261941",
"R  c #2A1C45",
"E  c #2D1E49",
"W  c #261D4D",
"Q  c #321E42",
"!  c #2B204A",
"~  c #31214E",
"^  c #382249",
"/  c #333F4B",
"(  c #272658",
")  c #342353",
"_  c #3C2754",
"`  c #39275A",
"'  c #3C295D",
"]  c #382755",
"[  c #232A63",
"{  c #292D6A",
"}  c #2C2D63",
"|  c #2C326C",
" . c #2C386E",
".. c #3B386B",
"X. c #293171",
"o. c #2E3873",
"O. c #2E3A79",
"+. c #343873",
"@. c #492444",
"#. c #582744",
"$. c #5D324C",
"%. c #483A58",
"&. c #5F3156",
"*. c #513159",
"=. c #482955",
"-. c #622341",
";. c #682A48",
":. c #733F4D",
">. c #713F59",
",. c #7C3457",
"<. c #623457",
"1. c #5D3C65",
"2. c #3C4051",
"3. c #32505B",
"4. c #33417E",
"5. c #374173",
"6. c #454545",
"7. c #4C4C4C",
"8. c #5D4040",
"9. c #4F5159",
"0. c #565656",
"q. c #5C5959",
"w. c #56575D",
"e. c #5C4A56",
"r. c #644147",
"t. c #7C4449",
"y. c #7F4652",
"u. c #774757",
"i. c #665B5E",
"p. c #625454",
"a. c #6B475D",
"s. c #444B6C",
"d. c #484F6A",
"f. c #454A66",
"g. c #574B69",
"h. c #4E5264",
"j. c #424B70",
"k. c #514576",
"l. c #674562",
"z. c #794665",
"x. c #7F5177",
"c. c #71566D",
"v. c #6A6565",
"b. c #6B6969",
"n. c #7F6D7E",
"m. c #727272",
"M. c #626678",
"N. c #801818",
"B. c #882121",
"V. c #992727",
"C. c #942B2B",
"Z. c #982727",
"A. c #882C36",
"S. c #983030",
"D. c #A13237",
"F. c #853C51",
"G. c #8B3D63",
"H. c #824646",
"J. c #8C4A4A",
"K. c #8E4556",
"L. c #A4474B",
"P. c #864E68",
"I. c #895877",
"U. c #955B72",
"Y. c #845D65",
"T. c #A25D71",
"R. c #99656C",
"E. c #9E647D",
"W. c #A46F6F",
"Q. c #AB6173",
"!. c #A36077",
"~. c #BC6B7D",
"^. c #B56678",
"/. c #BC737F",
"(. c #C26C7E",
"). c #6D5985",
"_. c #7D5D82",
"`. c #686782",
"'. c #637F8E",
"]. c #7F6D92",
"[. c #957288",
"{. c #A77887",
"}. c #C56F81",
"|. c #C77182",
" X c #CC7C8A",
".X c #C57D89",
"XX c #D27E8D",
"oX c #658D9B",
"OX c #9A9A9A",
"+X c #8D8797",
"@X c #AF8C98",
"#X c #A9959B",
"$X c #BA8F9A",
"%X c #A09FAE",
"&X c #AEAEAE",
"*X c #CA848C",
"=X c #D0808E",
"-X c #C68697",
";X c #D78592",
":X c #DA8892",
">X c #D88995",
",X c #D6939E",
"<X c #E08F9B",
"1X c #E4949E",
"2X c #D2A6B2",
"3X c #BCAFC0",
"4X c #B6BDC8",
"5X c #D9C8D7",
/* pixels */
"                                                                                                                                ",
"                                                                                                                                ",
"                                                                                                                                ",
"                                                                                                                                ",
"                                                                                                                                ",
"                                                                                                                                ",
"                                                                                                                                ",
"                                                                                                                                ",
"                                                  . . . . . . . . .           . . .                                             ",
"                                                o o O O O O $ O O o         + O . .                                             ",
"                                              o 7 r a d d d W a i w % . . o w i & .                                             ",
"                                            o % i ~ ` ' ' ' ' ' ) R 7 O o $ s ) 9 .                                             ",
"                                          O 7 i E ] ` ' ' =.' ' ` ) E a w 7 d E = .                                             ",
"                                        o % i E ] ' ' ' ' ' ' ' ' ' ` ` R r a a 7 +                                             ",
"                                      O 7 i E ` ' ' ' ' ' ' ' ' ' ' ] E E a w = w s = . .                                       ",
"                                    . O r ~ ` ' ' ' ' ' ' ' ' ' ' ' ) E E T 7 $ s ~ 7 . .                                       ",
"                                    . O s ] ` ' ' ' ' ' ' ' ' ' ' ` ` ] E R a r a a = . .                                       ",
"                                    . O d ' ' ' ' ' ' ' ' ' ' ' ' ' ` ` ) E R R i 8 $ . .                                       ",
"                                    . $ d ` ) ) ` ' ' ' ' ' ` ) ` ' ' ' ) R R R 9 $ O                                           ",
"                                    . O d ` E E ) ` ' ' ' ` ~ E ` ' ` ` ~ E E T = .                                             ",
"                                    . O r ~ a t R ) ` ' ] ~ ) ] ` ' ] ~ E E E T = . . . .                                       ",
"                                    . O w d i i Q =.` ] E E ) ' ` ` ) R R R R R 7 o . . .                                       ",
"                                        & 0 u @.>.z.*.E T i R ~ ) ) E R T a R R i w $ . .                                       ",
"                                        . $ H u.U.^.>.^ f h R _ E R E R a r d R T a = . .                                       ",
"                                        . % 2.M.E. XQ.z.$.@.i.M.%.W E R T r h t w & %                                           ",
"                                        . , 3.oX@X,XXX^.z.l.[.+Xg.E E R a r r 8 $ .                                             ",
"                                        . ; e.[.-X1X:X*X[.M.%X&X).) ~ R a r 7 $ +                                               ",
"                                        . * t.~.=X,X1X,X+XoX4X5X[.} ~ R h 8 $ .                                                 ",
"                                        . + g >.Q.XX<X1X$X#X2X2X_.` ~ R 8 $ o .                                                 ",
"                                        . o 7 g u.^.(.:X:X:X:X|.x.' ~ T = . o O                                                 ",
"                                        . o = i H J F.L.L.L.L.J.&.` ~ d = X u J y .                                             ",
"                                        . o 7 r $ @ m N.B B V C J ` ~ s - * #.G.Z o                                             ",
"                                        . O t W h u D Z.Z.B.N 6 g ) i 0 g -.,.P.-.Z 1 . .                                       ",
"                                        + > ( ..=.#.A.S.S.A.4 O T ) 7 + J G.G.G.F.-.< . .                                       ",
"                                      * K u.I.[.U.U.z.&.&.#.y o a ] 7 X < Z J ;.;.-.2 . .                                       ",
"                                    . > H.|.;X1X1X-X).X.X.[ q O t ~ 9 o o $ u S -.-.2 . .                                       ",
"                                    . 3 y.}.;X1X1X-X).4.O.| q . & r t Y Y t w < S -.< . .                                       ",
"                                    . 3 t.^. X>X<X.X).4.4. .t . o & Y { { [ q O Z -.< . .                                       ",
"                                      * G K P :.z.z.).O.4.o.a & q Y [ { X.[ q X Z J < . .                                       ",
"                                        . . . O u ^ X.O.4.o.W h ( { | +.+.{ e X Z J 2 . .                                       ",
"                                          . . + k %.j.O.4.O.} W W E 1.I.x.z.f X * 2 *                                           ",
"                                            . + v w.s.4.4.4.o.{ T g ,.}.(.Q.G . . .                                             ",
"                                            . + v w.h.d.d.s.5.o.( ` P.}. X/.K . . .                                             ",
"                                            . + v q.0.0.0.0.j.4.+.{ [.}.;X*XL . . .                                             ",
"                                            . + v 0.7.6.x k 2.h.%.k.U.}.;X-XL . .                                               ",
"                                            . ; x 0.7.c : , c 0.w.i.R.}.;X*XL .                                                 ",
"                                              + j k v 7.6.v k k 6.i.R.}.;X*XL .                                                 ",
"                                                . + v q.v.v.k + v i.R.}. X.XL .                                                 ",
"                                                . X F U H.t.5 + v p.v.Y.u.r.b                                                   ",
"                                                O # m N.V.C.M X x 0.0.0.j X                                                     ",
"                                              : 7.p.I N.V.C.4 o : k 6.0.7.v j                                                   ",
"                                            . : m.#XJ.N.V.C.M . . + x q.v.v.k .                                                 ",
"                                                              . . X F U H.H.5 .                                                 ",
"                                                                . X n N.C.S.M .                                                 ",
"                                                                . # 8.R.W.R.G .                                                 ",
"                                                                . ; m.&X&XOX6..                                                 ",
"                                                                . : m.&X&XOX6..                                                 ",
"                                                                                                                                ",
"                                                                                                                                ",
"                                                                                                                                ",
"                                                                                                                                ",
"                                                                                                                                ",
"                                                                                                                                ",
"                                                                                                                                "
};
