/* XPM */
static char *out[] = {
/* columns rows colors chars-per-pixel */
"64 64 209 2 ",
"   c None",
".  c #000000",
"X  c #0C0506",
"o  c #06040A",
"O  c #09060D",
"+  c #0D0C0D",
"@  c #110A0C",
"#  c #15070A",
"$  c #0B0612",
"%  c #0C0A14",
"&  c #0F0A18",
"*  c #1D0D13",
"=  c #110C1C",
"-  c #170B1E",
";  c #151415",
":  c #1E1114",
">  c #1A1A1A",
",  c #18111C",
"<  c #0C1316",
"1  c #2C0F1D",
"2  c #230D18",
"3  c #2D101E",
"4  c #26111B",
"5  c #3D1213",
"6  c #371E1E",
"7  c #320C13",
"8  c #150E23",
"9  c #1A0F21",
"0  c #170D28",
"q  c #180F28",
"w  c #0F132A",
"e  c #1B122C",
"r  c #14132A",
"t  c #1D1232",
"y  c #1B193B",
"u  c #161633",
"i  c #2B1224",
"p  c #391729",
"a  c #240D31",
"s  c #211535",
"d  c #231836",
"f  c #23163B",
"g  c #26193C",
"h  c #281A3C",
"j  c #371B37",
"k  c #232323",
"l  c #2D2C2C",
"z  c #2C2D30",
"x  c #3D2234",
"c  c #333333",
"v  c #393737",
"b  c #3A3A3A",
"n  c #3D272B",
"m  c #4C0F0F",
"M  c #500F0F",
"N  c #520E10",
"B  c #411414",
"V  c #561212",
"C  c #7D1616",
"Z  c #791717",
"A  c #65141B",
"S  c #42192D",
"D  c #491C34",
"F  c #501C36",
"G  c #6F1C24",
"H  c #432121",
"J  c #43292D",
"K  c #462934",
"L  c #57283A",
"P  c #553239",
"I  c #59393D",
"U  c #56393C",
"Y  c #6E2E2E",
"T  c #6F3737",
"R  c #181D45",
"E  c #251A42",
"W  c #2A1C45",
"Q  c #2D1E49",
"!  c #261D4D",
"~  c #391E46",
"^  c #2B204A",
"/  c #31214E",
"(  c #39234B",
")  c #333F4C",
"_  c #262154",
"`  c #262958",
"'  c #342353",
"]  c #3D2754",
"[  c #39275A",
"{  c #3C295D",
"}  c #382755",
"|  c #2F3344",
" . c #232A63",
".. c #2B2C64",
"X. c #2A356B",
"o. c #3B356C",
"O. c #383166",
"+. c #2A3171",
"@. c #2E3873",
"#. c #2E3A79",
"$. c #343471",
"%. c #313974",
"&. c #373B75",
"*. c #4D2643",
"=. c #562745",
"-. c #5E324D",
";. c #5E3157",
":. c #513159",
">. c #483058",
",. c #622341",
"<. c #612A44",
"1. c #6E2A4C",
"2. c #603F44",
"3. c #733F4D",
"4. c #693A58",
"5. c #793757",
"6. c #3C4051",
"7. c #32505B",
"8. c #33417E",
"9. c #394475",
"0. c #454545",
"q. c gray30",
"w. c #5D4040",
"e. c #4F5159",
"r. c #555555",
"t. c #5B595A",
"y. c #56575D",
"u. c #5D4A56",
"i. c #7B4449",
"p. c #7D4653",
"a. c #764759",
"s. c #645859",
"d. c #694453",
"f. c #444C6C",
"g. c #484F6A",
"h. c #454A66",
"j. c #574B69",
"k. c #424B70",
"l. c #584576",
"z. c #4E5264",
"x. c #684663",
"c. c #794666",
"v. c #71566E",
"b. c #646363",
"n. c #6A6565",
"m. c #6D6D6D",
"M. c #7F6D7E",
"N. c #727272",
"B. c #626678",
"V. c #801818",
"C. c #892121",
"Z. c #992727",
"A. c #942B2B",
"S. c #982727",
"D. c #872C36",
"F. c #983030",
"G. c #A03238",
"H. c #863C51",
"J. c #8B3D63",
"K. c #824646",
"L. c #8C4A4A",
"P. c #8E4556",
"I. c #A3464A",
"U. c #864D68",
"Y. c #825277",
"T. c #8A5977",
"R. c #955B72",
"E. c #835D65",
"W. c #A25D71",
"Q. c #97666A",
"!. c #9F647E",
"~. c #A46F6F",
"^. c #A66177",
"/. c #AD6071",
"(. c #B7687B",
"). c #B76779",
"_. c #BD737F",
"`. c #C26C7E",
"'. c #6D5985",
"]. c #7D5D82",
"[. c #686782",
"{. c #647F8E",
"}. c #7F6D92",
"|. c #967287",
" X c #A77887",
".X c #C56F81",
"XX c #C77182",
"oX c #CD7C8B",
"OX c #C57C88",
"+X c #D17E8D",
"@X c #668D9B",
"#X c #9A9A9A",
"$X c #8E8798",
"%X c #B98997",
"&X c #AA959B",
"*X c #AEAEAE",
"=X c #A1A0AE",
"-X c #CA848C",
";X c #D0808E",
":X c #C88897",
">X c #D78592",
",X c #DA8892",
"<X c #D88994",
"1X c #D6939E",
"2X c #E08F9B",
"3X c #E4949E",
"4X c #D2A6B2",
"5X c #B9B7C4",
"6X c #D9C8D7",
/* pixels */
"                                                                                                                                ",
"                                                                                                                                ",
"                                                                                                                                ",
"                                                                                                                                ",
"                                                                                                                                ",
"                                                                                                                                ",
"                                                  . . . . . . . . .           . . .                                             ",
"                                                o O O O O O $ O o O         O O o .                                             ",
"                                              O 8 t g h h h W E s e % . . o e d % .                                             ",
"                                            o % t / [ { { { { { ' W 8 O o $ g ' 9 .                                             ",
"                                          o 8 s ^ } { { { { { { [ ' ^ g e q g Q 8 .                                             ",
"                                        O % s / [ { { { { { { { { { [ } W t f f % .                                             ",
"                                      o 8 t Q [ [ { { { { { { { { [ } Q W f q % o .                                             ",
"                                    . O t / } { { { { { { { { { { { ' Q Q W 8 O O O                                             ",
"                                    . O g } { { { { { { { { { { { { [ } Q W f e d d 8 . .                                       ",
"                                    . $ h { { { { { { { { { { [ { { { [ ' Q Q Q ' / 8 . .                                       ",
"                                    . O h { ' ' } { { { { { ' ' [ { { [ Q Q W W W f = . .                                       ",
"                                    . O g [ Q Q ' [ { { [ [ ' Q [ { { [ ' Q Q W s 0 $ . .                                       ",
"                                    . O s Q f y W ' [ { } ' ' [ [ >.' / Q Q Q W q $ o . .                                       ",
"                                    . O e f s s ~ ] ] ] Q W ' [ [ [ / Q W W W E 8 o . . .                                       ",
"                                        & 9 j =.5.c.:.Q f s W / / / Q Q E f E W s 0 $ . .                                       ",
"                                        . @ K d.R.).x.( h a Q >./ Q Q Q f f E W E f = . .                                       ",
"                                        . % ) B. X-X^.U.-.*.j.B.>.Q W W f t f s e = $                                           ",
"                                        . < 7.{.%X,XoX).U.x.|.$Xl.Q Q W f t 0 q $ .                                             ",
"                                        . ; u.|.:X3X,X-XT.{.=X*X'.' Q Q f 0 8 $ O                                               ",
"                                        . * 3.(.;X3X1X1X$X@X5X6X|.[ ' E f 0 $ .                                                 ",
"                                        . + x 4.^.+X,X3X%X&X4X4X'.{ ' E q $ o .                                                 ",
"                                        . o 8 j p.).OX<X>X,X,XOXv.[ / E = . X @                                                 ",
"                                        . o 8 s j P H.I.I.I.H.I.4.[ ' h = X p L i .                                             ",
"                                        . o 8 e * # N V.C C Z A *.{ Q h 8 * =.J.S X                                             ",
"                                        . O u _ s 3 G Z.Z.C.N 7 j ' s 9 S <.5.J.,.p 2 . .                                       ",
"                                        @ , ` o.>.,.D.G.Z.A.5 $ f ' 0 O L J.J.J.5.,.1 . .                                       ",
"                                      * L p.T.|.!.R.c.;.;.*.4 o g ' 8 X 4 S =.1.1.,.1 . .                                       ",
"                                    . : P.XX,X3X3X:X'.+.+. .w o s / r o o O i F ,.,.1 . .                                       ",
"                                    . : p.XX>X3X3X:X'.#.#.X.w o = r u R R y e 1 F ,.1 . .                                       ",
"                                    . : a.).OX<X2X X'.8.8.@.w o o % R +.+. .w X S ,.1 . .                                       ",
"                                      : J P I 2.a.c.l.8.8.@.y - t R  .+.+. .w X S ,.1 . .                                       ",
"                                        . . . X p ~ $.8.8.@.Q a _ +.$.$.$...r X S L 1 . .                                       ",
"                                          . . O E o.&.8.8.@.W a _ +.l.Y.v.c.j . * 1 *                                           ",
"                                            . $ ` 8.8.8.8.@.Q s _ o.Y..X.X/.K . . .                                             ",
"                                            . % | f.9.8.8.8.` _ Q ( U..XoX_.P . . .                                             ",
"                                            . + b y.k.8.8.8.@...E j J..X>X-XU . . .                                             ",
"                                            . + b y.z.g.g.h.9.@...{ U..X>X-XI . .                                               ",
"                                            . + b t.t.r.r.e.9.9.$.o.Y..X>X-XI .                                                 ",
"                                            . + b t.q.0.c l 6.z.h.j.Q..X<X-XI .                                                 ",
"                                            . ; b q.0.b > < v r.r.s.Q.`.>X XI .                                                 ",
"                                              + k l b q.0.b c l 0.t.v.E.a.w.J                                                   ",
"                                                . + b s.n.b.k + b t.t.q.k .                                                     ",
"                                                . X H T K.K.6 + b t.b.t.l .                                                     ",
"                                                + # M V.Z.A.5 + c t.n.b.l o                                                     ",
"                                              > 0.s.Y V.Z.A.5 o > z q.b.q.b k                                                   ",
"                                            . > N.&XL.V.Z.A.B . . + v t.n.b.l .                                                 ",
"                                                              . . X H T K.K.6 .                                                 ",
"                                                                . X m C S.F.B .                                                 ",
"                                                                . + w.Q.~.Q.J .                                                 ",
"                                                                . > N.*X*X#X0..                                                 ",
"                                                                . > m.*X*X#X0..                                                 ",
"                                                                                                                                ",
"                                                                                                                                ",
"                                                                                                                                ",
"                                                                                                                                ",
"                                                                                                                                ",
"                                                                                                                                ",
"                                                                                                                                "
};
