/* XPM */
static char *out[] = {
/* columns rows colors chars-per-pixel */
"64 64 215 2 ",
"   c None",
".  c #000000",
"X  c #0E0505",
"o  c #06040A",
"O  c #0A050C",
"+  c #0D0C0D",
"@  c #14090B",
"#  c #0C0613",
"$  c #0B0A14",
"%  c #0F0A18",
"&  c #1D0D13",
"*  c #110C1C",
"=  c #150B1A",
"-  c #151415",
";  c #1E1114",
":  c #1A1A1A",
">  c #15101B",
",  c #0C1316",
"<  c #2C0F1D",
"1  c #230D18",
"2  c #2D101E",
"3  c #25151B",
"4  c #3D1213",
"5  c #371E1E",
"6  c #320C13",
"7  c #150E23",
"8  c #1A0F21",
"9  c #180F28",
"0  c #170E29",
"q  c #0F132A",
"w  c #1A112C",
"e  c #14132A",
"r  c #1D1232",
"t  c #1C1A3C",
"y  c #161633",
"u  c #281421",
"i  c #391729",
"p  c #240D31",
"a  c #211534",
"s  c #23163B",
"d  c #26193C",
"f  c #281A39",
"g  c #371B37",
"h  c #232323",
"j  c #2D2C2C",
"k  c #2C2D30",
"l  c #3D2234",
"z  c #333333",
"x  c #393737",
"c  c #3A3A3A",
"v  c #3D272B",
"b  c #4C0F0F",
"n  c #500F0F",
"m  c #520E10",
"M  c #411414",
"N  c #561212",
"B  c #7D1616",
"V  c #791717",
"C  c #65141B",
"Z  c #431A2D",
"A  c #4C193D",
"S  c #6F1C24",
"D  c #432121",
"F  c #43292D",
"G  c #442435",
"H  c #4B2A31",
"J  c #54263D",
"K  c #5B243E",
"L  c #5A2F36",
"P  c #553239",
"I  c #58393D",
"U  c #53373A",
"Y  c #6E2E2E",
"T  c #6F3737",
"R  c #7F2839",
"E  c #181D45",
"W  c #261843",
"Q  c #2A1C45",
"!  c #2D1E49",
"~  c #261D4D",
"^  c #381E4A",
"/  c #29214B",
"(  c #31214E",
")  c #39234B",
"_  c #333F4C",
"`  c #262154",
"'  c #24295A",
"]  c #342353",
"[  c #3D2754",
"{  c #39275A",
"}  c #3C295D",
"|  c #382755",
" . c #2F3344",
".. c #232A63",
"X. c #2B2C68",
"o. c #2C2D63",
"O. c #2A356B",
"+. c #3C356D",
"@. c #2A3171",
"#. c #2E3873",
"$. c #2E3A79",
"%. c #343471",
"&. c #303973",
"*. c #373B75",
"=. c #372B61",
"-. c #4C2545",
";. c #522949",
":. c #5E324D",
">. c #5E3157",
",. c #513159",
"<. c #473058",
"1. c #622341",
"2. c #622844",
"3. c #643E45",
"4. c #733F4D",
"5. c #683A55",
"6. c #723956",
"7. c #782F52",
"8. c #423563",
"9. c #3C4051",
"0. c #32505B",
"q. c #33417E",
"w. c #394475",
"e. c #454545",
"r. c gray30",
"t. c #5D4040",
"y. c #4F5159",
"u. c #555555",
"i. c #5B595A",
"p. c #56575D",
"a. c #5D4A56",
"s. c #7B4449",
"d. c #794756",
"f. c #645859",
"g. c #694757",
"h. c #444C6C",
"j. c #484F6A",
"k. c #454A66",
"l. c #574B69",
"z. c #424B70",
"x. c #5B4677",
"c. c #4E5264",
"v. c #684663",
"b. c #794766",
"n. c #705471",
"m. c #646363",
"M. c #6A6565",
"N. c #6D6D6D",
"B. c #7F6D7E",
"V. c #727272",
"C. c #626678",
"Z. c #801818",
"A. c #892121",
"S. c #992727",
"D. c #942B2B",
"F. c #982727",
"G. c #983030",
"H. c #8A2B30",
"J. c #A03238",
"K. c #853B5F",
"L. c #853D42",
"P. c #8B3D62",
"I. c #824646",
"U. c #8C4A4A",
"Y. c #8E4556",
"T. c #A3464A",
"R. c #864D68",
"E. c #904066",
"W. c #895D65",
"Q. c #825277",
"!. c #895578",
"~. c #925C75",
"^. c #A25D71",
"/. c #97666A",
"(. c #9E647D",
"). c #A46F6F",
"_. c #A66177",
"`. c #AD6177",
"'. c #B7687B",
"]. c #BB6B7D",
"[. c #B36578",
"{. c #B8727D",
"}. c #C26C7E",
"|. c #4D4E84",
" X c #725F8A",
".X c #7D5D82",
"XX c #6D5D8A",
"oX c #686782",
"OX c #647F8E",
"+X c #7F6D92",
"@X c #957287",
"#X c #A67287",
"$X c #C56F81",
"%X c #CD7C8B",
"&X c #C57C88",
"*X c #D17E8D",
"=X c #668D9B",
"-X c #9A9A9A",
";X c #8E8798",
":X c #B98A99",
">X c #AA959B",
",X c #AEAEAE",
"<X c #A1A0AE",
"1X c #CA848C",
"2X c #D0808E",
"3X c #C98998",
"4X c #D68592",
"5X c #DA8892",
"6X c #D88C97",
"7X c #D6939E",
"8X c #E08F9B",
"9X c #E4949E",
"0X c #D2A6B2",
"qX c #B9B7C4",
"wX c #D9C8D7",
/* pixels */
"                                                                                                                                ",
"                                                                                                                                ",
"                                                                                                                                ",
"                                                                                                                                ",
"                                                                                                                                ",
"                                                                                                                                ",
"                                                  . . . . . . . . .                                                             ",
"                                                o O O O O # O O o O                                                             ",
"                                              o 7 r f Q d d Q d a w $ . . . . . . .                                             ",
"                                            O $ r ( | } } } } } ] Q 9 O o o o O . .                                             ",
"                                          o 7 r ( | } } } } } } { ] Q d w 7 r r % .                                             ",
"                                        O $ a ] ] } } } } } } } } } } ] Q s / ( 7 .                                             ",
"                                      o 9 r ! { } } } } } } } } } } ] ( Q d w > O .                                             ",
"                                    . o r ( ] } } } } } } } } } } } ] ( ! W 7 o . .                                             ",
"                                    . O f | } } } } } } } } } } } } { ] ( Q f 9 $ .                                             ",
"                                    . $ d } } } } } } } } } { { } } } { ( ! Q W 7 O                                             ",
"                                    . O d } ] ] { } } } } } ] ] { } } { ] ! ! ! d f * . .                                       ",
"                                    . # d { ( ! ] { } } { { ] ( { } { { ( Q ! ! ] ( 9 . .                                       ",
"                                    . o a ! s r Q ( { { ] ( ] [ { } { ( ! ! ! Q Q d * . .                                       ",
"                                    . O w d a a ^ [ [ [ ( ! ] } { { ( ! Q Q Q Q s r $ . .                                       ",
"                                        * 8 g -.6.b.,.( d a Q ] ( ] ! Q W W W Q W s $ . .                                       ",
"                                        . + l d.^.`.v.) f p ! [ ( Q Q Q s r d Q W d * . .                                       ",
"                                        . + 9.C.#X1X_.b.:.-.p.C.8.! ! Q s r r s w * #                                           ",
"                                        . + 0.=X:X9X*X'.R.g.@X;Xl.! ! Q s r r 7 # .                                             ",
"                                        . - a.@X3X9X5X&X.XoX<XqX X[ ! Q s r 7 # O                                               ",
"                                        . & 4.'.2X9X9X7X;X=XqXwX@X{ ] Q s 0 # .                                                 ",
"                                        . + g v.`.*X6X7X:X>X0X0X X{ ( W 9 # o                                                   ",
"                                        . o = g d.[.%X5X5X5X4X%Xb.=.( W * .                                                     ",
"                                        . o 7 a l L L.T.T.T.L.T.5.{ ] d * . . .                                                 ",
"                                        . o 7 r % @ m B B B V C A { ! d = O O @                                                 ",
"                                        . o t ` p i S S.F.A.m 6 ^ ] a 8 l K K J u .                                             ",
"                                        @ > E X.^ A H.J.J.H.4 o f ] 7 @ J P.E.K.Z O                                             ",
"                                      & L 5.8.X.] A ;.>.>.;.u o f ] 7 o 3 G 7.P.2.i 1 . .                                       ",
"                                    . ; Y.[.x.+.<.-.=.@.@...q o f ( e o . = J K.7.1.< . .                                       ",
"                                    . ; d.'.#X@X@X!.x.$.$.O.e o $ e y E E t g i K 1.< . .                                       ",
"                                    . ; s.'.4X9X9X*XoXq.q.O.y . o $ E @.@...e + Z 1.< . .                                       ",
"                                      ; F 3.{.9X9X3XXXq.q.#.t = y E ' X.@...q O Z 1.6 . .                                       ",
"                                        . 3 W.4X8X&XXXq.q.&.Q p ` @.@.%.%.o.q X Z 1.< o .                                       ",
"                                          ; P g. X X|.q.q.#.Q p ` %.x.Q.Q.v.g X Z K < . .                                       ",
"                                            . $ ` q.q.q.q.#.~ p ` +.!.}.}.`.H o i K 2 . .                                       ",
"                                            . $  .h.w.q.q.q.o.` ~ ^ R.$X%X{.P o & < &                                           ",
"                                            . + c p.w.w.q.q.#...W g E.$X5X1XI . . .                                             ",
"                                            . + c i.c.j.j.j.w.#.o.| R.$X4X1XI . . .                                             ",
"                                            . + c i.i.u.u.y.w.w.#.+.Q.$X4X1XI . . .                                             ",
"                                            . + c u.r.e.x j 9.c.k.l.~.$X4X1XI . .                                               ",
"                                            . - c r.e.c : + x u.i.f./.$X%X&XI .                                                 ",
"                                              + h j e.r.e.c z j e.i.M.W.g.t.F                                                   ",
"                                                . + x i.M.m.h + c i.i.r.h .                                                     ",
"                                                . X D T I.s.5 + c i.m.i.j .                                                     ",
"                                                + @ n Z.S.D.M + z i.M.m.j O                                                     ",
"                                              : e.f.Y Z.S.D.4 o : k r.m.r.c h                                                   ",
"                                            . : V.>XU.Z.S.D.M . . + x i.M.m.j .                                                 ",
"                                                              . . X D T I.I.5 .                                                 ",
"                                                                . X b V S.G.M .                                                 ",
"                                                                . + t./.)./.F .                                                 ",
"                                                                . - V.,X,X-Xe..                                                 ",
"                                                                . : N.,X,X-Xe..                                                 ",
"                                                                                                                                ",
"                                                                                                                                ",
"                                                                                                                                ",
"                                                                                                                                ",
"                                                                                                                                ",
"                                                                                                                                ",
"                                                                                                                                "
};
