/* XPM */
static char *_290b34458664efbb04b1463433565b7[] = {
/* columns rows colors chars-per-pixel */
"64 64 216 2 ",
"   c #050402",
".  c #0C0C03",
"X  c #07050B",
"o  c #0A060C",
"O  c #0D0B0C",
"+  c #0D0303",
"@  c #120D0B",
"#  c #140604",
"$  c #121204",
"%  c #13130B",
"&  c #181906",
"*  c #0A0713",
"=  c #0A0B15",
"-  c #090813",
";  c #160A10",
":  c #1B0A15",
">  c #130C1D",
",  c #1A0A19",
"<  c #141311",
"1  c #1A1516",
"2  c #380C0D",
"3  c #220D17",
"4  c #27161D",
"5  c #3D1212",
"6  c #391E0B",
"7  c #26260B",
"8  c #272809",
"9  c #2B2B0B",
"0  c #2F300B",
"q  c #31330C",
"w  c #3C3C0E",
"e  c #37390D",
"r  c #242018",
"t  c #26231A",
"y  c #352A15",
"u  c #3D3D12",
"i  c #363718",
"p  c #150E22",
"a  c #1A0F2C",
"s  c #170E29",
"d  c #181025",
"f  c #1D142D",
"g  c #171024",
"h  c #1E1333",
"j  c #1D1D37",
"k  c #261525",
"l  c #341426",
"z  c #381A2B",
"x  c #211536",
"c  c #23163C",
"v  c #261A3C",
"b  c #291B3A",
"n  c #271D35",
"m  c #391535",
"M  c #250C21",
"N  c #192239",
"B  c #1E2B32",
"V  c #272727",
"C  c #2D2D2B",
"Z  c #3A2929",
"A  c #363627",
"S  c #382835",
"D  c #323131",
"F  c #3C3C3B",
"G  c #383434",
"H  c #232731",
"J  c #4B0C0C",
"K  c #50110D",
"L  c #421C1C",
"P  c #6E1212",
"I  c #7E1A19",
"U  c #781616",
"Y  c #413D14",
"T  c #431A2F",
"R  c #40162C",
"E  c #561829",
"W  c #461931",
"Q  c #491B3A",
"!  c #531D38",
"~  c #46272C",
"^  c #452121",
"/  c #452436",
"(  c #58223D",
")  c #553E3E",
"_  c #782323",
"`  c #6D3437",
"'  c #713838",
"]  c #66212F",
"[  c #3F410F",
"{  c #3F403B",
"}  c #3F4028",
"|  c #444610",
" . c #474811",
".. c #494B11",
"X. c #535514",
"o. c #595B16",
"O. c #565915",
"+. c #41420F",
"@. c #614514",
"#. c #5F6116",
"$. c #606317",
"%. c #646718",
"&. c #666918",
"*. c #6B6D19",
"=. c #6F721A",
"-. c #72751B",
";. c #414226",
":. c #43433E",
">. c #7D4F25",
",. c #7B7E31",
"<. c #271941",
"1. c #2A1C45",
"2. c #2D1E49",
"3. c #311D41",
"4. c #1E264D",
"5. c #29274A",
"6. c #31224E",
"7. c #3A244A",
"8. c #352454",
"9. c #3C2653",
"0. c #392659",
"q. c #3C295D",
"w. c #3E2F57",
"e. c #27355B",
"r. c #2D3251",
"t. c #38335F",
"y. c #313B74",
"u. c #5C2841",
"i. c #562A48",
"p. c #54394C",
"a. c #492B56",
"s. c #40305F",
"d. c #53314B",
"f. c #652748",
"g. c #672A48",
"h. c #712F4F",
"j. c #67324E",
"k. c #663A5C",
"l. c #793454",
"z. c #533A67",
"x. c #4B3A66",
"c. c #673C60",
"v. c #37457D",
"b. c #4A4A4A",
"n. c #50504C",
"m. c #545454",
"M. c #5E5D5C",
"N. c #585852",
"B. c #5C4951",
"V. c #724048",
"C. c #674651",
"Z. c #514F6C",
"A. c #7A5876",
"S. c #6F5269",
"D. c #52697A",
"F. c #656565",
"G. c #6A6565",
"H. c #6B6B6B",
"J. c #746A6A",
"K. c #727272",
"L. c gray50",
"P. c #7F7577",
"I. c #7E6575",
"U. c #972828",
"Y. c #813F3F",
"T. c #953035",
"R. c #892225",
"E. c #A13339",
"W. c #82375B",
"Q. c #86395E",
"!. c #8A3B61",
"~. c #825B5B",
"^. c #8B4648",
"/. c #A3464A",
"(. c #996554",
"). c #854C65",
"_. c #97556B",
"`. c #8A5067",
"'. c #A05B6F",
"]. c #876E76",
"[. c #967478",
"{. c #916771",
"}. c #A3667C",
"|. c #BC6C7D",
" X c #A17272",
".X c #999A7B",
"XX c #3A4C85",
"oX c #3A4B87",
"OX c #3C518B",
"+X c #4A558B",
"@X c #4F568B",
"#X c #776888",
"$X c #977389",
"%X c #B76D82",
"&X c #A97B8A",
"*X c #B27D95",
"=X c #C46D80",
"-X c #C57384",
";X c #718494",
":X c #948E96",
">X c #AB8A9A",
",X c #B1858A",
"<X c #988AA3",
"1X c #B69CAF",
"2X c #8BA3B0",
"3X c #AEAEAE",
"4X c #CD8993",
"5X c #DA8992",
"6X c #D78693",
"7X c #DA929B",
"8X c #CD8792",
"9X c #E4949E",
"0X c #E08F9A",
"qX c #E1B1BB",
"wX c #BFB7C4",
"eX c #DBD3DD",
/* pixels */
"-.-.-.-.-.-.-.-.-.-.-.-.-.-.-.-.-.-.-.-.-.-.-.-.-.-.-.-.-.-.-.-.-.-.-.-.-.-.-.-.-.-.-.-.-.-.-.-.-.-.-.-.-.-.-.-.-.-.-.-.-.-.-.-.",
"-.-.-.-.-.-.-.-.-.-.-.-.-.-.-.-.-.-.-.-.-.-.-.-.-.-.-.-.-.-.-.-.-.-.-.-.-.-.-.-.-.-.-.-.-.-.-.-.-.-.-.-.-.-.-.-.-.-.-.-.-.-.-.-.",
"-.-.-.-.-.-.-.-.-.-.-.-.-.-.-.-.-.-.-.-.-.-.-.-.-.-.-.-.-.-.-.-.-.-.-.-.-.-.-.-.-.-.-.-.-.-.-.-.-.-.-.-.-.-.-.-.-.-.-.-.-.-.-.-.",
"-.-.-.-.-.-.-.-.-.-.-.-.-.-.-.-.-.-.-.-.-.-.-.-.-.-.-.-.-.-.-.-.-.-.-.-.-.-.-.-.-.-.-.-.-.-.-.-.-.-.-.-.-.-.-.-.-.-.-.-.-.-.-.-.",
"-.-.-.-.-.-.-.-.-.-.-.-.-.-.-.-.-.-.-.-.-.-.-.-.-.-.-.-.-.-.-.-.-.-.-.-.-.-.-.-.-.-.-.-.-.-.-.-.-.-.-.-.-.-.-.-.-.-.-.-.-.-.-.-.",
"-.-.-.-.-.-.-.-.-.-.-.-.-.-.-.-.-.-.-.=.&.$.$.%.*.=.&.$.$.$.$.$.$.$.$.$.$.%.*.-.-.-.-.-.-.-.-.-.-.-.-.-.-.-.-.-.-.-.-.-.-.-.-.-.",
"-.-.-.-.-.-.-.-.-.-.-.-.-.-.-.-.-.-.-.&.+.8 8 q o.&.| 8 8 8 8 8 8 8 8 8 8 q O.-.-.-.-.-.-.-.-.-.-.-.-.-.-.-.-.-.-.-.-.-.-.-.-.-.",
"-.-.-.-.-.-.-.-.-.-.-.-.-.-.-.-.-.-.-.$.8   X < | X.7 X X X o o o o o o o @ u %.*.-.-.-.-.-.-.-.-.-.-.-.-.-.-.-.-.-.-.-.-.-.-.-.",
"-.-.-.-.-.-.-.-.-.-.-.-.-.-.-.-.-.-.-.$.8 X d n t 7 k h f h x v v v v v x f r q X.-.-.-.-.-.-.-.-.-.-.-.-.-.-.-.-.-.-.-.-.-.-.-.",
"-.-.-.-.-.-.-.-.-.-.-.-.-.-.-.-.-.-.-.$.8 o v 6.p * h 2.2.6.8.q.q.q.q.q.8.1.p @ u %.*.-.-.-.-.-.-.-.-.-.-.-.-.-.-.-.-.-.-.-.-.-.",
"-.-.-.-.-.-.-.-.-.-.-.-.-.-.-.-.-.-.-.$.8 o x 2.h s 1.8.8.8.0.q.q.q.q.q.0.8.v f r q X.-.-.-.-.-.-.-.-.-.-.-.-.-.-.-.-.-.-.-.-.-.",
"-.-.-.-.-.-.-.-.-.-.-.-.-.-.-.-.-.-.-.%.q % f v c c 6.q.q.q.q.q.q.q.q.q.q.q.8.1.p @ u %.*.-.-.-.-.-.-.-.-.-.-.-.-.-.-.-.-.-.-.-.",
"-.-.-.-.-.-.-.-.-.-.-.-.-.-.-.-.-.-.-.*.O.| r p h <.2.8.0.q.q.q.q.q.q.q.q.q.0.8.v f r q X.-.-.-.-.-.-.-.-.-.-.-.-.-.-.-.-.-.-.-.",
"-.-.-.-.-.-.-.-.-.-.-.-.-.-.-.-.-.-.-.=.&.X.7 * h 2.2.6.8.q.q.q.q.q.q.q.q.q.q.q.8.<.> . | -.-.-.-.-.-.-.-.-.-.-.-.-.-.-.-.-.-.-.",
"-.-.-.-.-.-.-.-.-.-.-.-.-.-.-.-.-.-.-.&.| 7 k h v 2.8.8.0.q.q.q.q.q.q.q.q.q.q.q.0.6.p . | -.-.-.-.-.-.-.-.-.-.-.-.-.-.-.-.-.-.-.",
"-.-.-.-.-.-.-.-.-.-.-.-.-.-.-.-.-.-.-.$.8 X f 2.2.2.8.q.q.q.q.q.q.q.q.q.q.q.q.q.q.8.d . | -.-.-.-.-.-.-.-.-.-.-.-.-.-.-.-.-.-.-.",
"-.-.-.-.-.-.-.-.-.-.-.-.-.-.-.-.-.-.-.$.8 X f 2.2.2.8.q.q.q.8.8.0.q.q.q.q.q.8.8.0.8.d . | -.-.-.-.-.-.-.-.-.-.-.-.-.-.-.-.-.-.-.",
"-.-.-.-.-.-.-.-.-.-.-.-.-.-.-.-.-.-.&.X.7 X f 2.2.2.8.q.q.q.8.6.8.q.q.q.q.0.6.1.8.8.g . | -.-.-.-.-.-.-.-.-.-.-.-.-.-.-.-.-.-.-.",
"-.-.-.-.-.-.-.-.-.-.-.-.-.-.-.-.-.&.| 7 . X f 2.2.2.6.8.0.q.0.8.8.8.0.q.8.6.c h 1.2.p . | -.-.-.-.-.-.-.-.-.-.-.-.-.-.-.-.-.-.-.",
"-.-.-.-.-.-.-.-.-.-.-.-.-.-.-.-.-.#.7     * h 2.1.1.1.2.8.q.q.0.2.1.8.0.9.7.b f x v 1 & ..-.-.-.-.-.-.-.-.-.-.-.-.-.-.-.-.-.-.-.",
"-.-.-.-.-.-.-.-.-.-.-.-.-.-.-.-.-.#.7   > h v 1.v v <.2.6.8.8.2.c h 1.9.c.).j./ k 1 y ..$.-.-.-.-.-.-.-.-.-.-.-.-.-.-.-.-.-.-.-.",
"-.-.-.-.-.-.-.-.-.-.-.-.-.-.-.-.-.%.0 % f <.<.<.c x <.2.2.2.6.6.v x 3.a._.|.`.p.k . | -.-.-.-.-.-.-.-.-.-.-.-.-.-.-.-.-.-.-.-.-.",
"-.-.-.-.-.-.-.-.-.-.-.-.-.-.-.-.-.*.X.u 4 p h c h h <.2.2.6.Z.S.p.i.k._.%X8X].Z.H . | -.-.-.-.-.-.-.-.-.-.-.-.-.-.-.-.-.-.-.-.-.",
"-.-.-.-.-.-.-.-.-.-.-.-.-.-.-.-.-.-.-.%.0 O > a h h <.2.2.w.#X<XA.C._.-X6X7X:XD.B . | -.-.-.-.-.-.-.-.-.-.-.-.-.-.-.-.-.-.-.-.-.",
"-.-.-.-.-.-.-.-.-.-.-.-.-.-.-.-.-.-.-.*.X.u 1 = s h <.2.8.x.<XwX;XD.&X6X0X7X*XI.S . | -.-.-.-.-.-.-.-.-.-.-.-.-.-.-.-.-.-.-.-.-.",
"-.-.-.-.-.-.-.-.-.-.-.-.-.-.-.-.-.-.-.-.-.$.8   > h v 2.8.Z.1XeX2X;X>X9X9X5X-X_.~ . | -.-.-.-.-.-.-.-.-.-.-.-.-.-.-.-.-.-.-.-.-.",
"-.-.-.-.-.-.-.-.-.-.-.-.-.-.-.-.-.-.-.-.-.$.8   X > x 2.8.z.>XqX1X>X4X9X6X-X`.i.4 . | -.-.-.-.-.-.-.-.-.-.-.-.-.-.-.-.-.-.-.-.-.",
"-.-.-.-.-.-.-.-.-.-.-.-.-.-.-.-.-.-.-.-.*.o.9 o   X f 2.8.z.}.5X5X5X5X6X|._.d.a * . | -.-.-.-.-.-.-.-.-.-.-.-.-.-.-.-.-.-.-.-.-.",
"-.-.-.-.-.-.-.-.-.-.-.-.-.-.-.-.-.-.-.&.| y ~ W : X f 2.8.a.l./././././.` / n a * . | -.-.-.-.-.-.-.-.-.-.-.-.-.-.-.-.-.-.-.-.-.",
"-.-.-.-.-.-.-.-.-.-.-.-.-.-.-.-.-.-.*.o.9 3 f.l.z ; f 1.8.a.E P U U U P 2 o > s * . | -.-.-.-.-.-.-.-.-.-.-.-.-.-.-.-.-.-.-.-.-.",
"-.-.-.-.-.-.-.-.-.-.-.-.-.-.-.-.-.&.| y ~ u.l.W.f.T k d 2.9.l 2 U U.U.R.E M , * X . | -.-.-.-.-.-.-.-.-.-.-.-.-.-.-.-.-.-.-.-.-.",
"-.-.-.-.-.-.-.-.-.-.-.-.-.-.-.-.-.#.7 ; u.!.!.Q.W.g.4 o v 8.p # ] E.E.T.] m :     $ ..-.-.-.-.-.-.-.-.-.-.-.-.-.-.-.-.-.-.-.-.-.",
"-.-.-.-.-.-.-.-.-.-.-.-.-.-.-.-.-.#.7 ; u.Q.l.h.l.h.l o v 8.p O S k.k.k.i.m :   9 ..$.-.-.-.-.-.-.-.-.-.-.-.-.-.-.-.-.-.-.-.-.-.",
"-.-.-.-.-.-.-.-.-.-.-.-.-.-.-.-.-.#.7 @ u.W.f.( h.h.l = v 6.> - 4.v.v.y.9.m : . | -.-.-.-.-.-.-.-.-.-.-.-.-.-.-.-.-.-.-.-.-.-.-.",
"-.-.-.-.-.-.-.-.-.-.-.-.-.-.-.-.-.#.7 ; u.W.f.! T z 5.5.j p o - 4.y.oXv.w.m : . | -.-.-.-.-.-.-.-.-.-.-.-.-.-.-.-.-.-.-.-.-.-.-.",
"-.-.-.-.-.-.-.-.-.-.-.-.-.-.-.-.-.#.7 ; u.W.f.W : = e.v.N X o > 5.y.oXXXt.m , . | -.-.-.-.-.-.-.-.-.-.-.-.-.-.-.-.-.-.-.-.-.-.-.",
"-.-.-.-.-.-.-.-.-.-.-.-.-.-.-.-.-.$.7 ; u.W.f.W : = e.XXy.r.p.V.S.A.@XOXv.t.f . | -.-.-.-.-.-.-.-.-.-.-.-.-.-.-.-.-.-.-.-.-.-.-.",
"-.-.-.-.-.-.-.-.-.-.-.-.-.-.-.-.-.$.9 1 ( l.f.W : = e.OXOX@X$X=X=X%X#X+X+Xv.N . | -.-.-.-.-.-.-.-.-.-.-.-.-.-.-.-.-.-.-.-.-.-.-.",
"-.-.-.-.-.-.-.-.-.-.-.-.-.-.-.-.-.*.X.Y Z z W W : o b s.s.z.}.6X6X8X*X$X#XZ.H . | -.-.-.-.-.-.-.-.-.-.-.-.-.-.-.-.-.-.-.-.-.-.-.",
"-.-.-.-.-.-.-.-.-.-.-.-.-.-.-.-.-.-.-.$.8 o l W : o k Q Q i.}.7X9X9X9X7X&XF.D % | *.=.-.-.-.-.-.-.-.-.-.-.-.-.-.-.-.-.-.-.-.-.-.",
"-.-.-.-.-.-.-.-.-.-.-.-.-.-.-.-.-.-.-.$.8 o R ! 3 O S p.B.S.].,X4X9X9X7X[.F.n.{ A e o.-.-.-.-.-.-.-.-.-.-.-.-.-.-.-.-.-.-.-.-.-.",
"-.-.-.-.-.-.-.-.-.-.-.-.-.-.-.-.-.-.-.%.9 @ T ( 4 < F M.H.K.K.P.,X7X7X4X].M.H.F.D % | *.=.-.-.-.-.-.-.-.-.-.-.-.-.-.-.-.-.-.-.-.",
"-.-.-.-.-.-.-.-.-.-.-.-.-.-.-.-.-.-.-.*.X.u y l C F m.H.H.K.H.G.].[.[.].G.M.H.H.m.{ A e o.-.-.-.-.-.-.-.-.-.-.-.-.-.-.-.-.-.-.-.",
"-.-.-.-.-.-.-.-.-.-.-.-.-.-.-.-.-.-.-.-.-.$.8 O F M.H.K.K.H.M.m.m.m.m.m.m.m.F.K.K.F.C . | -.-.-.-.-.-.-.-.-.-.-.-.-.-.-.-.-.-.-.",
"-.-.-.-.-.-.-.-.-.-.-.-.-.-.-.-.-.-.-.-.-.$.8 O F M.H.K.K.H.b.V V V V V V C n.F.H.F.C . | -.-.-.-.-.-.-.-.-.-.-.-.-.-.-.-.-.-.-.",
"-.-.-.-.-.-.-.-.-.-.-.-.-.-.-.-.-.-.-.-.=.o.9 < F M.H.K.H.M.C             O G M.G.G.D % | *.*.-.-.-.-.-.-.-.-.-.-.-.-.-.-.-.-.-.",
"-.-.-.-.-.-.-.-.-.-.-.-.-.-.-.-.-.-.-.&...q A F m.H.H.H.b.D i [ [ [ [ e & + L ` ' V.B.n.} q q -.-.-.-.-.-.-.-.-.-.-.-.-.-.-.-.-.",
"-.-.-.-.-.-.-.-.-.-.-.-.-.-.-.-.-.-.-.$.8 O F M.G.K.H.M.C $ ..-.-.-.-.%.9 + J U U _ ~.L.F     -.-.-.-.-.-.-.-.-.-.-.-.-.-.-.-.-.",
"-.-.-.-.-.-.-.-.-.-.-.-.-.-.-.-.-.-.-.$.8 # ^ ' ^.^.) D i  .#.-.-.-.-.%.9 + J I Y.~.B.:.;.[ [ -.-.-.-.-.-.-.-.-.-.-.-.-.-.-.-.-.",
"-.-.-.-.-.-.-.-.-.-.-.-.-.-.-.-.-.-.-.$.8 # J I U.U.5 $ ..-.-.-.-.-.-.%.0 # J _ ~.L.F $  .-.-.-.-.-.-.-.-.-.-.-.-.-.-.-.-.-.-.-.",
"-.-.-.-.-.-.-.-.-.-.-.-.-.-.-.-.-.-.-.$.8 # J I U.U.5 $ ..-.-.-.-.-.-.*.X.w 6 2 Z :.;.| #.-.-.-.-.-.-.-.-.-.-.-.-.-.-.-.-.-.-.-.",
"-.-.-.-.-.-.-.-.-.-.-.-.-.-.-.-.-.-.-.$.9 # K I U.T.L % ..=.-.-.-.-.-.-.-.&.0     $  .-.-.-.-.-.-.-.-.-.-.-.-.-.-.-.-.-.-.-.-.-.",
"-.-.-.-.-.-.-.-.-.-.-.-.-.-.-.-.-.-.-.*.X.| @.>.(. XJ.N.;.w o.-.-.-.-.-.-.*.X.w w | #.-.-.-.-.-.-.-.-.-.-.-.-.-.-.-.-.-.-.-.-.-.",
"-.-.-.-.-.-.-.-.-.-.-.-.-.-.-.-.-.-.-.-.-.-.-.,..X3X3X:XF $ ..-.-.-.-.-.-.-.-.-.-.-.-.-.-.-.-.-.-.-.-.-.-.-.-.-.-.-.-.-.-.-.-.-.",
"-.-.-.-.-.-.-.-.-.-.-.-.-.-.-.-.-.-.-.-.-.-.-.,..X3X3X:XF $ ..-.-.-.-.-.-.-.-.-.-.-.-.-.-.-.-.-.-.-.-.-.-.-.-.-.-.-.-.-.-.-.-.-.",
"-.-.-.-.-.-.-.-.-.-.-.-.-.-.-.-.-.-.-.-.-.-.-.-.-.-.-.-.-.-.-.-.-.-.-.-.-.-.-.-.-.-.-.-.-.-.-.-.-.-.-.-.-.-.-.-.-.-.-.-.-.-.-.-.",
"-.-.-.-.-.-.-.-.-.-.-.-.-.-.-.-.-.-.-.-.-.-.-.-.-.-.-.-.-.-.-.-.-.-.-.-.-.-.-.-.-.-.-.-.-.-.-.-.-.-.-.-.-.-.-.-.-.-.-.-.-.-.-.-.",
"-.-.-.-.-.-.-.-.-.-.-.-.-.-.-.-.-.-.-.-.-.-.-.-.-.-.-.-.-.-.-.-.-.-.-.-.-.-.-.-.-.-.-.-.-.-.-.-.-.-.-.-.-.-.-.-.-.-.-.-.-.-.-.-.",
"-.-.-.-.-.-.-.-.-.-.-.-.-.-.-.-.-.-.-.-.-.-.-.-.-.-.-.-.-.-.-.-.-.-.-.-.-.-.-.-.-.-.-.-.-.-.-.-.-.-.-.-.-.-.-.-.-.-.-.-.-.-.-.-.",
"-.-.-.-.-.-.-.-.-.-.-.-.-.-.-.-.-.-.-.-.-.-.-.-.-.-.-.-.-.-.-.-.-.-.-.-.-.-.-.-.-.-.-.-.-.-.-.-.-.-.-.-.-.-.-.-.-.-.-.-.-.-.-.-.",
"-.-.-.-.-.-.-.-.-.-.-.-.-.-.-.-.-.-.-.-.-.-.-.-.-.-.-.-.-.-.-.-.-.-.-.-.-.-.-.-.-.-.-.-.-.-.-.-.-.-.-.-.-.-.-.-.-.-.-.-.-.-.-.-.",
"-.-.-.-.-.-.-.-.-.-.-.-.-.-.-.-.-.-.-.-.-.-.-.-.-.-.-.-.-.-.-.-.-.-.-.-.-.-.-.-.-.-.-.-.-.-.-.-.-.-.-.-.-.-.-.-.-.-.-.-.-.-.-.-.",
"-.-.-.-.-.-.-.-.-.-.-.-.-.-.-.-.-.-.-.-.-.-.-.-.-.-.-.-.-.-.-.-.-.-.-.-.-.-.-.-.-.-.-.-.-.-.-.-.-.-.-.-.-.-.-.-.-.-.-.-.-.-.-.-.",
"-.-.-.-.-.-.-.-.-.-.-.-.-.-.-.-.-.-.-.-.-.-.-.-.-.-.-.-.-.-.-.-.-.-.-.-.-.-.-.-.-.-.-.-.-.-.-.-.-.-.-.-.-.-.-.-.-.-.-.-.-.-.-.-."
};
