/* XPM */
static char *_9feba3100d4445d82c139ef2fff0af8[] = {
/* columns rows colors chars-per-pixel */
"64 64 27 1 ",
"  c None",
". c black",
"X c #3C295E",
"o c #2C1D48",
"O c #1D1133",
"+ c #140A26",
"@ c #C16A7D",
"# c #66334B",
"$ c #9C8C9C",
"% c #E5959F",
"& c #3E7D8D",
"* c #F2E9F2",
"= c #8C3C62",
"- c #771212",
"; c #7B3155",
": c #AC3232",
"> c #43153B",
", c #511C3A",
"< c #32417F",
"1 c #3C548F",
"2 c #283070",
"3 c gray45",
"4 c #6E2749",
"5 c gray35",
"6 c #771313",
"7 c #959595",
"8 c #AEAEAE",
/* pixels */
"                                                                ",
"                                                                ",
"                                                                ",
"                                                                ",
"                                                                ",
"                                                                ",
"                    ....  ............                          ",
"                    ....  ............                          ",
"                    ..XX..ooooXXXXXXoo..                        ",
"                    ..XX..ooooXXXXXXoo..                        ",
"                    ..ooOOXXXXXXXXXXXXoo..                      ",
"                    ..ooOOXXXXXXXXXXXXoo..                      ",
"                      ..ooooXXXXXXXXXXXXoo..                    ",
"                      ..ooooXXXXXXXXXXXXoo..                    ",
"                    ..ooooXXXXXXXXXXXXXXXX..                    ",
"                    ..ooooXXXXXXXXXXXXXXXX..                    ",
"                    ..ooooXXXXooXXXXXXooXX..                    ",
"                    ..ooooXXXXooXXXXXXooXX..                    ",
"                  ....ooooooXXXXooXXoo++oo..                    ",
"                  ....ooooooXXXXooXXoo++oo..                    ",
"                  ..ooooOOoooooo++oo@@##..                      ",
"                  ..ooooOOoooooo++oo@@##..                      ",
"                    ..OOOOoooo$$##@@%%&&..                      ",
"                    ..OOOOoooo$$##@@%%&&..                      ",
"                      ..OOooXX**&&%%%%@@..                      ",
"                      ..OOooXX**&&%%%%@@..                      ",
"                      ....ooXX%%%%%%@@OO..                      ",
"                      ....ooXX%%%%%%@@OO..                      ",
"                    ..==..ooXX------..OO..                      ",
"                    ..==..ooXX------..OO..                      ",
"                  ..====;;..XX..::::>>....                      ",
"                  ..====;;..XX..::::>>....                      ",
"                  ..==,,==..XX..<<<<>>..                        ",
"                  ..==,,==..XX..<<<<>>..                        ",
"                  ..==,,..11....2211>>..                        ",
"                  ..==,,..11....2211>>..                        ",
"                  ..==,,..1111@@@@1111..                        ",
"                  ..==,,..1111@@@@1111..                        ",
"                    ..,,..>>>>%%%%%%33..                        ",
"                    ..,,..>>>>%%%%%%33..                        ",
"                    ..44..553333%%%%5533..                      ",
"                    ..44..553333%%%%5533..                      ",
"                      ..553333555555553333..                    ",
"                      ..553333555555553333..                    ",
"                      ..553333........5533..                    ",
"                      ..553333........5533..                    ",
"                    ..553333..      ..666677..                  ",
"                    ..553333..      ..666677..                  ",
"                    ..66::..        ..6677..                    ",
"                    ..66::..        ..6677..                    ",
"                    ..66::..          ....                      ",
"                    ..66::..          ....                      ",
"                        8888..                                  ",
"                        8888..                                  ",
"                                                                ",
"                                                                ",
"                                                                ",
"                                                                ",
"                                                                ",
"                                                                ",
"                                                                ",
"                                                                ",
"                                                                ",
"                                                                "
};
