/* XPM */
static char *out[] = {
/* columns rows colors chars-per-pixel */
"23 34 39 1 ",
"  c None",
". c #532E17",
"X c #542E18",
"o c #5B351E",
"O c #5E381F",
"+ c #5F3921",
"@ c #633D24",
"# c #673F29",
"$ c #674127",
"% c #664028",
"& c #6B452A",
"* c #6C4B2D",
"= c #71492F",
"- c #6F4A30",
"; c #734D33",
": c #765034",
"> c #785135",
", c #775339",
"< c #7A553A",
"1 c #7E593D",
"2 c #815B3F",
"3 c #835D41",
"4 c #866043",
"5 c #8A6346",
"6 c #8D6649",
"7 c #8F684B",
"8 c #916B4D",
"9 c #956F51",
"0 c #967152",
"q c #9A7556",
"w c #967559",
"e c #9B7759",
"r c #9D795A",
"t c #A27E5D",
"y c #9E7D61",
"u c #A17F63",
"i c #A3805F",
"p c #A58363",
"a c #A98664",
/* pixels */
"         1,,1,         ",
"       1,wyyyy,,       ",
"      ;ry-----yy-      ",
"      ;r-,133,#y-      ",
"     *6p-,343,#w3#     ",
"     ;6p-1343,#w1+     ",
"     ;6pp,233,ww3+     ",
"      &6ppyyyye<X      ",
"     &<$$76623o@-X     ",
"    &7654@@@@@>=1;X    ",
"   &788q6546<<:61;-X   ",
"  &680qqr556<25521;-X  ",
"  &60ertteteq00551<-.  ",
" &8<0rtittttteq9551@-X ",
" &802riiaaittq0005@1-X ",
" &60e6iiaaaatt000=4<-X ",
" &70ti89aaaatt0>>432=. ",
" &70riii78744228732<=. ",
" =79riaaaiait098742<;X ",
" &79qiiaaaait097722<=X ",
" &88qtiaapitr80852>>=. ",
"  @8qttiiattr908222=.  ",
"  @&qqrttttqq99752>OX  ",
"  @&==qeerr009852$OOX  ",
"  @3=;;:qq09967$$++*X  ",
"   $&;6:::::*&&&1@+.   ",
"   $;3;::5;:*1&$$**.   ",
"    @;22;:;:&&&,**X    ",
"     @;3221<<<<**.     ",
"      #;:11,,***.      ",
"       #$;:*;*XX       ",
"         ooO..         ",
"                       ",
"                       "
};
