/* XPM */
static char *out[] = {
/* columns rows colors chars-per-pixel */
"28 31 40 1 ",
"  c None",
". c #56311A",
"X c #5A341C",
"o c #5E3820",
"O c #633D24",
"+ c #663F28",
"@ c #664027",
"# c #684127",
"$ c #664129",
"% c #6A442B",
"& c #6C4A2E",
"* c #714A2F",
"= c #6D4B31",
"- c #734C33",
"; c #784E34",
": c #6E5032",
"> c #735135",
", c #795237",
"< c #7A553A",
"1 c #7E593D",
"2 c #805B3E",
"3 c #835D41",
"4 c #866144",
"5 c #8A6346",
"6 c #8C6549",
"7 c #8F684B",
"8 c #926B4D",
"9 c #8F6D52",
"0 c #946F51",
"q c #957153",
"w c #9A7456",
"e c #97765A",
"r c #9A7659",
"t c #97785B",
"y c #9D795A",
"u c #A47F5F",
"i c #9C7D61",
"p c #A4805F",
"a c #A48263",
"s c #A38668",
/* pixels */
"                            ",
"                            ",
"                            ",
"           =%%$$%%          ",
"         =-eereeei+%        ",
"       =%rr----<<1et%=      ",
"      =wr+$1356669>-ii%     ",
"     %ww+,1135666633%eio    ",
"     %e%=,11366666331%i+    ",
"    %tw+=<11366666631%eiX   ",
"    o7a+=<<133669333<%e<o   ",
"    +7u+-><<33333331<%9>o   ",
"    +7as+-;11131131;=00;X   ",
"   %7+7ss==-111<11-=00<o-X  ",
"  %67q+77si-==::==00,;o---X ",
"  %70qr-+99sssiiee33+O<<--X ",
"  #8qyyuu**7766232+O222;,-X ",
"  #%qyuuapu,***OO+85522,,+. ",
"  $5,puppappuuwwq885552;O-. ",
"  +5811papapuuuwq88522oo-=. ",
"  +58qq425ppuuuwq08###;;-&. ",
"  O5812ywu2522,,***222##-&. ",
"  +3822yuwuqqq7772<221#@&&. ",
"   O>qww55wq0q85522%%2--X.  ",
"   #2,ww55yq3377**2%&<-X&.  ",
"    O2--wqqq3265**221XX:.   ",
"     X22*--08q5552OOO&:.    ",
"      XX<,,**%#@#O&&&..     ",
"        XXX>>:::::X..       ",
"           XXXXXX.          ",
"                            "
};
