/* XPM */
static char *out[] = {
/* columns rows colors chars-per-pixel */
"69 39 68 1 ",
"  c None",
". c #4C2711",
"X c #4F2913",
"o c #522C14",
"O c #512E18",
"+ c #573016",
"@ c #593217",
"# c #56321B",
"$ c #59351D",
"% c #573521",
"& c #593722",
"* c #5A3B26",
"= c #5C3D29",
"- c #603F29",
"; c #5E412D",
": c #5F4330",
"> c #5B4C3E",
", c #60422D",
"< c #624532",
"1 c #634936",
"2 c #644C3B",
"3 c #694F3D",
"4 c #67503E",
"5 c #574B40",
"6 c #5C4E41",
"7 c #5D5144",
"8 c #5D554B",
"9 c #644F40",
"0 c #655243",
"q c #625649",
"w c #64594C",
"e c #6B5E4F",
"r c #645D54",
"t c #6B5D51",
"y c #635E59",
"u c #6C604F",
"i c #666057",
"p c #6B6154",
"a c #666059",
"s c #6A645A",
"d c #6F685F",
"f c #70675A",
"g c #71695D",
"h c #6F6960",
"j c #756C63",
"k c #786D63",
"l c #756F6C",
"z c #76716C",
"x c #79746C",
"c c #7D796E",
"v c #7B7670",
"b c #7E7A73",
"n c #817D72",
"m c #868174",
"M c #888377",
"N c #868479",
"B c #89867A",
"V c #8C8A7E",
"C c #908D7F",
"Z c #8E8C82",
"A c #918E84",
"S c #929085",
"D c #989587",
"F c #96948C",
"G c #98978E",
"H c #9A998F",
"J c #9C9A91",
"K c #A19F96",
/* pixels */
"                                                                     ",
"        ,<<1<<<<-<111<<,<<<<:1<<<<:1<<<1>:<::;::;;::,,,;<,,;==       ",
"       =BVSZASAAZZAAACCAVAAVVVVZZZVVNBNBBBNNVZBBVZZVVZZVZVZZgf=      ",
"       <nnASACACZZAACAACSVAVZZVVVVNNNBBBBBNZVVZZVVVZZZVZVZZZsf,      ",
"       <nnSZwwwwtttttttteeteeettutupppputteteetteewwwwwwwwAZff;      ",
"       <nnZS+#+#&===-===**====****=*==****=*===**%*&#@$O+#ZZgg-      ",
"       ,nmAV#tttttttttttttttttwtrwtttwrtttttrwe#Otttttttp#VAgg=      ",
"       <nbVV#tjjkkkknllvvvxbvbxxxxzxzzzllllzzz2BB>xxxxxkj#AZgg,      ",
"       ,nnBV;tjj>kkn-vvvvbbbbbbbbxzxz9999393032VV332xxckk&VVfg,      ",
"       <nnVB*tjj9zll>vvvvbbbbbbNbvvx1vxcnnnmmBBCCCCV<xcxx<VVgj,      ",
"       ,nnVV=tzk9lll9lvlbbbbbbbbbbvv<NVVVZAVAAVCCDDD1cccc<VVjj-      ",
"       ,nnVV=tjj8lvv8nnnbbbbbbbbvbvvorrprtsttstACffp$gkcc,BVjj-      ",
"     99,nnVB=tzzylllyvvbbbbNbbbbbcvbbXoooooo@O+AD+++ukkkk,VVjj;++    ",
"    :nA<nnVV=txzblbbbvbNbbbbbbbbbbbbbrwrttttuuOtp+upkkkkk,VVgg$fro   ",
"   ;nnF-xnVV&tzklvbbbbbbbbbbbbbbbbbbbvvvvvxzzzt++ukkkkkkk,VCfg*feeo  ",
"   1nnS-xnVV&exzllbbbbbbbbbbbbbbbbbbcvvzvxzzzzzttkgkkkkkk;DCgg$feeo  ",
"   1nnF;nxZZ%&%====**%==========:=>=-=--*;;;;*;;-**---,,**SSff$fewo  ",
"   1nnF=vnVVVZZZZNNNnZNNNNNNNZNNZBnnBZnnNNNNNNNNMBMMVSCASCCSpf$pweo  ",
"   1nnS;nvKKJJJJGGGGGGGGFFFFFFFGFFGGGGGGHHJJHHHHHHHJHHHHHKKKpp$fwwo  ",
"   2nbS;vAAAAZAZZZAZZZZZZZAZZZZZZZZZAAZZCCCCCCSCAASSAASSSCDAKp@pwwo  ",
"   1ncS,AAAAZZZZZZZZZZZZAAZZZZZZAZAAZAZZSSZACCSSAAAAAASASZSASS+pwqo  ",
"   1nnD,htyrrrrrywwryyy88w8y8y8r8yy8rrrrrw8rrrrrttrrrtrwrrerrgopwq.  ",
"   1cnF,jytrrrrr8yrrrr8yrrrry8r8rr8yr8ri8riwwwrwrwrwrwererwresopqqX  ",
"   <nnG*-###oXooXXX.....X..XX.X..X..XX.XXoXXoo.oXoooooooXXooXoXpqqX  ",
"   1cnGS*qwqwqq787766666>5>>>>>>>>59556>57755>5>>7>777787777>Xpp88.  ",
"   1ccGD;wwwqwq8707676>>>>>>>>>>>>59596>5555>>55>>>>>>7>7775>Xiu88.  ",
"   <cnGS*jggssashtyyasssssyyiaiyytyyssysssssusiiuiiwiiiipiiiiXup88.  ",
"   <cbHF;jggsisayyyyasssssiiaiiiyyytspsssisiiiuurriiiirrirrps.ui88.  ",
"   <bcHS*ggsssaaysrsysssaaaiaiiiirarrr88isiirrrrrrirrrrrripiiXui88.  ",
"   ,cnJS,gsssssasysyrsssaaiaaiaiiyarr8r8sisiiirrirrirrrrriiisOud78.  ",
"   ,ccHA,fssssasytsyaariaaaaiaiirayrr88888irrrrrrrrrrrrrriiisOdg77.  ",
"   ;ccJS,,,**=**-*=**===**************=*********%*********&OOOgB77.  ",
"   ;nxFSAVBBBVBVBBBBBBNNNNNVMMNNNMmMMmMmMmMmmmmmmmmmmmmmmmnmmmNB77.  ",
"   ;xvshyhyhyysaytyyysysysyaaiaaaaiaiiariarrrrrrrirrrirriwrrrrri66.  ",
"   =csssfhhysaaysayhysyasyayaaaayyayayyyyyyyyyyyyyyyyryyryyyryyyy7.  ",
"   $ssssyyssyssasyyssysyyssaaaaaaaaiaarirarrriyrrryrriwyrrrrrrrrry.  ",
"   ooooo+ooooXXXoo.ooo.oooXXXXXXXXXXXXX.XX.X......X...X..X.X.......  ",
"                                                                     ",
"                                                                     "
};
