/* XPM */
static char *out[] = {
/* columns rows colors chars-per-pixel */
"56 51 67 1 ",
"  c None",
". c #4F2913",
"X c #512C15",
"o c #532F19",
"O c #55321C",
"+ c #59351E",
"@ c #573720",
"# c #5A3721",
"$ c #5C3B24",
"% c #5B3D29",
"& c #603E27",
"* c #603F29",
"= c #5F402A",
"- c #554434",
"; c #5E4633",
": c #5E4836",
"> c #574A3C",
", c #594B3D",
"< c #63422C",
"1 c #634632",
"2 c #664C36",
"3 c #684D37",
"4 c #624F3C",
"5 c #694E3A",
"6 c #63533F",
"7 c #69513C",
"8 c #5B4F42",
"9 c #5C5042",
"0 c #5F564A",
"q c #615344",
"w c #6C5440",
"e c #625749",
"r c #655A4C",
"t c #695D4E",
"y c #705D45",
"u c #725D4A",
"i c #655D52",
"p c #6A5F51",
"a c #6B6255",
"s c #6C655A",
"d c #6F695E",
"f c #726555",
"g c #716B5E",
"h c #7A6E5E",
"j c #6D6760",
"k c #746E62",
"l c #7B6F61",
"z c #767164",
"x c #7A7364",
"c c #767168",
"v c #7A766B",
"b c #7E796C",
"n c #807562",
"m c #837D6E",
"M c #827E71",
"N c #858274",
"B c #898476",
"V c #878478",
"C c #898679",
"Z c #8C897C",
"A c #908D7E",
"S c #8F8C80",
"D c #918E83",
"F c #949185",
"G c #969489",
"H c #99968B",
"J c #9B998D",
/* pixels */
"                                                        ",
"               $##$                                     ",
"            1<<xxxx$                                    ",
"          1<mxmbmxxx+                                   ",
"         <mxvbbbbNNNO   &&&&<                <11        ",
"        <mNNbbbNNNFA$$$=BZBZF$            %%*MbM<       ",
"       <NmmNNmMMAFfg+ffCZZZZAG$          $NNmbbbM1      ",
"      <vNmNNmNVHgggg+ffCBZZAAH$          $SNNMMbNN<     ",
"     <xxNmNBCCFpgfgg+fCCBZZAAH$          @vZNNbVMVV<    ",
"    $xnNNNBBCGppafgg+fCCBZFHGG$          @vvSNNMVMNV<   ",
"    %xCCCCCCGriaaagg+CADAAxxkk+          =cvcDVVNCNCV<  ",
"   $VCVCVCCGirrtaa++DDiiffaakl+          +ccczDVNNCNVV< ",
"   $CCCCCVCGitrrt+;eepppaafssk#         $#czzddGVNVDFDG=",
"  $CCCCCVCGqrit$+e2eepaipppask+        #bN%zcddgGDSsspa<",
"  +ASZSSFDGqqi#q6e:eeptiiapaak+        #ddz%zddaVaapppi%",
"  $3uuu37$99q$qqpp;0eeipii$&$kO        +dddb$daaV#$$$$%<",
" #FMmMmmm*qq$qtipi;0eeeii+NNn+==       #kddb$aaa=MMvvvZO",
" #DMMMmmmm&q$5ipii=eeeei+mNnNNNN%*     +sjsay=a$MMMbvvZO",
" &jFMVMZMm&9+qiiiaOO#OOoNnNNNBBBZZ%    #jjsaay+=MvvbvCeO",
" &lGMVZMMMM#9qiirO    oNNNBNNBBZZZG*    $jaiaty+bvbvvCeO",
" &jDMZMMMMZ+8qqrO    OZDNBBNBBAZCAG*     Opaart=vbMMMCrO",
" &kkGMMZZMMM#99@     oppZSZBBAZZADe*      oait+nxMbMMZeO",
" #kaDMMZZMMM#q+      opiaasGFFZZAGeo       Ort$nbMMMZqrO",
" $csfGDDMSMMN&       OaaasfaggFGGrro        Ot=nMMMbC9eO",
" $casGCCCAMMG&        +OaassgggxrrX         oOooMMmMZ60O",
"  #akdGZZZGGp$%         ++oggggveeo        =BNBBoONG>69O",
"  +ggdgGHHff3MM<           OOogmtO       24mMmBBNN@@>6X ",
"   $dkjMfft<CMMM&<            #$#       2NMMmmNNNA6@>,o ",
"  #%gdgMff&BCCCMMB<<                  26NNNBBNNVAee+,,X ",
" %pM+djMu$FZCCCCCCBC< <*&        ==< yCZCNNBNBNA996O9>X ",
" %jsMogMf&hDDCZCCCZCZ7CBB$$+$&&$=hhh1CZZCCNBBCCee69o,O  ",
" %pspm$me$khhHGCZZZZZ3CMBBBMmMMxhhhB2ACZCCBCCe6e999oo,X ",
" %asskM&t$lkhhzGZZZZ5ZCBNBMMMNmNNBBNB7CACAAtt60699qO9>X ",
" %asdgkM%$glklhzGGZZwCCBBMMMNMBCBBNBBB2AAfpyt660tpo99,X ",
" %sadkkkC%khzhzzxkG1JHGDDNMMNCCCBBAAAJ2zfftat60ta.889>X ",
" %sskkkkZZ$khzhxxkM1MjkkgDDDSDSSAAkzgz7zppptee0t.8888>X ",
"  ;saskkzZZ$zzzzlkM=vddggggkddggggddgz7fppeeeee.>898>,X ",
"  %ssdkkczCZ+=kzklb$cdsdggdgkjggggdssd2atteeee.->888,o  ",
"   $sslkzzb$6e1kkkl#cdddgkjgdggggsaasd-pte6y..->,,88o   ",
"    #sskzzb+ee9=kkc+cssdssddgdggdsaasd@at...--->>>88o   ",
"     +sgzzv%9edqOO@.ksssdssspjjiiaaaij...699.->>888.    ",
"      Xkcjv%9jddq9qqXXOOsjssjsiirr@Oo.0006>9.->>88.     ",
"       Xgcv@9dddsssq9qq9#OOOOOoOOO,,980006>6.->>8.      ",
"        .jb@qsddassspiiqq9o8q88899i0ii000,99.>>XX       ",
"         X.Xqasssssiisiirr1jjiiiiiiiii000986...         ",
"            X..assiipiiirr,jijijiii00i000,99.           ",
"               .X.ipiiirrr:jijjiiiii0i0006..            ",
"                  X.XXreirOkjjiiii0ii0....              ",
"                      .OOo.csijiioOo.o                  ",
"                           ..XXXo                       ",
"                                                        "
};
