/* XPM */
static char *out[] = {
/* columns rows colors chars-per-pixel */
"33 65 45 1 ",
"  c None",
". c #4F2913",
"X c #502C16",
"o c #522E19",
"O c #53321D",
"+ c #563622",
"@ c #573925",
"# c #593A26",
"$ c #5B3D2A",
"% c #5D422F",
"& c #5E4431",
"* c #5A4A3D",
"= c #604532",
"- c #544C44",
"; c #5E5147",
": c #5F5349",
"> c #665646",
", c #62564B",
"< c #65584B",
"1 c #695B4C",
"2 c #635B51",
"3 c #676057",
"4 c #696357",
"5 c #676058",
"6 c #6C655B",
"7 c #6E695F",
"8 c #706A5E",
"9 c #6F6960",
"0 c #716B61",
"q c #777165",
"w c #797266",
"e c #77736A",
"r c #7B766A",
"t c #7D796D",
"y c #7F7C70",
"u c #807B6F",
"i c #817D72",
"p c #848177",
"a c #86837A",
"s c #89867E",
"d c #8A887E",
"f c #8D8B82",
"g c #918F87",
"h c #918F88",
"j c #94928A",
/* pixels */
"                                 ",
"    $$$$#                        ",
"   &7977fO                       ",
"   &pppj23#                      ",
"  &ffppj22@                      ",
"  =ffpaj213.                     ",
"  =fpppj441.                     ",
"  =fpppg4731X                    ",
"  =dpppf4782X                    ",
"  =0pppf4481.                    ",
"  &0pppf4444X                    ",
"  &ppfdf4444.                    ",
"  &apfdf8444. %%##$$$$$$&%%      ",
"  &pppdf8774.@>qwwutyyppaap%     ",
"  &pppdf8864.>>qututyiyypppf&    ",
"  &ppppf8812.>>qutuuityyyppj&    ",
"  &apppd0731.>>qtuuuuuuutyyj&    ",
"  %ppppg0766.>>qqwrtuuuupiij&    ",
"  &ppppd0776.>>qwwrrwuupittj&    ",
"  %apppg8776.><qqqrwwrruitpj=    ",
"  &ppppd8776.>>qwwrwrtrtiiij&    ",
"  &pappg8764.1>wqwwtttwpiipj&    ",
"  &ppppj8744.1>wqqtrrrrpiipj&    ",
"  &ppppj8864.11wwwtrtrrtippj&    ",
"  %apppj7746X11wwrrtpwwppppd=    ",
"  %ppppj8764o11wwrrrwwwppppd=    ",
"  %apppg8643o11qwrtrwpwwpwpd=    ",
"  %ppppg8842O11rwqprwppppppd=    ",
"  %aappg8763o11rrrrrprwppupd%    ",
"  %fppag8641O11qwwrrwpprpppd=    ",
"  %ddaaj8842O11rrwrrpwppqppd=    ",
"  %ggjjj8842O41urrprwprppwpp=    ",
"  %reera8044#14qwrtttuptttif&    ",
"   Oqeqp8641O11qrrttttttiiif&    ",
"    %677p622O41rwrrtttpttpif&    ",
"    %pppg641O11rrrrttituiiif&    ",
"    #pppj612O11qrrrrtuptpptf&    ",
"    %gjjj642O11rrrrrtuttuipf%    ",
"    #99q7d12o11qrrrrtttuuppd%    ",
"   $%9788d14o11rrrrrttpppppf&    ",
"  &rt+999a3:O11rrrerpapiippg%    ",
"  $te+6666p3o1<erertppipippg%    ",
"  $rp+6966p<.<1qqrrttyiyipig%    ",
"  $a22.664p3.11qqerttyyyippg%    ",
"   +22X243:p.><qrrtttyiipipg&    ",
"   @22o2233t.11rrrttyyipippj&    ",
"    +22o3222.1>rtrriyyipippj&    ",
"    o2,.2222.><rtrryyiiipipj%    ",
"     .,.2222.<1reyeyyyiiiiij&    ",
"     .,2....,<rryeeyettriffj&    ",
"      .,:.rrrryryeeetertisij&    ",
"      .:;.gghgssaafaffhhjjjj&    ",
"       ...95222:222:2222296eX    ",
"         .922222:222522:225eo    ",
"         X52222222522522222e.    ",
"         X........X.XX......     ",
"          .*-************.       ",
"          .**************X       ",
"          X-*-**-****-***.       ",
"          .2,22,22:22:,2,.       ",
"          .22,22222222222.       ",
"           ....X.........        ",
"                                 ",
"                                 ",
"                                 "
};
