/* XPM */
static char *out[] = {
/* columns rows colors chars-per-pixel */
"33 42 63 1 ",
"  c None",
". c #4E2913",
"X c #532C15",
"o c #522E19",
"O c #573016",
"+ c #55321C",
"@ c #5A361F",
"# c #573621",
"$ c #593723",
"% c #593A25",
"& c #543D2D",
"* c #5D3E29",
"= c #543F30",
"- c #57402F",
"; c #5E422E",
": c #564232",
"> c #5D4332",
", c #56463A",
"< c #57483B",
"1 c #5B493C",
"2 c #61422D",
"3 c #624531",
"4 c #664934",
"5 c #684B36",
"6 c #634B3A",
"7 c #684C38",
"8 c #6B503D",
"9 c #5F594F",
"0 c #5F5950",
"q c #655747",
"w c #6E5441",
"e c #61574C",
"r c #63594C",
"t c #635C54",
"y c #676057",
"u c #6A6256",
"i c #676159",
"p c #6B645B",
"a c #6E685D",
"s c #70675C",
"d c #706A5E",
"f c #6E6960",
"g c #736C62",
"h c #777065",
"j c #787466",
"k c #777168",
"l c #7B766C",
"z c #7E796E",
"x c #817B6F",
"c c #827D72",
"v c #838176",
"b c #868479",
"n c #89867A",
"m c #8B887D",
"M c #8E8C81",
"N c #918E84",
"B c #939187",
"V c #95938A",
"C c #99968D",
"Z c #9B988F",
"A c #999790",
"S c #9E9B94",
"D c #A19E96",
/* pixels */
"             5552*@              ",
"           55VBBnnm@@            ",
"          8CSBBBnnmxx@           ",
"         8ZCZVBBnnmxxd@          ",
"        5NSSZNBBnmnxxss2         ",
"     4555mZZZDDDCCCcxss222$      ",
"    2NnnnmZDDhhhdssmmsunnnN2     ",
"    5NnnnmDhhhhhdxddxxsnnnN3     ",
"    5NbnnSghhdggggsgggznnbN3     ",
"    5NnnnhhhgggdgggffkgbnnN3     ",
"    %DDSDghhdgggdggggggCVVV2     ",
"    XcpassgdggggdgggggkggpcX     ",
"    Xvaagagsg666666gsshgppcX     ",
"    Xzpaaa6666nnmmq>3>apppzX     ",
"    Xzaaaa6bc2gkgg;lzXppipfX     ",
"    XlaaaaeXXOggggOXXeppptgX     ",
"    XhadpaaeeeXOOOrerpppyyaX     ",
"     XdgaapaddeqrrpapppyagX      ",
"      XXgaaaappppppppypfXX       ",
"       Xkpaatppptpptyyif.        ",
"       Xga:==tp&&&y:-=ifX        ",
"       Xgp:zh=ug=gy:sg&g.        ",
"       Xgp111ttt1tt<,,gfX        ",
"      %+gt1ks<t<1,t,ghtfX.       ",
"  *;**h+gtgppltggatattta#qOOo.   ",
" %Mbb*h+fpptttttttttt00a$r+uun%  ",
" 2Mbv*j+gttttttttttt999a$sXuzm%  ",
" 2Nbb*j+gttttttttt09999a*uXuvm%  ",
" 2mbb*j@attttttt9099990p;u+uvm%  ",
" 3Bnb*jj$**>-;;>;;;;;-%;au.uvm%  ",
" 4mmn*jvvvvvvvvvvvvvvvvvvuouvn%  ",
" 4Nnn2SCCVCMMMMMMNMBNNVCCZ+avm%  ",
" 4Bnn4gappfpfffffffffiipif+fcM%  ",
" 4Vnb4gaappptffptfftfipptk+fvn%  ",
" 4Cbn4gapppppptffpififtttf*gvM%  ",
" 5Cmnn44333>2>>>>>*:=*=33=bcvn%  ",
" 4CnmnbnbbbbccbccvvvvvvvcbcccM%  ",
" ;SSSSCVVVVAVVVCBBBBBBBNBAAAAA&  ",
" Xggptppttttttttttttt0tttttfff.  ",
" Xkpyptyptitttttttttttttttttff.  ",
" XXXXXXXoXXX..X....X...........  ",
"                                 "
};
