/* XPM */
static char *out[] = {
/* columns rows colors chars-per-pixel */
"58 43 236 2 ",
"   c None",
".  c #4F2913",
"X  c #522E19",
"o  c #532F1A",
"O  c #53311B",
"+  c #55321D",
"@  c #563420",
"#  c #573622",
"$  c #573723",
"%  c #583723",
"&  c #583824",
"*  c #583925",
"=  c #5A3925",
"-  c #5A3A25",
";  c #593926",
":  c #593A26",
">  c #593A27",
",  c #5A3A26",
"<  c #5B3A26",
"1  c #5A3A27",
"2  c #5C3B27",
"3  c #5C3C27",
"4  c #5A3C28",
"5  c #5B3C28",
"6  c #5A3C29",
"7  c #5B3C29",
"8  c #5B3D2A",
"9  c #5C3C28",
"0  c #5C3C29",
"q  c #5C3D29",
"w  c #5E3D29",
"e  c #5C3E2A",
"r  c #5D3E2A",
"t  c #5C3E2B",
"y  c #5D3E2B",
"u  c #5E3E2A",
"i  c #5C3F2C",
"p  c #5C3F2D",
"a  c #5D402D",
"s  c #5D402E",
"d  c #5D412E",
"f  c #5D412F",
"g  c #5E412F",
"h  c #5D422F",
"j  c #5E422F",
"k  c #5F4432",
"l  c #59493C",
"z  c #594A3C",
"x  c #5A4A3D",
"c  c #5A4B3D",
"v  c #594B3E",
"b  c #584C3F",
"n  c #5D5045",
"m  c #5E5045",
"M  c #5F544A",
"N  c #62574C",
"B  c #62574D",
"V  c #61584F",
"C  c #615850",
"Z  c #615951",
"A  c #615A50",
"S  c #615A51",
"D  c #625A52",
"F  c #625B52",
"G  c #625B53",
"H  c #635B53",
"J  c #635C53",
"K  c #635C54",
"L  c #635D54",
"P  c #645C54",
"I  c #645D54",
"U  c #645D55",
"Y  c #645E54",
"T  c #665F54",
"R  c #665F55",
"E  c #655F56",
"W  c #676056",
"Q  c #666057",
"!  c #666058",
"~  c #676158",
"^  c #676159",
"/  c #676259",
"(  c #686159",
")  c #686259",
"_  c #68625A",
"`  c #69625A",
"'  c #69635A",
"]  c #69635B",
"[  c #6A635B",
"{  c #69645B",
"}  c #6A645B",
"|  c #6A655B",
" . c #6A645C",
".. c #6A655C",
"X. c #6B655C",
"o. c #6B655D",
"O. c #6B665D",
"+. c #6C665D",
"@. c #6C675D",
"#. c #6C665E",
"$. c #6D675F",
"%. c #6D685F",
"&. c #6F685F",
"*. c #6F695F",
"=. c #6E6860",
"-. c #6F6961",
";. c #706960",
":. c #706A60",
">. c #716B60",
",. c #706A61",
"<. c #706B61",
"1. c #706A62",
"2. c #716B62",
"3. c #726C62",
"4. c #726D63",
"5. c #736E65",
"6. c #736E66",
"7. c #746E66",
"8. c #756F67",
"9. c #757068",
"0. c #767169",
"q. c #777169",
"w. c #78726A",
"e. c #79736B",
"r. c #7A7468",
"t. c #7A7469",
"y. c #7A7569",
"u. c #7A756A",
"i. c #7B766A",
"p. c #7B776B",
"a. c #7C766B",
"s. c #7C776B",
"d. c #79746C",
"f. c #7A756D",
"g. c #7C776C",
"h. c #7D776C",
"j. c #7C786C",
"k. c #7D786C",
"l. c #7D796C",
"z. c #7C786D",
"x. c #7D796D",
"c. c #7E796D",
"v. c #7E7A6D",
"b. c #7D796E",
"n. c #7E796E",
"m. c #7E7A6E",
"M. c #7F7B6E",
"N. c #7E7A6F",
"B. c #7F7B6F",
"V. c #7D7870",
"C. c #7E7871",
"Z. c #7F7B70",
"A. c #7E7A71",
"S. c #7E7B71",
"D. c #7F7B72",
"F. c #7F7C70",
"G. c #7E7C71",
"H. c #7F7C71",
"J. c #807B6F",
"K. c #807B70",
"L. c #807C70",
"P. c #807C71",
"I. c #807D71",
"U. c #817D71",
"Y. c #807E71",
"T. c #817D72",
"R. c #807E72",
"E. c #817E72",
"W. c #817E73",
"Q. c #817F73",
"!. c #827E72",
"~. c #827E73",
"^. c #827F73",
"/. c #837F73",
"(. c #827F74",
"). c #837F74",
"_. c #828074",
"`. c #838074",
"'. c #838075",
"]. c #838175",
"[. c #838176",
"{. c #848074",
"}. c #848075",
"|. c #858075",
" X c #848175",
".X c #848176",
"XX c #858176",
"oX c #848276",
"OX c #858276",
"+X c #848277",
"@X c #858277",
"#X c #858377",
"$X c #868276",
"%X c #868377",
"&X c #858378",
"*X c #868378",
"=X c #868478",
"-X c #868479",
";X c #878479",
":X c #878579",
">X c #87857A",
",X c #87857B",
"<X c #888679",
"1X c #88867A",
"2X c #89877B",
"3X c #8A887E",
"4X c #8B897F",
"5X c #8C8A7F",
"6X c #8B8980",
"7X c #8C8A80",
"8X c #8D8B80",
"9X c #8C8A81",
"0X c #8D8B81",
"qX c #8D8B82",
"wX c #8D8B83",
"eX c #8E8C82",
"rX c #8E8C83",
"tX c #8E8C84",
"yX c #8F8D85",
"uX c #908D84",
"iX c #908D85",
"pX c #908E85",
"aX c #908E86",
"sX c #918E86",
"dX c #918F87",
"fX c #929087",
"gX c #929088",
"hX c #929089",
"jX c #939189",
"kX c #94928A",
"lX c #94928B",
"zX c #95938B",
"xX c #96938C",
"cX c #98958E",
"vX c #99968F",
"bX c #9A9790",
/* pixels */
"                      t t t t t t t t t t t t t t t t t t t t t t t t t t t t t t t t t t t t                       ",
"                  t t aX3X3X3X3X3X3X+X+X+X+X+X+X+X+X+X+X+X+X+X+XeX8X0X+X+X+X+X+X+X+X9X9X7X7XqX. .                   ",
"                o A.A.aX3X3X3X+X+X+X+X+X+X+X+X+X+X+X+X+X+X+X+X+X7X5X+X+X+X+X+X+X+X+X+X+X7X9XkX,.2..                 ",
"              < O.A.S.iX3X+X+X+X+X+X+X+X+X+X+X+X+X+X+X+X+X+X+X+X+X+X+X+X+X+X+X+X+X+X+X+X+X7XkX;.3.C %               ",
"    0 w u u u 3 ' G.D.xXkXkXkXkXkXqXqXqXqXqXqXqXqXqXqXqXqXqXqXqXqXqXqXqXqXqXqXqXqXqXkXkXkXkXkX&.4.V % % % % & %     ",
"  r zXuX0X+X+X+XO.qXqX0.0.0.} } } } } } } } }  .]  ...o.o.o.o.9.0.0.0.0.0.0.+.+.+.+.#.#.#.1.1.kXkXZ <.+X+X+X+XpX9   ",
"  r vXqX+X+X+X+XsX0.0.0.} } } } } } } } } } ] ] ] ] X.o.o.X.o.o.0.0.0.=.=.X.+.+.+.+.+.+.+.1.1.1.1.kX*.+X+X+X+XpX9   ",
"  r bX+X+X+X+X+XsX0.0...} _ _ _ } } } } } ] ] ] ] ] X.X.X.X.X.X.X.X.+.+.+.+.+.+.+.+.+.+.+.+.+.1.1.kX:.+X+X+X+XgX2   ",
"  r bXvXvXvXcXfXX...} } } _ _ _ _ _ } } ] ] ] ] ] ] ] X.X.X.X.X.X.X. .X. . . . .......o.o.o.+.@.@.@.qXqXfXkXkXkX=   ",
"  . C.%.%.%.%. .{ { ] ] ] _ _ _ _ _ _ ] ] ] ] ] ] ] ] ]  .X. . .X.' ' ' ' ' ) )  . .....o.o.o.o.o.O.O.O.%.1.1.e..   ",
"  . V.%.%.O.{ ] ] ' ' ' ' _ _ _ ] _ _ ] ] ] ] ] ] ] ]  . . . . .' ) ) ) ) ) ) ) ) ............o.o.o.o.O.O.O.O.e..   ",
"  . f.] ] ] ] ] ' _ _ _ _ _ _ _ ] _ ^ ] ] _ ' ' ' ' '  . . . .) ) ) ) ) ) ) ) ) ) ) ..........} } | ..X.X.X.X.w..   ",
"  . d.] ' ' ~ ~ ) ) _ _ _ _ o.-.-.M ) ^ _ _ _ _ _ _ _ ^ Q Q Q Q Q Q ^ ^ ^ ^ ) ^ ) ) ) ......' ' ' ' ' ' ' ' ' q..   ",
"  . w.' ' ' I J J I _ _ _ _ -.-.m ~ ~ ^ ) _ _ _ _ ^ ^ ^ Q Q Q Q Q Q ^ ~ ~ ! ^ ^ ^ ^ ^ ^ ^ ^ ^ ^ ^ ^ _ / / / ) q..   ",
"  . q.' ' ' J J K J L I _ =.-.n m W Q ^ ^ ^ ^ ^ ^ ^ ^ ^ L L L L Q Q Q Q Q Q Q Q A A Q ~ Q ~ ~ ~ ~ ~ ~ ^ ~ ~ o.q..   ",
"  . 8.' L J J J J J K L E m n n W W W W ~ W W W L L ^ ^ L L L L L Q Q Q Q Q S S S A S A Q Q Q Q ~ Q Q ~ Q #.o.q..   ",
"  . 7.U I J J J J J Y n n n . . W W W W W W W W W L L L L L L L L Q Q E I I S S S A A A E E E E Q Q Q $.#.#.#.q..   ",
"    . . . . . . . . . . . .     . . . . . . . . . . . . . . . . . . . . . . . . . . . . . . . . . . . . . . . .     ",
"        . C N N B .                                                                             . B B B B .         ",
"    $ # . N N N Z . . . O @ $ * : > 6 i i i t e s f h k k k k f g j g d p 8 5 1 ; , , ; % @ @ @ + B B B B . . .     ",
"  7 qXE.E.a i d i i.y.u.u.y.y.r.r.g.h.i.i.i.i.i.r.i.i.i.i.i.s.s.s.s.s.>.>.>.>.>.s.s.s.l.l.x.c.c.h.: 4 4 : r.t.qX-   ",
"  7 dXE.E.b.b.b.b.b.L.L.L.L.L.c.c.c.n.n.n.n.n.b.P.P.P.k.k.x.x.x.x.x.s.s.j.:.>.z.x.l.c.x.l.l.l.c.c.n.n.b.b.a.p.qX2   ",
"  7 dXE.E.E.L.L.L.L.L.L.L.P.P.K.Z.Z.n.c.K.P.P.P.P.P.P.P.k.m.m.m.T.~.L.L.L.L.L.L.L.J.B.M.v.c.v.l.l.x.k.I.I.I.Y.qX9   ",
"  7 dXE.E.E.E.L.L.L.L.L.L.L.U.U.!.E.E.I.P.P.P.P.P.P.P.P.N.N.B.B.T.~.P.P.P.T.T.T.P.T.T.P.P.P.F.L.H.F.Z.R.R.E.E.qX9   ",
"  7 dXE.E.OXOX{. X{.`.`._._.^.^.~./..X.X.X.X.XP.P.P.P.P.T.~.~.~.~.~.T.T.T.T.T.T.T.T.(._.^.^._._._.Q.Q.Q.Q.Q.Q.qX9   ",
"  t dX.XOXXXOX$XXXXXXXqXqX|.}..X.X.X.X.X.X.XXX~.~.T.E.T.T.~.~.~.~.}.{.{.}.{.}.{.{. X XoXoX.X.X.X}.].].].].oXoXaXq   ",
"  t dX&XOXOXOXOX%X%X%XqXqX@X@X@X@X@X&X@X@X@X@X@X@X@X~.W.).~.~.~.).'.+X+X+XOXOXOXOXOX@X#X+X+X+X+X.X+X[.].oX:X=XdXr   ",
"  t lX6XOXOXOXOX-X*X*X@X@X@X@X@X@X@X&X@X=X#X@X@X#X=X#X#X#X).).'.'.+X@X@X+X+X+X+X+X+X*X&X&X&X*X&X&X*XoXoX#X4X4XdXy   ",
"  t bX6X6XOXOXOXOX1X1X<X1X1X1X>X:X@X@X*X@X@X*X*X*X*X*X*X*X*XqXqXqXqXqX&X#X@X@X#X#X=X&X&X&X&X&X&X=X=X=X=X6X6X6XlXt   ",
"  t bX6X6X6X6X1X2X2X1X1X1X1XlXlXlX2X2X2X2X2X2X;X;X=X=X=X=X=X6XqXqXwXqXqX&X&X-X&X-X-X-X-X-X-X-X-X-X,X,X9X6X6X6XbXt   ",
"  t bXbXbXlXlXlXqXqXqXqXqXqX9.9.9.qXqXqXqXqXqXqXqXrXyXaXdXdXgXgXgXgXgXgXgXqXqXqXqXqXqXqXqXqXqXtXyXpXhXjXlXlXbXbXt   ",
"  X 0.( ( Z Z Z Z Z Z Z Z Z Z 6.9.H H H H H D H H ( ( ( ( ( ( ( ( Z Z Z Z Z Z Z D D G H J K K K K P H H Z [ ] 1..   ",
"  . 6.Z Z Z Z Z Z Z Z Z Z Z H H H H H H H H H H H H H H H ( ( ( Z Z Z Z Z Z Z H F H H P P P P P J J H H Z Z ` 1..   ",
"  . 5.Z Z Z Z Z Z Z Z Z Z H H H H H H H H H H H H H H H H H H Z Z Z Z Z Z Z Z Z Z H H H H H H H Z H H Z Z Z Z 1..   ",
"    . . . . . . . . . . . . . . . . . . . . . . . . . . . . . . . . . . . . . . . . . . . . . . . . . . . . . .     ",
"        . c l z x .                                                                             . x x x x .         ",
"        . b x x v .                                                                             . x x x x .         ",
"        . x x x x .                                                                             . x x x x .         ",
"        . T T R T .                                                                             . T T T T .         ",
"        . T T R R .                                                                             . T T T T .         ",
"          . . . .                                                                                 . . . .           ",
"                                                                                                                    ",
"                                                                                                                    "
};
