/* XPM */
static char *out[] = {
/* columns rows colors chars-per-pixel */
"38 75 64 1 ",
"  c None",
". c #4B2713",
"X c #4E2813",
"o c #512D17",
"O c #522E19",
"+ c #56331E",
"@ c #59361E",
"# c #563621",
"$ c #593721",
"% c #5B3924",
"& c #5C3E2A",
"* c #623D25",
"= c #5E412D",
"- c #5E4431",
"; c #5A4A3C",
": c #62422D",
"> c #614633",
", c #634936",
"< c #694935",
"1 c #634B39",
"2 c #5C4E41",
"3 c #5D5143",
"4 c #5E534B",
"5 c #604F42",
"6 c #615545",
"7 c #635847",
"8 c #62574C",
"9 c #655A4D",
"0 c #685C4D",
"q c #665D53",
"w c #695E53",
"e c #655F5C",
"r c #68604E",
"t c #676150",
"y c #6B6255",
"u c #66615B",
"i c #6B655C",
"p c #6D695D",
"a c #746755",
"s c #756957",
"d c #716B5F",
"f c #7F735F",
"g c #6F6661",
"h c #6E6A65",
"j c #706660",
"k c #726D63",
"l c #757165",
"z c #7D7565",
"x c #767369",
"c c #7A766B",
"v c #7D7A6E",
"b c #7E7C72",
"n c #807765",
"m c #817866",
"M c #817A6B",
"N c #827E73",
"B c #858276",
"V c #868379",
"C c #88857B",
"Z c #8C897F",
"A c #8E8B82",
"S c #918F85",
"D c #939086",
"F c #95938B",
/* pixels */
"                                      ",
"                                      ",
"               ,;>----&&              ",
"             ,1FFFFAAAVN->            ",
"            >FFFFFFSAAVNNN&           ",
"           >SFFFFFFSAAVVbNb&          ",
"          :SSFFFFFFAASVVNbNk%         ",
"          :SSSFFFFSAAVVNbNkx%         ",
"         &BDSZDDSZSSBBNNvlxxp#        ",
"         *BBZDDZFFFFFSSMxllpp#        ",
"         >BBBBFF<<<>::*BBxppp#        ",
"        =BBBBZ**yyywwyw%%cpp70%       ",
"        &BBBD@yyyyyytqwwq&c7r0%       ",
"        &cBS@aaycbb&bbbxq9#d00%       ",
"        &cA+iwivcb$u+bcbcq9%l7%       ",
"        &C*aybbv**yyt%&bcxq8+7+       ",
"        $V*yxx**yyyxxttOO#h9+9+       ",
"        *C@yk*yyyxxbbxxtq#l4+7+       ",
"        %N*yx*wxxxbbbbxll#l8o9O       ",
"        %N@qx%yxxbbbbbblx#l4o9X       ",
"        %N@qp%i*==bbb-=%l%p4+7o       ",
"        %N*0p%yxNBbbbbbll#p3+r.       ",
"        *N$qp@wxbbbbbbbll@i6+7.       ",
"        *N%9ppOwxNbbbbbl+ii3#7o       ",
"       $lN@9iid*%&%&:&&$pii2@47X      ",
"       @fN$88j@9ttrwr77koi62@33.      ",
"       @kN$98+wl0r0yr7vvyo12@43.      ",
"       @fV@6+wxxxvvMvcvccuo5@37X      ",
"       $cB%OwxxlMv:=:vvvccp.+37o      ",
"       *cV$9wlllv:AAA%vvvvuu+p;X      ",
"       *cB%q0xllv=Bvb%vcvcppOy3X      ",
"      %ccB+9>lxwt=b+B%tqcc-b+pppX     ",
"      $cZ%09,wwyt>N+b=tttp-bdXptX     ",
"      $MA&99B:%@=vv+bx=-=-CldXprX     ",
"      %cZ$9lNSDS%v=1@b%ZZZNllXp3X     ",
"      %cA%9kBBBBZ%;1;=ZNbbNzdXp3X     ",
"      &zA%qklBBBZ%137@CNBblldXp7X     ",
"     #cxZ#wklddlC%r3;=BllllllXy34X    ",
"     %ccA#wkllldN=1;k=blklkkdXy46X    ",
"     %vvA#wkddllM=rxl=NlllkllXp66X    ",
"     %vbZ#tklkldb=7kk=blllkl8Xy64X    ",
"    %NbcA#q9dkdlv@3lk=blkll78Xi663X   ",
"    %bvNA%%899llv@3dp=blx888XXtr66X   ",
"    &VVCA%3&9qyyp@7kk+zyy99.;XrtrrX   ",
"     +BVA#36=7yyp%3xx+lyy8o;;XtrrX    ",
"      O+#%16;=%==37xxp+###;;6XXXX     ",
"         &c666471xkhkpuy;;;;7X        ",
"         &cpyppxxxkkhypy;;;;7X        ",
"        %bbccipxxxhhkiyp;3;r77X       ",
"     :>=%NNccppNNcckkhdp;3;776XXXX    ",
"    &SNM%NNccvcNNxxxxhky;33776X090%   ",
"   &ANcc&AZNNccNNNNxxkhy7;7766Xr07A#  ",
"  =AvvvNN&&AAb,NNNNxxkkjo;77XX0700vA# ",
" &AvMvbNN-q&&&,NBNNxxkhkXoXX;Xy007cvZ+",
" &AvvvNNNVwqwq1NBbNxxlkjX;;;;XrrryvvZ%",
" %AMMvMbN1cwqqw,>,-+++OO;;;;7XryyycvZ#",
" $SNbMvM&ANNNqwqqqqqqq9;;;7777XtrMvvA+",
" $ANNvMN=AVvbbqwqqqqqqqq777776XppMvvZ+",
" %SNNNMM-AVNvNxxxxxxeewuu67777XsdvvMZ+",
" %DNNNNM-AZVNNxxxxxxweiutu6647XpvvMvZo",
" %DNBNBBn->ZS1xxxxxxxxuyuX66.XipvvvvZo",
" %DBNNBBVmm,,>xxxxxxlxtuuooXasBvMvvvAo",
" $ANNBBBCCVmmn>,>--&&&$#ozmmBBCvbvvbAX",
" &hABBBCVCVVVVnnmmmmmcznnBVCBBCCvvvA;+",
" =hhSNSAANCCCVVVVVVNBVVVVVbVVbVVbbA2;o",
"  %hhSZZACCCVCZNCVVZVBVVVVAbVAVVBA22X ",
"  %$hkSSDDDASAASAASAAAAAAAAAAASSA42.X ",
"  =h$kNjgjjjiggeegiegegegqqqeeeeh4.2X ",
"  *hkXVjjgiiugguggiuugeeeqqq8eqehX22X ",
"  &kxh+$++#+#+++#O+#+#+#++##....X432X ",
"   OhnjNjgegggggggeeegeguueeeeuh444X  ",
"    OhhNigjgguuggeiguueeueeeeuuh44X   ",
"     OlNggggigiigiiiueguueuueeeh4o    ",
"      +#++++###+++####++##++##XXX     ",
"                                      "
};
