/* XPM */
static char *out[] = {
/* columns rows colors chars-per-pixel */
"34 81 60 1 ",
"  c None",
". c #4F2913",
"X c #522C14",
"o c #542E19",
"O c #54331E",
"+ c #58331A",
"@ c #543421",
"# c #583620",
"$ c #563926",
"% c #5B3C26",
"& c #563B2A",
"* c #5C3E2B",
"= c #5E402C",
"- c #594233",
"; c #5B4739",
": c #5D493C",
"> c #62432D",
", c #644631",
"< c #674831",
"1 c #694A33",
"2 c #5E4E41",
"3 c #5E5245",
"4 c #625446",
"5 c #655847",
"6 c #625549",
"7 c #635A4D",
"8 c #695E4F",
"9 c #635C52",
"0 c #695F50",
"q c #676057",
"w c #6A6153",
"e c #676159",
"r c #6A645C",
"t c #6E685E",
"y c #70675C",
"u c #71695E",
"i c #7C725D",
"p c #6B6761",
"a c #6D6961",
"s c #716B62",
"d c #736F69",
"f c #757065",
"g c #787367",
"h c #75716A",
"j c #79756B",
"k c #7D7A6E",
"l c #7E7B70",
"z c #807761",
"x c #817963",
"c c #817D72",
"v c #858276",
"b c #878479",
"n c #89867B",
"m c #8B897E",
"M c #8F8C82",
"N c #928F87",
"B c #929087",
"V c #959289",
"C c #98968E",
"Z c #9C9A92",
/* pixels */
"                                  ",
"                                  ",
"     >,>,,,,,,,,11<<1<>>>>>       ",
"    >VmmmvvvvvvbcncvvvvvvcV%*     ",
"   >VmmmmbbvbvbvvbcvncbcbbbBB*    ",
"   ,BmmbvvvvvvbbvbbvcnccbbbbbN>   ",
"   ,Vvvvvb8wrruuuuuuiyarbbbbbN>   ",
"   ,Bbvbbw%=====******>>wvvvvN>   ",
"   <Bbbbb>cccvvvcnccncnc*vcvvN,   ",
"   <Bbbbv<ccccvvncnccncc=vvvvN>   ",
"   <Bbvnb<ccccvvcncbcccc=cvbbN>   ",
"   >Vbnnb<cvvvccncncnccc>vvbbN>   ",
"   >Nnnnn,ccvvcccccbcccc>nbbbV>   ",
"   >Nmmbn1cnvvjjccccccxc>nnbbC,   ",
"   >Cmmnn,ccbcjgjcjcccgg>mbbbC,   ",
"   >Vmmmm,cccbbcccccccgg>mbbnC>   ",
"   >Vmmmm,cccbvvcccggggg>nnnbC>   ",
"   >Vmmmmm1>>,>>>>><>>=>mmnnmC>   ",
"   >CmmmmmmmmNmmmmmmmmnmmnmmnC>   ",
"   >CmMmmmmmmmmmmmmmmmmmmnmbmC%   ",
"   >sBVMmmmNmmmmmmmmmmmmmnmmV9o   ",
"   *fffZZZZZZCCCCCZCCCCZZCZZw9X   ",
"   =ssbsfsuuuuuuuussyyyyytyyc9X   ",
"   >avsssfuuuuuuufusuyyytywryjX   ",
"   %rcddyysyausssssssaysttrytjX   ",
"   #cyayyasauusssussssssstyrtjX   ",
"   #lpsyayysusssssuussssstytpjX   ",
"   OkttayyyssuayusssssssssrttjX   ",
"   #juyyasasdsdssusssssasasttjX   ",
"   OfsatysaassadusssssssssauakX   ",
"    o232244346665664433322222X    ",
"     o2224344467766443232222o     ",
"      X3:333333573733333222o      ",
"       +O+O@==--==$$OOoooo.       ",
"       Xreerq@rrrrrrrrpppp.       ",
"       Xreere-rrrrprrrrpprX       ",
"       Xeeere-rrrrrrrrrrrp.       ",
"       Xereer-rerrrrprrppr.       ",
"       .reree-ererrrrrrpprX       ",
"       .eeree-rerrrrrrrrrr.       ",
"       Xeeeee-ererrrrrrrpr.       ",
"       .eeeee--eeerrrerrrp.       ",
"        -&-@@@@@::3:23---@        ",
"       Xeepepppratt--hhhhh.       ",
"       .99999999999-dppppp.       ",
"       .99399993677-ppappp.       ",
"       .99999339963-appapp.       ",
"       .99999999999-aapaap.       ",
"       .99399939699&pppppp.       ",
"       X33999939963@ppppppo       ",
"       X33399999997@pppppp.       ",
"        @@&&@@&-&@@@&@----        ",
"   >>>=Xpdda-pppphdddddddd....X.  ",
"  >jjkj.epep-eeeeeeeeeppppX65565X ",
" ,bkkjjXeeee-eeeeeeeeeeepp.55555. ",
" ,mlkkkXepee-peeeeeeeeeeep.56555. ",
" <bkkkcXrree-eeeeeeeeeeeqqX58577. ",
" 1mkvckXrrrr-reeeeeeeeeeeq.88585. ",
" 1mvckkXrree-reeeeeeeeeeee.78588. ",
" 1bkvvvXrrrr-eeeeeeeeeeeeeX87889. ",
" 1mvvcck$-----::;;;;&&OOOO98888M. ",
" 1mvcvvXjjjjjhdhddd2;&dhhf.wwwwn. ",
" 1mvvvcoaaaaprrrperdd&eeee.wwwjm. ",
" 1mvvvv+hsaappprrp9e9:eeee.8wwjn. ",
" 1mbvvvXfaattrpepe9994eeee.wwjkb. ",
" 1mvbvv+haatprrpr9ee93eeeeXwwkkn. ",
" 1BvvvvXhattrrpp9e9e9-eeee.ekjkn. ",
" 1Nvvvv+srtrtr9er9eprOeeee.0llln. ",
" 1mbvvv+irrrrrrwe99rrOqeee.ekkkn. ",
" 1mvvbvv++X++XXXXoXX.X....ekklkn. ",
" 1mmvvvvvgxiixiigziiiiiiiikkkklM. ",
" 1mvvvvvvvvvvvvkccccllkkklkkkkkn. ",
" 1Vbvvvvvvvvvvvvcccckkkkklkkklln. ",
" 1mbbbvvvvvvvvlvcvcclvkkkllllkln. ",
" <ZZZVVVVBBVVVVVVVVVVVBBBBBBBBBB. ",
" +xittuytuuussssussaattrerreeeeM. ",
" +ctryuttttuusssusssaatrerrererv. ",
" ojytyyuttttasssfsstrtrrperreeek. ",
" oXoXoooX+X++XXXXXX.X.X.......... ",
"                                  ",
"                                  "
};
