/* XPM */
static char *out[] = {
/* columns rows colors chars-per-pixel */
"36 61 59 1 ",
"  c None",
". c #4F2913",
"X c #522B14",
"o c #54321E",
"O c #59341C",
"+ c #553521",
"@ c #5A3720",
"# c #563826",
"$ c #5D3B24",
"% c #563B2A",
"& c #593D2C",
"* c #603F27",
"= c #603F28",
"- c #564635",
"; c #5A4233",
": c #574837",
"> c #574839",
", c #5A4A3B",
"< c #63432D",
"1 c #654630",
"2 c #6B533F",
"3 c #5B4E40",
"4 c #5E5144",
"5 c #5F574B",
"6 c #605447",
"7 c #6D5745",
"8 c #655847",
"9 c #6F5A46",
"0 c #61564A",
"q c #645A4C",
"w c #685E4E",
"e c #635B51",
"r c #695F50",
"t c #676056",
"y c #696154",
"u c #676158",
"i c #6A645B",
"p c #6E685F",
"a c #7D735D",
"s c #6C6760",
"d c #6E6961",
"f c #726D63",
"g c #757165",
"h c #7D7867",
"j c #767169",
"k c #79766B",
"l c #7D7A6D",
"z c #7E7C70",
"x c #80755F",
"c c #817E72",
"v c #848174",
"b c #86837A",
"n c #89867C",
"m c #8C8A7D",
"M c #8E8C81",
"N c #908E84",
"B c #929087",
"V c #949289",
"C c #9A968D",
/* pixels */
"                                    ",
"                                    ",
"           11111111111              ",
"          =lccccbcbcvc1             ",
"          =hccccccvvvvc1            ",
"          =7999mmNmmmNm=            ",
"         1hhhhh@6yiyiyp*            ",
"         1hckkkO4riiipy*            ",
"         1lllchO4uiiyiiO            ",
"         <lllhhO4eruiiiX1111        ",
"         <cclclO44rryiiXccll1       ",
"         <lhlllX34rrryiXhkll1       ",
"         <llllhO....XXXommmm1       ",
"         $mnnnb.>35500reryyiX       ",
"         $kfffi.>3550erryiiyX       ",
"         $kffipX>::55errryiiX       ",
"         okfdii.>>>qeqqtttttX       ",
"         Xgddip.>,-e5q5ettytX       ",
"         Xgdppi.---0q5qqetttX       ",
"         .gipii......5teteteX       ",
"         .kisis-88ggg.etteee.       ",
"         .fpusi-8gggg.;;;;;;        ",
"          o++++zvvvvv.5555.         ",
"         .fffdj5eeeep.55555.        ",
"         .ee5eeeee5ep.555555.       ",
"         .ee5e5e5eeep.555555.       ",
"         .eeee5eeeeep.555555.       ",
"         .eeeeeee55qp.;;;;;;        ",
"         Xe0eeeee5eep.wqjkkk.       ",
"         Xeee5eee444p.wwkkkk.       ",
"         .e55e544345p.wkkkgk.       ",
"          +++%%%%-+++hhhllcl.       ",
"     <;<<Xkkkk#;jkkjkiiueuuu......  ",
"    ;kkkkXiitt+kiiuiieieiiuu.88888X ",
"   1nkkkkXuuyi;teiiuieiiuuuu.88888. ",
"   1MklkkXiiit;iiiuiuiiuuuuu.q8888X ",
"   1mkkkhXiiii;uiesiseuiuiiu.0qq8q. ",
"   1mlklkXiiiy;iusiresuuseuuXq7qqq. ",
"   1mklklXiyyi;iruesiiuueuiiXq9qqwX ",
"   1MllzlXiiii;isrsrsruusruu.qrww9. ",
"   1Mzxclz++O#;;&>,13%&#ooo+rwwwwb. ",
"   <MzzccXjjjjjjjjjjjjj&iisiXrrrrb. ",
"   <mccccXfffsddsssssss&eeeeXrrykb. ",
"   =MccccXfjddsssssssis&eeeeXryykb. ",
"   <NccccOjddddsssssiis>eeeeXrrkkb. ",
"   *BccccXjddsssddsssss3eeerXrykkb. ",
"   <NccccXdddddsseessss&reee.rzklb. ",
"   <NccccXdddddruiesiss#0eeeXykklm. ",
"   *NcvccXfffyyyyirrsss+60ee.rzzzb. ",
"   $mvvvvcXXXXXXXXXX......X.rczzkM. ",
"   *NvvvvvxxxxxxaaaaaaaaaaagczzkzM. ",
"   $Nvvvvvvvccvccccczzzzzzzzzzzzzb. ",
"   Omvbvcvvvcbcccccczzzzzzzzzzzzzn. ",
"   ONvvvbcvvcccczczczzzczzzzzzzzzn. ",
"   OCCCCCVCBCCVVVVVNBBBBNNNNNNBBBB. ",
"   Xmpppipipppfffffdspppsussserirz. ",
"   Ompppyppyppppgffpppppipuuuriddc. ",
"   Xbpypppippfppppppppppiusuiissdz. ",
"   OXOXXXOXXXXXXXX.XX..X........... ",
"                                    ",
"                                    "
};
