/* XPM */
static char *out[] = {
/* columns rows colors chars-per-pixel */
"36 48 51 1 ",
"  c None",
". c #4C2711",
"X c #4E2812",
"o c #4F2D1A",
"O c #512C16",
"+ c #512E1A",
"@ c #52311D",
"# c #5A371E",
"$ c #5B381F",
"% c #533421",
"& c #593622",
"* c #5C3C26",
"= c #573E2E",
"- c #5E3E29",
"; c #5F402D",
": c #61422E",
"> c #614533",
", c #634836",
"< c #644B39",
"1 c #5A4E42",
"2 c #5E5246",
"3 c #5F5449",
"4 c #62574C",
"5 c #645A4F",
"6 c #645C51",
"7 c #676056",
"8 c #696155",
"9 c #676158",
"0 c #6B655B",
"q c #6E685E",
"w c #716256",
"e c #6F6A60",
"r c #726D63",
"t c #777066",
"y c #7A7267",
"u c #757269",
"i c #7A766B",
"p c #7E796E",
"a c #7E7A71",
"s c #80796F",
"d c #807D74",
"f c #848277",
"g c #868478",
"h c #89867A",
"j c #8A887A",
"k c #8D8B82",
"l c #918F86",
"z c #96938B",
"x c #99968E",
"c c #9D9991",
"v c #A09C94",
/* pixels */
"                                    ",
"      ;>;;,,,,,,<<<<<,<,,,,,>:      ",
"     -kkkkkkfffdffgfdgdgfffddk*     ",
"    -kkkkkkffffffffffggdffffffk-    ",
"   -kfffffffffffffffffkkkffffffk-   ",
"  :kffffffffffffffffkkklkdffffffk;  ",
"  ;kffffff56667900006e0699ffffffk*  ",
"  ;kfffff3***;;;=;-----***5ffffdk-  ",
"  >kfggf4#wwtttttttytt8w0w#4dgffk*  ",
"  :kggff#wwrtttttttyttyttww#fffgl-  ",
"  :lgggg$wttttttttpitttttyy#ggfgz-  ",
"  >lgggg$8yttttiiiiiytyyyyy#ggggz-  ",
"  :lgggg$ypiittiiiiisiyyyty#ggggz-  ",
"  :lgggg$iippiiiiiyfiiyyyyy#ggggz-  ",
"  :zgggg$ispppppsiipiiiiyiy#ggggz-  ",
"  :xgggh$ippppppssifissiiyy#hgggc-  ",
"  -xgghg&isssssssifispppiii&lgggx-  ",
"  :xjhgh&siss0wsfifspsaapii&lghgc-  ",
"  -xllhhd$ss00www8isdspppp$klhhgc-  ",
"  -vljhhjj#&&&&&$$$$$$$$$$ljkhhhc:  ",
"  :vjlhhjjhjhhhhjjjhjhjjjjlhhhhhv:  ",
"  -svhhhhjjhhghhjjhjhjhjjhhhhhhx8O  ",
"  -ssvjjjddjhkgkjhhhjjjhjjhhhhv68O  ",
"  #yssvvvvvvxxzzzzzzzzzxxcxxcv6w8@  ",
"  &uuzquuuuuqqeeqqqsssseqq0ee0d68O  ",
"  &ikq0uuqq0qqqqqq0qqqqqqqeqe0ed6X  ",
"  Of0qq0q00qqeewqqqqqqqqqweq6eeeao  ",
"  Xd0q00q0qqqq0eqqqqqqqeqqqrtee6fo  ",
"  oa00e6q0%%&&o&+++o&@+@++rrt00ea.  ",
"  .a000eq%1155565999666666%rr0e6iX  ",
"  Xae66e+115555595556666666%e000uX  ",
"  Xu0e6e%1565555559566w6666%0000uX  ",
"  ouq990+456656566666546666#0090rX  ",
"  Xu9990@455565665665455664#0000rX  ",
"  Xu9999%322555565534454444#7009uX  ",
"  .u9888@342555555354444454@0777rX  ",
"  Xe7799O422455555353636443@7777rX  ",
"  Xe7767O144444555533323242o7777rX  ",
"  Xe9766@212244435533333333@7767u.  ",
"  Xe9667q%2224443533333223;07676r.  ",
"  .e96666i%ooooooo+Oo+oooo967676eX  ",
"  .e006655rrrrrrrrrrrrrrrr666666eX  ",
"  Xe0090663666689090800666666666eX  ",
"   .0090376666666666000666666760X   ",
"    X00666666663666666676666660O    ",
"     X06366666666636666666666qO     ",
"      .O..XO.O..XXXX..XX.O..XX      ",
"                                    "
};
