/* XPM */
static char *out[] = {
/* columns rows colors chars-per-pixel */
"25 41 47 1 ",
"  c None",
". c #4F2913",
"X c #512A14",
"o c #532F18",
"O c #563621",
"+ c #5A3A25",
"@ c #5C3E2A",
"# c #5E412E",
"$ c #574537",
"% c #594537",
"& c #574638",
"* c #594639",
"= c #5B4A3C",
"- c #604532",
"; c #654B39",
": c #5F4E40",
"> c #604F42",
", c #645445",
"< c #665847",
"1 c #63574C",
"2 c #64594E",
"3 c #695C4C",
"4 c #645C53",
"5 c #695E54",
"6 c #676057",
"7 c #6B6155",
"8 c #6E655B",
"9 c #70675D",
"0 c #70685E",
"q c #6F6A61",
"w c #736C61",
"e c #767067",
"r c #77716A",
"t c #7C766D",
"y c #7E786F",
"u c #807B72",
"i c #848276",
"p c #868479",
"a c #88867B",
"s c #8C897F",
"d c #8E8B81",
"f c #918D83",
"g c #939087",
"h c #95938B",
"j c #98958F",
"k c #999791",
"l c #9A9890",
/* pixels */
"                         ",
"                         ",
"  @@%------#-####@@@OO   ",
" +ttuuugpsppsasah99567X  ",
" +tttuufssssssssf98756.  ",
" +tttuufssssssssgw5565X  ",
" @tttttfssssssssg95753.  ",
" @tttyyhssssssssgqq556X  ",
" @ttuuulssssssssj0w967X  ",
" @tteuehlhllllllhwq977o  ",
" @wyuulssssssssssh0922X  ",
" @wtulsssssssslsssh922X  ",
" @w0lsgshsssssssdsfh72o  ",
" @0hsgssssssslssffdfj3o  ",
" @jfgsgshsssssssffffsho  ",
" Xjjjhjjllllllllggghhho  ",
" .r444444554444454411e.  ",
" .r444444444444442414t.  ",
" or444444454444441144w.  ",
" XXXX.XXXXXXXXXX.......  ",
"    X>*X@****@**.:=.     ",
"    .>>.*****%**.==.     ",
"    X85X>>>>>>>*.18.     ",
"  ++X955XXXX....116.OO   ",
" ;dpX85555544141118.,,o  ",
" -di5.1*******&&$$.<,,X  ",
" -dp37X,=****@*&$.<<2<X  ",
" -da77X8777754418.<<3<.  ",
" #sp77X9777755228.2353.  ",
" -sa88X9487755558.33ugO  ",
" -ssp9X9455555549X7iidO  ",
" #spppo9455455569X7iidO  ",
" #gsippXXXXXXXXX.iiiigO  ",
" #gsspppaapiipiiiiiiid+  ",
" Ohhjjjjjhhjjgjhhhhhhh.  ",
" .w766446554444444444q.  ",
" Xq666466454414444445q.  ",
" Xw666554446414445444q.  ",
" X.XXXXXo.XXX...X......  ",
"                         ",
"                         "
};
