/* XPM */
static char *out[] = {
/* columns rows colors chars-per-pixel */
"32 39 71 1 ",
"  c None",
". c #45210E",
"X c #48230F",
"o c #462310",
"O c #4B2611",
"+ c #4E2812",
"@ c #512B14",
"# c #532F18",
"$ c #56321B",
"% c #5A361D",
"& c #57381F",
"* c #5C381F",
"= c #573720",
"- c #593720",
"; c #5C3B23",
": c #5E3F28",
"> c #613E24",
", c #5E4532",
"< c #5F4835",
"1 c #624126",
"2 c #64452A",
"3 c #66492C",
"4 c #6A4A2F",
"5 c #674730",
"6 c #674B31",
"7 c #6B4C31",
"8 c #634C39",
"9 c #704F34",
"0 c #6E5236",
"q c #66513D",
"w c #6C523B",
"e c #715437",
"r c #725639",
"t c #78573A",
"y c #765A3C",
"u c #7A5D3E",
"i c #7C613F",
"p c #6A5642",
"a c #6D5945",
"s c #7B5F40",
"d c #715E4B",
"f c #7E6241",
"g c #73624E",
"h c #766651",
"j c #786752",
"k c #776853",
"l c #7B6B56",
"z c #7E6D59",
"x c #826645",
"c c #846946",
"v c #866B49",
"b c #896E4B",
"n c #8B714E",
"m c #806F5A",
"M c #8E7552",
"N c #81725E",
"B c #917A56",
"V c #967E5A",
"C c #847661",
"Z c #887762",
"A c #867864",
"S c #887965",
"D c #8B7D69",
"F c #8E816D",
"G c #90836E",
"H c #938571",
"J c #978A76",
"K c #998B76",
"L c #9B8D79",
"P c #9F917C",
"I c #A29580",
/* pixels */
"                                ",
"            :22225,5            ",
"         ::1AAAACADD1:1         ",
"        ;lzm%%-%%%%$KKK;        ",
"       :l1>>*vixfsu*%%%G-       ",
"      ;l4xxn*vxfsff%fut%F@      ",
"     :z7cccB9vxxxui>fuuy%D=     ",
"    $C4ccccM9vxfxxx4xtuuu@g+    ",
"    *N4vvccM9vcxxxf4xuuuy@d+    ",
"   ;hG7nbbbM7vcxfxf4vxsuu@d8+   ",
"   :hGtnbbbF9vxxxxx7bxsiu+d8+   ",
"   ;hhKtnnbV9vccfcx4bxxu@h88+   ",
"   ->jlKtMnV7Mvcxfc6bxx%lpq++   ",
"   ;r1mSP9eV4Bvvbcb6n>:Naa@3+   ",
"   -r1zSBII9742112211CNgaa@3+   ",
"   %rr2NBHHPPPPKJJJDSlgga@23+   ",
"  >l4t>>4KKHHHDZNCCzllk@@-3+8O  ",
"  2l4t%xx>>>DHDZZZCl@++44-3+8+  ",
"  >lm4-xxbnM>*****&&sw044&+88+  ",
"  >%lZ>xxbnM>ccxfii1yw043+p8OO  ",
"  ;t>lZ94bbM3xcxfii1y00++pqO3O  ",
"  %tt%lDH44b>xxcfii*y$$ppp+22O  ",
"  %rt5%lmLP44441;*%$-ghppO$22X  ",
"  %rt5x>>DVKJKGGFDDNzggOO3&22O  ",
"  @rr4uxv66DSSNNCzNhg+O633&22X  ",
"  @%%4uufcx>::#$@@+++w6322&X..  ",
"   ;j>uxfvM>fxuuyyrr&r3332X,o   ",
"   -lN>xffM2iuuurrre&r442X,,.   ",
"   #$jA2xxM7ffuurrer;w64.<,..   ",
"   $5%lS22b5siuyrere;0X.8,.:.   ",
"    @5;NFH22211:;&$$$#pqq.&.    ",
"    #55>NCHHHHNCNzlgggqq.;&.    ",
"     @68#$SSAzzkhggapq..==.     ",
"      +7rr#O@O+O@X....311.      ",
"       +rrr-fsrw0666.641.       ",
"        OOw-ssyre776.6..        ",
"          OOoooo..o...          ",
"                                ",
"                                "
};
