/* XPM */
static char *out[] = {
/* columns rows colors chars-per-pixel */
"36 49 59 1 ",
"  c None",
". c #4C2713",
"X c #4F2913",
"o c #512A13",
"O c #562F18",
"+ c #553017",
"@ c #563118",
"# c #5B341B",
"$ c #5E391F",
"% c #5E3C23",
"& c #623D23",
"* c #5F4227",
"= c #644126",
"- c #63442A",
"; c #68472C",
": c #66492D",
"> c #694A2E",
", c #664630",
"< c #674931",
"1 c #6A4E31",
"2 c #674F3A",
"3 c #6C5132",
"4 c #6F5538",
"5 c #715536",
"6 c #725837",
"7 c #725738",
"8 c #755A3A",
"9 c #795D3D",
"0 c #7C613F",
"q c #6C5742",
"w c #6D5A46",
"e c #7B5F40",
"r c #715E49",
"t c #7D6343",
"y c #72604B",
"u c #766551",
"i c #796955",
"p c #7A6A58",
"a c #816645",
"s c #836846",
"d c #846748",
"f c #856B4A",
"g c #886D4C",
"h c #8A714E",
"j c #8D7451",
"k c #8F7855",
"l c #917752",
"z c #927A56",
"x c #947E5A",
"c c #96815D",
"v c #98835F",
"b c #9A8561",
"n c #9D8862",
"m c #93836D",
"M c #958570",
"N c #968874",
"B c #9E8F7B",
"V c #9A8F80",
"C c #999081",
/* pixels */
"                                    ",
"  ##%##%&&&===-=====&&=&=&%%%#$##%  ",
"  #BMM%ggfdggffffsgfgddggfsdd-mmB%  ",
"  #B,,hjjlllzzzxxxxxxzzlzzkkhj--B$  ",
"  $,ts@#OO#35588889987751#@@O#tt<%  ",
"  $xtf@t9aaO#######O#####tte8Oddk$  ",
"  &xff@gaa0a#00ataaa000&atttf#sdk$  ",
"  %cff##gdagg&asddaaaa;gffhh##ssk&  ",
"  &cgg#5##lssg&&79ea;;hgfk##9&ddz%  ",
"  =xgg$600#zgggh&9a;hhhgz#889&ggz&  ",
"  %cgg&800a#xggll&&hghlx#9999&ggz&  ",
"  =xhl=0dggg#vhljll;ghx#fgfgg=hhx=  ",
"  &chh&aggggd#nxjjjj>x&ggdffg=lgc&  ",
"  =chh&tdggggg##xlhjj#gggfffd&lhc=  ",
"  =xhj&tgdggg;gh&xxjjg5hgfdgg&jjb=  ",
"  =xjj&6999;;lhgx$&xhgf<&aeee&jjb&  ",
"  &xll#599;ghhhv$aaOxjggg&aee$jjb&  ",
"  &xjl#58;ghhgv#aaaa#xdggd&e8$jjc%  ",
"  &zlj#&$sggvv#aaaeaa#ljdaa$&#jgb%  ",
"  &zlj#9sgsl##ddadaadd##jaaea#jjc%  ",
"  $xjlO9ssh#90ddadgdddae#jaaeOjjx#  ",
"  #-llOO#$$$&&&&&&&&&&&&$$O#OOjj;+  ",
"  #N1;gghllllllllllllxlljgjgdd&&NO  ",
"  #CVV=xxvxvvvnvnnnnxnxnxxxxxqCCCo  ",
"  @uuuo99eaaaaasaaasssasgdaaaoifio  ",
"  @rro99atattaatasaastssddaaeeoyyo  ",
"  o2o989aattattstsssstsaaddatttoqo  ",
"  oot0oooooOOO++@@@@@@+@#Oooooteoo  ",
"  o899o3155eo--111313::o011><oe90X  ",
"  o089oo5357eo;133353:X035>>oo099X  ",
"  o898X1oo487eoo1751.X0453oX:X990X  ",
"  X999X31,X488tdo17ott355X-13X988X  ",
"  X888X43::o8888foos4465X::11o868X  ",
"  o888X33:::XX888us*%5XX:::11X656X  ",
"  X888X34::::3o8884fso1<:::<1o545X  ",
"  X868X13::,XXt*%8886toX:::31X455X  ",
"  X656X33*:.tt566XX666tu.::31X454X  ",
"  X656X<1:X04544X33X8688tX-11X474X  ",
"  X656X<<X8445.X3<3<XX864t.:1.443X  ",
"  X366XXX5333X:<>3<3<*X643tXoo343X  ",
"  X333.46111X-*<1*1:1**o33100X333X  ",
"  X313X1<33X-*-1111::***X1>31X333X  ",
"  .X33..X.X.ooXXooX..o.oXXXXXX31XX  ",
"  Xu.300ttttttftgttttfttttitt03XpX  ",
"  orpX111111211111133333331131XpwX  ",
"  XwwiX1311331113333311333333XpwwX  ",
"  XXXXooXXXXXo..XXXo..XXXo.XXXXXXX  ",
"                                    ",
"                                    "
};
