/* XPM */
static char *out[] = {
/* columns rows colors chars-per-pixel */
"22 38 41 1 ",
"  c None",
". c #4F2913",
"X c #522C15",
"o c #552F18",
"O c #573119",
"+ c #5B351C",
"@ c #5E381F",
"# c #5F3A21",
"$ c #633D24",
"% c #664027",
"& c #684026",
"* c #664128",
"= c #6B452C",
"- c #6C4B2E",
"; c #70492F",
": c #6D4C30",
"> c #734D32",
", c #784F36",
"< c #6F5132",
"1 c #755136",
"2 c #795237",
"3 c #765238",
"4 c #7B543A",
"5 c #7F593D",
"6 c #815B3F",
"7 c #835D41",
"8 c #876143",
"9 c #8A6346",
"0 c #8D6649",
"q c #8E684B",
"w c #926C4D",
"e c #956F51",
"r c #967052",
"t c #997455",
"y c #99765A",
"u c #9E7A5B",
"i c #A27E5E",
"p c #9C7C60",
"a c #A37F60",
"s c #9F8063",
"d c #A38163",
/* pixels */
"                      ",
"         34333        ",
"       35saadp33      ",
"      1dp=$;3:pp3     ",
"      1d$>3444$p:     ",
"      1sp>>334pp:     ",
"      #0qpyppy44X     ",
"       $$77777O.      ",
"       *7:==$$>o      ",
"       =700073;o      ",
"       =7qw073=o      ",
"       =7q0073;o      ",
"      =7;qq074$3#     ",
"     =9003,,$$74,X    ",
"    >000rerwq076,>O   ",
"    >30eyyyee0077$#   ",
"   6ee99tttww99,=4>o  ",
"   6eett999666,077>#  ",
"  &wettddddtwww0774;O ",
"  6etiiiddddtwe9q74;+ ",
"  ;rtididdtdwtw0076;+ ",
"  ;rtiiddididtwwq76;@ ",
" $>>iiiiiiiidwww076@$O",
" $009w9iddiiutwq>;>6,O",
" $90ttt76888866,0662,o",
" $>07ttiiiirrrq906#2oo",
" $9>q6t7iti2t00&6$6+;X",
" $99ww6e6i2w;9;9$66;>O",
"  @>7wwww6ww8<9866<XX ",
"  @9,,2000008985$@@<o ",
"   +444,><<;=&&&--<X  ",
"    O:445222222---X   ",
"     o--4433,3::-.    ",
"      Xo--::::<..     ",
"        .XXXXX.       ",
"                      ",
"                      ",
"                      "
};
