/* XPM */
static char *out[] = {
/* columns rows colors chars-per-pixel */
"64 64 200 2 ",
"   c None",
".  c #000000",
"X  c #06040A",
"o  c #09060C",
"O  c #0B0B0B",
"+  c #0B0404",
"@  c #100303",
"#  c #1A0909",
"$  c #160C0E",
"%  c #0B0713",
"&  c #0B0A15",
"*  c #0F0A19",
"=  c #1A0F11",
"-  c #110B1C",
";  c #170C17",
":  c #141414",
">  c #1B1113",
",  c gray11",
"<  c #3A1C1C",
"1  c #2A1111",
"2  c #150D23",
"3  c #1A0F2D",
"4  c #170E29",
"5  c #1C122E",
"6  c #141427",
"7  c #1E1335",
"8  c #141B32",
"9  c #191B37",
"0  c #3E1128",
"q  c #201535",
"w  c #2C1433",
"e  c #231836",
"r  c #24163C",
"t  c #2A1639",
"y  c #26193C",
"u  c #2E1B3F",
"i  c #3D163A",
"p  c #341836",
"a  c #1D212B",
"s  c #182136",
"d  c #222222",
"f  c #2B2A2A",
"g  c #2A2727",
"h  c #3D282B",
"j  c #22223E",
"k  c #333333",
"l  c #3B3B3B",
"z  c #352332",
"x  c #4B0C0C",
"c  c #481818",
"v  c #671317",
"b  c #71151B",
"n  c #7E1C1C",
"m  c #721317",
"M  c #521428",
"N  c #461C3B",
"B  c #561B36",
"V  c #4E2D37",
"C  c #532E36",
"Z  c #443030",
"A  c #5A3A3E",
"S  c #553439",
"D  c #44252D",
"F  c #632727",
"G  c #7E2727",
"H  c #712424",
"J  c #693838",
"K  c #6A293A",
"L  c #1D1E42",
"P  c #261A40",
"I  c #2A1B44",
"U  c #2D1E4A",
"Y  c #341F45",
"T  c #1D2447",
"R  c #2E2145",
"E  c #31214D",
"W  c #3C254D",
"Q  c #372748",
"!  c #212B52",
"~  c #272953",
"^  c #342353",
"/  c #352954",
"(  c #392659",
")  c #3C295D",
"_  c #3A2A5A",
"`  c #2E3344",
"'  c #2C3268",
"]  c #3A3567",
"[  c #393569",
"{  c #2E3A72",
"}  c #343D74",
"|  c #353D77",
" . c #2A2F63",
".. c #411C46",
"X. c #4E294B",
"o. c #512949",
"O. c #59304C",
"+. c #4E2E52",
"@. c #402E5C",
"#. c #472F56",
"$. c #413354",
"%. c #573B54",
"&. c #603F43",
"*. c #663451",
"=. c #703E5A",
"-. c #3B437D",
";. c #35467B",
":. c #454545",
">. c #4B4B4B",
",. c #494444",
"<. c #52445F",
"1. c #535353",
"2. c #5C5C5C",
"3. c #78454B",
"4. c #6D445A",
"5. c #7E4552",
"6. c #625E5E",
"7. c #574463",
"8. c #535D77",
"9. c #464B6E",
"0. c #634964",
"q. c #774F70",
"w. c #685974",
"e. c #7A5C70",
"r. c #7F4763",
"t. c #5B667F",
"y. c #5E6C7E",
"u. c #646363",
"i. c #6D6D6D",
"p. c #727272",
"a. c #716674",
"s. c #983538",
"d. c #8E2A2D",
"f. c #A43232",
"g. c #9B3C43",
"h. c #9E4146",
"j. c #845458",
"k. c #995050",
"l. c #814651",
"z. c #A4474B",
"x. c #874D69",
"c. c #874E64",
"v. c #8C5B61",
"b. c #845A7E",
"n. c #985A73",
"m. c #A5586C",
"M. c #A15C70",
"N. c #816D7E",
"B. c #997474",
"V. c #A56E6E",
"C. c #AF6272",
"Z. c #B76577",
"A. c #A37272",
"S. c #C16A7D",
"D. c #C6707E",
"F. c #334380",
"G. c #3D4D86",
"H. c #394D89",
"J. c #364986",
"K. c #3C548F",
"L. c #40568D",
"P. c #585486",
"I. c #725A80",
"U. c #786B95",
"Y. c #75628D",
"T. c #976681",
"R. c #9C708E",
"E. c #8C7386",
"W. c #BF7581",
"Q. c #A8788D",
"!. c #C56F81",
"~. c #C77D88",
"^. c #D07F8E",
"/. c #638795",
"(. c #7D8494",
"). c #888888",
"_. c #938598",
"`. c #9C8999",
"'. c #9A9A9A",
"]. c #878895",
"[. c #AB8D99",
"{. c #BD8E9C",
"}. c #B4929F",
"|. c #9E9EAD",
" X c #A394A6",
".X c #88A1AE",
"XX c #AEAEAE",
"oX c #A5A5A5",
"OX c #BBAFBE",
"+X c #CD858E",
"@X c #C8889A",
"#X c #DA8891",
"$X c #D88896",
"%X c #CD919C",
"&X c #D8939E",
"*X c #D6848E",
"=X c #E5959F",
"-X c #C798A7",
";X c #B8B8C4",
":X c #D6CAD6",
/* pixels */
"                                                                                                                                ",
"                                                                                                                                ",
"                                                                  . . .                                                         ",
"                                                                o o X .                                                         ",
"                                                              X 5 e * .                                                         ",
"                                                            . o y ^ 2 .                                                         ",
"                                                          . . X y E 2 . . .                                                     ",
"                                                        o X X % y E 5 X X o                                                     ",
"                                                  . . o 2 3 4 4 q y q 7 5 3 * . . . . . .                                       ",
"                                                X X X % q I r 7 q q I R U P 2 o o o . . .                                       ",
"                                              X 2 5 5 q U ^ U P r 7 U ^ E U I r y e - . .                                       ",
"                                            o % q R U E ^ ( E U P r E ( E E ^ ) ^ E 2 . .                                       ",
"                                          o 2 q U ^ ^ ( ^ ^ ^ ^ E E E ^ ^ ^ ^ U e 2 *                                           ",
"                                        . X 7 U ( ) ) ) ^ E ^ ) ) ) ^ U ( ) ^ I 2 o                                             ",
"                                        . X 5 R ^ ) ) ) ) ( ) ) ) ) ( ( ( ) ( E y 5 * . .                                       ",
"                                        . X 7 U ( ) ) ) ) ) ) ) ) ) ) ) ) ) ) ) ^ y - . .                                       ",
"                                        . X 7 R ^ ) ) ) ) ) ) ) ) ) ) ) ) ) ) ) ^ y - . .                                       ",
"                                        . X 7 U ( ) ) ) ) ) ) ) ) ) ) ) ) ) ) ( ^ P - . .                                       ",
"                                        . X 5 R ^ ) ) ) ( ^ ^ ) ) ) ) ) ) ) ) ) ^ y - . .                                       ",
"                                        . o 7 U ^ ) ) ( ^ U ^ ) ) ) ) ) ) ) ) ( E P - . .                                       ",
"                                        . X 7 U E ^ ( ( ^ U ^ ) ) ) ^ ^ ( ) ^ E U P - . .                                       ",
"                                        . X 5 I I U ^ ( U U ^ ) ) ) E U ^ ( E U U r - . .                                       ",
"                                        . X 2 y I U E E I r U E ^ U I r U E U I P 7 * . .                                       ",
"                                        . X - 7 y U E Q I t Y W W W u t R ^ E I q 4 % . .                                       ",
"                                            % * 3 R 7.w.%.o.4.x.x.r.O.+.0.w._ e 2 % o                                           ",
"                                            . X 2 R a.`.i.6.M.D.!.Z.v.4.E.`.<.5 % .                                             ",
"                                            . X 2 Q _.;X(.Y.Q.#X*X^.Y.y.|.OXw.2 % .                                             ",
"                                            . X 2 $. X:X(.U.[.=X=X%X]./.;X:Xw.5 % .                                             ",
"                                            . X 2 Q N.&X}.[.%X=X=X&X{.[.}.%X0.5 % .                                             ",
"                                            . . 2 p c.Z.^.$X#X#X#X*X$X*X!.m.O.3 & .                                             ",
"                                            . X 2 w K s.h.z.z.z.z.z.z.k.g.d.N 5 & .                                             ",
"                                            X & 2 w M b m m m b b b b b b v 0 5 * o                                             ",
"                                          & 9 T 7 r ..+.B M o.+.+.+.+.o.B M w 7 9 T 6 . .                                       ",
"                                        . & ! } ~ U [ -.+.o.] F.F.F.F.| @.N t P  .{ 8 . .                                       ",
"                                        . & ! | ' [ I.R.T.T.P.G.H.H.H.F.#.Y ^  .} { 8 . .                                       ",
"                                        . & ~ -.-.P.Q.=X=X$XU.K.K.K.K.G.@...) { -.} 8 . .                                       ",
"                                        . ; %.b.T.T.W.&X=X%XU.K.K.K.K.G.@.i t r 7.q.z . .                                       ",
"                                        X > 5.S.!.W.^.^.&X@XU.K.K.K.K.G.@.i ; $ 3.C.V . .                                       ",
"                                        . > g.!.!.!.T.x.I.Y.P.K.K.K.K.G.} / 2 ; j.!.S . .                                       ",
"                                        . 2 *.C.C.m.*...[ F.H.K.K.K.K.K.J.{ 8 > v.+XA . .                                       ",
"                                          > D C C V $.] -.H.K.K.K.K.K.K.H.;.s : v.+XA . .                                       ",
"                                            . . . O ! F.G.K.L.K.L.L.L.K.G.;.s $ j.~.A . .                                       ",
"                                              . . : ` 9.8.t.t.t.t.y.P.y.8.9.a O D ,.h                                           ",
"                                                . O l u.i.p.i.i.i.i.i.i.u.1.d . + .                                             ",
"                                                . : :.u.u.2.:.k k k >.2.6.2.g . .                                               ",
"                                                X : :.i.u.>.d . . O f :.u.u.k .                                                 ",
"                                              : k :.1.2.l g : . . O k 1.u.u.f .                                                 ",
"                                            . : >.p.u.>.d .     . : k 6.u.u.f .                                                 ",
"                                            . : >.p.6.>.d . . X , f 1.6.:.k ,                                                   ",
"                                            + = ,.i.6.>.d . . O g A 6.6.f .                                                     ",
"                                          # c F J J Z g : . . @ < F 3.3.h .                                                     ",
"                                        . = H f.d.v 1 .     . @ x d.d.s.c +                                                     ",
"                                        . : 3.A.l.J d .     . @ x n k.A.e.2.k                                                   ",
"                                        . , p.oX).6.f .     . @ x n B.XXXX'.:..                                                 ",
"                                        . , p.oX).u.f .     . @ x G B.XXXX'.:..                                                 ",
"                                                                                                                                ",
"                                                                                                                                ",
"                                                                                                                                ",
"                                                                                                                                ",
"                                                                                                                                ",
"                                                                                                                                ",
"                                                                                                                                ",
"                                                                                                                                ",
"                                                                                                                                "
};
