/* XPM */
static char *out[] = {
/* columns rows colors chars-per-pixel */
"64 64 197 2 ",
"   c None",
".  c #000000",
"X  c #06040A",
"o  c #09060D",
"O  c #0D0D0D",
"+  c #090101",
"@  c #110A0B",
"#  c #110404",
"$  c #0B0714",
"%  c #0D0915",
"&  c #0E0918",
"*  c #110B1C",
"=  c #1C0F12",
"-  c #121212",
";  c #1F1114",
":  c #181818",
">  c #2C0808",
",  c #281719",
"<  c #3A1919",
"1  c #0C0E20",
"2  c #150D23",
"3  c #170E29",
"4  c #1A0F2D",
"5  c #1B1127",
"6  c #1C132E",
"7  c #1E1234",
"8  c #1C1A30",
"9  c #211635",
"0  c #2D1533",
"q  c #23163B",
"w  c #291739",
"e  c #26193D",
"r  c #2E1B3F",
"t  c #331D3E",
"y  c #3D132A",
"u  c #242424",
"i  c #2B2A2A",
"p  c #3D2929",
"a  c #3B2027",
"s  c #333333",
"d  c #3C3737",
"f  c #3A3A3A",
"g  c #4C0F0F",
"h  c #471010",
"j  c #67161A",
"k  c #71151A",
"l  c #771818",
"z  c #761619",
"x  c #55162A",
"c  c #4B1F37",
"v  c #561B36",
"b  c #46292B",
"n  c #4E2D37",
"m  c #532E39",
"M  c #553238",
"N  c #57393C",
"B  c #593A3E",
"V  c #5B2323",
"C  c #673838",
"Z  c #6B293A",
"A  c #1C1F49",
"S  c #271940",
"D  c #2A1C44",
"F  c #2E1E4A",
"G  c #2F2147",
"H  c #322245",
"J  c #31214E",
"K  c #3C254D",
"L  c #3A2748",
"P  c #2F3345",
"I  c #3D304E",
"U  c #242852",
"Y  c #342353",
"T  c #3D2554",
"R  c #39265A",
"E  c #3C295D",
"W  c #372850",
"Q  c #3A2D61",
"!  c #2B3060",
"~  c #383165",
"^  c #393469",
"/  c #36366A",
"(  c #2F3B76",
")  c #343B74",
"_  c #3D3C72",
"`  c #333D79",
"'  c #272E64",
"]  c #411C45",
"[  c #401E49",
"{  c #4B2C4C",
"}  c #41214B",
"|  c #502A4D",
" . c #522646",
".. c #5C3747",
"X. c #402D5B",
"o. c #4A2E52",
"O. c #463158",
"+. c #573B56",
"@. c #653C43",
"#. c #653351",
"$. c #713E5A",
"%. c #4C3867",
"&. c #6A3F65",
"*. c #34437E",
"=. c #3A447D",
"-. c #4A4A4A",
";. c #464646",
":. c #51445E",
">. c #5D5C5C",
",. c #575455",
"<. c #604B4D",
"1. c #754848",
"2. c #7C474B",
"3. c #7E4552",
"4. c #73445A",
"5. c #6A465D",
"6. c #4B526D",
"7. c #494377",
"8. c #4F5772",
"9. c #585A74",
"0. c #554665",
"q. c #634964",
"w. c #794663",
"e. c #655A68",
"r. c #644E7C",
"t. c #7C4F70",
"y. c #6C5B75",
"u. c #675873",
"i. c #7A5B70",
"p. c #5B667F",
"a. c #5E6C7F",
"s. c #646363",
"d. c #6C6C6C",
"f. c #6C6666",
"g. c #747474",
"h. c #6B667A",
"j. c #86313C",
"k. c #963438",
"l. c #992C2C",
"z. c #9A3C43",
"x. c #9E4146",
"c. c #844759",
"v. c #844545",
"b. c #A4474B",
"n. c #874C68",
"m. c #864E63",
"M. c #8E516F",
"N. c #8F5372",
"B. c #A5596B",
"V. c #A15C70",
"C. c #976466",
"Z. c #816D7E",
"A. c #9A627F",
"S. c #AE6174",
"D. c #AB647D",
"F. c #B76576",
"G. c #A7787E",
"H. c #C26B7E",
"J. c #C6707E",
"K. c #334481",
"L. c #3B4C84",
"P. c #394E89",
"I. c #364986",
"U. c #3C548E",
"Y. c #4A4D81",
"T. c #40568D",
"R. c #946C81",
"E. c #8C7486",
"W. c #A77989",
"Q. c #BE7480",
"!. c #A27692",
"~. c #C56F81",
"^. c #C77A87",
"/. c #648796",
"(. c #7C8394",
"). c #968798",
"_. c #929292",
"`. c #878795",
"'. c #AC8D99",
"]. c #BD8E9C",
"[. c #B4929F",
"{. c #9F9EAD",
"}. c #A495A7",
"|. c #87A0AE",
" X c #BAAEBD",
".X c #CB848D",
"XX c #D78492",
"oX c #DA8891",
"OX c #DE8F99",
"+X c #D78994",
"@X c #CD929C",
"#X c #D7939E",
"$X c #D6838D",
"%X c #E5959F",
"&X c #C898A7",
"*X c #B8B7C4",
"=X c #D5C9D5",
/* pixels */
"                                                                                                                                ",
"                                                                                                                                ",
"                                                              . . .                                                             ",
"                                                            o o X .                                                             ",
"                                                          o 8 9 & .                                                             ",
"                                                        . o e Y 2 .                                                             ",
"                                                      . . o e J 2 . . .                                                         ",
"                                                    o X X $ e J 5 o o o                                                         ",
"                                              . . X 3 4 3 3 q S 9 6 6 6 % . . . . . .                                           ",
"                                            X o X $ 7 F S 7 7 7 S J F S 5 o o o X . .                                           ",
"                                          X 2 6 6 9 F Y D S 7 7 D Y J D e e e 9 & . .                                           ",
"                                        o % 9 F F J Y R J F S S J R Y J R R R H 2 . .                                           ",
"                                      o 3 7 F Y Y Y Y Y Y Y Y Y Y Y Y Y Y F 7 2 &                                               ",
"                                    . o 7 J Y E X.E J J R E E R Y F R R Y S 2 X                                                 ",
"                                    . o 4 J R E E E R Y E E E R R R R E R Y q 6 & . .                                           ",
"                                    . o 4 F Y E E X.Q Q E E E E E E E E E E J S * . .                                           ",
"                                    . o 6 F R E E Q E E E E X.E E E E E E R Y S * . .                                           ",
"                                    . o 6 F R E E E E E E E Q E E E Q E E R J S * . .                                           ",
"                                    . X 6 F R R E R R Y R E X.E Q E E E E E J S * . .                                           ",
"                                    . o 6 F R R E R J F Y Q Q E E E E E E R Y S * . .                                           ",
"                                    . o 6 F J Y R R Y F R E E R Y J R E Y Y F S * . .                                           ",
"                                    . X 6 D D F Y R F F Y E R R J F J R J F D S * . .                                           ",
"                                    . X 3 e D F J J S e F J Y J S e F J F D e 7 & . .                                           ",
"                                    . X 2 7 e F J K D w H K K K D w F T J S q 6 $ . .                                           ",
"                                    . X 2 7 7 D 0.u.+.| $.n.n.w.#.{ q.u.I q 7 6 % . .                                           ",
"                                    . X 2 4 7 H h.'.i.4.V.~.~.F.m.5.E.).:.7 7 3 % . .                                           ",
"                                        $ $ 3 L ). X(.p.W.XXXX.XZ.a.{. Xu.4 & $ o                                               ",
"                                        . X 2 I }.=X|./.'.%X%X#X`./.*X=Xu.7 $ .                                                 ",
"                                        . X 2 L A.&X[.'.@X%X%X#X].'.&X].q.4 % .                                                 ",
"                                        . X * t c.H.^.oXoXoX+X+XoX$X~.B.| 6 $ .                                                 ",
"                                        . X * 0 Z k.x.b.b.b.b.b.b.x.z.j.c 4 $ .                                                 ",
"                                        . X 2 0 x k l k l l k k k k k j y 4 $ .                                                 ",
"                                        . + 2 9 L | v x  .o.o.| v x  .o.r 3 $ .                                                 ",
"                                        . X 5 F ~ ` T ] ^ K.*.` T [ ~ ( U 7 $ .                                                 ",
"                                        . = m w.7.) T [ %.I.P.=.X.] Q ` ' A 1 .                                                 ",
"                                        @ , c.D.r.) T } _ U.U.L.X.] ~ ` ( ! 8 @                                                 ",
"                                      ; m z.V.D.r.) T ] _ U.U.L.X.] ^ P.r.t.4.@.a . .                                           ",
"                                    . ; c.H.F.R.r.) X.} 7.U.U.L.X.[ ~ %.N.Q.~.S.n . .                                           ",
"                                    . ; v.H.H.S.q.E R ^ =.U.U.P._ Q Q O.M.~.^.~.N . .                                           ",
"                                    . , $.F.F.B.#.[ ^ K.P.U.U.U.I.` }  .M.~.XX.XB . .                                           ",
"                                      = b m m n I / *.P.U.U.U.U.P.I._ %.A.XXOX.XB . .                                           ",
"                                        . . . % U *.L.T.T.U.T.T.T.T.K.Y.!.%XOXQ.N . .                                           ",
"                                          . . % P 6.9.p.a.a.p.p.p.p.8.9.W.+XC.<.p                                               ",
"                                            . O f >.d.g.d.d.d.d.d.d.e.e.G.^.M .                                                 ",
"                                            . O s >.d.d.-.s s f ,.s.>.>.<.B p                                                   ",
"                                            . O f >.d.s.i . + O n ,.,.-.u .                                                     ",
"                                            . O f >.f.s.i + > h V C p u :                                                       ",
"                                            . O d >.f.s.i # g l l j > .                                                         ",
"                                            . @ b V v.2.< O b 1.1.<., .                                                         ",
"                                            . # g l.l.l.< O -.g.g.f.i .                                                         ",
"                                            . @ b 2.C.C.p X s                                                                   ",
"                                            . - -.g._._.;..                                                                     ",
"                                              - i f -.-.i                                                                       ",
"                                                . . . .                                                                         ",
"                                                . . . .                                                                         ",
"                                                                                                                                ",
"                                                                                                                                ",
"                                                                                                                                ",
"                                                                                                                                ",
"                                                                                                                                ",
"                                                                                                                                ",
"                                                                                                                                ",
"                                                                                                                                ",
"                                                                                                                                "
};
