/* XPM */
static char *out[] = {
/* columns rows colors chars-per-pixel */
"64 64 191 2 ",
"   c None",
".  c #000000",
"X  c #06040A",
"o  c #09060D",
"O  c #0C0C0C",
"+  c #0A080B",
"@  c #110707",
"#  c #0B0713",
"$  c #0E0916",
"%  c #0C0A18",
"&  c #070811",
"*  c #110B1D",
"=  c #170C14",
"-  c #1F1215",
";  c #1B1B1B",
":  c #161616",
">  c #2C101D",
",  c #231517",
"<  c #371E1E",
"1  c #150D23",
"2  c #170E29",
"3  c #1A0F2D",
"4  c #1C132E",
"5  c #191127",
"6  c #0F1530",
"7  c #1E1234",
"8  c #151933",
"9  c #301B24",
"0  c #211535",
"q  c #23163B",
"w  c #26193D",
"e  c #2A1839",
"r  c #351D3B",
"t  c #2C2C2C",
"y  c #212227",
"u  c #3C2328",
"i  c #3A3A3A",
"p  c #373535",
"a  c #4B0E0E",
"s  c #411515",
"d  c #68161F",
"f  c #72151A",
"g  c #761618",
"h  c #56162A",
"j  c #4B1F37",
"k  c #551D39",
"l  c #571730",
"z  c #46182E",
"x  c #452829",
"c  c #4C2B32",
"v  c #58273A",
"b  c #55353A",
"n  c #6D3039",
"m  c #161F44",
"M  c #271A40",
"N  c #2A1B45",
"B  c #2E1E4A",
"V  c #341F45",
"C  c #1B2248",
"Z  c #1D295B",
"A  c #2F2147",
"S  c #322346",
"D  c #31214E",
"F  c #3B244D",
"G  c #392948",
"H  c #3D304E",
"J  c #342353",
"K  c #3D2553",
"L  c #39265A",
"P  c #3C295D",
"I  c #3E2A52",
"U  c #272553",
"Y  c #3A2D61",
"T  c #2E356C",
"R  c #28366E",
"E  c #383065",
"W  c #3B366A",
"Q  c #2C3B78",
"!  c #343B75",
"~  c #3D3C71",
"^  c #333D78",
"/  c #421C45",
"(  c #48274A",
")  c #502A4C",
"_  c #542544",
"`  c #593748",
"'  c #4F2D52",
"]  c #402D5B",
"[  c #452C59",
"{  c #403253",
"}  c #563555",
"|  c #6A3C46",
" . c #683A54",
".. c #703E5A",
"X. c #3C447C",
"o. c #434343",
"O. c #484848",
"+. c #51435E",
"@. c #555555",
"#. c #5C5B5B",
"$. c #6C494E",
"%. c #7C4C4C",
"&. c #7D4551",
"*. c #764656",
"=. c #6A465C",
"-. c #4C526A",
";. c #43467F",
":. c #4A477D",
">. c #58466C",
",. c #624863",
"<. c #7D4665",
"1. c #61556F",
"2. c #7A5B6F",
"3. c #724F76",
"4. c #6B5C75",
"5. c #665773",
"6. c #7D5175",
"7. c #5B647E",
"8. c #5E6C7E",
"9. c #656565",
"0. c gray42",
"q. c #6B6666",
"w. c #616577",
"e. c #73697D",
"r. c #717171",
"t. c gray48",
"y. c #87323D",
"u. c #973030",
"i. c #982B2B",
"p. c #9A3B42",
"a. c #824646",
"s. c #9F4147",
"d. c #894B5D",
"f. c #A4484C",
"g. c #A2464A",
"h. c #864C68",
"j. c #874E63",
"k. c #965967",
"l. c #8B5B7E",
"z. c #A75E70",
"x. c #A7586B",
"c. c #986565",
"v. c #816D7E",
"b. c #8E7179",
"n. c #856266",
"m. c #AE6171",
"M. c #BC697A",
"N. c #B86577",
"B. c #B3717B",
"V. c #C26B7E",
"C. c #C6717F",
"Z. c #334481",
"A. c #3B4B84",
"S. c #394E89",
"D. c #364986",
"F. c #3D548E",
"G. c #464981",
"H. c #6D5481",
"J. c #72608B",
"K. c #766991",
"L. c #986C88",
"P. c #8B6D88",
"I. c #AF6780",
"U. c #BE7982",
"Y. c #AE7791",
"T. c #A57786",
"R. c #C46E80",
"E. c #CB7C8A",
"W. c #638796",
"Q. c #7C8394",
"!. c #958698",
"~. c #999999",
"^. c #868795",
"/. c #AB8D99",
"(. c #BC8E9C",
"). c #B4929F",
"_. c #9F9EAD",
"`. c #A495A8",
"'. c #87A1AE",
"]. c #BAAEBC",
"[. c #D7848E",
"{. c #CA8798",
"}. c #D68491",
"|. c #DA8A93",
" X c #DB8E99",
".X c #CD919C",
"XX c #D7939E",
"oX c #E5959F",
"OX c #C799A7",
"+X c #B8B8C4",
"@X c #D5CAD6",
/* pixels */
"                                                                                                                                ",
"                                                                                                                                ",
"                                                                                                                                ",
"                                                                                                                                ",
"                                                              . . .                                                             ",
"                                                            & + X .                                                             ",
"                                                          o 4 0 $ .                                                             ",
"                                                        . o e J 1 .                                                             ",
"                                                      . . # M J 1 . . .       . . . .                                           ",
"                                                    X X X # q D 5 X X X     + o X . .                                           ",
"                                              . . X 1 3 1 1 7 N 0 5 4 4 $ O 4 w % . .                                           ",
"                                            X X X $ 7 B M 7 7 7 N D D M 1 $ 0 S 1 . .                                           ",
"                                          X 1 4 4 0 N J B M 7 7 B J B B N 0 4 * $                                               ",
"                                        X $ 0 B B D L L D B M M D L J D J J 1 .                                                 ",
"                                      X 1 0 B J J J J D J L J J D J J J J B * .                                                 ",
"                                    . X 4 D L P P L J D L P P P J B J P J M 1 X                                                 ",
"                                    . X 7 D J P P L L L L P P P L L L P L J w 5 $ . .                                           ",
"                                    . o 4 D J P P P P P P P P P P P P Y P L J M * . .                                           ",
"                                    . X 4 B J Y ] L L Y P P P P P P P P P L J w * . .                                           ",
"                                    . X 0 B L P Y Y ] L P P P P P P P P P P J M * . .                                           ",
"                                    . o 4 D L P Y L J J L P P P Y P P P P L J M * . .                                           ",
"                                    . X 4 B J L P L J B J P Y P P P P P P L D w * . .                                           ",
"                                    . o 7 B D J P L J B L P P P J J L L J D B M * . .                                           ",
"                                    . X 4 N N B J L B N J P P L B B J L J B N w * . .                                           ",
"                                    . X 2 q N B B D N q B J D B N q A D A N M 7 $ . .                                           ",
"                                    . X 1 0 M N J D e e S F F F N e D G A N m 3 # . .                                           ",
"                                    . X 1 7 q N >.4.} ) ..h.h.*. .( ,.5.[ 7 7 3 # . .                                           ",
"                                    . X * 3 7 S e.!.2.*.m.R.R.N.j...P.!.+.7 7 2 $ . .                                           ",
"                                        # % 2 G !.+XP.8.T.[.[.{.e.7._.].1.4 1 # o                                               ",
"                                        . X * H `.@X'.W./.oXoXXX^.W.+X@X4.3 # .                                                 ",
"                                        . X * G L.OX)./..XoXoX X(./.OX(.,.3 # .                                                 ",
"                                        . X 1 r d.M.E.|.|.|.|.|.|.[.R.x.` 3 # .                                                 ",
"                                        . X 1 e n p.p.g.f.f.f.f.f.f.p.y.c 3 # .                                                 ",
"                                        . X 1 q h f g g f f f f g g f d z 0 = .                                                 ",
"                                        . X 8 U K ) k l _ ' ' ) k h _ ' .. .9 .                                                 ",
"                                        X % m R Q ! [ V E Z.Z.^ L / E ;.l.m.v O                                                 ",
"                                      & 6 m Z R Q ! K V ~ S.S.X.I / E ;.l.N.d.| u . .                                           ",
"                                    . & C T T T ^ ! [ / ~ F.F.A.] / E ;.l.C.C.m.c . .                                           ",
"                                    . = ` h.6.3.:.! K / ~ F.F.A.] / E G.L.[.}.M.b . .                                           ",
"                                    . - ..R.R.I.H.~ [ / ~ F.F.S.P / E ;.L. X[.{.b . .                                           ",
"                                    . - &.V.E.}.Y.P.>.W Z.F.F.F.~ Y P [ h.k...n u                                               ",
"                                    . - &.M.}.oXoX{.J.Z.S.F.F.F.D.^ [ / _ v > .                                                 ",
"                                      - x | B.oXoX.XK.S.F.F.F.F.S.A.~ L r > -                                                   ",
"                                        . , n.|.XX{.K.F.G.F.F.F.F.F.A.T 8 .                                                     ",
"                                          , b $.2.b.r.8.7.8.H.7.7.7.7.-.y .                                                     ",
"                                            . $ i #.9.r.0.r.r.0.r.r.r.9.t .                                                     ",
"                                              O y t O.@.@.@.o.i @.9.0.9.t .                                                     ",
"                                                . O y o.i p : O i #.0.9.t .                                                     ",
"                                                  O ; ; ; ; O O i #.0.9.t .                                                     ",
"                                                    . . . . . O i #.9.9.t .                                                     ",
"                                                          . . O i #.0.9.t .                                                     ",
"                                                            . O p #.q.9.t .                                                     ",
"                                                            . @ < n a.a.u .                                                     ",
"                                                            . @ a i.i.i.s .                                                     ",
"                                                            . O x %.c.c.x .                                                     ",
"                                                            . O O.t.~.~.o..                                                     ",
"                                                            . O O.t.~.~.o..                                                     ",
"                                                                                                                                ",
"                                                                                                                                ",
"                                                                                                                                ",
"                                                                                                                                ",
"                                                                                                                                ",
"                                                                                                                                ",
"                                                                                                                                "
};
