/* XPM */
static char *out[] = {
/* columns rows colors chars-per-pixel */
"64 64 194 2 ",
"   c None",
".  c #000000",
"X  c #06040A",
"o  c #09060D",
"O  c #0C0C0C",
"+  c #110A0A",
"@  c #150404",
"#  c #0B0714",
"$  c #0C0915",
"%  c #0E0919",
"&  c #1C0F12",
"*  c #120B1D",
"=  c #121212",
"-  c #1F1114",
";  c #1C1C1C",
":  c #17121D",
">  c #25191A",
",  c #320909",
"<  c #0C0E20",
"1  c #140D23",
"2  c #170E29",
"3  c #1A0F2D",
"4  c #1C132E",
"5  c #191127",
"6  c #1E1234",
"7  c #1C1C37",
"8  c #3D132A",
"9  c #211635",
"0  c #2D1533",
"q  c #23163B",
"w  c #291739",
"e  c #25183C",
"r  c #2E1B3F",
"t  c #331D3E",
"y  c #212121",
"u  c #2C2C2C",
"i  c #382629",
"p  c #353535",
"a  c #3A3A3A",
"s  c #4D0F0F",
"d  c #501919",
"f  c #67151A",
"g  c #71151A",
"h  c #771818",
"j  c #721317",
"k  c #55162A",
"l  c #4B1F37",
"z  c #551D39",
"x  c #571730",
"c  c #482A2E",
"v  c #522F2F",
"b  c #4E2D37",
"n  c #532E36",
"m  c #553238",
"M  c #593A3E",
"N  c #57393C",
"B  c #642D2D",
"V  c #653E3E",
"C  c #6B293A",
"Z  c #1C1F49",
"A  c #261A40",
"S  c #2A1C44",
"D  c #2E1E4A",
"F  c #2F2145",
"G  c #322245",
"H  c #3B2546",
"J  c #31214E",
"K  c #3C254D",
"L  c #382C4B",
"P  c #2F3345",
"I  c #3D304E",
"U  c #242852",
"Y  c #342354",
"T  c #3D2554",
"R  c #39265A",
"E  c #3C295D",
"W  c #372850",
"Q  c #2E3057",
"!  c #3A2D61",
"~  c #2B3164",
"^  c #383165",
"/  c #393469",
"(  c #3C386C",
")  c #2F3B75",
"_  c #343B74",
"`  c #3D3E73",
"'  c #303D7A",
"]  c #272E64",
"[  c #411C45",
"{  c #401E49",
"}  c #4B2C4C",
"|  c #41214B",
" . c #502A4D",
".. c #542846",
"X. c #59304B",
"o. c #422D55",
"O. c #402D5B",
"+. c #4E2E52",
"@. c #48335A",
"#. c #573B56",
"$. c #653C43",
"%. c #653351",
"&. c #713E5A",
"*. c #6A3F65",
"=. c #35427E",
"-. c #3A447E",
";. c #4C4B4B",
":. c gray27",
">. c #51445E",
",. c #535353",
"<. c #5B5B5B",
"1. c #585555",
"2. c #644145",
"3. c #754747",
"4. c #7A434F",
"5. c #7F4652",
"6. c #73445A",
"7. c #734251",
"8. c #6A4D5A",
"9. c #4B526D",
"0. c #5C5266",
"q. c #4A467D",
"w. c #565C76",
"e. c #554665",
"r. c #634964",
"t. c #7F4B67",
"y. c #685569",
"u. c #634C7A",
"i. c #7C4F70",
"p. c #6C5B75",
"a. c #675873",
"s. c #795877",
"d. c #5C667F",
"f. c #5E6C7F",
"g. c #646464",
"h. c #6C6C6C",
"j. c #716D6D",
"k. c #646979",
"l. c #737373",
"z. c #7F7677",
"x. c #75677D",
"c. c #86313C",
"v. c #97383F",
"b. c #9A3C43",
"n. c #9E4146",
"m. c #83455C",
"M. c #A4474B",
"N. c #874C68",
"B. c #864E63",
"V. c #8D5B7D",
"C. c #A5586C",
"Z. c #A15C70",
"A. c #816D7E",
"S. c #9B607B",
"D. c #AE6174",
"F. c #AA657C",
"G. c #B76576",
"H. c #C16A7D",
"J. c #C6707E",
"K. c #334481",
"L. c #3C4C85",
"P. c #394D89",
"I. c #3C548F",
"U. c #40568D",
"Y. c #4A5A86",
"T. c #946C81",
"R. c #8C7486",
"E. c #B87783",
"W. c #A57786",
"Q. c #C56E81",
"!. c #C77D88",
"~. c #648796",
"^. c #7C8394",
"/. c #968798",
"(. c #878795",
"). c #B08288",
"_. c #AC8D99",
"`. c #BD8E9C",
"'. c #B4929F",
"]. c #9F9EAD",
"[. c #A495A7",
"{. c #87A0AE",
"}. c #BAAEBD",
"|. c #CB848D",
" X c #D6838D",
".X c #D78492",
"XX c #DA8891",
"oX c #D68B94",
"OX c #CD929C",
"+X c #D7939E",
"@X c #E5959F",
"#X c #C898A7",
"$X c #B8B7C4",
"%X c #D5C9D5",
/* pixels */
"                                                                                                                                ",
"                                                                                                                                ",
"                                                                                                                                ",
"                                                                                                                                ",
"                                                              . . .                                                             ",
"                                                            o o . .                                                             ",
"                                                      . . o 4 9 * . . .                                                         ",
"                                                    o X X # e J 5 X o o                                                         ",
"                                              . . o 1 3 2 2 6 A 9 4 4 4 % .                                                     ",
"                                            X o o # 6 D q q 6 6 S D D A 1 o                                                     ",
"                                          o 1 4 3 9 S Y S A 6 q D Y J S S w * . . . .                                           ",
"                                        o # 9 D J J Y R Y D A A J R Y J Y Y 4 o X . .                                           ",
"                                      o 2 9 D Y Y Y Y J Y Y Y J J Y Y Y Y J D 9 $ . .                                           ",
"                                    . o 4 D Y ! E E Y J R E E R Y D R R J J Y J 5 . .                                           ",
"                                    . X 4 D R E E E R R E E E E Y R R E R Y J D * . .                                           ",
"                                    . X 9 D Y E E E E E E E E E ! E E E ! E J S * . .                                           ",
"                                    . X 6 J Y E E ! E E E ! E E E E E E E R J A * . .                                           ",
"                                    . o 4 J Y E E E E R E E O.E E E E E ! E Y A * . .                                           ",
"                                    . X 4 D Y ! E E Y Y R ! O.E E E E E E R J A * . .                                           ",
"                                    . X 4 J Y E E R J D Y E ! E O.! E E E R J A * . .                                           ",
"                                    . X 4 D J Y R E J J Y E E R Y Y Y ! Y J D A * . .                                           ",
"                                    . X 4 S D D Y Y J D Y E R R J D Y R J D D A % . .                                           ",
"                                    . X 2 q S D J J S q D Y Y J S q D J D S A 9 $ . .                                           ",
"                                    . X 1 9 e S J K S w G K K K S w G Y J S 9 3 # . .                                           ",
"                                    . X 1 6 9 F e.p.#...&.N.N.t.%...y.p.o.e 6 5 # . .                                           ",
"                                    . X * 3 3 J x./.s.6.Z.Q.Q.G.B.6.R./.>.4 6 2 # . .                                           ",
"                                        # % 1 L /.}.^.k.W..X.X|.x.Y.].}.y.6 * # o                                               ",
"                                        . X 1 I [.%X{.~._.@X@X+X(.~.$X%Xp.3 # .                                                 ",
"                                        . X 1 H S.#X'._.OX@X@X+X`._.'.`.r.3 # .                                                 ",
"                                        . X * t B.G.!.XXXXXXXXXX.X XQ.C.X.3 # .                                                 ",
"                                        . X * 0 C v.n.M.M.M.M.M.M.M.b.b.l 3 # .                                                 ",
"                                        . X 1 0 k h j j h g g g g j g f 8 3 # .                                                 ",
"                                        . X 1 q H  .z x ..+.+. .z x ..| S 3 # .                                                 ",
"                                        . X 1 A ~ _ T [ ^ K.=._ T H ^ ' U 6 # .                                                 ",
"                                        . o A ^ _ _ T [ ( P.P.=.o.[ ! ' ] Z < .                                                 ",
"                                        O 1 | Y.K._ T [ ` I.I.L.O.[ ! ' _ Q 7 +                                                 ",
"                                      - v 3.B.Y.q._ o.[ >.I.I.P.O.[ ^ K.u.i.6.$.8 . .                                           ",
"                                    . - m.H.H.Z.u._ o.{ -.I.I.P.O.{ ! q.V.Q.Q.D.v . .                                           ",
"                                    . - m.H.Q.Z.*.E ! ^ -.I.I.L.` ! E @.S..X.XG.N . .                                           ",
"                                    . > &.G.G.C.%.{ / K.I.I.I.I.P.` o.X.F.@X@XoXM . .                                           ",
"                                      & c n n b I / =.L.I.I.I.I.Y.w.0.y.E.@X@X|.M . .                                           ",
"                                        . . . $ U P.L.I.I.I.I.Y.k.l.l.A.).oXoX).M . .                                           ",
"                                          . . $ P 9.w.d.f.f.d.d.l.l.l.j.8.2.2.2.i                                               ",
"                                            . = a <.g.l.j.h.h.h.j.j.l.g.u . . .                                                 ",
"                                            . O b <.g.<.:.p p a ,.g.h.g.u . .                                                   ",
"                                            . O p <.<.;.; . . O a <.h.g.u .                                                     ",
"                                            . = a <.<.;.y . . O a <.h.g.u .                                                     ",
"                                            . O p 1.1.;.y . . O p <.g.g.u .                                                     ",
"                                              O y u v B d , @ + p ,.1.;.y .                                                     ",
"                                                . @ s h h f , X y a a p ; .                                                     ",
"                                                . + v 3.3.V > X = ; ; ; =                                                       ",
"                                                . = ;.l.l.g.u . . . . .                                                         ",
"                                                . = ;.l.l.g.u . . . . .                                                         ",
"                                                                                                                                ",
"                                                                                                                                ",
"                                                                                                                                ",
"                                                                                                                                ",
"                                                                                                                                ",
"                                                                                                                                ",
"                                                                                                                                ",
"                                                                                                                                ",
"                                                                                                                                ",
"                                                                                                                                ",
"                                                                                                                                "
};
