/* XPM */
static char *out[] = {
/* columns rows colors chars-per-pixel */
"64 64 190 2 ",
"   c None",
".  c #000000",
"X  c #06040A",
"o  c #09060D",
"O  c #0C0C0C",
"+  c #090101",
"@  c #110A0B",
"#  c #100303",
"$  c #0B0714",
"%  c #0E0916",
"&  c #0E0919",
"*  c #120B1D",
"=  c #170D15",
"-  c gray7",
";  c #1B1B1B",
":  c #15101A",
">  c #2B0808",
",  c #221416",
"<  c #2A1B1C",
"1  c #140D23",
"2  c #170E29",
"3  c #1A0F2D",
"4  c #1C132E",
"5  c #18182A",
"6  c #1E1234",
"7  c #151736",
"8  c #321C22",
"9  c #3D132A",
"0  c #211635",
"q  c #2D1533",
"w  c #23163B",
"e  c #291739",
"r  c #25183C",
"t  c #2E1B3F",
"y  c #331D3E",
"u  c #232323",
"i  c #2A2A2A",
"p  c #3B2027",
"a  c #333333",
"s  c #3A3A3A",
"d  c #3B3636",
"f  c #4B0F0F",
"g  c #471010",
"h  c #67161A",
"j  c #721317",
"k  c #71151A",
"l  c #771818",
"z  c #55162A",
"x  c #4B1F37",
"c  c #551D39",
"v  c #571730",
"b  c #4A2B2E",
"n  c #412C2C",
"m  c #4A2B31",
"M  c #532E36",
"N  c #573038",
"B  c #5B2424",
"V  c #643838",
"C  c #6B293A",
"Z  c #261A40",
"A  c #2A1C44",
"S  c #2E1E4A",
"D  c #2A2448",
"F  c #322245",
"G  c #3B2546",
"H  c #31214E",
"J  c #3C254D",
"K  c #382C4B",
"L  c #3D304E",
"P  c #292857",
"I  c #342354",
"U  c #3D2554",
"Y  c #39265A",
"T  c #3C295D",
"R  c #372850",
"E  c #3A2D61",
"W  c #2D366B",
"Q  c #383165",
"!  c #393469",
"~  c #3C386C",
"^  c #2C3770",
"/  c #343B75",
"(  c #3D3C72",
")  c #333D78",
"_  c #411C45",
"`  c #401E49",
"'  c #4B2C4C",
"]  c #452849",
"[  c #512344",
"{  c #502A4D",
"}  c #522B47",
"|  c #59304B",
" . c #4E2E52",
".. c #402D5B",
"X. c #463158",
"o. c #573B56",
"O. c #673952",
"+. c #713E5A",
"@. c #693A44",
"#. c #3F455D",
"$. c #3A437D",
"%. c #36457F",
"&. c #4C4C4C",
"*. c #5F434B",
"=. c #52475E",
"-. c #545353",
";. c #5B5B5B",
":. c #5A5555",
">. c #754747",
",. c #72414F",
"<. c #704259",
"1. c #7C5257",
"2. c #6A465D",
"3. c #4B526D",
"4. c #44457D",
"5. c #4D477B",
"6. c #4F5772",
"7. c #55526E",
"8. c #624766",
"9. c #7D4662",
"0. c #764A69",
"q. c #61556F",
"w. c #664E7C",
"e. c #734F77",
"r. c #6C5B75",
"t. c #675873",
"y. c #785774",
"u. c #5B667F",
"i. c #5E6C7F",
"p. c #636363",
"a. c #6C6C6C",
"s. c #616577",
"d. c #737373",
"f. c #75677D",
"g. c #86313C",
"h. c #97383F",
"j. c #9A3C43",
"k. c #9E4146",
"l. c #86495A",
"z. c #8D565F",
"x. c #A4474B",
"c. c #874C68",
"v. c #874A62",
"b. c #8E516F",
"n. c #8B5A7D",
"m. c #A4596A",
"M. c #AB5E6F",
"N. c #A75E70",
"B. c #816D7E",
"V. c #9C656C",
"C. c #AE667F",
"Z. c #BC6677",
"A. c #B56476",
"S. c #C16A7D",
"D. c #C6707E",
"F. c #334481",
"G. c #3B4C84",
"H. c #394E89",
"J. c #364986",
"K. c #3C548E",
"L. c #40568D",
"P. c #6D5C85",
"I. c #946C81",
"U. c #8C7486",
"Y. c #BD7A85",
"T. c #A57786",
"R. c #C56E81",
"E. c #CA7D8A",
"W. c #648796",
"Q. c #7C8394",
"!. c #968798",
"~. c #878795",
"^. c #AC8D99",
"/. c #BD8998",
"(. c #B4929F",
"). c #9F9EAD",
"_. c #A495A7",
"`. c #87A0AE",
"'. c #BAAEBD",
"]. c #D6838D",
"[. c #CC8494",
"{. c #D78492",
"}. c #DA8891",
"|. c #DB8E99",
" X c #CD929C",
".X c #D7939E",
"XX c #E5959F",
"oX c #C898A7",
"OX c #B8B7C4",
"+X c #D5C9D5",
/* pixels */
"                                                                                                                                ",
"                                                                                                                                ",
"                                                                                                                                ",
"                                                                                                                                ",
"                                                              . . .                                                             ",
"                                                            o o . .                                                             ",
"                                                      . . o 4 0 * . . .                                                         ",
"                                                    o X X $ r H 2 X o o                                                         ",
"                                              . . o 2 3 2 2 6 Z 0 4 4 4 % .                                                     ",
"                                            X X X $ 6 S Z 6 6 6 A H S r 1 o                                                     ",
"                                          X 1 4 4 0 S I A Z 6 w A I H A A e * . . . .                                           ",
"                                        o % 0 H S H I Y H S Z Z H Y I H I I 4 o X . .                                           ",
"                                      o 2 6 S I I I I I I I I H I I I I I H A 0 % . .                                           ",
"                                    . o 4 H I T T T I H Y T T T I S Y Y I H I I 1 . .                                           ",
"                                    . o 4 S Y T T T I Y T T T T I I T T Y I I A : . .                                           ",
"                                    . o 4 S I E T T T T T T T T T E T T T Y I Z * . .                                           ",
"                                    . X 6 H I T T T E T T T T T T T T T T Y I r * . .                                           ",
"                                    . o 4 H I T T T T T T T T T T T E T T T H Z * . .                                           ",
"                                    . X 4 S I E E T I I Y E T T T E T T T T H Z * . .                                           ",
"                                    . X 4 H I T Y Y I S I ..T T T T T T T Y I r * . .                                           ",
"                                    . X 4 S H I Y T I S I T T Y I I I T I H S A * . .                                           ",
"                                    . X 4 A A H I I S S I T Y Y H S I Y I A A Z & . .                                           ",
"                                    . X 2 w A S H H A r H H I H A w S H S A Z 6 % . .                                           ",
"                                    . X 1 0 Z A H K A e F J U J t e F I H A w 3 $ . .                                           ",
"                                    . X 1 6 0 A 8.r.o.} +.c.c.9.O.' 8.s.L 0 6 3 $ . .                                           ",
"                                    . X 1 3 3 F f.!.y.<.N.R.R.A.v.2.U.~.=.6 6 2 % . .                                           ",
"                                        $ & 2 K !.OXQ.s.T.{.{.[.B.P.).'.q.3 * $ o                                               ",
"                                        . . 1 L _.+X`.W.^.XXXX.X~.W.OX+Xr.3 $ .                                                 ",
"                                        . X 1 G I.oX(.^. XXXXX.X(.^.oX/.8.3 $ .                                                 ",
"                                        . X * y l.S.E.}.}.}.}.}.}.{.R.m.| 4 $ .                                                 ",
"                                        . X * q C h.j.x.x.x.x.x.x.x.j.g.x 3 $ .                                                 ",
"                                        . X 1 q z j j j l j k k j j k h 9 3 $ .                                                 ",
"                                        . X 1 6 G { c v [  . .} c v [ ] A 4 $ .                                                 ",
"                                        . X 2 Z W / U _ Q %.%.$.U _ Q ) I 0 % .                                                 ",
"                                        . o 7 P W / U _ ~ J.H.$..._ E $.8.O.8 .                                                 ",
"                                        O : D W ) / U ` ( K.K.$..._ E 4.n.A.M @                                                 ",
"                                      = M ,.0.e.5./ ] ` ~ K.K.L..._ E 4.n.A.z.@.p . .                                           ",
"                                    . , l.S.S.C.w.^ Y ` 4.K.K.G.T ` E 4.n.S.S.M.m . .                                           ",
"                                    . , z.].E.Y.0.T E ! $.K.K.K.( E T X.b.S.S.M.m . .                                           ",
"                                    . < C.XXXX[.9.` ! F.H.K.K.K.J.) Y [ l.A.A.m.b . .                                           ",
"                                      m /.XXXX[.y.Q $.H.K.K.K.K.H.J.( T ' M M M 8                                               ",
"                                        XXXX|.Y.P.%.H.K.L.L.L.L.L.L.G.W 7 . . .                                                 ",
"                                          /.1.*.=.3.6.u.u.u.u.u.s.L.6.=.u . .                                                   ",
"                                            . O s p.a.a.a.a.a.a.d.a.p.&.u .                                                     ",
"                                            . O s p.a.a.&.a a s -.p.;.&.u .                                                     ",
"                                            . @ s ;.a.p.i . . O d ;.;.&.u .                                                     ",
"                                            . - s ;.a.p.i . . O s :.;.&.u .                                                     ",
"                                            . O s ;.p.p.i . . @ d :.-.&.u .                                                     ",
"                                            . O a &.-.&.u + > g B V n i ;                                                       ",
"                                            . O i s s a - # f l l h > .                                                         ",
"                                              O ; ; < ; o @ b >.>.V < .                                                         ",
"                                                . . . . . O &.d.d.p.i .                                                         ",
"                                                . . . . . - &.d.d.p.i .                                                         ",
"                                                                                                                                ",
"                                                                                                                                ",
"                                                                                                                                ",
"                                                                                                                                ",
"                                                                                                                                ",
"                                                                                                                                ",
"                                                                                                                                ",
"                                                                                                                                ",
"                                                                                                                                ",
"                                                                                                                                ",
"                                                                                                                                "
};
