/* XPM */
static char *out[] = {
/* columns rows colors chars-per-pixel */
"64 64 185 2 ",
"   c None",
".  c #000000",
"X  c #06040A",
"o  c #09060D",
"O  c #0D0D0D",
"+  c #110A0B",
"@  c #120508",
"#  c #0B0713",
"$  c #0D0915",
"%  c #0E0819",
"&  c #1C0F12",
"*  c #110B1C",
"=  c #111111",
"-  c #1F1114",
";  c #1B1B1B",
":  c #261518",
">  c #3A1919",
",  c #280F1A",
"<  c #0C0E20",
"1  c #150D23",
"2  c #170E29",
"3  c #1A0F2D",
"4  c #1B1127",
"5  c #1C122E",
"6  c #181C2C",
"7  c #1E1234",
"8  c #1C1A30",
"9  c #361728",
"0  c #211535",
"q  c #23163B",
"w  c #26193D",
"e  c #2C193B",
"r  c #361B39",
"t  c #242424",
"y  c #292929",
"u  c #3C2529",
"i  c #3B3B3B",
"p  c #353535",
"a  c #4D0F0F",
"s  c #72151A",
"d  c #761618",
"f  c #67161F",
"g  c #58172B",
"h  c #4B1F37",
"j  c #561B36",
"k  c #46192E",
"l  c #4B2C2F",
"z  c #442327",
"x  c #4B2931",
"c  c #512D39",
"v  c #59333B",
"b  c #6D3039",
"n  c #1C1F49",
"m  c #271A40",
"M  c #2A1B44",
"N  c #2E1E4A",
"B  c #341F45",
"V  c #2F2145",
"C  c #322346",
"Z  c #31214D",
"A  c #3B244D",
"S  c #392948",
"D  c #2F3345",
"F  c #3D304E",
"G  c #222B51",
"H  c #342453",
"J  c #3D2554",
"K  c #39265A",
"L  c #3C295D",
"P  c #2D3567",
"I  c #393166",
"U  c #393369",
"Y  c #3C386C",
"T  c #343B75",
"R  c #3E3D72",
"E  c #421C45",
"W  c #481D45",
"Q  c #4A2549",
"!  c #52294C",
"~  c #522644",
"^  c #5C3746",
"/  c #4D2D52",
"(  c #402D5B",
")  c #403253",
"_  c #5B3658",
"`  c #612243",
"'  c #603450",
"]  c #763D56",
"[  c #693A44",
"{  c #483869",
"}  c #3F455D",
"|  c #34437E",
" . c #3A447D",
".. c #4B4B4B",
"X. c #51435E",
"o. c #555555",
"O. c #5D5D5D",
"+. c #7C474B",
"@. c #7E4552",
"#. c #74435A",
"$. c #6A465C",
"%. c #4B526D",
"&. c #4F5772",
"*. c #55526F",
"=. c #664A62",
"-. c #7E4763",
";. c #61556F",
":. c #7A5B6F",
">. c #634E7D",
",. c #7B4F71",
"<. c #6B5C75",
"1. c #665773",
"2. c #5B657F",
"3. c #5E6C7E",
"4. c #636262",
"5. c #6B6B6B",
"6. c #6C6767",
"7. c #717171",
"8. c #7C7C7C",
"9. c #6B667A",
"0. c #972D2D",
"q. c #87323D",
"w. c #9A3B42",
"e. c #9F4147",
"r. c #84435E",
"t. c #844855",
"y. c #8B555E",
"u. c #834646",
"i. c #A4484C",
"p. c #A2464A",
"a. c #864C68",
"s. c #874E63",
"d. c #A4596A",
"f. c #AB5E6F",
"g. c #A45E75",
"h. c #976464",
"j. c #816D7E",
"k. c #AA647D",
"l. c #BC6879",
"z. c #B66476",
"x. c #C26B7E",
"c. c #C6717F",
"v. c #334481",
"b. c #3C4C85",
"n. c #394E89",
"m. c #364986",
"M. c #3D548E",
"N. c #454E87",
"B. c #504C81",
"V. c #655C8B",
"C. c #7C6184",
"Z. c #925F80",
"A. c #946C82",
"S. c #9B7292",
"D. c #8C7386",
"F. c #BE7D84",
"G. c #A07391",
"H. c #BF7C91",
"J. c #A57387",
"K. c #C56E80",
"L. c #C97988",
"P. c #638796",
"I. c #7C8394",
"U. c #958698",
"Y. c gray60",
"T. c #959595",
"R. c #868795",
"E. c #AB8D99",
"W. c #BC8E9C",
"Q. c #B4929F",
"!. c #9F9EAD",
"~. c #A495A8",
"^. c #87A1AE",
"/. c #BAAEBC",
"(. c #D5828E",
"). c #D78491",
"_. c #DB8992",
"`. c #DC8F9B",
"'. c #D68B96",
"]. c #CD919C",
"[. c #D7939E",
"{. c #E5959F",
"}. c #C799A7",
"|. c #B8B8C4",
" X c #D5CAD6",
/* pixels */
"                                                                                                                                ",
"                                                                                                                                ",
"                                                                                                                                ",
"                                                                                                                                ",
"                                                              . . .                                                             ",
"                                                            o o X .                                                             ",
"                                                          o 5 0 $ .                                                             ",
"                                                        . o w H 1 .                                                             ",
"                                                      . . X m H 1 . . .                                                         ",
"                                                    X X X # w N 4 o X X                                                         ",
"                                              . . X 1 5 2 2 q m 7 5 5 5 $ . . . . . .                                           ",
"                                            X X X $ 0 M w 7 7 7 m V Z m 4 o o o X . .                                           ",
"                                          X 1 5 5 0 N H N m q 7 N H Z N m w w 0 $ . .                                           ",
"                                        X $ 0 N N Z H K H N m q H K H N H K H Z 1 . .                                           ",
"                                      X 1 0 N H H K H Z H H H H Z H H H H N 0 1 $                                               ",
"                                    . X 5 Z K L L K H N H L L L H N H L H m 1 X                                                 ",
"                                    . X 7 Z H L L L K K K L L L K K L L K H w 4 $ . .                                           ",
"                                    . o 5 Z H L L L L L L L L L L L L L L K H m * . .                                           ",
"                                    . X 5 Z H L L L L L L L L L L L L L L K Z m * . .                                           ",
"                                    . X 5 Z K L L L L K L L L L L L L L L L H m * . .                                           ",
"                                    . X 5 N H L L L H H K L L L L L L L L L H m * . .                                           ",
"                                    . X 5 Z H L L K H N K L L L L K L L K K Z m * . .                                           ",
"                                    . X 7 N H H K K H N K K L L H Z K L H Z N m * . .                                           ",
"                                    . X 5 M M N H K N N H L L K Z N H K H N M w * . .                                           ",
"                                    . X 2 q m N Z N M w N H Z N M m N Z Z M m 7 $ . .                                           ",
"                                    . X 1 7 m M H Z e q B A J C m q V H Z m 7 5 # . .                                           ",
"                                    . X 1 7 0 V X.<._ ! #.a.:.-.' ! =.1.F 7 7 7 $ . .                                           ",
"                                    . X 1 3 7 V 9.U.:.#.d.c.x.z.s.$.D.U.X.7 7 2 $ . .                                           ",
"                                        # % 2 S U.|.I.<.J.(.(.(.8.3.!./.1.7 * # o                                               ",
"                                        . X 1 F ~. X^.P.E.{.{.[.D.P.|. X9.3 # .                                                 ",
"                                        . X * S J.}.Q.E.].{.{.[.Q.E.}.W.=.3 # .                                                 ",
"                                        . X 1 r r.l.(._._._._._.'.).c.d.! 3 # .                                                 ",
"                                        . X * e b w.e.i.i.i.i.i.i.i.w.w.r 3 # .                                                 ",
"                                        . X 4 r g s s s s s s s s s s f 9 7 # .                                                 ",
"                                        . + Q #._ ! j g ~ / / ! j g ~ / H n < .                                                 ",
"                                        + : w.J.>.T J E U v.v.T J E I | T P 8 +                                                 ",
"                                      : c w.g.k.>.T ( E Y n.n. .K E I  .>.a.] [ u . .                                           ",
"                                    . - ] F.l.k.B.R E E R M.M.b.( E { B.j.x.K.f.x . .                                           ",
"                                    . - #.l.x.J.>.T K W R M.M.b.( W ,.S.L.L.K.f.x . .                                           ",
"                                    . : w.z.z.g.>.T L E R M.M.n.( ! J.{.{.`.L.d.l . .                                           ",
"                                      & z v ] w._ L L U b.M.M.M.{ { J.{.{._.y.c >                                               ",
"                                        . + h ! h A U v.n.M.M.M.m.N.S.`._.L.v .                                                 ",
"                                          # , 9 S U | n.n.M.M.M.n.n.V.Z.=...u                                                   ",
"                                            . # G | b.M.N.M.M.M.M.n.m.T 6 .                                                     ",
"                                            . $ D %.2.3.2.2.2.2.V.2.&.} 6 .                                                     ",
"                                            . O p O.4.7.7.5.7.7.7.5.O...t .                                                     ",
"                                            . O i O.5.5...p ..O.o.o.i t ;                                                       ",
"                                            . O i O.5.4.y X y i i p ; .                                                         ",
"                                            . O i O.5.4.y O = ; ; ; =                                                           ",
"                                            . O i O.5.4.y . . . . .                                                             ",
"                                            . O p O.5.4.y . .                                                                   ",
"                                            . O i O.6.4.y .                                                                     ",
"                                            . @ z b u.+.> .                                                                     ",
"                                            . @ a 0.0.0.> .                                                                     ",
"                                            . + z +.h.h.z .                                                                     ",
"                                            . = ..7.Y.T.i .                                                                     ",
"                                            . = ..8.Y.T....                                                                     ",
"                                                                                                                                ",
"                                                                                                                                ",
"                                                                                                                                ",
"                                                                                                                                ",
"                                                                                                                                ",
"                                                                                                                                ",
"                                                                                                                                "
};
