/* XPM */
static char *out[] = {
/* columns rows colors chars-per-pixel */
"64 64 201 2 ",
"   c None",
".  c #000000",
"X  c #06040A",
"o  c #09060D",
"O  c #0D0C0C",
"+  c #0E0707",
"@  c #110A0A",
"#  c #130303",
"$  c #0B0714",
"%  c #0E0916",
"&  c #0E0819",
"*  c #120B1C",
"=  c #100916",
"-  c #181415",
";  c #211416",
":  c #251A1B",
">  c #2B1A1A",
",  c #381E1E",
"<  c #320909",
"1  c #150D23",
"2  c #170E29",
"3  c #1A0F2D",
"4  c #1C122E",
"5  c #191127",
"6  c #1E1234",
"7  c #151736",
"8  c #2A122F",
"9  c #371727",
"0  c #211534",
"q  c #23163B",
"w  c #26193D",
"e  c #2C193B",
"r  c #331D3E",
"t  c #2C2C2C",
"y  c #202020",
"u  c #382629",
"i  c #393939",
"p  c #353434",
"a  c #4C0F0F",
"s  c #411515",
"d  c #501919",
"f  c #671519",
"g  c #72151A",
"h  c #771818",
"j  c #761618",
"k  c #56162A",
"l  c #4B1F37",
"z  c #561B36",
"x  c #462A2A",
"c  c #522F2F",
"v  c #4C2B32",
"b  c #543339",
"n  c #593A3E",
"m  c #57393D",
"M  c #542E36",
"N  c #642D2D",
"B  c #6A3B3B",
"V  c #6B293A",
"C  c #261A40",
"Z  c #2A1B44",
"A  c #2E1E4A",
"S  c #341F45",
"D  c #292348",
"F  c #31214D",
"G  c #3B244D",
"H  c #372547",
"J  c #3D304E",
"K  c #282857",
"L  c #342353",
"P  c #3D2554",
"I  c #39265A",
"U  c #3C295D",
"Y  c #3A2D61",
"T  c #2D346A",
"R  c #383165",
"E  c #393369",
"W  c #3C386C",
"Q  c #2C3670",
"!  c #343B75",
"~  c #3D3C71",
"^  c #333D78",
"/  c #411C45",
"(  c #401E49",
")  c #48284B",
"_  c #522344",
"`  c #502A4C",
"'  c #522B47",
"]  c #59304B",
"[  c #402D5B",
"{  c #4F2D52",
"}  c #463158",
"|  c #573A56",
" . c #643D43",
".. c #6A3853",
"X. c #703E5A",
"o. c #4C3867",
"O. c #6A3F65",
"+. c #3A437D",
"@. c #36457F",
"#. c #454545",
"$. c #4C4A4A",
"%. c #56485C",
"&. c #545454",
"*. c #5D5C5C",
"=. c #585555",
"-. c #654246",
";. c #60444B",
":. c #754747",
">. c #77474E",
",. c #704258",
"<. c #6A465C",
"1. c #4B526D",
"2. c #44457D",
"3. c #4C477B",
"4. c #565C75",
"5. c #554665",
"6. c #614665",
"7. c #7B4964",
"8. c #61556F",
"9. c #7A5B6F",
"0. c #714D74",
"q. c #6B5C75",
"w. c #665773",
"e. c #654D7B",
"r. c #5B647E",
"t. c #5E6C7E",
"y. c #656464",
"u. c #6C6C6C",
"i. c #6B6666",
"p. c #737373",
"a. c #6B667A",
"s. c #87323D",
"d. c #973131",
"f. c #982B2B",
"g. c #9A3B42",
"h. c #824646",
"j. c #9F4147",
"k. c #86495A",
"l. c #8D565F",
"z. c #A4484C",
"x. c #A2464A",
"c. c #864C68",
"v. c #874E63",
"b. c #8E516F",
"n. c #925F65",
"m. c #8B5A7D",
"M. c #924D67",
"N. c #A75E70",
"B. c #A7586B",
"V. c #986666",
"C. c #976269",
"Z. c #816D7E",
"A. c #9A627E",
"S. c #AE6174",
"D. c #AB637D",
"F. c #B46377",
"G. c #BC6879",
"H. c #C26C7E",
"J. c #C6717F",
"K. c #334481",
"L. c #3C4C85",
"P. c #394E89",
"I. c #364986",
"U. c #3D548E",
"Y. c #4A4D81",
"T. c #6D5C85",
"R. c #946C82",
"E. c #9A708C",
"W. c #8C7386",
"Q. c #BE7585",
"!. c #A57786",
"~. c #C56E80",
"^. c #CF7A8A",
"/. c #C77986",
"(. c #D27F8D",
"). c #638796",
"_. c #7C8394",
"`. c #958698",
"'. c #949494",
"]. c #868795",
"[. c #AB8D99",
"{. c #BC8E9C",
"}. c #BE8191",
"|. c #B4929F",
" X c #9F9EAD",
".X c #A495A8",
"XX c #87A1AE",
"oX c #BAAEBC",
"OX c #CB848D",
"+X c #D78491",
"@X c #D78C95",
"#X c #DB8992",
"$X c #DC8A96",
"%X c #CD919C",
"&X c #D7939E",
"*X c #D7848E",
"=X c #E08F9A",
"-X c #E5949F",
";X c #C799A7",
":X c #B8B8C4",
">X c #D5CAD6",
/* pixels */
"                                                                                                                                ",
"                                                                                                                                ",
"                                                                                                                                ",
"                                                                                                                                ",
"                                                              . . .                                                             ",
"                                                            o O X .                                                             ",
"                                                          o 4 0 % .                                                             ",
"                                                        . o w L 1 .                                                             ",
"                                                      . . $ q L 1 . . .                                                         ",
"                                                    X X X $ q F 5 X X X                                                         ",
"                                              . . X 1 3 2 1 q C 0 4 4 4 & . . . . . .                                           ",
"                                            X X X = 0 A q 6 6 6 C A F C 1 X O o X . .                                           ",
"                                          X 1 6 4 0 A L Z C 6 6 A L A A Z w w 0 % . .                                           ",
"                                        X $ 0 A A F L I L Z C C F I L F L I P F 1 . .                                           ",
"                                      X 5 0 A L I L L F L I L F F L L L L A 0 * =                                               ",
"                                    . X 4 F L U U I L F I U U U L A L U L Z 1 X                                                 ",
"                                    . X 6 F L U U U I P I Y U U I I U U I L w 5 % . .                                           ",
"                                    . o 4 F L U U U U Y U U U U U U U U I I L C * . .                                           ",
"                                    . X 0 A L Y Y U U U U U U U U U U U Y I L w * . .                                           ",
"                                    . X 4 A I U U U U U U U U U U U U U U U F Z * . .                                           ",
"                                    . X 4 F L U U U I L I U Y U U U U U Y I L w * . .                                           ",
"                                    . o 4 A L U U I A A I U U U U U U U I I A Z * . .                                           ",
"                                    . o 4 A F L I I F A L U U U L F I U L L A C * . .                                           ",
"                                    . X 4 Z A A I I A A L U U I F A L I A A A w * . .                                           ",
"                                    . X 2 q Z A A F C w A F L A Z C A A A Z Z 0 & . .                                           ",
"                                    . X 1 6 q A L G e q F G G H e q D G F Z q 3 $ . .                                           ",
"                                    . X 1 6 0 D 5.q.| ' ,.c.c.7...) 6.w.} q 6 3 $ . .                                           ",
"                                    . X * 3 6 H a.`.9.,.N.~.~.F.c.<.W.`.%.6 3 2 $ . .                                           ",
"                                        $ & 2 G `.:X_.q.!.*X+XOXp.t. XoX8.3 * $ O                                               ",
"                                        . X * J .X>XXX).[.-X-X&X].).:X>Xw.3 $ .                                                 ",
"                                        . X * H E.;X{.[.%X-X-X&X{.[.;X{.6.3 $ .                                                 ",
"                                        . X 1 r k.H.^.#X#X#X#X#X$X+X~.B.] 3 $ .                                                 ",
"                                        . X 1 e V g.g.x.z.z.z.z.z.z.g.g.l 3 $ .                                                 ",
"                                        . X 1 0 k g j g g g g g g g g f 8 3 $ .                                                 ",
"                                        . X 1 6 S ` z z _ { { ` z k _ ) r 3 $ .                                                 ",
"                                        . X 1 C T ~ P / E K.K.~ P / R ^ K 0 = .                                                 ",
"                                        . X 7 K Q ! P S ~ P.P.K.P / R +.6...9 .                                                 ",
"                                        @ * D Q ^ ! ) / ~ U.U.L.[ / R 2.R.B.M @                                                 ",
"                                      - M X.7.0.3.! P ( ~ U.U.L.[ / R 2.m.F.k. .u . .                                           ",
"                                    . ; k.~.~.N.e.! I ( ~ U.U.P.[ / Y 3.m.H.H.F.c . .                                           ",
"                                    . ; l.(.~.F.O.[ U E L.P.U.P.~ Y U } b.H.^.G.m . .                                           ",
"                                    . : C.=X^.F...S E K.U.Y.U.U.I.^ U _ M./.*XOXn . .                                           ",
"                                    . : C.-X$XQ.0.R +.P.U.U.U.U.P.I.~ o.A.*X#XOXn . .                                           ",
"                                    . > n.@X@X}.T.@.P.U.U.U.U.U.U.Y.I.Y.E.@X@X}.n . .                                           ",
"                                      ; b -.-.;.%.1.4.r.r.t.r.t.T.r.Y.t.=.-.-.-.u                                               ",
"                                        X . . O i *.u.p.u.u.u.u.p.p.p.y.t . . .                                                 ",
"                                          . . O i *.y.*.#.p p i $.y.p.y.t . .                                                   ",
"                                            . O i &.=.$.y . . O i *.y.y.t .                                                     ",
"                                              O y t c N d < # O i *.u.y.t .                                                     ",
"                                                . # a h h f < O p *.i.y.t .                                                     ",
"                                                . @ c :.:.B > + s B h.h., .                                                     ",
"                                                . O $.p.p.y.t + a f.f.d.s .                                                     ",
"                                                          =.- O x >.V.V.x .                                                     ",
"                                                            X O #.p.'.'.#..                                                     ",
"                                                              O t i #.$.t                                                       ",
"                                                                . . . .                                                         ",
"                                                                . . . .                                                         ",
"                                                                                                                                ",
"                                                                                                                                ",
"                                                                                                                                ",
"                                                                                                                                ",
"                                                                                                                                ",
"                                                                                                                                ",
"                                                                                                                                "
};
