/* XPM */
static char *out[] = {
/* columns rows colors chars-per-pixel */
"64 64 193 2 ",
"   c None",
".  c #000000",
"X  c #06040A",
"o  c #09060D",
"O  c #0E0D0D",
"+  c #0A080B",
"@  c #110707",
"#  c #0B0713",
"$  c #0E0916",
"%  c #090713",
"&  c #120B1D",
"*  c #1A0E15",
"=  c gray8",
"-  c #1F191B",
";  c #2A0F1C",
":  c #2C101D",
">  c #221417",
",  c #381E1E",
"<  c #140D23",
"1  c #170E29",
"2  c #1A0F2D",
"3  c #1C132E",
"4  c #191127",
"5  c #0F1530",
"6  c #1E1234",
"7  c #151A30",
"8  c #2A122F",
"9  c #311C20",
"0  c #211535",
"q  c #2C1735",
"w  c #23163B",
"e  c #26193E",
"r  c #291A3C",
"t  c #351D3B",
"y  c #232323",
"u  c #2B2B2B",
"i  c #21232E",
"p  c #3B2027",
"a  c #393939",
"s  c #353434",
"d  c #4B0F0F",
"f  c #411515",
"g  c #68161F",
"h  c #72151A",
"j  c #761618",
"k  c #56162A",
"l  c #4B1F37",
"z  c #551D39",
"x  c #571730",
"c  c #46182E",
"v  c #4A2B2E",
"b  c #432629",
"n  c #4C2A31",
"m  c #5C203D",
"M  c #523539",
"N  c #6F3737",
"B  c #6B293A",
"V  c #161D41",
"C  c #261A40",
"Z  c #2A1C45",
"A  c #2E1E4A",
"S  c #341F45",
"D  c #1D2249",
"F  c #2F2149",
"G  c #322346",
"H  c #3B2546",
"J  c #31214E",
"K  c #3B244D",
"L  c #382C4B",
"P  c #3D304E",
"I  c #342353",
"U  c #3D2554",
"Y  c #39265A",
"T  c #3C295D",
"R  c #23285A",
"E  c #3A2D61",
"W  c #2E366B",
"Q  c #383065",
"!  c #37366B",
"~  c #2C3670",
"^  c #343B75",
"/  c #3C3C72",
"(  c #353D78",
")  c #421C45",
"_  c #48274A",
"`  c #502A4C",
"'  c #552546",
"]  c #56334C",
"[  c #4F2D52",
"{  c #402D5B",
"}  c #422855",
"|  c #403253",
" . c #563357",
".. c #612240",
"X. c #6A3A45",
"o. c #643756",
"O. c #703E5A",
"+. c #3B447D",
"@. c #36457F",
"#. c #424242",
"$. c #494949",
"%. c #51435E",
"&. c #545454",
"*. c #5B5B5B",
"=. c #6E4B4F",
"-. c #7B484E",
";. c #754257",
":. c #6A465C",
">. c #464F6F",
",. c #4C526A",
"<. c #555960",
"1. c #43467F",
"2. c #404077",
"3. c #4F4F70",
"4. c #664666",
"5. c #7D4663",
"6. c #61556F",
"7. c #7A5B6F",
"8. c #6B5C75",
"9. c #665773",
"0. c #765378",
"q. c #5A647E",
"w. c #5C6778",
"e. c #656464",
"r. c #6C6C6C",
"t. c #6B6666",
"y. c #656376",
"u. c #717171",
"i. c gray48",
"p. c #75677D",
"a. c #87323D",
"s. c #973131",
"d. c #982B2B",
"f. c #9A3B42",
"g. c #824646",
"h. c #9F4147",
"j. c #87445C",
"k. c #A4484C",
"l. c #A2464A",
"z. c #864C68",
"x. c #874E63",
"c. c #8F5D63",
"v. c #84567A",
"b. c #8B5A7E",
"n. c #A4596A",
"m. c #AB5E6F",
"M. c #A15C70",
"N. c #8E6B6F",
"B. c #986666",
"V. c #816D7E",
"C. c #BB697A",
"Z. c #B86477",
"A. c #B3717B",
"S. c #C16A7D",
"D. c #C6717F",
"F. c #334380",
"G. c #3B4B84",
"H. c #394E89",
"J. c #364986",
"K. c #3D548E",
"L. c #405281",
"P. c #715F88",
"I. c #8C6384",
"U. c #956D8C",
"Y. c #946C82",
"T. c #927784",
"R. c #A57786",
"E. c #C56E80",
"W. c #CA7D8A",
"Q. c #638796",
"!. c #7C8394",
"~. c #958698",
"^. c #999999",
"/. c #868795",
"(. c #AB8D99",
"). c #BC8E9C",
"_. c #B4929F",
"`. c #9F9EAD",
"'. c #A495A8",
"]. c #87A1AE",
"[. c #BAAEBC",
"{. c #D7848E",
"}. c #CA8595",
"|. c #D68491",
" X c #DB8992",
".X c #D78C95",
"XX c #CD919C",
"oX c #DC929C",
"OX c #D1929D",
"+X c #E5959F",
"@X c #C799A7",
"#X c #B8B8C4",
"$X c #D5CAD6",
/* pixels */
"                                                                                                                                ",
"                                                                                                                                ",
"                                                                                                                                ",
"                                                                                                                                ",
"                                                                                                                                ",
"                                                                                                                                ",
"                                                              . . .                                                             ",
"                                                            o o . .                                                             ",
"                                                      . . o 2 w & . . .                                                         ",
"                                                    X X X # w J 4 X X X                                                         ",
"                                              . . + < 2 1 1 6 Z 0 3 3 3 $ .                                                     ",
"                                            X X X # 0 A e 6 6 6 C A A C 4 +                                                     ",
"                                          + < 6 3 0 A I A C 6 6 A I A A C w & . . . .                                           ",
"                                        X # 0 A A A I Y J A C C J Y I A I I 3 + X . .                                           ",
"                                      o < 0 A I I I I I I Y J J I I I I I J Z 0 $ . .                                           ",
"                                    . + 3 A U E T T I A Y T T T I A I T I J I J < . .                                           ",
"                                    . o 3 A Y T T T Y Y Y T E T Y Y Y T Y I I A < . .                                           ",
"                                    . o 3 A I T T T T T E } T T T T T T T T J C & . .                                           ",
"                                    . X 6 A Y T T E T E T T T T T T T T T T J C & . .                                           ",
"                                    . o 3 J I T T T T T T T T T T T T T T T I C & . .                                           ",
"                                    . o 3 F I T E Y I I Y T T T T T T T T Y I C & . .                                           ",
"                                    . X 3 J I T T Y J A I T T T T T T T T Y A C & . .                                           ",
"                                    . o 6 A J I Y Y I A Y T E T I I Y T I I F e & . .                                           ",
"                                    . X 3 Z Z J Y Y A Z I T T Y A A I Y A A A e & . .                                           ",
"                                    . X 1 w Z A J J Z e A I J A Z e A J J Z C 6 $ . .                                           ",
"                                    . X < 6 C Z J J r r G K K K r w G J F Z 6 3 % . .                                           ",
"                                    . X < 6 0 F %.8. .` O.z.z.5.o.` 4.6.P 6 6 6 % . .                                           ",
"                                    . X < 2 2 G p.~.7.;.M.E.E.C.x.:.T.~.%.6 6 1 $ . .                                           ",
"                                        # $ < L ~.#X/.y.R.{.|.W.V.q.`.[.6.6 & # +                                               ",
"                                        . X < P '.$X].Q.(.+X+XOX/.Q.#X$Xy.6 % .                                                 ",
"                                        . X & H Y.@X).(.XX+X+XoX).(.@X).4.2 # .                                                 ",
"                                        . X < t x.S.W. X X X X X.X{.D.n.] 2 # .                                                 ",
"                                        . X < q B f.f.l.k.k.k.k.l.l.f.a.n 2 # .                                                 ",
"                                        . X < 8 k h j j h h h h h h h g c q * O                                                 ",
"                                        . X < 0 H ` z x ' [ ` ` z k ' [ O.j.O.X.9 X .                                           ",
"                                        X o 1 C W ^ U S Q @.@.+.U ) Q 1.b.S.S.m.n . .                                           ",
"                                      o 5 V D R ~ ^ U ) ! G.H.@.} ) E L.b.S.S.m.n . .                                           ",
"                                    . % D W W ^ ( 2.} ) 2.K.K.G.T ) Q 1.v.Z.Z.n.n . .                                           ",
"                                    . = [ v.I.U.U.I.o.) / L.K.G.T ) Q 2.4.j.X.n 9                                               ",
"                                    . * -.C.|.+X+XW.5.} +.K.K.K.T ) Q /  ...; .                                                 ",
"                                      * b =.A.+X+XXX0.Q @.K.K.K.2.E T } ' ..: .                                                 ",
"                                        . > c. XoXXXP.@.K.K.K.K.J.( } ) ' m : .                                                 ",
"                                          > M =.N.N.r.+.+.K.K.K.K.J.! T t : *                                                   ",
"                                            . O $.r.e.<.>.K.K.K.L.L.G.~ 7 .                                                     ",
"                                            . O #.e.*.*.w.q.P.q.P.L.q.,.i .                                                     ",
"                                            . $ a *.*.*.*.r.r.r.u.i.u.e.u .                                                     ",
"                                            . O a *.*.&.#.s s a &.e.u.e.u .                                                     ",
"                                            . O a &.&.$.y . . O a *.r.e.u .                                                     ",
"                                              O y u y y = . . O a *.t.e.u .                                                     ",
"                                                . . . .     . O a *.t.t.u .                                                     ",
"                                                            . @ , N g.g., .                                                     ",
"                                                            . @ d d.d.s.f .                                                     ",
"                                                            . O b -.B.B.v .                                                     ",
"                                                            . O #.i.^.^.#..                                                     ",
"                                                            . = $.i.^.^.#..                                                     ",
"                                                                                                                                ",
"                                                                                                                                ",
"                                                                                                                                ",
"                                                                                                                                ",
"                                                                                                                                ",
"                                                                                                                                ",
"                                                                                                                                ",
"                                                                                                                                ",
"                                                                                                                                "
};
