/* XPM */
static char *out[] = {
/* columns rows colors chars-per-pixel */
"64 64 190 2 ",
"   c None",
".  c #000000",
"X  c #06040A",
"o  c #0A060D",
"O  c #0E0D0D",
"+  c #11060B",
"@  c #110A0A",
"#  c #120303",
"$  c #0B0714",
"%  c #0C0915",
"&  c #0E0819",
"*  c #1C0F12",
"=  c #120B1D",
"-  c #150C12",
";  c #111111",
":  c #1F1114",
">  c #181818",
",  c #201114",
"<  c #3A1919",
"1  c #280F1A",
"2  c #0C0D20",
"3  c #150D23",
"4  c #170E29",
"5  c #1A0F2D",
"6  c #1C132E",
"7  c #1A152B",
"8  c #1E1234",
"9  c #221329",
"0  c #351627",
"q  c #211535",
"w  c #23163B",
"e  c #26193E",
"r  c #2A193A",
"t  c #341B3B",
"y  c #232323",
"u  c #292828",
"i  c #3D292A",
"p  c #3A2027",
"a  c #343434",
"s  c #3B3B3B",
"d  c #4D0F0F",
"f  c #72151A",
"g  c #761618",
"h  c #67151E",
"j  c #58172B",
"k  c #491C32",
"l  c #561B36",
"z  c #46192E",
"x  c #462729",
"c  c #4B2931",
"v  c #502D34",
"b  c #58333B",
"n  c #6D3039",
"m  c #1C1F49",
"M  c #271A40",
"N  c #2A1C45",
"B  c #2E1E4A",
"V  c #341F45",
"C  c #2F2149",
"Z  c #31214E",
"A  c #3B244D",
"S  c #352647",
"D  c #2F3345",
"F  c #3D304E",
"G  c #242852",
"H  c #342353",
"J  c #3D2554",
"K  c #39265A",
"L  c #3C295D",
"P  c #292F62",
"I  c #383166",
"U  c #393369",
"Y  c #3C386C",
"T  c #2F3B76",
"R  c #343B75",
"E  c #3E3D72",
"W  c #313E7C",
"Q  c #411C45",
"!  c #411E49",
"~  c #4F1C41",
"^  c #4C2C4C",
"/  c #41214B",
"(  c #502A4C",
")  c #522644",
"_  c #5C3747",
"`  c #4E2B52",
"'  c #402D5B",
"]  c #403253",
"[  c #5B3856",
"{  c #642547",
"}  c #733F4C",
"|  c #652A50",
" . c #603450",
".. c #763D56",
"X. c #683A43",
"o. c #433669",
"O. c #483669",
"+. c #3A447D",
"@. c #36457F",
"#. c #4C4C4C",
"$. c #51435E",
"%. c #5B5B5B",
"&. c gray33",
"*. c #7C474B",
"=. c #7D4554",
"-. c #73435A",
";. c #615C5D",
":. c #714E5B",
">. c #4B526D",
",. c #555B6A",
"<. c #534274",
"1. c #585A74",
"2. c #4D4C6E",
"3. c #624863",
"4. c #7E4763",
"5. c #61556F",
"6. c #7A5B6F",
"7. c #634E7D",
"8. c #7C4F70",
"9. c #6B5C75",
"0. c #665773",
"q. c #74587F",
"w. c #5B657E",
"e. c #5E6C7E",
"r. c #636262",
"t. c #6B6464",
"y. c gray42",
"u. c #7F696C",
"i. c #797979",
"p. c #6B667A",
"a. c #972E2E",
"s. c #87323D",
"d. c #9A3B42",
"f. c #9F4147",
"g. c #8C565F",
"h. c #844651",
"j. c #A4484C",
"k. c #A2464A",
"l. c #864C68",
"z. c #854964",
"x. c #A4596A",
"c. c #AB5E6F",
"v. c #A45E75",
"b. c #976565",
"n. c #816D7E",
"m. c #916D72",
"M. c #AB647D",
"N. c #BC6879",
"B. c #B66376",
"V. c #C26B7E",
"C. c #C6717F",
"Z. c #334481",
"A. c #3D4D85",
"S. c #394D89",
"D. c #374983",
"F. c #3D548E",
"G. c #4D4D81",
"H. c #435686",
"J. c #915F80",
"K. c #946C82",
"L. c #9F7391",
"P. c #8C7386",
"I. c #A97A86",
"U. c #BE7C91",
"Y. c #A37692",
"T. c #C56E80",
"R. c #C77A87",
"E. c #638796",
"W. c #7C8394",
"Q. c #958698",
"!. c gray60",
"~. c #959595",
"^. c #868795",
"/. c #AB8D99",
"(. c #BC8E9C",
"). c #B4929F",
"_. c #9F9EAD",
"`. c #A495A8",
"'. c #87A1AE",
"]. c #BAAEBC",
"[. c #D5828E",
"{. c #D78491",
"}. c #DB8A93",
"|. c #DA8C97",
" X c #CD919C",
".X c #D8929C",
"XX c #E5959F",
"oX c #C799A7",
"OX c #B8B8C4",
"+X c #D5CAD6",
/* pixels */
"                                                                                                                                ",
"                                                                                                                                ",
"                                                                                                                                ",
"                                                                                                                                ",
"                                                                                                                                ",
"                                                                                                                                ",
"                                                              . . .                                                             ",
"                                                            o o X .                                                             ",
"                                                      . . X 8 8 % . . .                                                         ",
"                                                    X X X $ e Z 4 X X X                                                         ",
"                                              . . X 3 6 4 3 8 N q 8 6 7 % .                                                     ",
"                                            X X X % 8 B M 8 8 8 M B C M 4 o                                                     ",
"                                          X 3 8 6 q B H B M 8 8 B H B B M w = . . . .                                           ",
"                                        X % q B B Z H H Z B M M Z K H Z H H 7 o X . .                                           ",
"                                      X 3 q B H H H H H H H H H Z H H H H Z M q % . .                                           ",
"                                    . X 6 Z K L L K H Z K L L L H B K K H C H H 3 . .                                           ",
"                                    . X 8 Z H L L L K K K L L L K K L L K H H N = . .                                           ",
"                                    . o 6 C K L L L L L L L L L L L L L L K H e = . .                                           ",
"                                    . X 8 B H L L L L L L L L L L L L L L L H e = . .                                           ",
"                                    . X 6 C K L L L L L L L L L L L L L L K H M = . .                                           ",
"                                    . X 6 C H L L L H H K L L L L L L L L K H M = . .                                           ",
"                                    . X 6 Z H L L L Z B K L L L L L L L L K B M = . .                                           ",
"                                    . X 8 B H H K K Z B H L L L H H K L H H C e = . .                                           ",
"                                    . X 6 N N B H K Z B H L K K Z B H K B B B e = . .                                           ",
"                                    . X 4 w M B B Z M M B H Z H M e B Z B B e 8 % . .                                           ",
"                                    . X 3 8 M B Z A N w C A A S r w C H Z M w 6 % . .                                           ",
"                                    . X 3 8 q C $.9.[ ) ..4.l.4. .^ 3.0.F w 8 5 % . .                                           ",
"                                    . X 3 5 6 S p.Q.6.-.v.C.C.B.l.:.P.Q.$.8 5 4 % . .                                           ",
"                                        $ & 4 S Q.OXW.9.I.[.{.[.n.H._.].5.6 3 $ o                                               ",
"                                        . X 3 F `.+X'.E./.XXXX X~.E.OX+X9.8 $ .                                                 ",
"                                        . X = S K.oX(./. XXXXX.X(./.oX(.3.5 $ .                                                 ",
"                                        . X 3 t z.V.[.}.}.}.}.}.}.[.T.x._ 5 $ .                                                 ",
"                                        . X = t n s.f.k.j.j.j.j.j.k.d.s.k 5 $ .                                                 ",
"                                        + - 9 t h f f f f f f f f f f h 0 8 $ .                                                 ",
"                                      * b } =.-. .` l l ) ` ` ( l j ) ^ r 5 $ .                                                 ",
"                                    . * h.V.V.M.G.R J Q U Z.Z.R J Q I T G 8 % .                                                 ",
"                                    . : h.V.V.M.G.W ' Q Y S.S.+.' Q I W P m 2 .                                                 ",
"                                    . , ..c.B.v.q.O.' Q E F.F.A.' Q I W R P 7 +                                                 ",
"                                      * x _ ..l.O.R / Q E F.F.A.' Q I +.1.8.-.X.p . .                                           ",
"                                        . + l | O.U ' ! E F.F.A.' Q o.G.J.T.N.B.c . .                                           ",
"                                        . + k { ` K L U D.F.F.S.Y O.G.U.(.R.C.c.v . .                                           ",
"                                        . + z { l A U Z.S.F.F.F.Z.G.Y.XXXX|.C.x.c . .                                           ",
"                                          o 1 0 S U @.S.F.F.F.F.>.5.I.XXXX}.g.v 0                                               ",
"                                            . $ G @.D.F.F.F.F.H.,.5.I.XX}.(.b .                                                 ",
"                                            . % D >.1.w.w.w.w.w.,.;.u.m.:.#.x                                                   ",
"                                            . O s %.y.i.y.y.y.y.r.%.%.#.y .                                                     ",
"                                            . O s %.y.y.#.a a s #.%.%.#.y .                                                     ",
"                                            . O s %.y.r.u . . O a &.&.#.1 .                                                     ",
"                                            . O s %.y.r.u . . O y u u u >                                                       ",
"                                            . O s %.t.r.u .     . . . .                                                         ",
"                                            . + < n h.*.< .                                                                     ",
"                                            . # d a.a.a.< .                                                                     ",
"                                            . @ x *.b.b.i .                                                                     ",
"                                            . ; #.i.!.!.s .                                                                     ",
"                                            . ; #.i.!.!.#..                                                                     ",
"                                                                                                                                ",
"                                                                                                                                ",
"                                                                                                                                ",
"                                                                                                                                ",
"                                                                                                                                ",
"                                                                                                                                ",
"                                                                                                                                ",
"                                                                                                                                ",
"                                                                                                                                "
};
