/* XPM */
static char *out[] = {
/* columns rows colors chars-per-pixel */
"64 64 202 2 ",
"   c None",
".  c #000000",
"X  c #090307",
"o  c #06040A",
"O  c #09050C",
"+  c #0D0A0C",
"@  c #12060A",
"#  c #1A0A0A",
"$  c #0B0612",
"%  c #0C0B14",
"&  c #0F0A18",
"*  c #120B16",
"=  c #1D0C13",
"-  c #120C1C",
";  c #1D0A1B",
":  c #0C1219",
">  c #131213",
",  c #1B1B1B",
"<  c #2D0707",
"1  c #220C1A",
"2  c #320C13",
"3  c #2D121E",
"4  c #25111A",
"5  c #3A1213",
"6  c #150E22",
"7  c #190F21",
"8  c #170D28",
"9  c #180F28",
"0  c #1A122C",
"q  c #181629",
"w  c #1D1232",
"e  c #171E34",
"r  c #2C0E26",
"t  c #281327",
"y  c #321223",
"u  c #371827",
"i  c #3D1A2B",
"p  c #341629",
"a  c #211534",
"s  c #231937",
"d  c #23163B",
"f  c #26193C",
"g  c #281B3E",
"h  c #291737",
"j  c #361A37",
"k  c #172036",
"l  c #252525",
"z  c #342128",
"x  c #3A2236",
"c  c gray20",
"v  c #520E0F",
"b  c #561212",
"n  c #681111",
"m  c #69171B",
"M  c #7B1515",
"N  c #761616",
"B  c #41172B",
"V  c #4A1C34",
"C  c #461A37",
"Z  c #541D3B",
"A  c #6F1C24",
"S  c #402B2B",
"D  c #5B2222",
"F  c #4E2237",
"G  c #402736",
"H  c #51233A",
"J  c #59213E",
"K  c #562E36",
"L  c #413838",
"P  c #6A2020",
"I  c #712828",
"U  c #673131",
"Y  c #753434",
"T  c #271940",
"R  c #2A1B45",
"E  c #2D1E4A",
"W  c #321E42",
"Q  c #1F2543",
"!  c #2C2345",
"~  c #2B274D",
"^  c #31214E",
"/  c #382249",
"(  c #393A4D",
")  c #342353",
"_  c #3C2754",
"`  c #39275A",
"'  c #3C295D",
"]  c #372854",
"[  c #28375C",
"{  c #39376B",
"}  c #431C44",
"|  c #4A2546",
" . c #502943",
".. c #5D324C",
"X. c #422F5A",
"o. c #42325E",
"O. c #543256",
"+. c #51314C",
"@. c #662545",
"#. c #6C2C4C",
"$. c #733F4D",
"%. c #742F52",
"&. c #64395C",
"*. c #753052",
"=. c #7D3658",
"-. c #713F59",
";. c #7D3457",
":. c #653B49",
">. c #3B4252",
",. c #32505B",
"<. c #344778",
"1. c #37487E",
"2. c gray29",
"3. c #5B5555",
"4. c #575656",
"5. c #554858",
"6. c #7E4E4E",
"7. c #76445A",
"8. c #6A4651",
"9. c #57466D",
"0. c #4D536C",
"q. c #4A4373",
"w. c #674562",
"e. c #794867",
"r. c #6F5273",
"t. c #6B6161",
"y. c #6E6E6E",
"u. c gray39",
"i. c #656476",
"p. c #7F6D7E",
"a. c #757273",
"s. c #746464",
"d. c #8A2121",
"f. c #962828",
"g. c #862B36",
"h. c #8B3838",
"j. c #A23337",
"k. c #873A5E",
"l. c #83365B",
"z. c #853D42",
"x. c #8A3B61",
"c. c #8B4C4C",
"v. c #985858",
"b. c #96434E",
"n. c #A4474B",
"m. c #A54040",
"M. c #8D5263",
"N. c #AB5F6F",
"B. c #A25D71",
"V. c #906D6D",
"C. c #8C6F77",
"Z. c #867578",
"A. c #967377",
"S. c #8F6868",
"D. c #A86969",
"F. c #A66177",
"G. c #B4667A",
"H. c #B76779",
"J. c #AA7C7C",
"K. c #3D4F89",
"L. c #3A4881",
"P. c #5A5C8E",
"I. c #585F90",
"U. c #434E87",
"Y. c #6B5783",
"T. c #7D5D82",
"R. c #686782",
"E. c #766886",
"W. c #637F8E",
"Q. c #7C6C92",
"!. c #9E7290",
"~. c #957187",
"^. c #A87D98",
"/. c #A76F84",
"(. c #CA7A87",
"). c #C77C8C",
"_. c #D27E8D",
"`. c #C17F93",
"'. c #658D9B",
"]. c #959191",
"[. c #8D8797",
"{. c #AF8C98",
"}. c #B78A97",
"|. c #A79A9A",
" X c #AC919D",
".X c #B6868C",
"XX c #A09FAE",
"oX c #ADA7A7",
"OX c #AEAEAE",
"+X c #D0808E",
"@X c #C68997",
"#X c #DA8892",
"$X c #DE8E9A",
"%X c #D68D9C",
"&X c #DC929B",
"*X c #D0929D",
"=X c #E08F9B",
"-X c #E4949E",
";X c #D2A6B2",
":X c #BCAFC0",
">X c #B6BDC8",
",X c #D9C8D7",
/* pixels */
"                                                                                                                                ",
"                                                                                                                                ",
"                                                                                                                                ",
"                                                                                                                                ",
"                                                                                                                                ",
"                                                                                                                                ",
"                                                                                                                                ",
"                                                                                                                                ",
"                                                  . . . . . . . . . . .                                                         ",
"                                                o o O O O O $ O O o o o                                                         ",
"                                              o 6 w f f f g R g w 0 w 0 & . . . . .                                             ",
"                                            o % a ^ ` ' ' ' ' ' ) E ^ T - o o o o .                                             ",
"                                          o 7 w ^ ) ' ' ' ' ' ' ` ) ^ T w 6 w s % .                                             ",
"                                        O % w ^ ) ' ' ' ' ' ' ' ' ' ) R T w E ! 6 .                                             ",
"                                      o 7 w E ` ' ' ' ' ' ' ' ' ' ` ) R R d w 6 O .                                             ",
"                                    . O w ^ ` ' ' ' ' ' ' ' ' ' ' ' ) E E T 6 O o O                                             ",
"                                    . O f ` ` ' ' ' ' ' ' ' ' ' ' ' ` ` ^ R T T f f 6 . .                                       ",
"                                    . O g ' ` ' ' ' ' ' ' ' ` ` ' ' ` ` ^ E ) ` ] ^ 7 . .                                       ",
"                                    . $ g ' ) ) ` ' ' ' ' ' ` ) ` ' ' ` ) R R T R d & . .                                       ",
"                                    . O f ) ^ E ) ' ' ` ' ` ) E ` ' ' ` ^ R T w w 8 $ . .                                       ",
"                                    . O w ^ d w E ) ` ` ) ) ) ) ` ` ` ^ E E T d 6 O o . .                                       ",
"                                    . O 0 g a a E } ` ` E E ) ` ` ` ^ E R R E T 6 o . . .                                       ",
"                                        : ; j  .-.e.O.^ g a R ) ^ ^ E R T T R R s 9 $ . .                                       ",
"                                        . + x 7.B.G.w.W h a W ^ ^ E E R d w f R T d - . .                                       ",
"                                        . * >.u./.).F.e.+. .9.i.o.E E R d w w d 9 - $                                           ",
"                                        . : ,.'.{.$X_.H.M.w.~.].9.E E R d w w 8 $ .                                             ",
"                                        . > 3.~.@X-X#X`.p.R.XX:XR.) ^ R d 8 6 $ O                                               ",
"                                        . = $.H._.-X-X*X[.'.>X,X~.` ^ R w 8 $ o                                                 ",
"                                        . + j 7.F._.=X&X}. X;X;XT.` ) T 8 $ o .                                                 ",
"                                        . o 6 j 7.H.(.#X#X#X#X_.r.` ^ g 6 . o O                                                 ",
"                                        . o - a x K z.n.n.n.n.z.&.` ^ g - X p F 3 .                                             ",
"                                        . o - 8 @ # v M M M N m | _ ^ f - = J =.i +                                             ",
"                                        . . $ * ; y A f.f.d.b 2 j ` h - p H %.k.#.F 3 . .                                       ",
"                                        . . . O r Z g.j.j.g.5 o h ) 6 + F ;.l.k.x.=.u . .                                       ",
"                                          . . X r } O.&.&...t o g ) 7 @ H l.%.#.=.=.u . .                                       ",
"                                            . X r } { L.L.{ e o h E 0 * H =.@.Z *.=.u . .                                       ",
"                                            . X r } { U.Y.e.h . & e Q ~ x i C J *.=.u . .                                       ",
"                                            . o r } q.P.~.N.K o o : [ 1.k o y J *.=.u . .                                       ",
"                                            . $ ^ q.Q.^.`.(.M.:.( [ <.L.e X y Z *.l.u . .                                       ",
"                                            . : [ P.^.=X-X-X_./.Y.K.U.<.e X y  .#.*.u . .                                       ",
"                                            . % >.E.}.-X-X&X!.r.9.o.' ` 9 X y Z B i 4                                           ",
"                                            . > 2.Z..X&X&X@XQ.1.' C C j ; @ y V 1 .                                             ",
"                                            . > 2.a.Z.A.A.C.i.0.2.+.p ; 5 B Z J 1 .                                             ",
"                                            . > 2.y.u.4.4.3.3.3.4.2.4 O B #.J J 3 .                                             ",
"                                            . > 2.a.y.t.8.U U U c l > . = 3 y 3 =                                               ",
"                                            . > 2.a.y.t.Y M M N 5 O o . . . . .                                                 ",
"                                              + l c c c I f.c.S.s.4.l . .                                                       ",
"                                                . . . # I m.J.oXoX].c .                                                         ",
"                                                      # 5 D c.D.v.6.z .                                                         ",
"                                                        + = I j.d.n < .                                                         ",
"                                                      , 2.t.V.D.h.n < .                                                         ",
"                                                    . , y.OXOX|.c.n < .                                                         ",
"                                                    . , y.OXOX|.c.n < .                                                         ",
"                                                                                                                                ",
"                                                                                                                                ",
"                                                                                                                                ",
"                                                                                                                                ",
"                                                                                                                                ",
"                                                                                                                                ",
"                                                                                                                                ",
"                                                                                                                                ",
"                                                                                                                                ",
"                                                                                                                                ",
"                                                                                                                                "
};
