/* XPM */
static char *out[] = {
/* columns rows colors chars-per-pixel */
"64 64 199 2 ",
"   c None",
".  c #000000",
"X  c #090306",
"o  c #06040A",
"O  c #09050C",
"+  c #0E0C0D",
"@  c #14060A",
"#  c #180505",
"$  c #0B0613",
"%  c #0C0B14",
"&  c #0F0A18",
"*  c #1C0B14",
"=  c #120C1C",
"-  c #180B17",
";  c #0C1219",
":  c #131313",
">  c #1B1B1B",
",  c #2C0707",
"<  c #270C0C",
"1  c #360C0C",
"2  c #220C1A",
"3  c #2D121E",
"4  c #241619",
"5  c #371014",
"6  c #150E22",
"7  c #190F21",
"8  c #170D28",
"9  c #180F28",
"0  c #1B122C",
"q  c #181224",
"w  c #1D1232",
"e  c #161C34",
"r  c #2C0E26",
"t  c #281327",
"y  c #321223",
"u  c #371827",
"i  c #341D2B",
"p  c #3D1A2B",
"a  c #361327",
"s  c #211534",
"d  c #231937",
"f  c #23163B",
"g  c #26193C",
"h  c #281B3E",
"j  c #291737",
"k  c #351A36",
"l  c #172036",
"z  c #232121",
"x  c #2A2A2A",
"c  c #3E2235",
"v  c #3C3C3C",
"b  c #392828",
"n  c #520E0F",
"m  c #541616",
"M  c #671010",
"N  c #68191B",
"B  c #7B1515",
"V  c #761616",
"C  c #41172B",
"Z  c #471A36",
"A  c #541D3B",
"S  c #6F1C24",
"D  c #5B2B2B",
"F  c #4B2337",
"G  c #59213E",
"H  c #562837",
"J  c #403535",
"K  c #712828",
"L  c #753737",
"P  c #673636",
"I  c #191F43",
"U  c #271940",
"Y  c #2A1C45",
"T  c #2D1E4A",
"R  c #321E42",
"E  c #1F2748",
"W  c #1F2654",
"Q  c #2D2247",
"!  c #31214E",
"~  c #382249",
"^  c #333F4B",
"/  c #342353",
"(  c #3C2754",
")  c #39275A",
"_  c #3C295D",
"`  c #372854",
"'  c #2A365B",
"]  c #3B3050",
"[  c #2A356F",
"{  c #3B356B",
"}  c #373A74",
"|  c #431C44",
" . c #492446",
".. c #502943",
"X. c #5D324C",
"o. c #42325E",
"O. c #543256",
"+. c #51314C",
"@. c #662545",
"#. c #6C2C4C",
"$. c #733F4D",
"%. c #742F52",
"&. c #63385C",
"*. c #753052",
"=. c #7D3658",
"-. c #713F59",
";. c #7D3457",
":. c #32505B",
">. c #3B4252",
",. c #34447B",
"<. c #354A7E",
"1. c #434343",
"2. c #4C4B4B",
"3. c #5C5757",
"4. c #5B5B5B",
"5. c #564A50",
"6. c #764459",
"7. c #67585E",
"8. c #6A4752",
"9. c #5A4B6C",
"0. c #674466",
"q. c #7C4662",
"w. c #774E71",
"e. c #6F5578",
"r. c #646464",
"t. c #6B6161",
"y. c #6C6B6B",
"u. c #706364",
"i. c #7F6D7E",
"p. c #717171",
"a. c #626678",
"s. c #892121",
"d. c #952828",
"f. c #862B36",
"g. c #8B3636",
"h. c #A23337",
"j. c #873A5E",
"k. c #83365B",
"l. c #853D42",
"z. c #8A3B61",
"x. c #884848",
"c. c #96494F",
"v. c #835C5C",
"b. c #A4474B",
"n. c #A54040",
"m. c #805177",
"M. c #854E63",
"N. c #A25D71",
"B. c #916D6D",
"V. c #8B6D72",
"C. c #887678",
"Z. c #9C797D",
"A. c #A66177",
"S. c #B56679",
"D. c #AA7F7F",
"F. c #A56767",
"G. c #C46D7F",
"H. c #3B4A83",
"J. c #394A86",
"K. c #3C538E",
"L. c #44548B",
"P. c #45588F",
"I. c #58588A",
"U. c #6B5683",
"Y. c #7D5D82",
"T. c #676782",
"R. c #637F8E",
"E. c #7F6D92",
"W. c #89748B",
"Q. c #996F87",
"!. c #AA748A",
"~. c #C37C8B",
"^. c #CB7B89",
"/. c #D27E8D",
"(. c #C17F93",
"). c #658D9B",
"_. c #979797",
"`. c #8D8797",
"'. c #A38084",
"]. c #B9868C",
"[. c #A69898",
"{. c #AC919D",
"}. c #B58E99",
"|. c #A09FAE",
" X c #AEAEAE",
".X c #C8818E",
"XX c #D0808E",
"oX c #C88A94",
"OX c #D68290",
"+X c #DA8892",
"@X c #DD8C98",
"#X c #DD929C",
"$X c #D0929D",
"%X c #E08F9B",
"&X c #E4949E",
"*X c #D2A6B2",
"=X c #BCAFC0",
"-X c #B6BDC8",
";X c #D9C8D7",
/* pixels */
"                                                                                                                                ",
"                                                                                                                                ",
"                                                                                                                                ",
"                                                                                                                                ",
"                                                                                                                                ",
"                                                                                                                                ",
"                                                                                                                                ",
"                                                                                                                                ",
"                                                  . . . . . . . . . . .       . . .                                             ",
"                                                o O O O O O O O O o o o     O O o .                                             ",
"                                              o 6 w g g h g Y g s 0 0 0 & o 0 d & .                                             ",
"                                            o & s ! ) _ _ _ _ _ ` T T U 6 O g / q .                                             ",
"                                          o 6 s T ` ) _ _ _ _ _ ) / T Y w 8 g T = .                                             ",
"                                        o & s T ` _ _ _ _ _ _ _ _ ) / Y U w f f 6 O                                             ",
"                                      O 6 s T ) _ _ _ _ _ _ _ _ _ ) / Y Y f 8 = 0 g = . .                                       ",
"                                    . o w ! ) _ _ _ _ _ _ _ _ _ _ ) / T Y Y 6 & g ! q . .                                       ",
"                                    . O g ` ) _ _ _ _ _ _ _ _ _ _ _ ) / T Y U U U f = . .                                       ",
"                                    . O h _ _ _ _ _ _ _ _ _ _ _ _ _ _ _ / T / / g 8 $ . .                                       ",
"                                    . $ U _ / / ) _ _ _ _ _ ) / ) _ _ ) ! Y Y U 8 $ O                                           ",
"                                    . O g ) T Y / _ _ _ _ ) T T ) _ ) ) / Y U w $ .                                             ",
"                                    . O d T g w Y ! ) ) ) ! / ) ) ) ) ! T Y Y w & . . . .                                       ",
"                                    . O 0 g s s R ( ) ) ! Y / _ ) ) ! Y Y Y Y Y 6 o . . .                                       ",
"                                        & 7 k ..-.q.O.! w w Q ! / ! T Y Y f Y Y s 9 $ . .                                       ",
"                                        . + c 6.N.S.0.~ g f c ~ ! T T Y f w g Y U g = . .                                       ",
"                                        . % >.r.!.^.N.q.X...9.e.o.Y Y Y U w w U q = %                                           ",
"                                        . ; :.).{.+X/.S.M.0.W.`.9.Q T Y U w 8 8 % .                                             ",
"                                        . : 3.Q.oX&X@X~.W.a.|. XT./ ! Y w w 8 $ O                                               ",
"                                        . * $.S./.&X&X$X`.).-X;XW._ ! Y f 8 $ .                                                 ",
"                                        . + c -.A./.+X#X}.}.*X*XY.) ! Y 8 $ o .                                                 ",
"                                        . X 6 k 6.S.^.+X+X+XOX~.w.) / h = . X O                                                 ",
"                                        . . O = i H x.b.b.b.b.c.&.) ! h = X a F 3 .                                             ",
"                                        . . . . X @ n B B B V N A ) ! g = * G =.C O                                             ",
"                                          . . X 2 a S d.d.s.n 5 k ) f 7 a F %.j.#.F 3 . .                                       ",
"                                            . O r | f.h.h.f.5 o e ! q + F k.k.j.z.=.u . .                                       ",
"                                            . X r Z O.&.&.O.8 o = w E ' &.k.%.#.=.=.u . .                                       ",
"                                            . X r | { ,.,.} e o O ; ' L.0.=.@.A *.=.u . .                                       ",
"                                            . X r | } J.,.[ W I E ' ,.H.( p Z G *.=.u . .                                       ",
"                                            . O r | } K.} } } } J.K.K.<.l O y A *.=.u . .                                       ",
"                                            . % T } L.L.9.m.m.e.I.K.K.<.e X y ..*.k.u . .                                       ",
"                                            . & ' L.P.I.Q.G.^.S.U.H.L.,.e X a A #.*.u . .                                       ",
"                                            . % >.T.E.{.].OXXX~.w.o.o.) q X y A C p 4                                           ",
"                                            . : 2.C.].&X&X&X#X.Xq.Z Z k * @ a Z 2 .                                             ",
"                                            . : 2.C.].&X&X@X].V.7.+.i - y C A A 2 .                                             ",
"                                            . : 2.C.].#X#XoXV.3.4.2.t O C @.@.G 3 .                                             ",
"                                            . + 1.y.C.'.Z.V.t.4.4.2.z X < 3 y 3 *                                               ",
"                                            . + v 4.y.y.r.4.4.4.3.2.z X . . . .                                                 ",
"                                            . + v 4.r.r.r.y.y.t.8.D m 1 # . .                                                   ",
"                                            . : v 4.4.4.r.p.p.u.L B B N 1 .                                                     ",
"                                            . : 1.r.4.4.4.4.2.b K d.c.v.b .                                                     ",
"                                            . : 2.r.t.4.7.2.z # K n.'._.1..                                                     ",
"                                              : x J P x.L D 4 X 1 D C._.1..                                                     ",
"                                                X * K h.s.M , . . : y._.v .                                                     ",
"                                              : 2.t.B.F.g.M , . . : 1.2.> .                                                     ",
"                                            . > p. X X[.x.M , .     . . . .                                                     ",
"                                            . > p. X X[.x.N , .     . . . .                                                     ",
"                                                                                                                                ",
"                                                                                                                                ",
"                                                                                                                                ",
"                                                                                                                                ",
"                                                                                                                                ",
"                                                                                                                                ",
"                                                                                                                                ",
"                                                                                                                                ",
"                                                                                                                                "
};
