/* XPM */
static char *out[] = {
/* columns rows colors chars-per-pixel */
"64 64 200 2 ",
"   c None",
".  c #000000",
"X  c #06040A",
"o  c #09050D",
"O  c #0E0B0D",
"+  c #090407",
"@  c #12060A",
"#  c #110A0B",
"$  c #1C0909",
"%  c #0B0612",
"&  c #0C0B13",
"*  c #0E0A18",
"=  c #140A12",
"-  c #1C0F12",
";  c #110B1C",
":  c #121112",
">  c #1E1114",
",  c #1B1B1B",
"<  c #16101A",
"1  c #0C1315",
"2  c #2D0707",
"3  c #2F0B0B",
"4  c #320C12",
"5  c #241117",
"6  c #3E1819",
"7  c #3B0909",
"8  c #150E22",
"9  c #170E29",
"0  c #180F28",
"q  c #190F21",
"w  c #0F122B",
"e  c #171126",
"r  c #1A122B",
"t  c #15152C",
"y  c #1D1232",
"u  c #191A3A",
"i  c #23122C",
"p  c #2A1424",
"a  c #341524",
"s  c #371827",
"d  c #341D2B",
"f  c #211535",
"g  c #231837",
"h  c #23163B",
"j  c #261A3C",
"k  c #2B1935",
"l  c #341B37",
"z  c #242222",
"x  c #2A2A2A",
"c  c #2D2626",
"v  c #392429",
"b  c #3E2435",
"n  c #383838",
"m  c #510E0F",
"M  c #541616",
"N  c #681111",
"B  c #69161A",
"V  c #7B1515",
"C  c #761616",
"Z  c #44193A",
"A  c #50193B",
"S  c #6E1C24",
"D  c #45262D",
"F  c #5B2B2B",
"G  c #4D2636",
"H  c #552A38",
"J  c #573239",
"K  c #5A3A3E",
"L  c #423939",
"P  c #6A2E2E",
"I  c #7B3B3B",
"U  c #782730",
"Y  c #171C41",
"T  c #271A40",
"R  c #2A1C45",
"E  c #2D1E4A",
"W  c #321E41",
"Q  c #272448",
"!  c #30214E",
"~  c #3B214C",
"^  c #323E4B",
"/  c #342353",
"(  c #3C2754",
")  c #39265A",
"_  c #3C295D",
"`  c #372754",
"'  c #2C3759",
"]  c #2F2F64",
"[  c #3E3A6D",
"{  c #383168",
"}  c #2D3A70",
"|  c #3F3E72",
" . c #353571",
".. c #421D46",
"X. c #481A40",
"o. c #482347",
"O. c #502643",
"+. c #5E324D",
"@. c #402D5B",
"#. c #592C52",
"$. c #42325D",
"%. c #543256",
"&. c #493546",
"*. c #653849",
"=. c #713E4A",
"-. c #673A5C",
";. c #7D3658",
":. c #713855",
">. c #403364",
",. c #533C67",
"<. c #3B4152",
"1. c #31505A",
"2. c #3A447A",
"3. c #434343",
"4. c #4A4A4A",
"5. c #5C5353",
"6. c #5B5A5A",
"7. c #555555",
"8. c #544953",
"9. c #644144",
"0. c #76444B",
"q. c #7F4652",
"w. c #754555",
"e. c #615252",
"r. c #6B475D",
"t. c #5C486B",
"y. c #505871",
"u. c #684562",
"i. c #794868",
"p. c #705373",
"a. c #5A657E",
"s. c #5F6D7F",
"d. c #636363",
"f. c #6E6E6E",
"g. c #686060",
"h. c #736E6E",
"j. c #666A79",
"k. c #727272",
"l. c #8A2121",
"z. c #962828",
"x. c #8C2D31",
"c. c #883A3A",
"v. c #A33639",
"b. c #853D42",
"n. c #8B4C4C",
"m. c #96494F",
"M. c #845D5D",
"N. c #A4474B",
"B. c #815278",
"V. c #9B5D70",
"C. c #8F5163",
"Z. c #A25C70",
"A. c #A1566B",
"S. c #906C6C",
"D. c #806D7E",
"F. c #897474",
"G. c #A56374",
"H. c #B36374",
"J. c #B7687B",
"K. c #BD6A7E",
"L. c #B2647A",
"P. c #AA7E7E",
"I. c #A66767",
"U. c #C16A7D",
"Y. c #3D4C83",
"T. c #3B4E89",
"R. c #334380",
"E. c #3D548E",
"W. c #41568D",
"Q. c #49588B",
"!. c #58598B",
"~. c #7D5E83",
"^. c #556283",
"/. c #706083",
"(. c #627F8E",
"). c #846287",
"_. c #806E92",
"`. c #937687",
"'. c #B0748D",
"]. c #A5758C",
"[. c #C87D8A",
"{. c #D17E8D",
"}. c #648C9B",
"|. c #979797",
" X c #8E8798",
".X c #A9979B",
"XX c #B58E99",
"oX c #A09FAD",
"OX c #AEAEAE",
"+X c #CD858E",
"@X c #D0808E",
"#X c #DA8892",
"$X c #D88B95",
"%X c #D6939E",
"&X c #C68895",
"*X c #E4939E",
"=X c #CFA7B1",
"-X c #D4A5B4",
";X c #B9B6C4",
":X c #DAC9D8",
/* pixels */
"                                                                                                                                ",
"                                                                                                                                ",
"                                                                                                                                ",
"                                                                                                                                ",
"                                                                                                                                ",
"                                                                                                                                ",
"                                                                                                                                ",
"                                                                                                                                ",
"                                                      . . . . . . . . . . .       . . .                                         ",
"                                                    X o o o o % o o o X X X     % o . .                                         ",
"                                                  X e r f j R T j j f r r r & X r f ; .                                         ",
"                                                X & f ! ) _ _ _ _ ) / ! E T 8 % j / e .                                         ",
"                                              X q f E ) _ _ _ _ _ _ ) ) ! T y 9 j E ; .                                         ",
"                                            X % f E ) _ @._ _ _ _ _ _ _ ! R T y j f ; .                                         ",
"                                          X e f E ) ) _ _ _ _ _ _ _ _ _ / R T j 0 & X .                                         ",
"                                        . o y E ) _ _ _ _ _ _ _ _ _ _ _ / E E T e X o o                                         ",
"                                        . o g ) ) _ _ _ _ _ _ _ _ _ _ _ ) / E E T j j g ; . .                                   ",
"                                        . o j _ _ _ _ _ _ _ _ _ _ _ _ _ _ _ ! E / ) ) / e . .                                   ",
"                                        . o j _ ) / ) _ _ _ _ _ / / ) _ _ _ ! E R T R h ; . .                                   ",
"                                        . o j ) E R / _ _ _ _ _ / ! / _ _ ) ! R T y 0 9 % . .                                   ",
"                                        . o f E h h R ! ) _ / ! / / _ _ / ! E R R h 9 % X . .                                   ",
"                                        . o r j y i W ( ) ) ! E / ) _ ) ! E E E R T 8 X . . .                                   ",
"                                            * q l O.:.i.%.E T y R / ! ! E R T T T R f 0 % . .                                   ",
"                                            . O D r.Z.L.i.E k r E / ! E E R h y T R T h ; . .                                   ",
"                                            . 1 ^ j.].[.G.i.+.O.u.p.$.Q ! R g y f h 9 ; %                                       ",
"                                            . 1 1.(.XX$X[.J.C.r.`. Xt.! E R h y y 9 % .                                         ",
"                                            . = 8.].&X*X$X+XD.^.oX;X/.` ! R h y 8 % o                                           ",
"                                            . - 0.K.@X$X*X%X X}.;X:X/.{ / T h 9 % .                                             ",
"                                            . O b :.G.{.$X*XXXXX=X-X~.) ! T 9 % + .                                             ",
"                                            . X ; l q.H.[.#X#X#X$X[.i._ / j ; . + o                                             ",
"                                            . . o ; d J b.N.N.N.N.m.-./ / T ; X a G p .                                         ",
"                                            . . X X X @ m V V V N B O.) ! h * @ H ;.s .                                         ",
"                                          . . X w T y a S z.l.l.m 4 l ) f * o O H b.l .                                         ",
"                                        # # # ; E >.E A U v.v.x.m % g ! 0 X X = G :.a .                                         ",
"                                      - J =.=.0.i.i.#.X.#.u.-.%.r . ; t u Y Y u k a = .                                         ",
"                                    . > q.U.U.U.L.V.:...{ R.2.} u . X * Q  . .] t . . .                                         ",
"                                    . > q.U.U.H.;.H Z ..{ T.T.2.! p Q ] t.B.B.i.v . . .                                         ",
"                                    . 5 0.H.H.C.s o p o.2.E.E.T.( ..[ Q.).'.J.H.J O X .                                         ",
"                                      - D H J D < & Q >.Y.E.E.Y._ o.| W.!.).'.[.I.w.v .                                         ",
"                                        . . . . . 1 ' W.E.E.E.Y._ o.>.W.T.!.].*X*X+XK .                                         ",
"                                              . . 1 <.a.s.^.Q.E.2.{ $.$._ ,.].*X*X+XK .                                         ",
"                                                . : 4.k.k.k.^.E.E.W.$.Z Z O.V.#X$X[.K .                                         ",
"                                                . : 4.k.k.k.j.^.y.y.8.&.d 5 G 9.9.9.v                                           ",
"                                                . : 4.f.k.k.k.k.d.6.6.4.z + . . . .                                             ",
"                                                  : x n 6.k.k.f.d.5.9.P M 7 $ . .                                               ",
"                                                    . : 4.k.k.f.d.5.P V V B 3 .                                                 ",
"                                                    . : 4.k.f.d.6.e.I z.m.g.D .                                                 ",
"                                                    . : 4.k.d.7.6.5.c.v.XX|.3..                                                 ",
"                                                    . : 4.f.d.7.n x 6 F F.|.3..                                                 ",
"                                                    . : 4.f.d.7.z + . : d.|.3..                                                 ",
"                                                    . : 4.f.f.d.4.x : O n 3.q .                                                 ",
"                                                    . : 4.f.f.f.d.4.z . . . . .                                                 ",
"                                                      : x L 0.n.I F 5 . .                                                       ",
"                                                        . - S v.l.N 3 .                                                         ",
"                                                      < 4.g.S.I.c.N 3 .                                                         ",
"                                                    . , h.OXOX.Xn.N 2 .                                                         ",
"                                                    . , f.OXOX.Xn.N 2 .                                                         ",
"                                                                                                                                ",
"                                                                                                                                ",
"                                                                                                                                ",
"                                                                                                                                ",
"                                                                                                                                ",
"                                                                                                                                ",
"                                                                                                                                "
};
