/* XPM */
static char *out[] = {
/* columns rows colors chars-per-pixel */
"64 64 203 2 ",
"   c None",
".  c #000000",
"X  c #06040A",
"o  c #0A050C",
"O  c #0E0A0C",
"+  c #170707",
"@  c #180707",
"#  c #12070B",
"$  c #1B0A0A",
"%  c #130C0C",
"&  c #0C0613",
"*  c #0D0A14",
"=  c #0F0A18",
"-  c #1C0B13",
";  c #120C1D",
":  c #19091A",
">  c #131213",
",  c #1A1A1A",
"<  c #13131C",
"1  c #0C1316",
"2  c #2D0707",
"3  c #2B0A0A",
"4  c #3E0F0F",
"5  c #230D1B",
"6  c #2C111D",
"7  c #261619",
"8  c #361819",
"9  c #320C13",
"0  c #150E22",
"q  c #1A0F21",
"w  c #170E29",
"e  c #180F28",
"r  c #1B122C",
"t  c #16152A",
"y  c #1E1232",
"u  c #161D33",
"i  c #2C0E26",
"p  c #281428",
"a  c #361525",
"s  c #381728",
"d  c #211534",
"f  c #231837",
"g  c #23163B",
"h  c #26193C",
"j  c #281B3E",
"k  c #291737",
"l  c #361A37",
"z  c #172036",
"x  c #1F243A",
"c  c #222222",
"v  c #2A2A2A",
"b  c #3E2234",
"n  c #333333",
"m  c #3D3D3D",
"M  c #383636",
"N  c #352525",
"B  c #520E0F",
"V  c #401212",
"C  c #551616",
"Z  c #681313",
"A  c #6A1B1E",
"S  c #7B1515",
"D  c #781919",
"F  c #41192C",
"G  c #521C3B",
"H  c #6F1C24",
"J  c #5D2E2E",
"K  c #472537",
"L  c #54243B",
"P  c #5C283A",
"I  c #4B313D",
"U  c #5C3232",
"Y  c #6E2222",
"T  c #642C2C",
"R  c #783D3D",
"E  c #613434",
"W  c #271940",
"Q  c #2A1C45",
"!  c #2D1E4A",
"~  c #321E42",
"^  c #1F2543",
"/  c #2F204B",
"(  c #292647",
")  c #30214D",
"_  c #382249",
"`  c #333F4B",
"'  c #342353",
"]  c #3C2754",
"[  c #39275A",
"{  c #3C295D",
"}  c #372854",
"|  c #2C3A5E",
" . c #3B356B",
".. c #3F3E72",
"X. c #2C396F",
"o. c #431C44",
"O. c #492446",
"+. c #502943",
"@. c #5D324C",
"#. c #543256",
"$. c #4F3257",
"%. c #692A4A",
"&. c #6F3D48",
"*. c #733F4D",
"=. c #732F51",
"-. c #64395C",
";. c #7C3557",
":. c #713F59",
">. c #7A3456",
",. c #32505B",
"<. c #354A7E",
"1. c #334477",
"2. c gray27",
"3. c #4D4C4C",
"4. c #484749",
"5. c #555555",
"6. c #5B5B5B",
"7. c #5C4A56",
"8. c #6A4457",
"9. c #77435B",
"0. c #645E5E",
"q. c #7F5959",
"w. c #5B4867",
"e. c #51526F",
"r. c #674562",
"t. c #7D4664",
"y. c #784E72",
"u. c #675874",
"i. c #5B667F",
"p. c #636262",
"a. c #6C6C6C",
"s. c #6C6162",
"d. c #746B6C",
"f. c #7F6D7E",
"g. c #717171",
"h. c #626678",
"j. c #8A1F1F",
"k. c #8A2121",
"l. c #972929",
"z. c #862B36",
"x. c #A52E2E",
"c. c #A33337",
"v. c #863C51",
"b. c #8A3B61",
"n. c #8D4B4B",
"m. c #96464C",
"M. c #955050",
"N. c #A4474B",
"B. c #A54343",
"V. c #854E63",
"C. c #A25D71",
"Z. c #87696C",
"A. c #877879",
"S. c #927276",
"D. c #AA6E6E",
"F. c #A66177",
"G. c #B56679",
"H. c #C46D7F",
"J. c #384C88",
"K. c #364581",
"L. c #3C548F",
"P. c #40568D",
"I. c #44558A",
"U. c #595B8E",
"Y. c #7D5D82",
"T. c #6F5B85",
"R. c #636B82",
"E. c #6F6083",
"W. c #637F8E",
"Q. c #7F6D92",
"!. c #89748B",
"~. c #9B7A84",
"^. c #966686",
"/. c #A47B84",
"(. c #AD7D83",
"). c #AB728C",
"_. c #C47C8B",
"`. c #CB7B89",
"'. c #D27E8D",
"]. c #C17F93",
"[. c #658D9B",
"{. c #8E8E8E",
"}. c gray58",
"|. c #8D8797",
" X c #B7848A",
".X c #AC919D",
"XX c #B18A91",
"oX c #A09FAE",
"OX c #AEAEAE",
"+X c #C8818E",
"@X c #D0808E",
"#X c #C98A94",
"$X c #D68290",
"%X c #DA8892",
"&X c #DD8C98",
"*X c #DD929C",
"=X c #D0929D",
"-X c #E08F9B",
";X c #E4949E",
":X c #D2A6B2",
">X c #BCAFC0",
",X c #B6BDC8",
"<X c #D9C8D7",
/* pixels */
"                                                                                                                                ",
"                                                                                                                                ",
"                                                                                                                                ",
"                                                                                                                                ",
"                                                                                                                                ",
"                                                                                                                                ",
"                                                                                                                                ",
"                                                                                                                                ",
"                                                  . . . . . . . . . . .                                                         ",
"                                                X X o o o & o & o X X X                                                         ",
"                                              X 0 y h h h h Q g d r r r = . . . . .                                             ",
"                                            X * d ) [ { { { { { ' ! ! W ; X X o . .                                             ",
"                                          X e d / ' [ { { { { { [ } ! Q y w y f ; .                                             ",
"                                        X * d ! } { { { { { { { { [ ' Q W y Q / 0 .                                             ",
"                                      o 0 d ! [ { { { { { { { { { [ ' Q Q g y 0 ;                                               ",
"                                    . o y ) [ { { { { { { { { { { [ ' ! ! W 0 o                                                 ",
"                                    . o h } [ { { { { { { { { { { { [ ' ! Q W g ; .                                             ",
"                                    . o j { [ { { { { { { { { [ { { { { ' ! ' ' r o                                             ",
"                                    . & Q { ' ' [ { { { { { ' ' [ { { { ' Q Q W j f ; . .                                       ",
"                                    . o h ' ! ! ' [ { { { [ ' ) ' { { ' ) Q W y Q / 0 . .                                       ",
"                                    . o f ! h y Q ' [ [ ' ' ' } { { ' ' ! Q Q W y ; o . .                                       ",
"                                    . o r h d d ~ ] [ [ ! Q ' [ { ' ) ! Q Q Q Q 0 X . . .                                       ",
"                                        = q l +.:.V.#.! W g Q ' ) ! ! ! W W Q Q d e * . .                                       ",
"                                        . O K 8.C.G.r.~ k y ~ ] / ! ! Q g y h Q W h ; . .                                       ",
"                                        . * ,.u./.`.F.t.@.O.w.u.$.( Q Q g y g y t ; &                                           ",
"                                        . 1 ,.W.XX*X'.G.V.8.!.}.e.! ! Q g y y w & .                                             ",
"                                        . > 7.~.#X;X&X_.f.R.oX>XT.' ) Q g w 0 & o                                               ",
"                                        . - *.G.`.;X;X=X|.[.,X<XQ.{ ' Q y w & X                                                 ",
"                                        . O l 9.F.'.%X*X.X.X:X:XY.{ ' Q w & &                                                   ",
"                                        . X 0 l 9.G.`.%X%X%X%X_.y.[ ) h 0 .                                                     ",
"                                        . X ; d K U v.B.N.B.N.m.-.} ) W ; . . .                                                 ",
"                                        . X ; w & + B S j.S Z Z o.[ / h : # o o                                                 ",
"                                        . . o & i i H l.l.j.B 9 l [ d : l L L K 6 .                                             ",
"                                        . . . o i G z.c.c.z.8 o h ] 0 O P b.b.;.a .                                             ",
"                                          . . X i G #.-.-.#.p o h ' q # s =.v.>.s .                                             ",
"                                            . o i ~  .1.<.X.t X d ) t & a G =.>.a .                                             ",
"                                            . o i o. .J.J.1.u X ; u ^ ( d i %.>.s .                                             ",
"                                            . o i o...L.J.<.x o # < | K.z # L >.a .                                             ",
"                                            . * ! ..J.L.J.I.w.&.&.&.e.<.u O L ;.s .                                             ",
"                                            X 0 | P.P.P.I.U.^._.H.).T.1.u O L >.a .                                             ",
"                                          > n 4.e.i.i.R.!.XX+X$X'._.y.} : X 5 s 6                                               ",
"                                        X , 3.g.g.g.g.g. X;X;X;X*X+X:.s 5 X . .                                                 ",
"                                      > n 3.p.g.a.p.p.d. X;X;X*X XZ.+.5 i a - .                                                 ",
"                                    . > 3.g.g.a.p.5.5.s.(.*X;X#XZ.3.c # F P 5 .                                                 ",
"                                    . > 3.g.a.6.m v 4.0.g.S. XS.d.3.c . 5 6 -                                                   ",
"                                    . > 3.d.0.4.c O M 5.6.5.p.g.p.3.c . . .                                                     ",
"                                    . $ E n.R T C 4 8 v v n 5.g.p.3.c . .                                                       ",
"                                    . @ Y l.j.S D A 3 . . % 4.g.p.5.c .                                                         ",
"                                      $ V C D l.M.q.N . . > 4.g.p.3.c .                                                         ",
"                                        . $ Y B.XX}.m . . > 4.a.p.5.c X                                                         ",
"                                          @ V T A.}.m . . O v m 5.0.2.v ,                                                       ",
"                                            . , g.{.m .     . > 4.d.p.3.c .                                                     ",
"                                              > m 4., .     . % U n.R J 9 .                                                     ",
"                                                . . . .     . + Y x.j.Z 3 .                                                     ",
"                                                            . $ Y x.j.Z 3 .                                                     ",
"                                                            X $ Y x.j.Z 3 .                                                     ",
"                                                          , 4.p.Z.D.M.                                                          ",
"                                                        . , d.OXOXOX                                                            ",
"                                                        . , d.OXOXOX                                                            ",
"                                                                                                                                ",
"                                                                                                                                ",
"                                                                                                                                ",
"                                                                                                                                ",
"                                                                                                                                "
};
