/* XPM */
static char *out[] = {
/* columns rows colors chars-per-pixel */
"64 64 206 2 ",
"   c None",
".  c #000000",
"X  c #06040A",
"o  c #09060D",
"O  c #0E0B0D",
"+  c #0B0607",
"@  c #12070A",
"#  c #130B0B",
"$  c #1B0A0A",
"%  c #0C0613",
"&  c #0D0A15",
"*  c #0C0B18",
"=  c #140914",
"-  c #1B0E12",
";  c #120C1D",
":  c #1E0A1E",
">  c #141313",
",  c #1F1114",
"<  c #191919",
"1  c #0C1316",
"2  c #2D0707",
"3  c #320C13",
"4  c #281419",
"5  c #3D1314",
"6  c #240F19",
"7  c #150E22",
"8  c #1A0F21",
"9  c #170E29",
"0  c #180F28",
"q  c #1B122D",
"w  c #15152B",
"e  c #1E1232",
"r  c #1B1934",
"t  c #141A36",
"y  c #261326",
"u  c #361725",
"i  c #361429",
"p  c #211534",
"a  c #231837",
"s  c #23163B",
"d  c #26193C",
"f  c #281B3E",
"g  c #291737",
"h  c #351C39",
"j  c #192037",
"k  c #222121",
"l  c #2C2B2B",
"z  c #392A2B",
"x  c #3E2234",
"c  c #373737",
"v  c #520E0F",
"b  c #561212",
"n  c #681111",
"m  c #66141B",
"M  c #7B1515",
"N  c #721212",
"B  c #441D2F",
"V  c #51193B",
"C  c #6F1C24",
"Z  c #582929",
"A  c #4F2436",
"S  c #4B2A31",
"D  c #402736",
"F  c #55243B",
"G  c #562E36",
"H  c #553138",
"J  c #58393D",
"K  c #593638",
"L  c #492F34",
"P  c #6B2020",
"I  c #702525",
"U  c #783E3E",
"Y  c #653939",
"T  c #271940",
"R  c #2A1C45",
"E  c #2D1E4A",
"W  c #321E42",
"Q  c #2F224B",
"!  c #272245",
"~  c #30214D",
"^  c #382249",
"/  c #333F4B",
"(  c #342353",
")  c #3C2754",
"_  c #39275A",
"`  c #3C295D",
"'  c #372754",
"]  c #2E3457",
"[  c #2F2F64",
"{  c #2C396F",
"}  c #3E396C",
"|  c #393268",
" . c #3F3E72",
".. c #431C44",
"X. c #482448",
"o. c #542744",
"O. c #5B3745",
"+. c #412F5C",
"@. c #543256",
"#. c #4F3257",
"$. c #6C2E4C",
"%. c #6A3946",
"&. c #733F4D",
"*. c #6F3453",
"=. c #64395C",
"-. c #7C3557",
";. c #713F59",
":. c #733150",
">. c #403363",
",. c #533B65",
"<. c #32505B",
"1. c #364579",
"2. c #4C4C4C",
"3. c #474646",
"4. c #555454",
"5. c #5B5B5B",
"6. c #5A5656",
"7. c #554858",
"8. c #654246",
"9. c #7A434F",
"0. c #67475A",
"q. c #7E4552",
"w. c #76445A",
"e. c #635858",
"r. c #5C486B",
"t. c #4C5771",
"y. c #535369",
"u. c #674562",
"i. c #7D4664",
"p. c #6D4A71",
"a. c #7B4E72",
"s. c #675874",
"d. c #5B667F",
"f. c #5A6171",
"g. c #636363",
"h. c #6D6D6D",
"j. c #686060",
"k. c #766868",
"l. c #6D6F75",
"z. c #626678",
"x. c #7F6D7E",
"c. c #727272",
"v. c #8A2121",
"b. c #962525",
"n. c #862B36",
"m. c #943838",
"M. c #A23337",
"N. c #84395D",
"B. c #853D42",
"V. c #8B4C4C",
"C. c #844A4A",
"Z. c #8A4D55",
"A. c #A4474B",
"S. c #854E63",
"D. c #AE5D73",
"F. c #A25D71",
"G. c #A55B6B",
"H. c #906C6C",
"J. c #9D647E",
"K. c #AB6174",
"L. c #A76379",
"P. c #B46375",
"I. c #B4667A",
"U. c #B8687B",
"Y. c #BD737F",
"T. c #A66F72",
"R. c #C26B7E",
"E. c #3D4B82",
"W. c #384C88",
"Q. c #334380",
"!. c #3D548D",
"~. c #40568D",
"^. c #4B5789",
"/. c #515F83",
"(. c #7D5D82",
"). c #685A84",
"_. c #576381",
"`. c #686782",
"'. c #637F8E",
"]. c #7F6D92",
"[. c #916283",
"{. c #947688",
"}. c #AA7684",
"|. c #C67C89",
" X c #D27E8D",
".X c #658D9B",
"XX c #8D8797",
"oX c #AF8C98",
"OX c #BA8F9A",
"+X c #A9979B",
"@X c #A09FAE",
"#X c #AEAEAE",
"$X c #CA848C",
"%X c #D0808E",
"&X c #D68290",
"*X c #D78C95",
"=X c #DA8892",
"-X c #DD8C98",
";X c #D6939E",
":X c #C68995",
">X c #E08F9B",
",X c #E4949E",
"<X c #D2A6B2",
"1X c #BCAFC0",
"2X c #B6BDC8",
"3X c #D9C8D7",
/* pixels */
"                                                                                                                                ",
"                                                                                                                                ",
"                                                                                                                                ",
"                                                                                                                                ",
"                                                                                                                                ",
"                                                                                                                                ",
"                                                                                                                                ",
"                                                                                                                                ",
"                                                  . . . . . . . . . . .                                                         ",
"                                                X X o o o o o o o X X X                                                         ",
"                                              X 7 e s d f d R s p q q q ; . . . . .                                             ",
"                                            X & p ~ _ ` ` ` ` ` ( E E T ; X X X X .                                             ",
"                                          X 7 p Q _ _ _ ` ` ` ` _ ' E R e 7 p a & .                                             ",
"                                        X & p E ' ` ` ` ` ` ` ` ` _ ( R T r R E 7 .                                             ",
"                                      o 7 p E _ ` ` ` ` ` ` ` ` ` _ ( R R s e 7 ;                                               ",
"                                    . o e ~ _ ` ` ` ` ` ` ` ` ` ` ` ( E R R 7 o                                                 ",
"                                    . o a _ _ ` ` ` ` ` ` ` ` ` ` ` _ ( E R T s ; .                                             ",
"                                    . o f ` ` ` ` ` ` ` ` ` ` _ ` ` ` ` ( E ( ( q o                                             ",
"                                    . % T _ ( ( _ ` ` ` ` ` _ ( _ ` ` ` ( R R R f a ; . .                                       ",
"                                    . o d _ Q R ( _ ` ` ` _ ( E ( ` _ _ ~ R T e R Q 7 . .                                       ",
"                                    . o p Q s s R ( _ _ ' ( ( ' _ ` ( ~ E R R s e ; o . .                                       ",
"                                    . o q d p p W ' _ _ E R ( _ ` _ ~ E R R R R 7 X . . .                                       ",
"                                        * 8 i o.;.i.@.E s s R ~ ~ E E E T T R R a 0 % . .                                       ",
"                                        . # D 0.F.I.;.^ g p ^ ) Q E E R s e s R R a ; . .                                       ",
"                                        . & <.g.}. XF.i.O.X.r.z.>.R E R s e s s 0 ; %                                           ",
"                                        . 1 <.'.oX-X X}.S.0.{.XXr.~ E R s e 9 9 % .                                             ",
"                                        . > 0.{.:X,X>X|.[.d.@X1X`.( ~ R s 9 9 % o                                               ",
"                                        . - &.U. X>X>X*XXX.X2X3X{._ ~ R e 9 o X                                                 ",
"                                        . O h ;.D. X>X-XOXoX<X<X(._ ( T 9 % X                                                   ",
"                                        . X 7 h i.I.|.=X=X=X=X|.a._ ( f 7 X                                                     ",
"                                        . X ; p x G B.A.A.A.A.V.=.( ( f ; . . .                                                 ",
"                                        . X ; 9 % @ v M M M N m .._ E d ; @ + o                                                 ",
"                                        . . % = : i C b.b.v.b 3 h ) p 8 i F F A 4 X                                             ",
"                                        . . X = i V n.M.M.n.5 X f ( 7 @ F N.N.-.u .                                             ",
"                                        . # S %.o.V @.=.0.@.y X f ( 8 X 6 B $.-.u .                                             ",
"                                        # 4 C.D.:.W | Q.Q.{ t o a E 0 X . O F -.u .                                             ",
"                                      6 G N.G.D.*.E >.W.!.1.t . * t t t * @ F -.u .                                             ",
"                                    . , C.R.R.D.*.X.>.~.!.1.j . X * Q [ r - F :.u .                                             ",
"                                    . , N.R.|.[.). .!.!.!.1.( y ! ] u.a.w.%.A u = .                                             ",
"                                    . , B.D.D.D.).~.~.!.E.~.| X.} ^.[.R.R.K.S . . .                                             ",
"                                      - S G G O.5._._._.^.!.1.>.>.,.L.&X&XY.H . .                                               ",
"                                        . . . > 2.c.c.c./.!.~.1.+.o.L.,X,X$XJ .                                                 ",
"                                        . + l 2.5.c.c.c.f.t.t.t.7.0.}.,X,X$XJ .                                                 ",
"                                        . 1 2.c.c.c.c.c.g.5.5.5.4.g.T.*X*X|.J .                                                 ",
"                                        . > 2.c.h.g.g.g.h.g.5.4.c l J 8.8.8.z                                                   ",
"                                        . > 2.g.5.4.5.5.h.h.g.4.k . . . . .                                                     ",
"                                          1 l l l z Y C.k.h.g.2.k . .                                                           ",
"                                            . . . $ P m.Z.h.g.2.k .                                                             ",
"                                                  $ 5 Z e.h.g.2.k .                                                             ",
"                                                    . O 3.h.g.2.k X                                                             ",
"                                                      O l c 4.j.3.l <                                                           ",
"                                                        . # 3.c.j.2.k .                                                         ",
"                                                        . # Z V.U Z 4 .                                                         ",
"                                                        + - P M.v.n 2 .                                                         ",
"                                                      < 3.j.H.T.m.n 2 .                                                         ",
"                                                    . < c.#X#X+XV.n 2 .                                                         ",
"                                                    . < c.#X#X+XV.n 2 .                                                         ",
"                                                                                                                                ",
"                                                                                                                                ",
"                                                                                                                                ",
"                                                                                                                                ",
"                                                                                                                                ",
"                                                                                                                                ",
"                                                                                                                                "
};
