/* XPM */
static char *out[] = {
/* columns rows colors chars-per-pixel */
"64 64 205 2 ",
"   c None",
".  c #000000",
"X  c #0B0406",
"o  c #06040A",
"O  c #09060D",
"+  c #0D0B0C",
"@  c #110A0B",
"#  c #190708",
"$  c #0C0713",
"%  c #0C0A14",
"&  c #0F0A19",
"*  c #130B14",
"=  c #1B0E12",
"-  c #110B1C",
";  c #1E0A1E",
":  c #141414",
">  c #1F1114",
",  c #1B1B1B",
"<  c #0C1316",
"1  c #2C0707",
"2  c #320C13",
"3  c #231C1C",
"4  c #2A181C",
"5  c #271316",
"6  c #370E0F",
"7  c #150E22",
"8  c #170E29",
"9  c #180F28",
"0  c #190F21",
"q  c #0E1129",
"w  c #1D1524",
"e  c #1B122C",
"r  c #14162E",
"t  c #1D1232",
"y  c #181C39",
"u  c #251628",
"i  c #331623",
"p  c #32142A",
"a  c #351829",
"s  c #211534",
"d  c #231937",
"f  c #23163B",
"g  c #26193C",
"h  c #281B3E",
"j  c #2B1935",
"k  c #351C39",
"l  c #192037",
"z  c #242323",
"x  c #2A2A2B",
"c  c #2A272F",
"v  c #3E2234",
"b  c #333334",
"n  c #3B3B3C",
"m  c #302929",
"M  c #520E0F",
"N  c #591414",
"B  c #4B0D0D",
"V  c #651010",
"C  c #6A1111",
"Z  c #66141B",
"A  c #7A1414",
"S  c #721212",
"D  c #51193B",
"F  c #6F1C24",
"G  c #422428",
"H  c #582D2D",
"J  c #4B2A31",
"K  c #4A2738",
"L  c #542C37",
"P  c #53333A",
"I  c #56393D",
"U  c #48393E",
"Y  c #6A3232",
"T  c #733232",
"R  c #271940",
"E  c #2A1C45",
"W  c #2D1E4A",
"Q  c #321E42",
"!  c #2F234B",
"~  c #2B2247",
"^  c #31214E",
"/  c #382249",
"(  c #393E46",
")  c #342353",
"_  c #3C2754",
"`  c #39275A",
"'  c #3C295D",
"]  c #372754",
"[  c #2E2F64",
"{  c #2C396F",
"}  c #3B356B",
"|  c #3F3E72",
" . c #431C44",
".. c #492446",
"X. c #542745",
"o. c #5D324C",
"O. c #402F5E",
"+. c #543256",
"@. c #4F3257",
"#. c #663947",
"$. c #73384E",
"%. c #6F3453",
"&. c #64395C",
"*. c #713F59",
"=. c #32505B",
"-. c #364579",
";. c #434343",
":. c #4B4B4B",
">. c #4D4646",
",. c #514C4C",
"<. c #4F485C",
"1. c #545454",
"2. c #5B5555",
"3. c #5C5C5C",
"4. c #5C4A56",
"5. c #76424F",
"6. c #7E4552",
"7. c #76445A",
"8. c #665E5E",
"9. c #7B565F",
"0. c #684555",
"q. c #4C5772",
"w. c #49587B",
"e. c #545C74",
"r. c #574E6B",
"t. c #674562",
"y. c #794866",
"u. c #6D4A71",
"i. c #6F5273",
"p. c #59637D",
"a. c #626262",
"s. c #6C6C6C",
"d. c #676567",
"f. c #726C6C",
"g. c #616678",
"h. c #7D6B7A",
"j. c #727272",
"k. c #821A1A",
"l. c #8A2121",
"z. c #942424",
"x. c #862B36",
"c. c #8A3535",
"v. c #A33336",
"b. c #853D42",
"n. c #894949",
"m. c #96484E",
"M. c #834955",
"N. c #805555",
"B. c #A4474B",
"V. c #AA5E5E",
"C. c #854E63",
"Z. c #8E5B62",
"A. c #AE5D73",
"S. c #A25D71",
"D. c #A55B6B",
"F. c #8E6B6B",
"G. c #946067",
"H. c #906D73",
"J. c #A26077",
"K. c #AB6274",
"L. c #AB657B",
"P. c #B46375",
"I. c #B4667A",
"U. c #B8687B",
"Y. c #AB7070",
"T. c #AE6C72",
"R. c #C16A7D",
"E. c #3C4B82",
"W. c #384C88",
"Q. c #334380",
"!. c #3D548D",
"~. c #535C8D",
"^. c #425584",
"/. c #7D5D82",
"(. c #675983",
"). c #686782",
"_. c #637F8E",
"`. c #7F6D92",
"'. c #947688",
"]. c #A7768A",
"[. c #BD7882",
"{. c #A17A95",
"}. c #C46D80",
"|. c #C87C8B",
" X c #D27E8D",
".X c #658D9B",
"XX c #9F9191",
"oX c #8D8797",
"OX c #AF8C98",
"+X c #BA8F9A",
"@X c #AA9399",
"#X c #A09FAE",
"$X c #AFAFAF",
"%X c #D0808E",
"&X c #DA8993",
"*X c #DC8D98",
"=X c #D68692",
"-X c #D8929C",
";X c #C68995",
":X c #E08F9B",
">X c #E4949E",
",X c #D2A6B2",
"<X c #BCAFC0",
"1X c #B6BDC8",
"2X c #D9C8D7",
/* pixels */
"                                                                                                                                ",
"                                                                                                                                ",
"                                                                                                                                ",
"                                                                                                                                ",
"                                                                                                                                ",
"                                                                                                                                ",
"                                                                                                                                ",
"                                                                                                                                ",
"                                                  . . . . . . . . . . .       . . .                                             ",
"                                                o o O O O O O $ O o o o     + O . .                                             ",
"                                              o 7 s f h h h R R s e e e $ O e d & .                                             ",
"                                            o $ s ^ ] ' ' ' ' ' ) W ! R 7 $ d ) 7 .                                             ",
"                                          o 9 s E ` ` ' ' ' ' ' ` ) W E t 9 h E 7 .                                             ",
"                                        o $ s W ] ' ' ' ' ' ' ' ' ` ) E f t f f 7 +                                             ",
"                                      o 7 s W ] ' ' ' ' ' ' ' ' ' ` ) E E f e - e f - . .                                       ",
"                                    . O t ^ ` ' ' ' ' ' ' ' ' ' ' ' ) W W R 9 $ f ^ 0 . .                                       ",
"                                    . O d ` ` ' ' ' ' ' ' ' ' ' ' ' ` ` ^ E R f R f - . .                                       ",
"                                    . O h ' ' ' ' ' ' ' ' ' ' ` ' ' ` ` ) W ) ) g 9 $ . .                                       ",
"                                    . $ h ' ) ) ` ' ' ' ' ' ) ) ` ' ' ' ^ E E R 9 $ O                                           ",
"                                    . O h ` W E ) ' ' ' ' ` ) ^ ` ' ` ` ^ E f t $ .                                             ",
"                                    . O t ! f t E ) _ ` ) ) ) ] ` ` ` W W E E f & . . . .                                       ",
"                                    . O e h s s W _ ` ` W W ) ' ` ` ^ W E E E E 7 o . . .                                       ",
"                                        % ; k X.%.C.@.^ g s E ^ ^ W W W R R R E s e $ . .                                       ",
"                                        . + v 7.D.].*.Q j s ~ / ! W W E f t h E R f - . .                                       ",
"                                        . % =.d.].|.S.C.o...t.g.O.! W E y t f t 9 & %                                           ",
"                                        . < =._.OX*X XI.C.t.'.oXr.W W E R t t 8 $ .                                             ",
"                                        . : 4.'.;X>X&X|.h.).#X<X(.) ^ E f t 7 $ +                                               ",
"                                        . 5 $.U. X:X:X-XoX.X1X2X'.` ) E f 8 $ .                                                 ",
"                                        . + k *.L. X:X*X+X@X,X,X/.` ) R 8 $ O                                                   ",
"                                        . o 7 k 7.I.|.&X&X&X&X|.u.` ) R & .                                                     ",
"                                        . o - s v L b.B.B.B.B.m.%.` ^ h - . . .                                                 ",
"                                        . o - 8 & # M A A A S Z ..` W f - . X O                                                 ",
"                                        . . O & ; p F z.z.l.M 2 k ] s - o X i K 4 .                                             ",
"                                        . . X # p D b.v.v.c.6 O h ) 7 . o * D %.i .                                             ",
"                                        . @ J $.D  .o.&.&.+.w O g ) 0 o q y j i = .                                             ",
"                                        @ 4 M.A.%. .} Q.Q.{ r o d ^ u * ~ [ r . . .                                             ",
"                                      = L M.D.A.%. .| W.W.-.r o * s P 5.y.y.c . . .                                             ",
"                                    . 5 *.}.R.A.%. .| !.!.-.y o + 4 6.R.}.K.J . . .                                             ",
"                                    . > M.}.}.].u.| W.!.!.E.^ a o.Z.U.=X=X[.P . . .                                             ",
"                                    . 5 b.A.A.S.(.^.W.!.!.^.O.X.T.>X>X>X*X[.P . . .                                             ",
"                                      = G L P P 1.q.q.w.!.W.-.r.].>X>X*XG.I 3 . .                                               ",
"                                        . . . % n 2.2.3.w.!.!.~.{.-X-X[.I o . .                                                 ",
"                                          . . + n 3.a.d.g.p.e.e.f.H.9.0.U x : .                                                 ",
"                                            . + n 3.s.j.j.s.a.3.1.:.c , n 1.z o                                                 ",
"                                            . : =.8.f.j.d.a.3.1.n c b n :.1.U x ,                                               ",
"                                            + : :.j.j.f.a.1.1.:.w + b 1.2.2.8.,.z .                                             ",
"                                          + b :.a.j.d.3.n x x x , + z m J Y Y H 5 .                                             ",
"                                        . < :.j.j.s.a.:.z . . .     . X B A A C 1 .                                             ",
"                                        . : :.j.s.3.n z :           . # N z.k.C 1 .                                             ",
"                                        X , >.f.8.>.z .             X = T v.l.C 1 .                                             ",
"                                      , :.8.9.n.b.H 5 .           : >.a.F.Y.m.                                                  ",
"                                    . , j.@XV.v.l.V 1 .         . , f.$X$X$X                                                    ",
"                                      , =.2.F.V.c.V 1 .                                                                         ",
"                                        . , j.XX6.V 1 .                                                                         ",
"                                          > ;.>.G 1 1                                                                           ",
"                                            . . . .                                                                             ",
"                                            . . . .                                                                             ",
"                                                                                                                                ",
"                                                                                                                                ",
"                                                                                                                                ",
"                                                                                                                                ",
"                                                                                                                                ",
"                                                                                                                                ",
"                                                                                                                                "
};
