/* XPM */
static char *out[] = {
/* columns rows colors chars-per-pixel */
"64 64 204 2 ",
"   c None",
".  c #000000",
"X  c #090307",
"o  c #06040A",
"O  c #0A050C",
"+  c #0D090C",
"@  c #160606",
"#  c #180606",
"$  c #14060A",
"%  c #1B0A0A",
"&  c #150B0B",
"*  c #0B0613",
"=  c #0D0B14",
"-  c #0F0A18",
";  c #1C0C14",
":  c #120C1C",
">  c #160A19",
",  c #131313",
"<  c #191919",
"1  c #1A151C",
"2  c #0C1316",
"3  c #2E0707",
"4  c #2C0909",
"5  c #230C19",
"6  c #2D121E",
"7  c #261619",
"8  c #370D10",
"9  c #150E22",
"0  c #190F21",
"q  c #170D28",
"w  c #180F28",
"e  c #1B122C",
"r  c #16152A",
"t  c #1E1232",
"y  c #161D33",
"u  c #2C0E26",
"i  c #281327",
"p  c #321224",
"a  c #371827",
"s  c #3D1A2B",
"d  c #3A1428",
"f  c #211534",
"g  c #231837",
"h  c #23163B",
"j  c #26193C",
"k  c #281A3C",
"l  c #371B38",
"z  c #172036",
"x  c #1F243A",
"c  c #222121",
"v  c #292929",
"b  c #28262D",
"n  c #3A2236",
"m  c #3D3D3E",
"M  c gray20",
"N  c #31272B",
"B  c #520E0F",
"V  c #401212",
"C  c #551717",
"Z  c #691313",
"A  c #691B1E",
"S  c #7B1515",
"D  c #7B1C1C",
"F  c #721212",
"G  c #4A1C34",
"H  c #4A1C34",
"J  c #541D3C",
"K  c #6F1C24",
"L  c #5D2D2D",
"P  c #492336",
"I  c #51233A",
"U  c #59213E",
"Y  c #5B2F36",
"T  c #5B3131",
"R  c #6E2222",
"E  c #642D2D",
"W  c #603434",
"Q  c #793D3D",
"!  c #271940",
"~  c #2A1C45",
"^  c #2D1E4A",
"/  c #321E42",
"(  c #1F2543",
")  c #2F204B",
"_  c #2A2648",
"`  c #30214D",
"'  c #382249",
"]  c #393E46",
"[  c #342353",
"{  c #39275A",
"}  c #3C295D",
"|  c #392754",
" . c #2B385D",
".. c #3B356B",
"X. c #3F3E72",
"o. c #2C396F",
"O. c #431C44",
"+. c #492446",
"@. c #543256",
"#. c #50304D",
"$. c #6C2C4C",
"%. c #632646",
"&. c #6F3D48",
"*. c #733F4D",
"=. c #742F52",
"-. c #64395C",
";. c #753052",
":. c #7D3658",
">. c #713F59",
",. c #7D3457",
"<. c #32505B",
"1. c #3B4252",
"2. c #354A7E",
"3. c #334477",
"4. c #4B4A4A",
"5. c #474446",
"6. c #545454",
"7. c #5B5B5B",
"8. c #564B51",
"9. c #6A4457",
"0. c #76445A",
"q. c #655F5F",
"w. c #6A505C",
"e. c #5B4867",
"r. c #4F4B74",
"t. c #674562",
"y. c #7D4662",
"u. c #784E72",
"i. c #675874",
"p. c #5B667F",
"a. c #6A6464",
"s. c #6C6C6C",
"d. c gray38",
"f. c #726969",
"g. c #7F6D7E",
"h. c #727272",
"j. c #626678",
"k. c #8A1F1F",
"l. c #8B2222",
"z. c #972929",
"x. c #862B36",
"c. c #A62E2E",
"v. c #A33337",
"b. c #873A5E",
"n. c #83365B",
"m. c #853D42",
"M. c #8A3B61",
"N. c #8D4C4C",
"B. c #964A4D",
"V. c #805959",
"C. c #A4474B",
"Z. c #A64242",
"A. c #854E63",
"S. c #A25D71",
"D. c #8F6C6C",
"F. c #896D71",
"G. c #877677",
"H. c #977378",
"J. c #AA6F6F",
"K. c #A66177",
"L. c #B56679",
"P. c #C46D7F",
"I. c #384C88",
"U. c #364581",
"Y. c #3C548F",
"T. c #40568D",
"R. c #44558A",
"E. c #595B8E",
"W. c #7D5D82",
"Q. c #6F5B85",
"!. c #636B82",
"~. c #6F6083",
"^. c #637F8E",
"/. c #7F6D92",
"(. c #89748B",
"). c #996F87",
"_. c #AA748A",
"`. c #C47C8B",
"'. c #CB7B89",
"]. c #D27E8D",
"[. c #C17F93",
"{. c #658D9B",
"}. c #959595",
"|. c #8D8797",
" X c #AB8181",
".X c #B8868C",
"XX c #AC919D",
"oX c #B58E99",
"OX c #A09FAE",
"+X c #AEAEAE",
"@X c #D0808E",
"#X c #C98A94",
"$X c #D68290",
"%X c #DA8892",
"&X c #DD8C98",
"*X c #DC929C",
"=X c #D0929D",
"-X c #C8828E",
";X c #E08F9B",
":X c #E4949E",
">X c #D2A6B2",
",X c #BCAFC0",
"<X c #B6BDC8",
"1X c #D9C8D7",
/* pixels */
"                                                                                                                                ",
"                                                                                                                                ",
"                                                                                                                                ",
"                                                                                                                                ",
"                                                                                                                                ",
"                                                                                                                                ",
"                                                                                                                                ",
"                                                                                                                                ",
"                                                  . . . . . . . . . . .                                                         ",
"                                                o o O O * O O * O o o o                                                         ",
"                                              o 9 t j j j j ! ! f e e e - . . . . .                                             ",
"                                            o - f ` { } } } } } [ ^ ^ ! : o O O o .                                             ",
"                                          o 9 f ) { { } } } } } { [ ^ ~ t 9 e f - .                                             ",
"                                        o - f ` [ } } } } } } } } } [ ~ ! t ) ) 9 .                                             ",
"                                      O 9 f ^ [ } } } } } } } } } { [ ~ ~ h t 9 -                                               ",
"                                    . O t ` { } } } } } } } } } } } [ ^ ^ ! 9 O                                                 ",
"                                    . O j { { } } } } } } } } } } } { [ ) ~ ! h 9 .                                             ",
"                                    . O j } } } } } } } } } } { } } } } [ ^ [ [ e O                                             ",
"                                    . * j } [ [ { } } } } } [ [ { } } { ` ^ ~ ~ j g : . .                                       ",
"                                    . O j { ) ~ [ } { } } { [ ` [ } } { ) ~ ! t ) ) 9 . .                                       ",
"                                    . O f ) j t ^ [ { { [ ` [ | } } [ ` ^ ^ ~ h e : O . .                                       ",
"                                    . O e j f f ^ +.{ { ` ^ [ } { { ` ^ ~ ^ ~ ! : o o . .                                       ",
"                                        - 1 l +.>.y.@.^ j f ) ` ` ` ) ^ ! h ! ~ f w O . .                                       ",
"                                        . & n 0.S.L.t./ k f k | ) ~ ^ ~ h t ! ~ ~ j : . .                                       ",
"                                        . 2 ] p._.'.K.y.@.+.t.i.@._ ^ ~ h t t ! e - *                                           ",
"                                        . , <.^.oX&X].L.A.9.(.}.r.^ ~ ~ h t t q * .                                             ",
"                                        . , 6.).#X:X&X-Xg.!.OX,X~.[ ` ~ t t : * O                                               ",
"                                        . 5 *.L.'.:X*X=X|.{.<X1X/.{ [ ~ h q * .                                                 ",
"                                        . + l >.K.@X&X*XoXXX>X>XW.{ ` ~ q * o .                                                 ",
"                                        . o 9 l 0.L.'.%X%X%X%X`.u.{ [ ! : . O O                                                 ",
"                                        . o : f P Y m.C.C.C.C.B.@.} ` ! - X p I 6 .                                             ",
"                                        . o : q * @ B S S S F Z +.{ ) j 1 ; U :.s +                                             ",
"                                        . . O - 5 u K z.z.l.C 8 l { f 0 a I =.b.$.P 6 . .                                       ",
"                                        . . . O u J Q v.v.x.8 O k [ 0 O G :.n.b.M.:.a . .                                       ",
"                                          . . X u O.@.-.-.@.i O k [ 9 $ I n.=.$.:.:.a . .                                       ",
"                                            . X u O...3.2.o.r O g ' w , I =.%.%.;.:.a . .                                       ",
"                                            . O u O...I.I.o.y . - r _ _ n s H +.;.:.a . .                                       ",
"                                            . O u O.X.Y.Y.3._ O + 1  .2.y o p J ;.:.a . .                                       ",
"                                            . * ^ X.I.T.I.R.e.&.&.9.r.2.y X p J ;.n.a . .                                       ",
"                                            . *  .T.T.T.R.E.).`.`.L.Q.2.y X d J $.;.a . .                                       ",
"                                            . - 1.!.!.!.(.|.-X$X].`.u.| 0 X p G H a 7                                           ",
"                                            . , 4.h.h.g.#X:X:X:X&X-X0.l ; X p H 5 .                                             ",
"                                            . , 4.h.h.G..X:X:X*X.XD.w.#.< X d U 5 .                                             ",
"                                            X < 4.h.h.G..X*X*X#XF.6.6.4.c X H U 6 .                                             ",
"                                          , M 4.d.h.s.a.F.H.H.D.a.6.#.v 2 . ; 6 ;                                               ",
"                                        . , 4.h.h.f.7.6.6.6.6.6.6.4.b - + . X .                                                 ",
"                                        . , 4.s.s.7.m v v v v v v v ] 5.m v , .                                                 ",
"                                        . , 4.h.q.4.c . . . . . . & 5.f.d.4.c .                                                 ",
"                                        . & T N.Q E C 8 # . . . . @ T N.Q L 7 .                                                 ",
"                                        . % R c.k.S D Z 4 .     . # R c.k.Z 3 .                                                 ",
"                                          # V C D c.B.w.N .     . @ R c.k.Z 3 .                                                 ",
"                                            . % R Z. X}.m .     + % R c.k.Z 3 .                                                 ",
"                                              & 8 W G.}.5.. . , 4.d.D.J.B.                                                      ",
"                                                . < h.}.m . . < s.+X+X+X                                                        ",
"                                                . < h.}.5.. . < s.+X+X+X                                                        ",
"                                                                                                                                ",
"                                                                                                                                ",
"                                                                                                                                ",
"                                                                                                                                ",
"                                                                                                                                ",
"                                                                                                                                ",
"                                                                                                                                ",
"                                                                                                                                ",
"                                                                                                                                "
};
