/* XPM */
static char *out[] = {
/* columns rows colors chars-per-pixel */
"64 64 198 2 ",
"   c None",
".  c #000000",
"X  c #090306",
"o  c #06040A",
"O  c #09050C",
"+  c #0E0B0D",
"@  c #14060A",
"#  c #170809",
"$  c #0B0612",
"%  c #0C0B13",
"&  c #0F0A18",
"*  c #1C0C13",
"=  c #110C1C",
"-  c #170A19",
";  c #0C1218",
":  c #141414",
">  c #191919",
",  c #1F171D",
"<  c #2A0707",
"1  c #2F0808",
"2  c #320909",
"3  c #240D19",
"4  c #320C12",
"5  c #271419",
"6  c #3C191A",
"7  c #150D22",
"8  c #190F21",
"9  c #170E29",
"0  c #180F28",
"q  c #171024",
"w  c #1A122B",
"e  c #14152B",
"r  c #1D1232",
"t  c #1A1C33",
"y  c #2B0E26",
"u  c #2E1320",
"i  c #261329",
"p  c #321223",
"a  c #341B27",
"s  c #381827",
"d  c #3C1A2A",
"f  c #38162A",
"g  c #211535",
"h  c #231837",
"j  c #23163B",
"k  c #261A3C",
"l  c #291737",
"z  c #371B38",
"x  c #172037",
"c  c #242424",
"v  c #292929",
"b  c #3E2334",
"n  c #322835",
"m  c #343434",
"M  c #3D3B3B",
"N  c #510E0F",
"B  c #561212",
"V  c #651010",
"C  c #6A1111",
"Z  c #6A1F1F",
"A  c #66131A",
"S  c #7B1515",
"D  c #761515",
"F  c #4A1C34",
"G  c #481B39",
"H  c #561E3D",
"J  c #41182C",
"K  c #6E1C24",
"L  c #5C2C2C",
"P  c #4E2136",
"I  c #56253B",
"U  c #423B3B",
"Y  c #783D3D",
"T  c #762C30",
"R  c #271A40",
"E  c #2A1C45",
"W  c #2D1E4A",
"Q  c #321E41",
"!  c #1F2542",
"~  c #282A4A",
"^  c #30214E",
"/  c #382249",
"(  c #393A4D",
")  c #342353",
"_  c #39265A",
"`  c #3C295D",
"'  c #392754",
"]  c #27365B",
"[  c #2F2F63",
"{  c #29346A",
"}  c #3B356A",
"|  c #3A3E75",
" . c #431B44",
".. c #492446",
"X. c #5E324D",
"o. c #42325E",
"O. c #543256",
"+. c #502E48",
"@. c #6C2C4C",
"#. c #642746",
"$. c #72384E",
"%. c #752F52",
"&. c #673A5C",
"*. c #7E3658",
"=. c #783656",
"-. c #653B49",
";. c #3B4152",
":. c #31505A",
">. c #34437B",
",. c #354A7E",
"<. c #454545",
"1. c #4C4C4C",
"2. c #4E4747",
"3. c #544E4E",
"4. c #5A4655",
"5. c #545454",
"6. c #5C5C5C",
"7. c #6C4545",
"8. c #75445A",
"9. c #635E5E",
"0. c #705252",
"q. c #6B475D",
"w. c #5B4B6C",
"e. c #684562",
"r. c #7D4763",
"t. c #7B4F72",
"y. c #774D71",
"u. c #715C70",
"i. c #5F6D7F",
"p. c #636363",
"a. c #6D6D6D",
"s. c #6C6162",
"d. c #756C6D",
"f. c #727272",
"g. c #626578",
"h. c #8C1F1F",
"j. c #8B2222",
"k. c #962525",
"l. c #8C2D31",
"z. c #A62F2F",
"x. c #A33337",
"c. c #873A5F",
"v. c #83365B",
"b. c #853D42",
"n. c #8A3B61",
"m. c #864A4A",
"M. c #97484D",
"N. c #A4474B",
"B. c #864E63",
"V. c #A25C70",
"C. c #876B6C",
"Z. c #806D7E",
"A. c #887A7B",
"S. c #977378",
"D. c #907175",
"F. c #A66177",
"G. c #B7687B",
"H. c #B46578",
"J. c #AA7070",
"K. c #C46D7F",
"L. c #3A4A85",
"P. c #3B508B",
"I. c #44568D",
"U. c #595B8E",
"Y. c #6B5783",
"T. c #7D5E83",
"R. c #706083",
"E. c #627F8E",
"W. c #656883",
"Q. c #89738B",
"!. c #9A7A83",
"~. c #806E92",
"^. c #966686",
"/. c #AA7A85",
"(. c #AB728C",
"). c #C47C8B",
"_. c #CB7B89",
"`. c #D17E8D",
"'. c #C17F93",
"]. c #648C9B",
"[. c #8E8798",
"{. c #BA878D",
"}. c #AC919D",
"|. c #B58E99",
" X c #A09FAD",
".X c #AEAEAE",
"XX c #D0808E",
"oX c #CA8893",
"OX c #D68290",
"+X c #DA8892",
"@X c #DD8C98",
"#X c #DC929C",
"$X c #D0929D",
"%X c #E3949E",
"&X c #CFA7B1",
"*X c #D4A5B4",
"=X c #B9B6C4",
"-X c #DAC9D8",
/* pixels */
"                                                                                                                                ",
"                                                                                                                                ",
"                                                                                                                                ",
"                                                                                                                                ",
"                                                                                                                                ",
"                                                                                                                                ",
"                                                                                                                                ",
"                                                                                                                                ",
"                                                      . . . . . . . . . . .       . . .                                         ",
"                                                    o O O $ O O O O O O o O     $ o . .                                         ",
"                                                  o 8 r h k E E k j r w w w % o w h = .                                         ",
"                                                O % g W _ ` ` ` ` ` ) ^ W R 7 $ k ) q .                                         ",
"                                              O 7 g W _ ` ` ` ` ` ` _ ) ^ E r 9 k E 7 .                                         ",
"                                            o % g ^ _ ` ` ` ` ` ` ` ` ` ) E R r j h & .                                         ",
"                                          O 7 g E _ _ ` ` ` ` ` ` ` ` ` ^ E R j w & o .                                         ",
"                                        . o w ^ _ ` ` ` ` ` ` ` ` ` ` ` ) ^ W R 7 O O O                                         ",
"                                        . O j _ _ ` ` ` ` ` ` ` ` ` ` ` _ ) W W R j k h = . .                                   ",
"                                        . O k ` ` ` ` ` ` ` ` ` ` ` ` ` ` _ ) W ) _ _ ) q . .                                   ",
"                                        . O k ` _ ) _ ` ` ` ` ` ) ) _ _ ` ` ) E E R E k = . .                                   ",
"                                        . O k _ W E ) ` ` ` ` _ ^ ^ _ ` ` _ ^ E R r 0 9 $ . .                                   ",
"                                        . O t W g g E / _ ` ) ) ) _ _ _ _ ^ W W E j 9 $ o . .                                   ",
"                                        . O w k g g Q ' _ _ W E ) ` ` _ ^ W E E E R 7 o . . .                                   ",
"                                            = 8 l +.=.r.O.W k g R ^ ^ ^ W E R R R E g 9 $ . .                                   ",
"                                            . @ P q.V.H.e./ l g E _ ^ W E E j r R E E h = . .                                   ",
"                                            . + ;.g.S._.V.B.X...e.g.o.E W E j r r h 9 = %                                       ",
"                                            . ; :.].|.@X_.H.B.e.Q.[.w.W W E k r r 9 $ .                                         ",
"                                            . : 4.!.oX%X#XoXf.W. X=XT.) ^ E k r 7 $ O                                           ",
"                                            . * $.G.`.#X%X$X[.].=X-X~.` ) E r 9 $ .                                             ",
"                                            . + b 8.F.OX@X#X|.}.&X*XT._ ^ E 9 $ X .                                             ",
"                                            . o 7 z 8.G._.+X+X@X+X).y.` ^ R = . X O                                             ",
"                                            . o 7 r b I l.N.N.N.N.M.@.` ) R = o u P 5 .                                         ",
"                                            . o = 9 $ @ B D S S C A ..` W k = * #.v.J +                                         ",
"                                            . . $ & 3 p K k.k.j.B 4 Q _ g 8 f F %.v.@.P 5 X .                                   ",
"                                            . . . @ y  .T x.x.l.6 O k ) 8 + F v.v.c.c.*.s . .                                   ",
"                                              . . o y  .O.&.&.O.u o k ) 7 @ I v.%.@.*.*.s . .                                   ",
"                                                . X y  .} L.>.{ e o h ^ 0 & I =.#.H %.*.s . .                                   ",
"                                                . X y  .} L.| { e o & e ! ~ n d J H %.v.s . .                                   ",
"                                                . X l ..| P.| { t + O ; ] ,.x o y #.%.v.s . .                                   ",
"                                                . $ ~ } L.I.Y.t.8.-.+.] >.,.x o 5 H %.*.s . .                                   ",
"                                                . % ] I.I.U.^.K.(.G.Y.P.P.,.t X y #.@.%.s . .                                   ",
"                                                . ; ;.i.Q.(.oXXXOX).y.o.` ' w X p H J s 5                                       ",
"                                                X > 1.A.|.%X%X%X%XXXr.G G z - X p F 3 .                                         ",
"                                              : m <.5.d.{.%X%X%X|.J.u.4.4.U , X J H 3 .                                         ",
"                                            X > 1.a.p.s./.#X#XoX[.f.f.f.p.5.c + J H 5 .                                         ",
"                                          : m <.9.a.p.p.d.S.S.D.d.s.f.f.a.p.<.m a 5 *                                           ",
"                                        . : 1.f.f.a.6.5.5.5.5.5.5.5.s.f.f.a.p.3.c X                                             ",
"                                        . : 1.f.a.6.M v v v v v v m 5.f.f.f.p.1.c .                                             ",
"                                        O : 2.a.p.1., . . X . . . : <.a.f.f.p.5.c X                                             ",
"                                      : <.3.7.7.T L 5 . .         : v M 6.f.a.p.2.v ,                                           ",
"                                    . > p.A.m.D D V < .             . + <.a.f.f.p.1.c .                                         ",
"                                      : M 2.0.m.T V < .               + v M 7.M.Y L 5 .                                         ",
"                                        . : 9.A.Y V < .                 . # Z z.h.C 1 .                                         ",
"                                          : M U 6 2 <                   . # Z z.h.C 2 .                                         ",
"                                            . . . .                     X # Z x.j.C 2 .                                         ",
"                                                                      : 2.p.C.J.M.                                              ",
"                                                                    . : a..X.X.X                                                ",
"                                                                    . : a..X.X.X                                                ",
"                                                                                                                                ",
"                                                                                                                                ",
"                                                                                                                                ",
"                                                                                                                                ",
"                                                                                                                                ",
"                                                                                                                                ",
"                                                                                                                                "
};
