/* XPM */
static char *out[] = {
/* columns rows colors chars-per-pixel */
"64 64 157 2 ",
"   c None",
".  c #000001",
"X  c #0A0203",
"o  c #060409",
"O  c #09060D",
"+  c #0C0C0C",
"@  c #140505",
"#  c #1B0606",
"$  c #150E0E",
"%  c #0B0613",
"&  c #0D0916",
"*  c #0D0718",
"=  c #0E0819",
"-  c #180713",
";  c #160A14",
":  c #1B0916",
">  c #120B1C",
",  c #1B0D1A",
"<  c #161010",
"1  c #181818",
"2  c #2D0707",
"3  c #2D0909",
"4  c #240606",
"5  c #3F0D0D",
"6  c #200B17",
"7  c #240C1D",
"8  c #2B0F1D",
"9  c #3F1313",
"0  c #140D23",
"q  c #1D0E27",
"w  c #170D28",
"e  c #190F2C",
"r  c #161025",
"t  c #191127",
"y  c #1C122D",
"u  c #1D1234",
"i  c #2D0E24",
"p  c #251625",
"a  c #281624",
"s  c #21112F",
"d  c #331225",
"f  c #35102B",
"g  c #351E2E",
"h  c #391928",
"j  c #251436",
"k  c #231837",
"l  c #23153B",
"z  c #26193C",
"x  c #281B3F",
"c  c #3C1230",
"v  c #391933",
"b  c #1A203E",
"n  c #232323",
"m  c #3C2629",
"M  c gray22",
"N  c #490F0F",
"B  c #520F0F",
"V  c #410E19",
"C  c #491515",
"Z  c #671414",
"A  c #6A1F1F",
"S  c #731D1D",
"D  c #461626",
"F  c #481834",
"G  c #461638",
"H  c #4B1A3C",
"J  c #431635",
"K  c #521B3B",
"L  c #691929",
"P  c #482E31",
"I  c #482A3B",
"U  c #542B37",
"Y  c #52213A",
"T  c #5C243C",
"R  c #5D2C39",
"E  c #463131",
"W  c #56303B",
"Q  c #573A3D",
"!  c #5B3B3F",
"~  c #612020",
"^  c #782132",
"/  c #752434",
"(  c #6C3131",
")  c #633438",
"_  c #653838",
"`  c #6C3C3C",
"'  c #271940",
"]  c #2A1B44",
"[  c #2D1E4A",
"{  c #2F204D",
"}  c #2B284C",
"|  c #30204E",
" . c #2C2F5A",
".. c #342353",
"X. c #392659",
"o. c #3B295D",
"O. c #4F1E40",
"+. c #542447",
"@. c #4E3748",
"#. c #5C3342",
"$. c #5D3D40",
"%. c #543D4D",
"&. c #5A2D51",
"*. c #5A3C59",
"=. c #622341",
"-. c #6B2647",
";. c #6E2749",
":. c #6F2949",
">. c #702E46",
",. c #712C49",
"<. c #713046",
"1. c #793747",
"2. c #7C3F45",
"3. c #793748",
"4. c #713D4F",
"5. c #7D3256",
"6. c #673965",
"7. c gray25",
"8. c #4B4646",
"9. c #4E4E4E",
"0. c #5B5B5B",
"q. c #7D4145",
"w. c #7E4656",
"e. c #724353",
"r. c #605F5F",
"t. c #7E5359",
"y. c #474279",
"u. c gray40",
"i. c #6F6B6B",
"p. c #801717",
"a. c #881E1E",
"s. c #9A2828",
"d. c #952B2B",
"f. c #A12D2D",
"g. c #853B57",
"h. c #863B5D",
"j. c #8C3F5B",
"k. c #8A3B61",
"l. c #814247",
"z. c #884D46",
"x. c #8A5243",
"c. c #804657",
"v. c #83495A",
"b. c #956342",
"n. c #88456B",
"m. c #924067",
"M. c #86547A",
"N. c #A34F6F",
"B. c #A65B6D",
"V. c #A95A6E",
"C. c #B56276",
"Z. c #B1677B",
"A. c #BA647A",
"S. c #C16A7D",
"D. c #BC6E82",
"F. c #BD7C83",
"G. c #CD858E",
/* pixels */
"                                                                                                                                ",
"                                                                                                                                ",
"                                                                                                                                ",
"                                                                                                                                ",
"                                                                                                                                ",
"                                                                                                                                ",
"                                                                                                                                ",
"                                                                                                                                ",
"                                                          . . . . . . .                                                         ",
"                                                        . . . . o o o o                                                         ",
"                                                  . . . . . . o > y y y & . . .                                                 ",
"                                                O O O o o . o & y k { ] r o o O                                                 ",
"                                              + y z z k & o r k t r z ..z y t t & .                                             ",
"                                            O & ] o...{ > O z ..r O z o...{ { { r o                                             ",
"                                      . . O y { ..X.k > O O z ..r O z o.X.X...| z t = . .                                       ",
"                                    . . o & k ..X.| t X o ; l | w O z o.o.o.o.o...' > . .                                       ",
"                                    . o t k y t ] [ l s e j l ' e w [ o.o.o.o.o...' > . .                                       ",
"                                    . % k { r & u [ [ [ [ ] l u u l ..o.o.o.o.o...z > . .                                       ",
"                                        > t k x | ..| [ | ..' u l ] ..o.o.o.o.o...z > . .                                       ",
"                                        . O k ..X.X.| | ..X.] l ] { X.o.o.o.o.o...' > . .                                       ",
"                                        . o & y ' ........| | | ..X.....X.X.o.X.| ' = o .                                       ",
"                                        . . . O u [ X.X.| [ X.o.o.X...[ X.o.o.X.{ z & . .                                       ",
"                                        . . & w l [ X.X.| | X.o.o.X.{ [ X.X.X.[ ] u & . .                                       ",
"                                        . o 0 k ' [ ..X.| [ ..X.o.X.[ [ ..X.[ ] l u % . .                                       ",
"                                        . o > u l l [ | ' ' [ | ..[ ] ' ] | ] l u u % . .                                       ",
"                                        . o 0 u u u ' ] l l ' [ [ ] ' u ' ] l u u e % . .                                       ",
"                                        . o 0 u u u l l u u ' [ ' l u u ' ] l u u e % . .                                       ",
"                                        . o > e e u u u u u ' ] l u u u ' ] l u u w % . .                                       ",
"                                            % * w u u u u u ' ] l u u u u l u u 0 % O                                           ",
"                                            . o = u u u u u ' ] j u u u u u u e % .                                             ",
"                                            . o = e e u u u j l u u u u u u e w O .                                             ",
"                                            . o = w u j j j j j j j j j j u s w , <                                             ",
"                                                O - v O.+.+.+.O.+.+.+.+.+.O.+.+.e.t.P . .                                       ",
"                                                O > O.5.5.5.5.5.5.5.5.5.5.5.5.k.D.G.! . .                                       ",
"                                              r b } &.5.5.5.5.5.5.5.5.5.5.5.5.h.D.G.! . .                                       ",
"                                            & r  .y.6.5.5.5.5.h.5.5.5.5.5.5.5.h.Z.F.Q . .                                       ",
"                                            & t *.M.n.k.k.k.k.k.k.k.k.k.k.k.k.k.4.! m                                           ",
"                                            , g v.A.N.k.k.k.k.N.m.m.m.k.k.k.k.k.h .                                             ",
"                                          p #.c.B.A.m.h.g.5.5.g.h.h.5.5.h.5.h.:.d .                                             ",
"                                        * a v.S.S.C.j.;.:.,.-.:.-.-.;.;.;.,.;.=.8 .                                             ",
"                                        & a v.S.A.C.v.,.l.z.1.-.;.;.;.;.l.z.1.=.8 .                                             ",
"                                        & p w.C.C.V.g.,.x.b.2.-.-.-.-.,.x.b.q.T 8 .                                             ",
"                                          p I #.W U Y K ) ( T H K K K K R _ R F 6 .                                             ",
"                                            & % o X 8 c J c c c c c c c c c c f - .                                             ",
"                                              O o X i G G G G F G G G G G G G v : .                                             ",
"                                                . O f K O.K H H H H H H O.O.H J : .                                             ",
"                                                . X V L ^ / D 6 6 i I %.%.@.g 7 -                                               ",
"                                                . @ B p.s.d.V . . + M 0.0.9.n .                                                 ",
"                                                              . . + 7.u.0.9.n .                                                 ",
"                                                                X < 8.i.r.9.n .                                                 ",
"                                                              @ C ~ ( ` E n 1                                                   ",
"                                                            . # A f.a.Z 3 .                                                     ",
"                                                            . X C S Z B 4 .                                                     ",
"                                                            . X 3 N N N # .                                                     ",
"                                                            . X 4 N N 5 # .                                                     ",
"                                                            . X 3 N N 5 # .                                                     ",
"                                                            . X 3 N C 5 # .                                                     ",
"                                                                                                                                ",
"                                                                                                                                ",
"                                                                                                                                ",
"                                                                                                                                ",
"                                                                                                                                ",
"                                                                                                                                ",
"                                                                                                                                "
};
