/* XPM */
static char *out[] = {
/* columns rows colors chars-per-pixel */
"64 64 151 2 ",
"   c None",
".  c #000000",
"X  c #090307",
"o  c #060409",
"O  c #09050D",
"+  c #0F0F0F",
"@  c #160606",
"#  c #10060B",
"$  c #140C0C",
"%  c #0B0613",
"&  c #0E0916",
"*  c #0E0919",
"=  c #170713",
"-  c #160915",
";  c #1D0A16",
":  c #110B1C",
">  c #1C0B1A",
",  c gray7",
"<  c #1C101F",
"1  c #2E0707",
"2  c #240C1D",
"3  c #2A0F1C",
"4  c #291414",
"5  c #20171E",
"6  c #140D22",
"7  c #1B0E27",
"8  c #170D28",
"9  c #1A0F2D",
"0  c #191127",
"q  c #101428",
"w  c #1C132C",
"e  c #1D1133",
"r  c #2D0F24",
"t  c #240D22",
"y  c #251624",
"u  c #2A1625",
"i  c #22112F",
"p  c #351226",
"a  c #34112A",
"s  c #241435",
"d  c #231837",
"f  c #23153B",
"g  c #26193C",
"h  c #281B3F",
"j  c #321333",
"k  c #3C1230",
"l  c #222222",
"z  c #2A2A2A",
"x  c #3C2629",
"c  c #20213A",
"v  c #3A2334",
"b  c #343434",
"n  c #691111",
"m  c #6B1F1F",
"M  c #45182E",
"N  c #461B36",
"B  c #491A34",
"V  c #461638",
"C  c #451A39",
"Z  c #4B1A3C",
"A  c #521C3A",
"S  c #5D2D2D",
"D  c #482F31",
"F  c #4B293A",
"G  c #542F37",
"H  c #55203A",
"J  c #5C243C",
"K  c #5A2839",
"L  c #5F3038",
"P  c #5A3A3F",
"I  c #5B3232",
"U  c #633438",
"Y  c #653838",
"T  c #793E3E",
"R  c #271940",
"E  c #2A1C44",
"W  c #2D1E4A",
"Q  c #1B2546",
"!  c #312447",
"~  c #30204E",
"^  c #342353",
"/  c #392659",
"(  c #3B295D",
")  c #2F3B72",
"_  c #4F1E41",
"`  c #501F42",
"'  c #4B2243",
"]  c #542446",
"[  c #5A2544",
"{  c #4B3444",
"}  c #5F3245",
"|  c #5E3D40",
" . c #612240",
".. c #6B2647",
"X. c #632F42",
"o. c #65274A",
"O. c #6E2749",
"+. c #6F2949",
"@. c #712E46",
"#. c #712C49",
"$. c #723046",
"%. c #793747",
"&. c #7C3F45",
"*. c #71324F",
"=. c #793648",
"-. c #7C3256",
";. c #773E52",
":. c #73335A",
">. c #4E3B6F",
",. c #563D6F",
"<. c #3B437B",
"1. c gray28",
"2. c #494646",
"3. c #4C4C4C",
"4. c #504C4C",
"5. c #5A4353",
"6. c #5F5F5F",
"7. c #7D4045",
"8. c #624B5B",
"9. c #7C4556",
"0. c #7D5258",
"q. c #654E6A",
"w. c #646262",
"e. c #6D6D6D",
"r. c #726D6D",
"t. c gray44",
"y. c #8B1F1F",
"u. c #A62E2E",
"i. c #8A3B61",
"p. c #814347",
"a. c #874C46",
"s. c #884D45",
"d. c #8D4C4C",
"f. c #8A5243",
"g. c #824859",
"h. c #956342",
"j. c #924067",
"k. c #964469",
"l. c #9E4C6C",
"z. c #874D73",
"x. c #A6556F",
"c. c #AE5D73",
"v. c #B76477",
"b. c #B96379",
"n. c #504D82",
"m. c #906082",
"M. c #BE7D84",
"N. c #A47692",
"B. c #BF7D92",
"V. c #C67A86",
"C. c #CD858E",
/* pixels */
"                                                                                                                                ",
"                                                                                                                                ",
"                                                                                                                                ",
"                                                                                                                                ",
"                                                                                                                                ",
"                                                                                                                                ",
"                                                          . . . . . . .                                                         ",
"                                                        O O O % O O O O                                                         ",
"                                                  . . O i c g g c g d w & . . .                                                 ",
"                                                O O O & g ^ ~ ^ ( ( ~ E 0 o o O                                                 ",
"                                              O w E h g y 6 : w ! ( / ^ h w e w * .                                             ",
"                                            O : E ( ^ ! : . o & d ^ / / ^ W W E 8 o                                             ",
"                                          O w E ^ / d : O o 7 g w w ! / / ^ / ^ h w & . .                                       ",
"                                        . O d ^ / ! 0 o O * f ~ 0 % h ( ( ( ( ( ^ g : . .                                       ",
"                                        . o & 0 h ~ d w 9 e f R w 8 W ( ( ( ( ( ^ R * . .                                       ",
"                                        . . o & d W W W W E R e e f ~ ( ( ( ( ( ~ R : . .                                       ",
"                                      . . o 0 h W ^ ~ W ^ ^ R e R E ^ ( ( ( ( ( ^ R : . .                                       ",
"                                    . . o & g ^ / / ^ W ^ / E f R ~ ^ / ( ( ( ( ^ g : . .                                       ",
"                                    . o 0 d w w R ^ ^ ^ ^ ~ ^ ~ ^ ^ ^ ^ / ( ( ( ^ g : . .                                       ",
"                                    . % d ! 6 O e W / ( ~ W / / ( ( ^ W / ( / / ~ g : . .                                       ",
"                                        : 6 6 7 f W ^ ( ~ W / ( ( / ^ W ^ ( / ~ E e * . .                                       ",
"                                        . o 6 e R E ^ / ~ W ^ / ( / ~ W ^ / ~ R e e % . .                                       ",
"                                        . o 6 e f R W ~ R R W ^ ^ ~ R R W ~ E f e 9 % . .                                       ",
"                                        . o 6 e e e R R R e R W E R f e R E f e e e % . .                                       ",
"                                        . o 6 e e e s e f e R E R f e e R W f e e 9 % . .                                       ",
"                                        . o : 9 e e e e e e R E f e e e R E f e e 8 % . .                                       ",
"                                            % & 8 e e e e e R E f e e e e f e e 6 % O                                           ",
"                                            . o 6 e e e e e R E f e e e e e e 8 % .                                             ",
"                                            . o * 9 e e e e f f e e e e e e 9 8 % .                                             ",
"                                            . o * 8 9 e e e e e e e e e e e 8 : O .                                             ",
"                                            . X t j i 8 9 e e e e e e e 9 8 * % o                                               ",
"                                            . O a _ j 9 s s s s s s s e e 9 * o                                                 ",
"                                            O - Z o.` _ ` ` ` ` ` ` ` ` ` ` ~ Q q .                                             ",
"                                            0 u [ -.-.-.-.-.i.-.-.i.-.-.-.:.>.) c $                                             ",
"                                          y } ;.-.-.-.-.-.-.-.-.-.-.-.-.-.:.>.<.q.0.D . .                                       ",
"                                        & u g.v.j.-.-.-.-.-.-.i.-.-.-.-.-.:.>.n.N.C.P . .                                       ",
"                                        & y g.b.l.i.i.i.i.i.i.i.i.i.i.i.i.i.z.m.B.C.P . .                                       ",
"                                        & u 9.c.l.j.j.j.i.i.i.l.k.i.i.i.j.k.x.v.V.V.P . .                                       ",
"                                          y F } $.-.-.i.i.#.i.-.i.-.-.i.i.-.} G P | x                                           ",
"                                            & > B @...........O.....@.....[ 3 o . .                                             ",
"                                            o = B @.p.s.=.O.O.O.O.#.p.s.=. .3 . .                                               ",
"                                            . O M $.f.h.&.........@.f.h.&.J 3 .                                                 ",
"                                            . O p A U U K A A A A A S Y K B ; .                                                 ",
"                                            . X 2 k k k k k k k k k k M k a = .                                                 ",
"                                            . X r V V V V V V V V V V V V k ; .                                                 ",
"                                            . # a Z Z Z A ` ` ' Z Z _ ` _ C 5 .                                                 ",
"                                              O > 2 2 u { 8.8.5.k u { 8.5.{ 0 .                                                 ",
"                                                . . . , 1.e.e.w.z , 1.t.w.4.l .                                                 ",
"                                                      + z b b z , + 1.t.w.4.l .                                                 ",
"                                                        . . . . . + 1.r.w.4.l .                                                 ",
"                                                              . . $ I d.T S 4 .                                                 ",
"                                                                . @ m u.y.n 1 .                                                 ",
"                                                                . @ m u.y.n 1 .                                                 ",
"                                                                                                                                ",
"                                                                                                                                ",
"                                                                                                                                ",
"                                                                                                                                ",
"                                                                                                                                ",
"                                                                                                                                ",
"                                                                                                                                ",
"                                                                                                                                ",
"                                                                                                                                ",
"                                                                                                                                ",
"                                                                                                                                "
};
