/* XPM */
static char *out[] = {
/* columns rows colors chars-per-pixel */
"64 64 160 2 ",
"   c None",
".  c #000000",
"X  c #0C0304",
"o  c #060409",
"O  c #09060D",
"+  c #0E0C0C",
"@  c #1C0707",
"#  c #10060B",
"$  c #140809",
"%  c #0B0613",
"&  c #0E0916",
"*  c #0D0718",
"=  c #0E0819",
"-  c #170713",
";  c #150814",
":  c #1B0916",
">  c #120B1D",
",  c #1D0D1B",
"<  c #1A101D",
"1  c gray12",
"2  c #2C0707",
"3  c #270909",
"4  c #3B0B0B",
"5  c #200B17",
"6  c #240C1D",
"7  c #2B0F1D",
"8  c #201217",
"9  c #241A1A",
"0  c #3E1212",
"q  c #140C23",
"w  c #170D28",
"e  c #1A0F2C",
"r  c #171024",
"t  c #181027",
"y  c #1C122C",
"u  c #1D1133",
"i  c #2D0E24",
"p  c #251625",
"a  c #2A1625",
"s  c #23102E",
"d  c #331225",
"f  c #3C1020",
"g  c #33112D",
"h  c #391928",
"j  c #341D2C",
"k  c #241435",
"l  c #2B1131",
"z  c #23153B",
"x  c #26193C",
"c  c #281B3F",
"v  c #3C1230",
"b  c #3E1738",
"n  c #1A203E",
"m  c gray17",
"M  c #3E2529",
"N  c #3C2B2B",
"B  c #343434",
"V  c #4C0D0D",
"C  c #520F0F",
"Z  c #410E19",
"A  c #411111",
"S  c #4A1313",
"D  c #5D1111",
"F  c #671111",
"G  c #751313",
"H  c #461626",
"J  c #46192F",
"K  c #4C1223",
"L  c #5D1526",
"P  c #481834",
"I  c #461638",
"U  c #4C193C",
"Y  c #421635",
"T  c #511B3C",
"R  c #651627",
"E  c #691929",
"W  c #482F31",
"Q  c #4D2A39",
"!  c #55203A",
"~  c #5D243C",
"^  c #5A2B3A",
"/  c #5A3B3F",
"(  c #543D3D",
")  c #762233",
"_  c #603039",
"`  c #663838",
"'  c #271940",
"]  c #2A1B44",
"[  c #2D1E4A",
"{  c #2F204D",
"}  c #252549",
"|  c #30204E",
" . c #3E2345",
".. c #342353",
"X. c #392659",
"o. c #3B295D",
"O. c #2A305D",
"+. c #3D3F79",
"@. c #532346",
"#. c #5F2548",
"$. c #5C3343",
"%. c #5E3D40",
"&. c #622341",
"*. c #6B2647",
"=. c #6E2749",
"-. c #6E294A",
";. c #712E47",
":. c #712B49",
">. c #6F314B",
",. c #723046",
"<. c #793747",
"1. c #7D3F45",
"2. c #793648",
"3. c #713E4F",
"4. c #7D3256",
"5. c #613764",
"6. c #663965",
"7. c gray28",
"8. c #5F4545",
"9. c #7E4145",
"0. c #7A434F",
"q. c #6B4058",
"w. c #7D4556",
"e. c #7D5258",
"r. c #49416F",
"t. c #464279",
"y. c #6B517E",
"u. c #6F6F6F",
"i. c #626262",
"p. c #801717",
"a. c #802626",
"s. c #992828",
"d. c #942C2C",
"f. c #863B5D",
"g. c #8A3B61",
"h. c #814247",
"j. c #874C46",
"k. c #884C46",
"l. c #8A5243",
"z. c #804658",
"x. c #84495B",
"c. c #966342",
"v. c #88456B",
"b. c #924068",
"n. c #9E4C6C",
"m. c #995464",
"M. c #85547A",
"N. c #9A5F7E",
"B. c #A65B6E",
"V. c #AE5D72",
"C. c #AD647D",
"Z. c #B36275",
"A. c #B86577",
"S. c #B2677B",
"D. c #B8677D",
"F. c #BF697C",
"G. c #C16A7D",
"H. c #BC6E82",
"J. c #BE7D84",
"K. c #CD858E",
/* pixels */
"                                                                                                                                ",
"                                                                                                                                ",
"                                                                                                                                ",
"                                                                                                                                ",
"                                                                                                                                ",
"                                                                                                                                ",
"                                                                                                                                ",
"                                                                                                                                ",
"                                                          . . . . . . .                                                         ",
"                                                        O O O O O O O O                                                         ",
"                                                  . . O y c c c x x u y & . . .                                                 ",
"                                                O O O & x ......X.o.| } r o o o                                                 ",
"                                              + y x x k y r , t { X.X.| c y y y & .                                             ",
"                                            O > } o...{ > . o & x | X.o.| { { ] r o                                             ",
"                                          O y c ..X.k < O o t x p y { o.o...X.| c t & . .                                       ",
"                                        . O k ..X.| r o o & x | r % x o.o.o.o.o...c > . .                                       ",
"                                      . . o & t ' { z u e u z ' y w [ o.o.o.o.o...' > . .                                       ",
"                                    . . o o O & u | [ [ [ ] z u u z ..o.o.o.o.X...c > . .                                       ",
"                                    . o t x x c { ..| [ ..| ' u z ] X.X.o.o.o.o.{ ' > . .                                       ",
"                                    . % x ......X.X.| | ..X.] z ] { X.o.o.o.o.o...' > . .                                       ",
"                                        < r r y ' ........| | | ..X...| X.X.o.o.| ' = . .                                       ",
"                                        . . . O u [ X.X.| [ X.o.o.X...[ X.o.X.X.{ c > . .                                       ",
"                                        . . & w ' [ ..X.| | X.o.o.X.| [ X.X.X.| ] u * . .                                       ",
"                                        . o q u ' [ ..X.| [ ..o.o.X.{ [ ..X.[ ] z y % . .                                       ",
"                                        . o q u z z [ | ' ' [ | ..{ ] ' [ | ] z u u % . .                                       ",
"                                        . o > u u u ' ] z z ' ] [ ] u z ' ] z u u e % . .                                       ",
"                                        . o q u u u z z u u ' ] ' ' u u ' ] ' u u e % . .                                       ",
"                                        . o > y u u u u u z ' ] u u u u ' ' z u u w % . .                                       ",
"                                            % * q u u u u u ' ] z u u u u z u u > & O                                           ",
"                                            . o q u u u u u ' ' z u u u u u u e % .                                             ",
"                                            . o * e e u u u z z u u u u u u e w % .                                             ",
"                                            . o * q e u u u u u u u e u u u w w % .                                             ",
"                                                O & q w u u u u u u u u e e l g - .                                             ",
"                                                O % > y k k k k z u z u s s I U a +                                             ",
"                                              r u }  .U @.@.@.@.@.@.@.@.U @.#.=.w.e.W . .                                       ",
"                                            < s O.+.5.4.4.4.4.4.4.4.4.4.4.4.4.g.H.K./ . .                                       ",
"                                          p $.q.t.+.5.4.4.4.4.4.4.4.4.4.4.4.4.g.H.K./ . .                                       ",
"                                        < j x.C.y.t.6.4.4.4.4.4.4.4.4.f.4.4.4.4.S.J./ . .                                       ",
"                                      p $.w.B.A.N.M.v.v.g.g.g.g.g.g.g.g.g.g.g.g.3.%.M                                           ",
"                                    & a x.G.G.G.Z.V.n.b.b.b.b.b.b.g.b.b.b.b.v.4.h .                                             ",
"                                    & p x.G.G.Z.0.^ >.4.4.f.4.4.f.4.4.4.4.f.4.:.d .                                             ",
"                                    & a w.A.Z.m.H # J -.-.;.=.=.=.=.=.=.:.:.=.~ 7 .                                             ",
"                                      p Q $.$.Q 8 # J ;.h.j.<.=.=.=.=.:.h.k.2.&.7 .                                             ",
"                                        % & % % o $ J ;.l.c.9.*.*.*.=.:.l.c.h.~ 7 .                                             ",
"                                              % o O d T _ ` ~ T T T T T _ ` ~ P 5 .                                             ",
"                                                . O 6 v v v v v v v v v v v v g - .                                             ",
"                                                . X i I P P I I I I I I I I I v : .                                             ",
"                                                . X g U T T U U U T T U U U U Y 5 .                                             ",
"                                                . $ Z E ) ) H 7 K R R L 0 6 6 6 -                                               ",
"                                                . X V p.s.d.0 X V G G F 3 . . .                                                 ",
"                                                          a.3 X 4 D D C 3 . .                                                   ",
"                                                            . X 3 S S A @ .                                                     ",
"                                                            . + N 8.8.%.9 .                                                     ",
"                                                            . + 7.u.u.i.m .                                                     ",
"                                                              + m B B B 1                                                       ",
"                                                                . . . .                                                         ",
"                                                                . . . .                                                         ",
"                                                                                                                                ",
"                                                                                                                                ",
"                                                                                                                                ",
"                                                                                                                                ",
"                                                                                                                                ",
"                                                                                                                                ",
"                                                                                                                                "
};
