/* XPM */
static char *out[] = {
/* columns rows colors chars-per-pixel */
"64 64 148 2 ",
"   c None",
".  c #000000",
"X  c #0C0507",
"o  c #050409",
"O  c #09060D",
"+  c #0D0C0D",
"@  c #110303",
"#  c #10060B",
"$  c #150D0E",
"%  c #0B0612",
"&  c #0E0916",
"*  c #0D0718",
"=  c #0E0918",
"-  c #180713",
";  c #150814",
":  c #1B0916",
">  c #120B1D",
",  c #1E0A19",
"<  c #1C101F",
"1  c #1E1E1E",
"2  c #200B17",
"3  c #230C1C",
"4  c #2A0F1D",
"5  c #3F1212",
"6  c #351D1D",
"7  c #140D22",
"8  c #180B24",
"9  c #170E29",
"0  c #1A0F2D",
"q  c #191127",
"w  c #1C132C",
"e  c #1D1133",
"r  c #2D0E24",
"t  c #251624",
"y  c #291625",
"u  c #23112E",
"i  c #341126",
"p  c #33122C",
"a  c #3C1B2A",
"s  c #241435",
"d  c #2B1131",
"f  c #231837",
"g  c #23153B",
"h  c #26193C",
"j  c #281B3F",
"k  c #3C1230",
"l  c #3E1738",
"z  c #1A203F",
"x  c gray13",
"c  c #2B2A2A",
"v  c #3C2629",
"b  c #362732",
"n  c #3B2434",
"m  c gray20",
"M  c #3A3737",
"N  c #393939",
"B  c #4D0C0C",
"V  c #7F1717",
"C  c #46192F",
"Z  c #431635",
"A  c #481834",
"S  c #461638",
"D  c #4B1A3C",
"F  c #521C3A",
"G  c #442121",
"H  c #482F31",
"J  c #4B293A",
"K  c #54203A",
"L  c #5C243C",
"P  c #552F39",
"I  c #5B2C39",
"U  c #58313F",
"Y  c #5A3B3F",
"T  c #6F3737",
"R  c #633438",
"E  c #653838",
"W  c #271940",
"Q  c #2A1C44",
"!  c #2D1E4A",
"~  c #25264A",
"^  c #3F2345",
"/  c #30204E",
"(  c #342353",
")  c #392659",
"_  c #3B295D",
"`  c #2A305D",
"'  c #3D3F79",
"]  c #4F1E41",
"[  c #501F42",
"{  c #542346",
"}  c #5D2343",
"|  c #4B3444",
" . c #5E3344",
".. c #5E3D40",
"X. c #563F4F",
"o. c #622341",
"O. c #6B2647",
"+. c #602548",
"@. c #6E2749",
"#. c #6F294A",
"$. c #702E46",
"%. c #712C49",
"&. c #6F314B",
"*. c #6D3A4B",
"=. c #713046",
"-. c #793747",
";. c #7C3F45",
":. c #793748",
">. c #7C3256",
",. c #613764",
"<. c #673965",
"1. c gray27",
"2. c #5B4455",
"3. c #5D5C5C",
"4. c #7E4345",
"5. c #6C4159",
"6. c #634B5C",
"7. c #7C4556",
"8. c #7D5258",
"9. c #4A416F",
"0. c #474279",
"q. c #6C527E",
"w. c #636262",
"e. c #6C6666",
"r. c #6C6C6C",
"t. c #992727",
"y. c #942B2B",
"u. c #893D5F",
"i. c #8A3B61",
"p. c #814346",
"a. c #884D46",
"s. c #8A5243",
"d. c #824859",
"f. c #956342",
"g. c #88456B",
"h. c #924067",
"j. c #944568",
"k. c #9B4A6C",
"l. c #86547A",
"z. c #9A5F7E",
"x. c #AD5D72",
"c. c #AD647D",
"v. c #B36275",
"b. c #B8677D",
"n. c #BB6E83",
"m. c #BE7D84",
"M. c #C17287",
"N. c #CD858E",
/* pixels */
"                                                                                                                                ",
"                                                                                                                                ",
"                                                                                                                                ",
"                                                                                                                                ",
"                                                                                                                                ",
"                                                                                                                                ",
"                                                          . . . . . . .                                                         ",
"                                                        + O O O O O O O                                                         ",
"                                                  . . + w j j j j h e q = . . .                                                 ",
"                                                + O O ; f ( / ( ) _ ( ~ 9 o O O                                                 ",
"                                              O w j j f w < 7 q ! _ ) / W 0 e 0 = .                                             ",
"                                            O > Q _ ( ~ > . o ; f ( ) _ ( ! ! ! 9 o                                             ",
"                                          + u ~ ( ) f > O o 9 s u q / ) ) ( ) ( j q = . .                                       ",
"                                        . o s ( ) / q o o * h / q % j _ | _ _ _ ( W > . .                                       ",
"                                        . o & q W ! f w 0 e g W w 9 ! _ _ _ _ _ ( h = . .                                       ",
"                                        . . o & s ! ! ! ! ! g e e g / _ _ _ _ _ ( j > . .                                       ",
"                                      . . o q j ! ( / ! ( ( W e W Q ( _ _ _ _ ) ( j > . .                                       ",
"                                    . . o & h ( ) ) ( ! ( ) ! g Q / ( ) _ _ _ _ / j > . .                                       ",
"                                    . o q f w w W ( ( ( ( / / / ( ( ( ( ) _ _ _ ( W > . .                                       ",
"                                    . % f / > O e ! ) ) / ! ) _ _ ) ( ! ) _ _ ) ! h > . .                                       ",
"                                        > q > 9 g ! ) ) / ! ) _ _ ) ( ! ( _ ( ! Q e = . .                                       ",
"                                        . o > s W Q ( ) / ! ( ) _ ) / ! ( ) ( Q g 0 * . .                                       ",
"                                        . o 7 e g W ! ! Q W ! / / / Q W ! ! Q g e 0 * . .                                       ",
"                                        . o 7 e e e W Q g e W ! ! W g e W ! g e e 0 % . .                                       ",
"                                        . o 7 e e e g g e g W Q W g e e W ! g e e 0 * . .                                       ",
"                                        . o > 0 0 e e e e e W Q g e e e W W g e 0 9 % . .                                       ",
"                                            % * 9 e e e e g W Q g e e e g e e e 7 % O                                           ",
"                                            . o 7 e 0 e e e W W g e e e e e e 0 % .                                             ",
"                                            . o * 0 0 e e e g g e e e e e e 0 9 % .                                             ",
"                                            . o * 8 0 e e e e e e e e e e e 0 8 % .                                             ",
"                                                O % 7 0 0 e e e e e e e 0 0 u d ; .                                             ",
"                                                o % 7 0 e g s s d s g d e u S S 2 .                                             ",
"                                              7 z ~ ^ [ [ [ [ [ [ [ [ { { [ +.} 4 .                                             ",
"                                            < w ` ' ,.>.>.>.i.>.>.>.>.>.>.>.>.&.a $                                             ",
"                                          y  .5.9.' ,.>.>.>.#.>.>.>.>.>.>.>.>.>.d.8.H . .                                       ",
"                                        & y d.c.q.0.<.>.>.>.i.u.>.>.>.>.>.>.>.i.n.N.Y . .                                       ",
"                                        * t d.b.n.l.g.i.i.i.i.i.i.i.i.i.i.i.i.j.M.N.Y . .                                       ",
"                                        & y 7.v.x.k.k.g.i.i.k.i.i.k.i.i.i.j.i.k.n.m.Y . .                                       ",
"                                          t J  .P I &.u.u.%.>.u.i.i.>.>.u.>.i.>.*...v                                           ",
"                                            % % o X C O.@.%.O.O.O.O.@.@.@.#.@.} 4 .                                             ",
"                                              + o # C $.p.a.-.O.@.@.@.@.4.a.:.o.4 .                                             ",
"                                                . # C $.a.f.;.O.O.O.O.@.s.f.;.o.4 .                                             ",
"                                                . # i F R E L F F F F F R E L A 2 .                                             ",
"                                                . o 4 k k k k k k k k k k k k p - .                                             ",
"                                                . X r Z S Z S Z S S S S S S S k : .                                             ",
"                                                . o p [ [ { D D [ [ [ [ D D D Z , .                                             ",
"                                                . + b X.2.2.n y | 6.6.2.n 3 3 3 ;                                               ",
"                                                . + N 3.r.w.c + 1.r.r.w.c . . .                                                 ",
"                                                . + N 3.r.w.c X x m m m 1                                                       ",
"                                                . + M 3.e.w.c . . . . .                                                         ",
"                                                . X G T p.4.6 . .                                                               ",
"                                                . @ B V t.y.5 .                                                                 ",
"                                                . @ B t.t.y.5 .                                                                 ",
"                                                                                                                                ",
"                                                                                                                                ",
"                                                                                                                                ",
"                                                                                                                                ",
"                                                                                                                                ",
"                                                                                                                                ",
"                                                                                                                                ",
"                                                                                                                                ",
"                                                                                                                                ",
"                                                                                                                                ",
"                                                                                                                                "
};
