/* XPM */
static char *out[] = {
/* columns rows colors chars-per-pixel */
"64 64 157 2 ",
"   c None",
".  c #000000",
"X  c #0A0203",
"o  c #060409",
"O  c #09050C",
"+  c #0D0D0D",
"@  c #140505",
"#  c #1B0606",
"$  c #11060B",
"%  c #120B0D",
"&  c #0B0613",
"*  c #0D0916",
"=  c #0E0819",
"-  c #170713",
";  c #140A10",
":  c #1B0A16",
">  c #110B1D",
",  c #1D0A18",
"<  c #2E0707",
"1  c #27090F",
"2  c #2E0A0A",
"3  c #310E0E",
"4  c #3E0D0D",
"5  c #240C1D",
"6  c #3E1212",
"7  c #150D23",
"8  c #1A0D20",
"9  c #170D28",
"0  c #1A0F2C",
"q  c #171024",
"w  c #181127",
"e  c #101428",
"r  c #1B122D",
"t  c #1D1234",
"y  c #181B32",
"u  c #200F20",
"i  c #2E0F22",
"p  c #251424",
"a  c #291625",
"s  c #351226",
"d  c #331229",
"f  c #351E2E",
"g  c #251435",
"h  c #23153B",
"j  c #25193C",
"k  c #281B3F",
"l  c #3C1230",
"z  c #222222",
"x  c #2F2A2A",
"c  c #3D272B",
"v  c #332C2C",
"b  c #342331",
"n  c #393939",
"m  c #480F0F",
"M  c #571A1A",
"N  c #611313",
"B  c #691212",
"V  c #6D1A1A",
"C  c #661B1B",
"Z  c #7C1717",
"A  c #46192F",
"S  c #591422",
"D  c #5E1D2D",
"F  c #471735",
"G  c #461638",
"H  c #4B1A3C",
"J  c #521B3B",
"K  c #701D2D",
"L  c #462F32",
"P  c #4B293A",
"I  c #432B3C",
"U  c #54213B",
"Y  c #592739",
"T  c #5A2839",
"R  c #5A3737",
"E  c #563038",
"W  c #5D313B",
"Q  c #5A3A3E",
"!  c #6B2020",
"~  c #662828",
"^  c #7F2536",
"/  c #633438",
"(  c #653838",
")  c #723A3A",
"_  c #271940",
"`  c #2A1B44",
"'  c #2D1E4A",
"]  c #1B2445",
"[  c #2F204D",
"{  c #30204E",
"}  c #342353",
"|  c #392659",
" . c #3B295D",
".. c #373D71",
"X. c #4F1E40",
"o. c #4C2041",
"O. c #412A4E",
"+. c #542446",
"@. c #5D2C45",
"#. c #4D3647",
"$. c #5D3241",
"%. c #543D4D",
"&. c #6B2647",
"*. c #6E2749",
"=. c #6E294A",
"-. c #632C4A",
";. c #712E46",
":. c #712C49",
">. c #782F4F",
",. c #603246",
"<. c #603F43",
"1. c #6D3A48",
"2. c #723046",
"3. c #793747",
"4. c #7C3F45",
"5. c #793648",
"6. c #743152",
"7. c #7C3256",
"8. c #76345B",
"9. c #563D6F",
"0. c #4E4E4E",
"q. c #5A5959",
"w. c #644145",
"e. c #7D4045",
"r. c #7C4555",
"t. c #7C5155",
"y. c #764F70",
"u. c #646161",
"i. c #686565",
"p. c #8B2020",
"a. c #952626",
"s. c #922A2A",
"d. c #A62E2E",
"f. c #86395B",
"g. c #8A3B61",
"h. c #814347",
"j. c #874C46",
"k. c #884D45",
"l. c #8A5243",
"z. c #824859",
"x. c #956342",
"c. c #924166",
"v. c #97456A",
"b. c #9C5E69",
"n. c #874D73",
"m. c #A5546C",
"M. c #AD5D73",
"N. c #AC6477",
"B. c #B66177",
"V. c #BA6879",
"C. c #C77283",
"Z. c #C17E85",
"A. c #CD858E",
"S. c #D78592",
"D. c #D88593",
"F. c #D68B94",
"G. c #DF8E99",
/* pixels */
"                                                                                                                                ",
"                                                                                                                                ",
"                                                                                                                                ",
"                                                                                                                                ",
"                                                                                                                                ",
"                                                                                                                                ",
"                                                                                                                                ",
"                                                                                                                                ",
"                                                          . . . . . . .                                                         ",
"                                                        . . . . o o o o                                                         ",
"                                                  . . . . . . o > r r r * . . .                                                 ",
"                                                O O O o o . o * r j [ ` q o o o                                                 ",
"                                              + r j j g * o 9 g w q j } j r r w * .                                             ",
"                                            O * [ | } [ > O j } q o j  .} [ [ [ q o                                             ",
"                                          O a [ } } g > O O h } q o j  .| | } { j r * . .                                       ",
"                                        . O y } | { q o o * k { q & j  . . . . .} _ > . .                                       ",
"                                      . . o * w _ ' h p t t h _ r 9 '  . . . .| } _ > . .                                       ",
"                                    . . o o O * t { ' ' ' ` h t t h {  . . . . .} k > . .                                       ",
"                                    . o w j j k { } { ' { { _ t h ` |  . . . . .[ _ > . .                                       ",
"                                    . & j } } } | | { { | | ` h ` [ |  . . . . .} _ > . .                                       ",
"                                        > w w r _ } } } } { { { } | } } |  . .| } k = . .                                       ",
"                                        . . . + t ' | | { ' |  . .| { ' |  .| | ' k > . .                                       ",
"                                        . . * 7 _ ' | | { { |  . .| } ' | | } } ` t * . .                                       ",
"                                        . o 7 g _ ' { | { ' } |  .| ' ' } | ' ` h 0 & . .                                       ",
"                                        . o 7 t h h ' { _ _ ' } } [ ` _ ' [ ` h t t & . .                                       ",
"                                        . o > t t t _ ` h t _ ` ' ` h h _ ` h t t 0 & . .                                       ",
"                                        . o 7 t t t h h h t _ ` _ h t t _ ` h t t 0 & . .                                       ",
"                                        . o > 0 0 t t t t h _ ` t t t t _ ` h t t 9 & . .                                       ",
"                                            & = 9 t t t t t _ ` h t t t t h t t 7 & O                                           ",
"                                            . o > t t t t t _ ` h t t t t t t 9 & .                                             ",
"                                            . o = 0 t t t t g h t t t t t t 0 9 & .                                             ",
"                                            % ; 8 0 t g g g g g g g h g g h 9 = O .                                             ",
"                                          p $.1.@.X.+.X.+.+.+.X.+.+.X.+.+.X.g O o                                               ",
"                                        * a z.B.c.7.7.7.7.7.7.7.7.7.7.7.7.*.d o                                                 ",
"                                        * a z.B.c.7.7.7.7.7.7.7.7.7.7.7.7.6.| ] e .                                             ",
"                                        * a r.M.c.7.7.7.7.7.f.f.7.7.7.7.7.8.9...y .                                             ",
"                                          p P ,.7.g.g.g.g.g.g.g.g.g.g.g.f.g.n.y.b .                                             ",
"                                            * , -.c.c.c.g.g.g.v.v.g.g.g.c.v.M.N.E %                                             ",
"                                            o : +.7.7.7.f.7.7.f.f.f.f.7.f.f.m.V.b.t.L . .                                       ",
"                                            . $ A :.:.:.&.*.*.*.*.*.:.*.&.>.m.C.D.A.Q . .                                       ",
"                                            . $ A :.h.k.5.:.&.&.*.:.f.l.3.7.N.S.G.A.R . .                                       ",
"                                            . $ A ;.l.x.4.&.&.&.&.*.l.x.e.7.N.F.F.Z.Q . .                                       ",
"                                            . O i J / ( T J J J J U ~ ( T J $.w.w.<.c                                           ",
"                                            . X i l l l l l l l l l l l l d - . . .                                             ",
"                                            . O i G G G G G G G F F G G G l : . .                                               ",
"                                            . X d G X.X.X.X.H G H G X.X.X.G , .                                                 ",
"                                              O , a I %.%.#.f 5 5 a D s.K S 1 .                                                 ",
"                                                . + n q.q.0.z . . @ V d.p.B < .                                                 ",
"                                                . + n q.u.q.z . .                                                               ",
"                                                . + n q.i.u.v X                                                                 ",
"                                                  + z v R ) ~ M 3                                                               ",
"                                                    . @ m Z a.s.6 .                                                             ",
"                                                    . X 4 N V C 2 .                                                             ",
"                                                    . X 2 m m 4 # .                                                             ",
"                                                    . X 2 m m 4 # .                                                             ",
"                                                    . X 2 m m 4 # .                                                             ",
"                                                    . X 2 m m 4 # .                                                             ",
"                                                                                                                                ",
"                                                                                                                                ",
"                                                                                                                                ",
"                                                                                                                                ",
"                                                                                                                                ",
"                                                                                                                                ",
"                                                                                                                                "
};
