/* XPM */
static char *out[] = {
/* columns rows colors chars-per-pixel */
"64 64 159 2 ",
"   c None",
".  c #000001",
"X  c #0A0304",
"o  c #060409",
"O  c #09050C",
"+  c gray6",
"@  c #130505",
"#  c #1C0606",
"$  c #10060A",
"%  c #140C0D",
"&  c #0B0612",
"*  c #0D0916",
"=  c #0D0718",
"-  c #0E0819",
";  c #170713",
":  c #150814",
">  c #1B0916",
",  c #120B1D",
"<  c #1D0D1B",
"1  c #181818",
"2  c #131313",
"3  c #220707",
"4  c #2D0707",
"5  c #2D0909",
"6  c #3E0D0D",
"7  c #200B17",
"8  c #240C1D",
"9  c #2B0F1D",
"0  c #310E1C",
"q  c #281414",
"w  c #140D23",
"e  c #170D28",
"r  c #1A0F2C",
"t  c #161024",
"y  c #191126",
"u  c #1B122D",
"i  c #1D1133",
"p  c #2D0E24",
"a  c #251625",
"s  c #291524",
"d  c #23102E",
"f  c #331225",
"g  c #33112D",
"h  c #351E2E",
"j  c #391928",
"k  c #241435",
"l  c #2B1131",
"z  c #23153B",
"x  c #25193C",
"c  c #281B3F",
"v  c #3C1230",
"b  c #3E1738",
"n  c #1A203E",
"m  c #232323",
"M  c #3C2629",
"N  c gray19",
"B  c #450E0E",
"V  c #480F0F",
"C  c #530F0F",
"Z  c #4B1414",
"A  c #671414",
"S  c #6A1F1F",
"D  c #741E1E",
"F  c #4B1425",
"G  c #45182E",
"H  c #451323",
"J  c #421635",
"K  c #481834",
"L  c #461638",
"P  c #4C1A3C",
"I  c #521C3A",
"U  c #5C2D2D",
"Y  c #482F31",
"T  c #4D2A3A",
"R  c #55203A",
"E  c #5D243C",
"W  c #592B39",
"Q  c #56303B",
"!  c #5A3B3F",
"~  c #5C3232",
"^  c #603039",
"/  c #663838",
"(  c #783E3E",
")  c #271940",
"_  c #2A1B44",
"`  c #2D1E4A",
"'  c #252549",
"]  c #2F204D",
"[  c #30204E",
"{  c #3E2345",
"}  c #2C2F5A",
"|  c #342353",
" . c #392659",
".. c #3B295D",
"X. c #4F1E41",
"o. c #501E42",
"O. c #532346",
"+. c #5F2548",
"@. c #4E3748",
"#. c #4B3344",
"$. c #5C3342",
"%. c #5E3D40",
"&. c #5A3C59",
"*. c #622341",
"=. c #6B2647",
"-. c #652A42",
";. c #6E2749",
":. c #6E294A",
">. c #712E47",
",. c #712B49",
"<. c #723046",
"1. c #793747",
"2. c #7D3F45",
"3. c #793648",
"4. c #713E4F",
"5. c #7D3256",
"6. c #653864",
"7. c #7F3F64",
"8. c #424242",
"9. c #4A4747",
"0. c #4C4B4B",
"q. c #594253",
"w. c #565656",
"e. c gray37",
"r. c #7E4145",
"t. c #61495A",
"y. c #7C4556",
"u. c #7D5258",
"i. c #474279",
"p. c #636262",
"a. c gray43",
"s. c #726D6D",
"d. c gray44",
"f. c #891E1E",
"g. c #A22D2D",
"h. c #863B5C",
"j. c #8A3B61",
"k. c #814247",
"l. c #874C46",
"z. c #884C46",
"x. c #8C4D4D",
"c. c #8A5243",
"v. c #804657",
"b. c #83495A",
"n. c #966342",
"m. c #964665",
"M. c #924068",
"N. c #9E4C6B",
"B. c #835378",
"V. c #A34F6F",
"C. c #A65B6D",
"Z. c #AA5A6E",
"A. c #B66376",
"S. c #B2677B",
"D. c #BA647A",
"F. c #C16A7D",
"G. c #BC6E82",
"H. c #BE7D84",
"J. c #CD858E",
/* pixels */
"                                                                                                                                ",
"                                                                                                                                ",
"                                                                                                                                ",
"                                                                                                                                ",
"                                                                                                                                ",
"                                                                                                                                ",
"                                                                                                                                ",
"                                                                                                                                ",
"                                                          . . . . . . .                                                         ",
"                                                        . . . . O o O O                                                         ",
"                                                  . . . . . . o , u u y * . . .                                                 ",
"                                                O O O O . . o * u ) _ _ w o O O                                                 ",
"                                              O i x x k : O t z y t c | x u u u * .                                             ",
"                                            O : '  .| ] , O x | t O x ..| ] ` ' w O                                             ",
"                                          O d ' | | k 2 o O c | t O z  . . .| [ x u * . .                                       ",
"                                        . O k |  .[ y O o * x [ t & c ..........| x , . .                                       ",
"                                      . . . - u ) ` z r u i z ) r e ` ........ .| ) , . .                                       ",
"                                    . . o O O * z ` ` ` ` ` z i i z | ..........| x , . .                                       ",
"                                    . o y x x c ` | [ ` | | ) i z _ | ..........| x , . .                                       ",
"                                    . & x | | |  . .| [ | | _ z _ ]  ......... .[ ) , . .                                       ",
"                                        2 y t u ) | | | | [ [ [ | | | | ........| ) - . .                                       ",
"                                        . . . O i ` | ..[ `  .......| ` | .... .] x , . .                                       ",
"                                        . . - e z `  . .[ ]  .......[ ` | ..| ] _ i - . .                                       ",
"                                        . O w i ) ` |  .[ ` |  ... .` ` |  .| _ z r * . .                                       ",
"                                        . o , i z z ` [ ) ) ` [ | ` _ ) ` [ ) z i r & . .                                       ",
"                                        . o w i i i ) _ z z ) ` _ _ ) i ) _ ) i i r & . .                                       ",
"                                        . o w i i i z z i i ) _ ) z i i ) _ z i i r & . .                                       ",
"                                        . o w r i i i i i z ) _ z i i i ) ) z i i e * . .                                       ",
"                                            & - w i i i i i ) _ z i i i z z i i w & O                                           ",
"                                            . o - i i i i i ) ) z r i i i i i e & .                                             ",
"                                            . o - r r i i i z z i i i i i i r e O .                                             ",
"                                            . . - e r i i i i i i i i i i r r w & .                                             ",
"                                                O & w r i i i k i i i i r r l g ; .                                             ",
"                                                O & , i l k k z z z z z d d b X.s %                                             ",
"                                              t i ' { o.o.O.o.o.o.o.o.O.o.o.+.:.y.u.Y . .                                       ",
"                                            * t } i.6.5.5.5.,.5.5.5.5.5.5.5.5.j.G.J.! . .                                       ",
"                                            * y q.7.7.7.5.5.5.5.5.5.5.5.5.5.5.h.G.J.! . .                                       ",
"                                            < h b.G.M.5.h.h.5.5.5.5.5.5.5.5.5.h.S.H.! . .                                       ",
"                                          a $.b.C.D.N.j.j.j.j.h.j.j.j.j.j.j.j.j.4.%.M                                           ",
"                                        - a b.F.F.S.V.M.M.M.j.j.M.M.M.M.M.M.M.5.j .                                             ",
"                                        * s b.F.F.A.m.5.h.5.h.5.5.5.5.h.h.5.h.,.f .                                             ",
"                                        * a y.A.A.Z.h.,.;.,.;.;.:.:.;.=.;.>.E *.0 .                                             ",
"                                          a T $.Q W -.,.k.z.1.;.;.;.;.,.( c.3.*.9 .                                             ",
"                                            * & o $ G <.c.n.2.=.=.=.=.,.c.n.h.E 9 .                                             ",
"                                              O o X g I ^ / W P I I P I ^ / W K 7 .                                             ",
"                                                . X 9 v v v v v v v v v v v v g ; .                                             ",
"                                                . X p L L L L L L L L L L L L J > .                                             ",
"                                                . o f I P P P P P P X.X.o.P P J 7 .                                             ",
"                                                . X 0 F F H 0 8 8 a #.t.q.@.M 8 :                                               ",
"                                                . X 4 V B 6 # . . * 0.a.p.0.m .                                                 ",
"                                                  X # 3 3 # @ . . + 9.a.p.w.m .                                                 ",
"                                                    . . . .     o 2 0.a.e.0.m .                                                 ",
"                                                            . + N 8.w.e.N N 1                                                   ",
"                                                            . + 9.s.p.0.m .                                                     ",
"                                                            . % ~ x.( U q .                                                     ",
"                                                            . @ S g.f.A 4 .                                                     ",
"                                                            . X Z D A C 3 .                                                     ",
"                                                            . X 5 V V 6 # .                                                     ",
"                                                            . X 5 V V B # .                                                     ",
"                                                                                                                                ",
"                                                                                                                                ",
"                                                                                                                                ",
"                                                                                                                                ",
"                                                                                                                                "
};
