/* XPM */
static char *out[] = {
/* columns rows colors chars-per-pixel */
"64 64 153 2 ",
"   c None",
".  c #000000",
"X  c #0B0304",
"o  c #060409",
"O  c #09050C",
"+  c #0D0D0D",
"@  c #130404",
"#  c #1B0606",
"$  c #10060B",
"%  c #140C0D",
"&  c #1D080E",
"*  c #0B0613",
"=  c #0D0916",
"-  c #0E0918",
";  c #170713",
":  c #140914",
">  c #1D0A16",
",  c #120B1D",
"<  c #1A0B1C",
"1  c #1D101F",
"2  c #200707",
"3  c #2D0A0A",
"4  c #3E0D0D",
"5  c #250C1D",
"6  c #3E1212",
"7  c #361E1E",
"8  c #150D23",
"9  c #170E29",
"0  c #1A0F2D",
"q  c #191127",
"w  c #101428",
"e  c #1C132D",
"r  c #1D1234",
"t  c #181B32",
"y  c #2D0F24",
"u  c #200F2C",
"i  c #251424",
"p  c #291625",
"a  c #351226",
"s  c #3C1121",
"d  c #331229",
"f  c #38172F",
"g  c #351E2E",
"h  c #251435",
"j  c #231837",
"k  c #23153B",
"l  c #26193D",
"z  c #281B3F",
"x  c #3C1330",
"c  c #222222",
"v  c #2B2B2B",
"b  c #3C2829",
"n  c #342331",
"m  c #313131",
"M  c #3A3737",
"N  c #393939",
"B  c #440E0E",
"V  c #490E0E",
"C  c #611313",
"Z  c #671B1B",
"A  c #6E1A1A",
"S  c #7C1717",
"D  c #421220",
"F  c #4B1424",
"G  c #45182E",
"H  c #451635",
"J  c #4A1B35",
"K  c #461738",
"L  c #4B193C",
"P  c #521C3A",
"I  c #432121",
"U  c #472F32",
"Y  c #422C3C",
"T  c #4B293A",
"R  c #54203A",
"E  c #592739",
"W  c #5F2F38",
"Q  c #573139",
"!  c #5F3038",
"~  c #5A3A3F",
"^  c #6F3737",
"/  c #653738",
"(  c #271940",
")  c #2A1B44",
"_  c #2D1E4A",
"`  c #1B2546",
"'  c #30204E",
"]  c #342353",
"[  c #392659",
"{  c #3B295D",
"}  c #373D71",
"|  c #4F1E41",
" . c #4C2041",
".. c #422A4F",
"X. c #552447",
"o. c #5A2542",
"O. c #4D3647",
"+. c #5D3243",
"@. c #5F3E41",
"#. c #543D4E",
"$. c #6A2547",
"%. c #6E2749",
"&. c #6F294A",
"*. c #702E46",
"=. c #712B49",
"-. c #782F4F",
";. c #713046",
":. c #793747",
">. c #7C3F45",
",. c #71324F",
"<. c #793748",
"1. c #743152",
"2. c #7C3256",
"3. c #773F53",
"4. c #76355C",
"5. c #573E6F",
"6. c #4E4E4E",
"7. c #5B5B5B",
"8. c #634044",
"9. c #7E4345",
"0. c #7C4555",
"q. c #7C5257",
"w. c #774F70",
"e. c #636363",
"r. c #6B6767",
"t. c #6A6A6A",
"y. c #962626",
"u. c #922A2A",
"i. c #86395B",
"p. c #8A3B61",
"a. c #824346",
"s. c #884D46",
"d. c #895243",
"f. c #824859",
"g. c #956242",
"h. c #924067",
"j. c #97456A",
"k. c #9D4C6C",
"l. c #9C5E69",
"z. c #874D73",
"x. c #A5546D",
"c. c #AE5D74",
"v. c #AD6273",
"b. c #B76277",
"n. c #B96379",
"m. c #BA6879",
"M. c #C77283",
"N. c #C07D85",
"B. c #CD858E",
"V. c #D78592",
"C. c #D88693",
"Z. c #D48A94",
"A. c #DF8E99",
/* pixels */
"                                                                                                                                ",
"                                                                                                                                ",
"                                                                                                                                ",
"                                                                                                                                ",
"                                                                                                                                ",
"                                                                                                                                ",
"                                                          . . . . . . .                                                         ",
"                                                        . . . . o o o O                                                         ",
"                                                  . . . . . . o , e e e - . . .                                                 ",
"                                                O O O O . . o = e z _ ) 8 o o o                                                 ",
"                                              O t z z j - o q h q , z ' l t e e - .                                             ",
"                                            O , z { ] _ , O l ] q O l { ] _ _ ) 8 o                                             ",
"                                          + u z ] [ j , * o l ] 8 O j { [ [ [ ] ( e - . .                                       ",
"                                        . O j ] [ ' q X o * l ' q * z { { { { { ] ( , . .                                       ",
"                                      . . o = e z ' j e 0 r k ( e q _ { { { { { ] ( - . .                                       ",
"                                    . . o o o = j _ _ _ _ _ k r r j ' { { { { { ] l , . .                                       ",
"                                    . o q j z z _ [ _ _ ] ] ( r ( ) ] { { { { { ] ( , . .                                       ",
"                                    . * j ] ] ] [ [ ] _ ] [ ) ( ) ' ] { { { { { ] l , . .                                       ",
"                                        , q q e ( ' ] [ ] ' ' ' ] ] ] ] [ { { { ] l , . .                                       ",
"                                        . . . O r _ [ [ ' _ [ { { [ ] _ ] { { [ _ l , . .                                       ",
"                                        . o * 8 r _ [ [ ' _ [ { { [ ] _ ] { ] ' ) r - . .                                       ",
"                                        . o 8 h ( _ ] [ ' _ ' { { [ _ _ ] [ ' ) k 0 * . .                                       ",
"                                        . o 8 r k ( _ _ ) ( _ ' ] _ ) ( _ ' ) k r 0 * . .                                       ",
"                                        . o , r r r ( ( ( r ( _ _ _ r r ( ) k r r r * . .                                       ",
"                                        . o 8 r r r k k r r ) ) ( r r r ) ) ( r r 0 * . .                                       ",
"                                        . o , 0 0 r r r r r ( _ ( r r r ( ) k r 0 9 * . .                                       ",
"                                            * - 9 r 0 r r r ( ) k r r r r k r 0 8 * O                                           ",
"                                            . o 8 r r r r r ( ) r r r r r r r 0 * .                                             ",
"                                            . o - 0 0 r r r h h k r r 0 r r 0 9 * .                                             ",
"                                            . o , 0 h h h h h h h h h k k r 9 8 O .                                             ",
"                                            O : x | X.X.X.X.X.X.X.X.X.X.X.| u O o                                               ",
"                                            1 p o.2.2.2.2.2.2.2.2.2.2.2.2.&.d O                                                 ",
"                                          p +.0.2.2.2.i.2.2.2.2.2.2.2.2.2.1.[ ` w .                                             ",
"                                        * p f.b.p.2.2.i.2.2.2.i.2.2.i.i.2.4.5.} t .                                             ",
"                                        * p f.n.k.p.p.p.p.p.p.p.p.p.p.p.p.p.z.w.n .                                             ",
"                                        - p 0.c.x.p.j.p.p.p.p.p.p.p.j.p.j.p.c.c.Q %                                             ",
"                                          i T +.2.2.2.i.i.2.2.i.i.2.-.i.i.i.x.n.l.q.U . .                                       ",
"                                            * < J %.=.%.%.%.$.%.$.%.=.=.%.-.x.M.V.B.~ . .                                       ",
"                                            o ; J =.a.s.:.%.%.%.%.%.a.s.:.2.c.V.A.B.~ . .                                       ",
"                                            . O G *.s.g.:.$.$.$.$.*.d.g.9.1.v.Z.Z.N.~ . .                                       ",
"                                            . O y P ! / E P P P P P W / E P +.@.8.@.b                                           ",
"                                            . X y x f x x x x f f H x x H d ; . . .                                             ",
"                                            . o y K K K K K K K K H H H K x > . .                                               ",
"                                            . $ d L L | | | L L L L L L L K > .                                                 ",
"                                              O > p Y #.6.O.n 5 5 5 s F F D 2 .                                                 ",
"                                                . + M 7.7.6.c . . X 3 B B 4 # .                                                 ",
"                                                . + M 7.e.7.c . . X # 2 # # @                                                   ",
"                                                . + M 7.r.e.v .     . . . .                                                     ",
"                                                . + N 7.r.e.v .                                                                 ",
"                                                . + N 7.r.e.v o                                                                 ",
"                                                  O c m 6.e.6.M c                                                               ",
"                                                    . + M 7.r.e.v .                                                             ",
"                                                    . $ I ^ a.a.7 .                                                             ",
"                                                    . @ V S y.u.6 .                                                             ",
"                                                    . X 4 C A Z 3 .                                                             ",
"                                                    . X 3 V V 4 # .                                                             ",
"                                                    . X 3 V V 4 # .                                                             ",
"                                                                                                                                ",
"                                                                                                                                ",
"                                                                                                                                ",
"                                                                                                                                ",
"                                                                                                                                ",
"                                                                                                                                ",
"                                                                                                                                "
};
