/* XPM */
static char *out[] = {
/* columns rows colors chars-per-pixel */
"64 64 163 2 ",
"   c None",
".  c #000000",
"X  c #0B0304",
"o  c #060409",
"O  c #09050D",
"+  c #0F0D0D",
"@  c #130505",
"#  c #1B0707",
"$  c #11060B",
"%  c #140B0D",
"&  c #0B0613",
"*  c #0E0916",
"=  c #0F081A",
"-  c #170712",
";  c #1C0A16",
":  c #110B1C",
">  c #1C0A18",
",  c #111111",
"<  c #1C101F",
"1  c #1E1E1E",
"2  c #2D0707",
"3  c #27090F",
"4  c #290909",
"5  c #3C0B0B",
"6  c #240C1D",
"7  c #2A0F1D",
"8  c #231A1A",
"9  c #150D22",
"0  c #170C28",
"q  c #1A0F2C",
"w  c #1B0D26",
"e  c #181126",
"r  c #101428",
"t  c #1B122C",
"y  c #1D1133",
"u  c #230F24",
"i  c #2E0F22",
"p  c #241424",
"a  c #281725",
"s  c #22102F",
"d  c #3B1020",
"f  c #341029",
"g  c #341724",
"h  c #241435",
"j  c #231837",
"k  c #23153B",
"l  c #25193C",
"z  c #281B3F",
"x  c #311333",
"c  c #3C1230",
"v  c #3F1835",
"b  c #1F213A",
"n  c #2B2B2B",
"m  c #3D2A2B",
"M  c #343434",
"N  c #4B0C0C",
"B  c #510F0F",
"V  c #401111",
"C  c #4A1414",
"Z  c #5D1111",
"A  c #651010",
"S  c #6A1212",
"D  c #751313",
"F  c #46192F",
"G  c #4D1223",
"H  c #5B1524",
"J  c #5E1D2E",
"K  c #471736",
"L  c #481834",
"P  c #461638",
"I  c #4C193C",
"U  c #511B3C",
"Y  c #651627",
"T  c #701D2D",
"R  c #472F32",
"E  c #4B293A",
"W  c #55213B",
"Q  c #5C243C",
"!  c #5A2839",
"~  c #563038",
"^  c #5C3A3F",
"/  c #533C3C",
"(  c #692020",
")  c #7E2536",
"_  c #60323B",
"`  c #663838",
"'  c #271940",
"]  c #2A1B44",
"[  c #2D1E4A",
"{  c #1B2445",
"}  c #2F204D",
"|  c #312447",
" . c #30204E",
".. c #342353",
"X. c #392659",
"o. c #3B295D",
"O. c #2F3B72",
"+. c #4B2243",
"@. c #532346",
"#. c #592345",
"$. c #5C3C40",
"%. c #5E3344",
"&. c #612240",
"*. c #6B2647",
"=. c #65274A",
"-. c #6E2749",
";. c #6F2949",
":. c #632C4A",
">. c #712F47",
",. c #712B49",
"<. c #623245",
"1. c #603F43",
"2. c #6E3C47",
"3. c #6D304E",
"4. c #723046",
"5. c #793747",
"6. c #793648",
"7. c #7C3F45",
"8. c #7C3256",
"9. c #73335A",
"0. c #743D51",
"q. c #4E3B6F",
"w. c #563D6F",
"e. c #3B437B",
"r. c #494949",
"t. c #5F4545",
"y. c #654246",
"u. c #7D4045",
"i. c #7C4556",
"p. c #7C5157",
"a. c #644E6A",
"s. c gray38",
"d. c #6F6F6F",
"f. c #8C1F1F",
"g. c #A72E2E",
"h. c #8A3B61",
"j. c #814247",
"k. c #874B46",
"l. c #884C46",
"z. c #8A5343",
"x. c #824859",
"c. c #966342",
"v. c #934462",
"b. c #924068",
"n. c #864D73",
"m. c #A6556F",
"M. c #A05E6A",
"N. c #AB5B70",
"B. c #AA6F76",
"V. c #B66177",
"C. c #B86778",
"Z. c #B86879",
"A. c #504D82",
"S. c #8F5F82",
"D. c #A37592",
"F. c #BF7D92",
"G. c #C27F86",
"H. c #C87B88",
"J. c #D27F8E",
"K. c #CE868F",
"L. c #DD8B97",
"P. c #DB8E98",
"I. c #E4939E",
/* pixels */
"                                                                                                                                ",
"                                                                                                                                ",
"                                                                                                                                ",
"                                                                                                                                ",
"                                                                                                                                ",
"                                                                                                                                ",
"                                                                                                                                ",
"                                                                                                                                ",
"                                                          . . . . . . .                                                         ",
"                                                        O O O O & O O o                                                         ",
"                                                  . . + t ] j z j l y t * . . .                                                 ",
"                                                O O O * j ......X.o...] e o o o                                                 ",
"                                              O t l l j t e < e } o.X...l t t t * .                                             ",
"                                            O * | X...| : . o * j ..X.o...} } ] e o                                             ",
"                                          + t ] ....j : O o e l t t | o...X.X...l t * .                                         ",
"                                        . O j ..X. .t o o & l  .e & j o.o.o.o.X...l : .                                         ",
"                                        . o * t ' [ k q s y k z y 0 } o.o.o.o.o...' : .                                         ",
"                                        . . o * k [ [ [ [ [ k y y k ..o.o.o.o.o...' : .                                         ",
"                                      . . o e l  ... .[  ...k y k ] ..o.o.o.o.o. .l : .                                         ",
"                                    . . o * l ..X.X. . ...X.[ k ] [ ..o.o.o.o.X...' : .                                         ",
"                                    . o e j t t ]  ....... . . ...X.....X.o.o.o...' = .                                         ",
"                                    . & j | 9 O y [ X.X. .} X.o.o.X...[ X.o.o.X.} l : .                                         ",
"                                        : 9 9 9 k [ X.X. . ...o.o.X.} [ ..o...} ] y * .                                         ",
"                                        . o 9 h ' [ ..X. .[ ..o.o.X.} [ ..X.} ] k t * .                                         ",
"                                        . o 9 y k k [  .' ' ]  ...} ] ' ] } ' ' y y & .                                         ",
"                                        . o : y y y ' ] k k ' [ [ ] ' y ' ] k y y q & .                                         ",
"                                        . o : y y y k k y y ' ] ' k y k ' ] k y y q & .                                         ",
"                                        . o 9 y y y y y y k ' ] y y y y ' ' k y y q & .                                         ",
"                                            & * 0 y y y y y ' ] y y y y y k y y 9 & o                                           ",
"                                            . o = y y y y y ' ' k y y y y y y q & .                                             ",
"                                            . o = q y y y y k k y y y y y y q 0 O .                                             ",
"                                            . o = q q y y y y y y y y y y y q = & .                                             ",
"                                            O & s x s 0 q y y y y y y y q 0 = & o                                               ",
"                                            > p P I x s s h h h y k k y s w = o                                                 ",
"                                          a %.0.-.=.#.+.@.#.#.#.@.@.@.@.+.+.[ { r .                                             ",
"                                        * a x.V.b.8.8.8.8.8.,.8.8.8.8.8.8.9.w.O.b %                                             ",
"                                        * a x.V.v.8.8.8.8.8.8.8.8.8.8.8.8.9.q.O.a.p.R .                                         ",
"                                        * a i.N.v.8.8.8.h.h.8.8.8.8.8.h.8.9.w.A.D.K.y.%                                         ",
"                                          p E <.8.h.h.h.h.h.h.h.h.h.h.h.h.h.n.S.F.P.B.p.R . .                                   ",
"                                            * e 3.h.b.h.h.h.h.h.h.h.b.b.b.b.N.Z.J.I.I.K.$.. .                                   ",
"                                            o ; W h.8.h.,.h.h.8.h.8.h.8.8.8.<._ M.K.L.K.$.. .                                   ",
"                                            . O F *.*.,.-.Q -.-.-.-.-.*.,.&.7 % 2.Z.H.H.^ . .                                   ",
"                                            . $ F >.j.k.j.-.-.-.-.,.j.k.6.&.7 X g ~ ^ 1.m                                       ",
"                                            . $ F >.z.c.5.*.*.*.*.>.l.c.u.Q 7 . . . . .                                         ",
"                                            . O f W _ ` ! U U U U U _ ` ! K ; . .                                               ",
"                                            . X u c c c c c c c c c c c c f - .                                                 ",
"                                            . X i P P P P P P P L K K P K c > .                                                 ",
"                                            . O f I I I U I U U I I U U U K 6 .                                                 ",
"                                              O ; 6 6 7 G Y Y H d i J ) T H 3 .                                                 ",
"                                                . . . @ N D D A 2 @ ( g.f.S 2 .                                                 ",
"                                                  . . X 5 Z Z B 4 X C                                                           ",
"                                                    . X 2 C C V # .                                                             ",
"                                                    . + m t.t./ 8 .                                                             ",
"                                                    . , r.d.d.s.n .                                                             ",
"                                                      % n M M M 1                                                               ",
"                                                        . . . .                                                                 ",
"                                                        . . . .                                                                 ",
"                                                                                                                                ",
"                                                                                                                                ",
"                                                                                                                                ",
"                                                                                                                                ",
"                                                                                                                                ",
"                                                                                                                                ",
"                                                                                                                                "
};
