/* XPM */
static char *rcp1005201457353[] = {
/* columns rows colors chars-per-pixel */
"64 64 214 2 ",
"   c #040402",
".  c #0C0C03",
"X  c #06050B",
"o  c #0A050C",
"O  c #0D0B0C",
"+  c #0D0303",
"@  c #140504",
"#  c #120D0B",
"$  c #121204",
"%  c #13130B",
"&  c #181806",
"*  c #0B0713",
"=  c #0A0B15",
"-  c #090813",
";  c #160A11",
":  c #1B0A15",
">  c #130B1D",
",  c #1A0A19",
"<  c #181415",
"1  c #380C0C",
"2  c #220D17",
"3  c #27161D",
"4  c #3D1212",
"5  c #391E0B",
"6  c #26260A",
"7  c #272809",
"8  c #292A0A",
"9  c #28270F",
"0  c #2F300B",
"q  c #32330C",
"w  c #3C3C0E",
"e  c #373B0D",
"r  c #242118",
"t  c #26231A",
"y  c #342A15",
"u  c #3D3D12",
"i  c #373718",
"p  c #150E22",
"a  c #1A0F2C",
"s  c #170E29",
"d  c #181026",
"f  c #1D142C",
"g  c #171024",
"h  c #1E1333",
"j  c #1D1D37",
"k  c #261525",
"l  c #351728",
"z  c #211536",
"x  c #23163B",
"c  c #26193C",
"v  c #271B38",
"b  c #391535",
"n  c #240C21",
"m  c #192239",
"M  c #1E2B32",
"N  c #2A2A2A",
"B  c #392828",
"V  c #363627",
"C  c #382835",
"Z  c #313030",
"A  c #3C3C3B",
"S  c #383434",
"D  c #232731",
"F  c #4B0C0C",
"G  c #4F100D",
"H  c #411C1C",
"J  c #6E1212",
"K  c #7E1A19",
"L  c #781616",
"P  c #433F17",
"I  c #431A2E",
"U  c #40162B",
"Y  c #561829",
"T  c #461931",
"R  c #491B3A",
"E  c #531D38",
"W  c #462629",
"Q  c #442536",
"!  c #58233D",
"~  c #563E3E",
"^  c #782323",
"/  c #6D3538",
"(  c #713939",
")  c #67212F",
"_  c #3F400F",
"`  c #3F4013",
"'  c #3F403B",
"]  c #444610",
"[  c #474811",
"{  c #494B11",
"}  c #535514",
"|  c #565914",
" . c #5A5C16",
".. c #565818",
"X. c #484A11",
"o. c #614414",
"O. c #5F6116",
"+. c #616317",
"@. c #646719",
"#. c #666918",
"$. c #6B6E19",
"%. c #656C17",
"&. c #6F721A",
"*. c #72751B",
"=. c #414227",
"-. c #44443F",
";. c #7D4E25",
":. c #777A22",
">. c #7B7E31",
",. c #271941",
"<. c #2A1C45",
"1. c #2D1E49",
"2. c #311D40",
"3. c #1E264D",
"4. c #28264A",
"5. c #31214D",
"6. c #3A234A",
"7. c #352454",
"8. c #3C2653",
"9. c #392659",
"0. c #3C295D",
"q. c #3E2F57",
"w. c #27355B",
"e. c #2D3251",
"r. c #38335F",
"t. c #313B74",
"y. c #5C2841",
"u. c #562A48",
"i. c #54394C",
"p. c #492B56",
"a. c #40305F",
"s. c #52314B",
"d. c #652748",
"f. c #652947",
"g. c #712F4F",
"h. c #67324E",
"j. c #663B5F",
"k. c #683A5A",
"l. c #793355",
"z. c #7A3653",
"x. c #533A67",
"c. c #4B3A66",
"v. c #36457D",
"b. c #4E4E4D",
"n. c #434343",
"m. c #5E5D5D",
"M. c #555554",
"N. c #5C4951",
"B. c #714047",
"V. c #674651",
"C. c #514E6C",
"Z. c #795876",
"A. c #6F5269",
"S. c #52697A",
"D. c #656565",
"F. c #6A6565",
"G. c #6B6B6B",
"H. c #736768",
"J. c #737272",
"K. c #7F7677",
"L. c #7D6575",
"P. c #972828",
"I. c #953035",
"U. c #853032",
"Y. c #A13339",
"T. c #82375B",
"R. c #86395E",
"E. c #8A3B61",
"W. c #825B5B",
"Q. c #8B4749",
"!. c #A4474B",
"~. c #996554",
"^. c #844C64",
"/. c #97556B",
"(. c #8A5067",
"). c #A05B6F",
"_. c #876E76",
"`. c #967479",
"'. c #916771",
"]. c #A3667D",
"[. c #BC6C7C",
"{. c #A17171",
"}. c #C46D7F",
"|. c #999A7B",
" X c #3A4C85",
".X c #3A4B87",
"XX c #3C518B",
"oX c #49568B",
"OX c #4F568B",
"+X c #776888",
"@X c #967389",
"#X c #B66D82",
"$X c #A97B8A",
"%X c #B27D95",
"&X c #C57384",
"*X c #708493",
"=X c #808080",
"-X c #938E96",
";X c #AC8A9A",
":X c #B1858A",
">X c #988AA3",
",X c #B69CAF",
"<X c #8BA3B0",
"1X c #AEAEAE",
"2X c #CD8893",
"3X c #DA8992",
"4X c #D78693",
"5X c #DA929B",
"6X c #CD8792",
"7X c #E4949E",
"8X c #E08F9A",
"9X c #E1B1BB",
"0X c #BFB7C4",
"qX c #DBD4DE",
/* pixels */
"*.*.*.*.*.*.*.*.*.*.*.*.*.*.*.*.*.*.*.*.*.*.*.*.*.*.*.*.*.*.*.*.*.*.*.*.*.*.*.*.*.*.*.*.*.*.*.*.*.*.*.*.*.*.*.*.*.*.*.*.*.*.*.*.",
"*.*.*.*.*.*.*.*.*.*.*.*.*.*.*.*.*.*.*.*.*.*.*.*.*.*.*.*.*.*.*.*.*.*.*.*.*.*.*.*.*.*.*.*.*.*.*.*.*.*.*.*.*.*.*.*.*.*.*.*.*.*.*.*.",
"*.*.*.*.*.*.*.*.*.*.*.*.*.*.*.*.*.*.*.*.*.*.*.*.*.*.*.*.*.*.*.*.*.*.*.*.*.*.*.*.*.*.*.*.*.*.*.*.*.*.*.*.*.*.*.*.*.*.*.*.*.*.*.*.",
"*.*.*.*.*.*.*.*.*.*.*.*.*.*.*.*.*.*.*.*.*.*.*.*.*.*.*.*.*.*.*.*.*.*.*.*.*.*.*.*.*.*.*.*.*.*.*.*.*.*.*.*.*.*.*.*.*.*.*.*.*.*.*.*.",
"*.*.*.*.*.*.*.*.*.*.*.*.*.*.*.*.*.*.*.*.*.*.*.*.*.*.*.*.*.*.*.*.*.*.*.*.*.*.*.*.*.*.*.*.*.*.*.*.*.*.*.*.*.*.*.*.*.*.*.*.*.*.*.*.",
"*.*.*.*.*.*.*.*.*.*.*.*.*.*.*.*.*.*.*.*.*.*.*.*.*.*.*.*.*.*.*.*.*.*.*.*.*.*.*.*.*.*.*.*.*.*.*.*.*.*.*.*.*.*.*.*.*.*.*.*.*.*.*.*.",
"*.*.*.*.*.*.*.*.*.*.*.*.*.*.*.*.*.*.*.*.*.*.*.$.$.*.*.*.*.*.*.*.*.*.*.*.*.*.*.*.*.*.*.*.*.*.*.*.*.*.*.*.*.*.*.*.*.*.*.*.*.*.*.*.",
"*.*.*.*.*.*.*.*.*.*.*.*.*.*.*.*.*.*.*.&.#.+.+.@.$.&.#.+.+.+.+.+.+.+.+.+.+.+.$.*.*.*.*.*.*.*.*.*.*.*.*.*.*.*.*.*.*.*.*.*.*.*.*.*.",
"*.*.*.*.*.*.*.*.*.*.*.*.*.*.*.*.*.*.*.#.] 8 8 q | #.] 8 8 8 8 8 8 8 8 8 8 q | *.*.*.*.*.*.*.*.*.*.*.*.*.*.*.*.*.*.*.*.*.*.*.*.*.",
"*.*.*.*.*.*.*.*.*.*.*.*.*.*.*.*.*.*.*.+.7   X % ] } 9 X X X o o o o o o X # u @.$.*.*.*.*.*.*.*.*.*.*.*.*.*.*.*.*.*.*.*.*.*.*.*.",
"*.*.*.*.*.*.*.*.*.*.*.*.*.*.*.*.*.*.*.+.7 X d v t 9 k f f h z c c c c c z f r q | *.*.*.*.*.*.*.*.*.*.*.*.*.*.*.*.*.*.*.*.*.*.*.",
"*.*.*.*.*.*.*.*.*.*.*.*.*.*.*.*.*.*.*.+.7 o c 5.s * h 1.1.5.9.0.0.0.0.0.7.<.p # u @.$.*.*.*.*.*.*.*.*.*.*.*.*.*.*.*.*.*.*.*.*.*.",
"*.*.*.*.*.*.*.*.*.*.*.*.*.*.*.*.*.*.*.+.7 o z 1.h s <.9.9.9.9.0.0.0.0.0.9.7.c f r q | *.*.*.*.*.*.*.*.*.*.*.*.*.*.*.*.*.*.*.*.*.",
"*.*.*.*.*.*.*.*.*.*.*.*.*.*.*.*.*.*.*.+.q % f c x x 5.0.0.0.0.0.0.0.0.0.0.0.7.<.p # u @.$.*.*.*.*.*.*.*.*.*.*.*.*.*.*.*.*.*.*.*.",
"*.*.*.*.*.*.*.*.*.*.*.*.*.*.*.*.*.*.*.$.| ` r p h <.1.7.9.0.0.0.0.0.0.0.0.0.9.7.c f r q } *.*.*.*.*.*.*.*.*.*.*.*.*.*.*.*.*.*.*.",
"*.*.*.*.*.*.*.*.*.*.*.*.*.*.*.*.*.*.*.*.#.} 9 * h 1.1.5.9.0.0.0.0.0.0.0.0.0.0.0.7.<.> . ] *.*.*.*.*.*.*.*.*.*.*.*.*.*.*.*.*.*.*.",
"*.*.*.*.*.*.*.*.*.*.*.*.*.*.*.*.*.*.*.#.] 9 k h c 1.7.9.9.0.0.0.0.0.0.0.0.0.0.0.9.5.p . ] *.*.*.*.*.*.*.*.*.*.*.*.*.*.*.*.*.*.*.",
"*.*.*.*.*.*.*.*.*.*.*.*.*.*.*.*.*.*.*.+.7 X f 1.1.1.9.0.0.0.0.0.0.0.0.0.0.0.0.0.0.9.d . ] *.*.*.*.*.*.*.*.*.*.*.*.*.*.*.*.*.*.*.",
"*.*.*.*.*.*.*.*.*.*.*.*.*.*.*.*.*.*.*.+.7 X f 1.1.1.9.0.0.0.9.7.9.0.0.0.0.0.9.7.9.9.d . ] *.*.*.*.*.*.*.*.*.*.*.*.*.*.*.*.*.*.*.",
"*.*.*.*.*.*.*.*.*.*.*.*.*.*.*.*.*.*.#.} 6 X f 1.1.1.9.0.0.0.7.5.9.0.0.0.0.9.5.<.7.7.g . ] *.*.*.*.*.*.*.*.*.*.*.*.*.*.*.*.*.*.*.",
"*.*.*.*.*.*.*.*.*.*.*.*.*.*.*.*.*.#.] 7 . X f 1.1.1.5.7.9.0.9.9.7.7.9.0.9.5.c h <.1.p . ] *.*.*.*.*.*.*.*.*.*.*.*.*.*.*.*.*.*.*.",
"*.*.*.*.*.*.*.*.*.*.*.*.*.*.*.*.*.O.7     * h 1.<.<.<.1.9.0.0.9.1.<.7.9.8.6.v f z c < & { *.*.*.*.*.*.*.*.*.*.*.*.*.*.*.*.*.*.*.",
"*.*.*.*.*.*.*.*.*.*.*.*.*.*.*.*.*.O.7 X > h c <.c x <.1.5.7.5.1.x z <.8.j.A.h.Q k < y { +.*.*.*.*.*.*.*.*.*.*.*.*.*.*.*.*.*.*.*.",
"*.*.*.*.*.*.*.*.*.*.*.*.*.*.*.*.*.+.0 % f <.<.,.x h ,.1.1.1.5.5.c z 2.p./.[.^.i.k . ] *.*.*.*.*.*.*.*.*.*.*.*.*.*.*.*.*.*.*.*.*.",
"*.*.*.*.*.*.*.*.*.*.*.*.*.*.*.*.*.$.| u 3 p h x h h ,.1.1.5.C.A.i.u.k./.#X6X_.C.D . ] *.*.*.*.*.*.*.*.*.*.*.*.*.*.*.*.*.*.*.*.*.",
"*.*.*.*.*.*.*.*.*.*.*.*.*.*.*.*.*.*.*.+.0 O > a h h ,.1.1.q.+X>XZ.V.).&X4X5X-XS.M . ] *.*.*.*.*.*.*.*.*.*.*.*.*.*.*.*.*.*.*.*.*.",
"*.*.*.*.*.*.*.*.*.*.*.*.*.*.*.*.*.*.*.$.} u < = s h ,.1.7.c.>X0X*XS.$X4X8X5X%XL.C . ] *.*.*.*.*.*.*.*.*.*.*.*.*.*.*.*.*.*.*.*.*.",
"*.*.*.*.*.*.*.*.*.*.*.*.*.*.*.*.*.*.*.*.*.+.7 X > h c 1.9.C.,XqX<X*X;X7X7X3X&X/.W . ] *.*.*.*.*.*.*.*.*.*.*.*.*.*.*.*.*.*.*.*.*.",
"*.*.*.*.*.*.*.*.*.*.*.*.*.*.*.*.*.*.*.*.*.+.7   o > z 1.9.x.;X9X,X;X2X7X4X&X(.s.3 . ] *.*.*.*.*.*.*.*.*.*.*.*.*.*.*.*.*.*.*.*.*.",
"*.*.*.*.*.*.*.*.*.*.*.*.*.*.*.*.*.*.*.*.$.| 9 o   X f 1.9.x.].3X3X3X3X4X[./.s.a * . ] *.*.*.*.*.*.*.*.*.*.*.*.*.*.*.*.*.*.*.*.*.",
"*.*.*.*.*.*.*.*.*.*.*.*.*.*.*.*.*.*.*.#.] y W T : X f 1.9.p.z.!.!.!.!.!.( Q v a * . ] *.*.*.*.*.*.*.*.*.*.*.*.*.*.*.*.*.*.*.*.*.",
"*.*.*.*.*.*.*.*.*.*.*.*.*.*.*.*.*.*.$.| 9 2 f.l.l ; f <.9.p.Y J L K K J 1 o > s * . [ *.*.*.*.*.*.*.*.*.*.*.*.*.*.*.*.*.*.*.*.*.",
"*.*.*.*.*.*.*.*.*.*.*.*.*.*.*.*.*.#.] y W y.l.T.f.I k d 1.8.l 1 L P.P.P.Y n , * X . ] *.*.*.*.*.*.*.*.*.*.*.*.*.*.*.*.*.*.*.*.*.",
"*.*.*.*.*.*.*.*.*.*.*.*.*.*.*.*.*.O.7 ; y.E.E.R.T.f.3 o c 7.p @ ) Y.Y.I.) b :     $ { *.*.*.*.*.*.*.*.*.*.*.*.*.*.*.*.*.*.*.*.*.",
"*.*.*.*.*.*.*.*.*.*.*.*.*.*.*.*.*.O.7 ; y.R.l.g.l.g.k o c 7.p O C j.j.k.u.b : . 8 [ O.*.*.*.*.*.*.*.*.*.*.*.*.*.*.*.*.*.*.*.*.*.",
"*.*.*.*.*.*.*.*.*.*.*.*.*.*.*.*.*.O.7 ; y.T.d.! g.g.l = c 5.> - 3.v.v.t.8.b : . ] *.*.*.*.*.*.*.*.*.*.*.*.*.*.*.*.*.*.*.*.*.*.*.",
"*.*.*.*.*.*.*.*.*.*.*.*.*.*.*.*.*.O.7 ; y.T.d.E I l 4.4.j p o - 3.t..Xv.0.b : . ] *.*.*.*.*.*.*.*.*.*.*.*.*.*.*.*.*.*.*.*.*.*.*.",
"*.*.*.*.*.*.*.*.*.*.*.*.*.*.*.*.*.O.7 ; y.T.d.T : = w.v.m X O > 4.t..X Xa.b , . ] *.*.*.*.*.*.*.*.*.*.*.*.*.*.*.*.*.*.*.*.*.*.*.",
"*.*.*.*.*.*.*.*.*.*.*.*.*.*.*.*.*.O.7 ; y.T.d.T : = w. Xt.e.i.B.A.Z.OXXXv.r.f . ] *.*.*.*.*.*.*.*.*.*.*.*.*.*.*.*.*.*.*.*.*.*.*.",
"*.*.*.*.*.*.*.*.*.*.*.*.*.*.*.*.*.+.8 < ! l.d.T : = w.XXXXOX@X}.}.#X+XoXoXv.m . ] *.*.*.*.*.*.*.*.*.*.*.*.*.*.*.*.*.*.*.*.*.*.*.",
"*.*.*.*.*.*.*.*.*.*.*.*.*.*.*.*.*.:...P B I R T : o c a.a.x.].4X4X6X%X@X+XC.D . ] *.*.*.*.*.*.*.*.*.*.*.*.*.*.*.*.*.*.*.*.*.*.*.",
"*.*.*.*.*.*.*.*.*.*.*.*.*.*.*.*.*.*.:.@.8 o l T : o k R R u.].5X7X7X7X5X$XD.Z % ] $.&.*.*.*.*.*.*.*.*.*.*.*.*.*.*.*.*.*.*.*.*.*.",
"*.*.*.*.*.*.*.*.*.*.*.*.*.*.*.*.*.*.%.@.8 o U E 2 O C i.N.A._.:X2X7X7X5X`.D.b.' V e | *.*.*.*.*.*.*.*.*.*.*.*.*.*.*.*.*.*.*.*.*.",
"*.*.*.*.*.*.*.*.*.*.*.*.*.*.*.*.*.*.*.| 8 # I ! 3 < A m.G.J.J.K.:X5X5X2X_.m.G.D.Z % ] $.&.*.*.*.*.*.*.*.*.*.*.*.*.*.*.*.*.*.*.*.",
"*.*.*.*.*.*.*.*.*.*.*.*.*.*.*.*.*.*.*.$.} u y l N A M.G.G.J.G.F._.`.`._.F.m.G.G.M.A V e | *.*.*.*.*.*.*.*.*.*.*.*.*.*.*.*.*.*.*.",
"*.*.*.*.*.*.*.*.*.*.*.*.*.*.*.*.*.*.*.*.*.+.7 O A m.G.J.J.G.m.M.M.M.M.M.M.M.D.J.J.D.N . ] *.*.*.*.*.*.*.*.*.*.*.*.*.*.*.*.*.*.*.",
"*.*.*.*.*.*.*.*.*.*.*.*.*.*.*.*.*.*.*.*.*.+.7 O A m.G.J.J.G.n.N N N N N N N b.D.G.D.N . ] *.*.*.*.*.*.*.*.*.*.*.*.*.*.*.*.*.*.*.",
"*.*.*.*.*.*.*.*.*.*.*.*.*.*.*.*.*.*.*.*.&. .8 < A m.G.J.G.m.N             O S m.F.F.Z % ] $.$.*.*.*.*.*.*.*.*.*.*.*.*.*.*.*.*.*.",
"*.*.*.*.*.*.*.*.*.*.*.*.*.*.*.*.*.*.*.#.{ q V A M.G.G.G.b.S i _ _ e ] u $ + H / ( B.N.b.=.q q *.*.*.*.*.*.*.*.*.*.*.*.*.*.*.*.*.",
"*.*.*.*.*.*.*.*.*.*.*.*.*.*.*.*.*.*.*.+.7 O A m.F.J.G.m.N $ { *.*.*.%.$.8 + F L L ^ W.=XA     *.*.*.*.*.*.*.*.*.*.*.*.*.*.*.*.*.",
"*.*.*.*.*.*.*.*.*.*.*.*.*.*.*.*.*.*.*.+.7 @ W ( Q.Q.~ S i ] O.*.*.*.*.@.8 + F K U.W.N.-.=._ _ *.*.*.*.*.*.*.*.*.*.*.*.*.*.*.*.*.",
"*.*.*.*.*.*.*.*.*.*.*.*.*.*.*.*.*.*.*.+.7 @ F K P.P.4 $ { *.*.*.*.*.*.@.0 @ F ^ W.=XA $ [ *.*.*.*.*.*.*.*.*.*.*.*.*.*.*.*.*.*.*.",
"*.*.*.*.*.*.*.*.*.*.*.*.*.*.*.*.*.*.*.+.7 @ F K P.P.4 $ { *.*.*.*.*.*.$.} w 5 1 B -.=.]  .*.*.*.*.*.*.*.*.*.*.*.*.*.*.*.*.*.*.*.",
"*.*.*.*.*.*.*.*.*.*.*.*.*.*.*.*.*.*.*.+.8 @ F K P.I.H % { &.*.*.*.*.*.*.*.#.0     $ [ *.*.*.*.*.*.*.*.*.*.*.*.*.*.*.*.*.*.*.*.*.",
"*.*.*.*.*.*.*.*.*.*.*.*.*.*.*.*.*.*.*.$.} ] o.;.~.{.H.M.=.w  .*.*.*.*.*.*.$.} w w ]  .*.*.*.*.*.*.*.*.*.*.*.*.*.*.*.*.*.*.*.*.*.",
"*.*.*.*.*.*.*.*.*.*.*.*.*.*.*.*.*.*.*.*.*.*.*.>.|.1X1X-XA $ { *.*.*.*.*.*.*.*.*.*.*.*.*.*.*.*.*.*.*.*.*.*.*.*.*.*.*.*.*.*.*.*.*.",
"*.*.*.*.*.*.*.*.*.*.*.*.*.*.*.*.*.*.*.*.*.*.*.>.|.1X1X-XA $ { *.*.*.*.*.*.*.*.*.*.*.*.*.*.*.*.*.*.*.*.*.*.*.*.*.*.*.*.*.*.*.*.*.",
"*.*.*.*.*.*.*.*.*.*.*.*.*.*.*.*.*.*.*.*.*.*.*.*.*.*.*.*.*.*.*.*.*.*.*.*.*.*.*.*.*.*.*.*.*.*.*.*.*.*.*.*.*.*.*.*.*.*.*.*.*.*.*.*.",
"*.*.*.*.*.*.*.*.*.*.*.*.*.*.*.*.*.*.*.*.*.*.*.*.*.*.*.*.*.*.*.*.*.*.*.*.*.*.*.*.*.*.*.*.*.*.*.*.*.*.*.*.*.*.*.*.*.*.*.*.*.*.*.*.",
"*.*.*.*.*.*.*.*.*.*.*.*.*.*.*.*.*.*.*.*.*.*.*.*.*.*.*.*.*.*.*.*.*.*.*.*.*.*.*.*.*.*.*.*.*.*.*.*.*.*.*.*.*.*.*.*.*.*.*.*.*.*.*.*.",
"*.*.*.*.*.*.*.*.*.*.*.*.*.*.*.*.*.*.*.*.*.*.*.*.*.*.*.*.*.*.*.*.*.*.*.*.*.*.*.*.*.*.*.*.*.*.*.*.*.*.*.*.*.*.*.*.*.*.*.*.*.*.*.*.",
"*.*.*.*.*.*.*.*.*.*.*.*.*.*.*.*.*.*.*.*.*.*.*.*.*.*.*.*.*.*.*.*.*.*.*.*.*.*.*.*.*.*.*.*.*.*.*.*.*.*.*.*.*.*.*.*.*.*.*.*.*.*.*.*.",
"*.*.*.*.*.*.*.*.*.*.*.*.*.*.*.*.*.*.*.*.*.*.*.*.*.*.*.*.*.*.*.*.*.*.*.*.*.*.*.*.*.*.*.*.*.*.*.*.*.*.*.*.*.*.*.*.*.*.*.*.*.*.*.*.",
"*.*.*.*.*.*.*.*.*.*.*.*.*.*.*.*.*.*.*.*.*.*.*.*.*.*.*.*.*.*.*.*.*.*.*.*.*.*.*.*.*.*.*.*.*.*.*.*.*.*.*.*.*.*.*.*.*.*.*.*.*.*.*.*."
};
