/* XPM */
static char *rcp10051722263891[] = {
/* columns rows colors chars-per-pixel */
"64 64 218 2 ",
"   c #020101",
".  c #0D0D03",
"X  c #06040A",
"o  c #0A050C",
"O  c #0D0C0C",
"+  c #0C0505",
"@  c #110404",
"#  c #130E0D",
"$  c #17070A",
"%  c #0F1004",
"&  c #131405",
"*  c #12110B",
"=  c #1A1B06",
"-  c #0A0712",
";  c #0C0A14",
":  c #0C0A19",
">  c #170A10",
",  c #1B0915",
"<  c #120C1D",
"1  c #1A0A19",
"2  c #1A1A1A",
"3  c #181118",
"4  c #390A0B",
"5  c #230C1A",
"6  c #260E1B",
"7  c #2D120F",
"8  c #26260A",
"9  c #272809",
"0  c #292A0A",
"q  c #2E300B",
"w  c #33340C",
"e  c #3D3E0F",
"r  c #242118",
"t  c #242017",
"y  c #352A15",
"u  c #3D3D12",
"i  c #36361A",
"p  c #150E22",
"a  c #170E29",
"s  c #181026",
"d  c #1C132C",
"f  c #171024",
"g  c #1E1333",
"h  c #1D1D37",
"j  c #251421",
"k  c #251726",
"l  c #331224",
"z  c #391627",
"x  c #211535",
"c  c #23163B",
"v  c #26193C",
"b  c #291B3C",
"n  c #3B1435",
"m  c #2B0E25",
"M  c #192239",
"N  c #1E2B32",
"B  c #242424",
"V  c #2C2C2B",
"C  c #3B2837",
"Z  c #3B3B3B",
"A  c #383635",
"S  c #31282A",
"D  c #4B0C0C",
"F  c #481414",
"G  c #6E1212",
"H  c #7D1B1B",
"J  c #781616",
"K  c #433F16",
"L  c #421A2E",
"P  c #40162B",
"I  c #561828",
"U  c #461931",
"Y  c #471937",
"T  c #581F3B",
"R  c #452629",
"E  c #592929",
"W  c #422437",
"Q  c #5A203F",
"!  c #59283D",
"~  c #543B3B",
"^  c #7C2525",
"/  c #763A3E",
"(  c #692C33",
")  c #3F4013",
"_  c #454710",
"`  c #464811",
"'  c #494C11",
"]  c #535514",
"[  c #565914",
"{  c #5A5B17",
"}  c #5F6116",
"|  c #616317",
" . c #646618",
".. c #676A18",
"X. c #6B6E19",
"o. c #6E711A",
"O. c #72751B",
"+. c #75781E",
"@. c #444529",
"#. c #6A6C20",
"$. c #1A1F47",
"%. c #271941",
"&. c #2A1C45",
"*. c #2D1E49",
"=. c #301D40",
"-. c #1B2347",
";. c #2A244D",
":. c #31214D",
">. c #39234A",
",. c #212B51",
"<. c #352454",
"1. c #392659",
"2. c #3C295D",
"3. c #3D2854",
"4. c #27355B",
"5. c #38325E",
"6. c #343774",
"7. c #2F396C",
"8. c #5C2841",
"9. c #562A47",
"0. c #5B344B",
"q. c #492B56",
"w. c #43325B",
"e. c #52314B",
"r. c #652748",
"t. c #662847",
"y. c #702E4F",
"u. c #663B5F",
"i. c #683959",
"p. c #7A3355",
"a. c #793656",
"s. c #403060",
"d. c #4B3A66",
"f. c #533A67",
"g. c #773C62",
"h. c #33407E",
"j. c #39477C",
"k. c gray31",
"l. c #474744",
"z. c #5B5656",
"x. c #5B5A5A",
"c. c #545452",
"v. c #594352",
"b. c #754949",
"n. c #655959",
"m. c #67424E",
"M. c #554677",
"N. c #505A70",
"B. c #4E4F67",
"V. c #7F5177",
"C. c #795776",
"Z. c #77556A",
"A. c #516979",
"S. c #656464",
"D. c #6D6D6D",
"F. c #6A6062",
"G. c gray44",
"H. c #7D7072",
"J. c #7D666E",
"K. c #8A2626",
"L. c #963437",
"P. c #972626",
"I. c #A23338",
"U. c #82375B",
"Y. c #87395E",
"T. c #8A3B61",
"R. c #975757",
"E. c #9A4449",
"W. c #A4484C",
"Q. c #A85D5D",
"!. c #97556B",
"~. c #8A5066",
"^. c #A05B6F",
"/. c #836E7F",
"(. c #9F647E",
"). c #997576",
"_. c #806A6D",
"`. c #A3667C",
"'. c #A27577",
"]. c #B9697B",
"[. c #C36D7F",
"{. c #C0707E",
"}. c #3A4C85",
"|. c #334482",
" X c #3C528D",
".X c #48558B",
"XX c #4E568B",
"oX c #675280",
"OX c #766888",
"+X c #9D7F82",
"@X c #936C8C",
"#X c #B66D82",
"$X c #A87C86",
"%X c #B17C95",
"&X c #C57384",
"*X c #618291",
"=X c #7E8595",
"-X c #9E8084",
";X c #979797",
":X c #928797",
">X c #AB8A9A",
",X c #A79B9B",
"<X c #9789A3",
"1X c #B69DAF",
"2X c #8AA3B1",
"3X c #AEAEAE",
"4X c #CB8591",
"5X c #D88693",
"6X c #DB8993",
"7X c #D48692",
"8X c #D6919B",
"9X c #DD929C",
"0X c #CE8793",
"qX c #E4949E",
"wX c #E08E9A",
"eX c #E1B1BB",
"rX c #BEB7C3",
"tX c #DBD4DE",
/* pixels */
"O.O.O.O.O.O.O.O.O.O.O.O.O.O.O.O.O.O.O.O.O.O.O.O.O.O.O.O.O.O.O.O.O.O.O.O.O.O.O.O.O.O.O.O.O.O.O.O.O.O.O.O.O.O.O.O.O.O.O.O.O.O.O.O.",
"O.O.O.O.O.O.O.O.O.O.O.O.O.O.O.O.O.O.O.O.O.O.O.O.O.O.O.O.O.O.O.O.O.O.O.O.O.O.O.O.O.O.O.O.O.O.O.O.O.O.O.O.O.O.O.O.O.O.O.O.O.O.O.O.",
"O.O.O.O.O.O.O.O.O.O.O.O.O.O.O.O.O.O.O.O.O.O.O.O.O.O.O.O.O.O.O.O.O.O.O.O.O.O.O.O.O.O.O.O.O.O.O.O.O.O.O.O.O.O.O.O.O.O.O.O.O.O.O.O.",
"O.O.O.O.O.O.O.O.O.O.O.O.O.O.O.O.O.O.O.O.O.O.O.O.O.O.O.O.O.O.O.O.O.O.O.O.O.O.O.O.O.O.O.O.O.O.O.O.O.O.O.O.O.O.O.O.O.O.O.O.O.O.O.O.",
"O.O.O.O.O.O.O.O.O.O.O.O.O.O.O.O.O.O.O.O.O.O.O.O.O.O.O.O.O.O.O.O.O.O.O.O.O.O.O.O.O.O.O.O.O.O.O.O.O.O.O.O.O.O.O.O.O.O.O.O.O.O.O.O.",
"O.O.O.O.O.O.O.O.O.O.O.O.O.O.O.O.O.O.O.O.O.O.O.O.O.O.O.O.O.O.O.O.O.O.O.O.O.O.O.O.O.O.O.O.O.O.O.O.O.O.O.O.O.O.O.O.O.O.O.O.O.O.O.O.",
"O.O.O.O.O.O.O.O.O.O.O.O.O.O.O.O.O.O.O.O.O.O.O.O.O.O.O.O.O.O.O.O.O.O.O.O.O.O.O.O.O.O.O.O.O.O.O.O.O.O.O.O.O.O.O.O.O.O.O.O.O.O.O.O.",
"O.O.O.O.O.O.O.O.O.O.O.O.O.O.O.O.O.O.O.O.O.O.O.O.O.o...| |  .X.O.O.O.O.O.O.O.O.O.O.O.O.O.O.O.O.O.O.O.O.O.O.O.O.O.O.O.O.O.O.O.O.O.",
"O.O.O.O.O.O.O.O.O.O.O.O.O.O.O.O.O.O.O.O.O.O.O.O.O..._ 0 0 w [ O.O.O.O.O.O.O.O.O.O.O.O.O.O.O.O.O.O.O.O.O.O.O.O.O.O.O.O.O.O.O.O.O.",
"O.O.O.O.O.O.O.O.O.O.O.O.O.O.O.O.O.O.O.o...| | | | ] 8 X   . e | | | | | |  .X.O.O.O.O.O.O.O.O.O.O.O.O.O.O.O.O.O.O.O.O.O.O.O.O.O.",
"O.O.O.O.O.O.O.O.O.O.O.O.O.O.O.O.O.O.O..._ 0 0 0 0 8 k s -   = 0 0 0 0 0 0 w [ O.O.O.O.O.O.O.O.O.O.O.O.O.O.O.O.O.O.O.O.O.O.O.O.O.",
"O.O.O.O.O.O.O.O.O.O.O.O.O.O.O.O.O.O.O.| 9   X X   X s x < X o o o o o o X * u  .X.O.O.O.O.O.O.O.O.O.O.O.O.O.O.O.O.O.O.O.O.O.O.O.",
"O.O.O.O.O.O.O.O.O.O.O.O.O.O.O.O.O.O.O.| 9 X s x ;   - < s g x v v v v v x d r w [ O.O.O.O.O.O.O.O.O.O.O.O.O.O.O.O.O.O.O.O.O.O.O.",
"O.O.O.O.O.O.O.O.O.O.O.O.O.O.O.O.O.O.O.| 9 o v :.p X X ; x :.1.2.2.2.2.2.<.&.p # u  .X.O.O.O.O.O.O.O.O.O.O.O.O.O.O.O.O.O.O.O.O.O.",
"O.O.O.O.O.O.O.O.O.O.O.O.O.O.O.O.O.O.O.| 9 o x *.g p g b :.1.1.2.2.2.2.2.1.<.v d r w { O.O.O.O.O.O.O.O.O.O.O.O.O.O.O.O.O.O.O.O.O.",
"O.O.O.O.O.O.O.O.O.O.O.O.O.O.O.O.O.O.O.| w * d v c c :.2.2.2.2.2.2.2.2.2.2.2.<.&.p # u | | O.O.O.O.O.O.O.O.O.O.O.O.O.O.O.O.O.O.O.",
"O.O.O.O.O.O.O.O.O.O.O.O.O.O.O.O.O.O.O.X.[ ) t p g %.*.<.1.2.2.2.2.2.2.2.2.2.1.<.v d r 0 0 O.O.O.O.O.O.O.O.O.O.O.O.O.O.O.O.O.O.O.",
"O.O.O.O.O.O.O.O.O.O.O.O.O.O.O.O.O.O.O.O...] 8 - g *.*.:.1.2.2.2.2.2.2.2.2.2.2.2.<.%.<     O.O.O.O.O.O.O.O.O.O.O.O.O.O.O.O.O.O.O.",
"O.O.O.O.O.O.O.O.O.O.O.O.O.O.O.O.O.O.O..._ 0 k g v *.<.1.1.2.2.2.2.2.2.2.2.2.2.2.1.:.p     O.O.O.O.O.O.O.O.O.O.O.O.O.O.O.O.O.O.O.",
"O.O.O.O.O.O.O.O.O.O.O.O.O.O.O.O.O.O.O.| 9 X d *.*.*.1.2.2.2.2.2.2.2.2.2.2.2.2.2.2.1.s     O.O.O.O.O.O.O.O.O.O.O.O.O.O.O.O.O.O.O.",
"O.O.O.O.O.O.O.O.O.O.O.O.O.O.O.O.O.O.O.| 9 X d *.*.*.1.2.2.2.1.<.1.2.2.2.2.2.1.<.1.1.s     O.O.O.O.O.O.O.O.O.O.O.O.O.O.O.O.O.O.O.",
"O.O.O.O.O.O.O.O.O.O.O.O.O.O.O.O.O.O.X.] 8 X d *.*.*.1.2.2.2.<.:.1.2.2.2.2.1.:.&.<.<.f     O.O.O.O.O.O.O.O.O.O.O.O.O.O.O.O.O.O.O.",
"O.O.O.O.O.O.O.O.O.O.O.O.O.O.O.O.O..._ 8 % X d *.*.*.:.<.1.2.1.1.<.<.1.2.1.:.v g &.*.<     O.O.O.O.O.O.O.O.O.O.O.O.O.O.O.O.O.O.O.",
"O.O.O.O.O.O.O.O.O.O.O.O.O.O.O.O.O.} 8     - g *.&.&.&.*.1.2.2.1.:.&.<.1.3.>.v d x v 3 . . O.O.O.O.O.O.O.O.O.O.O.O.O.O.O.O.O.O.O.",
"O.O.O.O.O.O.O.O.O.O.O.O.O.O.O.O.O.} 8 X < g v &.%.c %.*.:.<.<.:.c x &.3.u.Z.0.W k 3 y _ _ O.O.O.O.+.O.O.O.O.O.O.O.O.O.O.O.O.O.O.",
"O.O.O.O.O.O.O.O.O.O.O.O.O.O.O.O.O.| q # d %.&.%.c g %.*.*.*.:.:.v x =.q.!.].~.0.j . _ O.O.O.O.O.O.O.O.O.O.O.O.O.O.O.O.O.O.O.O.O.",
"O.O.O.O.O.O.O.O.O.O.O.O.O.O.O.O.O.X.] u r p g c g g %.*.*.:.B.C.0.9.i.!.#X&X/.B.N . _ O.O.O.O.O.O.O.O.O.O.O.O.O.O.O.O.O.O.O.O.O.",
"O.O.O.O.O.O.O.O.O.O.O.O.O.O.O.O.O.O.O.| q O < g g g %.*.*.3.OX<XC.m.^.&X5X8X:XA.N . _ O.O.O.O.O.O.O.O.O.O.O.O.O.O.O.O.O.O.O.O.O.",
"O.O.O.O.O.O.O.O.O.O.O.O.O.O.O.O.O.O.O.X.] u t : a g %.*.<.d.<XrX=XA.$X5XwX9X%XJ.C . _ O.O.O.O.O.O.O.O.O.O.O.O.O.O.O.O.O.O.O.O.O.",
"O.O.O.O.O.O.O.O.O.O.O.O.O.O.O.O.O.O.O.O.O.| 9 X < g %.*.1.M.1XtX2X*X>XqXqX6X&X!.R . _ O.O.O.O.O.O.O.O.O.O.O.O.O.O.O.O.O.O.O.O.O.",
"O.O.O.O.O.O.O.O.O.O.O.O.O.O.O.O.O.O.O.O.O.| 9   o < x *.1.f.>XeX1X>X8XqX5X&X~.e.j . _ O.O.O.O.O.O.O.O.O.O.O.O.O.O.O.O.O.O.O.O.O.",
"O.O.O.O.O.O.O.O.O.O.O.O.O.O.O.O.O.O.O.O.X.{ 0 +   X d *.1.f.`.6X6X6X6X5X{.!.e.a - . _ O.O.O.O.O.O.O.O.O.O.O.O.O.O.O.O.O.O.O.O.O.",
"O.O.O.O.O.O.O.O.O.O.O.O.O.O.O.O.O.O.O...` y R U , X d *.1.q.a.W.W.W.W.E./ R j - X . _ O.O.O.O.O.O.O.O.O.O.O.O.O.O.O.O.O.O.O.O.O.",
"O.O.O.O.O.O.O.O.O.O.O.O.O.O.O.O.O.O.X.{ 0 5 t.p.z - d &.1.q.I G J J J G 4 X       & ' O.O.O.O.O.O.O.O.O.O.O.O.O.O.O.O.O.O.O.O.O.",
"O.O.O.O.O.O.O.O.O.O.O.O.O.O.O.O.O...` y R 8.p.U.t.L j s *.3.l 4 J P.P.K.I 5 o + 0 ` } O.O.O.O.O.O.O.O.O.O.O.O.O.O.O.O.O.O.O.O.O.",
"O.O.O.O.O.O.O.O.O.O.O.O.O.O.O.O.O.} 8 > 8.T.T.Y.U.y.l ; v :.p $ E I.I.L.Q n 1 . _ O.O.O.O.O.O.O.O.O.O.O.O.O.O.O.O.O.O.O.O.O.O.O.",
"O.O.O.O.O.O.O.O.O.O.O.O.O.O.O.O.O.} 8 > 8.Y.p.y.p.a.w.,.h p o O W u.u.i.9.n 1 . _ O.O.O.O.O.O.O.O.O.O.O.O.O.O.O.O.O.O.O.O.O.O.O.",
"O.O.O.O.O.O.O.O.O.O.O.O.O.O.O.O.O.} 8 > 8.U.r.Q y.g.M.j.M X X : ,.h.h.6.3.n 1 . _ O.O.O.O.O.O.O.O.O.O.O.O.O.O.O.O.O.O.O.O.O.O.O.",
"O.O.O.O.O.O.O.O.O.O.O.O.O.O.O.O.O.} 8 > 8.U.r.Y L C 6.}.7.,.-.$.4.6.|.j.3.n 1 . _ O.O.O.O.O.O.O.O.O.O.O.O.O.O.O.O.O.O.O.O.O.O.O.",
"O.O.O.O.O.O.O.O.O.O.O.O.O.O.O.O.O.} 8 > 8.U.r.U , ; 4. X X Xh.6.6.6.}.}.w.n 1 . _ O.O.O.O.O.O.O.O.O.O.O.O.O.O.O.O.O.O.O.O.O.O.O.",
"O.O.O.O.O.O.O.O.O.O.O.O.O.O.O.O.O.#.0 > 8.U.r.U , ; 4. X X.XoXV.V.C.XX Xj.5.d . _ O.O.O.O.O.O.O.O.O.O.O.O.O.O.O.O.O.O.O.O.O.O.O.",
"O.O.O.O.O.O.O.O.O.O.O.O.O.O.O.O.O.| 0 > ! p.r.U , ; 4. X XXX@X[.[.#XOX.X.Xj.M . _ O.O.O.O.O.O.O.O.O.O.O.O.O.O.O.O.O.O.O.O.O.O.O.",
"O.O.O.O.O.O.O.O.O.O.O.O.O.O.O.O.O.X.' K S L Y U , o b w.s.f.(.7X7X4X%X@XOXN.N . _ O.O.O.O.O.O.O.O.O.O.O.O.O.O.O.O.O.O.O.O.O.O.O.",
"O.O.O.O.O.O.O.O.O.O.O.O.O.O.O.O.O.O.O.[ 0 o z U 5 o m Y Y 9.`.9XqXqXqX8X-XS.V . _ O.O.O.O.O.O.O.O.O.O.O.O.O.O.O.O.O.O.O.O.O.O.O.",
"O.O.O.O.O.O.O.O.O.O.O.O.O.O.O.O.O.O.O.| 9 o P Q U z 6 j C v.J.'.4XqXqX8X-XS.V . _ O.O.O.O.O.O.O.O.O.O.O.O.O.O.O.O.O.O.O.O.O.O.O.",
"O.O.O.O.O.O.O.O.O.O.O.O.O.O.O.O.O.O.O.| 0 # L t.t.T 5 O Z x.x.F.$X9X9X8X+XS.V . _ O.O.O.O.O.O.O.O.O.O.O.O.O.O.O.O.O.O.O.O.O.O.O.",
"O.O.O.O.O.O.O.O.O.O.O.O.O.O.O.O.O.O.O.X.] u y l l 6 $ O Z x.x.n._.).$X+XH.x.B . _ O.O.O.O.O.O.O.O.O.O.O.O.O.O.O.O.O.O.O.O.O.O.O.",
"O.O.O.O.O.O.O.O.O.O.O.O.O.O.O.O.O.O.O.O.O.| 0         # Z z.x.x.x.x.D.D.S.k.B . _ O.O.O.O.O.O.O.O.O.O.O.O.O.O.O.O.O.O.O.O.O.O.O.",
"O.O.O.O.O.O.O.O.O.O.O.O.O.O.O.O.O.O.O.O.O.X.] w & + 7 F E / n.S.S.S.S.S.x.k.B . _ O.O.O.O.O.O.O.O.O.O.O.O.O.O.O.O.O.O.O.O.O.O.O.",
"O.O.O.O.O.O.O.O.O.O.O.O.O.O.O.O.O.O.O.O.O.O.O.| 9 @ D J J ^ b.D.G.D.S.x.x.c.B . _ O.O.O.O.O.O.O.O.O.O.O.O.O.O.O.O.O.O.O.O.O.O.O.",
"O.O.O.O.O.O.O.O.O.O.O.O.O.O.O.O.O.O.O.O.O.O.O.| 0 # m.R.L.K.E Z c.S.x.x.S.x.V . _ O.O.O.O.O.O.O.O.O.O.O.O.O.O.O.O.O.O.O.O.O.O.O.",
"O.O.O.O.O.O.O.O.O.O.O.O.O.O.O.O.O.O.O.O.O.O.O.| 0 2 G.,XQ.K.4 O A z.z.x.S.S.V & ` O.O.O.O.O.O.O.O.O.O.O.O.O.O.O.O.O.O.O.O.O.O.O.",
"O.O.O.O.O.O.O.O.O.O.O.O.O.O.O.O.O.O.O.O.O.O.O.| 0 2 G.,Xb.F $ + R ( / b.~ A i _ } O.O.O.O.O.O.O.O.O.O.O.O.O.O.O.O.O.O.O.O.O.O.O.",
"O.O.O.O.O.O.O.O.O.O.O.O.O.O.O.O.O.O.O.O.O.O.O.| 0 2 D.;XZ     @ D H P.L.F * ` o.O.O.O.O.O.O.O.O.O.O.O.O.O.O.O.O.O.O.O.O.O.O.O.O.",
"O.O.O.O.O.O.O.O.O.O.O.O.O.O.O.O.O.O.O.O.O.O.O.| 0 O A k.@.w & @ D H R.'.J.z.@.e { O.O.O.O.O.O.O.O.O.O.O.O.O.O.O.O.O.O.O.O.O.O.O.",
"O.O.O.O.O.O.O.O.O.O.O.O.O.O.O.O.O.O.O.O.O.O.O.| 0     & ' | 0 @ D ^ ).3X3X;Xl.. _ O.O.O.O.O.O.O.O.O.O.O.+.O.O.O.O.O.O.O.O.O.O.O.",
"O.O.O.O.O.O.O.O.O.O.O.O.O.O.O.O.O.O.O.O.O.O.O.| 0     & ' | 0 @ D ^ ).3X3X;Xl.. _ O.O.O.O.O.O.O.O.O.O.O.o.O.O.O.O.O.O.O.O.O.O.O.",
"O.O.O.O.O.O.O.O.O.O.O.O.O.O.O.O.O.O.O.O.O.O.O.O.O.O.O.O.O.O.O.O.O.O.O.O.O.O.O.O.O.O.O.O.O.O.O.O.O.O.O.O.O.O.O.O.O.O.O.O.O.O.O.O.",
"O.O.O.O.O.O.O.O.O.O.O.O.O.O.O.O.O.O.O.O.O.O.O.O.O.O.O.O.O.O.O.O.O.O.O.O.O.O.O.O.O.O.O.O.O.O.O.O.O.O.O.O.O.O.O.O.O.O.O.O.O.O.O.O.",
"O.O.O.O.O.O.O.O.O.O.O.O.O.O.O.O.O.O.O.O.O.O.O.O.O.O.O.O.O.O.O.O.O.O.O.O.O.O.O.O.O.O.O.O.O.O.O.O.O.O.O.O.O.O.O.O.O.O.O.O.O.O.O.O.",
"O.O.O.O.O.O.O.O.O.O.O.O.O.O.O.O.O.O.O.O.O.O.O.O.O.O.O.O.O.O.O.O.O.O.O.O.O.O.O.O.O.O.O.O.O.O.O.O.O.O.O.O.O.O.O.O.O.O.O.O.O.O.O.O.",
"O.O.O.O.O.O.O.O.O.O.O.O.O.O.O.O.O.O.O.O.O.O.O.O.O.O.O.O.O.O.O.O.O.O.O.O.O.O.O.O.O.O.O.O.O.O.O.O.O.O.O.O.O.O.O.O.O.O.O.O.O.O.O.O.",
"O.O.O.O.O.O.O.O.O.O.O.O.O.O.O.O.O.O.O.O.O.O.O.O.O.O.O.O.O.O.O.O.O.O.O.O.O.O.O.O.O.O.O.O.O.O.O.O.O.O.O.O.O.O.O.O.O.O.O.O.O.O.O.O.",
"O.O.O.O.O.O.O.O.O.O.O.O.O.O.O.O.O.O.O.O.O.O.O.O.O.O.O.O.O.O.O.O.O.O.O.O.O.O.O.O.O.O.O.O.O.O.O.O.O.O.O.O.O.O.O.O.O.O.O.O.O.O.O.O."
};
