/* XPM */
static char *rcp10051430171947[] = {
/* columns rows colors chars-per-pixel */
"64 64 208 2 ",
"   c #020202",
".  c #0C0C03",
"X  c #06040A",
"o  c #0A050C",
"O  c #0D0C0C",
"+  c #120404",
"@  c #130E0C",
"#  c #15090C",
"$  c #0F1004",
"%  c #141405",
"&  c #13120C",
"*  c #0B0713",
"=  c #0A0A13",
"-  c #0E0819",
";  c #160A10",
":  c #1B0915",
">  c #130B1D",
",  c #1A0A19",
"<  c #191919",
"1  c #181118",
"2  c #390A0B",
"3  c #250E1A",
"4  c #261719",
"5  c #26260A",
"6  c #272809",
"7  c #292A0B",
"8  c #2E300B",
"9  c #33340D",
"0  c #3C3D0E",
"q  c #242119",
"w  c #352A15",
"e  c #3D3D12",
"r  c #363619",
"t  c #150E22",
"y  c #190F2B",
"u  c #170D28",
"i  c #181026",
"p  c #1C132D",
"a  c #171024",
"s  c #1E1333",
"d  c #1D1D37",
"f  c #280D23",
"g  c #251422",
"h  c #251625",
"j  c #331224",
"k  c #361727",
"l  c #211536",
"z  c #23163C",
"x  c #26193C",
"c  c #271B39",
"v  c #391634",
"b  c #192238",
"n  c #1E2B32",
"m  c #2C2C2C",
"M  c #382926",
"N  c #3A2B37",
"B  c #363635",
"V  c #232731",
"C  c #4C0C0C",
"Z  c #451915",
"A  c #511515",
"S  c #6E1212",
"D  c #791717",
"F  c #443814",
"G  c #421A2E",
"H  c #40162B",
"J  c #561828",
"K  c #461931",
"L  c #471937",
"P  c #581F3B",
"I  c #46272B",
"U  c #552E2E",
"Y  c #40233B",
"T  c #492833",
"R  c #5A203F",
"E  c #59283D",
"W  c #5C3939",
"Q  c #7B2020",
"!  c #7F2828",
"~  c #6A3434",
"^  c #71363A",
"/  c #67212F",
"(  c #3F400F",
")  c #444610",
"_  c #474811",
"`  c #484B11",
"'  c #535514",
"]  c #565914",
"[  c #5A5B17",
"{  c #5F6116",
"}  c #616417",
"|  c #646618",
" . c #676A18",
".. c #6A6D19",
"X. c #6F721A",
"o. c #72751B",
"O. c #76791F",
"+. c #44452B",
"@. c #6A6C20",
"#. c #271941",
"$. c #2A1C45",
"%. c #2D1E49",
"&. c #301D40",
"*. c #2F204D",
"=. c #262A48",
"-. c #31214D",
";. c #39234A",
":. c #352454",
">. c #3C2653",
",. c #392659",
"<. c #3C295D",
"1. c #3E2F57",
"2. c #27355B",
"3. c #2D3250",
"4. c #2F2F57",
"5. c #303D70",
"6. c #492545",
"7. c #5C2841",
"8. c #552846",
"9. c #56354C",
"0. c #492B56",
"q. c #4A3958",
"w. c #553A53",
"e. c #602943",
"r. c #652748",
"t. c #682848",
"y. c #712F4F",
"u. c #6F304F",
"i. c #663B5F",
"p. c #683959",
"a. c #7A3355",
"s. c #7A3753",
"d. c #423262",
"f. c #463D6B",
"g. c #533968",
"h. c #38487E",
"j. c #414141",
"k. c #5A5555",
"l. c #5A5957",
"z. c #714A52",
"x. c #535B71",
"c. c #504B69",
"v. c #675578",
"b. c #7B5A78",
"n. c #714A6E",
"m. c #516979",
"M. c #656464",
"N. c #6C6C6C",
"B. c #7C6775",
"V. c #7B6666",
"C. c #952828",
"Z. c #963538",
"A. c #882425",
"S. c #A23338",
"D. c #82375B",
"F. c #87395E",
"G. c #8A3B61",
"H. c #965959",
"J. c #8D464F",
"K. c #A4484C",
"L. c #A45E5E",
"P. c #97556B",
"I. c #8A5066",
"U. c #A05B6F",
"Y. c #836E7F",
"T. c #977378",
"R. c #977476",
"E. c #826C6D",
"W. c #A8687A",
"Q. c #AA6A70",
"!. c #C0707E",
"~. c #384983",
"^. c #3C5089",
"/. c #4A5288",
"(. c #545789",
"). c #786587",
"_. c #7F6E94",
"`. c #8B5F82",
"'. c #967C87",
"]. c #917193",
"[. c #85658A",
"{. c #B96D82",
"}. c #A97B8A",
"|. c #AA7C95",
" X c #C57384",
".X c #618291",
"XX c #7E8595",
"oX c #959097",
"OX c #AB8A9A",
"+X c #B58C97",
"@X c #9789A3",
"#X c #AF9EB7",
"$X c #BC9BA7",
"%X c #8AA3B1",
"&X c #AEADAD",
"*X c #ACA7A7",
"=X c #C7808E",
"-X c #CF8894",
";X c #D88693",
":X c #DB8993",
">X c #D38B99",
",X c #DA919C",
"<X c #D18B95",
"1X c #E08E9A",
"2X c #E4949E",
"3X c #E1B1BB",
"4X c #BEB7C3",
"5X c #DBD4DE",
/* pixels */
"o.o.o.o.o.o.o.o.o.o.o.o.o.o.o.o.o.o.o.o.o.o.o.o.o.o.o.o.o.o.o.o.o.o.o.o.o.o.o.o.o.o.o.o.o.o.o.o.o.o.o.o.o.o.o.o.o.o.o.o.o.o.o.o.",
"o.o.o.o.o.o.o.o.o.o.o.o.o.o.o.o.o.o.o.o.o.o.o.o.o.o.o.o.o.o.o.o.o.o.o.o.o.o.o.o.o.o.o.o.o.o.o.o.o.o.o.o.o.o.o.o.o.o.o.o.o.o.o.o.",
"o.o.o.o.o.o.o.o.o.o.o.o.o.o.o.o.o.o.o.o.o.o.o.o.o.o.o.o.o.o.o.o.o.o.o.o.o.o.o.o.o.o.o.o.o.o.o.o.o.o.o.o.o.o.o.o.o.o.o.o.o.o.o.o.",
"o.o.o.o.o.o.o.o.o.o.o.o.o.o.o.o.o.o.o.o.o.o.o.o.o.o.o.o.o.o.o.o.o.o.o.o.o.o.o.o.o.o.o.o.o.o.o.o.o.o.o.o.o.o.o.o.o.o.o.o.o.o.o.o.",
"o.o.o.o.o.o.o.o.o.o.o.o.o.o.o.o.o.o.o.o.o.o.o.o.o.o.o.o.o.o.o.o.o.o.o.o.o.o.o.o.o.o.o.o.o.o.o.o.o.o.o.o.o.o.o.o.o.o.o.o.o.o.o.o.",
"o.o.o.o.o.o.o.o.o.o.o.o.o.o.o.o.o.o.o.o.o.o.o.o.o.o.o.o.o.o.o.o.o.o.o.o.o.o.o.o.o.o.o.o.o.o.o.o.o.o.o.o.o.o.o.o.o.o.o.o.o.o.o.o.",
"o.o.o.o.o.o.o.o.o.o.o.o.o.o.o.o.o.o.o.o.o.o.o.o.o.o.o.o.o.o.o.o.o.o.o.o.o.o.o.o.o.o.o.o.o.o.o.o.o.o.o.o.o.o.o.o.o.o.o.o.o.o.o.o.",
"o.o.o.o.o.o.o.o.o.o.o.o.o.o.o.o.o.o.o.o.o.o.o.o.o.o.o.o.o.o.o.o.o.o.o.o.o.o.o.o.o.o.o.o.o.o.o.o.o.o.o.o.o.o.o.o.o.o.o.o.o.o.o.o.",
"o.o.o.o.o.o.o.o.o.o.o.o.o.o.o.o.o.o.o.o.o.o.o.o.o.o.o.o.o.o.o.o.o.o.o.o.o.o.o.o.o.o.o.o.o.o.o.o.o.o.o.o.o.o.o.o.o.o.o.o.o.o.o.o.",
"o.o.o.o.o.o.o.o.o.o.o.o.o.o.o.o.o.o.o.o.o.o.o.o.o.o. .} } } } } } } } } } | ..o.o.o.o.o.o.o.o.o.o.o.o.o.o.o.o.o.o.o.o.o.o.o.o.o.",
"o.o.o.o.o.o.o.o.o.o.o.o.o.o.o.o.o.o.o.o.o.o.o.o.o. .) 7 7 7 7 7 7 7 7 7 7 9 ] o.o.o.o.o.o.o.o.o.o.o.o.o.o.o.o.o.o.o.o.o.o.o.o.o.",
"o.o.o.o.o.o.o.o.o.o.o.o.o.o.o.o.o.o.o.X. .} } } } ' 5 X X X o o o o o o X & e | ..o.o.o.o.o.o.o.o.o.o.o.o.o.o.o.o.o.o.o.o.o.o.o.",
"o.o.o.o.o.o.o.o.o.o.o.o.o.o.o.o.o.o.o. .) 7 7 7 7 5 h p p s l x x x x x l p q 9 ] o.o.o.o.o.o.o.o.o.o.o.o.o.o.o.o.o.o.o.o.o.o.o.",
"o.o.o.o.o.o.o.o.o.o.o.o.o.o.o.o.o.o.o.} 6   X o X * s %.%.-.,.<.<.<.<.<.:.$.t @ e | ..o.o.o.o.o.o.o.o.o.o.o.o.o.o.o.o.o.o.o.o.o.",
"o.o.o.o.o.o.o.o.o.o.o.o.o.o.o.o.o.o.o.} 6 X i l i u $.,.,.,.,.<.<.<.<.<.,.:.x p q 9 [ o.o.o.o.o.o.o.o.o.o.o.o.o.o.o.o.o.o.o.o.o.",
"o.o.o.o.o.o.o.o.o.o.o.o.o.o.o.o.o.o.o.} 9 & c -.#.z -.<.<.<.<.<.<.<.<.<.<.<.:.$.t @ e } } o.o.o.o.o.o.o.o.o.o.o.o.o.o.o.o.o.o.o.",
"o.o.o.o.o.o.o.o.o.o.o.o.o.o.o.o.o.o.o...] ) q i l $.%.:.,.<.<.<.<.<.<.<.<.<.,.:.x p q 7 7 o.o.o.o.o.o.o.o.o.o.o.o.o.o.o.o.o.o.o.",
"o.o.o.o.o.o.o.o.o.o.o.o.o.o.o.o.o.o.o.o. .' 5 * s %.%.-.,.<.<.<.<.<.<.<.<.<.<.<.:.$.>     o.o.o.o.o.o.o.o.o.o.o.o.o.o.o.o.o.o.o.",
"o.o.o.o.o.o.o.o.o.o.o.o.o.o.o.o.o.o.o. .) 7 h s x %.:.,.,.<.<.<.<.<.<.<.<.<.<.<.,.-.t     o.o.o.o.o.o.o.o.o.o.o.o.o.o.o.o.o.o.o.",
"o.o.o.o.o.o.o.o.o.o.o.o.o.o.o.o.o.o.o.} 6 X p %.%.%.,.<.<.<.<.<.<.<.<.<.<.<.<.<.<.,.i     o.o.o.o.o.o.o.o.o.o.o.o.o.o.o.o.o.o.o.",
"o.o.o.o.o.o.o.o.o.o.o.o.o.o.o.o.o.o.o.} 6 X p %.%.%.,.<.<.<.,.:.,.<.<.<.<.<.,.:.,.:.i     o.o.o.o.o.o.o.o.o.o.o.o.o.o.o.o.o.o.o.",
"o.o.o.o.o.o.o.o.o.o.o.o.o.o.o.o.o.o...' 5 X p %.%.%.,.<.<.<.:.*.,.<.<.<.<.,.*.$.:.:.a     o.o.o.o.o.o.o.o.o.o.o.o.o.o.o.o.o.o.o.",
"o.o.o.o.o.o.o.o.o.o.o.o.o.o.o.o.o. .) 5 $ X p %.%.%.-.:.,.<.,.,.:.:.,.<.,.-.x s $.%.t     o.o.o.o.o.o.o.o.o.o.o.o.o.o.o.o.o.o.o.",
"o.o.o.o.o.o.o.o.o.o.o.o.o.o.o.o.o.{ 5     * s %.$.$.$.%.,.<.<.,.*.$.:.,.>.;.c p l x 1 . . o.o.o.o.o.o.o.o.o.o.o.o.o.o.o.o.o.o.o.",
"o.o.o.o.o.o.o.o.o.o.o.o.o.o.o.o.o.{ 5 X > s x $.#.z $.%.-.:.:.*.z l $.>.i.n.r.Y h 1 w ) ) o.o.o.o.O.o.o.o.o.o.o.o.o.o.o.o.o.o.o.",
"o.o.o.o.o.o.o.o.o.o.o.o.o.o.o.o.o.} 8 @ p $.$.$.z s #.%.%.%.-.-.x l &.0.P.W.I.9.g . ) o.o.o.o.o.o.o.o.o.o.o.o.o.o.o.o.o.o.o.o.o.",
"o.o.o.o.o.o.o.o.o.o.o.o.o.o.o.o.o...' e q t s z s s #.%.%.-.c.v.w.6.p.P.{.=XY.c.V . ) o.o.o.o.o.o.o.o.o.o.o.o.o.o.o.o.o.o.o.o.o.",
"o.o.o.o.o.o.o.o.o.o.o.o.o.o.o.o.o.o.o.} 8 O > p s s #.%.%.1.).oXb.z.U. X;X,XoXm.n . ) o.o.o.o.o.o.o.o.o.o.o.o.o.o.o.o.o.o.o.o.o.",
"o.o.o.o.o.o.o.o.o.o.o.o.o.o.o.o.o.o.o...' e 4 - u s #.%.:.f.@X4XXXm.}.;X1X,X}.B.N . ) o.o.o.o.o.o.o.o.o.o.o.o.o.o.o.o.o.o.o.o.o.",
"o.o.o.o.o.o.o.o.o.o.o.o.o.o.o.o.o.o.o.o.o.} 6 X > s z %.,.c.#X5X%X.XOX2X2X:X XP.I . ) o.o.o.o.o.o.o.o.o.o.o.o.o.o.o.o.o.o.o.o.o.",
"o.o.o.o.o.o.o.o.o.o.o.o.o.o.o.o.o.o.o.o.o.} 6   o > l %.,.g.OX3X$XOX>X2X;X XI.9.g . ) o.o.o.o.o.o.o.o.o.o.o.o.o.o.o.o.o.o.o.o.o.",
"o.o.o.o.o.o.o.o.o.o.o.o.o.o.o.o.o.o.o.o...[ 7 o   X p %.,.g.W.:X:X:X:X;X!.P.9.y * . ) o.o.o.o.o.o.o.o.o.o.o.o.o.o.o.o.o.o.o.o.o.",
"o.o.o.o.o.o.o.o.o.o.o.o.o.o.o.o.o.o.o. ._ w I K : X p %.,.0.s.K.K.K.K.K.^ T v y * . ) o.o.o.o.o.o.o.o.o.o.o.o.o.o.o.o.o.o.o.o.o.",
"o.o.o.o.o.o.o.o.o.o.o.o.o.o.o.o.o.o...[ 7 3 e.a.k * p $.,.0.J S D D D S 2 X > u * . ) o.o.o.o.o.o.o.o.o.o.o.o.o.o.o.o.o.o.o.o.o.",
"o.o.o.o.o.o.o.o.o.o.o.o.o.o.o.o.o. ._ w I 7.a.D.e.G g i %.>.k 2 D C.C.A.J f , * X . ) o.o.o.o.o.o.o.o.o.o.o.o.o.o.o.o.o.o.o.o.o.",
"o.o.o.o.o.o.o.o.o.o.o.o.o.o.o.o.o.{ 5 ; 7.G.G.F.D.t.4 o x :.t + / S.S.Z./ v ,     % _ o.o.o.o.o.o.o.o.o.o.o.o.o.o.o.o.o.o.o.o.o.",
"o.o.o.o.o.o.o.o.o.o.o.o.o.o.o.o.o.{ 5 ; 7.F.a.y.a.y.j o x :.t O Y i.i.p.8.v ,   7 _ { o.o.o.o.o.o.o.o.o.o.o.o.o.o.o.o.o.o.o.o.o.",
"o.o.o.o.o.o.o.o.o.o.o.o.o.o.o.o.o.{ 5 ; 7.D.r.R y.u.k = x -.t * =.h.~.5.>.v : . ) o.o.o.o.o.o.o.o.o.o.o.o.o.o.o.o.o.o.o.o.o.o.o.",
"o.o.o.o.o.o.o.o.o.o.o.o.o.o.o.o.o.{ 5 ; 7.D.r.L G v =.=.d a o ; 9.b.(.h.1.v : . ) o.o.o.o.o.o.o.o.o.o.o.o.o.o.o.o.o.o.o.o.o.o.o.",
"o.o.o.o.o.o.o.o.o.o.o.o.o.o.o.o.o.{ 5 ; 7.D.r.K : = 2.h.b X o 4 z.{.)./.0.v , . ) o.o.o.o.o.o.o.o.o.o.o.o.o.o.o.o.o.o.o.o.o.o.o.",
"o.o.o.o.o.o.o.o.o.o.o.o.o.o.o.o.o.@.7 ; 7.D.r.K : = 2.^.5.3.9.z.Q.-X|.].v.1.p . ) o.o.o.o.o.o.o.o.o.o.o.o.o.o.o.o.o.o.o.o.o.o.o.",
"o.o.o.o.o.o.o.o.o.o.o.o.o.o.o.o.o.} 7 1 E a.r.K : = 2.^.^./.`.{.;X2X2X>X_.h.b . ) o.o.o.o.o.o.o.o.o.o.o.o.o.o.o.o.o.o.o.o.o.o.o.",
"o.o.o.o.o.o.o.o.o.o.o.o.o.o.o.o.o...` F M G L K : o x d.d.f.v.[.+X2X2X>X'.x.V . ) o.o.o.o.o.o.o.o.o.o.o.o.o.o.o.o.o.o.o.o.o.o.o.",
"o.o.o.o.o.o.o.o.o.o.o.o.o.o.o.o.o.o.o.] 7 o k K 3 o f L L 6.f.(.|.,X,X<X'.M.m . ) o.o.o.o.o.o.o.o.o.o.o.o.o.o.o.o.o.o.o.o.o.o.o.",
"o.o.o.o.o.o.o.o.o.o.o.o.o.o.o.o.o.o.o.} 6 o H R K k 3 g N j.c.x.B.T.T.T.E.M.m . ) o.o.o.o.o.o.o.o.o.o.o.o.o.o.o.o.o.o.o.o.o.o.o.",
"o.o.o.o.o.o.o.o.o.o.o.o.o.o.o.o.o.o.o.} 7 # G t.t.P 3 O B k.k.k.k.k.l.l.N.M.m . ) o.o.o.o.o.o.o.o.o.o.o.o.o.o.o.o.o.o.o.o.o.o.o.",
"o.o.o.o.o.o.o.o.o.o.o.o.o.o.o.o.o.o.o...' e w j j 3 # X < m U ~ ~ ~ z.N.N.M.m . ) o.o.o.o.o.o.o.o.o.o.o.o.o.o.o.o.o.o.o.o.o.o.o.",
"o.o.o.o.o.o.o.o.o.o.o.o.o.o.o.o.o.o.o.o.o.} 7           X ; A D D Q z.N.N.M.m % ` o.o.o.o.o.o.o.o.o.o.o.o.o.o.o.o.o.o.o.o.o.o.o.",
"o.o.o.o.o.o.o.o.o.o.o.o.o.o.o.o.o.o.o.o.o...' ( ( 9 % O B M.E.H.Z.A.U B B B r ) { o.o.o.o.o.o.o.o.o.o.o.o.o.o.o.o.o.o.o.o.o.o.o.",
"o.o.o.o.o.o.o.o.o.o.o.o.o.o.o.o.o.o.o.o.o.o.o.o.o.} 7 < N.*X*X+XL.C.Z     % ` o.o.o.o.o.o.o.o.o.o.o.o.o.o.o.o.o.o.o.o.o.o.o.o.o.",
"o.o.o.o.o.o.o.o.o.o.o.o.o.o.o.o.o.o.o.o.o.o.o.o.o.} 7 @ W H.L.L.^ Z F ( ( ) { o.o.o.o.o.o.o.o.o.o.o.o.o.o.o.o.o.o.o.o.o.o.o.o.o.",
"o.o.o.o.o.o.o.o.o.o.o.o.o.o.o.o.o.o.o.o.o.o.o.o.o.} 7 + C D C.Z.Z & _ X.o.o.o.o.o.o.o.o.o.o.o.o.o.o.o.o.o.o.o.o.o.o.o.o.o.o.o.o.",
"o.o.o.o.o.o.o.o.o.o.o.o.o.o.o.o.o.o.o.o.o.o.o.o.o.} 7 + C Q H.Q.V.l.+.0 [ o.o.o.o.o.o.o.o.o.o.o.o.o.o.o.o.o.o.o.o.o.o.o.o.o.o.o.",
"o.o.o.o.o.o.o.o.o.o.o.o.o.o.o.o.o.o.o.o.o.o.o.o.o.} 7 + C ! R.&X&XoXj.. _ o.o.o.o.o.o.o.o.o.o.o.o.o.o.o.o.o.o.o.o.o.o.o.o.o.o.o.",
"o.o.o.o.o.o.o.o.o.o.o.o.o.o.o.o.o.o.o.o.o.o.o.o.o.} 7 + C ! R.&X&XoXj.. _ o.o.o.o.o.o.o.o.o.o.o.o.o.o.o.o.o.o.o.o.o.o.o.o.o.o.o.",
"o.o.o.o.o.o.o.o.o.o.o.o.o.o.o.o.o.o.o.o.o.o.o.o.o.o.o.o.o.o.o.o.o.o.o.o.o.o.o.o.o.o.o.o.o.o.o.o.o.o.o.o.o.o.o.o.o.o.o.o.o.o.o.o.",
"o.o.o.o.o.o.o.o.o.o.o.o.o.o.o.o.o.o.o.o.o.o.o.o.o.o.o.o.o.o.o.o.o.o.o.o.o.o.o.o.o.o.o.o.o.o.o.o.o.o.o.o.o.o.o.o.o.o.o.o.o.o.o.o.",
"o.o.o.o.o.o.o.o.o.o.o.o.o.o.o.o.o.o.o.o.o.o.o.o.o.o.o.o.o.o.o.o.o.o.o.o.o.o.o.o.o.o.o.o.o.o.o.o.o.o.o.o.o.o.o.o.o.o.o.o.o.o.o.o.",
"o.o.o.o.o.o.o.o.o.o.o.o.o.o.o.o.o.o.o.o.o.o.o.o.o.o.o.o.o.o.o.o.o.o.o.o.o.o.o.o.o.o.o.o.o.o.o.o.o.o.o.o.o.o.o.o.o.o.o.o.o.o.o.o.",
"o.o.o.o.o.o.o.o.o.o.o.o.o.o.o.o.o.o.o.o.o.o.o.o.o.o.o.o.o.o.o.o.o.o.o.o.o.o.o.o.o.o.o.o.o.o.o.o.o.o.o.o.o.o.o.o.o.o.o.o.o.o.o.o.",
"o.o.o.o.o.o.o.o.o.o.o.o.o.o.o.o.o.o.o.o.o.o.o.o.o.o.o.o.o.o.o.o.o.o.o.o.o.o.o.o.o.o.o.o.o.o.o.o.o.o.o.o.o.o.o.o.o.o.o.o.o.o.o.o.",
"o.o.o.o.o.o.o.o.o.o.o.o.o.o.o.o.o.o.o.o.o.o.o.o.o.o.o.o.o.o.o.o.o.o.o.o.o.o.o.o.o.o.o.o.o.o.o.o.o.o.o.o.o.o.o.o.o.o.o.o.o.o.o.o.",
"o.o.o.o.o.o.o.o.o.o.o.o.o.o.o.o.o.o.o.o.o.o.o.o.o.o.o.o.o.o.o.o.o.o.o.o.o.o.o.o.o.o.o.o.o.o.o.o.o.o.o.o.o.o.o.o.o.o.o.o.o.o.o.o.",
"o.o.o.o.o.o.o.o.o.o.o.o.o.o.o.o.o.o.o.o.o.o.o.o.o.o.o.o.o.o.o.o.o.o.o.o.o.o.o.o.o.o.o.o.o.o.o.o.o.o.o.o.o.o.o.o.o.o.o.o.o.o.o.o."
};
