/* XPM */
static char *rcp10051101952442[] = {
/* columns rows colors chars-per-pixel */
"64 64 211 2 ",
"   c #020101",
".  c #0C0C03",
"X  c #06040A",
"o  c #0A050C",
"O  c #0E0A0B",
"+  c #0C0202",
"@  c #110D0B",
"#  c #130506",
"$  c #121204",
"%  c #13130C",
"&  c #171806",
"*  c #0B0713",
"=  c #0B0A14",
"-  c #090914",
";  c #160A10",
":  c #1B0A15",
">  c #130B1D",
",  c #1A0A19",
"<  c #161616",
"1  c #191417",
"2  c #390A0B",
"3  c #240E18",
"4  c #27171D",
"5  c #3B1818",
"6  c #290707",
"7  c #26260A",
"8  c #272809",
"9  c #2A2A0A",
"0  c #28270F",
"q  c #2F300B",
"w  c #31320C",
"e  c #383A0E",
"r  c #25221A",
"t  c #342A15",
"y  c #3D3D12",
"u  c #313015",
"i  c #150E22",
"p  c #1A0F2D",
"a  c #170E29",
"s  c #191126",
"d  c #1C132C",
"f  c #1B1623",
"g  c #1E1333",
"h  c #1D1D37",
"j  c #261525",
"k  c #341B2C",
"l  c #361527",
"z  c #211535",
"x  c #23163B",
"c  c #26193C",
"v  c #281B39",
"b  c #391535",
"n  c #240C21",
"m  c #1C2338",
"M  c #1E2B32",
"N  c #2B2A2A",
"B  c #202020",
"V  c #382835",
"C  c #333334",
"Z  c #3A3839",
"A  c #322C26",
"S  c #4B0D0D",
"D  c #4F110D",
"F  c #481815",
"G  c #6C1515",
"H  c #7E1919",
"J  c #781616",
"K  c #443514",
"L  c #431A2E",
"P  c #40162B",
"I  c #561829",
"U  c #461931",
"Y  c #4C1C36",
"T  c #561E39",
"R  c #452629",
"E  c #442536",
"W  c #59243E",
"Q  c #5A2323",
"!  c #6F3638",
"~  c #67212F",
"^  c #444610",
"/  c #464811",
"(  c #484A12",
")  c #535514",
"_  c #565914",
"`  c #595A16",
"'  c #565818",
"]  c #614514",
"[  c #5F6116",
"{  c #616317",
"}  c #64671A",
"|  c #676A18",
" . c #6A6D19",
".. c #656C17",
"X. c #6F721A",
"o. c #72751B",
"O. c #44452B",
"+. c #7D4F25",
"@. c #777A22",
"#. c #7B7D30",
"$. c #271941",
"%. c #2A1C45",
"&. c #2D1E49",
"*. c #311D40",
"=. c #29274A",
"-. c #31214D",
";. c #3A234A",
":. c #3E3D41",
">. c #202A51",
",. c #352454",
"<. c #3C2653",
"1. c #392659",
"2. c #3C295D",
"3. c #3E2F57",
"4. c #27355B",
"5. c #27345A",
"6. c #38335F",
"7. c #353D78",
"8. c #5C2841",
"9. c #562A48",
"0. c #413F44",
"q. c #492B56",
"w. c #40305F",
"e. c #54324A",
"r. c #652748",
"t. c #652947",
"y. c #712F4F",
"u. c #6B374B",
"i. c #663B5F",
"p. c #683A5A",
"a. c #793355",
"s. c #7A3653",
"d. c #543A67",
"f. c #4B3A66",
"g. c #39477C",
"h. c #414141",
"j. c #4B4B4C",
"k. c #5D4141",
"l. c #545454",
"z. c #5C5858",
"x. c #595953",
"c. c #594352",
"v. c #6B4155",
"b. c #735050",
"n. c #705151",
"m. c #524C6C",
"M. c #765C6F",
"N. c #5C657C",
"B. c #446D7C",
"V. c #666565",
"C. c #6B6464",
"Z. c #6D6D6D",
"A. c #737373",
"S. c #7A676D",
"D. c #8B2224",
"F. c #962828",
"G. c #953538",
"H. c #A13339",
"J. c #82375B",
"K. c #86395E",
"L. c #8A3B61",
"P. c #834545",
"I. c #955F5F",
"U. c #994448",
"Y. c #A4474B",
"T. c #996554",
"R. c #844C64",
"E. c #97556B",
"W. c #8A5067",
"Q. c #A05B6F",
"!. c #836E7F",
"~. c #957377",
"^. c #806A6D",
"/. c #A86060",
"(. c #A2657D",
"). c #BC6C7C",
"_. c #A27578",
"`. c #C46D7F",
"'. c #999A7A",
"]. c #374984",
"[. c #3C538E",
"{. c #41568D",
"}. c #435185",
"|. c #4C568C",
" X c #776887",
".X c #967288",
"XX c #B66D82",
"oX c #AA7B88",
"OX c #B17D95",
"+X c #C57384",
"@X c #708493",
"#X c #9E8084",
"$X c #969297",
"%X c #AC8A9A",
"&X c #A89E9E",
"*X c #988AA3",
"=X c #B69CAF",
"-X c #8BA3B0",
";X c #AEAEAE",
":X c #CC8892",
">X c #D88693",
",X c #DA8992",
"<X c #D68290",
"1X c #D6919A",
"2X c #DC919B",
"3X c #CD8792",
"4X c #E08F9A",
"5X c #E4949E",
"6X c #E1B1BB",
"7X c #BFB7C4",
"8X c #DBD4DE",
/* pixels */
"o.o.o.o.o.o.o.o.o.o.o.o.o.o.o.o.o.o.o.o.o.o.o.o.o.o.o.o.o.o.o.o.o.o.o.o.o.o.o.o.o.o.o.o.o.o.o.o.o.o.o.o.o.o.o.o.o.o.o.o.o.o.o.o.",
"o.o.o.o.o.o.o.o.o.o.o.o.o.o.o.o.o.o.o.o.o.o.o.o.o.o.o.o.o.o.o.o.o.o.o.o.o.o.o.o.o.o.o.o.o.o.o.o.o.o.o.o.o.o.o.o.o.o.o.o.o.o.o.o.",
"o.o.o.o.o.o.o.o.o.o.o.o.o.o.o.o.o.o.o.o.o.o.o.o.o.o.o.o.o.o.o.o.o.o.o.o.o.o.o.o.o.o.o.o.o.o.o.o.o.o.o.o.o.o.o.o.o.o.o.o.o.o.o.o.",
"o.o.o.o.o.o.o.o.o.o.o.o.o.o.o.o.o.o.o.o.o.o.o.o.o.o.o.o.o.o.o.o.o.o.o.o.o.o.o.o.o.o.o.o.o.o.o.o.o.o.o.o.o.o.o.o.o.o.o.o.o.o.o.o.",
"o.o.o.o.o.o.o.o.o.o.o.o.o.o.o.o.o.o.o.o.o.o.o.o.o.o.o.o.o.o.o.o.o.o.o.o.o.o.o.o.o.o.o.o.o.o.o.o.o.o.o.o.o.o.o.o.o.o.o.o.o.o.o.o.",
"o.o.o.o.o.o.o.o.o.o.o.o.o.o.o.o.o.o.o.o.o.o.o.o.o.o.o.o.o.o.o.o.o.o.o.o.o.o.o.o.o.o.o.o.o.o.o.o.o.o.o.o.o.o.o.o.o.o.o.o.o.o.o.o.",
"o.o.o.o.o.o.o.o.o.o.o.o.o.o.o.o.o.o.o.o.o.o.o.o.X.o.o.o.o.o.o.o.o.o.o.o.o.o.o.o.o.o.o.o.o.o.o.o.o.o.o.o.o.o.o.o.o.o.o.o.o.o.o.o.",
"o.o.o.o.o.o.o.o.o.o.o.o.o.o.o.o.o.o.o.o.o.o.o.o.o.o.o.o.| { { { { { { { { {  .o.o.o.o.o.o.o.o.o.o.o.o.o.o.o.o.o.o.o.o.o.o.o.o.o.",
"o.o.o.o.o.o.o.o.o.o.o.o.o.o.o.o.o.o.o.o.o.o.o.o.o.o.o.| ^ 9 9 9 9 9 9 9 9 w _ o.o.o.o.o.o.o.o.o.o.o.o.o.o.o.o.o.o.o.o.o.o.o.o.o.",
"o.o.o.o.o.o.o.o.o.o.o.o.o.o.o.o.o.o.o.X.| { { { { { { ) 0 X o o o o o o X @ y }  .o.o.o.o.o.o.o.o.o.o.o.o.o.o.o.o.o.o.o.o.o.o.o.",
"o.o.o.o.o.o.o.o.o.o.o.o.o.o.o.o.o.o.o.| ^ 9 9 9 9 9 9 0 j g z c c c c c z d r w _ o.o.o.o.o.o.o.o.o.o.o.o.o.o.o.o.o.o.o.o.o.o.o.",
"o.o.o.o.o.o.o.o.o.o.o.o.o.o.o.o.o.o.o.{ 8   X o X X X * z -.1.2.2.2.2.2.,.%.i @ y }  .o.o.o.o.o.o.o.o.o.o.o.o.o.o.o.o.o.o.o.o.o.",
"o.o.o.o.o.o.o.o.o.o.o.o.o.o.o.o.o.o.o.{ 8 X s x s i s z &.1.1.2.2.2.2.2.1.,.c d r w _ o.o.o.o.o.o.o.o.o.o.o.o.o.o.o.o.o.o.o.o.o.",
"o.o.o.o.o.o.o.o.o.o.o.o.o.o.o.o.o.o.o.{ w % v -.c x $.&.1.2.2.2.2.2.2.2.2.2.,.%.i @ y { { o.o.o.o.o.o.o.o.o.o.o.o.o.o.o.o.o.o.o.",
"o.o.o.o.o.o.o.o.o.o.o.o.o.o.o.o.o.o.o. ._ ^ r s z $.%.&.1.2.2.2.2.2.2.2.2.2.1.,.c d r 9 9 o.o.o.o.o.o.o.o.o.o.o.o.o.o.o.o.o.o.o.",
"o.o.o.o.o.o.o.o.o.o.o.o.o.o.o.o.o.o.o.o.| ) 0 * g &.&.-.1.2.2.2.2.2.2.2.2.2.2.2.,.$.>     o.o.o.o.o.o.o.o.o.o.o.o.o.o.o.o.o.o.o.",
"o.o.o.o.o.o.o.o.o.o.o.o.o.o.o.o.o.o.o.| ^ 0 j g c &.,.1.1.2.2.2.2.2.2.2.2.2.2.2.1.-.i     o.o.o.o.o.o.o.o.o.o.o.o.o.o.o.o.o.o.o.",
"o.o.o.o.o.o.o.o.o.o.o.o.o.o.o.o.o.o.o.{ 8 X d &.&.&.1.2.2.2.2.2.2.2.2.2.2.2.2.2.2.1.s     o.o.o.o.o.o.o.o.o.o.o.o.o.o.o.o.o.o.o.",
"o.o.o.o.o.o.o.o.o.o.o.o.o.o.o.o.o.o.o.{ 8 X d &.&.&.1.2.2.2.1.,.1.2.2.2.2.2.1.,.1.1.s     o.o.o.o.o.o.o.o.o.o.o.o.o.o.o.o.o.o.o.",
"o.o.o.o.o.o.o.o.o.o.o.o.o.o.o.o.o.o.| ) 7 X d &.&.&.1.2.2.1.,.-.1.2.2.2.2.1.-.%.,.,.i     o.o.o.o.o.o.o.o.o.o.o.o.o.o.o.o.o.o.o.",
"o.o.o.o.o.o.o.o.o.o.o.o.o.o.o.o.o.| ^ 7 . X d &.&.&.-.,.1.2.1.1.,.,.1.2.1.-.c g %.&.i     o.o.o.o.o.o.o.o.o.o.o.o.o.o.o.o.o.o.o.",
"o.o.o.o.o.o.o.o.o.o.o.o.o.o.o.o.o.[ 7     * g &.%.%.%.&.1.1.1.1.&.%.,.1.<.;.v d z x 1 . . o.o.o.o.o.o.o.o.o.o.o.o.o.o.o.o.o.o.o.",
"o.o.o.o.o.o.o.o.o.o.o.o.o.o.o.o.o.[ 7 X > g c %.$.x $.&.-.,.-.&.x z %.<.i.b.u.E j 1 u / / o.o.o.o.o.o.o.o.o.o.o.o.o.o.o.o.o.o.o.",
"o.o.o.o.o.o.o.o.o.o.o.o.o.o.o.o.o.{ q % d $.%.$.x g $.&.&.&.-.-.c z *.q.E.).W.e.j . ^ o.o.o.o.o.o.o.o.o.o.o.o.o.o.o.o.o.o.o.o.o.",
"o.o.o.o.o.o.o.o.o.o.o.o.o.o.o.o.o. ._ y 4 i g x g g $.&.&.-.m.M.e.9.p.E.XX3X!.m.M . ^ o.o.o.o.o.o.o.o.o.o.o.o.o.o.o.o.o.o.o.o.o.",
"o.o.o.o.o.o.o.o.o.o.o.o.o.o.o.o.o.o.o.{ q O > p g g $.&.&.3. X*XM.v.Q.+X>X1X$XB.M . ^ o.o.o.o.o.o.o.o.o.o.o.o.o.o.o.o.o.o.o.o.o.",
"o.o.o.o.o.o.o.o.o.o.o.o.o.o.o.o.o.o.o. .) y < = a g $.&.,.f.*X7X@XN.oX>X4X2XOXS.V . ^ o.o.o.o.o.o.o.o.o.o.o.o.o.o.o.o.o.o.o.o.o.",
"o.o.o.o.o.o.o.o.o.o.o.o.o.o.o.o.o.o.o.o.o.{ 8 X > g c &.1.m.=X8X-X@X%X5X5X,X+XE.R . ^ o.o.o.o.o.o.o.o.o.o.o.o.o.o.o.o.o.o.o.o.o.",
"o.o.o.o.o.o.o.o.o.o.o.o.o.o.o.o.o.o.o.o.o.{ 8   o > z &.1.d.%X6X=X%X1X5X>X+XW.e.4 . ^ o.o.o.o.o.o.o.o.o.o.o.o.o.o.o.o.o.o.o.o.o.",
"o.o.o.o.o.o.o.o.o.o.o.o.o.o.o.o.o.o.o.o. .` 0 o   X d &.1.d.(.,X,X,X,X<X).E.e.p * . ^ o.o.o.o.o.o.o.o.o.o.o.o.o.o.o.o.o.o.o.o.o.",
"o.o.o.o.o.o.o.o.o.o.o.o.o.o.o.o.o.o.o.| ^ t R U : X d &.1.q.s.Y.Y.Y.Y.U.! E k p * . ^ o.o.o.o.o.o.o.o.o.o.o.o.o.o.o.o.o.o.o.o.o.",
"o.o.o.o.o.o.o.o.o.o.o.o.o.o.o.o.o.o. .` 0 3 t.a.l ; d %.,.q.I G J J J G 2 o > a * . ^ o.o.o.o.o.o.o.o.o.o.o.o.o.o.o.o.o.o.o.o.o.",
"o.o.o.o.o.o.o.o.o.o.o.o.o.o.o.o.o.| ^ t R 8.a.J.t.L j s &.<.l 2 G F.F.D.I n , * X . ^ o.o.o.o.o.o.o.o.o.o.o.o.o.o.o.o.o.o.o.o.o.",
"o.o.o.o.o.o.o.o.o.o.o.o.o.o.o.o.o.[ 7 ; 8.L.L.K.J.t.4 o c ,.i # ~ H.H.G.~ b :     & ( o.o.o.o.o.o.o.o.o.o.o.o.o.o.o.o.o.o.o.o.o.",
"o.o.o.o.o.o.o.o.o.o.o.o.o.o.o.o.o.[ 7 ; 8.K.a.y.a.y.j o c ,.i O V i.i.p.9.b , . 9 / [ o.o.o.o.o.o.o.o.o.o.o.o.o.o.o.o.o.o.o.o.o.",
"o.o.o.o.o.o.o.o.o.o.o.o.o.o.o.o.o.[ 7 ; 8.J.r.W y.y.k = c -.i - >.].].7.<.b , . ^ o.o.o.o.o.o.o.o.o.o.o.o.o.o.o.o.o.o.o.o.o.o.o.",
"o.o.o.o.o.o.o.o.o.o.o.o.o.o.o.o.o.[ 7 ; 8.J.r.Y L k =.>.h i o - 5.].].g.3.b , . ^ o.o.o.o.o.o.o.o.o.o.o.o.o.o.o.o.o.o.o.o.o.o.o.",
"o.o.o.o.o.o.o.o.o.o.o.o.o.o.o.o.o.[ 7 ; 8.J.r.U : = 4.g.m O O 1 4.[.[.].w.b , . ^ o.o.o.o.o.o.o.o.o.o.o.o.o.o.o.o.o.o.o.o.o.o.o.",
"o.o.o.o.o.o.o.o.o.o.o.o.o.o.o.o.o.[ 7 ; 8.J.r.U : = 4.}.c.u.u.v.m.[.[.[.g.6.d . ^ o.o.o.o.o.o.o.o.o.o.o.o.o.o.o.o.o.o.o.o.o.o.o.",
"o.o.o.o.o.o.o.o.o.o.o.o.o.o.o.o.o.{ 9 : W a.r.U : = 5.|..X`.`.XX X{.{.{.{.g.m . ^ o.o.o.o.o.o.o.o.o.o.o.o.o.o.o.o.o.o.o.o.o.o.o.",
"o.o.o.o.o.o.o.o.o.o.o.o.o.o.o.o.o.@.' K A L Y U : o v d.(.<X<X3XOX.X XN.N.m.M . ^ o.o.o.o.o.o.o.o.o.o.o.o.o.o.o.o.o.o.o.o.o.o.o.",
"o.o.o.o.o.o.o.o.o.o.o.o.o.o.o.o.o.o.@.} 9 o l U : o j 9.(.2X5X5X5X1X#XA.A.V.N . ^ o.o.o.o.o.o.o.o.o.o.o.o.o.o.o.o.o.o.o.o.o.o.o.",
"o.o.o.o.o.o.o.o.o.o.o.o.o.o.o.o.o.o...} 9 o P T 3 O V c.M._.:X5X5X1X#XA.A.V.N . ^ o.o.o.o.o.o.o.o.o.o.o.o.o.o.o.o.o.o.o.o.o.o.o.",
"o.o.o.o.o.o.o.o.o.o.o.o.o.o.o.o.o.o.o._ 9 @ L T 3 O C l.l.C.oX2X2X:X.XA.A.V.C % ^  .X.o.o.o.o.o.o.o.o.o.o.o.o.o.o.o.o.o.o.o.o.o.",
"o.o.o.o.o.o.o.o.o.o.o.o.o.o.o.o.o.o.o. .) y t 3 O X f C j.z.^.~.~.~.S.V.Z.Z.l.Z A e ` o.o.o.o.o.o.o.o.o.o.o.o.o.o.o.o.o.o.o.o.o.",
"o.o.o.o.o.o.o.o.o.o.o.o.o.o.o.o.o.o.o.o.o.{ 8     X * f Z l.l.l.l.l.l.z.V.A.A.V.N . ^ o.o.o.o.o.o.o.o.o.o.o.o.o.o.o.o.o.o.o.o.o.",
"o.o.o.o.o.o.o.o.o.o.o.o.o.o.o.o.o.o.o.o.o.{ 9 X B C :.0.C N N N N N N C j.V.Z.V.N . ^ o.o.o.o.o.o.o.o.o.o.o.o.o.o.o.o.o.o.o.o.o.",
"o.o.o.o.o.o.o.o.o.o.o.o.o.o.o.o.o.o.o.o.o.{ 9 O Z z.C.V.N             # Z z.C.C.N . ^ o.o.o.o.o.o.o.o.o.o.o.o.o.o.o.o.o.o.o.o.o.",
"o.o.o.o.o.o.o.o.o.o.o.o.o.o.o.o.o.o.o.o.o.{ 8 # R ! P.b.5 . 9 e &   6 S Q ! P.P.5 . ^ o.o.o.o.o.o.o.o.o.o.o.o.o.o.o.o.o.o.o.o.o.",
"o.o.o.o.o.o.o.o.o.o.o.o.o.o.o.o.o.o.o.o.o.{ 8 # S H F.F.5 $ ( { 9 + S H J H F.F.F $ / o.o.o.o.o.o.o.o.o.o.o.o.o.o.o.o.o.o.o.o.o.",
"o.o.o.o.o.o.o.o.o.o.o.o.o.o.o.o.o.o.o.o.o.{ 8 # S H F.F.5 $ ( { 9 @ k.I.G.D.G F K ^ [ o.o.o.o.o.o.o.o.o.o.o.o.o.o.o.o.o.o.o.o.o.",
"o.o.o.o.o.o.o.o.o.o.o.o.o.o.o.o.o.o.o.o.o.{ 9 # D H F.G.F % ( [ 9 < Z.&X/.F.F $ / o.o.o.o.o.o.o.o.o.o.o.o.o.o.o.o.o.o.o.o.o.o.o.",
"o.o.o.o.o.o.o.o.o.o.o.o.o.o.o.o.o.o.o.o.o. .) ^ ] +.T._.S.x.O.9 $ < Z.&Xb.F K ^ [ o.o.o.o.o.o.o.o.o.o.o.o.o.o.o.o.o.o.o.o.o.o.o.",
"o.o.o.o.o.o.o.o.o.o.o.o.o.o.o.o.o.o.o.o.o.o.o.o.o.#.'.;X;X$Xh.    < Z.$Xh.. / o.o.o.o.o.o.o.o.o.o.o.o.o.o.o.o.o.o.o.o.o.o.o.o.o.",
"o.o.o.o.o.o.o.o.o.o.o.o.o.o.o.o.o.o.o.o.o.o.o.o.o.#.'.;X;X$Xh.    < Z.$Xh.. / o.o.o.o.o.o.o.o.o.o.o.o.o.o.o.o.o.o.o.o.o.o.o.o.o.",
"o.o.o.o.o.o.o.o.o.o.o.o.o.o.o.o.o.o.o.o.o.o.o.o.o.o.o.o.o.o.o.o.o.o.o.o.o.o.o.o.o.o.o.o.o.o.o.o.o.o.o.o.o.o.o.o.o.o.o.o.o.o.o.o.",
"o.o.o.o.o.o.o.o.o.o.o.o.o.o.o.o.o.o.o.o.o.o.o.o.o.o.o.o.o.o.o.o.o.o.o.o.o.o.o.o.o.o.o.o.o.o.o.o.o.o.o.o.o.o.o.o.o.o.o.o.o.o.o.o.",
"o.o.o.o.o.o.o.o.o.o.o.o.o.o.o.o.o.o.o.o.o.o.o.o.o.o.o.o.o.o.o.o.o.o.o.o.o.o.o.o.o.o.o.o.o.o.o.o.o.o.o.o.o.o.o.o.o.o.o.o.o.o.o.o.",
"o.o.o.o.o.o.o.o.o.o.o.o.o.o.o.o.o.o.o.o.o.o.o.o.o.o.o.o.o.o.o.o.o.o.o.o.o.o.o.o.o.o.o.o.o.o.o.o.o.o.o.o.o.o.o.o.o.o.o.o.o.o.o.o.",
"o.o.o.o.o.o.o.o.o.o.o.o.o.o.o.o.o.o.o.o.o.o.o.o.o.o.o.o.o.o.o.o.o.o.o.o.o.o.o.o.o.o.o.o.o.o.o.o.o.o.o.o.o.o.o.o.o.o.o.o.o.o.o.o.",
"o.o.o.o.o.o.o.o.o.o.o.o.o.o.o.o.o.o.o.o.o.o.o.o.o.o.o.o.o.o.o.o.o.o.o.o.o.o.o.o.o.o.o.o.o.o.o.o.o.o.o.o.o.o.o.o.o.o.o.o.o.o.o.o.",
"o.o.o.o.o.o.o.o.o.o.o.o.o.o.o.o.o.o.o.o.o.o.o.o.o.o.o.o.o.o.o.o.o.o.o.o.o.o.o.o.o.o.o.o.o.o.o.o.o.o.o.o.o.o.o.o.o.o.o.o.o.o.o.o.",
"o.o.o.o.o.o.o.o.o.o.o.o.o.o.o.o.o.o.o.o.o.o.o.o.o.o.o.o.o.o.o.o.o.o.o.o.o.o.o.o.o.o.o.o.o.o.o.o.o.o.o.o.o.o.o.o.o.o.o.o.o.o.o.o.",
"o.o.o.o.o.o.o.o.o.o.o.o.o.o.o.o.o.o.o.o.o.o.o.o.o.o.o.o.o.o.o.o.o.o.o.o.o.o.o.o.o.o.o.o.o.o.o.o.o.o.o.o.o.o.o.o.o.o.o.o.o.o.o.o."
};
