/* XPM */
static char *rcp10050767684227[] = {
/* columns rows colors chars-per-pixel */
"64 64 210 2 ",
"   c #010101",
".  c #0C0405",
"X  c #0C0C03",
"o  c #06040A",
"O  c #09060D",
"+  c #0D0A0B",
"@  c #130504",
"#  c #110C0C",
"$  c #170804",
"%  c #0F100C",
"&  c #111204",
"*  c #13130C",
"=  c #191609",
"-  c #0B0713",
";  c #0A0914",
":  c #090914",
">  c #130C1D",
",  c #170C14",
"<  c #191416",
"1  c #370B0C",
"2  c #241819",
"3  c #311110",
"4  c #25260B",
"5  c #272809",
"6  c #2A2B0A",
"7  c #28270F",
"8  c #2F300C",
"9  c #32330C",
"0  c #3D3D0E",
"q  c #24221A",
"w  c #26231A",
"e  c #3D3D12",
"r  c #333416",
"t  c #342E12",
"y  c #150E22",
"u  c #1A0F2C",
"i  c #170E29",
"p  c #191225",
"a  c #1D132C",
"s  c #1A142A",
"d  c #1E1333",
"f  c #141838",
"g  c #251725",
"h  c #211536",
"j  c #23163B",
"k  c #26193C",
"l  c #281936",
"z  c #371834",
"x  c #2F1327",
"c  c #1E2B32",
"v  c #222222",
"b  c #2C2C2C",
"n  c #2B2B24",
"m  c #343421",
"M  c #3A2636",
"N  c #343433",
"B  c #3B3B3A",
"V  c #383437",
"C  c #35292E",
"Z  c #4B0C0C",
"A  c #50110D",
"S  c #431919",
"D  c #6C1212",
"F  c #7B1515",
"G  c #7E1E1D",
"H  c #751515",
"J  c #483B1E",
"K  c #561829",
"L  c #471C37",
"P  c #452629",
"I  c #4B2932",
"U  c #452438",
"Y  c #532F36",
"T  c #54243B",
"R  c #513031",
"E  c #48362C",
"W  c #6A3335",
"Q  c #6D222B",
"!  c #3F400F",
"~  c #3F4013",
"^  c #41420F",
"/  c #454610",
"(  c #464811",
")  c #494B11",
"_  c #535514",
"`  c #565914",
"'  c #5A5C16",
"]  c #624514",
"[  c #5F6116",
"{  c #616317",
"}  c #646618",
"|  c #676A18",
" . c #6B6D19",
".. c #6E711A",
"X. c #72751B",
"o. c #75781E",
"O. c #45462A",
"+. c #4E4F35",
"@. c #7D4F26",
"#. c #767922",
"$. c #737528",
"%. c #271941",
"&. c #2A1C45",
"*. c #2D1E49",
"=. c #311D40",
"-. c #29214B",
";. c #31214D",
":. c #3A234A",
">. c #352454",
",. c #3C2653",
"<. c #392659",
"1. c #3C295D",
"2. c #3E2F57",
"3. c #263359",
"4. c #202A51",
"5. c #2F2E62",
"6. c #3B3D73",
"7. c #343967",
"8. c #521F43",
"9. c #482547",
"0. c #552A48",
"q. c #553A4A",
"w. c #492B56",
"e. c #40305F",
"r. c #563A54",
"t. c #643745",
"y. c #663B5F",
"u. c #683A5A",
"i. c #763650",
"p. c #4D3D6A",
"a. c #533968",
"s. c #3C447C",
"d. c #454545",
"f. c #4D4D4C",
"g. c #4E4E50",
"h. c #545454",
"j. c #5B5B5B",
"k. c #5A5755",
"l. c #774A55",
"z. c #745C5C",
"x. c #6E4158",
"c. c #495468",
"v. c #4C5774",
"b. c #544C6D",
"n. c #7E4F71",
"m. c #7C5C78",
"M. c #75506B",
"N. c #5B637A",
"B. c #446D7C",
"V. c #656565",
"C. c #6C6C6C",
"Z. c #6A6565",
"A. c #656472",
"S. c #727272",
"D. c #7C666E",
"F. c #8A1E1E",
"G. c #972828",
"H. c #953135",
"J. c #892225",
"K. c #A13339",
"L. c #994A4C",
"P. c #904F5D",
"I. c #8C5358",
"U. c #824545",
"Y. c #A4474B",
"T. c #AB4444",
"R. c #996654",
"E. c #844C64",
"W. c #904A65",
"Q. c #8B5763",
"!. c #97556B",
"~. c #8B5A7A",
"^. c #A45C6C",
"/. c #AC5F70",
"(. c #886F7B",
"). c #8D686C",
"_. c #B86778",
"`. c #A57575",
"'. c #A86B7A",
"]. c #C16A7D",
"[. c #898B5A",
"{. c #848647",
"}. c #979977",
"|. c #384984",
" X c #3D548D",
".X c #485788",
"XX c #796B8B",
"oX c #A97B8A",
"OX c #B86F82",
"+X c #C46D80",
"@X c #C67585",
"#X c #708493",
"$X c #949593",
"%X c #928897",
"&X c #AC8A9A",
"*X c #988AA3",
"=X c #B69CAF",
"-X c #8BA3B0",
";X c #ABABA8",
":X c #CC8796",
">X c #D88693",
",X c #DA8992",
"<X c #D78994",
"1X c #DA919C",
"2X c #CD8792",
"3X c #E4949E",
"4X c #E08F9A",
"5X c #E1B1BB",
"6X c #BFB7C4",
"7X c #DBD4DE",
/* pixels */
"X.X.X.X.X.X.X.X.X.X.X.X.X.X.X.X.X.X.X.X.X.X.X.X.X.X.X.X.X.X.X.X.X.X.X.X.X.X.X.X.X.X.X.X.X.X.X.X.X.X.X.X.X.X.X.X.X.X.X.X.X.X.X.X.",
"X.X.X.X.X.X.X.X.X.X.X.X.X.X.X.X.X.X.X.X.X.X.X.X.X.X.X.X.X.X.X.X.X.X.X.X.X.X.X.X.X.X.X.X.X.X.X.X.X.X.X.X.X.X.X.X.X.X.X.X.X.X.X.X.",
"X.X.X.X.X.X.X.X.X.X.X.X.X.X.X.X.X.X.X.X.X.X.X.X.X.X.X.X.X.X.X.X.X.X.X.X.X.X.X.X.X.X.X.X.X.X.X.X.X.X.X.X.X.X.X.X.X.X.X.X.X.X.X.X.",
"X.X.X.X.X.X.X.X.X.X.X.X.X.X.X.X.X.X.X.X.X.X.X.X.X.X.X.X.X.X.X.X.X.X.X.X.X.X.X.X.X.X.X.X.X.X.X.X.X.X.X.X.X.X.X.X.X.X.X.X.X.X.X.X.",
"X.X.X.X.X.X.X.X.X.X.X.X.X.X.X.X.X.X.X.X.X.X.X.X.X.X.X.X.X.X.X.X.X.X.X.X.X.X.X.X.X.X.X.X.X.X.X.X.X.X.X.X.X.X.X.X.X.X.X.X.X.X.X.X.",
"X.X.X.X.X.X.X.X.X.X.X.X.X.X.X.X.X.X.X.X.X.X.X.X.X.X.X.X.X.X.X.X.X.X.X.X.X.X.X.X.X.X.X.X.X.X.X.X.X.X.X.X.X.X.X.X.X.X.X.X.X.X.X.X.",
"X.X.X.X.X.X.X.X.X.X.X.X.X.X.X.X.X.X.X.X.X.X.X.....X.X.X.X.X.X.X.X.X.X.X.X.X.X.X.X.X.X.X.X.X.X.X.X.X.X.X.X.X.X.X.X.X.X.X.X.X.X.X.",
"X.X.X.X.X.X.X.X.X.X.X.X.X.X.X.X.X.X.X...| { { }  ...| { { { { { { { { { { {  .X.X.X.X.X.X.X.X.X.X.X.X.X.X.X.X.X.X.X.X.X.X.X.X.X.",
"X.X.X.X.X.X.X.X.X.X.X.X.X.X.X.X.X.X.X.| ^ 5 5 9 ` | / 5 5 5 5 5 5 5 5 5 5 9 ` X.X.X.X.X.X.X.X.X.X.X.X.X.X.X.X.X.X.X.X.X.X.X.X.X.",
"X.X.X.X.X.X.X.X.X.X.X.X.X.X.X.X.X.X.X.{ 5   o * / _ 7 o o o O O O O O O O # e }  .X.X.X.X.X.X.X.X.X.X.X.X.X.X.X.X.X.X.X.X.X.X.X.",
"X.X.X.X.X.X.X.X.X.X.X.X.X.X.X.X.X.X.X.{ 5 o p l w 7 g a a d h k k k k k h a q 9 ` X.X.X.X.X.X.X.X.X.X.X.X.X.X.X.X.X.X.X.X.X.X.X.",
"X.X.X.X.X.X.X.X.X.X.X.X.X.X.X.X.X.X.X.{ 5 O k ;.i - d *.*.;.<.1.1.1.1.1.>.&.y # e }  .X.X.X.X.X.X.X.X.X.X.X.X.X.X.X.X.X.X.X.X.X.",
"X.X.X.X.X.X.X.X.X.X.X.X.X.X.X.X.X.X.X.{ 5 O h *.d i &.<.<.<.<.1.1.1.1.1.<.>.k a q 9 ` X.X.X.X.X.X.X.X.X.X.X.X.X.X.X.X.X.X.X.X.X.",
"X.X.X.X.X.X.X.X.X.X.X.X.X.X.X.X.X.X.X.{ 9 * a k j j ;.1.1.1.1.1.1.1.1.1.1.1.>.&.y # e { { X.X.X.X.X.X.X.X.X.X.X.X.X.X.X.X.X.X.X.",
"X.X.X.X.X.X.X.X.X.X.X.X.X.X.X.X.X.X.X. .` ~ q y d &.*.>.<.1.1.1.1.1.1.1.1.1.<.>.k a q 5 5 X.X.X.X.X.X.X.X.X.X.X.X.X.X.X.X.X.X.X.",
"X.X.X.X.X.X.X.X.X.X.X.X.X.X.X.X.X.X.X.X.| _ 7 - d *.*.;.<.1.1.1.1.1.1.1.1.1.1.1.>.&.>     X.X.X.X.X.X.X.X.X.X.X.X.X.X.X.X.X.X.X.",
"X.X.X...X.X.X.X.X.X.X.X.X.X.X.X.X.X.X.| / 7 g d k *.>.<.<.1.1.1.1.1.1.1.1.1.1.1.<.;.y     X.X.X.X.X.X.X.X.X.X.X.X.X.X.X.X.X.X.X.",
"X.X.X.X...X...X.X.X.X.X.X.X.X.X.X.X.X.{ 5 o a *.*.*.<.1.1.1.1.1.1.1.1.1.1.1.1.1.1.<.p     X.X.X.X.X.X.X.X.X.X.X.X.X.X.X.X.X.X.X.",
"X.X.X.X.X.X.X.X.X.X.X.X.X.X.X.X.X.X.X.{ 5 o a *.*.*.<.1.1.1.<.>.<.1.1.1.1.1.<.>.<.<.p     X.X.X.X.X.X.X.X.X.X.X.X.X.X.X.X.X.X.X.",
"X.X.X.X.X.X.X.X.X.X.X.X.X.X.X.X.X.X.| _ 4 o a *.*.*.<.1.1.1.>.;.<.1.1.1.1.<.;.&.>.>.p     X.X.X.X.X.X.X.X.X.X.X.X.X.X.X.X.X.X.X.",
"X.X.X.X.X.X.X.X.X.X.X.X.X.X.X.X.X.| / 5 X o a *.*.*.;.>.<.1.<.<.>.>.<.1.<.;.k d &.*.y     X.X.X.X.X.X.X.X.X.X.X.X.X.X.X.X.X.X.X.",
"X.X.X.X.X.X.X.X.X.X.X.X.X.X.X.X.X.[ 5     - d *.&.&.&.*.<.1.1.<.;.&.>.<.,.:.k a h j < X X X.X.X.X.X.X.X.X.X.X.X.X.X.X.X.X.X.X.X.",
"X.X.X.X.X.X.X.X.X.X.X.X.X.X.X.X.X.[ 5 o > d k &.k j &.*.;.>.;.*.j h &.,.y.M.t.U g < t ( ( X.X.X.X.X.X.X.X.X.X.X.X.X.X.X.X.X.X.X.",
"X.X.X.X.X.X.X.X.X.X.X.X.X.X.X.X.X.{ 8 * a &.&.&.j d %.*.*.*.;.;.k h =.w.!._.E.q.g X / X.X.X.X.X.X.X.X.X.X.X.X.X.X.X.X.X.X.X.X.X.",
"X.X.X.X.X.X.X.X.X.X.X.X.X.X.X.X.X. ._ e 2 y d j d d %.*.*.;.b.A.r.9.u.!.OX2X(.c.c X / X.X.X.X.X.X.X.X.X.X.X.X.X.X.X.X.X.X.X.X.X.",
"X.X.X.X.X.X.X.X.X.X.X.X.X.X.X.X.X.X.X.{ 8 + > u d d %.*.*.2.XX*Xm.x.^.@X>X1X%XB.c X / X.X.X.X.X.X.X.X.X.X.X.X.X.X.X.X.X.X.X.X.X.",
"X.X.X.X.X.X.X.X.X.X.X.X.X.X.X.X.X.X.X. ._ e < ; i d %.*.>.p.*X6X#XN.oX>X4X1XoXD.C X / X.X.X.X.X.X.X.X.X.X.X.X.X.X.X.X.X.X.X.X.X.",
"X.X.X.X.X.X.X.X.X.X.X.X.X.X.X.X.X.X.X.X.X.{ 8 + > d k *.<.b.=X7X-X#X&X3X3X,X@X!.P X / X.X.X.X.X.X.X.X.X.X.X.X.X.X.X.X.X.X.X.X.X.",
"X.X.X.X.X.X.X.X.X.X.X.X.X.X.X.X.X.X.X.X.X. ._ e 2 > h *.<.a.&X5X=X&X:X3X>X@XQ.0.2 X / X.X.X.X.X.X.X.X.X.X.X.X.X.X.X.X.X.X.X.X.X.",
"X.X.X.X.X.X.X.X.X.X.X.X.X.X.X.X.X.X.X.X.X.X. .` 5 o a *.<.a.'.,X,X,X,X>X_.!.0.u - X / X.X.X.X.X.X.X.X.X.X.X.X.X.X.X.X.X.X.X.X.X.",
"X.X.X.X.X.X.X.X.X.X.X.X.X.X.X.X.X.X.X.X.X.| ( 5 & o a *.<.w.i.Y.Y.Y.Y.L.W I z u - X / X.X.X.X.X.X.X.X.X.X.X.X.X.X.X.X.X.X.X.X.X.",
"X.X.X.X.X.X.X.X.X.X.X.X.X.X.X.X.X.X.X.X. .` 7 .   o p &.>.w.K D H F F D 1 . > i - X / X.X.X.X.X.X.X.X.X.X.X.X.X.X.X.X.X.X.X.X.X.",
"X.X.X.X.X.X.X.X.X.X.X.X.X.X.X.X.X.X.X.| ( t P L ,   - p *.,.x 1 H G.G.J.K g > - o X / X.X.X.X.X.X.X.X.X.X.X.X.X.X.X.X.X.X.X.X.X.",
"X.X.X.X.X.X.X.X.X.X.X.X.X.X.X.X.X.X.X.{ 5 # T i.x o   O k >.y $ Q K.K.H.Q z 2 + o X / X.X.X.X.X.X.X.X.X.X.X.X.X.X.X.X.X.X.X.X.X.",
"X.X.X.X.X.X.X.X.X.X.X.X.X.X.X.X.X.X.X.{ 5 . 2 z k f : O k >.y + M y.y.u.0.L 0.t.2 X / X.X.X.X.X.X.X.X.X.X.X.X.X.X.X.X.X.X.X.X.X.",
"X.X.X.X.X.X.X.X.X.X.X.X.X.X.X.X.X.X.X.{ 5     - -.5.a , k ;.y : 4.|.|.6.,.8.W./.Y = / | | X.X.X.X.X.X.X.X.X.X.X.X.X.X.X.X.X.X.X.",
"X.X.X.X.X.X.X.X.X.X.X.X.X.X.X.X.X.X.X.{ 5     , q.n.l.t.M y O : 3.|.|.s.2.8.W._.P.t.J 9 9 X.X.X.X.X.X.X.X.X.X.X.X.X.X.X.X.X.X.X.",
"X.X.X.X.X.X.X.X.X.X.X.X.X.X.X.X.X.X.X. .6     < l.+X+X/.Y # . ; 3. X X|.e.0.W.].]./.I     X.X.X.X.X.X.X.X.X.X.X.X.X.X.X.X.X.X.X.",
"X.X.X.X.X.X.X.X.X.X.X.X.X.X.X.X.X.X.X.{ 6     2 I.>X>X@X^.l.U l 7. X X Xs.p.~.].]./.I     X.X.X.X.X.X.X.X.X.X.X.X.X.X.X.X.X.X.X.",
"X.X.X.X.X.X.X.X.X.X.X.X.X.X.X.X.X.X.X.} 8 X   2 Q.<X1X3X3X2XM.9.6. X X X X.X~._._.^.I X X X.X.X.X.X.X.X.X.X.X.X.X.X.X.X.X.X.X.X.",
"X.X.X.X.X.X.X.X.X.X.X.X.X.X.X.X.X.X.X.X.) e = + P l.OX3X3X:Xm.6.|. Xv.v.v.c.q.Y Y R J ^ ^ X.X.X.X.X.X.X.X.X.X.X.X.X.X.X.X.X.X.X.",
"X.X.X.X.X.X.X.X.X.X.X.X.X.X.X.X.X.X.X.o.#.` 4     2 Q.<X1X:XXX X X.Xv.j.j.f.v     & ) X.X.X.X.X.X.X.X.X.X.X.X.X.X.X.X.X.X.X.X.X.",
"X.X.X.X.X.X.X.X.X.X.X.X.X.X.X.X.X.X.X.o.#.{ 5 o v V q.l.).(.A.v.N.N.A.V.j.f.v   5 ( [ X.X.X.X.X.X.X.X.X.X.X.X.X.X.X.X.X.X.X.X.X.",
"X.X.X.X.X.X.X.X.X.X.X.X.X.X.X.X.X.X.X...#.' 6 * B g.b p B h.k.j.V.S.S.S.V.h.v X / X.X.X.X.X.X.X.X.X.X.X.X.X.X.X.X.X.X.X.X.X.X.X.",
"X.X.X.X.X.X.X.X.X.X.X.X.X.X.X.X.X.X.X...( r m V f.h.d.V b b d.j.V.V.C.S.C.j.n X / X.X.X.X.X.X.X.X.X.X.X.X.X.X.X.X.X.X.X.X.X.X.X.",
"X.X.X.X.X.X.X.X.X.X.X.X.X.X.X.X.X.X.X.| 5 + V k.k.k.h.f.q * V h.h.j.V.S.S.V.N * /  ...X.X.X.X.X.X.X.X.X.X.X.X.X.X.X.X.X.X.X.X.X.",
"X.X.X.X.X.X.X.X.X.X.X.X.X.X.X.X.X.X.X.} 5 @ P W W W C n r e m n n b f.V.C.C.h.B m 0 ` X.X.X.X.X.X.X.X.X.X.X.X.X.X.X.X.X.X.X.X.X.",
"X.X.X.X.X.X.X.X.X.X.X.X.X.X.X.X.X.X.X.{ 5 @ Z H F D 1 & ) } 6     % V j.V.S.S.V.b X / X.X.X.X.X.X.X.X.X.X.X.X.X.X.X.X.X.X.X.X.X.",
"X.X.X.X.X.X.X.X.X.X.X.X.X.X.X.X.X.X.X.{ 5 @ Z F F.G 1 & )  ._ ! ! 0 m b f.V.C.V.b X / X.X.X.X.X.X.X.X.X.X.X.X.X.X.X.X.X.X.X.X.X.",
"X.X.X.X.X.X.X.X.X.X.X.X.X.X.X.X.X.X.X.{ 6 $ A G G.H.S = ) ..X.X.X.} 5 o V j.Z.Z.N * / .. .X.X.X.X.X.X.X.X.X.X.X.X.X.X.X.X.X.X.X.",
"X.X.X.X.X.X.X.X.X.X.X.X.X.X.X.X.X.X.X. ._ / ] @.R.`.D.k.O.0 ' X.X.} 6 . P W U.I.z.k.O.9 9 X.X.X.X.X.X.X.X.X.X.X.X.X.X.X.X.X.X.X.",
"X.X.X.X.X.X.X.X.X.X.X.X.X.X.X.X.X.X.X.X.X.X.X.$.}.;X;X$XO.& ) X.X.} 6 . Z F G.T.`.$Xd.    X.X.X.X.X.X.X.X.X.X.X.X.X.X.X.X.X.X.X.",
"X.X.X.X.X.X.X.X.X.X.X.X.X.X.X.X.X.X.X.X.X.X.X.#.{.[.[.{.+./ [ X.X.} 6 . Z G L.`.z.f.O.0 0 X.X.X.X.X.X.X.X.X.X.X.X.X.X.X.X.X.X.X.",
"X.X.X.X.X.X.X.X.X.X.X.X.X.X.X.X.X.X.X.X.X.X.X.X.X.X.X.X.X.X.X.X.X.} 8 @ Z G ).$Xd.& ( X.X.X.X.X.X.X.X.X.X.X.X.X.X.X.X.X.X.X.X.X.",
"X.X.X.X.X.X.X.X.X.X.X.X.X.X.X.X.X.X.X.X.X.X.X.X.X.X.X.X.X.X.X.X.X. ._ 0 3 1 E f.O./ ' X.X.X.X.X.X.X.X.X.X.X.X.X.X.X.X.X.X.X.X.X.",
"X.X.X.X.X.X.X.X.X.X.X.X.X.X.X.X.X.X.X.X.X.X.X.X.X.X.X.X.X.X.X.X.X.X.X.| 6     X / X.X.X.X.X.X.X.X.X.X.X.X.X.X.X.X.X.X.X.X.X.X.X.",
"X.X.X.X.X.X.X.X.X.X.X.X.X.X.X.X.X.X.X.X.X.X.X.X.X.X.X.X.X.X.X.X.X.X.X.} 6     X / X.X.X.X.X.X.X.X.X.X.X.X.X.X.X.X.X.X.X.X.X.X.X.",
"X.X.X.X.X.X.X.X.X.X.X.X.X.X.X.X.X.X.X.X.X.X.X.X.X.X.X.X.X.X.X.X.X.X.X.X.X.X.X.X.X.X.X.X.X.X.X.X.X.X.X.X.X.X.X.X.X.X.X.X.X.X.X.X.",
"X.X.X.X.X.X.X.X.X.X.X.X.X.X.X.X.X.X.X.X.X.X.X.X.X.X.X.X.X.X.X.X.X.X.X.X.X.X.X.X.X.X.X.X.X.X.X.X.X.X.X.X.X.X.X.X.X.X.X.X.X.X.X.X.",
"X.X.X.X.X.X.X.X.X.X.X.X.X.X.X.X.X.X.X.X.X.X.X.X.X.X.X.X.X.X.X.X.X.X.X.X.X.X.X.X.X.X.X.X.X.X.X.X.X.X.X.X.X.X.X.X.X.X.X.X.X.X.X.X.",
"X.X.X.X.X.X.X.X.X.X.X.X.X.X.X.X.X.X.X.X.X.X.X.X.X.X.X.X.X.X.X.X.X.X.X.X.X.X.X.X.X.X.X.X.X.X.X.X.X.X.X.X.X.X.X.X.X.X.X.X.X.X.X.X.",
"X.X.X.X.X.X.X.X.X.X.X.X.X.X.X.X.X.X.X.X.X.X.X.X.X.X.X.X.X.X.X.X.X.X.X.X.X.X.X.X.X.X.X.X.X.X.X.X.X.X.X.X.X.X.X.X.X.X.X.X.X.X.X.X.",
"X.X.X.X.X.X.X.X.X.X.X.X.X.X.X.X.X.X.X.X.X.X.X.X.X.X.X.X.X.X.X.X.X.X.X.X.X.X.X.X.X.X.X.X.X.X.X.X.X.X.X.X.X.X.X.X.X.X.X.X.X.X.X.X.",
"X.X.X.X.X.X.X.X.X.X.X.X.X.X.X.X.X.X.X.X.X.X.X.X.X.X.X.X.X.X.X.X.X.X.X.X.X.X.X.X.X.X.X.X.X.X.X.X.X.X.X.X.X.X.X.X.X.X.X.X.X.X.X.X."
};
