/* XPM */
static char *rcp10050497229889[] = {
/* columns rows colors chars-per-pixel */
"64 64 214 2 ",
"   c #030202",
".  c #0B0505",
"X  c #0C0C03",
"o  c #06040A",
"O  c #09060D",
"+  c #0D0B0B",
"@  c #110404",
"#  c #130C0D",
"$  c #141505",
"%  c #14120C",
"&  c #1A1809",
"*  c #0A0712",
"=  c #0B0913",
"-  c #0C0A1A",
";  c #120C1E",
":  c #190C15",
">  c #1B1B1B",
",  c #181416",
"<  c #390A0B",
"1  c #25151B",
"2  c #281C1A",
"3  c #2B0707",
"4  c #25260B",
"5  c #272809",
"6  c #292A0A",
"7  c #28270F",
"8  c #2F310B",
"9  c #32340C",
"0  c #3D3F0F",
"q  c #36380D",
"w  c #242118",
"e  c #26231A",
"r  c #3D3E12",
"t  c #38381B",
"y  c #342D12",
"u  c #150E22",
"i  c #190F2B",
"p  c #170E29",
"a  c #181026",
"s  c #1C132C",
"d  c #171024",
"f  c #1E1333",
"g  c #191937",
"h  c #251420",
"j  c #251726",
"k  c #331825",
"l  c #211536",
"z  c #251A35",
"x  c #23163B",
"c  c #26193C",
"v  c #2A1734",
"b  c #3D1639",
"n  c #260E26",
"m  c #1C2833",
"M  c #2D2D2C",
"N  c #3C2938",
"B  c #393837",
"V  c #2F2A2B",
"C  c #4B0C0C",
"Z  c #4C1111",
"A  c #471919",
"S  c #6E1212",
"D  c #791818",
"F  c #483B1E",
"G  c #561829",
"H  c #451A37",
"J  c #47272B",
"K  c #4A2635",
"L  c #522B36",
"P  c #593C3F",
"I  c #5A363D",
"U  c #532D24",
"Y  c #7E2525",
"T  c #6C3739",
"R  c #67212F",
"E  c #3F410F",
"W  c #3F4013",
"Q  c #41420F",
"!  c #444610",
"~  c #464811",
"^  c #494B11",
"/  c #464118",
"(  c #535614",
")  c #565814",
"_  c #585A16",
"`  c #5E6116",
"'  c #616317",
"]  c #646619",
"[  c #676A19",
"{  c #6A6D19",
"}  c #6E711A",
"|  c #72751B",
" . c #76791E",
".. c #4E432F",
"X. c #787B21",
"o. c #6B6D20",
"O. c #171C41",
"+. c #271941",
"@. c #2A1C45",
"#. c #2D1E49",
"$. c #311D40",
"%. c #29244B",
"&. c #31224D",
"*. c #3A234A",
"=. c #352454",
"-. c #3C2653",
";. c #392659",
":. c #3C295D",
">. c #3E2F57",
",. c #2D2F59",
"<. c #363365",
"1. c #3F3D71",
"2. c #353873",
"3. c #2E2E63",
"4. c #421C44",
"5. c #4A1C42",
"6. c #501E42",
"7. c #472447",
"8. c #562945",
"9. c #56354C",
"0. c #402C5A",
"q. c #492B56",
"w. c #40305F",
"e. c #4F3F51",
"r. c #563A54",
"t. c #683948",
"y. c #713E49",
"u. c #663B5F",
"i. c #683A5A",
"p. c #783854",
"a. c #6D2F4D",
"s. c #443A66",
"d. c #533968",
"f. c #693A60",
"g. c #3B477D",
"h. c #444444",
"j. c #4B4B4B",
"k. c #5C5C5C",
"l. c #575655",
"z. c #5F4B4B",
"x. c #634244",
"c. c #6F4646",
"v. c #714A4A",
"b. c #73445A",
"n. c #60605F",
"m. c #50506B",
"M. c #7B5974",
"N. c #6F5373",
"B. c #5C667F",
"V. c #5B6279",
"C. c #446D7C",
"Z. c #646464",
"A. c #6B6B6B",
"S. c #6B6767",
"D. c #766B6B",
"F. c #656B7B",
"G. c #727272",
"H. c #7D6575",
"J. c #8B2728",
"K. c #973537",
"L. c #972626",
"P. c #A13339",
"I. c #854949",
"U. c #86485A",
"Y. c #975858",
"T. c #994448",
"R. c #A4474B",
"E. c #A75D5D",
"W. c #844C64",
"Q. c #8C5764",
"!. c #965568",
"~. c #815176",
"^. c #A15A6B",
"/. c #AD5F70",
"(. c #966168",
"). c #836E7F",
"_. c #9A7575",
"`. c #A0657F",
"'. c #BC6B7D",
"]. c #B56375",
"[. c #AE7278",
"{. c #C16B7D",
"}. c #3B4E89",
"|. c #3A4983",
" X c #3D548E",
".X c #40568D",
"XX c #465A8A",
"oX c #505B89",
"OX c #6B5C89",
"+X c #79698B",
"@X c #A97B8A",
"#X c #B46F83",
"$X c #976B8B",
"%X c #C57687",
"&X c #708493",
"*X c #8E8E8E",
"=X c #959098",
"-X c #AC8A9A",
";X c #A69B9B",
":X c #988AA3",
">X c #B69CAF",
",X c #8BA3B0",
"<X c #AEAEAE",
"1X c #CD8999",
"2X c #D88693",
"3X c #DA8992",
"4X c #D68B94",
"5X c #D7929D",
"6X c #CD8792",
"7X c #E08F9A",
"8X c #E4949E",
"9X c #E1B1BB",
"0X c #BFB7C4",
"qX c #DBD4DE",
/* pixels */
"| | | | | | | | | | | | | | | | | | | | | | | | | | | | | | | | | | | | | | | | | | | | | | | | | | | | | | | | | | | | | | | | ",
"| | | | | | | | | | | | | | | | | | | | | | | | | | | | | | | | | | | | | | | | | | | | | | | | | | | | | | | | | | | | | | | | ",
"| | | | | | | | | | | | | | | | | | | | | | | | | | | | | | | | | | | | | | | | | | | | | | | | | | | | | | | | | | | | | | | | ",
"| | | | | | | | | | | | | | | | | | | | | | | | | | | | | | | | | | | | | | | | | | | | | | | | | | | | | | | | | | | | | | | | ",
"| | | | | | | | | | | | | | | | | | | | | | | | | | | | | | | | | | | | | | | | | | | | | | | | | | | | | | | | | | | | | | | | ",
"| | | | | | | | | | | | | | | | | | | | | | | | | | | | | | | | | | | | | | | | | | | | | | | | | | | | | | | | | | | | | | | | ",
"| | | | | | | | | | | | | | | | | | | | | | | } } | | | | | | | | | | | | | | | | | | | | | | | | | | | | | | | | | | | | | | | ",
"| | | | | | | | | | | | | | | | | | | } [ ' ' ] { } [ ' ' ' ' ' ' ' ' ' ' ' { | | | | | | | | | | | | | | | | | | | | | | | | | ",
"| | | | | | | | | | | | | | | | | | | [ Q 6 6 9 _ [ ! 6 6 6 6 6 6 6 6 6 6 9 ) | | | | | | | | | | | | | | | | | | | | | | | | | ",
"| | | | | | | | | | | | | | | | | | | ' 5   o % ! ( 7 o o o O O O O O O O # r ] { | | | | | | | | | | | | | | | | | | | | | | | ",
"| | | | | | | | | | | | | | | | | | | ' 5 o a z e 7 j s s f z c c c c c l s w 9 ) | | | | | | | | | | | | | | | | | | | | | | | ",
"| | | | | | | | | | | | | | | | | | | ' 5 O c &.u * f #.#.&.;.:.:.:.:.:.=.@.u # r ] { | | | | | | | | | | | | | | | | | | | | | ",
"| | | | | | | | | | | | | | | | | | | ' 5 O l #.f p @.;.;.;.;.:.:.:.:.:.;.=.c s w 9 ) | | | | | | | | | | | | | | | | | | | | | ",
"| | | | | | | | | | | | | | | | | | | ' 9 % s c x x &.:.:.:.:.:.:.:.:.:.:.:.=.@.u # r ] { | | | | | | | | | | | | | | | | | | | ",
"| | | | | | | | | | | | | | | | | | | { ) W w u f @.#.=.;.:.:.:.:.:.:.:.:.:.;.=.c s w 9 ( | | | | | | | | | | | | | | | | | | | ",
"| | | | | | | | | | | | | | | | | | | | [ ( 7 = f #.#.&.;.:.:.:.:.:.:.:.:.:.:.:.=.@.; X ! | | | | | | | | | | | | | | | | | | | ",
"| | | | | | | | | | | | | | | | | | | [ ! 7 j f c #.=.;.;.:.:.:.:.:.:.:.:.:.:.:.;.&.u X ! | | | | | | | | | | | | | | | | | | | ",
"| | | | | | | | | | | | | | | | | | | ' 5 o s #.#.#.;.:.:.:.:.:.:.:.:.:.:.:.:.:.:.;.d X ! | | | | | | | | | | | | | | | | | | | ",
"| | | | | | | | | | | | | | | | | | | ' 5 o s #.#.#.;.:.:.:.;.=.;.:.:.:.:.:.;.=.;.;.d X ! | | | | | | | | | | | | | | | | | | | ",
"| | | | | | | | | | | | | | | | | | [ ( 4 o s #.#.#.;.:.:.:.=.&.;.:.:.:.:.;.&.@.=.=.d X ! | | | | | | | | | | | | | | | | | | | ",
"| | | | | | | | | | | | | | | | | [ ! 5 X o s #.#.#.&.=.;.:.;.;.=.=.;.:.;.&.c f @.#.u X ! | | | | | | | | | | | | | | | | | | | ",
"| | | | | | | | | | | | | | | | | ` 5     * f #.@.@.@.#.;.:.:.;.&.@.=.;.-.*.v s l c , & ^ | | | | | | | | | | | | | | | | | | | ",
"| | | | | | | | | | | | | | | | | ` 5 o ; f c @.c x @.#.&.=.&.#.x l @.-.u.b.t.K j , y ^ ' | | | | | | | | | | | | | | | | | | | ",
"| | | | | | | | | | | | | | | | | ' 8 % s @.@.@.x f +.#.#.#.&.&.c l $.q.!.'.W.9.h X ! | | | | | | | | | | | | | | | | | | | | | ",
"| | | | | | | | | | | | | | | | | { ( r 2 u f x f f +.#.#.&.m.N.r.8.i.!.#X6X).m.m X ! | | | | | | | | | | | | | | | | | | | | | ",
"| | | | | | | | | | | | | | | | | | | ' 8 + ; i f f +.#.#.>.+X:XM.b.!.%X2X5X*XC.m X ! | | | | | | | | | | | | | | | | | | | | | ",
"| | | | | | | | | | | | | | | | | | | { ( r 2 - p f +.#.=.s.:X0X&XV.@X2X7X5X@XH.N X ! | | | | | | | | | | | | | | | | | | | | | ",
"| | | | | | | | | | | | | | | | | | | | | ' 6 o ; f c #.;.m.>XqX,X&X-X8X8X3X%X!.J X ! | | | | | | | | | | | | | | | | | | | | | ",
"| | | | | | | | | | | | | | | | | | | | | ' 5   O ; l #.;.d.-X9X>X-X1X8X2X%XQ.8.1 X ! | | | | | | | | | | | | | | | | | | | | | ",
"| | | | | | | | | | | | | | | | | | | | { _ 7 .   o s #.;.d.`.3X3X3X3X2X'.!.8.p * X ! | | | | | | | | | | | | | | | | | | | | | ",
"| | | | | | | | | | | | | | | | | | | [ ! y J H : o s #.;.q.p.R.R.R.R.T.T J h * o X ! | | | | | | | | | | | | | | | | | | | | | ",
"| | | | | | | | | | | | | | | | | | | ' 5 # 8.p.k o a @.=.q.G S D D D S < o o o   X E { } | | | | | | | | | | | | | | | | | | | ",
"| | | | | | | | | | | | | | | | | | | ' 5 # 8.p.k   = a #.-.k < D L.L.J.G n f g -   & q ) | | | | | | | | | | | | | | | | | | | ",
"| | | | | | | | | | | | | | | | | | | ' 5 # L a.k o o = c &.; @ R P.P.K.R 4.:.3.f # # & ! [ [ | | | | | | | | | | | | | | | | | ",
"| | | | | | | | | | | | | | | | | | | ' 5 . 1 k c O.O.g f u O + N u.u.i.7.5.f.~.b.y.y.t.F 8 8 | | | | | | | | | | | | | | | | | ",
"| | | | | | | | | | | | | | | | | | | ' 5     * %.2.2.3.g o o = %.|.|.2.-.6.U.].'.{.{./.K     | | | | | | | | | | | | | | | | | ",
"| | | | | | | | | | | | | | | | | | | ' 5     : 9.~.~.N.s.%.z v <.}.}.g.>.H K I !.{.{./.K     | | | | | | | | | | | | | | | | | ",
"| | | | | | | | | | | | | | | | | | | o.6   + 2 U.{.'.$XOX|.0.4.1. X X|.w.b : # y.].].^.L X X | | | | | | | | | | | | | | | | | ",
"| | | | | | | | | | | | | | | | | | | ' 6 # I Q.'.%X$XOXoX|.0.4.1. X X Xg.<.s . k L L L F ! ! | | | | | | | | | | | | | | | | | ",
"| | | | | | | | | | | | | | | | | | | ' 6 1 (.8X8X1X+X}.}.|.0.7.1. X X X.Xg.g     X . $ ~ | | | | | | | | | | | | | | | | | | | ",
"| | | | | | | | | | | | | | | | |  .X.] 4 1 (.8X8X6XM.s.w.s.<.1.|..XoXB.B.m.m   5 Q Q ~ ` | | | | | | | | | | | | | | | | | | | ",
"| | | | | | | | | | | | | | | | | |  .[ 6 2 Q.4X4X#Xp.b H 7.s. X XXXF.G.G.Z.M X Q | | | | | | | | | | | | | | | | | | | | | | | ",
"| | | | | | | | | | | | | | | | | | | | ) / ..x.x.P k h N e.m.m.V.B.F.G.G.Z.M X Q | | | | | | | | | | | | | | | | | | | | | | | ",
"| | | | | | | | | | | | | | | | | | | { X.' 6         # B l.l.k.A.G.G.G.A.n.M $ ~ | | | | | | | | | | | | | | | | | | | | | | | ",
"| | | | | | | | | | | | | | | | | | | | | { ( q $ . 3 Z U T z.k.A.G.G.A.j.B t ! ` | | | | | | | | | | | | | | | | | | | | | | | ",
"| | | | | | | | | | | | | | | | | | | | | | | ' 6 @ Z D D D x.k.A.G.G.Z.M X E | | | | | | | | | | | | | | | | | | | | | | | | | ",
"| | | | | | | | | | | | | | | | | | | | | | | ' 6 # x.Y.K.J.c.k.Z.Z.A.Z.M X ~ | | | | | | | | | | | | | | | | | | | | | | | | | ",
"| | | | | | | | | | | | | | | | | | | | | | | ' 6 , G.;XE.K.c.l.l.k.A.Z.M X ~ | | | | | | | | | | | | | | | | | | | | | | | | | ",
"| | | | | | | | | | | | | | | | | | | | | | | ' 6 , G.;Xv.A k M h.k.A.Z.M X ~ | | | | | | | | | | | | | | | | | | | | | | | | | ",
"| | | | | | | | | | | | | | | | | | | | | | | ' 6 , A.*XB     % B k.A.Z.M X ~ | | | | | | | | | | | | | | | | | | | | | | | | | ",
"| | | | | | | | | | | | | | | | | | | | | | | ' 6 + B h.> o > B l.A.A.Z.M X ~ | | | | | | | | | | | | | | | | | | | | | | | | | ",
"| | | | | | | | | | | | | | | | | | | | | | | ' 6         + B k.S.G.G.Z.M $ ~ | | | | | | | | | | | | | | | | | | | | | | | | | ",
"| | | | | | | | | | | | | | | | | | | | | | | { ( 0 0 q $ . J T I.I.P B t ! ` | | | | | | | | | | | | | | | | | | | | | | | | | ",
"| | | | | | | | | | | | | | | | | | | | | | | | | | | ' 6 @ C D L.K.A $ ~ } | | | | | | | | | | | | | | | | | | | | | | | | | | ",
"| | | | | | | | | | | | | | | | | | | | | | | | | | | ' 6 @ C Y Y._.D.l...0 _ | | | | | | | | | | | | | | | | | | | | | | | | | ",
"| | | | | | | | | | | | | | | | | | | | | | | | | | | ' 6 @ C Y _.<X<X=Xh.X ~ | | | | | | | | | | | | | | | | | | | | | | | | | ",
"| | | | | | | | | | | | | | | | | | | | | | | | | | | ' 6 @ C Y _.<X<X=Xh.X ~ | | | | | | | | | | | | | | | | | | | | | | | | | ",
"| | | | | | | | | | | | | | | | | | | | | | | | | | | | | | | | | | | | | | | | | | | | | | | | | | | | | | | | | | | | | | | | ",
"| | | | | | | | | | | | | | | | | | | | | | | | | | | | | | | | | | | | | | | | | | | | | | | | | | | | | | | | | | | | | | | | ",
"| | | | | | | | | | | | | | | | | | | | | | | | | | | | | | | | | | | | | | | | | | | | | | | | | | | | | | | | | | | | | | | | ",
"| | | | | | | | | | | | | | | | | | | | | | | | | | | | | | | | | | | | | | | | | | | | | | | | | | | | | | | | | | | | | | | | ",
"| | | | | | | | | | | | | | | | | | | | | | | | | | | | | | | | | | | | | | | | | | | | | | | | | | | | | | | | | | | | | | | | ",
"| | | | | | | | | | | | | | | | | | | | | | | | | | | | | | | | | | | | | | | | | | | | | | | | | | | | | | | | | | | | | | | | ",
"| | | | | | | | | | | | | | | | | | | | | | | | | | | | | | | | | | | | | | | | | | | | | | | | | | | | | | | | | | | | | | | | "
};
