/* XPM */
static char *rcp10050231661250[] = {
/* columns rows colors chars-per-pixel */
"64 64 208 2 ",
"   c #020202",
".  c #0C0C03",
"X  c #06040A",
"o  c #09060C",
"O  c #0D0B0B",
"+  c #0C0607",
"@  c #120404",
"#  c #140B0E",
"$  c #131304",
"%  c #13120C",
"&  c #191609",
"*  c #0B0713",
"=  c #0C0914",
"-  c #090914",
";  c #140C1D",
":  c #110911",
">  c #191516",
",  c #390A0B",
"<  c #25151B",
"1  c #241A18",
"2  c #2D161E",
"3  c #25260B",
"4  c #272809",
"5  c #292A0A",
"6  c #28270F",
"7  c #2F300C",
"8  c #31320C",
"9  c #393B0E",
"0  c #25221A",
"q  c #3D3D11",
"w  c #363718",
"e  c #342E12",
"r  c #150E22",
"t  c #1A0F2D",
"y  c #170E29",
"u  c #181026",
"i  c #1D132C",
"p  c #171024",
"a  c #1E1333",
"s  c #171937",
"d  c #0F122A",
"f  c #251625",
"g  c #321524",
"h  c #371926",
"j  c #211535",
"k  c #23163B",
"l  c #26193C",
"z  c #271935",
"x  c #371834",
"c  c #240C21",
"v  c #1E2B32",
"b  c #2D2D2C",
"n  c #34342B",
"m  c #3B2938",
"M  c #393939",
"N  c #383333",
"B  c #4C0C0C",
"V  c #461916",
"C  c #6E1212",
"Z  c #791616",
"A  c #402D10",
"S  c #483B1E",
"D  c #431F2E",
"F  c #561829",
"G  c #481A3D",
"H  c #47272A",
"J  c #4B2932",
"K  c #452138",
"L  c #542E36",
"P  c #55243B",
"I  c #593338",
"U  c #4B342B",
"Y  c #7F2828",
"T  c #7E2020",
"R  c #6F373A",
"E  c #67212F",
"W  c #3F410F",
"Q  c #41420F",
"!  c #444611",
"~  c #474811",
"^  c #494C11",
"/  c #535614",
"(  c #565914",
")  c #5A5C16",
"_  c #5E6116",
"`  c #616317",
"'  c #666918",
"]  c #6A6D19",
"[  c #646618",
"{  c #6E711A",
"}  c #72751B",
"|  c #75781E",
" . c #4E432F",
".. c #717420",
"X. c #271941",
"o. c #2A1C45",
"O. c #2D1E49",
"+. c #311D40",
"@. c #28254C",
"#. c #31214D",
"$. c #3A234A",
"%. c #202A51",
"&. c #352454",
"*. c #3C2653",
"=. c #392659",
"-. c #3C295D",
";. c #3E2F57",
":. c #263359",
">. c #3A3867",
",. c #3B3D73",
"<. c #2D2E63",
"1. c #521F43",
"2. c #472447",
"3. c #5C2740",
"4. c #552A48",
"5. c #5A3A46",
"6. c #472C57",
"7. c #483858",
"8. c #563A54",
"9. c #643746",
"0. c #70304E",
"q. c #663B5F",
"w. c #683A5A",
"e. c #793653",
"r. c #6D2F4C",
"t. c #463B67",
"y. c #533968",
"u. c #3C457D",
"i. c #444444",
"p. c #555555",
"a. c #5C5C5C",
"s. c #5A5654",
"d. c #564352",
"f. c #654246",
"g. c #794247",
"h. c #774456",
"j. c #60605F",
"k. c #4C5771",
"l. c #565D74",
"z. c #504B69",
"x. c #7C4864",
"c. c #754E72",
"v. c #735B72",
"b. c #5C667E",
"n. c #5F6477",
"m. c #446D7C",
"M. c #656464",
"N. c #6A6A6A",
"B. c #6D6767",
"V. c #776B6B",
"C. c #727272",
"Z. c #716774",
"A. c #952828",
"S. c #963035",
"D. c #892225",
"F. c #A13339",
"G. c #82385B",
"H. c #8A3B61",
"J. c #954749",
"K. c #904F5D",
"L. c #86555A",
"P. c #8E4B4B",
"I. c #A4474B",
"U. c #844C64",
"Y. c #904A65",
"T. c #8A5966",
"R. c #97556B",
"E. c #8B5B7A",
"W. c #A15A6B",
"Q. c #AC5F70",
"!. c #956167",
"~. c #836E7F",
"^. c #927172",
"/. c #A0657F",
"(. c #B86778",
"). c #A37171",
"_. c #C26B7E",
"`. c #384C88",
"'. c #384782",
"]. c #3D548E",
"[. c #40568D",
"{. c #495889",
"}. c #505F85",
"|. c #6D5A86",
" X c #7A6A84",
".X c #B46C82",
"XX c #A97B8A",
"oX c #C47485",
"OX c #708493",
"+X c #959097",
"@X c #AC8A9A",
"#X c #988AA3",
"$X c #B69CAF",
"%X c #8BA3B0",
"&X c #AEAEAE",
"*X c #C6828D",
"=X c #CE8391",
"-X c #D88693",
";X c #D58B94",
":X c #DA8992",
">X c #D68290",
",X c #D7929D",
"<X c #D18A95",
"1X c #E08F9A",
"2X c #E4949E",
"3X c #E1B1BB",
"4X c #BFB7C4",
"5X c #DBD4DE",
/* pixels */
"} } } } } } } } } } } } } } } } } } } } } } } } } } } } } } } } } } } } } } } } } } } } } } } } } } } } } } } } } } } } } } } } ",
"} } } } } } } } } } } } } } } } } } } } } } } } } } } } } } } } } } } } } } } } } } } } } } } } } } } } } } } } } } } } } } } } ",
"} } } } } } } } } } } } } } } } } } } } } } } } } } } } } } } } } } } } } } } } } } } } } } } } } } } } } } } } } } } } } } } } ",
"} } } } } } } } } } } } } } } } } } } } } } } } } } } } } } } } } } } } } } } } } } } } } } } } } } } } } } } } } } } } } } } } ",
"} } } } } } } } } } } } } } } } } } } } } } } } } } } } } } } } } } } } } } } } } } } } } } } } } } } } } } } } } } } } } } } } ",
"} } } } } } } } } } } } } } } } } } } } } } } } } } } } } } } } } } } } } } } } } } } } } } } } } } } } } } } } } } } } } } } } ",
"} } } } } } } } } } } } } } } } } } } } } } } } } } } } } } } } } } } } } } } } } } } } } } } } } } } } } } } } } } } } } } } } ",
"} } } } } } } } } } } } } } } } } } } } } } } } } } } } ' ` ` ` ` ` ` ` ` ` ] } } } } } } } } } } } } } } } } } } } } } } } } } ",
"} } } } } } } } } } } } } } } } } } } } } } } } } } } ' ! 5 5 5 5 5 5 5 5 8 ( } } } } } } } } } } } } } } } } } } } } } } } } } ",
"} } } } } } } } } } } } } } } } } } } } ] ' ` ` ` ` ` / 6 X o o o o o o o # q [ ] } } } } } } } } } } } } } } } } } } } } } } } ",
"} } } } } } } } } } } } } } } } } } } ' ! 5 5 5 5 5 5 6 f a j l l l l l j i 0 8 ( } } } } } } } } } } } } } } } } } } } } } } } ",
"} } } } } } } } } } } } } } } } } } } ` 4   X o X X X * j #.=.-.-.-.-.-.&.o.r # q [ ] } } } } } } } } } } } } } } } } } } } } } ",
"} } } } } } } } } } } } } } } } } } } ` 4 X u k u r u j O.=.=.-.-.-.-.-.=.&.l i 0 8 ( } } } } } } } } } } } } } } } } } } } } } ",
"} } } } } } } } } } } } } } } } } } } ` 8 % z #.l k X.O.=.-.-.-.-.-.-.-.-.-.&.o.r # q ` ` } } } } } } } } } } } } } } } } } } } ",
"} } } } } } } } } } } } } } } } } } } ] ( ! 0 u j X.o.O.=.-.-.-.-.-.-.-.-.-.=.&.l i 0 5 5 } } } } } } } } } } } } } } } } } } } ",
"} } } } } } } } } } } } } } } } } } } } ' / 6 * a O.O.#.=.-.-.-.-.-.-.-.-.-.-.-.&.X.;     } } } } } } } } } } } } } } } } } } } ",
"} } } } } } } } } } } } } } } } } } } ' ! 6 f a l O.&.=.=.-.-.-.-.-.-.-.-.-.-.-.=.#.r     } } } } } } } } } } } } } } } } } } } ",
"} } } } } } } } } } } } } } } } } } } ` 4 X i O.O.O.=.-.-.-.-.-.-.-.-.-.-.-.-.-.-.=.u     } } } } } } } } } } } } } } } } } } } ",
"} } } } } } } } } } } } } } } } } } } ` 4 X i O.O.O.=.-.-.-.=.&.=.-.-.-.-.-.=.&.=.=.u     } } } } } } } } } } } } } } } } } } } ",
"} } } } } } } } } } } } } } } } } } ' / 3 X i O.O.O.=.-.-.=.&.#.=.-.-.-.-.=.#.o.&.&.p     } } } } } } } } } } } } } } } } } } } ",
"} } } } } } } } } } } } } } } } } ' ! 4 . X i O.O.O.#.&.=.-.=.=.&.&.=.-.&.O.l j o.O.r     } } } } } } } } } } } } } } } } } } } ",
"} } } } } } } } } } } } } } } } } _ 4     * a O.o.o.o.O.=.=.=.=.#.o.&.=.*.$.z i j k > . . } } } } } } } } } } } } } } } } } } } ",
"} } } } } } } } } } } } } } } } } _ 4 X ; a l o.X.k X.O.#.&.#.O.k j o.*.q.x.9.K f > e ~ ~ } } } } } } } } } } } } } } } } } } } ",
"} } } } } } } } } } } } } } } } } ` 7 % i X.o.X.k a X.O.O.O.#.#.l j +.6.R.(.U.5.< . ! } } } } } } } } } } } } } } } } } } } } } ",
"} } } } } } } } } } } } } } } } } ] / q 1 r a k a a X.O.O.#.z.v.8.2.w.R..X*X~.k.v . ! } } } } } } } } } } } } } } } } } } } } } ",
"} } } } } } } } } } } } } } } } } } } ` 7 O ; t a a X.O.O.;. X#Xv.h.W.oX-X,X+Xm.v . ! } } } } } } } } } } } } } } } } } } } } } ",
"} } } } } } } } } } } } } } } } } } } ] / q > = y a X.O.&.t.#X4XOXn.XX-X1X,XXXV.m . ! } } } } } } } } } } } } } } } } } } } } } ",
"} } } } } } } } } } } } } } } } } } } } } ` 7 O ; a l O.=.z.$X5X%XOX@X2X2X:XoXR.H . ! } } } } } } } } } } } } } } } } } } } } } ",
"} } } } } } } } } } } } } } } } } } } } } ] / q 1 ; j O.=.y.@X3X$X@X,X2X-XoXU.4.< . ! } } } } } } } } } } } } } } } } } } } } } ",
"} } } } } } } } } } } } } } } } } } } } } } ] ( 4 X i O.=.y./.:X:X:X:X>X(.R.4.t * . ! } } } } } } } } } } } } } } } } } } } } } ",
"} } } } } } } } } } } } } } } } } } } } } ' ~ 4 $ X i O.=.6.e.I.I.I.I.J.R J x t * . ! } } } } } } } } } } } } } } } } } } } } } ",
"} } } } } } } } } } } } } } } } } } } } ] ) 6 + + : i o.&.6.F C Z Z Z C , o ; y * . ~ } } } } } } } } } } } } } } } } } } } } } ",
"} } } } } } } } } } } } } } } } } } } ' ~ e H P P K f u O.*.g , Z A.A.D.F c ; * X . ! } } } } } } } } } } } } } } } } } } } } } ",
"} } } } } } } } } } } } } } } } } } } ` 4 # 3.H.G.r.g o l &.r @ E F.F.S.E x c O   . ! } } } } } } } } } } } } } } } } } } } } } ",
"} } } } } } } } } } } } } } } } } } } ` 4 # 3.G.P g # o l &.r O m q.q.w.4.G 3.9.2 . ! } } } } } } } } } } } } } } } } } } } } } ",
"} } } } } } } } } } } } } } } } } } } ` 4 # 3.e.g     = l #.; - %.'.'.,.*.1.Y.Q.L & ! ' ' } } } } } } } } } } } } } } } } } } } ",
"} } } } } } } } } } } } } } } } } } } ` 4 # 3.e.g X d s a r o - :.`.`.u.;.1.Y.(.K.9.S 8 8 } } } } } } } } } } } } } } } } } } } ",
"} } } } } } } } } } } } } } } } } } } ] 5 # P 0.h ; @.<.s X X = :.].].`.6.4.Y._._.Q.J     } } } } } } } } } } } } } } } } } } } ",
"} } } } } } } } } } } } } } } } } } } ` 5 + < D I h.x.c.t.%.z z >.].].].u.y.E._._.Q.J     } } } } } } } } } } } } } } } } } } } ",
"} } } } } } } } } } } } } } } } } } } ` 7 .   > h._._..X|.u.6.2.,.].].].[.{.E.(.(.W.J . . } } } } } } } } } } } } } } } } } } } ",
"} } } } } } } } } } } } } } } } } } | } ^ q & < L.>X>XoXc.t.>.,.'.[.}.}.b.l.d.L L L S Q Q } } } } } } } } } } } } } } } } } } } ",
"} } } } } } } } } } } } } } } } } } } | | ( 3 1 !.2X2X=Xx.2.t.].].{.b.C.C.M.n     . ! } } } } } } } } } } } } } } } } } } } } } ",
"} } } } } } } } } } } } } } } } } } } } | ` 4 1 !.2X2X;XT.8.z.k.k.l.n.C.C.N.p.M > . ! } } } } } } } } } } } } } } } } } } } } } ",
"} } } } } } } } } } } } } } } } } } } } } ' 5 1 T.;X;X*XT.p.p.a.a.a.N.C.C.C.C.M.b . ! } } } } } } } } } } } } } } } } } } } } } ",
"} } } } } } } } } } } } } } } } } } } } } { / !  .f.f.5.N b i.a.M.B.M.M.M.M.N.M.b . ! } } } } } } } } } } } } } } } } } } } } } ",
"} } } } } } } } } } } } } } } } } } } } } } } ` 5         O M a.N.C.M.s.s.p.M.M.b $ ~ } } } } } } } } } } } } } } } } } } } } } ",
"} } } } } } } } } } } } } } } } } } } } } } } ] / Q W 9 & O M a.N.V.L.g.U b b n w ! _ } } } } } } } } } } } } } } } } } } } } } ",
"} } } } } } } } } } } } } } } } } } } } } } } } } } } ` 5 O M a.N.V.P.A.V     $ ^ } } } } } } } } } } } } } } } } } } } } } } } ",
"} } } } } } } } } } } } } } } } } } } } } } } } } } } ` 5 O M a.N.B.I V A W W ! _ } } } } } } } } } } } } } } } } } } } } } } } ",
"} } } } } } } } } } } } } } } } } } } } } } } } } } { _ 5 % M a.M.j.b & ^ } } } } } } } } } } } } } } } } } } } } } } } } } } } ",
"} } } } } } } } } } } } } } } } } } } } } } } } } ] ^ 8 n M p.M.i.n w ! _ } } } } } } } } } } } } } } } } } } } } } } } } } } } ",
"} } } } } } } } } } } } } } } } } } } } } } } } } ` 5 O M a.B.M.b . ~ } } } } } } } } } } } } } } } } } } } } } } } } } } } } } ",
"} } } } } } } } } } } } } } } } } } } } } } } } } ` 5 + H R P.g.h . ~ } } } } } } } } } } } } } } } } } } } } } } } } } } } } } ",
"} } } } } } } } } } } } } } } } } } } } } } } } } ` 5 @ B Z A.S.V % ~ { } } } } } } } } } } } } } } } } } } } } } } } } } } } } ",
"} } } } } } } } } } } } } } } } } } } } } } } } } ` 5 @ B T P.).V.s. .q ) } } } } } } } } } } } } } } } } } } } } } } } } } } } ",
"} } } } } } } } } } } } } } } } } } } } } } } } } ` 5 @ B D.^.&X&X+Xi.. ~ } } } } } } } } } } } } } } } } } } } } } } } } } } } ",
"} } } } } } } } } } } } } } } } } } } } } } } } } ` 5 @ B Y ^.&X&X+Xi.. ~ } } } } } } } } } } } } } } } } } } } } } } } } } } } ",
"} } } } } } } } } } } } } } } } } } } } } } } } } } } } } } } } } } } } } } } } } } } } } } } } } } } } } } } } } } } } } } } } ",
"} } } } } } } } } } } } } } } } } } } } } } } } } } } } } } } } } } } } } } } } } } } } } } } } } } } } } } } } } } } } } } } } ",
"} } } } } } } } } } } } } } } } } } } } } } } } } } } } } } } } } } } } } } } } } } } } } } } } } } } } } } } } } } } } } } } } ",
"} } } } } } } } } } } } } } } } } } } } } } } } } } } } } } } } } } } } } } } } } } } } } } } } } } } } } } } } } } } } } } } } ",
"} } } } } } } } } } } } } } } } } } } } } } } } } } } } } } } } } } } } } } } } } } } } } } } } } } } } } } } } } } } } } } } } ",
"} } } } } } } } } } } } } } } } } } } } } } } } } } } } } } } } } } } } } } } } } } } } } } } } } } } } } } } } } } } } } } } } ",
"} } } } } } } } } } } } } } } } } } } } } } } } } } } } } } } } } } } } } } } } } } } } } } } } } } } } } } } } } } } } } } } } "
};
