/* XPM */
static char *rcp10045937954801[] = {
/* columns rows colors chars-per-pixel */
"64 64 208 2 ",
"   c #010101",
".  c #0C0D03",
"X  c #06040A",
"o  c #0A060D",
"O  c #0D0B0C",
"+  c #0C0305",
"@  c #130504",
"#  c #140B0E",
"$  c #11060B",
"%  c #0F1004",
"&  c #121304",
"*  c #13130B",
"=  c #171806",
"-  c #0B0713",
";  c #0B0B14",
":  c #090914",
">  c #1A0817",
",  c #130C1D",
"<  c #180B17",
"1  c #171416",
"2  c #390A0B",
"3  c #290E1C",
"4  c #260E1A",
"5  c #231B19",
"6  c #3D1313",
"7  c #381E1E",
"8  c #25260B",
"9  c #272809",
"0  c #292A0A",
"q  c #28270F",
"w  c #2F300C",
"e  c #31320C",
"r  c #3C3D0E",
"t  c #36380D",
"y  c #25221A",
"u  c #352816",
"i  c #3D3D12",
"p  c #353617",
"a  c #150E22",
"s  c #1A0F2D",
"d  c #170E29",
"f  c #181026",
"g  c #1C132C",
"h  c #171024",
"j  c #1E1333",
"k  c #1D1D37",
"l  c #280D23",
"z  c #261625",
"x  c #321523",
"c  c #391427",
"v  c #211535",
"b  c #23163B",
"n  c #26193C",
"m  c #281B39",
"M  c #391535",
"N  c #1F253B",
"B  c #1E2B32",
"V  c #2C2B2B",
"C  c #282323",
"Z  c #363725",
"A  c #3B2938",
"S  c #393939",
"D  c #363434",
"F  c #312730",
"G  c #4C0E0D",
"H  c #471714",
"J  c #6C1515",
"K  c #7D1616",
"L  c #7D1A19",
"P  c #741717",
"I  c #443813",
"U  c #43192E",
"Y  c #561829",
"T  c #501E36",
"R  c #452528",
"E  c #462336",
"W  c #55243B",
"Q  c #5A2323",
"!  c #6F3638",
"~  c #67212F",
"^  c #3F400F",
"/  c #3F403B",
"(  c #444610",
")  c #474911",
"_  c #494C11",
"`  c #4F5113",
"'  c #535514",
"]  c #565914",
"[  c #595C16",
"{  c #614414",
"}  c #5E6116",
"|  c #616317",
" . c #646618",
".. c #676A18",
"X. c #6A6D19",
"o. c #6F721A",
"O. c #72751B",
"+. c #76791F",
"@. c #45462A",
"#. c #7C4D24",
"$. c #7A7D30",
"%. c #727421",
"&. c #271941",
"*. c #2A1C45",
"=. c #2D1E49",
"-. c #311D40",
";. c #28264D",
":. c #31214D",
">. c #3A234A",
",. c #352454",
"<. c #3C2653",
"1. c #392659",
"2. c #3C295D",
"3. c #3E2F57",
"4. c #27355B",
"5. c #27345A",
"6. c #2C2F58",
"7. c #353D78",
"8. c #5C2640",
"9. c #542A48",
"0. c #492B56",
"q. c #40305F",
"w. c #54324A",
"e. c #682B49",
"r. c #6A3A4A",
"t. c #663B5F",
"y. c #683A5A",
"u. c #763253",
"i. c #7D3955",
"p. c #543A67",
"a. c #4B3A66",
"s. c #3A487C",
"d. c #434342",
"f. c #4C4C4A",
"g. c #555554",
"h. c #5D5C5C",
"j. c #54484D",
"k. c #6B4555",
"l. c #635F5F",
"z. c #794B4B",
"x. c #60605F",
"c. c #53496B",
"v. c #735B72",
"b. c #5A647D",
"n. c #5F6477",
"m. c #446D7C",
"M. c #656565",
"N. c #6B6464",
"B. c #6B6B6B",
"V. c #756465",
"C. c #727272",
"Z. c #7D6575",
"A. c #8B2324",
"S. c #932C2C",
"D. c #972727",
"F. c #96373C",
"G. c #A13339",
"H. c #85385D",
"J. c #8A3B61",
"K. c #834545",
"L. c #994448",
"P. c #A4474B",
"I. c #996352",
"U. c #844C64",
"Y. c #97556B",
"T. c #8A5067",
"R. c #A05B6F",
"E. c #956060",
"W. c #876E79",
"Q. c #8C7275",
"!. c #99787C",
"~. c #A1657C",
"^. c #BC6C7C",
"/. c #A27477",
"(. c #A86060",
"). c #C46D7F",
"_. c #989979",
"`. c #374984",
"'. c #3C538E",
"]. c #41568D",
"[. c #435185",
"{. c #4C568C",
"}. c #776887",
"|. c #977389",
" X c #B66D82",
".X c #AA7C88",
"XX c #B17D95",
"oX c #C57384",
"OX c #708493",
"+X c #949096",
"@X c #AC8A9A",
"#X c #A89E9E",
"$X c #A38084",
"%X c #988AA3",
"&X c #B69CAF",
"*X c #8BA3B0",
"=X c #AEAEAE",
"-X c #CB8791",
";X c #D88693",
":X c #DA8992",
">X c #D68693",
",X c #DA929B",
"<X c #CD8792",
"1X c #E4949E",
"2X c #E08F9A",
"3X c #E1B1BB",
"4X c #BFB7C4",
"5X c #DBD4DE",
/* pixels */
"O.O.O.O.O.O.O.O.O.O.O.O.O.O.O.O.O.O.O.O.O.O.O.O.O.O.O.O.O.O.O.O.O.O.O.O.O.O.O.O.O.O.O.O.O.O.O.O.O.O.O.O.O.O.O.O.O.O.O.O.O.O.O.O.",
"O.O.O.O.O.O.O.O.O.O.O.O.O.O.O.O.O.O.O.O.O.O.O.O.O.O.O.O.O.O.O.O.O.O.O.O.O.O.O.O.O.O.O.O.O.O.O.O.O.O.O.O.O.O.O.O.O.O.O.O.O.O.O.O.",
"O.O.O.O.O.O.O.O.O.O.O.O.O.O.O.O.O.O.O.O.O.O.O.O.O.O.O.O.O.O.O.O.O.O.O.O.O.O.O.O.O.O.O.O.O.O.O.O.O.O.O.O.O.O.O.O.O.O.O.O.O.O.O.O.",
"O.O.O.O.O.O.O.O.O.O.O.O.O.O.O.O.O.O.O.O.O.O.O.O.O.O.O.O.O.O.O.O.O.O.O.O.O.O.O.O.O.O.O.O.O.O.O.O.O.O.O.O.O.O.O.O.O.O.O.O.O.O.O.O.",
"O.O.O.O.O.O.O.O.O.O.O.O.O.O.O.O.O.O.O.O.O.O.O.O.O.O.O.O.O.O.O.O.O.O.O.O.O.O.O.O.O.O.O.O.O.O.O.O.O.O.O.O.O.O.O.O.O.O.O.O.O.O.O.O.",
"O.O.O.O.O.O.O.O.O.O.O.O.O.O.O.O.O.O.O.O.O.O.O.O.O.O.O.O.O.O.O.O.O.O.O.O.O.O.O.O.O.O.O.O.O.O.O.O.O.O.O.O.O.O.O.O.O.O.O.O.O.O.O.O.",
"O.O.O.O.O.O.O.O.O.O.O.O.O.O.O.O.O.O.O.O.O.O.O.O.O.O.O.O.O.O.O.O.O.O.O.O.O.O.O.O.O.O.O.O.O.O.O.O.O.O.O.O.O.O.O.O.O.O.O.O.O.O.O.O.",
"O.O.O.O.O.O.O.O.O.O.O.O.O.O.O.O.O.O.O.O.O.O.O.O.O.O.O.O...| | | | | | | | | X.O.O.O.O.O.O.O.O.O.O.O.O.O.O.O.O.O.O.O.O.O.O.O.O.O.",
"O.O.O.O.O.O.O.O.O.O.O.O.O.O.O.O.O.O.O.O.O.O.O.O.O.O.O...( 0 0 0 0 0 0 0 0 e ] O.O.O.O.O.O.O.O.O.O.O.O.O.O.O.O.O.O.O.O.O.O.O.O.O.",
"O.O.O.O.O.O.O.O.O.O.O.O.O.O.O.O.O.O.O.o...| | | | | | ' q X o o o o o o X # i | X.O.O.O.O.O.O.O.O.O.O.O.O.O.O.O.O.O.O.O.O.O.O.O.",
"O.O.O.O.O.O.O.O.O.O.O.O.O.O.O.O.O.O.O...( 0 0 0 0 0 0 q z j v n n n n n v g y e ] O.O.O.O.O.O.O.O.O.O.O.O.O.O.O.O.O.O.O.O.O.O.O.",
"O.O.O.O.O.O.O.O.O.O.O.O.O.O.O.O.O.O.O.| 9   X o X X X - v :.1.2.2.2.2.2.,.*.a # i  .X.O.O.O.O.O.O.O.O.O.O.O.O.O.O.O.O.O.O.O.O.O.",
"O.O.O.O.O.O.O.O.O.O.O.O.O.O.O.O.O.O.O.| 9 X f b f a f v =.1.1.2.2.2.2.2.1.,.n g y e ] O.O.O.O.O.O.O.O.O.O.O.O.O.O.O.O.O.O.O.O.O.",
"O.O.O.O.O.O.O.O.O.O.O.O.O.O.O.O.O.O.O.| e * m :.n b &.=.1.2.2.2.2.2.2.2.2.2.,.*.a # i | | O.O.O.O.O.O.O.O.O.O.O.O.O.O.O.O.O.O.O.",
"O.O.O.O.O.O.O.O.O.O.O.O.O.O.O.O.O.O.O.X.] ( y f v &.*.=.1.2.2.2.2.2.2.2.2.2.1.,.n g y 0 0 O.O.O.O.O.O.O.O.O.O.O.O.O.O.O.O.O.O.O.",
"O.O.O.O.O.O.O.O.O.O.O.O.O.O.O.O.O.O.O.O...' q - j =.=.:.1.2.2.2.2.2.2.2.2.2.2.2.,.&.,     O.O.O.O.O.O.O.O.O.O.O.O.O.O.O.O.O.O.O.",
"O.O.O.O.O.O.O.O.O.O.O.O.O.O.O.O.O.O.O...( q z j n =.,.1.1.2.2.2.2.2.2.2.2.2.2.2.1.:.a     O.O.O.O.O.O.O.O.O.O.O.O.O.O.O.O.O.O.O.",
"O.O.O.O.O.O.O.O.O.O.O.O.O.O.O.O.O.O.O.| 9 X g =.=.=.1.2.2.2.2.2.2.2.2.2.2.2.2.2.2.1.f     O.O.O.O.O.O.O.O.O.O.O.O.O.O.O.O.O.O.O.",
"O.O.O.O.O.O.O.O.O.O.O.O.O.O.O.O.O.O.O.| 9 X g =.=.=.1.2.2.2.1.,.1.2.2.2.2.2.1.,.1.1.f     O.O.O.O.O.O.O.O.O.O.O.O.O.O.O.O.O.O.O.",
"O.O.O.O.O.O.O.O.O.O.O.O.O.O.O.O.O.O...' 8 X g =.=.=.1.2.2.1.,.:.1.2.2.2.2.1.:.*.,.,.h     O.O.O.O.O.O.O.O.O.O.O.O.O.O.O.O.O.O.O.",
"O.O.O.O.O.O.O.O.O.O.O.O.O.O.O.O.O...( 9 . X g =.=.=.:.,.1.2.1.1.,.,.1.2.1.:.n j *.=.a     O.O.O.O.O.O.O.O.O.O.O.O.O.O.O.O.O.O.O.",
"O.O.O.O.O.O.O.O.O.O.O.O.O.O.O.O.O.} 9     - j =.*.*.*.=.1.1.1.1.:.*.,.1.<.>.m g v n 1 . . O.O.O.O.O.O.O.O.O.O.O.O.O.O.O.O.O.O.O.",
"O.O.O.O.O.O.O.O.O.O.O.O.O.O.O.O.O.} 9 X , j n *.&.b &.=.:.,.:.=.b v *.<.t.k.e.E z 1 p ) ) O.O.O.O.O.O.O.O.O.O.O.O.O.O.O.O.O.O.O.",
"O.O.O.O.O.O.O.O.O.O.O.O.O.O.O.O.O.| w * g &.*.&.b j &.=.=.=.:.:.n v -.0.Y.^.T.w.z . ( O.O.O.O.O.O.O.O.O.O.O.O.O.O.O.O.O.O.O.O.O.",
"O.O.O.O.O.O.O.O.O.O.O.O.O.O.O.O.O.X.' i 5 a j b j j &.=.=.:.c.v.w.9.y.Y. X-XW.c.B . ( O.O.O.O.O.O.O.O.O.O.O.O.O.O.O.O.O.O.O.O.O.",
"O.O.O.O.O.O.O.O.O.O.O.O.O.O.O.O.O.O.O.| w O , s j j &.=.=.3.}.%Xv.k.R.oX;X,X+Xm.B . ( O.O.O.O.O.O.O.O.O.O.O.O.O.O.O.O.O.O.O.O.O.",
"O.O.O.O.O.O.O.O.O.O.O.O.O.O.O.O.O.O.O.X.' i 1 ; d j &.=.,.a.%X4XOXn..X;X2X,XXXZ.A . ( O.O.O.O.O.O.O.O.O.O.O.O.O.O.O.O.O.O.O.O.O.",
"O.O.O.O.O.O.O.O.O.O.O.O.O.O.O.O.O.O.O.O.O.| w O , j n =.1.c.&X5X*XOX@X1X1X:XoXY.R . ( O.O.O.O.O.O.O.O.O.O.O.O.O.O.O.O.O.O.O.O.O.",
"O.O.O.O.O.O.O.O.O.O.O.O.O.O.O.O.O.O.O.O.O.X.' i 5 , v =.1.p.@X3X&X@X,X1X;XoXT.w.3 . ( O.O.O.O.O.O.O.O.O.O.O.O.O.O.O.O.O.O.O.O.O.",
"O.O.O.O.O.O.O.O.O.O.O.O.O.O.O.O.O.O.O.O.O.O.X.] 9 X g =.1.p.~.:X:X:X:X>X^.Y.w.s - . ( O.O.O.O.O.O.O.O.O.O.O.O.O.O.O.O.O.O.O.O.O.",
"O.O.O.O.O.O.O.O.O.O.O.O.O.O.O.O.O.O.O.O.O...) 9 & X g =.1.0.i.P.P.P.P.L.! E m s - . ( O.O.O.O.O.O.O.O.O.O.O.O.O.O.O.O.O.O.O.O.O.",
"O.O.O.O.O.O.O.O.O.O.O.O.O.O.O.O.O.O.O.O.X.[ q o o # g *.,.0.Y J P K K J 2 X , d - . ) O.O.O.O.O.O.O.O.O.O.O.O.O.O.O.O.O.O.O.O.O.",
"O.O.O.O.O.O.O.O.O.O.O.O.O.O.O.O.O.O.O...) u R W W E z f =.<.c 2 P D.D.A.Y l < - X . ( O.O.O.O.O.O.O.O.O.O.O.O.O.O.O.O.O.O.O.O.O.",
"O.O.O.O.O.O.O.O.O.O.O.O.O.O.O.O.O.O.O.| 9 # 8.J.J.u.x o n ,.a @ ~ G.G.F.~ M >     = _ O.O.O.O.O.O.O.O.O.O.O.O.O.O.O.O.O.O.O.O.O.",
"O.O.O.O.O.O.O.O.O.O.O.O.O.O.O.O.O.O.O.| 9 # 8.H.u.8.4 o n ,.a o A t.t.y.9.M > . 0 ) } O.O.O.O.O.O.O.O.O.O.O.O.O.O.O.O.O.O.O.O.O.",
"O.O.O.O.O.O.O.O.O.O.O.O.O.O.O.O.O.O.O.| 9 # 8.H.e.U < ; n =., : ;.`.`.7.<.M > . ( O.O.O.O.O.O.O.O.O.O.O.O.O.O.O.O.O.O.O.O.O.O.O.",
"O.O.O.O.O.O.O.O.O.O.O.O.O.O.O.O.O.O.O.| 9 # 8.i.U l N ;.k a o : 5.`.`.`.3.M > . ( O.O.O.O.O.O.O.O.O.O.O.O.O.O.O.O.O.O.O.O.O.O.O.",
"O.O.O.O.O.O.O.O.O.O.O.O.O.O.O.O.O.O.O.X.0 # 8.u.x ; 4.s.N O O 1 4.'.'.`.q.M > . ( O.O.O.O.O.O.O.O.O.O.O.O.O.O.O.O.O.O.O.O.O.O.O.",
"O.O.O.O.O.O.O.O.O.O.O.O.O.O.O.O.O.O.O.| 0 # 8.u.x ; 4.[.c.r.r.k.c.'.'.'.s.3.g . ( O.O.O.O.O.O.O.O.O.O.O.O.O.O.O.O.O.O.O.O.O.O.O.",
"O.O.O.O.O.O.O.O.O.O.O.O.O.O.O.O.O.O.O.| e 1 W e.x ; 5.{.|.).). X}.].].'.].s.N * ( X.o.O.O.O.O.O.O.O.O.O.O.O.O.O.O.O.O.O.O.O.O.O.",
"O.O.O.O.O.O.O.O.O.O.O.O.O.O.O.O.O.O.+.O._ I 7 x # o m p.~.>X>X<XXX|.}.b.b.b.g./ Z t [ O.O.O.O.O.O.O.O.O.O.O.O.O.O.O.O.O.O.O.O.O.",
"O.O.O.O.O.O.O.O.O.O.O.O.O.O.O.O.O.O.O.+.+.] 8     o l 9.~.,X1X1X1X,X.XC.C.C.C.M.D * ( X.X.O.O.O.O.O.O.O.O.O.O.O.O.O.O.O.O.O.O.O.",
"O.O.O.O.O.O.O.O.O.O.O.O.O.O.O.O.O.O.O.O.+.| 9 + 3 c 3 x k./.-X1X1X,X!.M.M.M.B.B.g./ Z e e O.O.O.O.O.O.O.O.O.O.O.O.O.O.O.O.O.O.O.",
"O.O.O.O.O.O.O.O.O.O.O.O.O.O.O.O.O.O.O.O.+.| 0 # U W 4 O S N..X,X,X-XQ.g.g.g.M.C.C.M.V     O.O.O.O.O.O.O.O.O.O.O.O.O.O.O.O.O.O.O.",
"O.O.O.O.O.O.O.O.O.O.O.O.O.O.O.O.O.O.O.O.O.X.' i u 3 $ O S l.Q.$X!.Q.N.g.S V f.M.B.M.V     O.O.O.O.O.O.O.O.O.O.O.O.O.O.O.O.O.O.O.",
"O.O.O.O.O.O.O.O.O.O.O.O.O.O.O.O.O.O.O.O.O.O.O.| 0     O S h.B.B.h.g.g.f.C $ S h.N.N.V     O.O.O.O.O.O.O.O.O.O.O.O.O.O.O.O.O.O.O.",
"O.O.O.O.O.O.O.O.O.O.O.O.O.O.O.O.O.O.O.O.O.O.O.X.' t = O S h.B.B.d.V V C 6 G Q ! K.K.7     O.O.O.O.O.O.O.O.O.O.O.O.O.O.O.O.O.O.O.",
"O.O.O.O.O.O.O.O.O.O.O.O.O.O.O.O.O.O.O.O.O.O.O.O.O.| 0 O S h.B.M.V     + G L K L D.S.H     O.O.O.O.O.O.O.O.O.O.O.O.O.O.O.O.O.O.O.",
"O.O.O.O.O.O.O.O.O.O.O.O.O.O.O.O.O.O.O.O.O.O.O.O.O.| 0 O S h.B.M.V     # j.E.F.A.J H I ^ ^ O.O.O.O.O.O.O.O.O.O.O.O.O.O.O.O.O.O.O.",
"O.O.O.O.O.O.O.O.O.O.O.O.O.O.O.O.O.O.O.O.O.O.O.O.o.[ 0 O S h.M.x.V     1 B.#X(.S.H & ) O.O.O.O.O.O.O.O.O.O.O.O.O.O.O.O.O.O.O.O.O.",
"O.O.O.O.O.O.O.O.O.O.O.O.O.O.O.O.O.O.O.O.O.O.O..._ p Z S g.M.d.D p t = 1 B.#Xz.H I ( } O.O.O.O.O.O.O.O.O.O.O.O.O.O.O.O.O.O.O.O.O.",
"O.O.O.O.O.O.O.O.O.O.O.O.O.O.O.O.O.O.O.O.O.O.O.| 0 O S h.N.M.V % )  .0 1 M.+Xd.& ) O.O.O.O.O.O.O.O.O.O.O.O.O.O.O.O.O.O.O.O.O.O.O.",
"O.O.O.O.O.O.O.O.O.O.O.O.O.O.O.O.O.O.O.O.O.O.O.| 0 $ R ! K.z.7 % )  .0 O D f.@.( } O.O.O.O.O.O.O.O.O.O.O.O.O.O.O.O.O.O.O.O.O.O.O.",
"O.O.O.O.O.O.O.O.O.O.O.O.O.O.O.O.O.O.O.O.O.O.O.| 0 @ G A.D.S.6 % )  .0     & ) O.O.O.O.O.O.O.O.O.O.O.O.O.O.O.O.O.O.O.O.O.O.O.O.O.",
"O.O.O.O.O.O.O.O.O.O.O.O.O.O.O.O.O.O.O.O.O.O.O.| 0 @ G K D.S.6 % ) X.' r r ( } O.O.O.O.O.O.O.O.O.O.O.O.O.O.O.O.O.O.O.O.O.O.O.O.O.",
"O.O.O.O.O.O.O.O.O.O.O.O.O.O.O.O.O.O.O.O.O.O.O.| 0 @ G L D.S.H * ) o.O.O.O.O.O.O.O.O.O.O.O.O.O.O.O.O.O.O.O.O.O.O.O.O.O.O.O.O.O.O.",
"O.O.O.O.O.O.O.O.O.O.O.O.O.O.O.O.O.O.O.O.O.O.O.X.` I { #.I./.V.g.@.r [ O.O.O.O.O.O.O.O.O.O.O.O.O.O.O.O.O.O.O.O.O.O.O.O.O.O.O.O.O.",
"O.O.O.O.O.O.O.O.O.O.O.O.O.O.O.O.O.O.O.O.O.O.O.O.O.O.O.$._.=X=X+Xd.. ) O.O.O.O.O.O.O.O.O.O.O.O.O.O.O.O.O.O.O.O.O.O.O.O.O.O.O.O.O.",
"O.O.O.O.O.O.O.O.O.O.O.O.O.O.O.O.O.O.O.O.O.O.O.O.O.O.O.$._.=X=X+Xd.. ) O.O.O.O.O.O.O.O.O.O.O.O.O.O.O.O.O.O.O.O.O.O.O.O.O.O.O.O.O.",
"O.O.O.O.O.O.O.O.O.O.O.O.O.O.O.O.O.O.O.O.O.O.O.O.O.O.O.O.O.O.O.O.O.O.O.O.O.O.O.O.O.O.O.O.O.O.O.O.O.O.O.O.O.O.O.O.O.O.O.O.O.O.O.O.",
"O.O.O.O.O.O.O.O.O.O.O.O.O.O.O.O.O.O.O.O.O.O.O.O.O.O.O.O.O.O.O.O.O.O.O.O.O.O.O.O.O.O.O.O.O.O.O.O.O.O.O.O.O.O.O.O.O.O.O.O.O.O.O.O.",
"O.O.O.O.O.O.O.O.O.O.O.O.O.O.O.O.O.O.O.O.O.O.O.O.O.O.O.O.O.O.O.O.O.O.O.O.O.O.O.O.O.O.O.O.O.O.O.O.O.O.O.O.O.O.O.O.O.O.O.O.O.O.O.O.",
"O.O.O.O.O.O.O.O.O.O.O.O.O.O.O.O.O.O.O.O.O.O.O.O.O.O.O.O.O.O.O.O.O.O.O.O.O.O.O.O.O.O.O.O.O.O.O.O.O.O.O.O.O.O.O.O.O.O.O.O.O.O.O.O.",
"O.O.O.O.O.O.O.O.O.O.O.O.O.O.O.O.O.O.O.O.O.O.O.O.O.O.O.O.O.O.O.O.O.O.O.O.O.O.O.O.O.O.O.O.O.O.O.O.O.O.O.O.O.O.O.O.O.O.O.O.O.O.O.O."
};
