/* XPM */
static char *out[] = {
/* columns rows colors chars-per-pixel */
"48 53 10 1 ",
"  c None",
". c #1B3429",
"X c #282E2D",
"o c #35413D",
"O c #365E4D",
"+ c #4D7D61",
"@ c #639A71",
"# c #7ABA7C",
"$ c #A4DE89",
"% c #CBECA3",
/* pixels */
"                                                ",
"                                                ",
"                .                               ",
"               .$.                              ",
"              .#$$.                             ",
"              .#$$$.                            ",
"              .#$$%$.                           ",
"              .#$$%%$.                          ",
"              .##$$%$.                          ",
"              .+#$$$%$.            .            ",
"              .+##$$$%$.          .$.           ",
"               .+##$$$%$.        .$%.           ",
"               .+###$$$$#.      .$%$#.          ",
"               .+@###$$###.    .$%$$#.          ",
"               .++@#######.   .$$$$##.          ",
"                .+@@#####@.  .#$$$##.           ",
"            ..  .+@@@###@##. .##$###.           ",
"     ..     .$..O++@@@@@##$..######@.           ",
"    .$$..   .$$#+O+@@@+##$$..######@.           ",
"    .#$$$.. .$%$#+++@@+#$%$.+#####@@.           ",
"    .##$%$#..$$%$#++@@+#$$$#++###@@@@..         ",
"    .+#$$%$$##$$$$#++@+##$##++#@@@@@#$$.        ",
"    .++#$$%$$##$$$$#+++@####O+@@@@#$$$$#.       ",
"     .++##$$$$##$$$$#+++@###O+@@@#$$%$##.       ",
"     .O++##$$$$##$$###++@@##+O+@#$$%$$#.        ",
"      .O++##$$#########+@@@@@O+@#$$$$##.    ..  ",
"       .O++######+####@++@@@@++###$$##@.   .#$. ",
"        .O++######+@@@@++@@@@+#######@@. ..$$$#.",
"         .O+@@@@@##+@@@@++@@@+######@@@@.$$$$#. ",
"         .O++@@@@@@++@@@++@@@@####@@@@@$$%%$#@. ",
"          .O++@@@@@@++@@@+@@@+@#@@@+@$$$%$$#@.  ",
"           .O++@@@@@@++@@++@++@@@+++$$$$$$@@@.  ",
"   ........##O+++@@@@++@@@+@++@+++###$$$#@@@.   ",
"  .#$$$%%$$$$##+++@@@@++@@O+++++#######@@@@@.   ",
"   .##$$$$$$$$##+++@@@++@@+O+O+######@@@@@@.    ",
"   .++############++@@@O+@@OO+++###@@@@@@+.     ",
"    .++@@@@@######@++@@+O+@OO++@@@@@@@+++.      ",
"     .O+++@@@@@##@++O+++O++O++@@@@@@+++O.o      ",
"    oX..OO+@#######@+OO++OOOO+++@@@++O..Xoo     ",
"   oooXX.+##$$$$####@++O+O+++++++++OO.XXoooo    ",
"   ooX..#$$$%%$$$####+++#++######+++.XXooooo    ",
"  oo..##$$%%$$$######+###++@###$$$$$.XXoooo     ",
"  oo.####$$$##########$$$#++@###$$%%$.XXoo      ",
"   oX.++@######@@+###$%$##+++@####$$$$.Xo       ",
"    oX.O+@@@@@@++++#@#$$##.++@@#######.ooo      ",
"    ooX.O++@@+++O..@@####.X.++@@@@@@@@.ooo      ",
"     ooX.........XX.@@##+.XX..........ooo       ",
"     oooXXXXXXXXXXX.@@@@+.XXXXXXXXoooooo        ",
"      ooooooooooXXXX.@@+.XXooooooooooo          ",
"        ooooooooooooX...Xoooooo                 ",
"                oooooXXXooo                     ",
"                    ooooo                       ",
"                                                "
};
