/* XPM */
static char *out[] = {
/* columns rows colors chars-per-pixel */
"64 64 174 2 ",
"   c None",
".  c #191425",
"X  c #281F26",
"o  c #2C2127",
"O  c #282028",
"+  c #3C2E28",
"@  c #45211D",
"#  c #732E15",
"$  c #7D3A1A",
"%  c #402F29",
"&  c #522C20",
"*  c #433128",
"=  c #573E29",
"-  c #683F25",
";  c #5B4129",
":  c #684A2B",
">  c #64462B",
",  c #714E2A",
"<  c #7A562C",
"1  c #3A4466",
"2  c #3C4668",
"3  c #923710",
"4  c #933810",
"5  c #9C3E12",
"6  c #9C4315",
"7  c #9A451B",
"8  c #A24113",
"9  c #A94514",
"0  c #AC4915",
"q  c #AD4A18",
"w  c #B14B16",
"e  c #A6581F",
"r  c #A5571F",
"t  c #BC5117",
"y  c #B25A1B",
"u  c #B85219",
"i  c #BB601C",
"p  c #8D4E21",
"a  c #825A2C",
"s  c #A75820",
"d  c #AA5C22",
"f  c #A85E34",
"g  c #8F642D",
"h  c #9A6B2E",
"j  c #98672D",
"k  c #AE6425",
"l  c #AB6E2C",
"z  c #B26B28",
"x  c #A8722D",
"c  c #B6722C",
"v  c #BC7B2F",
"b  c #B06C3A",
"n  c #AE7D34",
"m  c #B27B32",
"M  c #C35619",
"N  c #C65A1A",
"B  c #CC5B1A",
"V  c #C6641D",
"C  c #C66B1F",
"Z  c #D3611C",
"A  c #DC651D",
"S  c #D8691E",
"D  c #E56B1F",
"F  c #E86C1F",
"G  c #CE6627",
"H  c #C76E21",
"J  c #CE6B20",
"K  c #D76E23",
"L  c #C77122",
"P  c #CA7D2C",
"I  c #D67021",
"U  c #CC7C3C",
"Y  c #E96D20",
"T  c #EE7020",
"R  c #EA7C24",
"E  c #E37823",
"W  c #F67522",
"Q  c #F57923",
"!  c #F87B24",
"~  c #AF6C41",
"^  c #B06C41",
"/  c #B87447",
"(  c #B7802F",
")  c #BD8231",
"_  c #C0812F",
"`  c #DA852A",
"'  c #D6862C",
"]  c #C28434",
"[  c #C68C37",
"{  c #C38C3D",
"}  c #C3873A",
"|  c #D5803A",
" . c #CF9B3E",
".. c #D59331",
"X. c #E58F2D",
"o. c #EB8C2A",
"O. c #EA8328",
"+. c #F28126",
"@. c #F98426",
"#. c #F08629",
"$. c #F68F2A",
"%. c #FA8C2A",
"&. c #F8872C",
"*. c #E4922E",
"=. c #ED922B",
"-. c #F6952D",
";. c #F09F2F",
":. c #FB9C2E",
">. c #F8952C",
",. c #EC8737",
"<. c #F08732",
"1. c #E89034",
"2. c #FA9531",
"3. c #F69736",
"4. c #DFA83E",
"5. c #FCA02F",
"6. c #F2A633",
"7. c #FDA330",
"8. c #FBAB3C",
"9. c #FDB33D",
"0. c #C38B4B",
"q. c #D19E40",
"w. c #D19F4B",
"e. c #C38D57",
"r. c #E28C4B",
"t. c #D7A844",
"y. c #DEB449",
"u. c #CFA15F",
"i. c #FAA745",
"p. c #E3B94B",
"a. c #E0B74B",
"s. c #F9B644",
"d. c #F6BE56",
"f. c #C38F63",
"g. c #C69568",
"h. c #D6B07A",
"j. c #EABB69",
"k. c #F6B16E",
"l. c #E6BA70",
"z. c #F6B270",
"x. c #FDC54D",
"c. c #E7C250",
"v. c #ECC953",
"b. c #ECCB5D",
"n. c #FCC952",
"m. c #FCC85E",
"M. c #F2D359",
"N. c #FADC5B",
"B. c #FAD154",
"V. c #FDE35E",
"C. c #ECCD67",
"Z. c #FADB67",
"A. c #E9CB72",
"S. c #FCC770",
"D. c #ECD17D",
"F. c #FDE560",
"G. c #FEE96C",
"H. c #FEEB79",
"J. c #FEE970",
"K. c #DAB685",
"L. c #DFC08F",
"P. c #FCCB82",
"I. c #ECD387",
"U. c #FDDF8D",
"Y. c #EBD69C",
"T. c #FEED99",
"R. c #FEF194",
"E. c #EDDAA9",
"W. c #FAE4A6",
"Q. c #FFF3A0",
"!. c #FEF4BB",
"~. c #FFF8BB",
"^. c #FFFBC7",
"/. c #FFFBC8",
/* pixels */
"                                                                                                                                ",
"                                                                                                                                ",
"                                                                                                                                ",
"                                                                                                                                ",
"                                                                                                                                ",
"                                                                                                                                ",
"                                                                                                                                ",
"                                                                                                                                ",
"                                                                                                                                ",
"                                                                                                                                ",
"                                                                                                                                ",
"                                                                                                                                ",
"                                                                                                                                ",
"                                                                                                                                ",
"                                                      4 3 3 4 4 3 3 3 3 3                                                       ",
"                                                      7 7 7 7 7 7 7 7 7 6 6                                                     ",
"                                                    k v { 0.e.f.f.f.0.0.] z                                                     ",
"                                                  4 c t.b.D.Y.E.E.E.I.C.y.] 7 4                                                 ",
"                                                s d [ c.G.R.~./.^.^.Q.H.M.w.b f                                                 ",
"                                              s ) q.y.M.G.R.~./.^.^.T.H.Z.A.h.g.~ 3                                             ",
"                                            4 d t.N.V.F.G.R.~./.^./.Q.H.J.T.!.L./ 4 4                                           ",
"                                          k c [ y.V.N.x.x.j.K.K.K.K.l.v.m.U.!.Y.u.c z                                           ",
"                                      4 6 v t.c.M.F.n.8.1.| b ^ ^ ^ U ,.i.P.!.W.A.y.[ s 4 4                                     ",
"                                      3 6 ] v.F.V.N.s.<.Y B 0 6 5 5 u A ,.z.W.R.U.N.q.s 3 4                                     ",
"                                      3 7 ] v.N.n.s.1.K N V L C V M M N G r.k.S.Z.N. .r 3 3                                     ",
"                                      3 7 ) v.B.i.%.K u 0 L *.=.R Y B w q G ! i.n.V. .r 3 3                                     ",
"                                      # 3 n p.x.:.! Z 0 6 L ;.5.%.W Z 9 8 N T 3.s.B.{ p # #                                     ",
"                                      @ & h 4.9.2.W Z 0 6 L ;.5.%.W B 9 8 B T &.8.s.n - @ @                                     ",
"                                      . X < ..7.%.! Z w 8 H ;.:.@.W B 9 8 N T &.:.6.h * . .                                     ",
"                                      . O a ..7.%.W Z 0 6 V $.%.@.W Z 9 8 N T @.:.6.h % . .                                     ",
"                                      . X a ..7.%.! Z 0 8 N R ! ! W Z 9 8 N T @.:.6.h * . .                                     ",
"                                      . X < ) *.o.! K t 9 M A F F F B 0 0 G Q #.X...g % . .                                     ",
"                                        O ; < l P $.R S N M M M M M M N Z E $.` l a : +                                         ",
"                                            X = x 6.-.O.D M 9 6 5 5 t A R $.5._ , o o                                           ",
"                                            . * a ( ' O.+.I i y y y Z R #.' _ h ; .                                             ",
"                                                = : j ' >.=.` ` ` ` *.-.X.l , ; *                                               ",
"                                                . . : ) 6.6.6.6.6.6.6.6...a o .                                                 ",
"                                                  . ; a h h h h h h h h g > o                                                   ",
"                                                      * * * * * * * * * * +                                                     ",
"                                                      . . . . . . . . . .                                                       ",
"                                                                                                                                ",
"                                                                                                                                ",
"                                                                                                                                ",
"                                            2 2 2 1 2 1 2 2 2 2 2 2 2 2 1 2 2 1 2 2                                             ",
"                                          2 1 1 1 1 1 1 1 1 1 1 1 1 1 1 1 1 1 1 1 1 1                                           ",
"                                        2 2 1 1 1 1 1 1 1 1 1 1 1 1 1 1 1 1 1 1 1 2 1 1                                         ",
"                                      2 1 1 1 1 1 1 1 1 1 1 1 1 1 1 1 1 1 1 1 1 1 2 1 1 2 2                                     ",
"                                      1 1 1 2 1 1 1 1 1 1 1 1 1 1 1 1 1 1 1 1 1 1 1 1 1 1 1                                     ",
"                                          2 1 1 1 1 1 1 1 1 1 1 1 1 1 1 1 1 1 1 1 1 2 2                                         ",
"                                            2 1 1 1 1 1 1 1 1 1 1 1 1 1 1 1 1 1 1 1 2                                           ",
"                                            2 2 1 2 1 1 2 1 1 2 1 1 2 1 1 1 2 1 1 1 2                                           ",
"                                                                                                                                ",
"                                                                                                                                ",
"                                                                                                                                ",
"                                                                                                                                ",
"                                                                                                                                ",
"                                                                                                                                ",
"                                                                                                                                ",
"                                                                                                                                ",
"                                                                                                                                ",
"                                                                                                                                ",
"                                                                                                                                ",
"                                                                                                                                ",
"                                                                                                                                "
};
