/* XPM */
static char *out[] = {
/* columns rows colors chars-per-pixel */
"45 70 127 2 ",
"   c None",
".  c #1C0000",
"X  c #1B0504",
"o  c #1A0A09",
"O  c #1F0A09",
"+  c #1E0F0E",
"@  c #330B0A",
"#  c #37100F",
"$  c #231513",
"%  c #291414",
"&  c #231D1A",
"*  c #26191E",
"=  c #281918",
"-  c #2D1E1D",
";  c #39241D",
":  c #251E22",
">  c #292320",
",  c #322426",
"<  c #302B23",
"1  c #382922",
"2  c #332C29",
"3  c #312B2E",
"4  c #362F2F",
"5  c #2D312B",
"6  c #2D3132",
"7  c #2E3239",
"8  c #333731",
"9  c #3F3A32",
"0  c #393D37",
"q  c #333738",
"w  c #31323C",
"e  c #3D3938",
"r  c #3A3E3F",
"t  c #5E1D15",
"y  c #5D221A",
"u  c #61281F",
"i  c #76231B",
"p  c #45372B",
"a  c #423D33",
"s  c #40383A",
"d  c #423D3A",
"f  c #6B3129",
"g  c #3C403A",
"h  c #57493B",
"j  c #74423B",
"k  c #3B3F46",
"l  c #3C3F48",
"z  c #3D4041",
"x  c #424640",
"c  c #4C4247",
"v  c #4F4A47",
"b  c #4B474B",
"n  c #4A4C4A",
"m  c #4C4F49",
"M  c #49494C",
"N  c #504943",
"B  c #545046",
"V  c #55514D",
"C  c #484C54",
"Z  c #4B5057",
"A  c #4E525A",
"S  c #5D5A50",
"D  c #595E53",
"F  c #5E5B57",
"G  c #59575D",
"H  c #555B5C",
"J  c #5A5E5A",
"K  c #645249",
"L  c #605548",
"P  c #63574D",
"I  c #605B58",
"U  c #5F6459",
"Y  c #6F6557",
"T  c #726658",
"R  c #545960",
"E  c #555B63",
"W  c #575B65",
"Q  c #585D65",
"!  c #5E636B",
"~  c #6A6764",
"^  c #696D62",
"/  c #6B6864",
"(  c #6D6B65",
")  c #766C62",
"_  c #7B7061",
"`  c #626871",
"'  c #636B75",
"]  c #646B76",
"[  c #696A70",
"{  c #696E76",
"}  c #7A7873",
"|  c #817666",
" . c #847A6B",
".. c #827A6C",
"X. c #8E8475",
"o. c #80807A",
"O. c #868B7C",
"+. c #90887B",
"@. c #948B7B",
"#. c #707882",
"$. c #737982",
"%. c #747E89",
"&. c #7D858E",
"*. c #8D8D88",
"=. c #8D8E8A",
"-. c #9D9483",
";. c #999287",
":. c #808B95",
">. c #818E98",
",. c #8A959F",
"<. c #949490",
"1. c #9A9B97",
"2. c #A29A8B",
"3. c #ACA492",
"4. c #ABA497",
"5. c #98A5B1",
"6. c #9AA7B2",
"7. c #BFB9A7",
"8. c #CCC7B6",
"9. c #D2CEBC",
"0. c #A7B7C1",
"q. c #A8B7C4",
"w. c #B8CAD7",
"e. c #DFDCCB",
"r. c #E8E6D7",
"t. c #C5DAE6",
"y. c #D2EAF5",
/* pixels */
"                                                                                          ",
"                                                                                          ",
"                                                                                          ",
"                                                                                          ",
"                                                                                          ",
"                                                                                          ",
"                                                        w w                               ",
"                                                    w >.y.t.%.w w w                       ",
"                                                w >.y.y.t.%.>.y.t.w.%.w                   ",
"                                              %.t.y.y.t.%.>.y.t.w.w.w.w.%.w               ",
"                                              %.w.w.6.W >.y.t.%.w ] 5.5.q.w.%.            ",
"                                              %.w.6.` :.w.w.%.      w w w w               ",
"                                              ] q.6.6.w.w.%.          w w                 ",
"                                              ] 5.,.6.w.q.]       w >.y.t.%.w             ",
"                                            %.q.,.,.5.5.]     w >.y.t.w.w.w.w.%.w         ",
"                                            %.q.q.w.q.5.,.W %.w.w.w.q.] w ] q.w.w.%.      ",
"                                          >.0.0.t.w.q.,.6.q.5.5.5.] w       w ] q.w.%.    ",
"                                        >.t.t.y.t.6.6.w.w.w.q.,.W               w w       ",
"                            t t       %.w.w.t.t.w.w.t.t.w.6.6.q.,.W w w : o o             ",
"                            @ # + : %.w.6.6.w.6.6.t.t.w.6.6.q.5.5.q.w.w.%.: o o o         ",
"                          = - + o o [ 6.<.<.&.<.<.6.w.w.w.w.q.5.5.5.5.q.w.%.      o       ",
"                    . X + + o 3 :.[ o ) 9.@.; K <.6.w.w.q.5.5.5.#.C l w ] q.%.            ",
"                    t u +     e :.:.3 o X . K <.&.6.q.5.5.,.W w w w     w ] 5.]           ",
"                  = - +       e :.:.*.) y t c ,.,.,.,.,.,.W       w         ] ]           ",
"                = - +       +.1.:.:.v @.) o b ,.,.,.,.&.W : o     w         ] ]           ",
"            . % f t       Y 7.*.#.#.*.@.| P o b &.&.&.W     + +                           ",
"            t u O .       Y 3.7.*.1.e.@.v 3 + + : W W         o                           ",
"          = - +           L -.3.} *.7.3.} :.[ o     w         o                           ",
"        = - $ +         ;.4.T -.} } -.X./ :.[ o     w                                     ",
"          + +           +.e.@.T / / X.L e :.[ o     w                                     ",
"            + +         ..e.e.@.v v p     ] G o     w                                     ",
"              t y     Y | 4.r.7.} } Y     * O +     w       .                             ",
"              . X o 1 @.@.| 8.e.*.} | N , t i @     w       t y                           ",
"                    1 @.7.| 2.e.*.} Y     * O +     w     + + o o                         ",
"                    +.e.7.| @.e.8.3.Y     w : o       : + +       o     .                 ",
"                    =.e.7.| | 8.e.7.Y     w : + +     + +           o y t                 ",
"                    o.9.@.1 1 @.e.8.Y     w : + - = y t               o                   ",
"                  k *.7.Y     Y 8.8.Y     w     + - % .               o                   ",
"                  k } 3.Y     Y 7.7.Y     w     + + :               o                     ",
"                  k } | ~ E     ..7.Y     w                       o                       ",
"                ' #./ T ~ E     ..7.| 1                                                   ",
"                ' #./ T ~ E     ..7.| 1 o :                                               ",
"                ' #./ T I Z     ..7.| 1 o : :                                             ",
"                ' 5.#.Q { Z     ..7.Y     : : o                                           ",
"                ' 5.#.Q { $.E d @.7.Y       : + +                                         ",
"              ' 5.5.#.A ! $.` v | 3.Y           = % t t .                                 ",
"      x     z ' #.#.#.A ! { Q v | -.L         j u - s                                     ",
"    ^ O.U x z ' #.#.#.A ! { Q v | -.L         M 4 - =                                     ",
"            6 E ` #.#.A R ! { I | -.L < g n n     + +                                     ",
"          m z E ` #.#.A R ! I | -.L 9 x x m     2 + + 2 ^                                 ",
"        m g 5 H ` C } | V R V T X.T a 5 8 x m x > + $ + & 8 0 U                           ",
"        0     8 r k ( 3.| h T X. .B 8 x g 5 g ^ ^ 2 o 2 ^ U U                             ",
"    0 U     m m z 7 F -.| T X. .B 8 0 0 x m g       x x     U                             ",
"x U ^         m z 6 S X.S B _ B 8 x m m       D                                           ",
"    ^           z q 8 5 g g 5 5 8 x m                                                     ",
"                z 6 g m m m m m g g                                                       ",
"      ^         q z m           m g                                                       ",
"              U J                   g 5                                                   ",
"                                      U U x m m                                           ",
"              ^                             O.                                            ",
"                ^                   U                                                     ",
"                                m ^                                                       ",
"                                                                                          ",
"                                                                                          ",
"                                                                                          ",
"                                                                                          ",
"                                                                                          ",
"                                                                                          ",
"                                                                                          ",
"                                                                                          "
};
