/* XPM */
static char *out[] = {
/* columns rows colors chars-per-pixel */
"31 31 153 2 ",
"   c None",
".  c #563215",
"X  c #553415",
"o  c #553515",
"O  c #563515",
"+  c #553615",
"@  c #563715",
"#  c #553E16",
"$  c #5A3815",
"%  c #593816",
"&  c #593B17",
"*  c #5B3C18",
"=  c #5C3E18",
"-  c #574016",
";  c #584017",
":  c #5C4117",
">  c #5E4217",
",  c #5A4416",
"<  c #544915",
"1  c #514C14",
"2  c #5D4817",
"3  c #5D4917",
"4  c #584F16",
"5  c #5D4018",
"6  c #545315",
"7  c #505414",
"8  c #525414",
"9  c #535414",
"0  c #535514",
"q  c #545414",
"w  c #555514",
"e  c #545715",
"r  c #575714",
"t  c #575615",
"y  c #575715",
"u  c #585316",
"i  c #585714",
"p  c #585516",
"a  c #5A5617",
"s  c #5F5617",
"d  c #545815",
"f  c #565A16",
"g  c #575A16",
"h  c #585916",
"j  c #585B16",
"k  c #5F5B16",
"l  c #595C16",
"z  c #585C17",
"x  c #595C17",
"c  c #5B5E17",
"v  c #614917",
"b  c #604218",
"n  c #604519",
"m  c #634819",
"M  c #634919",
"N  c #604A19",
"B  c #634A18",
"V  c #644A19",
"C  c #654A19",
"Z  c #644D19",
"A  c #645B17",
"S  c #635C17",
"D  c #635019",
"F  c #645219",
"G  c #67521A",
"H  c #635419",
"J  c #605719",
"K  c #68511C",
"L  c #6A531C",
"P  c #69541C",
"I  c #6C571D",
"U  c #655919",
"Y  c #615E18",
"T  c #655D18",
"R  c #655E18",
"E  c #6D5B1E",
"W  c #6E5A1F",
"Q  c #6E5B1F",
"!  c #695C1C",
"~  c #6F5D1F",
"^  c #5F6018",
"/  c #5F6218",
"(  c #606318",
")  c #616319",
"_  c #676019",
"`  c #626419",
"'  c #62641A",
"]  c #666418",
"[  c #666518",
"{  c #676719",
"}  c #6A661B",
"|  c #6F611F",
" . c #666819",
".. c #66681B",
"X. c #67691B",
"o. c #686B1A",
"O. c #696C1A",
"+. c #696C1B",
"@. c #6A6D1B",
"#. c #6B6D1B",
"$. c #696B1C",
"%. c #6D6C1C",
"&. c #6D6D1D",
"*. c #6E6C1D",
"=. c #6C6E1C",
"-. c #6D6F1C",
";. c #6F6F1E",
":. c #746E1C",
">. c #6F701C",
",. c #6F701E",
"<. c #71721D",
"1. c #70711E",
"2. c #70711F",
"3. c #71721E",
"4. c #71721F",
"5. c #72731E",
"6. c #75751F",
"7. c #75761F",
"8. c #7B721E",
"9. c #7F731E",
"0. c #737221",
"q. c #757521",
"w. c #767622",
"e. c #7C7521",
"r. c #7F7520",
"t. c #7E7727",
"y. c #797921",
"u. c #7A7A22",
"i. c #7B7A23",
"p. c #7C7925",
"a. c #7C7B24",
"s. c #7D7C24",
"d. c #7D7C25",
"f. c #7D7C26",
"g. c #7D7D27",
"h. c #7E7D26",
"j. c #7F7D26",
"k. c #7E7828",
"l. c #7F7829",
"z. c #7F7E28",
"x. c #807F27",
"c. c #828029",
"v. c #838029",
"b. c #82802A",
"n. c #83812A",
"m. c #83812B",
"M. c #84812A",
"N. c #84812B",
"B. c #85812B",
"V. c #84822B",
"C. c #85832C",
"Z. c #86832C",
"A. c #86832D",
/* pixels */
"                                                              ",
"                                                              ",
"                                                              ",
"                                                              ",
"                                                              ",
"                                                              ",
"                                                              ",
"                                                              ",
"                                                              ",
"                                                              ",
"                            C C                               ",
"                          K t.t.~                             ",
"                          K V.V.s.G V                         ",
"                          I n.c.i.@.o.m                       ",
"                      E Q V.x.y.<.-.o.F                       ",
"                    M t.V.V.x.6.7.y.w.0.U U D                 ",
"                B B | p.j.V.f.#.5.h.n.b.q.o.H                 ",
"              P l.k.p.a.a.a.u.7.>.z.V.V.f.o.R v n             ",
"              L A.Z.Z.d.#.M.V.N.a.=.+.+.O.] A r 0 b           ",
"                W m.m.r.9.v.B.C.a.@.1.;.T S i 9 q >           ",
"                ! 3.3.:.8.8.e.g.2.o.%.*.4...6 , 5             ",
"              Z 1.4.$.c 4.4.&.{ o.[ A } 4.4.J ;               ",
"              N ) ' c x 4.,._ k l y t 4.4.X.d -               ",
"                3 2 a /  .` w 8 e f f j j d 7 #               ",
"                    : Y ( ( c < 4 z x g 1 @ +                 ",
"                      = ^ ^ s & % u h p o                     ",
"                        * & $     O X .                       ",
"                                                              ",
"                                                              ",
"                                                              ",
"                                                              "
};
