/* XPM */
static char *out[] = {
/* columns rows colors chars-per-pixel */
"31 31 36 1 ",
"  c None",
". c #5B4215",
"X c #5D4617",
"o c #5E4A17",
"O c #604D18",
"+ c #614C1B",
"@ c #634F1B",
"# c #644F1C",
"$ c #615019",
"% c #625119",
"& c #64561A",
"* c #66551C",
"= c #68571F",
"- c #655819",
"; c #65581B",
": c #67581D",
"> c #695E1B",
", c #695F1B",
"< c #69581E",
"1 c #695B1F",
"2 c #6A5E1D",
"3 c #6B5F1E",
"4 c #69611A",
"5 c #69601B",
"6 c #6B601D",
"7 c #6B621C",
"8 c #6C651C",
"9 c #6D671C",
"0 c #726F1D",
"q c #6B5C20",
"w c #706323",
"e c #756E24",
"r c #776E26",
"t c #777524",
"y c #787B21",
"u c #7E7A2A",
/* pixels */
"                               ",
"                               ",
"                               ",
"                               ",
"                               ",
"                               ",
"                               ",
"                               ",
"                               ",
"                               ",
"                               ",
"                               ",
"          X$                   ",
"          o6:                  ",
"           +w<                 ",
"            =r.  ;%            ",
"            *t& 13O            ",
"            -y>@uq             ",
"            5y72e#             ",
"              48,              ",
"               09              ",
"                               ",
"                               ",
"                               ",
"                               ",
"                               ",
"                               ",
"                               ",
"                               ",
"                               ",
"                               "
};
