/* XPM */
static char *out[] = {
/* columns rows colors chars-per-pixel */
"31 31 188 2 ",
"   c None",
".  c #4E2813",
"X  c #4F2913",
"o  c #512C15",
"O  c #532D17",
"+  c #542F19",
"@  c #573018",
"#  c #55311B",
"$  c #58331C",
"%  c #58341C",
"&  c #59341C",
"*  c #59341D",
"=  c #5A351C",
"-  c #5F3B20",
";  c #5D3A22",
":  c #5C3A24",
">  c #5D3C27",
",  c #5F3F29",
"<  c #613F24",
"1  c #613F25",
"2  c #5D4029",
"3  c #634126",
"4  c #624127",
"5  c #634127",
"6  c #644127",
"7  c #644227",
"8  c #634228",
"9  c #644228",
"0  c #61412C",
"q  c #61422C",
"w  c #63432C",
"e  c #62422D",
"r  c #63452F",
"t  c #63462F",
"y  c #66452C",
"u  c #67462C",
"i  c #68482D",
"p  c #694A2F",
"a  c #624731",
"s  c #644630",
"d  c #664731",
"f  c #664831",
"g  c #644832",
"h  c #664B34",
"j  c #674C36",
"k  c #684930",
"l  c #6B4B31",
"z  c #684933",
"x  c #6D4B32",
"c  c #6A4C32",
"v  c #6D4D32",
"b  c #6B4E34",
"n  c #684D37",
"m  c #6D4E34",
"M  c #694E38",
"N  c #6A4F38",
"B  c #6F5034",
"V  c #6F5035",
"C  c #6F5036",
"Z  c #6F5136",
"A  c #6F5236",
"S  c #6B5039",
"D  c #6C5138",
"F  c #6C513A",
"G  c #6D523A",
"H  c #705134",
"J  c #705237",
"K  c #705338",
"L  c #705239",
"P  c #715239",
"I  c #70523B",
"U  c #72553B",
"Y  c #74573B",
"T  c #72553C",
"R  c #76583C",
"E  c #775A3C",
"W  c #74583F",
"Q  c #76593E",
"!  c #775A3E",
"~  c #785A3E",
"^  c #785C3F",
"/  c #6F5740",
"(  c #725B43",
")  c #755941",
"_  c #745C45",
"`  c #765E46",
"'  c #785D40",
"]  c #7A5E40",
"[  c #7B5F41",
"{  c #785C42",
"}  c #7B5F43",
"|  c #7B6043",
" . c #7B6044",
".. c #7C6144",
"X. c #7E6244",
"o. c #7E6345",
"O. c #7F6345",
"+. c #7F6446",
"@. c #7E6447",
"#. c #776048",
"$. c #766049",
"%. c #786048",
"&. c #796149",
"*. c #78624A",
"=. c #7A624A",
"-. c #7A634A",
";. c #7A634B",
":. c #7C624B",
">. c #7B644B",
",. c #7F6448",
"<. c #7F6548",
"1. c #7A644C",
"2. c #7B644D",
"3. c #7B654D",
"4. c #7C644C",
"5. c #7C654E",
"6. c #7C664E",
"7. c #7C664F",
"8. c #7D674F",
"9. c #7E6650",
"0. c #806446",
"q. c #806549",
"w. c #816748",
"e. c #816749",
"r. c #80674A",
"t. c #81674A",
"y. c #81684B",
"u. c #82684A",
"i. c #83684A",
"p. c #82694A",
"a. c #82684B",
"s. c #83694B",
"d. c #84694A",
"f. c #83694C",
"g. c #836B4F",
"h. c #846A4C",
"j. c #856B4C",
"k. c #856B4D",
"l. c #866B4C",
"z. c #856C4D",
"x. c #866C4D",
"c. c #856C4E",
"v. c #856D4E",
"b. c #866C4E",
"n. c #866D4E",
"m. c #876D4E",
"M. c #866D4F",
"N. c #866E4F",
"B. c #856D51",
"V. c #866C50",
"C. c #866D50",
"Z. c #866D51",
"A. c #876E50",
"S. c #866E51",
"D. c #856E53",
"F. c #866E52",
"G. c #886F50",
"H. c #877154",
"J. c #887051",
"K. c #897051",
"L. c #887052",
"P. c #887152",
"I. c #897152",
"U. c #887153",
"Y. c #897253",
"T. c #8A7253",
"R. c #887156",
"E. c #8B7456",
"W. c #8D7659",
"Q. c #8D775D",
"!. c #8F795B",
"~. c #917B5E",
"^. c #937E5F",
"/. c #917A60",
"(. c #978163",
"). c #978263",
"_. c #988264",
"`. c #9A8565",
"'. c #9A8566",
"]. c #9C8668",
"[. c #9C8768",
"{. c #9D896A",
"}. c #9C886B",
"|. c #9C886C",
" X c #9C886D",
".X c #9E8A6D",
"XX c #9E8A6E",
"oX c #9E8B6E",
/* pixels */
"                                                              ",
"                                                              ",
"                                                              ",
"                          x C P                               ",
"                        y Q./.R.%                             ",
"                        y 9.:.I =                             ",
"          U D.F.C.N.M.u.<.) W L Q ..f.s.a.V.Z                 ",
"          {  X|.|.}.].`.'.(.)._.[.{..XoXoXXXZ.c               ",
"          K L.J.x.b.m.m.m.m.m.m.m.G.I.I.T.Y.^.H.b             ",
"          J L.z.i.~ ! l.d.X.m.~ E o.] R ..Y.I.~.g.k           ",
"          J N.k.h.q.r.x.Y } 0.u t.k.p.,.t.n.b.L.W.T           ",
"          V b.j.w.A Z j.m B O.W.H [ m.v x.k.j.J.|             ",
"          V v.z.c.y.F.m. .B.e.' S.+.b.^ z.A.L.@.-             ",
"          V J.L.M.L.A.x.U.I.K.E.A.L.x.!.A.P.| <               ",
"          1 4 8 9 6 3 6 6 6 7 7 6 6 5 i l p                   ",
"                        ; G D t @                             ",
"                        w 7.4.F &                             ",
"                        f 8.>.S %                             ",
"                        z 7.;.S $                             ",
"                        d 6.-.N *                             ",
"                        s 5.=.M %                             ",
"                        r 3.&.M %                             ",
"                        e 2.%.n #                             ",
"                        0 2.%.j +                             ",
"                        q 1.#.h O                             ",
"                        , *.` g o                             ",
"                        > $.( a X                             ",
"                        : _ / 2 .                             ",
"                          X X X                               ",
"                                                              ",
"                                                              "
};
