/* XPM */
static char *out[] = {
/* columns rows colors chars-per-pixel */
"29 43 48 1 ",
"  c None",
". c #4F2913",
"X c #522B14",
"o c #522F1A",
"O c #56311B",
"+ c #59351D",
"@ c #563621",
"# c #593722",
"$ c #573824",
"% c #5A3A24",
"& c #5C3D2A",
"* c #5E402B",
"= c #62432E",
"- c #634632",
"; c #654934",
": c #674C38",
"> c #684D3A",
", c #5F4F43",
"< c #5F5043",
"1 c #5F554B",
"2 c #615347",
"3 c #6D5543",
"4 c #60564C",
"5 c #645B51",
"6 c #676158",
"7 c #6C655B",
"8 c #6E695E",
"9 c #736454",
"0 c #736857",
"q c #71695E",
"w c #6F6960",
"e c #736C62",
"r c #777267",
"t c #777368",
"y c #7A756B",
"u c #7E796F",
"i c #7F7B70",
"p c #817C71",
"a c #848176",
"s c #868479",
"d c #89867B",
"f c #8C897D",
"g c #8E8B80",
"h c #918E84",
"j c #949186",
"k c #96938B",
"l c #9A968E",
"z c #9D9A92",
/* pixels */
"                             ",
"           ;;;-;;            ",
"          =hffffh;           ",
"          =hhfffh;           ",
"          -llllll-           ",
"          +prrprpX           ",
"          OppqrqpX           ",
"          OppqeeyX           ",
"  ;>>>>;;;+iqeeqp%=-----;-   ",
" 3gggdfffdsueeeey90sssssss-  ",
" 3gfggdffsspqeeey9ssssssps-  ",
" &zzzzzzlhhueeqwphhjkkklll-  ",
" #r778weqqee7eww888776776yX  ",
" +e77778qq7ee7qw888777576y.  ",
" Oe6777w8qqq78887q7766666yX  ",
"  XXXXXXXXXt7877qXXXXXXX.X   ",
"          Xt8768eX           ",
"          Xt6886wX           ",
"          Xr7776eX           ",
"          Xe7556eX           ",
"          Xe65557X           ",
"          Xe5555w.           ",
"          .e55157.           ",
"          .w55557X           ",
"      @@+@.855557.Oo..       ",
"     &y778@811557.<<<8.      ",
"     &iu88.811118.<188.      ",
"     &yuuu.811158.0807.      ",
"     *iiuuX841117.88q8.      ",
"     &uipuX8<<<<6.888q.      ",
"     &ipupu*+@+@%qqq8q.      ",
"     =ipualaaaasskqqqe.      ",
"     =pppljffddsaahwwwo      ",
"     =pplffffddddagge7o      ",
"     =pkfffffffddgddg8X      ",
"     -zzzkkkkjkhhjhgkk.      ",
"     Xpqeee7977767wwwr.      ",
"     Xpeee8777776w6w7e.      ",
"     Oye8887777766666rX      ",
"     Xye787777766w665w.      ",
"     XXOXXOXOXXXXXXXX.X      ",
"                             ",
"                             "
};
