/* XPM */
static char *out[] = {
/* columns rows colors chars-per-pixel */
"16 19 65 1 ",
"  c None",
". c #522D17",
"X c #542E17",
"o c #522E18",
"O c #532F19",
"+ c #56321C",
"@ c #56331D",
"# c #57331D",
"$ c #593721",
"% c #593823",
"& c #5B3924",
"* c #5C3C28",
"= c #5E3E29",
"- c #5E3F2A",
"; c #5F402A",
": c #60432D",
"> c #60422E",
", c #624530",
"< c #634630",
"1 c #634731",
"2 c #644631",
"3 c #634832",
"4 c #664834",
"5 c #664934",
"6 c #664B35",
"7 c #664A36",
"8 c #696051",
"9 c #6A6152",
"0 c #6B6252",
"q c #6A6253",
"w c #6B6253",
"e c #6B6354",
"r c #6C6454",
"t c #6C6455",
"y c #756E60",
"u c #756F60",
"i c #756F61",
"p c #767061",
"a c #777061",
"s c #797163",
"d c #787263",
"f c #7A7464",
"g c #7B7465",
"h c #7B7566",
"j c #7C7667",
"k c #858072",
"l c #868172",
"z c #878173",
"x c #878272",
"c c #878273",
"v c #888373",
"b c #888374",
"n c #898374",
"m c #8B8575",
"M c #8B8675",
"N c #8A8576",
"B c #8B8676",
"V c #8C8676",
"C c #918D80",
"Z c #938F84",
"A c #939085",
"S c #959085",
"D c #9A9891",
"F c #9B9891",
"G c #9B9991",
/* pixels */
"                ",
"                ",
"                ",
"                ",
"                ",
"        574     ",
"      36czl2    ",
"    <1nMmvcl>   ",
"   ,xbBVVMbxk;  ",
"   :wCNVVBAZi-  ",
"   =90FGGSdpy*  ",
"   &89rtDgsau%  ",
"    $8eejfd+@   ",
"     #qqhXo     ",
"      Oo.       ",
"                ",
"                ",
"                ",
"                "
};
