/* XPM */
static char *out[] = {
/* columns rows colors chars-per-pixel */
"19 18 92 1 ",
"  c None",
". c #502913",
"X c #502A14",
"o c #512B15",
"O c #522C16",
"+ c #532D17",
"@ c #542F18",
"# c #552F19",
"$ c #58351E",
"% c #5B3923",
"& c #5F3F28",
"* c #5E3E2A",
"= c #60422E",
"- c #624430",
"; c #624531",
": c #644633",
"> c #644733",
", c #644833",
"< c #644935",
"1 c #664A35",
"2 c #654936",
"3 c #664B37",
"4 c #664B38",
"5 c #674B38",
"6 c #674C38",
"7 c #674C39",
"8 c #684D39",
"9 c #694E3B",
"0 c #684F3B",
"q c #684F3C",
"w c #694F3C",
"e c #615849",
"r c #635A4B",
"t c #645A4C",
"y c #645C4D",
"u c #645C4E",
"i c #655D4E",
"p c #655D4F",
"a c #665D4F",
"s c #665E4F",
"d c #6A6153",
"f c #6A6253",
"g c #6A6254",
"h c #6B6254",
"j c #726A5B",
"k c #726B5C",
"l c #736B5C",
"z c #736B5D",
"x c #736C5D",
"c c #746D5E",
"v c #746E5F",
"b c #756E5F",
"n c #766E5F",
"m c #746E60",
"M c #756F60",
"N c #756F61",
"B c #766F61",
"V c #787060",
"C c #787061",
"Z c #7B7567",
"A c #7C7466",
"S c #7C7768",
"D c #7C7669",
"F c #7C7769",
"G c #7D7769",
"H c #7D7869",
"J c #847F71",
"K c #848072",
"L c #868172",
"P c #868173",
"I c #878274",
"U c #888376",
"Y c #898476",
"T c #898576",
"R c #898477",
"E c #8A8477",
"W c #8A8577",
"Q c #8A8578",
"! c #8B8578",
"~ c #8B8678",
"^ c #8E8A7E",
"/ c #8F8A7E",
"( c #8F8B7E",
") c #8F8B80",
"_ c #908C80",
"` c #908C81",
"' c #908D83",
"] c #918D83",
"[ c #918E84",
"{ c #949188",
"} c #97958D",
"| c #98958E",
/* pixels */
"                   ",
"                   ",
"          89wq     ",
"       678JJJJ0    ",
"      5JJJKJJJJ6   ",
"     3^RELLLLJF4   ",
"    1C^WWWQPLLFF2  ",
"   1CC/YR!~!I(FFS, ",
"  <VC'UYEW~~{HHFS: ",
"  >VC]TT!!~|HHGSB; ",
"  -dg[)_``}nbHSMN= ",
"   &gghs}}Gcccvm*  ",
"    $fipatDllzx%   ",
"     +iiiirZjk$    ",
"      .XuyeA@#     ",
"        XooO       ",
"                   ",
"                   "
};
