/* XPM */
static char *out[] = {
/* columns rows colors chars-per-pixel */
"29 26 144 2 ",
"   c None",
".  c #4D2813",
"X  c #4E2812",
"o  c #4E2813",
"O  c #4E2913",
"+  c #4F2913",
"@  c #4F2A14",
"#  c #4F2A15",
"$  c #502A15",
"%  c #522D17",
"&  c #512D18",
"*  c #533019",
"=  c #55321D",
"-  c #55331D",
";  c #55341F",
":  c #563621",
">  c #573721",
",  c #583622",
"<  c #573925",
"1  c #593824",
"2  c #583925",
"3  c #5A3B27",
"4  c #5B3C28",
"5  c #5A3D29",
"6  c #5C3F2B",
"7  c #5E402D",
"8  c #5E422D",
"9  c #5F432F",
"0  c #5F4330",
"q  c #5F513F",
"w  c #60432F",
"e  c #604331",
"r  c #604430",
"t  c #624631",
"y  c #614432",
"u  c #614632",
"i  c #614633",
"p  c #624632",
"a  c #624733",
"s  c #624734",
"d  c #634735",
"f  c #634834",
"g  c #634935",
"h  c #644936",
"j  c #654A37",
"k  c #654C39",
"l  c #664D3A",
"z  c #674E3B",
"x  c #674F3B",
"c  c #674F3C",
"v  c #5F5040",
"b  c #5F5140",
"n  c #5F5240",
"m  c #605341",
"M  c #605243",
"N  c #615444",
"B  c #615544",
"V  c #625547",
"C  c #63584A",
"Z  c #645A4C",
"A  c #645A4D",
"S  c #655B4E",
"D  c #655A4F",
"F  c #655B4F",
"G  c #665B4E",
"H  c #665C4F",
"J  c #665B50",
"K  c #675C50",
"L  c #696153",
"P  c #6A6253",
"I  c #696154",
"U  c #6A6254",
"Y  c #6B6254",
"T  c #6B6354",
"R  c #6C6455",
"E  c #6E6657",
"W  c #6E6658",
"Q  c #6F6658",
"!  c #6F6758",
"~  c #6E6659",
"^  c #6F675A",
"/  c #70685A",
"(  c #70685B",
")  c #726B5D",
"_  c #726B5E",
"`  c #746D5F",
"'  c #746E5F",
"]  c #746E60",
"[  c #756F60",
"{  c #756F61",
"}  c #766F61",
"|  c #756F62",
" . c #766F62",
".. c #767062",
"X. c #777062",
"o. c #777162",
"O. c #777063",
"+. c #777164",
"@. c #777265",
"#. c #757066",
"$. c #767166",
"%. c #777166",
"&. c #777167",
"*. c #787163",
"=. c #787164",
"-. c #787165",
";. c #787265",
":. c #787365",
">. c #787266",
",. c #7B7567",
"<. c #7B7668",
"1. c #7C7668",
"2. c #837E70",
"3. c #847F70",
"4. c #847F71",
"5. c #847F72",
"6. c #858071",
"7. c #858073",
"8. c #868173",
"9. c #878273",
"0. c #868174",
"q. c #878275",
"w. c #888374",
"e. c #888275",
"r. c #888375",
"t. c #898375",
"y. c #888376",
"u. c #898376",
"i. c #898475",
"p. c #888476",
"a. c #898476",
"s. c #888477",
"d. c #898577",
"f. c #8E8A7E",
"g. c #8F8A7E",
"h. c #8F8B7E",
"j. c #929087",
"k. c #929088",
"l. c #939088",
"z. c #939188",
"x. c #939189",
"c. c #949289",
"v. c #94928A",
"b. c #95928A",
/* pixels */
"                                                          ",
"                                                          ",
"                                                          ",
"                      y p s g j                           ",
"                    a #.2.2.2.2.c z                       ",
"                u f $.3.3.3.3.2.2.2.x l                   ",
"              u @.%.$.4.4.4.4.3.3.2.2.2.k h               ",
"            t -.;.>.&.4.4.4.4.4.4.3.2.q.q.q.d             ",
"          r *.+.-.8.8.8.q.4.4.4.4.6.i.r.r.q.Q i i         ",
"        0 } o.=.f.8.8.q.q.q.4.4.4.y.i.r.r.q.q.Q Q r       ",
"      w X. .X.f.f.8.8.e.e.e.e.4.4.a.a.r.r.r.r.r.Q 0       ",
"      e  . .X.f.f.8.9.r.a.a.e.a.a.a.i.t.r.r.r.r.Q 7       ",
"      9  .X.O.5.7.f.g.i.a.a.e.a.a.i.i.r.r.r.z.H H K 4     ",
"      8  .X.4.4.5.0.e.h.h.a.u.a.i.i.s.s.r.z.G F J J 3     ",
"      6  .3./ ( ^ ^ ! T T b.v.y.i.d.s.s.w.k.Z D J F 1     ",
"        5 ^ / ( ^ ^ Q T T R Y c.c.x.s.p.k.V C A S ,       ",
"          < 2 ( ^ ^ W W Y U I L X.{ z.l.M B V C =         ",
"              > : ^ ~ W W U P 1...{ [ j.b m N &           ",
"                  ; - E W E 1.<.| { ] v q n #             ",
"                      * % :.<.<.{ ] ' ' q .               ",
"                          $ @ <.,._ ) ` X                 ",
"                              + O o X X                   ",
"                                                          ",
"                                                          ",
"                                                          ",
"                                                          "
};
