/* XPM */
static char *out[] = {
/* columns rows colors chars-per-pixel */
"58 44 48 1 ",
"  c None",
". c #4F2A13",
"X c #512F19",
"o c #4F311A",
"O c #54321C",
"+ c #553720",
"@ c #553923",
"# c #5A3C25",
"$ c #5C422C",
"% c #5F4632",
"& c #5D4935",
"* c #534A3D",
"= c #5F4C38",
"- c #604732",
"; c #604E3A",
": c #5F5648",
"> c #615749",
", c #635A4B",
"< c #685E4E",
"1 c #665E50",
"2 c #695F50",
"3 c #676051",
"4 c #6B6354",
"5 c #6E6857",
"6 c #6E6758",
"7 c #6F6958",
"8 c #746E5E",
"9 c #75705F",
"0 c #766F60",
"q c #767060",
"w c #7B7464",
"e c #7C7866",
"r c #7D7668",
"t c #817C6E",
"y c #837E70",
"u c #84806F",
"i c #868271",
"p c #898576",
"a c #8D8877",
"s c #8B8778",
"d c #8D8979",
"f c #928D7D",
"g c #8F8C80",
"h c #918E82",
"j c #959184",
"k c #96948A",
"l c #9A968E",
"z c #9B988F",
/* pixels */
"                                                          ",
"                          -----%-;                        ",
"               -----------ttryttrr-                       ",
"              -999yttyyyyyytyryryry%                      ",
"             $8999yyyyyyysprrrrpyt22-                     ",
"            $8898ttyyyyyyrryyyrr2444-                     ",
"           $9999yyydfdtyyrryyr1,>4444-                    ",
"          $88988yyddaddpygyyrr:,>>646-                    ",
"          $98880yyssddgdpypryy,,->2264-                   ",
"          $888q90jdsddddggpryrrrttt264-----               ",
"         #998q8q00jjjjddpssdssrrt8t8t0t0www-              ",
"        $tt9q8qqq24444hdsssdsssrt8ttwt0twrwt-             ",
"       $ttutt9qq6161444gddsddddddtttwttwrrwrt#$#--        ",
"      $tttttttd426624w0wjjddddddddt9wwwrrwrwttttrr-       ",
"      $tututufhassgps0qwwwjdddddddysyswrwiiiyiyyrwr%      ",
"     $tttttudfaassspsswqqwwjjdddddasysppppiiaaaapsww%     ",
"    $tutirigggsspssssssdwwwwwddfffiiaaiaipaadaaasssww%    ",
"   $qqq966ggggssssssssdssppppsddffffaiiapaaaaddasss111$   ",
"   $qw5566gggdssssssssssspppffhfffffffaafaaadaaasss111$   ",
"   $q55566ggsdsssssssssgpppgfffffffffffaafafdaddsf1111$   ",
"   $q557778hssssssssdpppppffffffffffffffffaafadaf,<<33<$  ",
"   %&&677888gssssssdppygpiffffffffffffffffffafad<,>:,,1,# ",
"  %ppp&787778gpgssssppypppjfffffffffffffffffddl<,,>>:***# ",
" $ppppp=787880ggghhhhpppppjffhfffffffffffafazl<,,>>>:***@ ",
"#psipisp=70870:1::,:>jjpppjjffffffffffzzzzff<,<<,,,>>***@ ",
"@8jpppsip=070::,13:,>>4kkkjjjffffffzfz889999<<<<,,>>&***O ",
"@8qjpppipp%0,,:,:::,,44554kkjffjfllfz998999<<<<<<<,,***.  ",
"#q8qhhppppy*,,,::1::44344588lljjflfft898899##+O$O<,,**o   ",
"@qq646kgggggo*:::3334445448999uuiii4<5<989#t9e433#,,*o    ",
"@q4444666:::o:,:433433434489999iii4<<<<59#t9e99533#>o     ",
" @546646,:::X:*,1133334449888998i<<45<<<Ot9t9ee934:O      ",
"  ooo46::,,:o*:33333333459888889i<<<4<#+t9t9ee9ww3*O      ",
"     O5,::,O O133133343665698888<<<14#yuuutt89t9w:*o      ",
"      OOO+O   X+33334366856588081<<2#uiyyiuutttu:**.      ",
"                OO14346666776888<<<#huyyuuuuuua;***o      ",
"                  OOOO666555545<<<#hfyytuuiuua,<::**X     ",
"                      OOOO55446<<<#88ghhhdddj,,,,1**X     ",
"                          OOOO62,1+88088qhdj,,,,:,:*X     ",
"                              OOX+#88888q6j,,,,>>>OX      ",
"                                  #8888875;,>,>,..        ",
"                                  .8889676,>>,..          ",
"                                   .888567>>..            ",
"                                    ........              ",
"                                                          "
};
