/* XPM */
static char *out[] = {
/* columns rows colors chars-per-pixel */
"28 23 198 2 ",
"   c None",
".  c #4F2913",
"X  c #4E2A14",
"o  c #4E2A15",
"O  c #4F2B15",
"+  c #502A13",
"@  c #502A15",
"#  c #512B15",
"$  c #512D17",
"%  c #502D18",
"&  c #512E19",
"*  c #522F1A",
"=  c #53301A",
"-  c #53311D",
";  c #54321D",
":  c #54321E",
">  c #55331F",
",  c #54341F",
"<  c #56341F",
"1  c #553420",
"2  c #553520",
"3  c #553620",
"4  c #573621",
"5  c #553622",
"6  c #573622",
"7  c #563722",
"8  c #583723",
"9  c #593824",
"0  c #583A25",
"q  c #593A25",
"w  c #5A3A27",
"e  c #5A3B27",
"r  c #5B3C27",
"t  c #5B3C28",
"y  c #5B3F2A",
"u  c #5C3E2B",
"i  c #5C402B",
"p  c #5D402C",
"a  c #5D402D",
"s  c #5E402D",
"d  c #5D412E",
"f  c #5E412E",
"g  c #5F432E",
"h  c #5F4330",
"j  c #5F4431",
"k  c #554939",
"l  c #60442F",
"z  c #5C5245",
"x  c #5D5345",
"c  c #5D5346",
"v  c #5E5346",
"b  c #5E5446",
"n  c #5E5447",
"m  c #5F5547",
"M  c #655C51",
"N  c #665C51",
"B  c #665D51",
"V  c #665D52",
"C  c #675E53",
"Z  c #685E53",
"A  c #685F53",
"S  c #685F54",
"D  c #696053",
"F  c #6A6053",
"G  c #696054",
"H  c #6A6054",
"J  c #6A6155",
"K  c #6B6155",
"L  c #6B6254",
"P  c #6B6255",
"I  c #6B6256",
"U  c #6B6257",
"Y  c #6C6255",
"T  c #6C6357",
"R  c #6D6357",
"E  c #6D6457",
"W  c #6E6457",
"Q  c #6C6358",
"!  c #6C6458",
"~  c #6D6458",
"^  c #6D6558",
"/  c #6D6559",
"(  c #6E6558",
")  c #6F6558",
"_  c #6F6659",
"`  c #736C5B",
"'  c #736C5C",
"]  c #746C5C",
"[  c #746D5C",
"{  c #746D5D",
"}  c #756D5D",
"|  c #756E5D",
" . c #766E5D",
".. c #777163",
"X. c #777164",
"o. c #787264",
"O. c #797364",
"+. c #7A7366",
"@. c #7B7366",
"#. c #7B7367",
"$. c #7B7466",
"%. c #7B7467",
"&. c #7C7467",
"*. c #7D7467",
"=. c #7C7567",
"-. c #7D7567",
";. c #7E7767",
":. c #7B7668",
">. c #7C7468",
",. c #7C7568",
"<. c #7D7568",
"1. c #7C7668",
"2. c #7D7668",
"3. c #7C7768",
"4. c #7D7669",
"5. c #7C7769",
"6. c #7E7768",
"7. c #7E7769",
"8. c #7F7769",
"9. c #7E776A",
"0. c #7F776A",
"q. c #7D7869",
"w. c #7F7868",
"e. c #7F7869",
"r. c #7E786A",
"t. c #7F786A",
"y. c #7F786B",
"u. c #7E796B",
"i. c #80796B",
"p. c #817A6B",
"a. c #817A6C",
"s. c #827B6C",
"d. c #827B6D",
"f. c #837B6D",
"g. c #827B6E",
"h. c #817C6C",
"j. c #827D6C",
"k. c #827C6D",
"l. c #837C6D",
"z. c #827D6D",
"x. c #837D6D",
"c. c #837E6D",
"v. c #837C6F",
"b. c #837E6E",
"n. c #847E6E",
"m. c #847F6E",
"M. c #857F6E",
"N. c #857F6F",
"B. c #847E70",
"V. c #85806F",
"C. c #86806F",
"Z. c #86816F",
"A. c #868270",
"S. c #888374",
"D. c #898474",
"F. c #8A8575",
"G. c #8A8576",
"H. c #8B8576",
"J. c #8A8577",
"K. c #8B8676",
"L. c #8B8677",
"P. c #8C8677",
"I. c #8C8777",
"U. c #8B8678",
"Y. c #8B8778",
"T. c #8C8778",
"R. c #8C8779",
"E. c #8C8878",
"W. c #8D8878",
"Q. c #8D8879",
"!. c #8D8979",
"~. c #8E8879",
"^. c #8E8979",
"/. c #8F8979",
"(. c #8D887A",
"). c #8E887A",
"_. c #8E897A",
"`. c #8F8A7B",
"'. c #8E8A7E",
"]. c #8F8A7E",
"[. c #8F8B7E",
"{. c #908B7B",
"}. c #918B7B",
"|. c #908A7C",
" X c #908B7C",
".X c #8F8C81",
"XX c #938F83",
"oX c #918E84",
"OX c #928F84",
"+X c #949084",
"@X c #949184",
"#X c #959185",
"$X c #969285",
"%X c #959186",
"&X c #959286",
"*X c #99978D",
"=X c #9B988E",
"-X c #9B988F",
/* pixels */
"                                                        ",
"                      d s p u t e                       ",
"                    h ~ / Q ! Q T w                     ",
"                  j ~ _ B.l.f.^ Q U 0 9                 ",
"                l ~ ( k.l.l.l.p.~ T I S 4               ",
"            f g J w.s.d.d.d.a.p.6.t.I G C 2             ",
"          a 9.t.t.e.g.v.f.f.s.t.;.-.=.G A C 3           ",
"        i 4.0.t.y.y.G.H.K.K.i.t.2.=.&.@.A Z n < >       ",
"      y ,.4.7.7.y.F.G.K.L.I.I.8.2.*.@.@.c.A n b v ,     ",
"    r $.,.<.2.9.G.G.K.I.W.T.I.XXV.V.m.m.c.c.n b v c 2   ",
"  q +.%.&.>.2.4.G.P.I.~.^./.).%XC.V.N.m.b.c.z.b c k k 5 ",
"  8 $.%.%.%.2.[.L.U.W.~.`.}. X&XA.V.M.m.b.c.z.j.k k k 7 ",
"  6 _ #.#.%.].L.U.T.W.).`.}.|.#XZ.V.M.m.c.c.j.j.h.k k 7 ",
"  < ( ) #.'.J.I.T.Q._._.{.{.=XV.V.V.m.n.c.z.j.h.h.k k 4 ",
"  ; E W R '.L.T.Q.Q.(.*X*X-X$XV.N.m.m.c.c.j.j.h.S.x x 1 ",
"    = P Y K .XoXOXOXOX| |  .@X+Xm.m.c.c.z.j.h.S.m x z : ",
"      $ L H H ' [ [ { { } | | | _.!.c.x.j.D.S.B x z z - ",
"        # F D ' ' [ [ [ [ [ [ [ [ r.R.E.D.V B N M z *   ",
"          O F ` ' ' ' ] [ [ [ [ 5.5.O.Y.V B B N M &     ",
"            . + + ' ' ' ' ' ' u.3.3.o.X.V B M M %       ",
"                  + + + ' ` q.3.1.X.X.X.B N M @         ",
"                        . . . :.:.X.....M X o           ",
"                              . . . . . X               "
};
