/* XPM */
static char *out[] = {
/* columns rows colors chars-per-pixel */
"29 45 225 2 ",
"   c None",
".  c #4F2913",
"X  c #502913",
"o  c #502A13",
"O  c #502A14",
"+  c #512A14",
"@  c #512B14",
"#  c #522B14",
"$  c #522C14",
"%  c #532C14",
"&  c #502C17",
"*  c #58331D",
"=  c #59341D",
"-  c #59351D",
";  c #59361D",
":  c #5A361D",
">  c #5B361D",
",  c #5B371E",
"<  c #5B371F",
"1  c #5B3820",
"2  c #5B3821",
"3  c #5B3823",
"4  c #5B3923",
"5  c #5C3821",
"6  c #5C3922",
"7  c #5D3922",
"8  c #5C3923",
"9  c #5C3A23",
"0  c #5C3A24",
"q  c #5C3B24",
"w  c #5E3B24",
"e  c #5E3E27",
"r  c #5F3E27",
"t  c #5F3F28",
"y  c #5E4029",
"u  c #55473E",
"i  c #55483E",
"p  c #55483F",
"a  c #56493F",
"s  c #554A3E",
"d  c #574A3F",
"f  c #574B3F",
"g  c #604029",
"h  c #60402A",
"j  c #61412A",
"k  c #60412B",
"l  c #61412B",
"z  c #62432D",
"x  c #644631",
"c  c #654934",
"v  c #654A35",
"b  c #574A40",
"n  c #584B40",
"m  c #594E43",
"M  c #5A4E43",
"N  c #5B4F43",
"B  c #5B4F44",
"V  c #5B4F45",
"C  c #5C5044",
"Z  c #5C5146",
"A  c #5D5147",
"S  c #5C5247",
"D  c #5C5348",
"F  c #5C5349",
"G  c #5D5349",
"H  c #5E5348",
"J  c #5E554B",
"K  c #61584B",
"L  c #62594B",
"P  c #676159",
"I  c #686259",
"U  c #68625A",
"Y  c #69625A",
"T  c #69635A",
"R  c #69635B",
"E  c #6A635B",
"W  c #6A645B",
"Q  c #6B645B",
"!  c #6B655B",
"~  c #6E6659",
"^  c #6C655B",
"/  c #6D655B",
"(  c #6D665B",
")  c #6F665A",
"_  c #6F675B",
"`  c #6C655C",
"'  c #6D665C",
"]  c #6F685A",
"[  c #6F695A",
"{  c #70675B",
"}  c #716A5C",
"|  c #726A5D",
" . c #726B5D",
".. c #736B5D",
"X. c #736B5E",
"o. c #736C5F",
"O. c #746C5E",
"+. c #746C5F",
"@. c #746D5F",
"#. c #756D5F",
"$. c #6D6860",
"%. c #6E6860",
"&. c #6E6960",
"*. c #6E6961",
"=. c #6F6A62",
"-. c #706A62",
";. c #706B62",
":. c #716B62",
">. c #726B62",
",. c #726C62",
"<. c #736C62",
"1. c #736D62",
"2. c #726C63",
"3. c #736C63",
"4. c #776E62",
"5. c #706C64",
"6. c #716C64",
"7. c #716D65",
"8. c #726E66",
"9. c #726E67",
"0. c #736F67",
"q. c #756F66",
"w. c #736F68",
"e. c #777165",
"r. c #777166",
"t. c #777266",
"y. c #787165",
"u. c #787265",
"i. c #787166",
"p. c #797266",
"a. c #797366",
"s. c #797267",
"d. c #7A7367",
"f. c #767168",
"g. c #797368",
"h. c #7A7368",
"j. c #7A7468",
"k. c #7A7469",
"l. c #7A746A",
"z. c #7A756B",
"x. c #79756C",
"c. c #7A756C",
"v. c #78766F",
"b. c #79766F",
"n. c #7D786D",
"m. c #7D796D",
"M. c #7E796D",
"N. c #7E7A6D",
"B. c #7E796E",
"V. c #797770",
"C. c #7A7770",
"Z. c #7A7870",
"A. c #7B7870",
"S. c #7B7871",
"D. c #807B6E",
"F. c #807B6F",
"G. c #827E71",
"H. c #837D72",
"J. c #827E72",
"K. c #837E72",
"L. c #837F72",
"P. c #837E73",
"I. c #837F73",
"U. c #847F74",
"Y. c #838073",
"T. c #848073",
"R. c #848074",
"E. c #858074",
"W. c #858174",
"Q. c #858175",
"!. c #868074",
"~. c #878174",
"^. c #868175",
"/. c #878175",
"(. c #878275",
"). c #878176",
"_. c #878276",
"`. c #878376",
"'. c #878377",
"]. c #888374",
"[. c #888377",
"{. c #888477",
"}. c #898477",
"|. c #85837A",
" X c #87837D",
".X c #888378",
"XX c #888478",
"oX c #888479",
"OX c #898479",
"+X c #898579",
"@X c #8A8579",
"#X c #8A8679",
"$X c #89847B",
"%X c #8A857A",
"&X c #8A867A",
"*X c #8B867A",
"=X c #8A867B",
"-X c #8B877B",
";X c #8B877D",
":X c #8C877E",
">X c #8D887F",
",X c #908C81",
"<X c #908D81",
"1X c #908C82",
"2X c #908D82",
"3X c #918D82",
"4X c #918D83",
"5X c #939086",
"6X c #949187",
"7X c #959289",
"8X c #999689",
"9X c #98958C",
"0X c #99958C",
"qX c #98958D",
"wX c #99958D",
"eX c #98968D",
"rX c #99968D",
"tX c #99968E",
"yX c #99968F",
"uX c #9C988D",
"iX c #9C998D",
"pX c #9C998E",
"aX c #9B9890",
"sX c #9C9891",
"dX c #9C9991",
/* pixels */
"                                                          ",
"                                                          ",
"                                                          ",
"                                                          ",
"                                                          ",
"                      t l h h g r k                       ",
"                    , d.d.a.p.p.u.y.> > >                 ",
"                  < d.d.d.h.s.s.s.).~.!.].; : :           ",
"          y e w 6 h.h.j.j.h.g._._.(././.^.^.wX0X:         ",
"        1 ] } ..o.O.j.k.k.j.`._._._././.^.wXi.i.r.-       ",
"      2 [ | X.+.+.+.j.k.`.`.`._._._._._._.wXi.i.r.e.=     ",
"    x &XR. .@.#.#.4.#X}.`.'.{.{.[.`.`.`.wXH.H.i.r.r.e.5   ",
"    v &XR.E.E.E.W.pX#X}..XXXXXoXoX{.'.`.rXK.H.i.r.r.e.6   ",
"    v &XE.E.W.W.W.pX*X@X@XXX+X+XOXOXOXrXI.L.K.K.r.r.e.6   ",
"    c &XR.W.W.W.Q.pX&X&X&X@X%X+X+X+X+XrXI.I.K.K.t.r.e.6   ",
"    z &XW.W.W.T.rX&X&X&X-X=X*X&X&X&X-XrXI.U.K.K.I.t.e.7   ",
"    l &XY.T.T.6Xd.d.d.d.rXrXrXrXrXrXrXJ.I.U.G.K.I.e.e.7   ",
"    l -XY.T.T.6XF.F.F.4X3X3X3X3X3X4X4XJ.K.L.K.N.N.P.r.6   ",
"    j -XY.W.rXD.D.F.4X4X4X4X4X4X4X4X4XK.L.K.K.N.B.P.r.8   ",
"    g -XY.uX3X3X3X3X4X4X4X4X4X4X4X4X3XL.K.K.N.M.B.M.P.9   ",
"    g &XiX2X2X3X3X3X3X3X3X) { { rXrX9XrXJ.J.M.M.B.M.m.8   ",
"    q 8X<X2X2X2X3X3X3X5X_ _ _ L ( ( 1.1.7XeXeXM.M.m.m.3   ",
"    q ,X2X2X2X2X2XrXrXrX_ ~ L L ( ( <.<.<.,.,.qXtXm.n.4   ",
"    0 1X1X1XaXaXaX( ( ( z.l.L L / / <.,.,.,.,.,.>.yXyX*   ",
"    0 dXsXaX2.2.3.' ' / / / c.K K ^ ,.2.,.,.>.:.:.:.|.%   ",
"    % >X,.,.2.2.,.^ ^ ^ ^ n ` x.K ^ ^ ,.>.:.:.:.:.:. X$   ",
"    % :X:.:.,.^ ^ ^ ^ ^ ^ ,.^ C K d ! ! :.:.Q Q ;.;.A.#   ",
"    $ ;X:.:.:.! ! ! ! ! ! V ! S q.b Q Q :.:.W W W -.S.#   ",
"    $ $X:.:.:.Q Q ! ! ! ! B H Z Q f.Q W W W W W E R Z.@   ",
"    # A.W ;.;.Q Q Q Q Q Q ;.;.A W N W W W W W W R R Z.@   ",
"    # Z.E E W W W W W W W W W ;.W ;.W W W R E R R R C.+   ",
"    @ Z.T R W W W W W W W W W W W W W E E E R R R T V.O   ",
"    + C.T T R E E R E E W W W a a M E R R R R T Y U V.O   ",
"    O V.T T T T R R R R R R R 6.8.m R R R T T Y U *.V.O   ",
"    O V.U Y T T T R R R R p R p 5.m R R T Y Y U U *.V.o   ",
"    o V.U U U Y Y Y T T R p R 6.R =.R Y U U U U *.*.V.o   ",
"    o V.U U U U U U U U Y i i u Y U U U U U U *.*.*.V.X   ",
"    X b.*.U U U U U U U U 7.8.=.U U U U U U U *.*.0.f .   ",
"    . v.%.I U U U U U U U U U U U U U U U U U *.9.s F &   ",
"    . v.$.$.P U U U U U U U U U U U *.*.*.U P $.w.f G .   ",
"    . v.$.$.$.$.$.&.U U U U U U U *.*.&.$.P P 5.s G D .   ",
"    . v.$.$.$.$.$.$.P P P P P P P $.$.$.$.$.5.s G J .     ",
"      . . . . . . . . . . . . . . . . . . . . . . .       ",
"                                                          ",
"                                                          "
};
