/* XPM */
static char *out[] = {
/* columns rows colors chars-per-pixel */
"35 60 65 1 ",
"  c None",
". c #4C2712",
"X c #4E2913",
"o c #522C15",
"O c #522D18",
"+ c #573017",
"@ c #55321D",
"# c #5A351E",
"$ c #573621",
"% c #583722",
"& c #5A3A25",
"* c #5C3E2B",
"= c #5E412E",
"- c #574131",
"; c #5E4331",
": c #594739",
"> c #54493F",
", c #5C4B3E",
"< c #61422E",
"1 c #614532",
"2 c #644936",
"3 c #69513E",
"4 c #574E43",
"5 c #5D4E42",
"6 c #5E5346",
"7 c #5F5850",
"8 c #615346",
"9 c #685040",
"0 c #615649",
"q c #655A4D",
"w c #695B4F",
"e c #645E55",
"r c #6A5E52",
"t c #705F51",
"y c #666057",
"u c #6B6156",
"i c #676158",
"p c #6A635A",
"a c #6E685F",
"s c #706052",
"d c #73675D",
"f c #726A5E",
"g c #6F6961",
"h c #736C64",
"j c #736E6A",
"k c #786F68",
"l c #767169",
"z c #7A756C",
"x c #7D796E",
"c c #7B7771",
"v c #7E7A72",
"b c #837C6E",
"n c #817D73",
"m c #858376",
"M c #868479",
"N c #89867B",
"B c #8B897E",
"V c #8D8C82",
"C c #918E85",
"Z c #929186",
"A c #93928A",
"S c #98978F",
"D c #99988F",
"F c #989790",
"G c #9B9A92",
/* pixels */
"                                   ",
"       #**<<1<<122<21<1<1<==&      ",
"      1NnSZZZCCCCCCCCVVVVVVpp%     ",
"      2xbAZCZZCBBCCBVVVVVVVwu%     ",
"      2zkAAqqqqqqqqqqqq0qVBrw%     ",
"      1zbCC=*1111111;****VVww%     ",
"      <bbCZ*qwwrrrtrrrrr*VMwr%     ",
"      1xbCC*wdddd<<hkhkh*MMww%     ",
"      1zbCV*wddd3BB<hhhg*MMww$     ",
"      2bbBC&wf333BB<<=zz*Mmwq$     ",
"      <bbBC&w&BNBBNNBB&z=MMwq$     ",
"      1nnAC&w&ZZBBNZCB*z*MMeqO     ",
"    &*1nnAA<touusBNsyr&z=Mmqqoo.   ",
"   <nA1nnZA&ss###Bm+@@zz*mNqqow8X  ",
"  &nnA<nnAA&szff#nm+gdzz*MM00O006X ",
"  *nnA1mnAS&szzz#bb+czzl*Mmq0O080X ",
"  *nnZ1mnZV&tkzz+bxovccj*MM00O006X ",
"  *nnZ1nnZV%scnn+vxovvcc-Mm0qO006X ",
"  =nnZ1nnZV%sncc@NBovMMv*MM00Xw60X ",
"  <nvZ1mnVV%tnnn+wqovvvv-MM00@w60X ",
"  <nnC=nmVB%tnvcfoOdvvnv=MM66+q66X ",
"  1vnC<nnVV%tnvnndhvvnvv=Mm00Oe60X ",
"  <vnC1nnBN%tcnvvnvvvvvn=MM06ow66X ",
"  1nnZ<nnBB%tncvvvvnvvvv=mM00Xu00X ",
"  2vnZ=vnBB$uxvvvvvvvvvv=MM66Oe60X ",
"  1nvV<nxBB$uvcvvvvvvvvv=Mmq0+eq0X ",
"  1vvV;xxNB#tvvcvcvcvvvv=mm66+w00X ",
"  1vnC1xxNN@txzvvcvvvvvv=mm66+e00X ",
"  1vvV;xxNM@wllxcccccvvv=MM0qoe60X ",
"  1xxC<xxNN@skklccccvvvv=MM0qoeq8O ",
"  1vvV1xxNBowklllcccvvxz=mM00+r60X ",
"  1vvV;xzNBowh,,6qy76>zl=mM00owq0X ",
"  1vvV;xzBBouammVnVnnncc*MM70+w67X ",
"  1xvC;xvBBXqaglkkjjjcjj*VN87ou60X ",
"  ;vxV;xzBBowi5,88684*cj;NV6wou0qX ",
"  1xvV;zzBBoqizzccnvccjj;VNewou00X ",
"  ;vxV=zlVVXqiiipggggjjj*VVwwXp00X ",
"  =vvV=zzVV.&&*1***;1;;;;VBwuXa00X ",
"  ;xvV*zzVVVVBVVVVVVVVVVVVBeqXa00X ",
"  ;vxV*zlGGGFSSSFFASSFFGFGGrwXp60X ",
"  ;xzV%lZAAAAAAAAAAAAZAAACCDqop00X ",
"  =xlV$ZAAAFAAAAAZAZAZAZAAACDop60X ",
"  ;vcV$jppipeegeyyyyiieiyyyyhXp66X ",
"  -vzVOjiipeggeeyyyyieieyyypaXp60X ",
"  =zlC$OXXXX.XXX.XX.X.X..XXXXuu66X ",
"  =zzZVO85585555,,,,,,,,>,6>Xuu67X ",
"  *zkAV$85558855,,,,,,,,,,,,Xuu66X ",
"  *zzCV@gggeeeeeyyy7y7y7e7yaXuu66X ",
"  *zzZV$aaaieieieeee7e7e7e7a.uf66X ",
"  &zzZV$gaeiieieeeeee7777eeiXah66X ",
"  &llAV@aiieeeeee7e7e7>>>77i@fh66X ",
"  $llAV@aiieieeeee7e4>44477i@af66X ",
"  $llFB$#&&%%&&&&&&&$$&$@@@@@aB66X ",
"  $llFZBNNmmmbmnmbbxbbbbmvbmmmB66X ",
"  $lliiiiiiiyyyeyyyeyeeeeiyeeey66. ",
"  Xliiiiiyiyiyyiyeii7yeyeeeeeeee6. ",
"  Xiiipiiyiyiiyeeyyyyyeeeeyeeeeey. ",
"  XOXXXXOXXXXXXX....XX.......X.... ",
"                                   ",
"                                   "
};
