/* XPM */
static char *out[] = {
/* columns rows colors chars-per-pixel */
"63 64 26 1 ",
"  c None",
". c #180D10",
"X c #2B0000",
"o c #3F0C14",
"O c #221418",
"+ c #302328",
"@ c #3A2A2E",
"# c #530B15",
"$ c #461712",
"% c #600A15",
"& c #77151A",
"* c #441D25",
"= c #463035",
"- c #613127",
"; c #632A34",
": c #6D3F3F",
"> c #634A4B",
", c #7D5D5A",
"< c #A12D28",
"1 c #C3432F",
"2 c #814B49",
"3 c #A06A73",
"4 c #BF7A80",
"5 c #D28789",
"6 c #ED9895",
"7 c #FCB4A9",
/* pixels */
"                                                               ",
"                                                               ",
"                                                               ",
"                                                               ",
"                                *                              ",
"                               *7*                             ",
"                               *7*                             ",
"                              *767*                            ",
"                              *767*                            ",
"                              *666*      XXX                   ",
"                            XXX656*     X$$-X                  ",
"                           X-$$o56*     o1$$-X                 ",
"                           X$$11o66*    o11$$X                 ",
"                *           X<<1o56*    o11<o          *       ",
"               *7*          *o<<1o5*    o11<o         *7*      ",
"              *77*         *76o<<<o6*   o1<<o         *7*      ",
"              *77* XX     *7655o<<1ooooo#1<<o        *77*      ",
"              *67;X-$o    *6655o1111111<#1<<o      **776*      ",
"              *667;$$1o  *6655o111<<<<<<#1<<#o   **7776*       ",
"             *6+67;$<11oo;665o111<<&&&&#11<<#<o *776666*       ",
"             *+,+7;o<<111oooo11<<&&&oo&o11<&#<;*77666+6*       ",
"             *+>+67;oo<<111<11<<&&oo45o11<<&#;777766+,+*       ",
"             *6+667*  oo<<<<1<<&&o44oo11<<<&&;77776+,>+*       ",
"    *        *+,+667*   oo<11<<&#ooo111<<<&&;7777666+>+*       ",
"   *7*       *+>>+67*  *66o1<<&&o<1111<<<&&;7766666+,+6*       ",
"   *7*      *6+>=+667* *6o<<<&&#&<<11<<<&&%;766666+,>+6*    ** ",
"   *77*     *6+=+56677*;6o<<<&&#&<<<<<oo&%;776>6666+>+6*   *76*",
"    *77*    *66+>+567777;o<<&&&#&&<<<#$-o%;766>666+>+66* **76* ",
"    *677*  *566+==+677767;&&&&&#%&&##1$$o%;766>66+>=+66;*7765* ",
"     *677* *566+=+56676667;&&&&#%%#111<$#%;666>665+=+66;7665*  ",
"     *5667*;5565+>+5666>67;%&&%%##11<<<#&%;6>>5>5+>+66;7665*   ",
"     *55666;5>65+=>+66>5667;%%##11<<<&#&&%;65564+>=+66;665*    ",
"      *55666;5>>+==+5>56667;%%<<<<<&&#&&%%;766544+=+66;655*    ",
"      *55566;554+=+5>4>>>677;&&<<&&##&&%%;776655+>+566;55*     ",
"       *55666;554+>+>4556667;&&&%###%&%%;7766555+=+565;54*     ",
"       *45566;554+==+5566667;%&&&&&#%%%;77666==+>=+5=5;5*      ",
"       *455566;54+=+=+555666;%%&&&&&#%%;76666554+=+=55;4*      ",
"        *445565;54+>+4555566;#%%&&&&#%;766>6554+>+4554;*       ",
"        *444555;54+=>+455=56;%#%%&&%%#;666>554+>=+4554*        ",
"         *443555;5+==>+45=55;%%#%%%%%;66665=444+=+4544*        ",
"         *3443;5;5+=+=+4=4555;%%#%%%%;6665=4=4O=+3444*         ",
"          *3443;;5++=++=455555;%%#%%%;66==454O==O344*          ",
"           **333;54+==@O4555555;%#%%%;654454O=O=O@44*          ",
"             *3;554O@=O@O4555555;%#%%;555554OO=O334*           ",
"              *;454O@O@OO4555555;%#%%;55554O@=O3344*           ",
"               *4444OO@@@O4@@@555;%%;555444O@@O344*            ",
"                *3443O+@@OO445555;%;55@@4OO@OO34**2            ",
"                *34@@3O+O@OO444555;55544O@@+O34*2222           ",
"                2*3333O+O+@@O34455;55444O++O33*::222           ",
"               22:*3343OOO+++O3455;544OO@O@O3*::::222          ",
"               222:*33333O++O33345;54O+@+OO34*::::222          ",
"               222::**3333OO+OO33;5433O++O334*:::2222          ",
"               2222:::**333O+++O3;43OO+OO334*:::22222          ",
"                2222::::*333OO++O*3O+++O334*::::2222           ",
"                 2222::::***33O..:**.OO344*::::2222            ",
"                  22222:::::***::::::*****:::22222             ",
"                   2222222:::::::2222::::::222222              ",
"                     2222222:::2222222222222222                ",
"                        22222222222222222222                   ",
"                            222222222222                       ",
"                                                               ",
"                                                               ",
"                                                               ",
"                                                               "
};
