/* XPM */
static char *out[] = {
/* columns rows colors chars-per-pixel */
"40 51 65 1 ",
"  c None",
". c #4D2712",
"X c #4E2812",
"o c #522B14",
"O c #532F18",
"+ c #5A3117",
"@ c #56321A",
"# c #5A351D",
"$ c #5E391E",
"% c #603A1F",
"& c #5B3720",
"* c #5E3A21",
"= c #623D23",
"- c #644126",
"; c #664529",
": c #69462A",
"> c #67482B",
", c #6A4A2D",
"< c #6C4E31",
"1 c #644F3C",
"2 c #704E31",
"3 c #6E5234",
"4 c #66523F",
"5 c #6C563E",
"6 c #715537",
"7 c #765837",
"8 c #735738",
"9 c #755A3A",
"0 c #795E3E",
"q c #7A603F",
"w c #675240",
"e c #695642",
"r c #6C5A46",
"t c #6D5C48",
"y c #715C45",
"u c #7A5F40",
"i c #715E48",
"p c #7D6241",
"a c #74624C",
"s c #756551",
"d c #786751",
"f c #7B6A55",
"g c #7E6E5A",
"h c #7F705B",
"j c #7F7262",
"k c #806545",
"l c #836947",
"z c #856B4B",
"x c #886E4E",
"c c #8A714F",
"v c #876E50",
"b c #886F51",
"n c #8C7455",
"m c #81715C",
"M c #907756",
"N c #907857",
"B c #947C5D",
"V c #847562",
"C c #867966",
"Z c #897B67",
"A c #8C7F6C",
"S c #977F61",
"D c #8E806C",
"F c #9A8365",
"G c #938574",
/* pixels */
"                                        ",
"              ,2222=22222               ",
"          :::=ccxxx+xxzxx%-=-           ",
"        2:MMN%cccxz+lxzlx+000=-         ",
"      ==MMMMN%FFFNN%BBBBM+00099#*       ",
"     :l%xFFFF%7707k%0qqqp$nnMn7=6*      ",
"    ,xx$S7xkk%pp70k%00ppp-;;kun=6<*     ",
"   :zxB=77xkk=ppp7k-0qppq:;zpup=v66#    ",
"   :lN0%7xlkk-kpppp:qpppq,lqkpu:pz6&    ",
"  -un00%7xklk:0pppp:qkppq,0k00u:uqz3#   ",
"  :n800-lkplk:ukpqp:qqppp,p0puu,0qpz&   ",
" ;un080:pplpk,uuqqk:ppppp,0pupp<pqqz<#  ",
" -v8007:kpkkk:uuqql:kpppp,upppp<qqqqn@  ",
" ;v8870,kkklk:uuqpk:lqkpp,upp003q000n@  ",
" $88880,ukk=k<uuqpp:lkppp,p=ppp<0q000X  ",
" #$$%=%====G=2uuqpk:lpkpp,=G==***$###o  ",
" +ffmbmmVVVfA=uuqqk:lqkkq-FfVVmgggmffo  ",
" +yyaadffdgfvZ;900k:zqqq-Gffddaayaa55o  ",
" @uyaaadfffvgOuuq0p:lqppp+ddddayaaaryo  ",
" @oooOOOo+OfO2uu00p:lkppp,ofooooooXOoo  ",
" O--;;,$,,,+260u00p:zpppp,,O,,,,,,>>>o  ",
" O88988*0p0,<<u9u0p:zpppp,q>qqq388886o  ",
" o88888-uupu<<uu00p:vpppq,p00qq<88888O  ",
" O08888,u0u0<<9900p:zpppp,p0qqq388888X  ",
" O68888,p090:<9u00p:cqqqq,p00qq388866O  ",
" o67888,p000u<u990p;zpqqq3p0099<83566o  ",
" O78888,u9099<9999u;zqqqp,p0q9q<68686O  ",
" o66888,u9999<909&*==%qqq3p09q9<66663o  ",
" o86668,u9988<98&DAZZZ$093pq9q9<66333o  ",
" O68766<u8698<90*aaaaa$qq3p9q99>33333o  ",
" o86686,u7688<08#aaOaa#8q3p5999>33333X  ",
" X66866<u8678<88oyyoarO98,p9999;33333o  ",
" o66666<u6666,89o55555oq6>qq999;33<33X  ",
" X66666,p36*6<88>XooXX>66<q%9q9><3133X  ",
" X@+###$***D*<986>>O>>699<*D**$$##@@@X  ",
" .fdgfgVVVVsA*98995-q6969=DahhffffgddX  ",
" X5yyyiasaddsZ*6888-996q*Dasaaiirir55X  ",
" Xeetiiaasdddo66888>66663Xasaattiri55X  ",
" XXXoooXooXsX-66688-66666-XtXXXXXXXXXX  ",
" X==---#>,,X>-66668-66633-<X>>>*;--%-X  ",
" .33<33#336,3-53666$53363-9>999*<<<<<X  ",
" .33333-33356-66666@63356*99q99-1<><<X  ",
" X33333*33336=36564O33633*5q959*<<<,<.  ",
" XO@##&**&&&#@@@OO..OOO@######&@OOO...  ",
" Xaasssdssssfsfsgjj.jjgffsfsssssssssaX  ",
" XVCCjCCCCAjDDDDAGG.GGDDDDDjCjAjVCCjV.  ",
" X4444wweewtettttts.sttttttteeee11111.  ",
" X44w44wwetetetttts.stttttteeeee11114X  ",
" X114weeeeetetettts.stttttteeeeeee111.  ",
" X111eeeeetetetttts.stttttttteeeeww11.  ",
" ..X....X.XX...X....X....XX.....X.....  "
};
