/* XPM */
static char *out[] = {
/* columns rows colors chars-per-pixel */
"32 67 25 1 ",
"  c None",
". c #1C0000",
"X c #1A0A09",
"o c #231513",
"O c #1D271A",
"+ c #33261C",
"@ c #372828",
"# c #2D312B",
"$ c #393D37",
"% c #4C0C0C",
"& c #3E4E3A",
"* c #57493B",
"= c #4C4F49",
"- c #4A5C42",
"; c #55674A",
": c #607253",
"> c #7B7061",
", c #A03B2B",
"< c #788C5F",
"1 c #8E8475",
"2 c #868B7C",
"3 c #93A76D",
"4 c #ACA492",
"5 c #D2CEBC",
"6 c #EDEBDB",
/* pixels */
"                                ",
"                                ",
"                                ",
"                                ",
"                                ",
"              O   O             ",
"             O3O O3O            ",
"             O3O O3O            ",
"             O3O O<<O           ",
"         O   O3O O<OO           ",
"        O3O  O3<O&O3O           ",
"        O3O  O<<&-O3<O          ",
"        O<3OXO<<&.<O3O          ",
"         O3XXX-..&<O3<O         ",
"         OXX  X,.-<<O<O         ",
"     .   XX<O OXX-<<O<O         ",
"      ..XXO<O O<XX<<-<<O        ",
"      .,X O<O O<-XXXX<<O        ",
"       XoXO<<O<3<<::-X<O        ",
"        XXO:<<333<<<:<<O        ",
"    ++   XXO:<<<<<3<<<<O        ",
"    +6+   XO::;--<<<<<<O        ",
"    +45++  O::::::-:<<<O  .     ",
"     +455+O&&--::::<<<<OO.      ",
"      +4--333<<-::<<<<OX,.      ",
"       O<<<333<<<<<<<<OXX       ",
"        O<<<<333<<<<<-O XX      ",
"        OOOO<<<<<<<<-OO  XX     ",
"        OO  O--<<<<::OO  XoX.   ",
"        OO   O::::::O O   X%,.. ",
"        OXXX +-:::::O O   Xo.   ",
"        XX XX*-:.:-:O O  XoX    ",
"        XO  XX..::O:O O  XX     ",
"       X,O   X,.:O5OO O XoX     ",
"  .   XoOO  +4XX:O4OO  X@o,.    ",
"   ..XoX O. +64XXO4OOOO@oX..    ",
"   .,@X  O  +64XoX4OO.,@X   .   ",
"    XoX  O  +5*OXoX4OX@oX       ",
"   X@X     +65+O:XoXXooX        ",
"   XoX     +5+ O:OX%ooX         ",
"    X@X    +4+ O:O.,.X          ",
"    Xo@X  O44+ O:O4.+           ",
"     .o@X O4+  OO45.+  =        ",
"   ..,%ooX:O+  OO464+=  =       ",
"     OXoXO:O+ +OO464+== $$$     ",
"    $$#XXO;O  +OO454+###  2=    ",
"   =   =XO;;O+4OO441#= =        ",
"       == #;O14O454#$==         ",
"      == #$#O>1O441##$=    =    ",
"=2 $$$$##$$=##>111#$$##$$==     ",
" $$22  $====#$####$$ =  2$      ",
"      $2  =#====$#$==    2=     ",
"      =    $2 ====#=      =     ",
"      2   $2      $=            ",
"        =$2=      2$$$$         ",
"         2 =       $22 $=       ",
"            =      $            ",
"            2     =             ",
"                                ",
"                                ",
"                                ",
"                                ",
"                                ",
"                                ",
"                                ",
"                                ",
"                                "
};
