/* XPM */
static char *out[] = {
/* columns rows colors chars-per-pixel */
"80 71 10 1 ",
"  c None",
". c #171415",
"X c #1F1D1E",
"o c gray15",
"O c #393D37",
"+ c #363839",
"@ c #414545",
"# c #4C4F49",
"$ c #525250",
"% c #716C67",
/* pixels */
"                                                                                ",
"                                                                                ",
"                                                                                ",
"                                                                                ",
"                                                                                ",
"                                                                                ",
"                                                                                ",
"                               .........                                        ",
"                             ..%%%%%%%%%...                                     ",
"                           ..%%%%%%%$%%%%$.                                     ",
"                          .%%%%%%%%%$%%%$$$.                                    ",
"                         .%%%%%%%%%%$%%%$$$$.                                   ",
"                       ..$%%%%%%%%%%$%%%$$$$$.                                  ",
"                      .%%$%%%%%%%%%%$%%$$$$$$$.                                 ",
"                      .%%$$%%%%%%%ooo+++$$$$$$.....                             ",
"                   ...$%%$$%%%oooo+++++++$$$$$%%%%%.                            ",
"                   .$$$$%%$%oooo++++++++++$$$%%%%%%.                            ",
"                   .$$$$%%oooo+++++++++++++$$%%%%%%.                            ",
"                  .$$$$$%ooo++++++++++++++++%%%%%%$$.                           ",
"                  .$$$$$ooo+++ooooooooo++++++%%%%%$$.                           ",
"                 .$$$$$Xoo++oo...........+++++++++$$$.                          ",
"                 .$$$$Xoo+oo..           ..++++++++$$.                          ",
"                ..$$$Xoo+o..               ..++++++$$$.............             ",
"               .$+$$Xoooo.                   .o+++++$$@$$$$@$$$%%%%.            ",
"               .$+$$Xooo.           #........ .o++++$$@$$$@@$$$$$%%%.           ",
"              .$$+$Xooo.           #.o+++++++. .o++o$@$$$$@$$$$$$$%%.           ",
"              .+$+XoooX.          #.oooo++++++..o++o$@$$$$@$$$$$$$%%.           ",
"              .X+XXooX.           #.ooooooooo+. .o+oo+$$$$+$$$$$%%%@.           ",
"              .XXXXoXX..          #.ooooooooooo..XoXo++@++ooo++++@@@.           ",
"           ...oXXXXXX.XX..        #.XXooooooo..XX.XXo++@@@++o++@@@@@.           ",
"         ..%$$@oXXoo..oo+o.       ##.XXXXXXX.oooo..Xoo@@$$$@+@@$@@@@.           ",
"        .%%$$$@@oo++++++$o.       ##.XXXXXXX.o++++++$oo@@$@@@@@@@@@@.           ",
"       .%%$$$$@+oXo+$$$$o.        ###.......O.o+$$$$oX@@@@@@+@@@@+@@.           ",
"       .+$%$$$o++oXXooooo.         ###OOOOOOO.XoooooXo+@@@@@+@@@++++.           ",
"       .@+oooo++@+Xoo++o.           ######...+.oo++oXo++@@@+o+++++++.           ",
"       .@@++o++@@+Xo++$+. ......         .o+++.o++$+Xo+++++oooo+++o.            ",
"       .@@@+++@@@+Xo++%+..o+++++.      ##.oooo.o++%+Xo++@@$$++oo$$$.            ",
"       .+@@@o@@@@+Xo+$$+.ooo+++++.   ####.Xooo.o+$$+Xo+@@@@$@@o$$$$%.           ",
"       .++@+o+@@++Xo+$%+.oooooooo.#######O..Xo.o+$$+Xo++@@@@@@+$$$$$%.          ",
"       .o++oo++++oXo+$%+.oooooooo.#####O..++XX.o+$%+Xo+++@@@@++$$$$%%.          ",
"        .oooXooooXXo+$%+.XXooooXX.O##OO.+++ooX.o+$%+Xo+++++++++$$%%%o.          ",
"         ..oXoo++oXo+$$+..XXXXXX.OOOO..+++oooX.o+$$+Xoo++ooooo++oooo+.          ",
"      ....ooo+++++Xo+$$+.O......OOOO.+++ooooXX.o+$%+Xo+@@@o@@@+++++o+@..        ",
"     .%%%%$$$+++++Xo+$%+.OOOOOOOOOO.+++ooooXX+.o+$$+Xo+@@@+@@@@+@@@+$$%%.       ",
"   #.%%$$$$$$$+++oXo+@$+.OOOOOOOOO.XooooooXX++.o+@$+Xo++@@+@@@++@@++$$$%.       ",
" ##.+%$$$$$$$$++ooXo+@$+.OOOOOOOOO.XXooooX.++o.o+@%+Xo++++++++o++++o$$$%.#      ",
"##.++o%$$$$$$$ooooXo+@$+.OOO####OOO.XXooX.+ooo.o+@$+Xoo+++++++o+++++o$$$.##     ",
"##.o++oooo+oooooooXo+@@+.OO######OO.XXXX.ooooo.o+@@+Xoo+o++oooX++++oooo$.##     ",
"##.oo++oo++++o++oXXo+@@+.OO#######OO....Xooooo.X+@@+Xoooo++++oXo+ooo++oo.##     ",
"#.ooooooXo++++++oXXo++@+.O##########OOO.XXoooo.X++@+Xooooooooooooooooooo.##     ",
"#.XoooooXoo++++oXXXo++@+.OO##    ####OO.XX..oX.X++@+XXoooooooooXoooooooo.O#     ",
"#.XXXooXXooooooXXXXoo++o.OO#       ###OO..++...XX++oXXXoooXooooXXoooooXX.O##    ",
"#.XXXXXXXXXXXXXXXXo+ooo+o.O#        ##O.++++++.oXXo+oXXXXXXXXXXXXXXX.......##   ",
"##...............Xoo+++ooX.##      ###.++oooo++.o++oXX..............Xo+++++.##  ",
"####OOOOOOOOOOOO.XXXoooXXX.##      ##.+oooooooo+.ooXXX.OOOO#######.Xoooo++++.#  ",
" ###########OOOOO..XXXXX..##       #.ooooooooooo+.XX..O###########.Xooooooo+.#  ",
"     #############O.....####      #.oooooooooooooo..OO##  ...     .XXooooooo.#  ",
"               ############       #.XooooXXXoooooXX.##   .+++.    .XXXoooXXX.#  ",
"                 #########        #.XXooX++XXoooXX.##  ..+++++.  ##.XXXXXXX.##  ",
"                                  #.XXXX++++XXoXXX.#  .+++ooooo.###O.......###  ",
"                                  #O.X.++ooooXXXX.O##.++ooooooX.####OOOO#####   ",
"                                  ##O.+ooooooX.X.OO#.ooooooooXX.###########     ",
"                                  ##.XooooooXX.X.O##.XooooooXX.O###             ",
"                                  ##.XXooooXX.X.O###.XXooooXX.O###              ",
"                                   #.XXXooXX...O####O.XXoXXX.O###               ",
"                                   ##.XXXXX.OO###  ##O.XXX..O##                 ",
"                                   ###.XX..OO###    ##O...OO##                  ",
"                                    ###..OO###       ########                   ",
"                                      #######                                   ",
"                                                                                ",
"                                                                                "
};
