/* XPM */
static char *out[] = {
/* columns rows colors chars-per-pixel */
"87 102 10 1 ",
"  c None",
". c #171415",
"X c #1F1D1E",
"o c gray15",
"O c #393D37",
"+ c #363839",
"@ c #414545",
"# c #4C4F49",
"$ c #525250",
"% c #716C67",
/* pixels */
"                                                                                       ",
"                                    ..                                                 ",
"                                  ..%%.                                                ",
"                                ..%%%%.                                                ",
"                               .%%%%%%$.                                               ",
"                               .@%%%$$$$.                                              ",
"                               .@@@@+$$$$.                                             ",
"                              .$@@@+++$$$$.                                            ",
"                             .$$$@@+++$$$$$.....    .....                              ",
"                             .$$$@@++++$$$$%%%%%....%%%%$.                             ",
"                            .$$$$@++++++$$%%%%%%%%%%%%%$$$..                           ",
"                            .$$$$++++++++%%%%%%%%%%%%%$$$$$$.                          ",
"                           .$$$$+++++++++++++++++++++++$$$$$$.                         ",
"          ..              .$$$$$+++++++++++++++++++++++++$$$$$.                        ",
"        ..$%.            .@$$$$+++++o+++++++++++++++++++++o$$$.    ..                  ",
"      ..$$$%%..          .@@@@oo+++o++++++++++++ooooooo++.oo$$.  ..$$.                 ",
"    ..$$$$$%%%%.          ..@oooo+oo++++++++++ooo.....oo++.oo$$..+$$$%..               ",
"  ..$$$$$$$%%%%%..          .oooooo++++++++o+oo..     ..+.$@o$o+$$$$$%%%..             ",
" .@$$$$$$$++%%%%%%.          ..ooXo+++++++++oo.         ..$@@+++$$$$%%%%%%.            ",
" .@$$$$$+++++%%%%%%.           .XXo++++++++oo.          .$@@@@++$$$+++%%%%%.           ",
" .@@$$+++++++++%%%%.            .Xoo++++++oo.          .%$@@@@@@++++++++%%%.           ",
" .@@..o+++o++++++%.              .oo++++++o.           .+$$$@@@@@@o+++++++%.           ",
"  ..  .ooo+++++++.                .oo+++++.            .X+$$$$@@@@@@oo++++o.           ",
"       .oooo+++++.                .oo+++++.            .Xo%%$$$$@@@@@ooooo.            ",
"       .Xoooo+++.                .Xoooo+++.             .Xo%%$$$$@@@@@@oo.             ",
"      .Xo++$$%$++.              .Xo+$$$%$++.            .o++%%$$$$$@@@@@.              ",
"      .Xo+++@@++o.              .Xo++@@@++o.           .%$$$+%%$$$$$@@@@.              ",
"       .Xo+++++o.                .Xo+++++o.           .%$$$$$$$%$$$$@@@@.              ",
"        .XXoooo.                  .XXoooo.          ..%$$$$$$$$$$$$@@@@@.              ",
"        .Xo++@+.                  .Xo++@+.         .%%$$$$$$$$$$$$$$@@++.              ",
"        .o+++@+.                  .o+++@+.         .%$$$$$$$$$$$$$$$@@@+.              ",
"        .o++@$@.                  .o++@$@.         .o%$$$$$$$$$$$$$$@@@@.              ",
"        .o++@%@.                  .o++@%@.         .X%%$$$$$$$$$$$$$@@@@.              ",
"        .o++@$@.                  .o++@$@.         .X+%%$$$$$$$$@@@$@@@@.              ",
"        .o++@$@.                  .o++@$@.          .+$$$$$$$$$$$@@@@@@+.              ",
"        .o++@%@.                  .o++@%@.         .%$$$$$$$$$$$$$@++@@+.              ",
"        .o++@$@.                  .o++@%@.        .+$$$$$$$$$$$$$$$@++@+.              ",
"        .o++@%@.                  .o++@%@.    ....X+++$$$$$$$$$$$$$$@+++.              ",
"        .o++@%@.                  .o++@$@.   .%%%%.++@++$$$$$$$$$$$$@@++.              ",
"        .o++@$@.                  .o++@%@.   .%%%%%X@@@$$$$$$$$$$$$$@@@+.              ",
"        .o++@%@.                  .o++@$@.   .$%%%%%o@@@@$$$$$$$$$$$@@@@.              ",
"        .o++@$@.                  .o++@%@.   .$$$%%%%@@@@@@@@@$$$$$@@@@@.              ",
"        .o++@%@.                  .o++@%@.  ..$$$$%%%%@@@@@@@@@@@@@@@@@+.              ",
"        .o++@%@.          #......#.o++@$@...$$$$$$$%$$$$$$%++@@@@@@@@@@+.              ",
"        .o++@%@.        ##.oo++++.........%%%$$$$$$$$$$$$%%%%++++@@@@@++.              ",
"        .o++@%@.      ##..oooooo.$$%%%%%%%%%%%$$$$$$$$$$$%%%%%%oo+++@@++.              ",
"        .o++@$@.     ##.XXXXXo..$$$$%%%%%%%%%%%$$$ooooo+++%%%%%%%oo++++o.              ",
"        .o+++@+.     #.XXXXXX.$$$$$$%%%%%%%%%%%$$ooooo++++@@%%%%%%%ooo+o.              ",
"        .oo++@+.     ##......$$$$$$$$%%%%%%@@@@ooooo+++++++@@@%%%%%%%ooo.              ",
"        .Xo++++.     ####OOO.$$$$$$$$%%@@@@@@@+++o++++++++++@@@@%%%%%oo..              ",
"        .Xo++++.      #####O.$$$$$$$o@@@@@@@++++++o++++++++++@@@@%%%$$$%.              ",
"       #.Xoo++o.#        ####.$$$$ooo+@@@@+++++++o.o++++++++++@@@@$$$$%%%.             ",
"      #.XoXooooo.#           .X$$oooo++++++++++ooo.ooo++++++++++++o$$$%%%%.            ",
"     #.Xoo++@$++o.#          .Xooooo+++++++++oooo.#..ooo++++++++++ooo%%%%%.            ",
"     #.XXoo+++ooX.#           .ooooo+++o+++ooo... ##O...oo+++++++++oo@%%%%.            ",
"     ##.XXoooooX.##           .Xooo+++++oooo..#   ###OOO..o+++++++++o@@@%%.            ",
"     ###........## .....#####  .ooo++++++oo.##    ####OOOO.o++++++++++@@@.             ",
"      ###OOOOOO## .+++++.....##.Xoo++++++o.##     #####OOOO.o+++++++++++.              ",
"       ####OO####.+++++++++++..#.Xoo++++o.##     ####OOOOOOO.o++++++++o..              ",
"         #######.+ooooo+++++++o..XXoo+++o.##  #.....OOOOOOO..oo++++++o.++.             ",
"            ###.ooooooooooooooooX.Xoooooo.###..+++++....O..+.Xooo+++o.++++.            ",
"           ###.oooooooooooooooXXX.XXooooo$.#.++++++++ooo.+++.XXooooo@.ooo++.           ",
"           ##.ooooooooooooooXXX..Xoo+$$%$++.+++++oooooX.+oo.Xo+$$$%$++.oooo+.          ",
"          ###.XXXXXXXXXXXXXXXX.O.Xo+++@@@+o.+++ooooooXX.ooo.Xo++@@@++o.oooooo.         ",
"       ######O.XXXXXXXXXXXXX..OOO.Xooo+++o.++oooooooXX.ooooo.Xo+++++o.ooooooX.#        ",
"      #.....##O.............OOOOOO.XXoooo.oooooooooXX.Xoooooo.XXoooo.ooooooXX.#        ",
"     #.oo+++..##OOOOOOOOOOOOO###OO.Xo++@+.ooooooooXX.XXXooooo.Xo++@+.ooooooXX.#        ",
"    #.oooo++++..#################O.o+++@+.oo...oXXX.O.XXXoooo.o+++@+.ooXXXXXX.#        ",
"    #.XXoooo++++..######        ##.o++@$@.X.ooo....OOO.XXXXXX.o++@$@.XXXXXXX.##        ",
"    #.XXXooooo++++.#           ##.+.++@%@.X.Xoooo.OOOOO..XXXX.o++@%@.XXX....##         ",
"    #O..XXXoooooXX.##         ...++..+@$@...XXoooo.OOOOOO.....oo+@$@....OOO###         ",
"    ##OO.XXXXooXX.O##      ...++++o.XX@$@.OO.Xooooo.OO#OOOOOO.oo+@$@.OOOO####          ",
"     ##OO..XXXXXX.##    ...++++++oo.oX@%@.OO.XXooooX.O###OOOO.Xo+@%@.OOO####           ",
"      ###OO..XXX.### ...++++++ooooo.oo@%@.O#O.XXooXX.O#######.oo+@$@.######            ",
"        ###OO...O## .oo++++oooooooo.oo@%@.###O.XXXX.OO#######.o++@%@.#########         ",
"          ###OOO## .XXooooooooooooX.o+@%@.# ##O.XX.OO########.o++@%@.##......##        ",
"            #####  .XXXoooooooooXXX.o+@$@.   ##O..OO..O#####O.o++@%@.#.oo++++..#       ",
"                  #.XXXooooooXXXX..oo+@$@.    ##OO..++..O###O.o++@$@.#.XooooooX.#      ",
"                  #.XXXoooXXXX...O.o++@%@.     ##.++++++..OOO.o++@%@.O.XXoooXXX.#      ",
"           ....   #.XXXXXXX...OO##.o++@%@.      .ooooo++++..O.o++@$@.OO.XXXXXXX.#      ",
"          .%%$$.  #O.XXX...OOO####.o++@%@.     .ooooooooo+++..o++@%@.OOO..XXX..#       ",
"         .%%$$$.  ##O...OOO#####  .o++@$@.    .XXoooooooooo++.o++@%@.##OOO...###       ",
"         .$$$$+.   ##OOO######    .o++@%@.    .XXXXoooooooooo.o++@%@.##########        ",
"        .+$$$++.    #######       .o++@$@.    #..XXXXoooooooo.o++@$@.  ######          ",
"        .oo++++.                  .o+++@+.    #OO..XXXXXoooXX.o+++@+.                  ",
"        .oo++++.                  .oo++@+.    ###OO...XXXXXXX.oo++@+.                  ",
"        .Xo++++.                  .Xo++++.      ###OOO...XXX..Xo++++.                  ",
"        .Xo++++.                  .Xo++++.        ####OOO...O.Xo++++.#                 ",
"       #.Xoo++o.#                #.Xoo++o.#         #####OOO#.Xoo++o.##                ",
"      #.ooXooooo.#              #.XoXooooo.#          ######.XoXooooo.##               ",
"     #.Xoo++@$+oo.#            #.Xoo++@$++o.#            ##.Xoo++@$++o.##              ",
"     #.XXoo+++ooX.#            #.XXoo+++ooX.#             #.XXoo+++ooX.##              ",
"     ##.XXoooooX.##            ##.XXoooooX.##             ##.XXoooooX.###              ",
"     ###........###            ###........###              ##........###               ",
"      ###OOOOO####              ####OOO#####               ####OOOOO###                ",
"       #########                  #########                  #########                 ",
"                                                                                       ",
"                                                                                       ",
"                                                                                       ",
"                                                                                       ",
"                                                                                       ",
"                                                                                       "
};
