/* XPM */
static char *out[] = {
/* columns rows colors chars-per-pixel */
"71 74 14 1 ",
"  c None",
". c #2D312B",
"X c #393D37",
"o c #443528",
"O c #57493B",
"+ c #4C4F49",
"@ c #6D6152",
"# c #7B7061",
"$ c #8E8475",
"% c #868B7C",
"& c #ACA492",
"* c #D2CEBC",
"= c #EDEBDB",
"- c #FFFFF3",
/* pixels */
"                                                                       ",
"                                                                       ",
"                                                                       ",
"                                                                       ",
"                                                                       ",
"                                                                       ",
"                           ooooo     ooooo                             ",
"                       oooo=--==o   o==--=oooo                         ",
"                    ooo=--=*oooo     oooo*=--=ooo                      ",
"                  oo-=**oooo             oooo**=-oo                    ",
"                 o-=*ooo                     ooo*=-o                   ",
"               oo=**o                           o**=oo                 ",
"              o=**&o                             o&**=o                ",
"             o=**oo       ooooo       ooooo       oo**=o               ",
"            o=*&o      ooo==--=o     o=--==ooo      o&*=o              ",
"           o=*&o     oo-=**oooo       oooo**=-oo     o&*=o             ",
"          o**&o    oo-=*ooo               ooo*=-oo    o&**o            ",
"          o*&o    o-=*oo                     oo*=-o    o&*o            ",
"         o*&o   oo-**o                         o**-oo   o&*o           ",
"        o*&&o  o-=*&o                           o&*=-o  o&&*o          ",
"        o*&o oo=**&o    oooooo         oooooo    o&**=oo o&*o          ",
"       o*&o o*=*&oo  ooo=----=o       o=----=ooo  oo&*=*o o&*o         ",
"       o*&oo*=*&o  oo--==ooooo         ooooo==--oo  o&*=*oo&*o         ",
"       o&&o*=*&o oo-==*oo                   oo*==-oo o&*=*o&&o         ",
"      o$&O***&o o-=**oo                       oo**=-o o&***O&$o        ",
"      o$O&**&ooo==*oo                           oo*==ooo&**&O$o        ",
"      o$O&*&&o*=*oo                               oo*=*o&&*&O$o        ",
"       o&*&&o*=*o                                   o*=*o&&*&o         ",
"      o&*&&O*=*o        ooooo           ooooo        o*=*O&&*&o        ",
"      o&&&O*=*o      ooo=--=*o         o*=--=ooo      o*=*O&&&o        ",
"     o$&&O*=*&o     o--=*oooo           oooo*=--o     o&*=*O&&$o       ",
"     o$$O***&o    oo==ooo                   ooo==oo    o&***O$$o       ",
"     o$$O**&o    o-=*o                         o*=-o    o&**O$$o       ",
"     o$O&**&o  oo=**o                           o**=oo  o&**&O$o       ",
"      o&**&o&oo==*oo                             oo*==oo&o&**&o        ",
"      o&*&&O&o=**o                                 o**=o&O&&*&o        ",
"     o$&*&O&o=**o                               %   o**=o&O&*&$o       ",
"     o&&&&OO=**o                               %+X%++o**=OO&&&&o       ",
"     o&*&&O=**o++                              +  XX++o**=O&&*&o       ",
"    o$&&&O=**O*.++ +                         %    ++X.*O**=O&&&$o      ",
"    o$&&&O**O$&.++  +                        +   ++..X&$O**O&&&$o      ",
"    o$$&O**&O$$.+++ +%                       +   +.++.$$O&**O&$$o      ",
"    o$$&O*&O&O.X+++ +%                        +% +X++X.O&O&*O&$$o+     ",
"    +o$O**&O&@*.X+++%                          ++X++X.*@&O&**O$o+      ",
"    +o$O**$O&&&$.X X                         %+  +++.$&&&O$**O$o+      ",
"   +Xo$O**O$$&$$...                               ++.$$&$$O**O$o+      ",
"    + o&**OO#$$$.X+.X%                           ++X.$$$#OO**&oX       ",
"    ++o&**OO###.X++  +                           +..X.###OO**&o+       ",
"     +o&*&O&OO.X++                         %     +++XX.OO&O&*&o+       ",
"     +o&*&O&&@*o++                         +%     ++X.*@&&O&*&o++      ",
"     +o&*&O$&*&&.++    +                    +%%   +X.&&*&$O&*&o++      ",
"     +o&*&O$$&&$. ++   +%% +                 +XX%++X.$&&$$O&*&o +      ",
"     +o&&&&O$$$$.. +  %X+++                %+   XXX.X$$$$O&&&&oXX+     ",
"  + ++o$&&&O$$$#.X.+ %X                    +     + X.#$$$O&&&$oX+      ",
"  %++Xo$&&&O###.X++XXX                           +++X.###O&&&$o++      ",
"    ++Xo$&&&OO.XX+++  +                           ++XX.OO&&&$oX++      ",
"    %+Xo$$&&O&*.X++                               ++X.*&O&&$$o++       ",
"     ++o#$$&&O&*.X+                               ++.*&O&&$$#o+        ",
"     ++Xo#$$&&$&.X++                              +X.&$&&$$#oX++       ",
"      ++oO#$$$$&$.X++   %                       %++.$&$$$$#Oo+  +      ",
"      ++.#O#$$&$$..X+   +                 %   %+++X.$$&$$#O#.+   %     ",
"       +.#$@@&$$$.X.++ %+                 +  %++X..X$$$&@@$#.+         ",
"      ++.##$$$$$#.+ .XX+                  + %+   +X.#$$$$$##.+         ",
"      +.X.##$$$#.X+++ %+                   ++    ++X.#$$$##.X.+        ",
"    + X+++..###.X+++   %+                   +     ++X.###..X++X        ",
"    %X%  ++X...++++     +                   +      ++X.X.X++++X% +     ",
"     +     ++. ++       +                   +%      ++X.X++   %X+      ",
"     +      +.+        +%                    +       ++.++     %+      ",
"     %+      X         %                      +       +X        +      ",
"      %     X%                                         +       +       ",
"            %                                                          ",
"                                                                       ",
"                                                                       ",
"                                                                       "
};
