/* XPM */
static char *out[] = {
/* columns rows colors chars-per-pixel */
"72 74 30 1 ",
"  c None",
". c #1C0000",
"X c #1A0A09",
"o c #231513",
"O c #33261C",
"+ c #2B1E20",
"@ c #372828",
"# c #37292B",
"$ c #2D312B",
"% c #3F2F31",
"& c #393D37",
"* c #4C0C0C",
"= c #493939",
"- c #57493B",
"; c #49484B",
": c #4C4F49",
"> c #49494C",
", c #654C4C",
"< c #7F5F5C",
"1 c #6D6152",
"2 c #7B7061",
"3 c #A03B2B",
"4 c #9D756B",
"5 c #8E8475",
"6 c #868B7C",
"7 c #C2927F",
"8 c #ACA492",
"9 c #D2CEBC",
"0 c #EDEBDB",
"q c #FFFFF3",
/* pixels */
"                                                                        ",
"                                                                        ",
"                                                                        ",
"                                                                        ",
"                           ++++                                         ",
"               O       +  +7777++                                       ",
"              O0O     +7+ +447777+++                                    ",
"              O0O     +7+  ++4444777+++++++                             ",
"              O9O     +7+    ++4+4477777777++                           ",
"              O9O    +47+ X  > +4+44477777774+                          ",
"              O1O    +47#X@..  +4+%44477777774+                         ",
"              O0O    +47#X@3.++#4+,%,444777744+                         ",
"              O90O   +47#Xo@X,,#4+,<<,,<4444444+                        ",
"              +-9-++++474#Xo@X#44+<<<<<<<<44444+                        ",
"       OO     +-9,7+4+<44#4Xo@.44+,<<<<<<44444<+                        ",
"       O0O    +++447+%<<44#Xo*3..+,,,,<<444444<+    .                   ",
"        O0O   ++ +4477%<<.<Xoo.+7+,%,47444444<<<+   .                   ",
"         O9O X+++,%4477,<<.*oX%+77+777444444,<<<+  .3.                  ",
"         O10O-++77<%<444,<.3oX%+4777744444#,<<<,+ Xo*@X                 ",
"          O999+74444+<<<<+<XX<%+4447444+++<<<<<,#XXoo@X                 ",
"          X-O9+,<<++,++++ XoX+%++444+++ +,<<<<,,#O XXo@X                ",
"      .  XoX O+O+++ +,+   X3> +  +++,+  +,<<<<,#2O   XoX                ",
"       ..oX   +  ++ +,+   X*. +    +,+  +,<<<,,#5O    XX .              ",
"       .3X    +  ++ +,+   XX .+    +,+  +,<<<,,#58O   X*.               ",
"        XX    +  ++ +,+  XoX  +     ++  +,<%<,,#88O   X3.               ",
"        XX    +  +  +<+  XX         ++  +,,%<,#289O   XX                ",
"         X    +  +  +<+  XX         ++  +,,%,,#5899O XX                 ",
"        .3X   +  +  +<+   .X        ++  +=,%,,#5890O XX                 ",
"        ..XX     +  +<+ ..3*X       ++  +=,%,,#-890O XX                 ",
"       .   X     +  +<+   .XoX   .  ++   +,%,=#2-89qOXoX                ",
"          XX     +  ++      XXX..    +   +=%,=#2-890-XXX                ",
"          X      +  ++        X3.    + . +=%,#55--89-X X                ",
"         XX      +  ++         XX    +  .+=%,#85--89XX XX               ",
"         X       +  ++          X    +  .+=%,#85-O8XXO XX  .            ",
"                 +  ++         .3X   +  X+=%=#8.O OXXO  X..             ",
"                 +  ++         ..X   + XX+%=##98.>XX9O  X3.             ",
"                 +  ++        .  XX   XoX+%=##98.3X89qO  XX             ",
"                 +   +            XXXXoX +%=##09-XX-90O  XoX            ",
"                 +   +            XoooX  +%#8#09XX O90O   XX            ",
"                     +             X*X   +%#8#0XX  O99O   XoX           ",
"                     +             .3.   +%#8XXXO  O998O  XXoXX         ",
"                     +              .    +.XXoX3>   O98O XX Xo@X.       ",
"                     +              .   ..3*oX0.>   O88O XX  Xo*3..     ",
"                     +                    ;@X909->  O58-XX  6Xoo.       ",
"                     +                   :X@X9q9O   O585+   :XoX:6      ",
"                     +              :   ::XoX9q0O    O55+  :&XoX&&:     ",
"                     +               :.:&&XoX90qO    O5#,+: ::X:6       ",
"                     +                6..XoX99909O   O2#,+&:::& :       ",
"                                  $$XXX*3oXO89909O   +#,,=+::&&&&       ",
"                               &&$ XXXXXXX&O89999O  +,,,==+$& 666:      ",
"                              :  6XX:::&&$$O88998O  +,,,==$ :           ",
"                                  X3> ::$&&$588888OO#,,==$::            ",
"                              XXXXX..  :$ :&$58855522#===$$:::   :      ",
"                             XXXX    .:$:::&&$$--2222#==$: &&&  :6     :",
"                            X         $: :::&&&$2222#=$$&::: 6&:6      6",
"                                     &:6   ::&&$$$$$$$&&::    6&        ",
"                                    &6      ::&$&&&&$&&::      6&       ",
"                                    :6       :$& :: &$&::       :       ",
"                                    :        $::::::: $:       :        ",
"                                            $:       ::$                ",
"                                           &6         $6$    :          ",
"                                     :   &&:         6& 6$$&&           ",
"                                      ::&6 6:        &    666&          ",
"                                      66    6::     6&        &         ",
"                                                   ::6:       :         ",
"                                                      6                 ",
"                                                                        ",
"                                                                        ",
"                                                                        ",
"                                                                        ",
"                                                                        ",
"                                                                        ",
"                                                                        ",
"                                                                        "
};
