/* XPM */
static char *out[] = {
/* columns rows colors chars-per-pixel */
"47 32 14 1 ",
"  c None",
". c #2D312B",
"X c #393D37",
"o c #443528",
"O c #57493B",
"+ c #4C4F49",
"@ c #6D6152",
"# c #7B7061",
"$ c #8E8475",
"% c #868B7C",
"& c #ACA492",
"* c #D2CEBC",
"= c #EDEBDB",
"- c #FFFFF3",
/* pixels */
"                                               ",
"                                 +             ",
"                                  +%%          ",
"                        %    %+   ++++         ",
"                       %++   +    X   +        ",
"                       +  X ++% +X             ",
"                      +   %X ++++X             ",
"                           ooooX.++            ",
"                         oo*&&$.X++            ",
"             oooo      oo=***&&$...+ %         ",
"           oo=***oo  oo==***&$$$.XXXX+%        ",
"         oo=*******oo****&&&$O..X+++  +        ",
"        o-=*&&&&#@O&&**&&&ooO.X+.+++   +       ",
"       o-=*&&&#=***O&&ooooXX.X +.++    +       ",
"      o-=*=*==****&oooXXX++.X++++X     %       ",
"     o--==*&&ooooooXX++X+++X++  +X             ",
"     o-==*&&oXX+++++++++% X++    X%            ",
"    o*-=*&&oX++++         X       X% +         ",
"    o&=*&&oX+++          X%       +++          ",
"   +o&*&&oX++         +++%        +            ",
"   +o&&$o++            % +%      +%            ",
"   +o&&$o++               +++                  ",
"   +Xo$$o+                                     ",
"   +Xo$o++                                     ",
"   ++o$o++                                     ",
"    ++oo++                                     ",
"     ++o++                                     ",
"      ++o+                                     ",
"       ++++                                    ",
"        ++++                                   ",
"           ++                                  ",
"                                               "
};
