/* XPM */
static char *out[] = {
/* columns rows colors chars-per-pixel */
"54 47 24 1 ",
"  c None",
". c #180D0B",
"X c #231513",
"o c #251A10",
"O c #281B19",
"+ c #2D201E",
"@ c #332920",
"# c #372828",
"$ c #393D37",
"% c #443528",
"& c #42322E",
"* c #443B30",
"= c #5B4338",
"- c #57493B",
"; c #52493D",
": c #4C4F49",
"> c #645B4E",
", c #715F49",
"< c #7B7061",
"1 c #8E8475",
"2 c #ACA492",
"3 c #D2CEBC",
"4 c #EDEBDB",
"5 c #FFFFF3",
/* pixels */
"                                                      ",
"                                                      ",
"               %%%%                                   ",
"                %%4%%%                                ",
"                  %445%                               ",
"          %%%%%    %345%                              ",
"         %45544%%   %344%                             ",
"          %%%%344% %-%344%                            ",
"              %234%12-234-%%                          ",
"               %233-22-234-3%%                        ",
"          %%% %<%23-32-223-443%                       ",
"         %433%<<1--3332-23-4443%                      ",
"          %%2-<12233433-22-34443%                     ",
"            %<1223344433--33454<%                     ",
"            %<12333-444443344543-%                    ",
"            %<12-3--344-444455433o                    ",
"            ..1--23-33--445555543oo                   ",
"           .#&X2-222223-33-44454-oo        .          ",
"          .#&&=X112111223--333443o;o      .=.         ",
"         .##OOOX1111ooo112-23-3443oo      .O.         ",
"         .#O&===X21o@@@oo122--33432%      .&.         ",
"         .O&&=,=X23o@@**@o122-2333o2%    .=O.         ",
"        :.#&=OOOX23o@****@o122222o@o3%...=&&.         ",
"       ::.#OO=,=X23o@**;;**o12222o@*ooO&&O#.          ",
"       :.#O&==,=.234o*;;>;**o1222o@***oO##. %%        ",
"      ::.O#&&=OO.1234o*;;>;*o1122o@*;;;oO.:  %%       ",
"      :$.+##OO,=.%2233oooooo111122o*;>>>o$:  %%       ",
"      :$.+#O&==,.$%2233333221<1.123o*;>o2%:  %4%      ",
"      :$.+O##&OO.$$%%222222--<.=.134o*;>o%:: %3%      ",
"      ::$.###O==.$$$$%%%%%%<<<.&.2134o;;>o$%%33%:     ",
"       ::.++O#&OO.$$$$$$$$$%<.&.112-oo*;;>o122%::     ",
"        :$.O##O&=.$$::::::::.OO.<122-4o*;;>oo%$::     ",
"        ::$.+O#&O=.:::     .=&O.-<123-4o*;;;;o$:      ",
"         ::$.O#O&=O..    ..OOO.-1-112-3o@*;***o:      ",
"          ::$.+O#O==O....O=&&.$%12---33oo@**ooo::     ",
"           ::$.O#O&O=O=O=&OO.$:$%123332o3o@@o$::      ",
"            ::$..O+O&O&&O&#.$:::$%1222%233ooo$:       ",
"             ::$$..O++O##..$::  ::%%%%$%%%%$::        ",
"               ::$$......$:::    ::$$$$$:::::         ",
"                 :::$$$$$:::       :::::::            ",
"                  ::::::::                            ",
"                                                      ",
"                                                      ",
"                                                      ",
"                                                      ",
"                                                      ",
"                                                      "
};
