/* XPM */
static char *out[] = {
/* columns rows colors chars-per-pixel */
"32 34 10 1 ",
"  c None",
". c #393D37",
"X c #443528",
"o c #57493B",
"O c #4C4F49",
"+ c #8E8475",
"@ c #ACA492",
"# c #D2CEBC",
"$ c #EDEBDB",
"% c #FFFFF3",
/* pixels */
"                                ",
"                                ",
"                                ",
"                                ",
"         XXX                    ",
"        X%$$X                   ",
"       X%$$##X                  ",
"       X$###@@X                 ",
"      X##@@@@+XO                ",
"     OX@@XXX+ooX                ",
"     OX+X...X%$$X               ",
"     OOXOOOX%$$##X              ",
"      OOO X#$$##@XO             ",
"       O  X@###@@oXXO           ",
"         X@@@@@@o%$$XO          ",
"        OX@XXXX+o$$##XO         ",
"        OOX.OO.X$$##@oXO        ",
"         OOO OX@###@@o%XO       ",
"          O  OX@@@@@o%$$XX      ",
"            OX@+XX++o$$$##X     ",
"            OX+X..Xo##$##@@X    ",
"             OXOOOX@@###@@+XO   ",
"              O  X@@@@@@@+XOO   ",
"                OX@+XXXX++XOO   ",
"                OX+X....XX.O    ",
"                 OXOOOOOOOO     ",
"                 OOO            ",
"                  O             ",
"                                ",
"                                ",
"                                ",
"                                ",
"                                ",
"                                "
};
