/* XPM */
static char *out[] = {
/* columns rows colors chars-per-pixel */
"83 59 28 1 ",
"  c None",
". c #1C0000",
"X c #1A0A09",
"o c #231513",
"O c #1E211D",
"+ c #2D231A",
"@ c #282E2D",
"# c #372828",
"$ c #4C0C0C",
"% c #403429",
"& c #443528",
"* c #35413D",
"= c #57493B",
"- c #54493C",
"; c #574C3E",
": c #605546",
"> c #6E6456",
", c #726757",
"< c #617068",
"1 c #7B7060",
"2 c #A03B2B",
"3 c #847A6B",
"4 c #A29989",
"5 c #A79E8D",
"6 c #B9B29F",
"7 c #DBD8C6",
"8 c #EDEBDB",
"9 c #FFFFF3",
/* pixels */
"                                                                                   ",
"                                                                                   ",
"                                                                                   ",
"                                                                                   ",
"                                                                                   ",
"                                      &&&&&                                        ",
"                                     &77777&                                       ",
"                                &&&&&7788877&                                      ",
"                         .     &7887&78898876&                                     ",
"                         .    &789987&899987&&&&&                                  ",
"                        X2.  &67898776&8987&56788&&                                ",
"                   .   X#o. &>&67877766&87&56788999&                               ",
"                    ..X#XXX &=66677766&&&&&667788988&       .                      ",
"                    .2oX  XX6%56&5666&77777&67778877&       .                      ",
"                     XX    XXX5=>&56&7788877&7777666&     X.2.                     ",
"                    XoX    &XoX5=&5&778898876&776&&&&    Xo#.                      ",
"                    XX &&&&&&XoX&&.&678999876&&&&5.>7&  XXXo#X                     ",
"                     X&7777&33Xo..&&677898776&887&7..& XX  XoX                     ",
"                     &7788&8831X2.:&567787765&9987&.2XXX    XoX                    ",
"                .   &,788&67881XooX&5%%777%%5&89876&XX       XX  .                 ",
"                .   &6789&&7766,XooX5%>%7%>%5&7876&XX &&&&    X..                  ",
"               .2.  &677&&=76%%::XoX&6=6=6=6&77766.oX&8999&   X2.                  ",
"               X$X  &5&&8&78%>%6::XX&&67776&6665..2.X&88988&  XX                   ",
"              XoXXXXX&99&7=77=666:;X&6&676&5665&>=.1X&788876& XX                   ",
"              XX   XXXXX&777666655;X66&&&&&5555&+;,,XX76677&&XX                    ",
"             XoX    &7.oXXXX5&55.5&XX77888&5555556:7X2.%%67=&X                     ",
"            XoX     &.2.77XXXX..&&5XX788988&&555&555X$.%>%87&                      ",
"            Xo.   &&76.;&,,:XX2$X55:X7899987&&&&8&&&XoX.=77=7&                     ",
"           Xo.2..&777,.:5&::::XXXXX;XX789887&788.9&XoX:666777&                     ",
"          XoX . &78887,665&6:&&&&XoXoX778877&7788..oX;;;&566&                      ",
"       . X#oX  &,88988,6655&&711,&XXo#X7777%&7771.2X&&&&6&&&7&                     ",
"        .$oX   &78999876655&78998,&-.ooX%7%&.777X#oX&566778887&                    ",
"        .2oX   &7889877655&6789877:.2.XoX6=&.67X#oX&55667889887&                   ",
"       X#oX    &778877665&>&67877766.&:XXXX.2.X#oX+&55667899987&                   ",
"      X#ooX    &%77776655==66677766;.&;:,Xoo$##o.:,&55567789887&  .                ",
"      .ooX      &%7%%=55&6%56&566665&7&&&&XXo#o.2..8&4566778877&  .                ",
"    ..2$oX      &=6==6.&&XX5=>&5665&,8998,&;XoX&.&&7&455667777%& .2.               ",
"      .XoX    . &77776.8X#oX5=&555&6778987:&&X,1333&7&455=%%7%&XXo.                ",
"        XXX ..  *&776.2.oXXoXX&&&&.6777876&&:,,81988&7&&56==6=&XoXXXX              ",
"          XX2$X**@&&&&.#X&;XXXXX..&66777&&&&6,7788876&89&67777&XX@@XX              ",
"           XXooX*@&7>X#oX:&&,,Xo2.,&666&7887&6776677&&99&5677&@@@@.2#X             ",
"         *   X#X@@&8X#oX:5&,,11XXoX6&6&789987&66%%67=&898&&&&@@***..oX             ",
"        *   *X#oXXXXooX::>&678333XXXX&67789876&6%>%87&787765&@** .**XX  .          ",
"        *   *.##oXXX2.::5>&677831,,XoXX777876&>&6=77=7&77%%5&@**   **X..           ",
"        *@ ..2$#X@&,..:5&&&567787,:.2XoX777666==666777&7%>%5&@**    *X2.           ",
"       <*@***.o#oX@&&&.&@@&5%%777%%..;XX665&65%6&&566&6=6=6&@***    **XXXX         ",
"        <*O @@Xo#X@@@@O@@@&5%>%7%>.;&;;XX5.>=587&@&&&67776&@***       ****X        ",
"          *OOOOXooX@@O@**@@&6=6=6=6&&5;X$.&=5777&@@@@&676&@****                    ",
"         *@***@XooOOO*****@@&67776&@@&5X2.;56675&@**@&&&&&****                     ",
"        *<   **@OO***@   **@@&676&@@@@&XX;5&555&@************                      ",
"        *     @O@O**  @   **@&&&&&@**@@XX&&@&&&***                                 ",
"        <*  *@O@**@   *<   **@@@@@****@XX@@@@@***                                  ",
"         <   <@* **@*       *******  **@XXXXX**                                    ",
"              @   @<                   *@@XXXXX                                    ",
"              <@* <                     *******X                                   ",
"               <                                                                   ",
"                                                                                   ",
"                                                                                   ",
"                                                                                   "
};
