/* XPM */
static char *out[] = {
/* columns rows colors chars-per-pixel */
"69 92 19 1 ",
"  c None",
". c #1C0000",
"X c #1A0A09",
"o c #231513",
"O c #1E211D",
"+ c #2B201E",
"@ c #282E2D",
"# c #372828",
"$ c #4C0C0C",
"% c #35413D",
"& c #47413E",
"* c #4F5D4F",
"= c #5D5754",
"- c #5E5855",
"; c #617068",
": c #A03B2B",
"> c #807268",
", c #AEA295",
"< c #E4D3B3",
/* pixels */
"                                                                     ",
"                                                                     ",
"                                 .           +                       ",
"                                 .        +++                        ",
"                                .:.X  + XX                           ",
"                                X$XoX+ +*XX                          ",
"                               X#X XX +,+ X                          ",
"                     +       .XoX   X+,+  X                          ",
"                      +    ..:$X   +XX+X                             ",
"                       +     .X +++,+X X                             ",
"                        +     X+,,,+ XXX                             ",
"                        +     +<,++   X                              ",
"                         +   +<,+                                    ",
"                         +  +<<+                                     ",
"                         ++ +<,+X                         +          ",
"                         ++ +<+ X   .                    +           ",
"                         ++ +,+ X ..                    +            ",
"              +          +,+,,+ XX..                   +             ",
"               +         +,,<,+ XX                +    +             ",
"               ++        +,,<+  XX                +   ++             ",
"               ++         +<<+  XX                +  ++              ",
"               +<+        +<<+ XoX                + +,+              ",
"               +<+        +<<+Xo:.   +            ++,+        .      ",
"               +<+       X+,<+XX..   +            +&<+      ..       ",
"               +<+       X+,<+    . ++            +<+   XXXX:.       ",
"               +<+       XX,<<+     ++           +<+   XX&&XX        ",
"               +<<+    +  X>,<+     ++          +<+  +XX&,++++       ",
"               +,<+     + XX>,<+   +,+     .    +<+ +<X,,+ XX        ",
"                +,<++    +&X&,<<+  ++      .    +,&+<,X&+  XX        ",
"        +        +<<,+    +X,,,<<++,+     .:.   +,=<,.oX  Xo.        ",
"         +       +,<,=+    XX+,,<<=<+   XXo$X  +,<,..:$X  X$:..      ",
"          ++      +<<=>+    X +,,<<<+  X#oXXXX +<,>+ .oX  Xo.        ",
"           ++     +,<,=+    X  ++<<<<+XoXX   XX<,>+   XX  XX         ",
"           +<+     +<<=>+  XX    +<<<<&X     +XX++   XoX   X         ",
"            +<+    +<<==>+ X.     +<<<<+    +<>X     XoX   X         ",
"            +<+    +,<,==>X$:..    +<<<+   +<>+XX   X#:.   X         ",
"            +<+    +,<,.=>Xo.       +<<<+ +,>+  X  X#X..   X         ",
"             +<+   +>,,=..oX        +,<,&+,>+   XXXoX   .            ",
"             +<<+  +>,,=.:X>+       +,,,&,,+     .oX                 ",
"              +<<+ +>>,==XX>>+      +,,,=,+     .:.      +           ",
"              +,<<+&->>,XoX=>+     +>,,=,,+  .   .      +            ",
"               +,<<,&>>X#X===>+    +>,,>,+X..    .     +             ",
"                +,,<&->.oX=====+   +><,,>+X:.         +              ",
"                 +>,<..:$X====.=+  +=<,,>+ XX        ++              ",
"                  +>,<=.oX&===.X+  +=<,>>+ XX   +   ++               ",
"                   +>,,=XX&=>.:$XX +=<,>+   XX +   +,+               ",
"                    +>,,,XX=X#$oooX+=<,>+   XX +   +,+               ",
"                     +>,,XoX#ooXXXX+=<,>+   XX+,+ +,+                ",
"                      +>,X##ooX&+ +==<,+   .oX+,+ +,+                ",
"                       +X##$:X&&+ +==<,+ ..$:X +,+,+                 ",
"                       X##o..&&=+ +==<,+   .oX +,,,+                 ",
"                  .   X#ooX,,.&=>+>=&<,+X  X#X  +,,+                 ",
"                   ..X#ooX,,,<&==&>=&<,+XXXo#X  +,,+                 ",
"                   .:oooX>>,,<===>>=&<,+ Xo:.   +,+  ++              ",
"                    XooX +>>,,===>==&,,+  X..  +,,&++,,++            ",
"                    Xo:.  ++>,&==>==&,>+     . +,==,,++              ",
"                   Xoo..    +,&=====&,>+      +,>>,++                ",
"                   XoX  .   +,<&====&,>>+    +,>>++                  ",
"                    XX       +<&&==&&,>>+   +,>-+                    ",
"                    .:X      +,<&&=&&<,>+  +,>-+                     ",
"                    ..XX  .  +,<,&&&&<,>+ +,,-+                      ",
"                   .   X..   +,,<&&&&<,,>+,,>+                       ",
"                       X:.   +>,<<&&&<<,>&,,>+                       ",
"                        XoX   +,,<&&&&<,,&,>+                        ",
"                         XoX  +>,<<&&&<,,>,>+    .                   ",
"                          XoXX+>,,<<&&<<,>,,+ X..                    ",
"                           .:oX+,,<<<&&<,,,<+Xo$:X                   ",
"                           .:#X+>,,<<<&<,,<<<+XXXoX                  ",
"                          . X#oX+,>,<<<&<,,<<<+  XX                  ",
"                             X#X+,>,,<<<=<,,<<+   XX                 ",
"                .            X#oX+,>,,<<=,,>,<<+   XX                ",
"              ..            XooX +>>>,,<<,,>,,<+%   XXX              ",
"            XX:$X      .   XXXX%%+&>>>,,,<,,>,,+%%     X             ",
"        . XX#ooooX     . XXX  %++<,&>>>,,,<,>>,>+++                  ",
"        .X##ooXooXXX  .:.oX %++<<,.,=>>>,,,,,>>,<<<+%@@%             ",
"   %   .:$#oXX .. XXXXo$XX%%+>,<,,.-->>>>>,,,,>>,<<<+  ;%           X",
"   ;% X#$ooX   ..    XXX%OO+->>,,.:.--->>>>>,>->,,<,,+               ",
"    ;X##ooX   .        XX%@@++++Xo$X==----==>-=->>,,>+               ",
"%  %X#oooX%;    %    %%;XX%O@@@XXXo#X>=--=>,<<,=+++>>>+              ",
" %%OXooXXOO%% %%    %;  XX %%@XX+<XX#X>-->,<<<<+@@ +++O   %          ",
"  ;%%XX@%% ;;%;          XX %XX@+,,>XoX>-&>,<<,+@%%%%%O%  @          ",
"    %%O%%    %           XoXXX@+,,>>+XX+++>>,,>+@%%  ;%@@@;          ",
"   %; ;O    %             .:X%%+>>++@XoX@@.>>,+@%%    ;@;            ",
" %%;   ;%%                ..  %+-+@%%%Xo..@+>>+%%      @             ",
"  %     %                   . %OO %%%%%X:.%%+>+%      @              ",
"   %   %                      O%%O    %%X%%  +O%      %              ",
"                              @  ;@@@   XX  O  O%;    ;              ",
"                           @@@;   ;%;    XX     @@@                  ",
"                         %@;  %    %      XXXX  @ ;@%                ",
"                                  %;          X %                    ",
"                                                ;                    ",
"                                                                     "
};
