/* XPM */
static char *out[] = {
/* columns rows colors chars-per-pixel */
"64 64 75 1 ",
"  c None",
". c #4C2611",
"X c #4E2A14",
"o c #4F2C19",
"O c #502C15",
"+ c #512E19",
"@ c #53321D",
"# c #543521",
"$ c #583621",
"% c #553825",
"& c #593A25",
"* c #563C2B",
"= c #5B3E2B",
"- c #603B25",
"; c #5C412D",
": c #574233",
"> c #5C4433",
", c #5C4836",
"< c #5D4739",
"1 c #5D4B3D",
"2 c #60412C",
"3 c #624531",
"4 c #654936",
"5 c #644C3B",
"6 c #684D3A",
"7 c #67523F",
"8 c #69513E",
"9 c #5C4E41",
"0 c #5E5144",
"q c #5E5448",
"w c #614F41",
"e c #635444",
"r c #695443",
"t c #665847",
"y c #6C5A47",
"u c #635649",
"i c #695749",
"p c #655A4B",
"a c #6C5C4B",
"s c #715E4C",
"d c #655D52",
"f c #6B5E51",
"g c #6E614F",
"h c #71604F",
"j c #676056",
"k c #6C6255",
"l c #6C655A",
"z c #6F685C",
"x c #736354",
"c c #766856",
"v c #716759",
"b c #736A5C",
"n c #796B5C",
"m c #6F6A60",
"M c #746E62",
"N c #796E61",
"B c #767164",
"V c #797366",
"C c #777368",
"Z c #7A7669",
"A c #7D796C",
"S c #7F7C71",
"D c #807566",
"F c #81766A",
"G c #817B6E",
"H c #827E72",
"J c #858275",
"K c #898476",
"L c #878479",
"P c #89867A",
"I c #8C897C",
"U c #8E8C81",
"Y c #918E83",
"T c #939185",
"R c #9A978D",
/* pixels */
"                                                                ",
"                                                                ",
"                                                                ",
"                                                                ",
"                                                                ",
"                                                                ",
"                                                                ",
"                                                                ",
"                          czgcccnnccchy                         ",
"                          IJPPPKPKPKPKG4                        ",
"                          IPKPPJGGnKKKI4                        ",
"                      ;;;6IKPPIbxkbPPKI6O;;                     ",
"                  43ccDJJhIKKPIbKMDIKPI8kGAcn&2                 ",
"                  AKLD32,3IIKIKIIYIIIII4343ZHJK2                ",
"               6VZHD7bJKKcIKPIIIPPIKPPI4LLLNhsJ222              ",
"             6APKA77VJJJKnKKPIIIIIIIPII8KKPLKJ8JVZ84            ",
"           -vPHPaNGHZJKJJP,IIIIIYYTYIPnGJSLLPPPV4GGGN$          ",
"          -YPUF6FHHJKKJKPg&IIBgzbzzzYTnJLJJLLLJPK;hGLH@         ",
"         =xuZHcPHJJJKKKIz,#ggggyaassMMpVAUUSSSSSJJA7LuF@        ",
"        rUHUfrHHPHHPPKApddO,1;#%=;>>wfwBCCSPPSJSJJHb=YHI6       ",
"       3HHHHNHHHLLLPjqqdOOt77gczvnvBke141VBMCUSSSJHHZeKJHs      ",
"       aHHNsPHUPPLPmq1:%gpzcbzzbbBBBCVeeBtidmzPJSSSSSnhHGn      ",
"       HZGiPUHPYPTp11;pkzcbbbbbBBBVVCpSAbBZVillULLSSJJ+GHHO     ",
"      4xxxrNmUUYTz1**kvzbbBbbBBBBBBClZBBBBBMktdlIPJJMbbrxcx&    ",
"   JUPHHHSSCA4eeJ1o7kbbbbAAAAAHAHHJakJSJHBMMZC3gH466HIIIKHHKHHP ",
"  sPPHHHHSSSHHHZt*1jbMbkke00etttptptppaqpNBBCCV7iTIIHHHHHKJKKKI ",
"  sJHLHHJSSSHHHHg#zMbzzM1tBBBbBBBBBBBBCAddSMBZCbwYHHHHHHKKHKKHK ",
"  sKHHGNAJHHHHHI@7zMzzMBqkBbbBBBBBBVBCCCzflMCCCZ-mIHHHIHKNnKKKI ",
"  sPLJNPCHHLHHHH,pmBmBtmtzBBBBBBVCVVVVBVvfvMMCMCC=PHHIIHHDHDKKI ",
"  sPLLbFMLJLLLIH,pBmMBSqtlBBBBBBCVVVVVVBNfbMMMCMC=HHHHHIHDFcKII ",
"  sPLLZiNPPLLLPH,pBBBBCBdzBZAAABCCZZZVVCmkNCCCCCF=UHHIIHIrrIIKI ",
"  sIPPPIIPLPLLLH,pBBBBCAgbCCAAAZCAZZZZVVmxCCMCCCZ=PPIHIIIIIIIII ",
"  sUUPPIPPPLPPPH,pCCCCZCkbZZZZZZAAAZZZAAMlVBBBBmz;PKPLPIIIIPIIP ",
"  sYUIPPPPPPPH5<@gCCAAACkMZZZZAAAAZAAAAANvZZBBMz,1avPPPUUIFFGIP ",
"  6UUPPLPLNxvNUL7gAAASAClMZZAZAZAAAAAAAABlZZBBzz4PLAfiiiHLLPLPG ",
"  >Mjjjjjl5TLHJHHkBSASZZkBZZAZZAZAAAAAAACzZCVZC7AASFHH4bdfdjddx ",
"  *juvxxat3HHHLHJJcMASAZvkVVVVZVZBZBBZBBkvZZZVtMASHSAH=fkxxvwdf ",
"  =j1KHHAM5eUHJJJJKVVGGZSBzvvvzvzbcbcgzczSZZZekPHHHHSH+ZGLPU+ld ",
"   O.9PHSAF%vUPHLLLIvxASZASSASHGAJHBBbAASAZaaNSJLLHHC=NSJJPCXo  ",
"     oMHHHAN1mULLLPPJJ4gSSZZAAAAAAZAAHAAZZ>JLJLLLLLS9=NHLLI*    ",
"      1USHSA3lCFPLPPLLJBsysAAAGGAAZZDDZgggPPPPLLPPV9#aNHPP9#    ",
"      :dPHvrw#mvgTPPPLJJKDD3446666644BgAJKPPPPULYH0<fa5PPM9     ",
"       :mFHLZNrmzJIPPKJJHKDGKIKKKJJJJccJKLPPLPUIdu:aMAZva1      ",
"       OqMPJHHH-gzzTIKKJKGsKKIKKKJJJJJNAJJPIITzqu%NGFAZM#=      ",
"        @BMULSJLn4kzZZIIKcYKKKKKKKKKKJI7JYINNqt;uZGGAHk9o       ",
"         #lzILLLPI44gkggIDIIKKKDJJDKJKI7Iagpt0&ZVAFAHb1*        ",
"          %lzCILIKDAk&;gy8IIIIIDKIDKKKI77g>@yVABGGHAq9#         ",
"           X1mzIPnJJJJV#-2RIIIIIggKIIKI7@&gAJLPJFHd0<.          ",
"             %uzwHYUHSSAAsTIYIIKIIKIIKY5gJJJKKULepqo            ",
"              .@<MjMPLHSFxRYYYIIIIIIIIT7gJJJJA09*<.             ",
"                 #pdddllf4SABMMMNMbbZZC&,ggqe19o                ",
"                  X%99dpu*MljzjjjljjddmX>t7,,;.                 ",
"                      @+ooMljdddddjdjplXX++                     ",
"                          MdeuddddddddjX                        ",
"                          XXXXXoXXXXXXX                         ",
"                                                                ",
"                                                                ",
"                                                                ",
"                                                                ",
"                                                                ",
"                                                                ",
"                                                                ",
"                                                                ",
"                                                                "
};
