/* XPM */
static char *out[] = {
/* columns rows colors chars-per-pixel */
"64 64 60 1 ",
"  c None",
". c #4C2710",
"X c #4E2812",
"o c #4F2D19",
"O c #502B14",
"+ c #512F1A",
"@ c #53321D",
"# c #563520",
"$ c #583721",
"% c #5A3B24",
"& c #5D3E2A",
"* c #5E412E",
"= c #5F4331",
"- c #554639",
"; c #564A3E",
": c #60432F",
"> c #614533",
", c #634936",
"< c #624C3C",
"1 c #574C42",
"2 c #5A4E43",
"3 c #5C5246",
"4 c #5E544A",
"5 c #604E40",
"6 c #625346",
"7 c #61564C",
"8 c #62584E",
"9 c #695A4D",
"0 c #655E53",
"q c #6A5F54",
"w c #676056",
"e c #696157",
"r c #676158",
"t c #6B655C",
"y c #6E685F",
"u c #70665C",
"i c #72695E",
"p c #6E6960",
"a c #726C63",
"s c #796F65",
"d c #757067",
"f c #7A7066",
"g c #767168",
"h c #7A756A",
"j c #7E7A71",
"k c #80766B",
"l c #837D74",
"z c #858176",
"x c #898176",
"c c #868479",
"v c #89867A",
"b c #8B897E",
"n c #92897F",
"m c #8B8781",
"M c #8E8B82",
"N c #918C83",
"B c #939088",
"V c #98958D",
"C c #9B9790",
"Z c #9E9A92",
/* pixels */
"                                                                ",
"                      ==>>===****   ,,,>>>>                     ",
"                     &xMbbmvcczd<*&&hbmMbMz>                    ",
"                    #lMmcczczzhttppvvzcvzMMx#                   ",
"                    $zvzcccczjhhcBBvvccccbbx$                   ",
"                    &zcccccczjMMvcccvcccczvx$                   ",
"                    &xvcccccvbccvvvcvcvcvvvv%                   ",
"                    &xvvcvvvvvcvcvcvcvcvvvvv$                   ",
"                    *vbvvvvvvvvvvvvvvvvvvvvv@                   ",
"                    %nvvvvvvvvvvvvvvvvvvvvvb*                   ",
"                    %nNMvvvvvvvvvvvvvvvvvvbn*                   ",
"                    %NNNvvvMbvvvvbvvvvvbvvbn:                   ",
"                    *nBMbMMNNvvvvvvvcvvbbbbn*                   ",
"                    %bNMMMNvvmvvvvvvvvvNBnnn*                   ",
"                    %iCMNNvvmllmvcvvbbNNnBVu:                   ",
"                    *ihCZZZVVVCVCVVVVCZZZZae*                   ",
"                    O9wMgagagayytpppaaameee6O                   ",
"                    O9tMggaytyyyptppaaaammq6O                   ",
"                    O8lgggatyyyytppppptaddl6O                   ",
"                    O8cggaayyttqqqqtpppaaaaaO                   ",
"                    Oqlgfyyytyt8777qptppaaauO                   ",
"                    OfgaatytyypaqqpptpptppapO                   ",
"                    Osgyyyytyyt0rr0pptpttpppO                   ",
"                    Osgatyyyyt00ap80tptpttuiO                   ",
"                    OssgayyuptttppttptytytpiO                   ",
"                    OsaaapyyptpptpapyyyyptppO                   ",
"                    Oadatttyppq8qpqrityyytpiO                   ",
"                    Oaattttyppq80rryyyytyypiO                   ",
"                    Oaptqtppprq0t0rtyyyytyyiO                   ",
"                    Oitqttqpppq8paqrytytyyyuO                   ",
"                    Oittqttptp08uaqqtyytytpiO                   ",
"                    OiuypqqpptppppaayyytytyiO                   ",
"                    OutttqtttytyttptppttppppO                   ",
"                    Optttttttt03643qtttppqpqO                   ",
"                    Outttttttypppp70tptpppppO                   ",
"                    Optttttttt03444qtttppqpuO                   ",
"                    Ouytqrtttt04ttrqttppprpp+                   ",
"                    Outtttrtrt00q77rqrttppppO                   ",
"                    OuttrtttttpttaatrrrrqppiO                   ",
"                    Xytrtttrrtr8777rrrrqqpppO                   ",
"                    Oieetrtttw840r77rqrrytt<                    ",
"                    Outtrtwtrt08tr0qrrrttt4O                    ",
"                    Xutqtrtrtt4400trrrrtu7-X                    ",
"                    Xtttrrrrrr017t700rrtt2-X                    ",
"                    Xutqtwwwrrtttrrrrr0t73p9X                   ",
"                    Xuttrertrrrtqrrrrrr7aapuo                   ",
"                    Ottqterrrrr42270q07atttuO                   ",
"                    .tpptrrrrr84ap77rq0rtrtpO                   ",
"                    Oytyeewerr444844wwwwteeuX                   ",
"                     .qteewwrw04tr38wwwwwetuO                   ",
"                     X-;0wrwwrr0118twwwwwwtyX                   ",
"                     $333wwwwrrtpptwwwwwwweyX                   ",
"                    .udda4wwww040r8wwwwwwwwtX                   ",
"                    .uptwaw00w4;4438www0wwwtX                   ",
"                    .upywwwwww4403wrw8w0w9wtX                   ",
"                    .tyywrwww043w8000w0wwweuX                   ",
"                    Xyytttw0w04;4438000w0ett.                   ",
"                    .etttw0w0w08wt0800000wteO                   ",
"                    .qttrw00000ew000www0qwte.                   ",
"                    .etttwew0000w000wrrwqeet.                   ",
"                    .ettretww000000wwwweweeeX                   ",
"                    .wtttteeww00800wwweerwteX                   ",
"                     @@+@@@o+ooooo@o@@ooooo@                    ",
"                                                                "
};
