/* XPM */
static char *out[] = {
/* columns rows colors chars-per-pixel */
"64 64 196 2 ",
"   c None",
".  c #000000",
"X  c #0C0607",
"o  c #06040A",
"O  c #0A060C",
"+  c #0D0B0C",
"@  c #120404",
"#  c #15090E",
"$  c #0B0613",
"%  c #070A12",
"&  c #0D0915",
"*  c #0F0919",
"=  c #130B1D",
"-  c #110911",
";  c #1C1C1C",
":  c #191113",
">  c #2E0E0E",
",  c #390A0B",
"<  c #240E1D",
"1  c #24151A",
"2  c #26161A",
"3  c #361E1E",
"4  c #150E22",
"5  c #170E29",
"6  c #1A0F2D",
"7  c #0F122A",
"8  c #181026",
"9  c #1C122D",
"0  c #171024",
"q  c #1E1333",
"w  c #171937",
"e  c #240C21",
"r  c #271426",
"t  c #321524",
"y  c #351B23",
"u  c #211535",
"i  c #23163B",
"p  c #26193C",
"a  c #271835",
"s  c #371834",
"d  c #1E3036",
"f  c #1E262D",
"g  c #2C2C2C",
"h  c #252525",
"j  c #3B2938",
"k  c #313131",
"l  c #3C3435",
"z  c #393939",
"x  c #3B2227",
"c  c #4C0C0C",
"v  c #451616",
"b  c #6E1212",
"n  c #791616",
"m  c #421E2D",
"M  c #561829",
"N  c #481A3D",
"B  c #442428",
"V  c #4B2A31",
"C  c #452138",
"Z  c #532E36",
"A  c #55243B",
"S  c #4C3232",
"D  c #59353A",
"F  c #662024",
"G  c #7F2828",
"H  c #7E2020",
"J  c #6F373A",
"K  c #67213A",
"L  c #271941",
"P  c #2A1C45",
"I  c #2D1E49",
"U  c #311D40",
"Y  c #28254C",
"T  c #31214D",
"R  c #3A234A",
"E  c #202A51",
"W  c #352454",
"Q  c #3C2653",
"!  c #392659",
"~  c #3C295D",
"^  c #3E2F57",
"/  c #263359",
"(  c #2D2E63",
")  c #3A3867",
"_  c #3B3D73",
"`  c #521F43",
"'  c #472447",
"]  c #5C2740",
"[  c #512349",
"{  c #582F48",
"}  c #5A3A46",
"|  c #472C57",
" . c #483858",
".. c #563A54",
"X. c #6D2F4C",
"o. c #653647",
"O. c #70304E",
"+. c #663B5F",
"@. c #683A5A",
"#. c #793653",
"$. c #463B67",
"%. c #533968",
"&. c #3C457D",
"*. c #444444",
"=. c #555555",
"-. c #5C5C5C",
";. c #5B5656",
":. c #564352",
">. c #654246",
",. c #7D4343",
"<. c #71404F",
"1. c #6E4158",
"2. c #7F4753",
"3. c #4D4D63",
"4. c #554271",
"5. c #4C5771",
"6. c #565D74",
"7. c #4E4F67",
"8. c #7C4864",
"9. c #754E72",
"0. c #7B5D71",
"q. c #6B5973",
"w. c #5C667E",
"e. c #5F6477",
"r. c #446D7C",
"t. c #646464",
"y. c #6D6767",
"u. c #6A6A6A",
"i. c #736E6E",
"p. c #7A6868",
"a. c #727272",
"s. c #716774",
"d. c #952828",
"f. c #963035",
"g. c #892225",
"h. c #A13339",
"j. c #82385B",
"k. c #8A3B61",
"l. c #954749",
"z. c #904F5D",
"x. c #86555A",
"c. c #995151",
"v. c #834545",
"b. c #A4474B",
"n. c #844C64",
"m. c #904A65",
"M. c #8A5867",
"N. c #9D5769",
"B. c #91536D",
"V. c #8B5B7A",
"C. c #A15B6C",
"Z. c #AC5F70",
"A. c #956167",
"S. c #836E7F",
"D. c #9A7575",
"F. c #83686B",
"G. c #A0657F",
"H. c #BC6C7C",
"J. c #B56375",
"K. c #A37171",
"L. c #C26B7E",
"P. c #384C88",
"I. c #384782",
"U. c #3D548E",
"Y. c #40568D",
"T. c #495889",
"R. c #505F85",
"E. c #6D5A86",
"W. c #7A6A84",
"Q. c #B46C82",
"!. c #A97B8A",
"~. c #C47485",
"^. c #628291",
"/. c #7E8595",
"(. c #989898",
"). c #928897",
"_. c #AC8A9A",
"`. c #988AA3",
"'. c #AF9DB7",
"]. c #BD9BA7",
"[. c #8BA3B0",
"{. c #AEAEAE",
"}. c #C6828D",
"|. c #CE8391",
" X c #D68290",
".X c #D88693",
"XX c #D58B94",
"oX c #DA8992",
"OX c #CC919C",
"+X c #D7929D",
"@X c #D5838D",
"#X c #E08F9A",
"$X c #E4949E",
"%X c #E1B1BB",
"&X c #BFB7C4",
"*X c #DBD4DE",
/* pixels */
"                                                                                                                                ",
"                                                                                                                                ",
"                                                                                                                                ",
"                                                                                                                                ",
"                                                                                                                                ",
"                                                                                                                                ",
"                                                                                                                                ",
"                                                                                                                                ",
"                                                          . . . . . . . . .                                                     ",
"                                                        o o o $ o $ O o o o                                                     ",
"                                          . . . . . . o 4 u i p p p p p q 9 * .                                                 ",
"                                        . . o o o o o $ u T ! ~ ~ ~ ~ ~ W P 4 o                                                 ",
"                                        . o 8 i 5 4 5 q I ! ! ~ ~ ~ ~ ~ ! W i 6 & .                                             ",
"                                        . O p T p i L T ! ~ ~ ~ | ~ ) ~ ~ ~ W I 4 o                                             ",
"                                            = 8 q L P I ! ~ ~ ~ ~ ~ ~ ~ ~ ~ ! W p 9 & . .                                       ",
"                                            o & q I I T ! ~ ~ ~ ~ ~ ~ ~ ~ ~ ~ ! W P = . .                                       ",
"                                          o 4 q L I W ! ! ~ ~ ~ ~ ~ ~ ~ ~ ~ ~ ~ ! T 4 . .                                       ",
"                                        . o 9 I I I W ~ ~ ~ ! ! ~ ~ ~ ~ ~ ~ ~ ! ~ W 0 . .                                       ",
"                                        . O 9 I I I W | ~ ~ ! W ! ~ ~ ~ ~ ~ ! W ! W 8 . .                                       ",
"                                        . O 9 I I I W ~ ~ ! W I W ~ ~ ~ ~ ! I P W W 0 . .                                       ",
"                                      . . o q I I I I W ! ~ ! W W W ! ~ ! T p u P I = . .                                       ",
"                                    . . . & q I P P I I W ~ ~ ~ I I W ! Q R p 9 u i = . .                                       ",
"                                    . o = q p P L i L I I W W I p i P Q +.8.{ j r = $                                           ",
"                                    . O 9 L P L i u L I P I I I p u s | B.H.m.} r .                                             ",
"                                        * 4 q i q q P I P T 7.6...[ @.N.Q.}.S.7.f .                                             ",
"                                        . o = 6 6 q L I I | !.).0.1.C.~.oX+X).r.d .                                             ",
"                                            $ * 5 q L I W $.`.&X/.e.!.@X#X+X_.s.j .                                             ",
"                                            . o 4 q L I W 4.'.*X[.^._.$X$XoXL.N.B .                                             ",
"                                                $ * i I ! %._.%X]._.OX$X@X~.m.{ r .                                             ",
"                                                . o 9 I W %.G.oXoX.X.X XL.N.{ 7 $ .                                             ",
"                                              . . o q I W | j.b.b.b.b.l.J V a 9 $ .                                             ",
"                                            X X O - 9 P W | M b n n n b , o 4 8 $ .                                             ",
"                                          # m A A C r 8 I Q y , n d.d.d.c < = - o .                                             ",
"                                        . # ] k.j.X.t O p W 8 @ F f.j.f.K N < @ X .                                             ",
"                                        . # ] #.A t # O p W 0 + C +.+...[ N o.o.2 .                                             ",
"                                        . # ] #.t . . $ p I = % E I.I._ Q ` k.Z.Z #                                             ",
"                                        . # ] #.t o 7 w w ; o $ / P.P.I.| ` m.J.z.o.x . .                                       ",
"                                        . # A O.y : Y ( 7 X o & / U.Y.P.~ [ m.L.L.Z.V . .                                       ",
"                                        . X < m D #.9.9.$.E a u ) U.U.U.&.%.V.L.L.Z.V . .                                       ",
"                                        . . . : 2.L.~.Q.E.&.~ ' _ U.U.Y.Y.T.V.J.J.C.V . .                                       ",
"                                          . . 1 x.oX@X~.9.) ) $.I.U.R.w.R.e.:.Z Z Z 3                                           ",
"                                            . 1 A.$X$X|.2.' &.U.Y.T.w.a.a.u.k X . .                                             ",
"                                            . 1 A.$X$X@XM.:.7.5.5.6.u.a.a.u.=.z ; .                                             ",
"                                            . 1 A.oXoX_.F.=.=.=.-.-.u.a.a.a.a.t.g .                                             ",
"                                              : D >.>.>.l k *.-.t.t.t.t.t.t.u.t.g .                                             ",
"                                                . . . . . + z -.u.a.t.;.=.-.t.t.g .                                             ",
"                                                      . . + z -.u.i.x.,.S h k k ;                                               ",
"                                                        . + z -.t.i.l.g.v . . .                                                 ",
"                                                        . + z -.u.y.D v >                                                       ",
"                                                        X + z -.t.t.g .                                                         ",
"                                                      + h z =.t.*.k ;                                                           ",
"                                                    . + l -.t.t.g .                                                             ",
"                                                    . X B J v.,.3 .                                                             ",
"                                                    . @ c n d.f.v +                                                             ",
"                                                    . @ c H c.K.p.=.k                                                           ",
"                                                    . @ c g.D.{.{.(.*..                                                         ",
"                                                    . @ c G D.{.{.(.*..                                                         ",
"                                                                                                                                ",
"                                                                                                                                ",
"                                                                                                                                ",
"                                                                                                                                ",
"                                                                                                                                ",
"                                                                                                                                ",
"                                                                                                                                "
};
