/* XPM */
static char *out[] = {
/* columns rows colors chars-per-pixel */
"64 64 204 2 ",
"   c None",
".  c #000000",
"X  c #0C0202",
"o  c #06040A",
"O  c #0A060C",
"+  c #0B0A0B",
"@  c #120303",
"#  c #13060A",
"$  c #120A0C",
"%  c #0A0613",
"&  c #070A12",
"*  c #0B0A14",
"=  c #0E0A18",
"-  c #160A10",
";  c #1B0A15",
":  c #120B1D",
">  c #1A0A19",
",  c #161616",
"<  c #16131C",
"1  c #2C0C0C",
"2  c #390A0C",
"3  c #290F1B",
"4  c #220D17",
"5  c #29131F",
"6  c #3B1818",
"7  c #150E22",
"8  c #170E29",
"9  c #1A0F2D",
"0  c #181026",
"q  c #1B122D",
"w  c #1B1723",
"e  c #1E1333",
"r  c #1D1D37",
"t  c #281426",
"y  c #341426",
"u  c #341A2C",
"i  c #3C192A",
"p  c #211535",
"a  c #23163B",
"s  c #261A3C",
"d  c #291B3A",
"f  c #3B1334",
"g  c #361937",
"h  c #250C21",
"j  c #1E3036",
"k  c #1C2432",
"l  c #262626",
"z  c #2D2C2C",
"x  c #222636",
"c  c #382835",
"v  c #333333",
"b  c #3A373A",
"n  c #4D0C0C",
"m  c #470F0F",
"M  c #4B1414",
"N  c #421616",
"B  c #6C1515",
"V  c #7B1616",
"C  c #7E1919",
"Z  c #741717",
"A  c #421B2E",
"S  c #40162C",
"D  c #561829",
"F  c #461931",
"G  c #4C1C36",
"H  c #551E39",
"J  c #452428",
"K  c #452436",
"L  c #58233F",
"P  c #5B2323",
"I  c #652024",
"U  c #6E3639",
"Y  c #6C2C38",
"T  c #271941",
"R  c #2A1C45",
"E  c #2D1E49",
"W  c #311D41",
"Q  c #292749",
"!  c #31224D",
"~  c #3A244A",
"^  c #3F3D41",
"/  c #202A51",
"(  c #352454",
")  c #3C2653",
"_  c #392659",
"`  c #3C295D",
"'  c #3E2F57",
"]  c #27355B",
"[  c #28345A",
"{  c #38335F",
"}  c #353D78",
"|  c #4F2842",
" . c #5C2841",
".. c #562A47",
"X. c #413F45",
"o. c #492B56",
"O. c #40305F",
"+. c #56384F",
"@. c #612943",
"#. c #652748",
"$. c #6D2C4C",
"%. c #622545",
"&. c #712F4F",
"*. c #67324E",
"=. c #703D48",
"-. c #663A5C",
";. c #7A3355",
":. c #793653",
">. c #543A67",
",. c #4B3A66",
"<. c #673C60",
"1. c #3A487C",
"2. c #414141",
"3. c #4B4B4C",
"4. c #5D4141",
"5. c #545454",
"6. c #5F5959",
"7. c #594452",
"8. c #6C4155",
"9. c #615D5D",
"0. c #735050",
"q. c #7E4444",
"w. c #5B4766",
"e. c #554271",
"r. c #515A70",
"t. c #4A516E",
"y. c #7B5D71",
"u. c #745C6E",
"i. c #5D667C",
"p. c #446D7C",
"a. c #666565",
"s. c #6B6464",
"d. c #6D6D6D",
"f. c #79696A",
"g. c #727272",
"h. c #7E6575",
"j. c #801A1A",
"k. c #892627",
"l. c #962525",
"z. c #992727",
"x. c #942B2B",
"c. c #9A2C2C",
"v. c #953538",
"b. c #A13339",
"n. c #82375B",
"m. c #86395E",
"M. c #8A3B61",
"N. c #834545",
"B. c #994347",
"V. c #A3464A",
"C. c #854C65",
"Z. c #97556B",
"A. c #8A5067",
"S. c #A05B6F",
"D. c #806A6C",
"F. c #956060",
"G. c #836E7F",
"H. c #947276",
"J. c #A56262",
"K. c #A2657C",
"L. c #BC6C7D",
"P. c #A17578",
"I. c #384C88",
"U. c #364682",
"Y. c #3C538E",
"T. c #41568D",
"R. c #435185",
"E. c #505387",
"W. c #485990",
"Q. c #776887",
"!. c #967288",
"~. c #B76D82",
"^. c #AA7C87",
"/. c #B27D95",
"(. c #C46D80",
"). c #C57384",
"_. c #638291",
"`. c #7E8596",
"'. c #9E8084",
"]. c gray59",
"[. c gray60",
"{. c #928897",
"}. c #AB8A9A",
"|. c #A89E9E",
" X c #988AA3",
".X c #AF9DB6",
"XX c #BD9BA7",
"oX c #8BA3B0",
"OX c #AEAEAE",
"+X c #C7808E",
"@X c #CB8B93",
"#X c #CE8192",
"$X c #D98693",
"%X c #DA8992",
"&X c #D68391",
"*X c #CC919C",
"=X c #D6919A",
"-X c #DC919B",
";X c #D4838D",
":X c #E08F9A",
">X c #E4949E",
",X c #E1B1BB",
"<X c #BFB7C4",
"1X c #DBD3DD",
/* pixels */
"                                                                                                                                ",
"                                                                                                                                ",
"                                                                                                                                ",
"                                                                                                                                ",
"                                                                                                                                ",
"                                                                                                                                ",
"                                                          . . . . . . . . .                                                     ",
"                                                        o o O O O O & O O O                                                     ",
"                                          . . . . . . o 7 e a T s T s s e q = .                                                 ",
"                                        . . o o o o o * e ! ( ` ` ` ` ` ( T 7 o                                                 ",
"                                        . o q s q 7 9 e E _ ` ` ` ` ` ` _ ( s 9 = .                                             ",
"                                        . O p ! T e T ! ( ` ` ` ` ` ` ` ` ` ( E 0 O                                             ",
"                                            : 0 p T R E _ ` ` ` ` ` ` ` ` ` _ ( s q = . .                                       ",
"                                            o % e E E E ( ` ` ` ` ` ` ` ` ` ` ` ( T : . .                                       ",
"                                          o 7 e T E ( ( ` ` ` ` ` ` ` ` O.` ` ` _ ! 7 . .                                       ",
"                                        . o e E E E _ ` ` ` ` _ ` ` ` ` ` ` ` ` ` ( 0 . .                                       ",
"                                        . o e R E E ( ` ` ` ( ( _ ` ` ` ` ` ( ( _ ( 0 . .                                       ",
"                                        . o q E E E ( _ ` _ ( ! ( ` ` ` ` _ E E ( ! 0 . .                                       ",
"                                      . . o q E E E E ( _ ` _ ( ( ! _ ` ( E a e R ! 7 . .                                       ",
"                                    . . o % p E E T E E ( ` _ _ E E ( ` ) ~ d e p p : . .                                       ",
"                                    . o : e s R T T T E E ( ! ! T e R o.8.u.*.K t : &                                           ",
"                                    . O q s T R T e T E E Q ( ( d e g o.A.L.C...t .                                             ",
"                                        * 7 e a e e T E E ! w.u.+.| -.Z.L.+XG.t.k .                                             ",
"                                        . o : q 9 e T E E ' h. XD.-.S.).%X*X{.p.j .                                             ",
"                                            % = 8 e T E ( ,. X<X{.r.^.$X-X-X/.h.c .                                             ",
"                                            . o : 9 T E ( e..X1XoX_.}.>X>X%X).Z.J .                                             ",
"                                            . . o : p E ( >.}.,XXX}.*X>X%X).A...5 .                                             ",
"                                            $ X o o e E ( >.K.%X$X%X%X&XL.Z...q * .                                             ",
"                                          - A K ; o e E ( o.n.V.V.b.V.m.U K u q % .                                             ",
"                                        + 4 @.;.i % t R ( o.D B V j.j.B 1 O : q % .                                             ",
"                                      $ A  .;.n.@.A t 0 R ( y 2 Z z.z.k.D h : % o .                                             ",
"                                    . -  .M.m.m.n.#.5 O T ! 0 # I b.b.c.L f ; . . .                                             ",
"                                    . $  .m.;.$.;.&.5 + s ( 0 + K -.-.-.~ f ; . .                                               ",
"                                    . ;  .n.%.L $.&.u = s ! : & / 1.1.1.) f > .                                                 ",
"                                    . $  .n.#.G A u Q / r < O % / Y.I.1.O.f ; .                                                 ",
"                                    . ;  .n.#.F ; * ] 1.x + + < ] Y.Y.I.O.f > .                                                 ",
"                                    . ;  .n.#.F ; * ] R.<.=.=.:.r.Y.Y.Y.1.{ q .                                                 ",
"                                    . $ L :.%.F ; * ] E.!.).(.~.Q.W.W.W.T.1.k .                                                 ",
"                                      $ y S G F ; % x >.!.).%X)./.!.Q.E.i.r.x .                                                 ",
"                                        . + y F ; O y ..K.>X>X>X>X=X'.g.g.a.z .                                                 ",
"                                        . # S H 4 + z 7.f.P.@X>X>X=X'.g.g.a.z .                                                 ",
"                                        . # A H 4 + b 5.5.s.^.%X-X*X!.g.g.a.v +                                                 ",
"                                          # 3 3 $ + w v 3.9.D.H.H.H.f.a.d.d.5.2.l .                                             ",
"                                            . . . + * w ^ 5.5.5.5.5.5.6.a.g.d.a.z .                                             ",
"                                            . + l v K 2.v l l l l l l z 3.a.d.a.z .                                             ",
"                                            . + b 9.d.a.z . . . . . X $ b 9.s.s.z .                                             ",
"                                            . $ N U N.q.6 . . . . X 1 m P U N.N.6 .                                             ",
"                                            . @ n j.z.x.6 .     . @ m Z Z j.l.x.N .                                             ",
"                                            . @ n C c.x.6 .     . $ 4.F.v.k.I M 1                                               ",
"                                            . @ n j.c.v.N +     . , d.|.J.x.N o                                                 ",
"                                                  k.J.P.f.5.v . . , d.|.0.M 1                                                   ",
"                                                    OXOXOX].2.. . , g.[.2..                                                     ",
"                                                    OXOXOX[.2.. . , d.[.2..                                                     ",
"                                                                                                                                ",
"                                                                                                                                ",
"                                                                                                                                ",
"                                                                                                                                ",
"                                                                                                                                ",
"                                                                                                                                ",
"                                                                                                                                ",
"                                                                                                                                ",
"                                                                                                                                ",
"                                                                                                                                ",
"                                                                                                                                "
};
