/* XPM */
static char *out[] = {
/* columns rows colors chars-per-pixel */
"64 64 204 2 ",
"   c None",
".  c #000000",
"X  c #06040A",
"o  c #0A060C",
"O  c #0C0B0C",
"+  c #120404",
"@  c #150A0E",
"#  c #14080C",
"$  c #0B0613",
"%  c #0B0A14",
"&  c #0F0919",
"*  c #160A10",
"=  c #1B0915",
"-  c #120B1D",
";  c #1A0A19",
":  c #1A1A1A",
">  c #2E0E0E",
",  c #390A0B",
"<  c #230D18",
"1  c #290F1D",
"2  c #200E17",
"3  c #29141C",
"4  c #150E22",
"5  c #190F2B",
"6  c #170D28",
"7  c #181026",
"8  c #1C122D",
"9  c #171024",
"0  c #1E1333",
"q  c #1D1D37",
"w  c #280D23",
"e  c #251422",
"r  c #24132C",
"t  c #2F1421",
"y  c #331324",
"u  c #361727",
"i  c #211536",
"p  c #23163C",
"a  c #26193C",
"s  c #271A3A",
"d  c #3B1334",
"f  c #361A34",
"g  c #1E252D",
"h  c #192238",
"j  c #1D3036",
"k  c #2C2C2C",
"l  c #232731",
"z  c #3A2B37",
"x  c #333333",
"c  c gray24",
"v  c #312929",
"b  c #4C0C0C",
"n  c #441616",
"m  c #511515",
"M  c #6E1212",
"N  c #7B1616",
"B  c #7C1919",
"V  c #741717",
"C  c #411B2E",
"Z  c #40162B",
"A  c #561828",
"S  c #461931",
"D  c #41163A",
"F  c #4B1B35",
"G  c #581F3B",
"H  c #552E2E",
"J  c #40233B",
"K  c #492833",
"L  c #59223F",
"P  c #513034",
"I  c #662023",
"U  c #7B2020",
"Y  c #7F2828",
"T  c #6A3434",
"R  c #71363A",
"E  c #67213A",
"W  c #271941",
"Q  c #2A1C45",
"!  c #2D1E49",
"~  c #301D40",
"^  c #2F204D",
"/  c #262A48",
"(  c #31214D",
")  c #39234A",
"_  c #262B50",
"`  c #352454",
"'  c #3C2653",
"]  c #392659",
"[  c #3C295D",
"{  c #3E2F57",
"}  c #27355B",
"|  c #2D3250",
" . c #38325E",
".. c #303D70",
"X. c #492545",
"o. c #5C2841",
"O. c #552846",
"+. c #56324A",
"@. c #53384D",
"#. c #5F334D",
"$. c #492B56",
"%. c #4A3958",
"&. c #553A53",
"*. c #602943",
"=. c #652748",
"-. c #682848",
";. c #712F4F",
":. c #6F304F",
">. c #663B5F",
",. c #683959",
"<. c #7A3355",
"1. c #7A3753",
"2. c #423262",
"3. c #463D6B",
"4. c #533968",
"5. c #38487E",
"6. c #414141",
"7. c #5A5555",
"8. c #595858",
"9. c #724C4C",
"0. c #6E4158",
"q. c #724D52",
"w. c #4D4D63",
"e. c #554271",
"r. c #535B71",
"t. c #4E4F67",
"y. c #7F4763",
"u. c #675578",
"i. c #7B5A78",
"p. c #624D79",
"a. c #436D7C",
"s. c #5F6476",
"d. c #666565",
"f. c #6C6C6C",
"g. c #7C6775",
"h. c #7B6666",
"j. c #882425",
"k. c #952828",
"l. c #963538",
"z. c #A23338",
"x. c #82375B",
"c. c #87395E",
"v. c #8A3B61",
"b. c #804754",
"n. c #965959",
"m. c #9A4449",
"M. c #A4484C",
"N. c #A45E5E",
"B. c #8B5067",
"V. c #9E576A",
"C. c #91536D",
"Z. c #884F64",
"A. c #A05B6F",
"S. c #836E7F",
"D. c #817375",
"F. c #977378",
"G. c #977476",
"H. c #826565",
"J. c #A8687A",
"K. c #A37272",
"L. c #AE6770",
"P. c #C0707E",
"I. c #384983",
"U. c #3C5089",
"Y. c #4A5288",
"T. c #545789",
"R. c #786587",
"E. c #7F6E94",
"W. c #8B5F82",
"Q. c #967C87",
"!. c #917193",
"~. c #85658A",
"^. c #BB6F83",
"/. c #B46B82",
"(. c #A97B8A",
"). c #AA7C95",
"_. c #C57384",
"`. c #618291",
"'. c #7E8595",
"]. c #989898",
"[. c #928797",
"{. c #AB8A9A",
"}. c #BC8096",
"|. c #AD9898",
" X c #9789A3",
".X c #AF9EB7",
"XX c #BC9BA7",
"oX c #8AA3B1",
"OX c #AEADAD",
"+X c #ACA7A7",
"@X c #C7808E",
"#X c #CF8894",
"$X c #D88693",
"%X c #DB8993",
"&X c #D38B99",
"*X c #CC919C",
"=X c #DC919B",
"-X c #D3929D",
";X c #D6848E",
":X c #E08E9A",
">X c #E4949E",
",X c #E1B1BB",
"<X c #BEB7C3",
"1X c #DBD4DE",
/* pixels */
"                                                                                                                                ",
"                                                                                                                                ",
"                                                                                                                                ",
"                                                                                                                                ",
"                                                                                                                                ",
"                                                                                                                                ",
"                                                                                                                                ",
"                                                                                                                                ",
"                                                                                                                                ",
"                                                                                                                                ",
"                                                      . . . . . . . . . . .                                                     ",
"                                                    X X X X o o $ X o o o X                                                     ",
"                                          . . . . X 4 8 8 8 i a a a a a i 8 % .                                                 ",
"                                        . . X X X $ 0 ^ ^ ^ ] [ [ [ [ [ ( Q 4 X                                                 ",
"                                        . X 7 s 8 8 Q ` ] ] [ [ [ [ [ [ ] ` a 7 & .                                             ",
"                                        . o p ^ a i ( ] [ [ [ [ [ [ [ [ [ [ ` Q 4 X                                             ",
"                                            - 7 0 Q ^ ` ] [ [ [ [ [ [ [ [ [ ] ` p 8 & . .                                       ",
"                                            X % 0 Q ! ^ ] [ [ [ 2.[ [ [ [ [ [ ] ` Q - . .                                       ",
"                                          X 4 0 a ^ ( ] ] [ [ [ [ [ [ [ [ [ [ [ ] ^ 4 . .                                       ",
"                                        . X 8 ! Q ^ ] [ [ [ [ ] [ [ [ [ [ [ [ ] [ ` 7 . .                                       ",
"                                        . X 0 ! Q ^ ] [ [ [ ] ( ] [ [ [ [ [ ` ` ] ` 7 . .                                       ",
"                                        . X 8 ! Q ^ ` ] [ ] ( ^ ` [ [ [ [ ] ( ! ( ` 9 . .                                       ",
"                                      . . X 8 ! Q ^ ^ ` ] [ ] ] ` ` ] [ ` ! p 0 Q ^ - . .                                       ",
"                                    . . X O 0 ! Q Q ^ ^ ` ] ] ] ! ! ` ] ' ) s 8 s a - . .                                       ",
"                                    . X - 8 a Q W p Q ! ^ ` ( ^ W 0 Q ' >.B.,.f r - $                                           ",
"                                    . X 8 W Q Q p 0 W ! Q ! ` ( p 0 ~ %.C.L.B.+.e .                                             ",
"                                        & 4 0 p 0 p W ! ! ` e.u.#.L 0.C./.@XS.w.g .                                             ",
"                                        . X - 5 0 0 W Q ! %.g.[.i.,.V._.$X*X[.a.j .                                             ",
"                                            $ & 6 0 W ! ` 3. X<X'.s.(.$X=X=X}.g.x .                                             ",
"                                            . X & 0 W ! ] 4..X1XoX`.{.>X>X%X^.V.K .                                             ",
"                                            . . $ & 0 ! ] 4.{.,XXX{.-X>X$X_.Z.+.e .                                             ",
"                                            o o X X 0 ! ] 4.J.$X%X$X%X%XL.V.+.8 % .                                             ",
"                                          = u S = X 8 ^ ] $.1.M.M.M.M.m.R K f 6 $ .                                             ",
"                                        O < *.<.u O 8 Q ` $.A M M N N M , X 4 6 % .                                             ",
"                                      * C L <.x.*.C e 8 ^ ) u b V k.k.j.A w & $ X .                                             ",
"                                    . * o.c.v.x.x.:.e o s ` - # I z.z.l.E d = . . .                                             ",
"                                    . * o.c.<.;.<.;.3 o p ` 4 O D >.>.,.X.d = . .                                               ",
"                                    . * *.x.=.G ;.;.u & s ( - % _ 5.I...' d = .                                                 ",
"                                    . * o.x.-.K f f / / h 4 $ * &.R.Y.I.[ d ; .                                                 ",
"                                    . * o.x.-.S * % } 5.h X o 3 x./.R.Y.%.d ; .                                                 ",
"                                    . * *.c.*.S = % } I.5./ @.q.L._.}.!.u. .8 .                                                 ",
"                                    . * L 1.=.S = % } U.U.Y.W.^.;X>X>X-X~.5.h .                                                 ",
"                                      @ y C F S = $ a 2.{ 3.p.~.}.>X>X-XQ.t.l .                                                 ",
"                                        . o y S < o y d f X.3.T.).=X=X&X[.d.k .                                                 ",
"                                        . o Z L S y 1 3 J 6.w.r.g.F.F.F.D.d.k .                                                 ",
"                                        . # S -.-.L < # c 7.7.7.8.8.8.8.f.d.k .                                                 ",
"                                          # 1 y y 1 # X : k H T T T 7.f.f.f.k .                                                 ",
"                                            . . . . . . X @ m B V U q.f.f.d.k .                                                 ",
"                                                  . . O c d.H.n.m.j.H x x x :                                                   ",
"                                                    . : f.OX+X|.N.k.n . . .                                                     ",
"                                                    . @ H n.N.N.T n >                                                           ",
"                                                    . + b j.k.l.n O                                                             ",
"                                                    . + b U n.K.h.7.x                                                           ",
"                                                    . + b j.G.OXOX].6..                                                         ",
"                                                    . + b Y G.OXOX].6..                                                         ",
"                                                                                                                                ",
"                                                                                                                                ",
"                                                                                                                                ",
"                                                                                                                                ",
"                                                                                                                                ",
"                                                                                                                                ",
"                                                                                                                                ",
"                                                                                                                                ",
"                                                                                                                                "
};
