/* XPM */
static char *out[] = {
/* columns rows colors chars-per-pixel */
"64 64 203 2 ",
"   c None",
".  c #000000",
"X  c #0D0405",
"o  c #06040A",
"O  c #0A060C",
"+  c #0C0C0C",
"@  c #110303",
"#  c #12060B",
"$  c #140A0E",
"%  c #0A0613",
"&  c #070A12",
"*  c #0B0A14",
"=  c #0E0A18",
"-  c #1A0817",
";  c #120B1D",
":  c #180B17",
">  c #141414",
",  c #1A181D",
"<  c #2E0E0E",
"1  c #390A0C",
"2  c #290E1C",
"3  c #250E19",
"4  c #25141F",
"5  c #3D1313",
"6  c #381E1E",
"7  c #150E22",
"8  c #170E29",
"9  c #1A0F2D",
"0  c #181026",
"q  c #1B122D",
"w  c #171024",
"e  c #1E1333",
"r  c #1D1D37",
"t  c #280D23",
"y  c #241421",
"u  c #24142C",
"i  c #2C1525",
"p  c #321523",
"a  c #3A1427",
"s  c #211535",
"d  c #23163B",
"f  c #261A3C",
"g  c #291B3A",
"h  c #3B1334",
"j  c #361937",
"k  c #1E262D",
"l  c #1E3036",
"z  c #1E273C",
"x  c #252424",
"c  c #2D2C2C",
"v  c #2B2424",
"b  c #22243C",
"n  c #3B2938",
"m  c #313131",
"M  c #3A3A3A",
"N  c #3B3636",
"B  c #4D0C0C",
"V  c #470F0F",
"C  c #4A1414",
"Z  c #421515",
"A  c #6C1515",
"S  c #7E1616",
"D  c #7C1919",
"F  c #741717",
"G  c #42192D",
"H  c #561829",
"J  c #501E36",
"K  c #452428",
"L  c #492434",
"P  c #412139",
"I  c #54243B",
"U  c #5A233F",
"Y  c #5B2323",
"T  c #652024",
"R  c #6F3636",
"E  c #6E353B",
"W  c #67213A",
"Q  c #271941",
"!  c #2A1C45",
"~  c #2D1E49",
"^  c #311D41",
"/  c #29274C",
"(  c #31224D",
")  c #3A244A",
"_  c #202A51",
"`  c #352454",
"'  c #3C2653",
"]  c #392659",
"[  c #3C295D",
"{  c #3E2F57",
"}  c #27355B",
"|  c #28345A",
" . c #38335F",
".. c #353D78",
"X. c #4F2842",
"o. c #5C2740",
"O. c #532948",
"+. c #492B56",
"@. c #40305F",
"#. c #56384F",
"$. c #682B49",
"%. c #60334E",
"&. c #703D48",
"*. c #663A5C",
"=. c #763252",
"-. c #7D3955",
";. c #543A67",
":. c #4B3A66",
">. c #673C60",
",. c #3A487C",
"<. c #434343",
"1. c #4C4B4B",
"2. c #5D4141",
"3. c #4C505A",
"4. c #555555",
"5. c #5D5C5C",
"6. c #6B4555",
"7. c #635F5F",
"8. c #735151",
"9. c #7E4545",
"0. c #5B4766",
"q. c #4F4C75",
"w. c #554271",
"e. c #455667",
"r. c #7B5D71",
"t. c #6B5973",
"y. c #5B657D",
"u. c #5F6577",
"i. c #446D7C",
"p. c #656565",
"a. c #6B6464",
"s. c #6B6B6B",
"d. c #756565",
"f. c #717171",
"g. c #7E6575",
"h. c #801919",
"j. c #892627",
"k. c #952525",
"l. c #992727",
"z. c #932B2B",
"x. c #9A2B2B",
"c. c #953538",
"v. c #A13339",
"b. c #85385D",
"n. c #8A3B61",
"m. c #834545",
"M. c #994347",
"N. c #A3464A",
"B. c #854C65",
"V. c #97556B",
"C. c #8A5067",
"Z. c #A05B6F",
"A. c #956161",
"S. c #876E79",
"D. c #8C7275",
"F. c #98787C",
"G. c #A56161",
"H. c #A0657F",
"J. c #A26476",
"K. c #BC6C7D",
"L. c #A17477",
"P. c #384C88",
"I. c #364682",
"U. c #3C538E",
"Y. c #41568D",
"T. c #435185",
"R. c #505387",
"E. c #485990",
"W. c #776887",
"Q. c #936283",
"!. c #9D7F82",
"~. c #957795",
"^. c #B76D82",
"/. c #AA7C88",
"(. c #B27D95",
"). c #C46D80",
"_. c #C57384",
"`. c #638291",
"'. c #7E8596",
"]. c gray59",
"[. c #928897",
"{. c #A38084",
"}. c #AB8A9A",
"|. c #A89E9E",
" X c #988AA3",
".X c #AF9DB6",
"XX c #BD9BA7",
"oX c #8BA3B0",
"OX c #AEAEAE",
"+X c #C7808E",
"@X c #CB8791",
"#X c #D98693",
"$X c #DA8992",
"%X c #D68793",
"&X c #CC919C",
"*X c #DC929C",
"=X c #D5919B",
"-X c #D4838D",
";X c #E08F9A",
":X c #E4949E",
">X c #E1B1BB",
",X c #BFB7C4",
"<X c #DBD3DD",
/* pixels */
"                                                                                                                                ",
"                                                                                                                                ",
"                                                                                                                                ",
"                                                                                                                                ",
"                                                                                                                                ",
"                                                                                                                                ",
"                                                          . . . . . . . . .                                                     ",
"                                                        o o O O O % o O O O                                                     ",
"                                          . . . . . . o 7 e e Q f f f f e q * .                                                 ",
"                                        . . o o o o o * e ( ] [ [ [ [ [ ` ! 7 o                                                 ",
"                                        . o q f q 7 9 e ( ` [ [ [ [ [ [ ] ` d 9 = .                                             ",
"                                        . O s ( Q e Q ~ ] [ [ [ [ [ [ [ [ [ ` ~ 0 o                                             ",
"                                            ; 0 s Q ! ~ ] [ [ [ [ [ [ [ [ [ [ ` f q = . .                                       ",
"                                            o % e ~ ~ ~ ` [ [ [ [ [ @.[ [ [ [ [ ` ! ; . .                                       ",
"                                          o 7 e Q ~ ` ] [ [ [ [ [ [ [ [ [ [ [ [ ] ( 7 . .                                       ",
"                                        . O e ~ ~ ~ ` [ [ [ [ [ [ [ [ [ [ [ [ [ ] ` 0 . .                                       ",
"                                        . o e ~ ~ ~ ` [ [ [ ` ` ] [ [ @.[ @.` ` ] ` 0 . .                                       ",
"                                        . o q ~ ~ ~ ` [ [ ] ` ~ ` [ ] [ [ ] ~ ! ` ` w . .                                       ",
"                                      . . o q ~ ~ ~ ~ ` ] [ ] ` ` ( ] [ ` ~ d s ! / ; . .                                       ",
"                                    . . o % e ~ ! ! ~ ~ ` [ ] ] ~ ! ` [ +.~ d u s s ; . .                                       ",
"                                    . o ; e f ! ! Q Q ~ ( ( ( ( Q d ! ' >.r.o.P i ; %                                           ",
"                                    . O q f ! ! e e Q ~ ! ( ` ) d u ^ +.V.K.B.#.y .                                             ",
"                                        = 7 q d e e Q ~ ~ ( 0.t.#.O.=.V.^.+XS.e.k .                                             ",
"                                        . o ; 9 e e Q ~ ~ { W. XS.*.Z._.%X&X[.i.l .                                             ",
"                                            % = 8 e Q ~ ` :. X,XW.y./.%X;X*X/.S.n .                                             ",
"                                            . o ; e Q ~ ] ;..X<XoX`.}.:X:X$X_.V.K .                                             ",
"                                                % = e ~ ` ;.}.>XXX}.&X:X$X_.C.O.4 .                                             ",
"                                                . o e ~ ` ;.J.$X$X$X$X$XK.V.O.q * .                                             ",
"                                              . . o q ~ ] +.-.N.N.N.v.n.E L j q % .                                             ",
"                                            # O O = u ! ` +.H A S h.h.A 1 o = w % .                                             ",
"                                          $ G I I L i 8 ~ ` p V F k.k.j.H t ; % o .                                             ",
"                                        . $ o.n.b.=.p O d ` 7 # T v.c.c.W h - . . .                                             ",
"                                        . $ o.b.=.U 3 + f ` 7 + L *.*.*.X.h - o .                                               ",
"                                        . $ o.b.$.G , * f ( ; & _ ,.,...` h - .                                                 ",
"                                        . $ U -.G t b _ r ; % & _ P.P.,.@.h - .                                                 ",
"                                        . : U =.i & } ,.z $ + ; } U.U.U.@.j - .                                                 ",
"                                        . $ o.=.p * } T.0.&.&.&.q.U.U.U.q. .q .                                                 ",
"                                        . $ U =.2 * } R.Q.).).^.W.E.Y.U.P.I.z +                                                 ",
"                                          $ p p $ % b ;.H.-X-X@X(.~.W.y.y.y.3.M x .                                             ",
"                                            . . o # t o.J.*X:X:X:X=X!.f.f.f.f.s.m +                                             ",
"                                            . X 2 a 2 p 8.F.@X:X:X=XF.p.a.p.s.s.4.M x . .                                       ",
"                                            . # G I 3 $ M a./.*X*X@XD.4.4.4.s.f.f.s.c . .                                       ",
"                                              O 4 2 $ + N 7.S.{.F.D.d.4.N c 1.a.s.s.c . .                                       ",
"                                                . . . + M 5.s.f.7.4.1.1.x + N 5.a.a.c . .                                       ",
"                                                  . . + M 5.s.p.<.x x v 6 V Y R m.m.6 . .                                       ",
"                                                    . + M 5.s.p.c . . X C D F S k.z.Z . .                                       ",
"                                                    . + M 5.s.p.c . . $ 2.A.M.k.A Z <                                           ",
"                                                    o + M 5.p.p.c . . > s.|.G.k.5 .                                             ",
"                                                  + x M 4.7.1.c , . . > s.|.8.Z <                                               ",
"                                                . + N 5.a.p.v .     . > s.].<..                                                 ",
"                                                . @ K R m.9.6 .     . + m 1.c                                                   ",
"                                                . @ B h.l.z.5 .     . . . .                                                     ",
"                                                . @ B h.l.z.5 .                                                                 ",
"                                                . @ C D x.x.Z +                                                                 ",
"                                                      j.G.L.d.4.m                                                               ",
"                                                        OXOXOX].<..                                                             ",
"                                                        OXOXOX].<..                                                             ",
"                                                                                                                                ",
"                                                                                                                                ",
"                                                                                                                                ",
"                                                                                                                                ",
"                                                                                                                                ",
"                                                                                                                                ",
"                                                                                                                                "
};
