/* XPM */
static char *out[] = {
/* columns rows colors chars-per-pixel */
"64 64 207 2 ",
"   c None",
".  c #000000",
"X  c #06040A",
"o  c #0B050C",
"O  c #0D0B0C",
"+  c #0C0505",
"@  c #110404",
"#  c #140B0E",
"$  c #15070B",
"%  c #0A0712",
"&  c #0C0A15",
"*  c #0D0A19",
"=  c #170A10",
"-  c #1B0915",
";  c #110B1D",
":  c #1A0A19",
">  c #1A1A1A",
",  c #390A0B",
"<  c #230C1A",
"1  c #290F1D",
"2  c #200E17",
"3  c #3C1212",
"4  c #2A0707",
"5  c #150E22",
"6  c #170E29",
"7  c #181026",
"8  c #1B122C",
"9  c #171024",
"0  c #1E1333",
"q  c #1D1D37",
"w  c #251421",
"e  c #27142A",
"r  c #331324",
"t  c #391627",
"y  c #211535",
"u  c #23163B",
"i  c #26193C",
"p  c #291E3F",
"a  c #291738",
"s  c #3B1334",
"d  c #3B1739",
"f  c #2B0E25",
"g  c #192239",
"h  c #1D3036",
"j  c #1E252D",
"k  c #232323",
"l  c #2B2B2B",
"z  c #3B2837",
"x  c #333333",
"c  c #3B3737",
"v  c #3B3B3B",
"b  c #232731",
"n  c #4B0C0C",
"m  c #481414",
"M  c #6E1212",
"N  c #7B1616",
"B  c #7D1B1B",
"V  c #741717",
"C  c #411B2E",
"Z  c #40162B",
"A  c #561828",
"S  c #461931",
"D  c #41163A",
"F  c #4B1B35",
"G  c #581F3B",
"H  c #442327",
"J  c #592929",
"K  c #40233B",
"L  c #472730",
"P  c #59223F",
"I  c #543B3B",
"U  c #662023",
"Y  c #7C2525",
"T  c #6B3838",
"R  c #763A3E",
"E  c #67213A",
"W  c #1A1F47",
"Q  c #271941",
"!  c #2A1C45",
"~  c #2D1E49",
"^  c #301D40",
"/  c #1B2347",
"(  c #2F204D",
")  c #212C4D",
"_  c #31214D",
"`  c #39234A",
"'  c #212B51",
"]  c #352454",
"[  c #3C2653",
"{  c #392659",
"}  c #3C295D",
"|  c #3E2F57",
" . c #27355B",
".. c #38325E",
"X. c #242D62",
"o. c #3C3F6B",
"O. c #343774",
"+. c #2D3C71",
"@. c #5C2841",
"#. c #552F48",
"$. c #572746",
"%. c #5B344B",
"&. c #492B56",
"*. c #43325B",
"=. c #52314B",
"-. c #602943",
";. c #652748",
":. c #692848",
">. c #702E4F",
",. c #663B5F",
"<. c #683959",
"1. c #7A3355",
"2. c #793656",
"3. c #403060",
"4. c #4B3A66",
"5. c #533A67",
"6. c #773C62",
"7. c #33407E",
"8. c #39477C",
"9. c #4E4E4E",
"0. c #434343",
"q. c #5B5656",
"w. c #5A5A5A",
"e. c #525252",
"r. c #594352",
"t. c #604343",
"y. c #754949",
"u. c #6E4158",
"i. c #655959",
"p. c #554677",
"a. c #505A70",
"s. c #4E4F67",
"d. c #7F4763",
"f. c #7D5F68",
"g. c #7F5177",
"h. c #795776",
"j. c #6A5873",
"k. c #516979",
"l. c #656464",
"z. c #6D6D6D",
"x. c #6A6062",
"c. c gray44",
"v. c #7D7072",
"b. c #7D666E",
"n. c #8A2626",
"m. c #972626",
"M. c #963437",
"N. c #A23338",
"B. c #82375B",
"V. c #87395E",
"C. c #8A3B61",
"Z. c #975757",
"A. c #9A4449",
"S. c #A4484C",
"D. c #A85D5D",
"F. c #97556B",
"G. c #8A5066",
"H. c #A05B6F",
"J. c #806A6D",
"K. c #836E7F",
"L. c #9F647E",
"P. c #997576",
"I. c #A3667C",
"U. c #A27577",
"Y. c #B9697B",
"T. c #C36D7F",
"R. c #C0707E",
"E. c #3A4C85",
"W. c #334482",
"Q. c #3C528D",
"!. c #48558B",
"~. c #4E568B",
"^. c #675280",
"/. c #766888",
"(. c #926283",
"). c #9D7F82",
"_. c #947695",
"`. c #B66D82",
"'. c #A87C86",
"]. c #B17C95",
"[. c #C57384",
"{. c #618291",
"}. c #7E8595",
"|. c #9E8084",
" X c #979797",
".X c #928797",
"XX c #AB8A9A",
"oX c #A79B9B",
"OX c #9789A3",
"+X c #AF9EB7",
"@X c #BC9BA7",
"#X c #8AA3B1",
"$X c #AEAEAE",
"%X c #C7808E",
"&X c #CB8591",
"*X c #D88693",
"=X c #DB8993",
"-X c #D48692",
";X c #CC919C",
":X c #D6919B",
">X c #DD929C",
",X c #D6848E",
"<X c #E08E9A",
"1X c #E4949E",
"2X c #E1B1BB",
"3X c #BEB7C3",
"4X c #DBD4DE",
/* pixels */
"                                                                                                                                ",
"                                                                                                                                ",
"                                                                                                                                ",
"                                                                                                                                ",
"                                                                                                                                ",
"                                                                                                                                ",
"                                                                                                                                ",
"                                                                                                                                ",
"                                                      . . .                                                                     ",
"                                                    X X . .                                                                     ",
"                                          . . . . X 5 7 & . . . . . . . . .                                                     ",
"                                        . . X X . X 8 y ; X X o o o X o X X                                                     ",
"                                        . X 7 y * . % ; 8 0 y p p i p i 0 8 * .                                                 ",
"                                        . o i _ 9 X X ; 0 ( ] } } } } } ] ! 5 X                                                 ",
"                                        . o y ~ 0 5 y i ( { } } } } } } ] ] i 8 * .                                             ",
"                                        . X 8 i y u _ { } } } } } } } } } } _ ! 5 X                                             ",
"                                            * ; 0 ! ( ] { } } } } } } } } } { ] i 8 * . .                                       ",
"                                            X * 0 ! ~ ( { } } } } 3.} } } } } { ] Q ; . .                                       ",
"                                          X 5 8 Q ~ ] { { } } } } } } } } } } } { _ 5 . .                                       ",
"                                        . o 8 ~ ! ~ ] } } } } } } } } } } } } } } ] 7 . .                                       ",
"                                        . X 0 ~ ~ ~ { } } { ] ] { } } } } } { ] { ] 9 . .                                       ",
"                                        . X 8 ~ ~ ~ ] } } } ] ~ { { } } } { ~ ! ] ] 9 . .                                       ",
"                                      . . X 8 ~ ~ ~ ( ] { } { ] ] ] { } { ~ u y ! ~ ; . .                                       ",
"                                    . . X o y ~ ! ! ! ( ] { } { ~ ! ] } [ ` a 8 y i ; . .                                       ",
"                                    . X ; 0 i ! Q u ! ~ ~ ] ] ( Q 0 ! [ ,.d.%.K e * &                                           ",
"                                    . X 8 Q ! Q u y Q ~ ! ~ _ ` a 0 ` &.F.Y.G.%.w .                                             ",
"                                        * 5 0 u 0 y Q ~ ! ] s.j.%.$.<.F.Y.%XK.s.b .                                             ",
"                                        . X ; 8 0 0 Q ! ! &./.XXh.u.F.[.:X;X}.k.h .                                             ",
"                                            % * 6 0 Q ~ ] 4.OX3X}.k.'.,X>X>XXXb.x .                                             ",
"                                            . X 5 0 Q ~ { 5.+X4X#X/.XX1X>X=XT.F.L .                                             ",
"                                            . . X 5 0 ~ { 5.XX2X@XoX;X1X,X[.G.%.w .                                             ",
"                                            o + . X 0 ~ { 4.(.<X=X=X=X,XT.H.#.9 % .                                             ",
"                                          = t S - X 0 ~ } &.y.S.S.S.S.C.R L 1 O X .                                             ",
"                                        O 2 -.1.t # 8 ! ] &.A M V N N M , . . . . .                                             ",
"                                      # C @.1.B.-.C e 9 ~ [ t , V m.m.n.A < $ . .                                               ",
"                                    . = @.C.C.B.B.:.r * i ~ ; # U M.N.M.E s : .                                                 ",
"                                    . - @.C.>.>.1.2.*.' q 9 X o K ,.,.<.$.s : .                                                 ",
"                                    . # @.B.:.P >.6.p.8.g X X * ' 7.W.O.] s : .                                                 ",
"                                    . # @.B.:.F C z 8.E.+.' W W X.O.W.W.[ s : .                                                 ",
"                                    . - @.B.:.C - &  .Q.Q.Q.7.O.O.O.E.E.3.d : .                                                 ",
"                                    . = @.B.;.S - &  .Q.Q.!.j.g.g.h.~.E.8.o.9 .                                                 ",
"                                    . = P 2.-.S - &  .E.Q.~.(.T.[.`./.!.!.8.g .                                                 ",
"                                      # r Z F S - o p *...5.(.,X*X[.]._./.a.b .                                                 ",
"                                        . o t S < O f D D $.Y.>X1X1X1X:X|.l.l .                                                 ",
"                                        . o Z P S t 1 w z r.b.U.;X1X1X:X).l.l .                                                 ",
"                                        . $ S :.:.P < @ v q.w.x.'.>X>X:X).l.l .                                                 ",
"                                          o 1 r r 1 O O v w.w.w.J.).'.).v.q.b .                                                 ",
"                                            . . . . . # c q.q.q.w.w.l.z.l.9.w .                                                 ",
"                                              . . + 4 m J T i.l.z.l.l.l.w.9.k .                                                 ",
"                                                . @ m N V Y y.z.c.c.l.w.w.e.k .                                                 ",
"                                                . > t.Z.A.n.J v e.l.w.w.l.w.l .                                                 ",
"                                                . > c.oXD.n.3 O c q.q.w.l.l.l .                                                 ",
"                                                . > c.oXy.3 $ @ H T R R I x k                                                   ",
"                                                . > l. X0.. . @ n N m.N.m +                                                     ",
"                                                . O x 9.l . . @ n B Z.U.b.w.x                                                   ",
"                                                . . . .     . @ n n.P.$X$X X0..                                                 ",
"                                                . . . .     . @ n Y P.$X$X X0..                                                 ",
"                                                                                                                                ",
"                                                                                                                                ",
"                                                                                                                                ",
"                                                                                                                                ",
"                                                                                                                                ",
"                                                                                                                                ",
"                                                                                                                                "
};
