/* XPM */
static char *out[] = {
/* columns rows colors chars-per-pixel */
"64 64 206 2 ",
"   c None",
".  c #000000",
"X  c #0E0303",
"o  c #06040A",
"O  c #0A060C",
"+  c #0C0A0B",
"@  c #140404",
"#  c #14090D",
"$  c #12060C",
"%  c #0B0713",
"&  c #0C0A15",
"*  c #0F0919",
"=  c #060811",
"-  c #160A11",
";  c #1B0A15",
":  c #120B1D",
">  c #1A0A19",
",  c #181818",
"<  c #380C0C",
"1  c #240E18",
"2  c #2A111E",
"3  c #25151F",
"4  c #3D1212",
"5  c #2B0808",
"6  c #150E22",
"7  c #170E29",
"8  c #1A0F2C",
"9  c #181026",
"0  c #1C132D",
"q  c #171024",
"w  c #1E1333",
"e  c #1D1D37",
"r  c #240C21",
"t  c #2E1224",
"y  c #251427",
"u  c #341525",
"i  c #341B2C",
"p  c #381827",
"a  c #211536",
"s  c #241837",
"d  c #23163B",
"f  c #26193D",
"g  c #2A1C3B",
"h  c #3B1334",
"j  c #361937",
"k  c #192239",
"l  c #1E3036",
"z  c #1E262D",
"x  c #242424",
"c  c #2A2A2A",
"v  c #382A2D",
"b  c #382835",
"n  c #313131",
"m  c #3C3C3C",
"M  c #383434",
"N  c #232731",
"B  c #4C0C0C",
"V  c #470B0B",
"C  c #411C1C",
"Z  c #6E1212",
"A  c #7B1616",
"S  c #7D1919",
"D  c #751616",
"F  c #421A2E",
"G  c #40162B",
"H  c #561829",
"J  c #461931",
"K  c #491B3A",
"L  c #531D38",
"P  c #452428",
"I  c #442536",
"U  c #58223D",
"Y  c #563E3E",
"T  c #662024",
"R  c #782323",
"E  c #6D3538",
"W  c #713939",
"Q  c #67213A",
"!  c #271941",
"~  c #2A1C45",
"^  c #2D1E49",
"/  c #311D40",
"(  c #1E264D",
")  c #28264A",
"_  c #31214D",
"`  c #3A234A",
"'  c #352454",
"]  c #3C2653",
"[  c #392659",
"{  c #3C295D",
"}  c #3E2F57",
"|  c #27355B",
" . c #2D3251",
".. c #38335F",
"X. c #353B77",
"o. c #2D3C71",
"O. c #5C2841",
"+. c #562A48",
"@. c #54394C",
"#. c #492B56",
"$. c #40305F",
"%. c #52314B",
"&. c #602943",
"*. c #652748",
"=. c #692949",
"-. c #712F4F",
";. c #67324E",
":. c #663B5F",
">. c #683A5A",
",. c #793355",
"<. c #7A3653",
"1. c #533A67",
"2. c #4B3A66",
"3. c #32417F",
"4. c #39477C",
"5. c gray26",
"6. c #4D4D4D",
"7. c #5F4D4D",
"8. c #555555",
"9. c #5D5C5C",
"0. c #594555",
"q. c #714047",
"w. c #6E4158",
"e. c #604A4A",
"r. c #554271",
"t. c #515A70",
"y. c #4E4F67",
"u. c #685261",
"i. c #795876",
"p. c #73526D",
"a. c #52697A",
"s. c #646464",
"d. c #6A6565",
"f. c #6B6B6B",
"g. c #736768",
"h. c #737272",
"j. c #7F7677",
"k. c #7D6575",
"l. c #801A1A",
"z. c #992727",
"x. c #962929",
"c. c #853737",
"v. c #953035",
"b. c #892225",
"n. c #A13339",
"m. c #82375B",
"M. c #86395E",
"N. c #8A3B61",
"B. c #844949",
"V. c #825B5B",
"C. c #994448",
"Z. c #A4474B",
"A. c #844C64",
"S. c #97556B",
"D. c #8A5067",
"F. c #A05B6F",
"G. c #856060",
"H. c #876E76",
"J. c #9F647E",
"K. c #8F7074",
"L. c #967479",
"P. c #A36161",
"I. c #A3667D",
"U. c #BC6C7C",
"Y. c #A17171",
"T. c #C46D7F",
"R. c #3A4C85",
"E. c #3A4B87",
"W. c #3C518B",
"Q. c #49568B",
"!. c #4F568B",
"~. c #776888",
"^. c #926283",
"/. c #9D7F83",
"(. c #947795",
"). c #B66D82",
"_. c #A97B8A",
"`. c #B27D95",
"'. c #C57384",
"]. c #628291",
"[. c #7E8595",
"{. c #818181",
"}. c #959595",
"|. c #928897",
" X c #AC8A9A",
".X c #B1858A",
"XX c #988AA3",
"oX c #AF9DB7",
"OX c #BD9BA7",
"+X c #8BA3B0",
"@X c #AEAEAE",
"#X c #C7808E",
"$X c #CD8893",
"%X c #D68290",
"&X c #D88693",
"*X c #DA8992",
"=X c #D58F98",
"-X c #CC919C",
";X c #DC929C",
":X c #D5929B",
">X c #D5838D",
",X c #E08F9A",
"<X c #E4949E",
"1X c #E1B1BB",
"2X c #BFB7C4",
"3X c #DBD4DE",
/* pixels */
"                                                                                                                                ",
"                                                                                                                                ",
"                                                                                                                                ",
"                                                                                                                                ",
"                                                                                                                                ",
"                                                                                                                                ",
"                                                                                                                                ",
"                                                                                                                                ",
"                                          . . .       . . . . . . . . . . .                                                     ",
"                                        . . o O     o o o o % o O O % O o o                                                     ",
"                                        . o 9 f : o q 0 0 w a f f f f f w 0 & .                                                 ",
"                                        . O f _ q % w ^ ^ _ [ { { { { { ' ~ q o                                                 ",
"                                        . o a ^ w 9 ~ ' [ [ [ { { { { { { ' f 0 & .                                             ",
"                                        . o 0 d a d _ { { { { { { { { { { { ' ~ q o                                             ",
"                                            * 6 w ! ^ ' [ { { { { { { { { { [ ' f 0 & .                                         ",
"                                            o % w ^ ^ _ [ { { { { { { { { { { { ' ! : .                                         ",
"                                          o 6 w ! ^ ' [ [ { { { { { { { { { { { [ _ q .                                         ",
"                                        . o 0 ^ ^ ^ ' { { { { [ { { { { { { { [ { ' q .                                         ",
"                                        . o 0 ^ ^ ^ [ { { { ' ' [ { { { { { [ ' [ ' 9 .                                         ",
"                                        . O 0 ^ ^ ^ ' [ { { ' ^ [ { { { { [ ^ ~ ' ' q .                                         ",
"                                      . . o w ^ ^ ^ ^ ' [ { [ ' ' ' [ [ ' _ f a ~ ^ 6 .                                         ",
"                                    . . . & w ^ ~ ^ ^ ^ ' { [ [ ^ ^ ' [ ] ` g 8 a s : .                                         ",
"                                    . o : w f ~ ! d ~ ^ ^ ' ' ^ f a ~ ] :.A.;.I y : %                                           ",
"                                    . O 0 ! ~ ! d w ! ~ ^ ^ _  .g a / #.D.U.A.@.y .                                             ",
"                                        & 6 w d w w ! ^ ^ _ y.p.@.+.<.S.).'.(.4.z .                                             ",
"                                        . o : 8 w w ! ^ ^ #.~. Xi.>.F.'.=X:X[.a.l .                                             ",
"                                            % * 7 w ! ^ ' 2.XX2X{.a._.*X,X;X.Xg.b .                                             ",
"                                            . o 6 w ! ^ { 1.oX3X+X]. X<X<X;XT.S.P .                                             ",
"                                            . . o * a ^ ' 1. X1XOX X-X,X*XT.D.@.3 .                                             ",
"                                            + + o o a ^ [ 1.^.*X*X*X*X>XT.S.%.9 % .                                             ",
"                                          # F J ; o 0 ^ ' #.<.Z.Z.Z.Z.C.W I i 0 & .                                             ",
"                                        O 1 &.<.p % 0 ~ ' #.H D D A A Z < o 6 7 % .                                             ",
"                                      - h O.,.m.&.F y 0 ^ ] p < D z.b.b.H r > % o .                                             ",
"                                    . - U N.N.N.m.=.2 O f _ q @ T v.n.v.Q h > . . .                                             ",
"                                    . - &.M.,.=.,.-.2 + f _ q + I :.:.:.+.h ; . .                                               ",
"                                    . - U M.=.U -.-.u & f _ q = ( E.3.X.' h ; .                                                 ",
"                                    . ; O.m.*.I F v ) ) z 6 o O ( o.E.4.{ h > .                                                 ",
"                                    . - O.m.*.J ; & | 4.k o O : ~ X.E.R.$.h > .                                                 ",
"                                    . - O.m.*.J - = | R.o. .@.<.p.i.!.W.4...0 .                                                 ",
"                                    . - O.,.&.J ; = | W.W.!.^.'.).).~.Q.Q.4.k .                                                 ",
"                                      # u F J J ; + g ..$.1.J.'.'.'.`.`.~.t.z .                                                 ",
"                                        . + p J ; O t K K +._.;X<X<X<X;X.Xs.l +                                                 ",
"                                        . @ G L > + b @.0.u.H..X-X<X<X:XL.9.6.5.x .                                             ",
"                                        . $ J U 1 , m 9.f.h.h.H.`.,X,X-XH.9.f.d.n +                                             ",
"                                          O 2 u c m 8.s.f.h.f.d.H.L.L.K.d.9.d.f.8.m x .                                         ",
"                                            . + m 9.f.h.h.h.9.8.8.8.8.8.8.8.s.h.h.s.c .                                         ",
"                                            . + m 9.f.h.h.f.5.c x c x c x n 6.s.f.s.n .                                         ",
"                                            o , m 9.f.h.h.9.c . . . . . . # M 9.d.d.n +                                         ",
"                                          # x m 8.d.h.d.6.n ,         . . + C E W q.e.6.c . .                                   ",
"                                        . + m 9.d.h.f.s.c .             . X V D A R G.{.m . .                                   ",
"                                        . # C W B.B.Y n x               . X V S c.g.7.5.c                                       ",
"                                        . @ B l.z.x.4 .                 . @ V R V.{.m .                                         ",
"                                        . @ B l.z.x.4 .                   + 5 < P 5.c                                           ",
"                                        . @ B l.x.v.4 X                     . . . .                                             ",
"                                              c.P.Y.g.9.n                                                                       ",
"                                                @X@X@X}.5..                                                                     ",
"                                                @X@X@X}.m .                                                                     ",
"                                                                                                                                ",
"                                                                                                                                ",
"                                                                                                                                ",
"                                                                                                                                ",
"                                                                                                                                ",
"                                                                                                                                ",
"                                                                                                                                "
};
