/* XPM */
static char *out[] = {
/* columns rows colors chars-per-pixel */
"64 64 206 2 ",
"   c None",
".  c #000001",
"X  c #0B0505",
"o  c #06040A",
"O  c #09060D",
"+  c #0C0A0B",
"@  c #110404",
"#  c #140B0D",
"$  c #0A0612",
"%  c #0C0915",
"&  c #0D0A19",
"*  c #120C1D",
"=  c #190C15",
"-  c #1C1C1C",
";  c #171214",
":  c #390A0B",
">  c #25151B",
",  c #2D1A1E",
"<  c #2B0707",
"1  c #150E22",
"2  c #170E29",
"3  c #190F2B",
"4  c #181026",
"5  c #1B132D",
"6  c #171024",
"7  c #1E1333",
"8  c #191937",
"9  c #251420",
"0  c #27142A",
"q  c #321524",
"w  c #321C20",
"e  c #361B2B",
"r  c #211536",
"t  c #241936",
"y  c #23163B",
"u  c #26193C",
"i  c #2A1734",
"p  c #3D1639",
"a  c #260E26",
"s  c #1E3036",
"d  c #1C2432",
"f  c #2C2C2C",
"g  c #392225",
"h  c #3C2938",
"j  c #323232",
"k  c #3B3737",
"l  c #3A3A3A",
"z  c #232731",
"x  c #4B0C0C",
"c  c #4C1111",
"v  c #471919",
"b  c #6E1212",
"n  c #7B1616",
"m  c #771919",
"M  c #401C2C",
"N  c #561829",
"B  c #451A37",
"V  c #45242A",
"C  c #4D2B32",
"Z  c #462238",
"A  c #532A37",
"S  c #593C3F",
"D  c #57353B",
"F  c #5C2424",
"G  c #662024",
"H  c #7E2525",
"J  c #6C3739",
"K  c #67213A",
"L  c #171C41",
"P  c #271941",
"I  c #2A1C45",
"U  c #2D1E49",
"Y  c #311D40",
"T  c #2F204C",
"R  c #23274B",
"E  c #31224D",
"W  c #3A234A",
"Q  c #352454",
"!  c #3C2653",
"~  c #392659",
"^  c #3C295D",
"/  c #3E2F57",
"(  c #38335F",
")  c #222B53",
"_  c #2E2E63",
"`  c #363365",
"'  c #3F3D71",
"]  c #353873",
"[  c #421C44",
"{  c #4A1C42",
"}  c #501E42",
"|  c #472447",
" . c #5C2740",
".. c #542F48",
"X. c #502349",
"o. c #56354C",
"O. c #402C5A",
"+. c #492B56",
"@. c #40305F",
"#. c #4F3F51",
"$. c #563A54",
"%. c #6D2F4D",
"&. c #683949",
"*. c #713E49",
"=. c #663B5F",
"-. c #683A5A",
";. c #783854",
":. c #443A66",
">. c #533968",
",. c #693A60",
"<. c #3B4A7E",
"1. c #3C447C",
"2. c #444444",
"3. c #4B4B4B",
"4. c #5F4B4B",
"5. c #555555",
"6. c #5C5B5B",
"7. c #5B5656",
"8. c #634244",
"9. c #6F4646",
"0. c #714A4A",
"q. c #6E4158",
"w. c #77465B",
"e. c #4D4D63",
"r. c #554271",
"t. c #515A70",
"y. c #4E526B",
"u. c #734D72",
"i. c #7B5974",
"p. c #6B5973",
"a. c #5C667F",
"s. c #5B6279",
"d. c #446D7C",
"f. c #646464",
"g. c #6B6B6B",
"h. c #6B6767",
"j. c #766B6B",
"k. c #656B7B",
"l. c #727272",
"z. c #7D6575",
"x. c #8B2728",
"c. c #972626",
"v. c #973537",
"b. c #A13339",
"n. c #854949",
"m. c #86485A",
"M. c #975858",
"N. c #994448",
"B. c #A4474B",
"V. c #A75D5D",
"C. c #844C64",
"Z. c #8D5765",
"A. c #965568",
"S. c #815278",
"D. c #805072",
"F. c #A15B6C",
"G. c #AD5F70",
"H. c #966168",
"J. c #836E7F",
"K. c #9A7575",
"L. c #A0657F",
"P. c #B26273",
"I. c #BC6B7D",
"U. c #BB6779",
"Y. c #A37171",
"T. c #B9737E",
"R. c #C16B7D",
"E. c #3D4B84",
"W. c #3B4E89",
"Q. c #334380",
"!. c #3D548E",
"~. c #40568D",
"^. c #465A8A",
"/. c #505B89",
"(. c #6B5C89",
"). c #79698B",
"_. c #976B8B",
"`. c #B86F82",
"'. c #A97B8A",
"]. c #B26F84",
"[. c #C57687",
"{. c #628291",
"}. c #7E8595",
"|. c #8E8E8E",
" X c gray60",
".X c #928897",
"XX c #AC8A9A",
"oX c #A69B9B",
"OX c #988AA3",
"+X c #AF9DB7",
"@X c #BD9BA7",
"#X c #8BA3B0",
"$X c #AEAEAE",
"%X c #C7808E",
"&X c #CD8999",
"*X c #D88693",
"=X c #DA8992",
"-X c #D68B94",
";X c #CC919C",
":X c #D7929D",
">X c #D5838D",
",X c #E08F9A",
"<X c #E4949E",
"1X c #E1B1BB",
"2X c #BFB7C4",
"3X c #DBD4DE",
/* pixels */
"                                                                                                                                ",
"                                                                                                                                ",
"                                                                                                                                ",
"                                                                                                                                ",
"                                                                                                                                ",
"                                                                                                                                ",
"                                                                                                                                ",
"                                                                                                                                ",
"                                          . . .       . . . . . . . . . . .                                                     ",
"                                        . . o O     o o o o o O O O O O o o                                                     ",
"                                        . o 5 t * O 1 5 7 7 y u u u u u 7 5 % .                                                 ",
"                                        . O u E 6 $ 7 T T T ~ ^ ^ ^ ^ ^ Q I 1 o                                                 ",
"                                        . o r U 7 2 I Q ~ ~ ~ ^ ^ ^ ^ ^ ^ Q u 5 & .                                             ",
"                                        . O 5 u r y E ~ ^ ^ ^ ^ ^ ^ ^ ^ ^ ^ Q I 1 O                                             ",
"                                            % 1 7 P T Q ~ ^ ^ ^ ^ ^ ^ ^ ^ ^ ~ Q u 5 % .                                         ",
"                                            o % 7 U U T ~ ^ ^ ^ ^ ^ ^ ^ ^ ^ ^ ^ Q P * .                                         ",
"                                          o 1 7 P U E ~ ~ ^ ^ ^ O.^ ^ ^ ^ ^ ^ ^ ~ E 1 .                                         ",
"                                        . o 5 U U U Q ^ ^ ^ ~ ~ ^ ^ ^ ^ ^ ^ ^ ^ ^ Q 6 .                                         ",
"                                        . O 5 U U U ~ ^ ^ ^ ~ Q ~ ^ ^ ^ ^ ^ ~ Q ~ Q 4 .                                         ",
"                                        . O 5 U U T Q ~ ^ ~ Q T Q ^ ^ ^ ^ ~ U I Q Q 6 .                                         ",
"                                      . . o 7 U U U U Q ~ ~ ~ Q Q Q Q ^ ~ T P r I I 1 .                                         ",
"                                    . . . % 7 U I U U U Q ^ ^ ~ T U Q ~ ! ! u 3 t y * .                                         ",
"                                    . o * 7 u I P y u T T Q E T y r I ! =.w.o.Z 0 * $                                           ",
"                                    . O 5 P I P y 7 u I T T E E i 7 Y +.A.U.Z.o.> .                                             ",
"                                        & 1 5 y 7 7 P U U Q e.p.$.X.-.A.`.%XJ.y.d .                                             ",
"                                        . o 1 3 7 7 P U T ^ ).XXi.;.F.[.=X:X|.d.s .                                             ",
"                                            $ & 2 7 P U Q :.OX2X}.a.'.*X,X:X'.z.h .                                             ",
"                                            . o 1 7 P U ~ r.+X3X#X{.XX<X<X-X[.A.V .                                             ",
"                                            . . o * r U ~ >.'.1X@XXX;X<X*X[.Z...> .                                             ",
"                                            @ X . o 7 U Q >.].=X=X=X=X[.I.A...2 $ .                                             ",
"                                          # M B = o 7 U Q +.;.B.B.B.B.N.J V 9 $ o .                                             ",
"                                        . #  .;.q o 3 I Q +.N b b x.n b : X o o . .                                             ",
"                                        . #  .;.w . % 2 I ! q x b c.c.x.N a 7 7 & . . .                                         ",
"                                        . # A %.0 o o & y T * @ G b.v.v.K Y ^ _ r @ # #                                         ",
"                                        . o > e t L 8 8 8 * O + Z =.=.=.} { ,.S.w.*.*.&.g . .                                   ",
"                                        . . . $ R ] ] _ 8 O o % ) Q.Q.] ^ } m.P.U.R.R.G.C . .                                   ",
"                                        . . . # o.S.S.u.:.R t i _ W.W.<.O.B B &.M.`.R.G.C . .                                   ",
"                                        . . + , m.R.U.].(.E.O.[ ' !.!.E.@.p = # 9.P.P.F.C . .                                   ",
"                                        . ; o.H.].[._.(./.E.^ [ ' !.!.!.1.( 5 X w A A C w                                       ",
"                                        . > H.<X<X&X).W.W.E.O.+.' !.!.^.!.<.8 . . . . .                                         ",
"                                        . > H.<X<X&Xi.O.@.:.` :.E.!./.a.a.t.z . .                                               ",
"                                        . > Z.-X-X[.q.B B [ ' !.!.^.a.l.l.g.f .                                                 ",
"                                          - D 8.8.o.g > h #.e.t.s.a.l.l.l.f.j .                                                 ",
"                                            . . . . . # k 7.7.6.g.l.l.l.g.f.f .                                                 ",
"                                              . . X < c F J 4.6.g.l.l.g.3.j -                                                   ",
"                                                . @ c m m m 8.6.f.l.l.f.f .                                                     ",
"                                                . ; 4.H.v.x.9.6.f.f.g.f.f .                                                     ",
"                                                . - l.oXV.v.0.5.5.6.g.f.f .                                                     ",
"                                                . - g. X0.v g f 3.6.h.f.f .                                                     ",
"                                                . - g.|.l . X ; l 6.h.f.f .                                                     ",
"                                                . + j 2.- + - k 5.g.l.f.f .                                                     ",
"                                                . . . . . + k 7.h.g.g.f.f .                                                     ",
"                                                      . . @ V J n.n.S j -                                                       ",
"                                                        . @ x m c.v.v +                                                         ",
"                                                        . X x m M.Y.j.7.j                                                       ",
"                                                        . @ x x.K.$X$X X2..                                                     ",
"                                                        . @ x H K.$X$X X2..                                                     ",
"                                                                                                                                ",
"                                                                                                                                ",
"                                                                                                                                ",
"                                                                                                                                ",
"                                                                                                                                ",
"                                                                                                                                ",
"                                                                                                                                "
};
