/* XPM */
static char *out[] = {
/* columns rows colors chars-per-pixel */
"64 64 194 2 ",
"   c None",
".  c #000000",
"X  c #0D0304",
"o  c #06040A",
"O  c #09060C",
"+  c #0C0B0B",
"@  c #130303",
"#  c #12090C",
"$  c #150708",
"%  c #0A0612",
"&  c #070A12",
"*  c #0B0914",
"=  c #0E0A18",
"-  c #120B1D",
";  c #180D14",
":  c gray12",
">  c #181414",
",  c #2C0808",
"<  c #370B0C",
"1  c #250E1E",
"2  c #201516",
"3  c #26121D",
"4  c #29191C",
"5  c #3A1111",
"6  c #150E22",
"7  c #170E29",
"8  c #1A0F2C",
"9  c #191225",
"0  c #1C122D",
"q  c #1B152A",
"w  c #1E1333",
"e  c #141838",
"r  c #250C21",
"t  c #24142C",
"y  c #2B1723",
"u  c #341826",
"i  c #211536",
"p  c #23163B",
"a  c #261A3D",
"s  c #291939",
"d  c #271734",
"f  c #371834",
"g  c #1E262D",
"h  c #1E3036",
"j  c #232323",
"k  c #2C2C2D",
"l  c #3E272A",
"z  c #2B2830",
"x  c #3A2636",
"c  c #333232",
"v  c #3A3636",
"b  c #3B3B3C",
"n  c #353338",
"m  c #4C0C0C",
"M  c #421D1D",
"N  c #6C1212",
"B  c #7B1515",
"V  c #7E1F1F",
"C  c #751515",
"Z  c #401C2C",
"A  c #561829",
"S  c #481C37",
"D  c #452428",
"F  c #492735",
"G  c #4D2B31",
"H  c #412139",
"J  c #532E36",
"K  c #53243A",
"L  c #463535",
"P  c #652024",
"I  c #6B3333",
"U  c #673336",
"Y  c #70232F",
"T  c #271941",
"R  c #2A1C45",
"E  c #2D1E49",
"W  c #311D41",
"Q  c #29214A",
"!  c #31224E",
"~  c #3A244A",
"^  c #202A51",
"/  c #352454",
"(  c #3C2653",
")  c #392659",
"_  c #3C295D",
"`  c #3E2F57",
"'  c #263359",
"]  c #302F62",
"[  c #3F3E71",
"{  c #353D78",
"}  c #343967",
"|  c #521F43",
" . c #492547",
".. c #512449",
"X. c #542F49",
"o. c #54394A",
"O. c #492B56",
"+. c #40305F",
"@. c #563A54",
"#. c #662F49",
"$. c #653746",
"%. c #663A5C",
"&. c #7D3C52",
"*. c #4D3D6A",
"=. c #533968",
"-. c #673C60",
";. c #3C457C",
":. c #444344",
">. c #4D4D4D",
",. c #4E4E50",
"<. c #545454",
"1. c #5B5555",
"2. c #5B5B5B",
"3. c #6E4258",
"4. c #774955",
"5. c #745C5C",
"6. c #495468",
"7. c #51596E",
"8. c #554271",
"9. c #4D5770",
"0. c #4A5877",
"q. c #584869",
"w. c #7F4F71",
"e. c #7C5C78",
"r. c #75506C",
"t. c #446D7C",
"y. c #5B647A",
"u. c #656565",
"i. c #6C6C6C",
"p. c #6B6565",
"a. c #656472",
"s. c #727272",
"d. c #7D676F",
"f. c #851C1C",
"g. c #982828",
"h. c #873131",
"j. c #953136",
"k. c #892225",
"l. c #A13339",
"z. c #904F5D",
"x. c #8B555A",
"c. c #985050",
"v. c #8E4446",
"b. c #A3464A",
"n. c #AB4444",
"m. c #854C65",
"M. c #904A65",
"N. c #8B5665",
"B. c #9C5669",
"V. c #92536E",
"C. c #8A5A79",
"Z. c #A05A6C",
"A. c #AC5F70",
"S. c #926D6D",
"D. c #876F7B",
"F. c #856269",
"G. c #A36569",
"H. c #A66377",
"J. c #B76778",
"K. c #A47575",
"L. c #B6777E",
"P. c #C16A7D",
"I. c #384C88",
"U. c #384782",
"Y. c #3D548D",
"T. c #485788",
"R. c #796B8B",
"E. c #B96F82",
"W. c #A97B8A",
"Q. c #C46E80",
"!. c #C67685",
"~. c #638291",
"^. c #7E8596",
"/. c #969696",
"(. c #928897",
"). c #AB8A9A",
"_. c #988AA3",
"`. c #AF9DB6",
"'. c #BD9BA7",
"]. c #8BA3B0",
"[. c #AEAEAE",
"{. c #C7808E",
"}. c #CB8796",
"|. c #D98693",
" X c #DA8992",
".X c #D78994",
"XX c #CC919C",
"oX c #DA919C",
"OX c #D4838D",
"+X c #E08F9A",
"@X c #E4949E",
"#X c #E1B1BB",
"$X c #BFB7C4",
"%X c #DBD3DD",
/* pixels */
"                                                                                                                                ",
"                                                                                                                                ",
"                                                                                                                                ",
"                                                                                                                                ",
"                                                                                                                                ",
"                                                                                                                                ",
"                                          . . .       . . . . . . . . . . .                                                     ",
"                                        . . o O     O o o O O O % O O O O O                                                     ",
"                                        . o 9 i - o 7 w 8 w p T a a a a w 8 = .                                                 ",
"                                        . O a ! 7 % w E E ! / _ _ _ _ _ / T 7 o                                                 ",
"                                        . O i E t 7 R / ) ) _ _ _ _ _ _ O./ T 8 = .                                             ",
"                                        . O 0 p p p E +.) _ _ _ _ _ _ _ ] ) / R 6 O                                             ",
"                                            - - i T E / ) _ _ _ ] +._ _ _ _ ) / a 0 = . .                                       ",
"                                            o % w R E E ) _ _ _ +.+._ _ _ _ _ _ / R - . .                                       ",
"                                          o 6 i T E / ) _ _ _ _ ) _ _ _ _ _ _ _ ) ! 6 . .                                       ",
"                                        . o 0 E E E / _ _ _ _ ) ) +._ _ _ _ _ _ _ / 6 . .                                       ",
"                                        . o w E R E ) ] +.) / / / +.] _ _ _ / / ) / 9 . .                                       ",
"                                        . o 0 R E E / _ ) ) / ! / ) +._ _ ) E R / / 9 . .                                       ",
"                                      . . o 0 E E E E / ) ) ) / / / ) ) / E p i T E - . .                                       ",
"                                    . . o % i E R E R E / +.) ) E R / _ O.~ s t i i - . .                                       ",
"                                    . o - w a R T p R E ! ! / E T i R O.-.w.X.H t - %                                           ",
"                                    . O q T R T p w T E E Q ! ~ p t W O.V.J.N.X.y .                                             ",
"                                        % 6 w i w i a E E ! q.r.@...%.M.E.{.D.6.g .                                             ",
"                                        . o 6 0 w i a R E +.R._.C.%.A.Q..XXX(.t.h .                                             ",
"                                            % = 7 w T E / =._.$X^.y.K. X@XoX).d.n .                                             ",
"                                            . o - w T E ] *.`.%X].~.).@X@X XQ.B.D .                                             ",
"                                                % - i E / *.).#X'.).XX+X|.!.m.X.y .                                             ",
"                                                . o w E / =.H.|. X X XOXJ.B.X.0 % .                                             ",
"                                              . . o 0 E / O.&.b.b.b.b.v.I F f 8 % .                                             ",
"                                            + # . o 0 R / O.A N C B f.N 5 O 6 7 % .                                             ",
"                                          # Z S ; o % 9 E / u m C g.g.k.A r - % o .                                             ",
"                                        . # K #.u o . O p / 6 $ P l.l.j.Y f 1 + o .                                             ",
"                                        . O 3 u a e * O s / 6 O f -.=.%.| S #.$.4 .                                             ",
"                                        . . . O Q ] w ; s Q 6 & ^ { U.{ ( | M.A.J $                                             ",
"                                        . . . ; o.w.4.$.x 6 & & ' I.I.U.+.| M.J.z.$.l . .                                       ",
"                                        . . . > 4.P.P.H.J # O = ] Y.Y.I.+.| M.J.P.A.G . .                                       ",
"                                        . . . 2 x..XOX{.G.4.F d } Y.Y.Y.*.*.W.A.J.A.G . .                                       ",
"                                        . . . 2 N..X@X@X@X}.m. .{ Y.Y.Y.Y.T.W.A.J.Z.G . .                                       ",
"                                          . . + l 4.L.@X@X}.e.;.U.Y.0.9.9.6.~ S J G l                                           ",
"                                            . . + 4 x..XoX}.R.Y.Y.T.9.2.2.,.y . . .                                             ",
"                                            . + j v o.4.F.D.a.9.y.y.a.u.2.,.j . .                                               ",
"                                            o > b >.k 9 b <.<.2.u.s.s.s.u.,.j .                                                 ",
"                                          + j v >.<.:.c k c :.2.u.u.i.s.i.2.k .                                                 ",
"                                        . + b 1.1.1.<.>.: + v <.<.2.u.s.s.u.c +                                                 ",
"                                        . # D I I U l j > + j j j k ,.u.i.i.<.b j                                               ",
"                                        . @ m C C N , .     . . . + v <.u.s.s.u.k .                                             ",
"                                        . @ m B k.V < .           + j c ,.u.i.u.k .                                             ",
"                                        . @ m f.g.j.M +             . + v 2.p.p.c +                                             ",
"                                              h.G.K.d.<.c           . X M I 4.c.5.2.c . .                                       ",
"                                                [.[.[./.:..         . X m B g.n.K./.:.. .                                       ",
"                                                                    . X m V c.K.5.>.c                                           ",
"                                                                    . X m V S./.:..                                             ",
"                                                                      X , 5 L >.c                                               ",
"                                                                        . . . .                                                 ",
"                                                                        . . . .                                                 ",
"                                                                                                                                ",
"                                                                                                                                ",
"                                                                                                                                ",
"                                                                                                                                ",
"                                                                                                                                ",
"                                                                                                                                ",
"                                                                                                                                ",
"                                                                                                                                ",
"                                                                                                                                "
};
