/* XPM */
static char *out[] = {
/* columns rows colors chars-per-pixel */
"31 31 200 2 ",
"   c None",
".  c #DF7115",
"X  c #E36C09",
"o  c #E26D0D",
"O  c #E36E0D",
"+  c #E26E0E",
"@  c #E36E0E",
"#  c #E36F0E",
"$  c #E46F10",
"%  c #E27011",
"&  c #E37111",
"*  c #E17113",
"=  c #E47010",
"-  c #E47212",
";  c #E27215",
":  c #E17216",
">  c #E37316",
",  c #E47215",
"<  c #E27418",
"1  c #E1751A",
"2  c #E1761B",
"3  c #E3761B",
"4  c #E47518",
"5  c #E47519",
"6  c #E57519",
"7  c #E4751A",
"8  c #E4761A",
"9  c #E5761B",
"0  c #E0751C",
"q  c #E3761C",
"w  c #E1761E",
"e  c #E0771F",
"r  c #E3771E",
"t  c #E4781E",
"y  c #D97725",
"u  c #DC7823",
"i  c #D7792B",
"p  c #DF7E2F",
"a  c #E07820",
"s  c #E17820",
"d  c #E27820",
"f  c #E47921",
"g  c #E57A20",
"h  c #E67A21",
"j  c #E77A21",
"k  c #E57A22",
"l  c #E67A22",
"z  c #E77B22",
"x  c #E67D25",
"c  c #E77D26",
"v  c #E67E27",
"b  c #E87C25",
"n  c #E87F27",
"m  c #E67E28",
"M  c #E57F2B",
"N  c #E67F2A",
"B  c #E87F28",
"V  c #DE8132",
"C  c #DC8137",
"Z  c #D3823E",
"A  c #D7843E",
"S  c #E5802B",
"D  c #E7802A",
"F  c #E3812F",
"G  c #E88029",
"H  c #E98029",
"J  c #E8822C",
"K  c #E8822D",
"L  c #E8832E",
"P  c #E58332",
"I  c #E78533",
"U  c #E08437",
"Y  c #E68637",
"T  c #EA8634",
"R  c #EA8735",
"E  c #EA8836",
"W  c #E5883C",
"Q  c #E88B3E",
"!  c #EB8C3D",
"~  c #EB8D3F",
"^  c #CE8548",
"/  c #CC864B",
"(  c #CD874B",
")  c #CF894F",
"_  c #DD8B45",
"`  c #D48848",
"'  c #CB8850",
"]  c #CA8B57",
"[  c #E88D42",
"{  c #EC8E40",
"}  c #EC8F41",
"|  c #EC9044",
" . c #ED9044",
".. c #EC9247",
"X. c #ED9449",
"o. c #EE954B",
"O. c #E9954E",
"+. c #EB974F",
"@. c #EF9953",
"#. c #EF9A54",
"$. c #F09B54",
"%. c #F09C56",
"&. c #F09D58",
"*. c #F09D59",
"=. c #F09E58",
"-. c #F19E59",
";. c #F2A05F",
":. c #F2A25F",
">. c #DB9B66",
",. c #D19B6D",
"<. c #C29774",
"1. c #C59873",
"2. c #C19877",
"3. c #C69E7F",
"4. c #E49D62",
"5. c #D6A074",
"6. c #EEA66C",
"7. c #ECA76E",
"8. c #F1A361",
"9. c #F3A361",
"0. c #F2A362",
"q. c #F3A462",
"w. c #F3A563",
"e. c #F2A565",
"r. c #F2A666",
"t. c #F4A86C",
"y. c #F4A96D",
"u. c #F4AB6F",
"i. c #E6A670",
"p. c #EAA973",
"a. c #F5AC71",
"s. c #F4AD72",
"d. c #F5AD72",
"f. c #F5AE72",
"g. c #F5AE73",
"h. c #F6AE73",
"j. c #F5AF75",
"k. c #F6AF75",
"l. c #F5B076",
"z. c #F5B177",
"x. c #F7B076",
"c. c #F6B077",
"v. c #F6B177",
"b. c #F6B279",
"n. c #F7B17A",
"m. c #F6B37B",
"M. c #F7B47B",
"N. c #F6B37C",
"B. c #F7B47C",
"V. c #F7B47D",
"C. c #F7B57D",
"Z. c #F6B47E",
"A. c #F6B57F",
"S. c #F7B67E",
"D. c #F7B67F",
"F. c #B99F87",
"G. c #BAA089",
"H. c #BEA58D",
"J. c #BBA696",
"K. c #BDA894",
"L. c #B5AFA8",
"P. c #B3B0AE",
"I. c #C09E84",
"U. c #C4A384",
"Y. c #CBA788",
"T. c #F6B681",
"R. c #F7B681",
"E. c #F7B682",
"W. c #F8B781",
"Q. c #F8B987",
"!. c #F8BB86",
"~. c #F8BA88",
"^. c #F8BB88",
"/. c #F8BB89",
"(. c #F8BC89",
"). c #F9BC89",
"_. c #F8BC8A",
"`. c #F9BD8A",
"'. c #F9BC8B",
"]. c #F9BD8B",
"[. c #F8BE8B",
"{. c #F9BD8C",
"}. c #F9BE8D",
"|. c #FABE8D",
" X c #F9BE8E",
".X c #F9BF8E",
"XX c #F9BF8F",
"oX c #FABF8F",
"OX c #F9BF90",
"+X c #F9BF91",
"@X c #FABF90",
"#X c #FABF91",
"$X c #F9C08F",
"%X c #FAC08F",
"&X c #F9C090",
"*X c #F9C091",
"=X c #FAC090",
"-X c #FAC190",
";X c #FAC091",
":X c #FAC191",
/* pixels */
"                                                              ",
"                                                              ",
"                        +.B I I n O.                          ",
"                    g v %.d.N.Z.s.=.D N                       ",
"                  k :.].:X;X=X;X*X=X|.*.x                     ",
"                & m.=X*X=X=X*X=X&X*X=X-Xa.5                   ",
"              4 k.OX;X=X`.&.H b $./.-X&XXXt.Y                 ",
"            7.| ;X=X@XD.- ^ F.G.' > l.&X=X:Xj                 ",
"            , }.;X;XE.: J.        H.: ).*X*Xn.P               ",
"          p.X.XX;XOXc 3.            ` #.=X:X*XX               ",
"          M C.;X;XT.u                 v  X=X*XJ               ",
"          5 ].:X:X..,.                0 ^.&X;Xw.4.            ",
"          l +X*X;Xh                   2 R.*X&Xv.U             ",
"          T -X=X=X$                   a S.=X*XV.w             ",
"          } =X-X-X+                   s N.*X-XB.e             ",
"          ~ &X*X;X+                   1 A.&X&Xc.V             ",
"          R ;X=X=X=                   q W.=X*Xg._             ",
"          m =X+X#X9                   d ~.=X+X8.>.            ",
"          ; oX*X;XK                   t ].+X-XR               ",
"          2 (.;X;Xo.i.                E %X=X*X#               ",
"          p h.OX@XM.F               W 9.:X;X&Xo               ",
"          5. .$X;XXX6               7 ].*X&Xu.C               ",
"            * }.=X*Xz.8           S r.&X;X=XL                 ",
"            A e.;X=X;Xy.O Q 6.[ # ;.=X&X;X[..                 ",
"              % Q.=X&X=X.Xx.q.f.=X=X=X;X{.z Y.                ",
"              U.@ !.=X*X+X;X*X&X&X*X;X_.G )                   ",
"                1.< j.'.;X#X@X=X-X{.b.f Z                     ",
"                  K.i 3 ! -.0.@.{ r y I.                      ",
"                      P.2.( / ] <.L.                          ",
"                                                              ",
"                                                              "
};
