/* XPM */
static char *out[] = {
/* columns rows colors chars-per-pixel */
"31 31 84 1 ",
"  c None",
". c #DB741F",
"X c #DC741E",
"o c #E36E0C",
"O c #E36F0E",
"+ c #E37111",
"@ c #E47113",
"# c #E47213",
"$ c #E37315",
"% c #E17216",
"& c #E57517",
"* c #E4751A",
"= c #E4761B",
"- c #E6781C",
"; c #E6791D",
": c #E6791F",
"> c #DA7623",
", c #DC7520",
"< c #DE7722",
"1 c #D97928",
"2 c #E77B21",
"3 c #E57A22",
"4 c #E07A25",
"5 c #E27B26",
"6 c #E77D25",
"7 c #E47C26",
"8 c #E77E27",
"9 c #E37D28",
"0 c #E47E28",
"q c #E77E28",
"w c #E77F28",
"e c #E8822D",
"r c #E9822D",
"t c #E78736",
"y c #E98430",
"u c #EA8633",
"i c #E98737",
"p c #EB8836",
"a c #EA8938",
"s c #E88B3E",
"d c #EC8B3C",
"f c #EC8C3C",
"g c #CF8547",
"h c #CE8951",
"j c #EC8E40",
"k c #EC8F41",
"l c #ED9044",
"z c #ED9246",
"x c #ED9448",
"c c #EE954A",
"v c #EE964D",
"b c #EF974D",
"n c #F1A15F",
"m c #D1A075",
"M c #EDA468",
"N c #F4A769",
"B c #F4A96B",
"V c #F3A96C",
"C c #F5B176",
"Z c #F5B077",
"A c #BD9B81",
"S c #BBA896",
"D c #C4A995",
"F c #F7B681",
"G c #F7B781",
"H c #F7B782",
"J c #F8B782",
"K c #F8B882",
"L c #F8B985",
"P c #F0BC8F",
"I c #F8BC89",
"U c #F9BE8C",
"Y c #F9BF8E",
"T c #FABF8E",
"R c #F9BF91",
"E c #FABF91",
"W c #F9C08F",
"Q c #FAC08F",
"! c #F9C090",
"~ c #F9C091",
"^ c #FAC090",
"/ c #FAC190",
"( c #FAC091",
") c #FAC191",
/* pixels */
"                               ",
"                               ",
"               i3t             ",
"             srZTf             ",
"            ;cU~~v             ",
"           =BW!^~b             ",
"         P:L(~(/~x             ",
"         OL~~~~~~l             ",
"         oI~~C~~~j             ",
"         m*n6&(^~d             ",
"          SgA4^^~a             ",
"             5~~~u             ",
"             9!~~y             ",
"             0)^~e             ",
"             0(!~e             ",
"             0)(!w             ",
"             0()(q             ",
"             0(!/q             ",
"             0(/^q             ",
"             0!^(q             ",
"             0(!)q             ",
"             0(!(q             ",
"             7^^(q             ",
"          $@-eR!(k8#M          ",
"         +V(!(/(~E/Y2          ",
"         +Q^^^^^^^^^p          ",
"         <zZFKHHKJGN%          ",
"          h>,XXXXX.1D          ",
"                               ",
"                               ",
"                               "
};
