/* XPM */
static char *out[] = {
/* columns rows colors chars-per-pixel */
"31 31 178 2 ",
"   c None",
".  c #DF6F13",
"X  c #DC741C",
"o  c #DE741C",
"O  c #DC741E",
"+  c #DC751E",
"@  c #DC751F",
"#  c #E36C09",
"$  c #E26C0A",
"%  c #E36D0A",
"&  c #E36D0C",
"*  c #E36E0D",
"=  c #E3700F",
"-  c #E37010",
";  c #E37011",
":  c #E47112",
">  c #E47212",
",  c #E47314",
"<  c #E47417",
"1  c #E37519",
"2  c #E0741B",
"3  c #E2751B",
"4  c #E57519",
"5  c #E1771C",
"6  c #E2761C",
"7  c #E5781E",
"8  c #E5791F",
"9  c #DB7622",
"0  c #DB7623",
"q  c #DA7723",
"w  c #DA7927",
"e  c #D57B2F",
"r  c #D67A2F",
"t  c #D87B2D",
"y  c #D87B2E",
"u  c #DC7C2C",
"i  c #DF7D2C",
"p  c #D57C31",
"a  c #D77C32",
"s  c #DD7E30",
"d  c #D37E39",
"f  c #E57920",
"g  c #E57A21",
"h  c #E67B21",
"j  c #E67C22",
"k  c #E67C23",
"l  c #E57C24",
"z  c #E67E27",
"x  c #E47E29",
"c  c #D4803A",
"v  c #D5803B",
"b  c #D1813C",
"n  c #D1813E",
"m  c #D4813C",
"M  c #D98138",
"N  c #E9802A",
"B  c #E8812B",
"V  c #E8832E",
"C  c #EA842F",
"Z  c #E78736",
"A  c #EA8632",
"S  c #EA8734",
"D  c #EA8939",
"F  c #EB8939",
"G  c #EB8A38",
"H  c #E88A3B",
"J  c #EB8A3A",
"K  c #E98B3C",
"L  c #E98B3E",
"P  c #EB8C3C",
"I  c #E98C3F",
"U  c #EC8D3C",
"Y  c #EC8D3F",
"T  c #BE9979",
"R  c #C98F5E",
"E  c #CA8E5E",
"W  c #D18F57",
"Q  c #E88D41",
"!  c #ED8E41",
"~  c #EA8F46",
"^  c #ED9043",
"/  c #EA9044",
"(  c #EC9145",
")  c #ED9145",
"_  c #EE9348",
"`  c #EE9349",
"'  c #EE954B",
"]  c #EE954C",
"[  c #EB9853",
"{  c #EE9851",
"}  c #EF9A53",
"|  c #EF9C56",
" . c #EB9D5C",
".. c #EA9F5F",
"X. c #F09B55",
"o. c #F09C57",
"O. c #F09D59",
"+. c #F19F5B",
"@. c #F2A05C",
"#. c #C78F60",
"$. c #D69562",
"%. c #DA9860",
"&. c #C29572",
"*. c #C49771",
"=. c #D19F75",
"-. c #EC9E61",
";. c #EEA262",
":. c #ECA264",
">. c #EDA364",
",. c #EDA76A",
"<. c #E9A56D",
"1. c #F3A260",
"2. c #F3A362",
"3. c #F3A363",
"4. c #F3A665",
"5. c #F4A96A",
"6. c #F4A96B",
"7. c #F4A96C",
"8. c #F4AB6D",
"9. c #EDAA70",
"0. c #F5AC70",
"q. c #F4AD71",
"w. c #F5AD71",
"e. c #F4AE72",
"r. c #F4AF74",
"t. c #F5AF75",
"y. c #F6AE74",
"u. c #F6AF74",
"i. c #F6B076",
"p. c #F6B177",
"a. c #F6B278",
"s. c #F6B27A",
"d. c #F7B57E",
"f. c #BFA592",
"g. c #B8A596",
"h. c #B6ACA3",
"j. c #BDB0A4",
"k. c #B4B2B2",
"l. c #B6B4B2",
"z. c #E1AD81",
"x. c #EEB788",
"c. c #F1B582",
"v. c #F6B681",
"b. c #F7B681",
"n. c #F7B781",
"m. c #F7B782",
"M. c #F7B783",
"N. c #F8B781",
"B. c #F7B882",
"V. c #F7B884",
"C. c #F8B883",
"Z. c #F8B885",
"A. c #F9B985",
"S. c #F8BB88",
"D. c #F8BC8A",
"F. c #F9BC8A",
"G. c #F9BD8B",
"H. c #F8BE8C",
"J. c #F9BF8D",
"K. c #F8BF8E",
"L. c #F9BF8E",
"P. c #F9BE8F",
"I. c #F9BF8F",
"U. c #FABF8E",
"Y. c #F9BF90",
"T. c #F9BF91",
"R. c #FABF90",
"E. c #F9C08F",
"W. c #FAC08F",
"Q. c #F9C090",
"!. c #F9C190",
"~. c #F9C091",
"^. c #F9C191",
"/. c #FAC090",
"(. c #FAC190",
"). c #FAC091",
"_. c #FAC191",
"`. c #F3C7A2",
/* pixels */
"                                                              ",
"                                                              ",
"                              Q K K I c.                      ",
"                        -.k F @.8.8.@.J f  .                  ",
"                      j ^ M.I.)./.).)./.Z.( l                 ",
"                    < y.Q.).).Y.Q.~.Y.T.Q.Q.5.z               ",
"                `.4 C./.~./.E.w.] X.b././.~./.Y x.            ",
"                % Z.R.)./.e.: e &.#.X U P././.S.x             ",
"                # G./.Y.| . g.      l.t q.~.~.).6             ",
"                =.- ) 7 d             s i.Q.Q.).5             ",
"                  k.T h.              1 F.~./.N.i             ",
"                                    g X.).Y.Q.{ %.            ",
"                                  H _ E./.~.~.;               ",
"                              ,.8 1.I._.).W.! W               ",
"                            / A v.Q.T.~.U.' w                 ",
"                        ;.h 2.L.Q.Q.Q.D.S m                   ",
"                      L C V.).~.).L.+.3 R                     ",
"                    Z ) H.Q.!.I.s.B c f.                      ",
"                  ..G Y.~.).Q.o.2 *.                          ",
"                  > J.T.Q.I.P a j.                            ",
"                <.} ~._.I.` v                                 ",
"                = d.Q.).b.o                                   ",
"                # J._.Q.3.M z.9.:.[ ~ ~ ~ >.                  ",
"                * ~.~.^.' D o.0.p.K.~.~.Y.u.V #               ",
"                & I.~._.~./.(.~.Q.T.~.).Y.~./.N.,             ",
"                $ A.).Q.~.(.~.~.)./.~./.).~.Y./.*             ",
"                $.N r.m.n.t.7.4.4.4.4.4.6.a.B.O.u             ",
"                  E 0 O @ q r b n b b n p 9 + y               ",
"                                                              ",
"                                                              ",
"                                                              "
};
