/* XPM */
static char *out[] = {
/* columns rows colors chars-per-pixel */
"31 31 173 2 ",
"   c None",
".  c #DE7015",
"X  c #DD7218",
"o  c #DD721A",
"O  c #DA751F",
"+  c #DD751D",
"@  c #DF751D",
"#  c #DE761F",
"$  c #E26C09",
"%  c #E36C09",
"&  c #E16D0D",
"*  c #E06E0D",
"=  c #E36E0D",
"-  c #E47212",
";  c #E27215",
":  c #E37216",
">  c #E57416",
",  c #E3761B",
"<  c #E57518",
"1  c #E6771A",
"2  c #E5781D",
"3  c #E6781D",
"4  c #E7781D",
"5  c #E5781E",
"6  c #E5791F",
"7  c #E6791E",
"8  c #E7791F",
"9  c #DA7520",
"0  c #DA7622",
"q  c #DC7723",
"w  c #DE7925",
"e  c #D77829",
"r  c #DB7928",
"t  c #D67B30",
"y  c #D67F36",
"u  c #DA7C30",
"i  c #DD7F31",
"p  c #E67A21",
"a  c #E57A22",
"s  c #E57B22",
"d  c #E77C24",
"f  c #E57D26",
"g  c #E67D26",
"h  c #E87E27",
"j  c #E77F2A",
"k  c #DB8337",
"l  c #D1803D",
"z  c #D5823F",
"x  c #DE873E",
"c  c #E7802A",
"v  c #E6802B",
"b  c #E7812C",
"n  c #E6812D",
"m  c #E7832F",
"M  c #E88029",
"N  c #E8812B",
"B  c #E8822F",
"V  c #E78431",
"C  c #E98634",
"Z  c #EA8734",
"A  c #EB8937",
"S  c #E1893F",
"D  c #E78A3D",
"F  c #E48A3F",
"G  c #E88839",
"H  c #E8893A",
"J  c #EC8C3D",
"K  c #EC8C3E",
"L  c #EC8D3E",
"P  c #CD874A",
"I  c #CE874D",
"U  c #D18240",
"Y  c #D08343",
"T  c #D2884A",
"R  c #CC8C57",
"E  c #C78E5E",
"W  c #E28A43",
"Q  c #E58E46",
"!  c #ED9042",
"~  c #ED9245",
"^  c #EE9247",
"/  c #ED9348",
"(  c #EE9348",
")  c #EA934C",
"_  c #EA954F",
"`  c #EE954C",
"'  c #EE954D",
"]  c #EE974F",
"[  c #EA9853",
"{  c #EA9C5C",
"}  c #F09D57",
"|  c #F09C58",
" . c #F09D58",
".. c #F19D58",
"X. c #F19D59",
"o. c #F19E59",
"O. c #F09E5A",
"+. c #F19F5B",
"@. c #F19F5C",
"#. c #F1A05B",
"$. c #F1A05C",
"%. c #C4926A",
"&. c #DE9C65",
"*. c #EDA162",
"=. c #EAA46A",
"-. c #EEA86E",
";. c #F2A361",
":. c #F2A463",
">. c #F3A563",
",. c #F3A564",
"<. c #F3A768",
"1. c #F4A86A",
"2. c #F4AA6D",
"3. c #F3AD6F",
"4. c #E9AA75",
"5. c #F5AD71",
"6. c #F4AE73",
"7. c #F6AF73",
"8. c #F4AE74",
"9. c #F7B27A",
"0. c #F6B47B",
"q. c #F6B47E",
"w. c #F6B57F",
"e. c #F7B67F",
"r. c #BE9F85",
"t. c #B9A290",
"y. c #B9A594",
"u. c #B4A79C",
"i. c #BEAA99",
"p. c #B4ABA4",
"a. c #B6AEA5",
"s. c #B8AEA5",
"d. c #B5B0AC",
"f. c #B6B3B1",
"g. c #C4A790",
"h. c #F0B481",
"j. c #F7B680",
"k. c #F7B681",
"l. c #F8B782",
"z. c #F7B883",
"x. c #F7B884",
"c. c #F7B985",
"v. c #F8B884",
"b. c #F8B984",
"n. c #F8BA86",
"m. c #F8BA87",
"M. c #F0BB8C",
"N. c #F8BB88",
"B. c #F9BC89",
"V. c #F8BC8A",
"C. c #F9BC8A",
"Z. c #F9BD8B",
"A. c #F8BD8C",
"S. c #F9BE8C",
"D. c #F9BE8D",
"F. c #F9BF8E",
"G. c #F9BE8F",
"H. c #F9BF8F",
"J. c #FABF8E",
"K. c #F9BF90",
"L. c #F9BF91",
"P. c #FABF91",
"I. c #F9C08E",
"U. c #F9C08F",
"Y. c #FAC08F",
"T. c #F9C090",
"R. c #F9C190",
"E. c #F9C091",
"W. c #F9C191",
"Q. c #FAC090",
"!. c #FAC190",
"~. c #FAC091",
"^. c #FAC191",
/* pixels */
"                                                              ",
"                                                              ",
"                        [ B v j C b v                         ",
"                    ) a ~ 6.z.b.l.8.X.p H                     ",
"                  c ^ c.^.Q.E.T.T.E.Q.J. .p                   ",
"                n <.Q.^.P.!.^.~.~.^.!.P.Q.1.G                 ",
"                % Q.T.E.~.,.M 3 h ( B.~.E.T.8                 ",
"                i } Q.2.> U t.p.u.E ; k.E.Q.| 4.              ",
"                  t * e a.          T o.~.Q.5.F               ",
"                                    x +.E.K.7.S               ",
"                                  { 5 C.T.T.@.&.              ",
"                          -.V - h ..I.P.E.Q.4                 ",
"                        2 ` 9.C.T.T.E.!.G.O.u                 ",
"                      D 5.~.E.T.T.E.~.Z.A q                   ",
"                      W :.T.R.~.~.R.T.E./ @                   ",
"                        r m ! ..q.Y.E.T.H.3.f                 ",
"                          r.%.P # J m.~.T.T.' =.              ",
"                                  R s V.L.E.Z.:               ",
"                                    z @.E.T.E.%               ",
"                                      Z H.E.T.<               ",
"                g 6 1 *.              N F.T.~.=               ",
"              2 >.D.n.d M.          Q ] U.T.E.$               ",
"              = C.E.^.w.- h.      _ 7 V.Q.^.e.w               ",
"              k ;.Q.E.E.N.L < $ 3 #.U.~.E.E.d                 ",
"                & v.W.T.T.!.T.E.E.T.!.T.U.( y                 ",
"                g.; 0.F.T.E.E.~.~.E.E.A.K +                   ",
"                  i.O j >.x.V.Q.S.j.$., I                     ",
"                      y.l 9 o . X 0 Y s.                      ",
"                            f.a.d.                            ",
"                                                              ",
"                                                              "
};
