/* XPM */
static char *out[] = {
/* columns rows colors chars-per-pixel */
"31 31 127 2 ",
"   c None",
".  c #E36F0F",
"X  c #E37111",
"o  c #E47213",
"O  c #E37314",
"+  c #E17217",
"@  c #E37418",
"#  c #E47419",
"$  c #E57519",
"%  c #E57619",
"&  c #E0761D",
"*  c #E6781D",
"=  c #E4781E",
"-  c #E6791F",
";  c #DB7824",
":  c #DB7927",
">  c #DA7B2D",
",  c #DA7C2E",
"<  c #D67D32",
"1  c #D37D34",
"2  c #E67A20",
"3  c #E67A21",
"4  c #E77C23",
"5  c #E37B24",
"6  c #E17B26",
"7  c #E47B24",
"8  c #E37D27",
"9  c #E47C25",
"0  c #E57E27",
"q  c #E67E27",
"w  c #E37D28",
"e  c #E77E28",
"r  c #E67F29",
"t  c #E17E2C",
"y  c #E5802B",
"u  c #E7812E",
"i  c #E5822F",
"p  c #E88029",
"a  c #E48332",
"s  c #E68433",
"d  c #E88533",
"f  c #EB8733",
"g  c #E98736",
"h  c #EB8835",
"j  c #E38A3E",
"k  c #EA8838",
"l  c #EA8938",
"z  c #E98B3B",
"x  c #EC8B39",
"c  c #E98A3D",
"v  c #E98C3F",
"b  c #D78440",
"n  c #CB8955",
"m  c #C78F5F",
"M  c #CF915C",
"N  c #E58A41",
"B  c #EC8E40",
"V  c #E88E44",
"C  c #ED9042",
"Z  c #ED9044",
"A  c #ED9246",
"S  c #EE9246",
"D  c #EE9346",
"F  c #ED9348",
"G  c #EE954B",
"H  c #EB954D",
"J  c #EE964D",
"K  c #EE974F",
"L  c #EC9751",
"P  c #EB9956",
"I  c #EB9A57",
"U  c #EB9B57",
"Y  c #F09951",
"T  c #F09A53",
"R  c #F19F5C",
"E  c #CD9A6E",
"W  c #D69966",
"Q  c #C29672",
"!  c #C69871",
"~  c #C09978",
"^  c #C09879",
"/  c #C09B7D",
"(  c #F2A361",
")  c #F2A262",
"_  c #F1A463",
"`  c #F3A462",
"'  c #F2A564",
"]  c #F3A565",
"[  c #F3A767",
"{  c #F4A767",
"}  c #F4AB6F",
"|  c #E1AB7F",
" . c #E9AE7D",
".. c #F5AE73",
"X. c #F5B075",
"o. c #F5B077",
"O. c #F6B37C",
"+. c #F6B47D",
"@. c #B9A391",
"#. c #BFA793",
"$. c #BAA594",
"%. c #B8ABA0",
"&. c #C0A083",
"*. c #F6B480",
"=. c #F8B780",
"-. c #F7BA86",
";. c #F8B984",
":. c #F8B985",
">. c #F8BA85",
",. c #F9BA86",
"<. c #F8BB87",
"1. c #F8BC89",
"2. c #F8BD8A",
"3. c #F9BC8B",
"4. c #F9BE8C",
"5. c #F0BE94",
"6. c #F9BF90",
"7. c #F9BF91",
"8. c #FABF91",
"9. c #F9C08F",
"0. c #FAC08F",
"q. c #F9C090",
"w. c #F9C091",
"e. c #FAC090",
"r. c #FAC190",
"t. c #FAC091",
"y. c #FAC191",
/* pixels */
"                                                              ",
"                                                              ",
"                            z q u L                           ",
"                          r G ..X.h P                         ",
"                        d ` q.w.e.>.y                         ",
"                      U B t.q.y.q.8.9                         ",
"                      - 3.t.t.t.e.w.5                         ",
"                    O -.w.e.e.w.e.e.5                         ",
"                  s ( y.w.e.] w.q.7.5                         ",
"                5.4 y.e.t.' Z t.t.r.5                         ",
"                X 2.e.q.;.o Z q.e.e.5                         ",
"              # =.w.e.9.k 1 Z w.r.t.5                         ",
"            I D e.e.t.[ : ! Z e.t.e.5                         ",
"            2 9.w.t.<.+     Z w.y.e.5                         ",
"          * *.t.w.0.g M     Z w.t.r.5                         ",
"        0 _ q.q.q.] ,       Z q.q.q.5                         ",
"      c Y 6.e.e.,.. > j V a Z t.t.t.@ N v                     ",
"    H l e.w.e.r.1.O.O.O.O.O.:.w.q.t.o.} R %                   ",
"    i o.t.w.r.7.w.w.8.r.w.t.q.w.q.t.e.t.6.T  .                ",
"    7 ) y.e.8.e.e.e.e.8.e.t.e.e.e.t.e.r.7.S |                 ",
"      < $ f A F F F F F F F { w.e.q.J F p ;                   ",
"        %.@./ ~ ~ ~ ~ ~ ^ n Z q.q.t.& Q $.                    ",
"                          E Z t.t.r.6                         ",
"                            Z w.t.w.w                         ",
"                            C w.e.t.8                         ",
"                            x t.t.e.5                         ",
"                            3 4.e.+.t                         ",
"                            b e K = W                         ",
"                              &.m #.                          ",
"                                                              ",
"                                                              "
};
