/* XPM */
static char *out[] = {
/* columns rows colors chars-per-pixel */
"31 31 188 2 ",
"   c None",
".  c #DD731C",
"X  c #DC731D",
"o  c #DB741E",
"O  c #DC741D",
"+  c #DF751C",
"@  c #DE761E",
"#  c #E26C09",
"$  c #E26C0A",
"%  c #E26E0E",
"&  c #E46D0D",
"*  c #E46E0D",
"=  c #E06F10",
"-  c #E26F10",
";  c #E27011",
":  c #E37011",
">  c #E07012",
",  c #E37112",
"<  c #E17213",
"1  c #E47010",
"2  c #E47112",
"3  c #E27316",
"4  c #E57315",
"5  c #E47316",
"6  c #E47417",
"7  c #E27519",
"8  c #E1741B",
"9  c #E47418",
"0  c #E57418",
"q  c #E57519",
"w  c #E4751A",
"e  c #E5771A",
"r  c #E5761B",
"t  c #E6761A",
"y  c #E7761B",
"u  c #DA7725",
"i  c #DC7724",
"p  c #DF7823",
"a  c #DA7824",
"s  c #D97827",
"d  c #DA7927",
"f  c #D67A2D",
"g  c #D77A2D",
"h  c #D8792A",
"j  c #DE7C2A",
"k  c #E07720",
"l  c #E07821",
"z  c #E27921",
"x  c #E07822",
"c  c #E17923",
"v  c #E77A21",
"b  c #E47A23",
"n  c #E17924",
"m  c #E07B26",
"M  c #E17B26",
"N  c #E57C24",
"B  c #E57D27",
"V  c #E77E26",
"C  c #E87B22",
"Z  c #E87F27",
"A  c #E17E2B",
"S  c #D3803A",
"D  c #D1823F",
"F  c #D5823C",
"G  c #DE8338",
"H  c #E8802B",
"J  c #E8812B",
"K  c #E8822D",
"L  c #E9832D",
"P  c #E9832E",
"I  c #E18334",
"U  c #E08335",
"Y  c #E08437",
"T  c #E98431",
"R  c #E98632",
"E  c #E88837",
"W  c #EA8836",
"Q  c #EA8837",
"!  c #EA8A3A",
"~  c #EB8C3C",
"^  c #EB8C3D",
"/  c #EB8D3E",
"(  c #EC8D3D",
")  c #D58543",
"_  c #D08547",
"`  c #C98B56",
"'  c #DD9150",
"]  c #E08A41",
"[  c #ED8F41",
"{  c #EC9043",
"}  c #ED944A",
"|  c #ED944B",
" . c #EE954C",
".. c #EF964D",
"X. c #EF974E",
"o. c #E49452",
"O. c #EA9750",
"+. c #F09C56",
"@. c #F09D58",
"#. c #F09E5A",
"$. c #F09F5B",
"%. c #F0A15F",
"&. c #F2A35F",
"*. c #C4956D",
"=. c #D99B67",
"-. c #C19978",
";. c #C49C7B",
":. c #C49F7F",
">. c #E99F61",
",. c #EB9F60",
"<. c #DBA272",
"1. c #D0A27B",
"2. c #EDA265",
"3. c #E1A06A",
"4. c #E2A36E",
"5. c #F1A260",
"6. c #F3A260",
"7. c #F3A261",
"8. c #F2A363",
"9. c #F3A767",
"0. c #F3A768",
"q. c #F3A869",
"w. c #F4A86A",
"e. c #F4A96B",
"r. c #F4AA6B",
"t. c #F4A96C",
"y. c #F5AA6D",
"u. c #F5AA6E",
"i. c #F6AC6F",
"p. c #F0A870",
"a. c #F4AE71",
"s. c #F6AD72",
"d. c #F0AC76",
"f. c #F6AF74",
"g. c #EEB07A",
"h. c #F6B074",
"j. c #F6B176",
"k. c #F6B077",
"l. c #F6B279",
"z. c #F7B37B",
"x. c #F7B37D",
"c. c #F7B47E",
"v. c #F7B67F",
"b. c #F8B57E",
"n. c #BC9D81",
"m. c #BF9E82",
"M. c #BDA086",
"N. c #BEA189",
"B. c #BDA590",
"V. c #BDA795",
"C. c #BFA795",
"Z. c #B6A698",
"A. c #BAACA0",
"S. c #B6B0AB",
"D. c #B4B2B2",
"F. c gray71",
"G. c #C3AA92",
"H. c #EFB684",
"J. c #EBB588",
"K. c #F6B681",
"L. c #F7B883",
"P. c #F7BA85",
"I. c #F8B883",
"U. c #F8B884",
"Y. c #F8B986",
"T. c #F8BA86",
"R. c #F8BA87",
"E. c #FABB87",
"W. c #F8BA88",
"Q. c #F8BB88",
"!. c #F8BB8A",
"~. c #F8BC89",
"^. c #F8BC8A",
"/. c #F8BE8C",
"(. c #F9BF8D",
"). c #F9BF8F",
"_. c #FABF8E",
"`. c #F9BF90",
"'. c #F9BF91",
"]. c #FABF91",
"[. c #F9C08F",
"{. c #FAC08F",
"}. c #F9C090",
"|. c #F9C091",
" X c #FAC090",
".X c #FAC190",
"XX c #FAC091",
"oX c #FAC191",
/* pixels */
"                                                              ",
"                                                              ",
"                  g.                    d.2.                  ",
"              E P X.^ ~ ~ ~ ~ ~ ~ ~ ~ ~ } X.e H.              ",
"              J XX}.}..X'.}.}.XX}.XX XoX}.].Y.$               ",
"              ; |. XXX`.XXXX'.}.XX.X X|.|.|.P.#               ",
"              + |.oX X}.|. X|.}. X X'. X/.@.4 1.              ",
"              l  X|.|.a.= X O X X X O o f ` A.                ",
"              7 |. XXX&._                                     ",
"              - |. X).| =.4.Y A n M U                         ",
"              %  X`.`.R t ..k.E.|.(.j.[ ,                     ",
"              : `.XXXX_..XoX|.}.oX X'. X/.v                   ",
"              H |. XXX`.XXXX'.}.{. X X|.|.W.4                 ",
"              { |.'. X.X|.~.6.! K W r.).}.].q.B               ",
"            3.5.'..X.X}.8.8 D -.Z.n.a %. X|.|.q               ",
"            ] u.|. X{.$.d V.          z ^.|.|. .J.            ",
"            <.Q XX X0.@               + l..X|.b.o.            ",
"              F V Z s                 k t.XX|.|.I             ",
"                N.M.                  j w.|.|.|.m             ",
"                                      ; i.XX|.|.G             ",
"                                      b U. X|.f.'             ",
"                O.p.                >./ [.|.|.T               ",
"              * 9.+.9               0 L. X X).1               ",
"            & z.XX|.h.6         ,.2 v.XXoXXX#.)               ",
"            < s.|. X XT.L y 5 C +.{.'. X XK.>                 ",
"              ; !. XXX`.XXXX'.}.XX.X X).R.w G.                ",
"              :.r c.`.|.'.`. XXX`.|.).e.3 ;.                  ",
"                B.. ( y.I.Q.^.R.x.7.N g C.                    ",
"                    *.h i x c p u S m.                        ",
"                          D.S.F.                              ",
"                                                              "
};
