/* XPM */
static char *out[] = {
/* columns rows colors chars-per-pixel */
"31 31 182 2 ",
"   c None",
".  c #DD741C",
"X  c #DC741D",
"o  c #E36D0B",
"O  c #E26D0D",
"+  c #E36E0D",
"@  c #E36F0D",
"#  c #E16E0F",
"$  c #E16F10",
"%  c #E17012",
"&  c #E37113",
"*  c #E47112",
"=  c #E47213",
"-  c #E27316",
";  c #E47214",
":  c #E57316",
">  c #E27417",
",  c #E47416",
"<  c #E3751A",
"1  c #E3761B",
"2  c #E57518",
"3  c #E2771E",
"4  c #E6781D",
"5  c #E5791F",
"6  c #DD7721",
"7  c #DE7721",
"8  c #DF7921",
"9  c #DE7823",
"0  c #D37E37",
"q  c #D57E36",
"w  c #E27820",
"e  c #E57921",
"r  c #E67A21",
"t  c #E57B22",
"y  c #E67A22",
"u  c #E77C23",
"i  c #E47C24",
"p  c #E47C25",
"a  c #E77C24",
"s  c #E47C26",
"d  c #E87E26",
"f  c #E77F28",
"g  c #D68036",
"h  c #D48039",
"j  c #D2813D",
"k  c #D0813E",
"l  c #D4823D",
"z  c #D5833F",
"x  c #E7812C",
"c  c #E88029",
"v  c #E98029",
"b  c #E8812A",
"n  c #E8812C",
"m  c #E8812D",
"M  c #E8822D",
"N  c #E9832E",
"B  c #E9832F",
"V  c #E9842F",
"C  c #E08030",
"Z  c #E78433",
"A  c #E98430",
"S  c #E98431",
"D  c #E98531",
"F  c #EA8530",
"G  c #E98532",
"H  c #E98633",
"J  c #EA8733",
"K  c #E98735",
"L  c #EA8735",
"P  c #EB8A37",
"I  c #E1863B",
"U  c #E58A3D",
"Y  c #EB8938",
"T  c #EB8A39",
"R  c #E8893B",
"E  c #EB8A3A",
"W  c #EC8C3B",
"Q  c #EC8E3F",
"!  c #ED8E3F",
"~  c #BF9C7E",
"^  c #CE864A",
"/  c #CC864D",
"(  c #CE884D",
")  c #CE894E",
"_  c #D38340",
"`  c #D08445",
"'  c #DE8840",
"]  c #CA8A54",
"[  c #DB8F50",
"{  c #EB8E40",
"}  c #EC8E41",
"|  c #ED8F43",
" . c #EC9143",
".. c #EE9146",
"X. c #EC9247",
"o. c #EA934B",
"O. c #ED944A",
"+. c #EE964B",
"@. c #EA954F",
"#. c #EE964D",
"$. c #EF974E",
"%. c #E89551",
"&. c #EF9A54",
"*. c #EE9B54",
"=. c #E79B5C",
"-. c #EB9C5A",
";. c #EB9D5B",
":. c #EB9D5E",
">. c #F09D59",
",. c #F19E59",
"<. c #F09E5A",
"1. c #F1A05D",
"2. c #C79165",
"3. c #D69764",
"4. c #DD9B65",
"5. c #C29773",
"6. c #CD9F79",
"7. c #C9A17E",
"8. c #ECA162",
"9. c #EDA163",
"0. c #EAA265",
"q. c #EEAA6F",
"w. c #F2A363",
"e. c #F4A768",
"r. c #F2A96B",
"t. c #F4A86A",
"y. c #F4AA6B",
"u. c #F4A96C",
"i. c #F4AB6D",
"p. c #F5AC6F",
"a. c #EFAE78",
"s. c #F5AE73",
"d. c #F6AF75",
"f. c #F6B077",
"g. c #F6B177",
"h. c #F6B27A",
"j. c #F6B47C",
"k. c #F6B47D",
"l. c #F7B47E",
"z. c #F6B57E",
"x. c #F8B57E",
"c. c #BC9F87",
"v. c #BBA08B",
"b. c #BFA48C",
"n. c #BBA491",
"m. c #BCA793",
"M. c #C09E80",
"N. c #E5B082",
"B. c #F7B780",
"V. c #F7B784",
"C. c #F7B985",
"Z. c #F7B986",
"A. c #F8B883",
"S. c #F8BA86",
"D. c #F8BB87",
"F. c #F8BC89",
"G. c #F8BC8A",
"H. c #F9BC8A",
"J. c #F8BC8B",
"K. c #F8BD8B",
"L. c #F9BD8B",
"P. c #F9BC8C",
"I. c #F9BD8C",
"U. c #F9BF8D",
"Y. c #F9BE8E",
"T. c #F9BF8E",
"R. c #F9BE8F",
"E. c #F9BF8F",
"W. c #FABF8F",
"Q. c #F0BC94",
"!. c #FABF90",
"~. c #FABF91",
"^. c #F9C08F",
"/. c #FAC08E",
"(. c #FAC08F",
"). c #F0C094",
"_. c #F9C090",
"`. c #F9C091",
"'. c #FAC090",
"]. c #FAC190",
"[. c #FAC091",
"{. c #FAC191",
/* pixels */
"                                                              ",
"                                                              ",
"                            q.r c x                           ",
"                          :.M k.T.e.R                         ",
"                        8.n H.`._.L.s                         ",
"                      @.A I.[.`.].T [                         ",
"                    -.P U.`.`.^.} z                           ",
"                  ).a ^.`.'.'.| h                             ",
"                  + Y.{.[.R.S l                               ",
"                @ h.'.'.U.G (                                 ",
"              Q.F `.`.^.#.g                                   ",
"              , Y.`.'.f.O 6 ; = t o.a.                        ",
"              D `.`.!.! *.K._.`._.x...2 ;.                    ",
"            U u.`.`.`.`.`.`.`.`.`.`.`.F.L -.                  ",
"            < P.`.`.[._.`.'.[.`.[.].`._.T.V 0.                ",
"            & '.`.`.'.Z.,.W N H $.j.E._.'.J.*                 ",
"            f `.`.^.1.3 ` 5.c.~ ] 7 r.`.`.`.Y                 ",
"            E ].`.^.$ m.          b.w S.[.`.g.=.              ",
"            { ~.`./.%               9 s.[.`.'.I               ",
"            K `.`.^.>               - t.`.`.`.C               ",
"            e {.`.^.y               1 d._.`.'.'               ",
"            % W.`.E. .N.            p A.'.`.w.4.              ",
"            8 V.`.`.z.i           %.+.^.`.`.v                 ",
"            3.O.`.`.E.X.Z       9.4 D.`.`.C.o                 ",
"              # /.`.!.{.i.b : u &.T.`.[.!.d 6.                ",
"              7.2 G.'.'.`.'.'.`.'.'.`.^.Q _                   ",
"                ) 5 l.T.`.`.`.`.`.(.B.J q                     ",
"                  M.X m >.y.s.p.<.B . 2.                      ",
"                      n./ k 0 j ^ v.                          ",
"                                                              ",
"                                                              "
};
