/* XPM */
static char *out[] = {
/* columns rows colors chars-per-pixel */
"31 31 138 2 ",
"   c None",
".  c #DE731A",
"X  c #E26D0B",
"o  c #E36E0D",
"O  c #E36F0F",
"+  c #E26F10",
"@  c #E57010",
"#  c #E37317",
"$  c #E47315",
"%  c #E27419",
"&  c #E0741B",
"*  c #E57519",
"=  c #E5771D",
"-  c #E6771C",
";  c #E5781E",
":  c #E6791F",
">  c #E7791F",
",  c #DD7621",
"<  c #DC7623",
"1  c #DD7823",
"2  c #DC7825",
"3  c #DC7A27",
"4  c #D97929",
"5  c #D8792B",
"6  c #DC7D2E",
"7  c #DB7F30",
"8  c #E17822",
"9  c #E17922",
"0  c #E67B22",
"q  c #E77B22",
"w  c #E77C23",
"e  c #E57C25",
"r  c #E67C25",
"t  c #E67D25",
"y  c #E87D26",
"u  c #E57F2B",
"i  c #E87F28",
"p  c #DD8134",
"a  c #DB8339",
"s  c #E7802B",
"d  c #E7812C",
"f  c #E7822D",
"g  c #E88029",
"h  c #E9832E",
"j  c #EA842F",
"k  c #E78330",
"l  c #E78431",
"z  c #E58637",
"x  c #E98532",
"c  c #EA8632",
"v  c #EB8734",
"b  c #E88737",
"n  c #E88836",
"m  c #E78B3F",
"M  c #EB8A3A",
"N  c #EB8B3B",
"B  c #EB8C3C",
"V  c #EC8E3F",
"C  c #CF8D56",
"Z  c #CD8F5B",
"A  c #D78E52",
"S  c #D5925C",
"D  c #D5945F",
"F  c #EC8F41",
"G  c #E89249",
"H  c #EA934D",
"J  c #E9944D",
"K  c #EE964D",
"L  c #EE974E",
"P  c #EF9A54",
"I  c #E99C5E",
"U  c #F09851",
"Y  c #F09A53",
"T  c #F09C54",
"R  c #F19C55",
"E  c #F09D59",
"W  c #F2A25E",
"Q  c #CF9261",
"!  c #D59864",
"~  c #CD9E78",
"^  c #C89F7D",
"/  c #D29C71",
"(  c #F2A564",
")  c #F2A667",
"_  c #F3A869",
"`  c #F4AA6D",
"'  c #E9AA77",
"]  c #EBAC77",
"[  c #F4AE71",
"{  c #F5AF74",
"}  c #F5AF75",
"|  c #F5B075",
" . c #F5B076",
".. c #F5B077",
"X. c #F6B076",
"o. c #F1B17E",
"O. c #F7B37C",
"+. c #F7B47C",
"@. c #F7B57F",
"#. c #F8B57F",
"$. c #BEA792",
"%. c #AEACAC",
"&. c #AFAFAF",
"*. c #B7AEA7",
"=. c #BEAFA4",
"-. c gray69",
";. c #B2B2B2",
":. c #F7B781",
">. c #F7B782",
",. c #F8B580",
"<. c #F8B782",
"1. c #F7B984",
"2. c #F8B884",
"3. c #F8B986",
"4. c #F9B986",
"5. c #F8BA86",
"6. c #F8BB89",
"7. c #F9BC89",
"8. c #F8BC8B",
"9. c #F9BC8B",
"0. c #F8BD8B",
"q. c #F8BD8C",
"w. c #F8BE8C",
"e. c #FABE8C",
"r. c #F9BE8F",
"t. c #F9BF8F",
"y. c #FABF8E",
"u. c #F9BF91",
"i. c #FABF90",
"p. c #FABF91",
"a. c #F9C08F",
"s. c #FAC08F",
"d. c #F9C090",
"f. c #F9C091",
"g. c #FAC090",
"h. c #FAC190",
"j. c #FAC091",
"k. c #FAC191",
/* pixels */
"                                                              ",
"                                                              ",
"                                                              ",
"            o.d r e r t s f f l n n n n n n n b H             ",
"            - @.s.9.6.7.7.2.<.>.+.O.O.O.O.O.O.X.L k           ",
"          ' K a.f.f.f.f.f.f.f.f.j.k.h.u.k.j.d.k.e.$           ",
"            i a.f.g.g.f.g.g.f.g.h.j.p.j.j.g.g.j._ p           ",
"            C o @ > > > y j j c V V V 3.j.g.g.,.+             ",
"                ;.-.-.&.&.&.&.&.%.5 E d.j.g.4.X =.            ",
"                                ! h y.j.j.i.* $.              ",
"                                ; :.g.g.s.v Z                 ",
"                              J W j.j.u.T 4                   ",
"                              0 y.g.j.5.%                     ",
"                            G ( g.j.j.N Q                     ",
"                            g g.h.j. .2                       ",
"                          m ) f.d.r.h ~                       ",
"                          : q.j.j.| 3                         ",
"                        I P f.h.j.x /                         ",
"                        = w.f.f...6                           ",
"                        B g.f.d.M S                           ",
"                      u #.j.f.2.1                             ",
"                      q t.f.f.U A                             ",
"                    z ` g.g.0.w                               ",
"                    * t.g.j.{ 7                               ",
"                  ] Y f.g.a.F D                               ",
"                  # t.f.f.1.8                                 ",
"                  O g.f.p.R a                                 ",
"                  & [ 8.} .                                   ",
"                    < 9 , ^                                   ",
"                      *.                                      ",
"                                                              "
};
