/* XPM */
static char *out[] = {
/* columns rows colors chars-per-pixel */
"31 31 207 2 ",
"   c None",
".  c #DD7219",
"X  c #DF741A",
"o  c #DE741B",
"O  c #DF751C",
"+  c #DE751E",
"@  c #E26B08",
"#  c #E36C09",
"$  c #E36C0A",
"%  c #E36D0B",
"&  c #E16D0D",
"*  c #E26F0E",
"=  c #E36F0E",
"-  c #E27011",
";  c #E17113",
":  c #E47010",
">  c #E47111",
",  c #E37214",
"<  c #E27215",
"1  c #E47315",
"2  c #E07319",
"3  c #E0731A",
"4  c #E37418",
"5  c #E3761B",
"6  c #E47518",
"7  c #E47519",
"8  c #E4751A",
"9  c #E5761A",
"0  c #E5771B",
"q  c #E4781D",
"w  c #E5781D",
"e  c #E6781E",
"r  c #DB7621",
"t  c #DA7623",
"y  c #DA7724",
"u  c #D7782A",
"i  c #D77B2E",
"p  c #D87829",
"a  c #DA7A2B",
"s  c #DB7E31",
"d  c #D37F38",
"f  c #E17921",
"g  c #E37820",
"h  c #E57A20",
"j  c #E67A20",
"k  c #E77A20",
"l  c #E77B21",
"z  c #E57B22",
"x  c #E67B23",
"c  c #E67D25",
"v  c #E77E25",
"b  c #E77D26",
"n  c #E77E27",
"m  c #E77F2A",
"M  c #DF853B",
"N  c #D8843C",
"B  c #E88029",
"V  c #E98029",
"C  c #E8802A",
"Z  c #E8812D",
"A  c #E8822C",
"S  c #E8822D",
"D  c #E9822D",
"F  c #E9832F",
"G  c #E78330",
"H  c #EA8430",
"J  c #E98633",
"K  c #EA8733",
"L  c #EA8634",
"P  c #EB8836",
"I  c #EB8837",
"U  c #E88838",
"Y  c #EB8938",
"T  c #EB8A38",
"R  c #EB8B3B",
"E  c #EC8A39",
"W  c #EC8B3C",
"Q  c #EB8D3E",
"!  c #EC8E3E",
"~  c #BE9A79",
"^  c #BF9A79",
"/  c #CF8344",
"(  c #DF8A41",
")  c #D08749",
"_  c #D2874A",
"`  c #D68848",
"'  c #CB8850",
"]  c #C78F5F",
"[  c #C98C5A",
"{  c #DF995D",
"}  c #E08B43",
"|  c #E78E45",
" . c #EC8F40",
".. c #EC8E41",
"X. c #EC8E42",
"o. c #EC8F42",
"O. c #E88F47",
"+. c #ED9144",
"@. c #E9934B",
"#. c #ED9349",
"$. c #ED9549",
"%. c #EE964D",
"&. c #EF984E",
"*. c #EE984F",
"=. c #E39453",
"-. c #EA9752",
";. c #E59857",
":. c #EB9B57",
">. c #F09951",
",. c #F09B54",
"<. c #F09D57",
"1. c #F19D58",
"2. c #F2A05C",
"3. c #F1A15E",
"4. c #F2A05E",
"5. c #F2A25E",
"6. c #F2A25F",
"7. c #C59064",
"8. c #C4956D",
"9. c #DF9D66",
"0. c #C19774",
"q. c #C09876",
"w. c #E39D65",
"e. c #E7A56E",
"r. c #EDA468",
"t. c #EFA568",
"y. c #EEA56B",
"u. c #EDA66D",
"i. c #EEA86F",
"p. c #F2A260",
"a. c #F3A361",
"s. c #F3A463",
"d. c #F3A564",
"f. c #F4A565",
"g. c #F2A769",
"h. c #F4A869",
"j. c #F4A86A",
"k. c #F4A86B",
"l. c #F4A96D",
"z. c #F4AB6D",
"x. c #F5AB6D",
"c. c #F4AB6E",
"v. c #F5AC6F",
"b. c #EFAA72",
"n. c #F4AC70",
"m. c #F4AE72",
"M. c #F6AE73",
"N. c #F6AE75",
"B. c #F5B076",
"V. c #F5B176",
"C. c #F5B177",
"Z. c #F6B076",
"A. c #F7B076",
"S. c #F5B178",
"D. c #F6B279",
"F. c #F7B279",
"G. c #F7B37A",
"H. c #F6B37C",
"J. c #F7B47C",
"K. c #F7B47D",
"L. c #BBA18D",
"P. c #B8A28F",
"I. c #B9A79A",
"U. c #B6AAA2",
"Y. c #BBAEA0",
"T. c #B6B2AE",
"R. c #B8B0AB",
"E. c #C3A082",
"W. c #C8A88F",
"Q. c #DBAE89",
"!. c #C1AC9A",
"~. c #F6B580",
"^. c #F7B680",
"/. c #F7B983",
"(. c #F8B983",
"). c #F8B984",
"_. c #F9B885",
"`. c #F8B986",
"'. c #F8BA87",
"]. c #F9BA87",
"[. c #F8BB87",
"{. c #F8BA88",
"}. c #F8BB88",
"|. c #F8BC88",
" X c #F9BC88",
".X c #F8BC89",
"XX c #F9BC8A",
"oX c #F9BE8B",
"OX c #F8BD8C",
"+X c #F9BD8C",
"@X c #F9BE8C",
"#X c #F9BE8D",
"$X c #F9BE8E",
"%X c #F9BF8E",
"&X c #F9BF8F",
"*X c #E9BC96",
"=X c #FABF90",
"-X c #FABF91",
";X c #F9C08E",
":X c #F9C08F",
">X c #FAC08F",
",X c #F9C090",
"<X c #F9C091",
"1X c #FAC090",
"2X c #FAC190",
"3X c #FAC091",
"4X c #FAC191",
/* pixels */
"                                                              ",
"                                                              ",
"                          i.m @ 8 -.                          ",
"                      U h +.4.f.s.>.A G                       ",
"                    7 3.#X3X<X1X1X<X3XD.j b.                  ",
"                  6 /.&X<X<X<X<X<X<X<X<X[.e                   ",
"                q K.1X<X1XM.I D L B.1X1X<XA.O.                ",
"                J 3X1X>X .p ^ P.~ t 5.1X<X1X=                 ",
"              f F.<X<XH.r         !.c <X<X<XB                 ",
"              $ _.<X<Xz.`           2 <X<X<XK                 ",
"              % '.=X1Xn.M           z -X<X1XV                 ",
"              O N.4X1XOXv @.    t.0 m.,X<X1X>                 ",
"                n &X<X<X@X*.l k $.).<X<X&Xl.s                 ",
"                a a.1X<X3X3X<X2X2X<X3X%X<.X                   ",
"                  & v.<X3X,X<X3X3X<X,XV.w _                   ",
"                } T #X<X<X<X;X|.<X<X<X<X.XX.|                 ",
"              u.C &X1X<X<Xc.F 9 o.~.,X<X<X1XY y.              ",
"              > [.3X1XoXW u q.U.] + &.,X<X1XXX4               ",
"              S <X<X:X! )         Y.i p.&X<X<Xk               ",
"            e.d.<X3X{.3               b $X1X3X%.*X            ",
"            =.G.<X1XS.;               g +X1X1Xg.w.            ",
"            ( (.<X<XC.*               x $X<X<Xh.9.            ",
"            { x.<X1X}.0             ;.Q &X1X1X#.Q.            ",
"              S 3X3X1XZ.: r.      :.1 `.3X1X3X#               ",
"              - ^.1X1X<X1Xk.R H E j.1X1X<X1X,.N               ",
"              W., ].<X<X<X<X<X<X<X<X<X<X:Xx.;                 ",
"                E.< 2. X-X3X<X1X1X<X1XJ.P o                   ",
"                  T.d . Z &.3.6.1...5 y 8.                    ",
"                      R.L.7.' / [ 0.I.                        ",
"                                                              ",
"                                                              "
};
