/* XPM */
static char *out[] = {
/* columns rows colors chars-per-pixel */
"31 31 193 2 ",
"   c None",
".  c #DF7116",
"X  c #DF7217",
"o  c #DE7218",
"O  c #E36C0A",
"+  c #E36E0E",
"@  c #E26F0E",
"#  c #E36F0E",
"$  c #E2700F",
"%  c #E47213",
"&  c #E07114",
"*  c #E07115",
"=  c #E57416",
"-  c #E1741A",
";  c #E3751B",
":  c #E3761B",
">  c #E47518",
",  c #E57619",
"<  c #E4761B",
"1  c #E0761D",
"2  c #E2771F",
"3  c #E3771F",
"4  c #E5771C",
"5  c #E2781F",
"6  c #E4781D",
"7  c #E6781D",
"8  c #E4791F",
"9  c #E6791F",
"0  c #E67A1F",
"q  c #DB7622",
"w  c #DB7724",
"e  c #DE7823",
"r  c #DC7825",
"t  c #DC7926",
"y  c #D7792A",
"u  c #D97828",
"i  c #D8792A",
"p  c #D97A2B",
"a  c #D57C32",
"s  c #D67E36",
"d  c #D57F38",
"f  c #E57A20",
"g  c #E57A21",
"h  c #E67B21",
"j  c #E57A22",
"k  c #E67B23",
"l  c #E67C23",
"z  c #E57D27",
"x  c #E87C24",
"c  c #E87E27",
"v  c #E47E28",
"b  c #E67E28",
"n  c #E67F29",
"m  c #E87E28",
"M  c #DA8136",
"N  c #D5813D",
"B  c #E6802A",
"V  c #E7802A",
"C  c #E7802B",
"Z  c #E6822E",
"A  c #E88028",
"S  c #E8822D",
"D  c #E18030",
"F  c #E98430",
"G  c #E98431",
"H  c #E88432",
"J  c #E88532",
"K  c #EA8532",
"L  c #EA8837",
"P  c #E1863B",
"I  c #EB8A3A",
"U  c #EB8B3B",
"Y  c #EC8A39",
"T  c #EC8A3A",
"R  c #EC8B3C",
"E  c #EB8C3D",
"W  c #EB8C3E",
"Q  c #EB8D3F",
"!  c #EC8C3C",
"~  c #EC8D3D",
"^  c #CE874B",
"/  c #CE874D",
"(  c #D28647",
")  c #D68847",
"_  c #C78F5F",
"`  c #C88F5F",
"'  c #CA8E5E",
"]  c #EC8E40",
"[  c #EC8E41",
"{  c #EC8F41",
"}  c #ED8F41",
"|  c #E98F45",
" . c #ED9043",
".. c #ED9145",
"X. c #EE9347",
"o. c #E9934B",
"O. c #ED9348",
"+. c #EE944A",
"@. c #EB944D",
"#. c #E9964E",
"$. c #EF964C",
"%. c #EE964D",
"&. c #EF974F",
"*. c #EF984F",
"=. c #EF9952",
"-. c #EA9954",
";. c #EF9B55",
":. c #EC9A57",
">. c #E79959",
",. c #EF9E59",
"<. c #EC9F5E",
"1. c #F09B55",
"2. c #F09D56",
"3. c #F09E59",
"4. c #F1A15C",
"5. c #C69062",
"6. c #C69265",
"7. c #C4936A",
"8. c #C3946F",
"9. c #C49773",
"0. c #CE9E78",
"q. c #E9A266",
"w. c #EAA266",
"e. c #F1A160",
"r. c #F2A361",
"t. c #F1A363",
"y. c #F3A564",
"u. c #F2A768",
"i. c #F4A769",
"p. c #F4A96B",
"a. c #F4AA6E",
"s. c #E4AD7E",
"d. c #F4AC70",
"f. c #F5AC71",
"g. c #F5AD73",
"h. c #F5AF76",
"j. c #F0AD78",
"k. c #F5B177",
"l. c #F5B178",
"z. c #F7B279",
"x. c #F6B47B",
"c. c #F7B47C",
"v. c #F8B47D",
"b. c #F8B47E",
"n. c #BB9C82",
"m. c #BA9D84",
"M. c #BAA797",
"N. c #B8A89E",
"B. c #BCADA2",
"V. c #B6B3AD",
"C. c #B8B0AB",
"Z. c #CBA688",
"A. c #C7AD96",
"S. c #E1AE83",
"D. c #E0B48E",
"F. c #EFB98D",
"G. c #F7B680",
"H. c #F7B883",
"J. c #F8B884",
"K. c #F8BA85",
"L. c #F8BA86",
"P. c #F9BA86",
"I. c #F8BA87",
"U. c #F8BA88",
"Y. c #F8BB88",
"T. c #F9BB88",
"R. c #F8BA89",
"E. c #F8BC89",
"W. c #F9BC89",
"Q. c #F9BC8A",
"!. c #F9BC8B",
"~. c #F9BD8C",
"^. c #F8BE8C",
"/. c #F9BE8C",
"(. c #F9BE8D",
"). c #FABE8D",
"_. c #F9BE8E",
"`. c #F9BF8E",
"'. c #F9BE8F",
"]. c #F9BF8F",
"[. c #FABE8E",
"{. c #FABF8E",
"}. c #E8BE9A",
"|. c #F9BF91",
" X c #FABF90",
".X c #FABF91",
"XX c #FAC08F",
"oX c #F9C090",
"OX c #F9C091",
"+X c #FAC090",
"@X c #FAC190",
"#X c #FAC091",
"$X c #FAC191",
/* pixels */
"                                                              ",
"                            j.:.@.<.                          ",
"                      -.J C  .2.3.=.L n o.                    ",
"                    Z } k.].+X#X#X+X+XG.[ Z                   ",
"                  > k.OX$XoXOX+XoXOX+X$XOXp.6                 ",
"                < x.#X$X|.v.%.m c e.^.|.$X#Xi.b               ",
"              w.U +X+X X$.* 5.m.n.a x (.#X+X+XF F.            ",
"              + T.+X+Xf.u           ' A `.+X+XU.#             ",
"              f #XOXXXz A.            N 4.+XOX#Xg             ",
"              V #X+X!.3                 8 ).+X#XQ }.          ",
"              W +X+XE.2                 1 U.+XoX1.s.          ",
"              G #XoX/.j                 5 W.oXOX;.S.          ",
"              k +X#X+XX.>.            q.l ~.#X+XO.D.          ",
"              $ Q.+XOX!.S #.        H Y R.#X+XOXV             ",
"              ) ] OX+XOXoXt.G 0 9 R l.oXOX+XOXOX4             ",
"                q r.oX+XoXoX+X]._.+XoXoX+XoXoXE.@             ",
"                  w %.[.+X@X#X#X#X#X@X+X#X+X+Xa.M             ",
"                    ^ : +.d.J.].H.u.{ ,.].+X@X7               ",
"                      M.` s r e t y % Y.#X@XP..               ",
"                              C.V.p y.$X+X.X! 0.              ",
"                                P $.XXoXOXI.*                 ",
"                              ; &.{.@X+X_.x Z.                ",
"                          B , g.@X#X.X#XT (                   ",
"                    | O K z.OX#XOXOX#X~ d                     ",
"                  = b.OX+XOXOX#XoXc.h /                       ",
"                v K.+X#X#X.X XL.E X 9.                        ",
"                D z.oX$X'.h.I o 6.                            ",
"                  & *...- i 7.                                ",
"                  B._ 8.N.                                    ",
"                                                              ",
"                                                              "
};
