/* XPM */
static char *ab999597406b4ee3932befb1612edd45[] = {
/* columns rows colors chars-per-pixel */
"64 64 13 1 ",
"  c #696F19",
". c #6B7019",
"X c #6E721A",
"o c #6E731C",
"O c #72751B",
"+ c #73761C",
"@ c #75781D",
"# c #787B1F",
"$ c #787B20",
"% c #7B7E23",
"& c #7D7F23",
"* c #7D8024",
"= c #848641",
/* pixels */
"OOOOOOOOOOOOOOOOOOOOOOOOOOOOOOOOOOOOOOOOOOOOOOOOOOOOOOOOOOOOOOOO",
"OOOOOOOOOOOOOOOOOOOOOO$OOOOOOOOOOOOOOOOOOOOOOOOOOOOOOO$OOOOOOOOO",
"OOOOOOOOO%O+OOOOOOOOOOOOOOOOOOOOOOOOOOOOO%O+OOOOOOOOOOOOOOOOOOOO",
"OOOOOOOOO@oOOOOOO$@OOOOOOOOOOOOOOOOOOOOOO@oOOOOOO$@OOOOOOOOOOOOO",
"OOOOOOOOOOOOOOOOOXXOOOOOO@@OOOOOOOOOOOOOOOOOOOOOOXXOOOOOO@@OOOOO",
"OOOOOOOOOOOOOOOOOOOOOOOOOOXOOOOOOOOOOOOOOOOOOOOOOOOOOOOOOOXOOOOO",
"OOOOOOOOOOOOOOOOOOOOOOOOOOOOO*%OOOOOOOOOOOOOOOOOOOOOOOOOOOOOO*%O",
"OOOOOOOOOOOOOOOOOOOOOOOOOOOOOOXOOOOOOOOOOOOOOOOOOOOOOOOOOOOOOOXO",
"OOOOOOOOOOOOOOOOOOOOOOOOOOOOOOOOOOOOOOOOOOOOOOOOOOOOOOOOOOOOOOOO",
"OOOOOOOOOOOOOOOOOOOOO@OOOOOOOOOOOOOOOOOOOOOOOOOOOOOOO@OOOOOOOOOO",
"OOOOOOOOOOOOO%+@OOOOO$+OOOOOOOOOOOOOOOOOOOOOO%+@OOOOO$+OOOOOOOOO",
"O@+OOOOOOOOOO+OOOOOOOOOOOOOOOOOOO@+OOOOOOOOOO+OOOOOOOOOOOOOOOOOO",
"OX .OOOOOOOOOOOOOOOOOOOOO+OOOOOOOX .OOOOOOOOOOOOOOOOOOOOO+OOOOOO",
"OOOOOOOOOOOOOOOOOOOOOOOOOOOOOO$OOOOOOOOOOOOOOOOOOOOOOOOOOOOOOO$O",
"OOOOOOOOO%O@OOOOOOOOOOOOOOOOOOOOOOOOOOOOO%O@OOOOOOOOOOOOOOOOOOOO",
"OOOOOOOOOOOOOOOOOOOOOOOOOOOOOOOOOOOOOOOOOOOOOOOOOOOOOOOOOOOOOOOO",
"OOOOOOOOOOOOOOOOOOOOOOOOOOOOOOOOOOOOOOOOOOOOOOOOOOOOOOOOOOOOOOOO",
"OOOOOOOOOOOOO@OOOOOOOOOOOOOOO@@OOOOOOOOOOOOOO@OOOOOOOOOOOOOOO@@O",
"OOOOO@@OOOOOOOOOOOOOOOOOOOOOO.XOOOOOO@@OOOOOOOOOOOOOOOOOOOOOO.XO",
"OOOOO.OOOOOOOO@OOOO@O$OOOOOOOOOOOOOOO.OOOOOOOO@OOOO@O$OOOOOOOOOO",
"OOOOOOOOOOOOOO.OOOOXOXOOOOOOOOOOOOOOOOOOOOOOOO.OOOOXOXOOOOOOOOOO",
"OOOOOOOOO@+@OOOOOOOOOOOOOOOOOOOOOOOOOOOOO@+@OOOOOOOOOOOOOOOOOOOO",
"OOOOOOOOOX+OOOOOO%OOOOOOOOOOOOOOOOOOOOOOOX+OOOOOO%OOOOOOOOOOOOOO",
"OOOOOOOOOOOOOOOOOOOOOOOOOOOOOOOOOOOOOOOOOOOOOOOOOOOOOOOOOOOOOOOO",
"OOOOOOOOOOOOOOOOOOOOOOOOOOOOOOOOOOOOOOOOOOOOOOOOOOOOOOOOOOOOOOOO",
"OXOOOOOOO$+OOOOOOOOOOO@OOOOOOOOOOXOOOOOOO$+OOOOOOOOOOO@OOOOOOOOO",
"OXOOOOOOOXXO+@&OOOOOOOXOOOOOOOOOOXOOOOOOOXXO+@&OOOOOOOXOOOOOOOOO",
"OOOOOOOOOOOOOO@OOOOOOOOOOOOO+X@OOOOOOOOOOOOOOO@OOOOOOOOOOOOO+X@O",
"OOO@OOOOOOOO@OOOO@O+OOOOOOO#OOOOOOO@OOOOOOOO@OOOO@O+OOOOOOO#OOOO",
"O+XXOOOXOOOOOOOOO@+OOOOOOOOOOOOOO+XXOOOXOOOOOOOOO@+OOOOOOOOOOOOO",
"OOOO@@OOO$OOOO++OOOOOOOOOOOOOOOOOOOO@@OOO$OOOO++OOOOOOOOOOOOOOOO",
"OOOOOOOOOOOOOOOOOOOOOOOOOOOOOOOOOOOOOOOOOOOOOOOOOOOOOOOOOOOOOOOO",
"OOOOOOOOOOOOOOOOOOOOOOOOOOOOOOOOOOOOOOOOOOOOOOOOOOOOOOOOOOOOOOOO",
"OOOOOOOOOOOOOOOOOOOOOO$OOOOOOOOOOOOOOOOOOOOOOOOOOOOO@+OOOOOOOOOO",
"OOOOOOOOO%O+OOOOOOOOOOOOOOOOOOOOOOOOOOO@X$OOOOOOOOOOOOOOOOOOOOOO",
"OOOOOOOOO@oOOOOOO$@OOOOOOOOOOOOOOOOOOOOX XOOOOO+O@OOOOOOOOOOOOOO",
"OOOOOOOOOOOOOOOOOXXOOOOOO@@OOOOOOOOOOOOOXOOOOOOOXOOOOOOO@oOOOOOO",
"OOOOOOOOOOOOOOOOOOOOOOOOOOXOOOOOOOOOOOOOOOOOOOOOOOOOOOOOXOOOOOOO",
"OOOOOOOOOOOOOOOOOOOOOOOOOOOOO*@OOOOOOOOOOOOOOOOOOOOOOOOOOOO++OOO",
"OOOOOOOOOOOOOOOOOOOOOOOOOOOOOOXOOOOOOOOOOOOOOOOOOOOOOOOOOOOOXOOO",
"OOOOOOOOOOOOOOOOOOOOOOOOOOOOOOOOOOOOOOOOOOOOOOOOOOOOOOOOOOOOOOOO",
"OOOOOOOOOOOOOOOOOOOOO@OOOOOOOOOOOOOOOOOOOOOOOOOOOOOO@OOOOOOOOOOO",
"OOOOOOOOOOOOO%+@OOOOO$+OOOOOOOOOOOOOOOOOOOO@+OOOOOO@ooOOOOOOOOOO",
"O@+OOOOOOOOOO+OOOOOOOOOOOOOOOOOO%+@OOOOOOOOX .OOOOOOOOO@%OOOOOOO",
"OX .OOOOOOOOOOOOOOOOOOOOO+OOOOOO+OOOOOOOOOOOOOOOOOOOOOOXXOOOOOOO",
"OOOOOOOOOOOOOOOOOOOOOOOOOOOOOO@OOOOOOOOOOOOOOOOOOOOOOOOOOOOO+OOO",
"OOOOOOOOO%O@OOOOOOOOOOOOOOOOOOOOOOOOOOOO@@OOOOOOOOOOOOOOOOOO.OOO",
"OOOOOOOOOOOOOOOOOOOOOOOOOOOOOOOOOOOOOOOOOXOOOOOOOOOOOOOOOOOOOOOO",
"OOOOOOOOOOOOOOOOOOOOOOOOOOOOOOOOOOOOOOOOOOOOOOOOOOOOOOOOOOOOOOOO",
"OOOOOOOOOOOOO@OOOOOOOOOOOOOOO@OOOOOOOOOOOO$@OOOOOOOOOOOOOOO+O@OO",
"OOOOO@@OOOOOOOOOOOOOOOOOOOOOO.OOOOO%+OOOOOOOOOOOOOOOOOOOOOOOOOOO",
"OOOOO.OOOOOOOO@OOOO@O$OOOOOOOOOOOOOOOOOOOOOOO@OOOO@%OOOOOOOOOOOO",
"OOOOOOOOOOOOOO.OOOOXOXOOOOOOOOOOOOOOOOOOOOOOO%OOOOOOOOOOOOOOOOOO",
"OOOOOOOOO@+@OOOOOOOOOOOOOOOOOOOOOOOOOOOO%@OOOOOOOOOOOOOOOOOOOOOO",
"OOOOOOOOOX+OOOOOO%OOOOOOOOOOOOOOOOOOOOOO@XOOOOOO$OOOOOOOOOOOOOOO",
"OOOOOOOOOOOOOOOOOOOOOOOOOOOOOOOOOOOOOOOOOOOOOOOOOOOOOOOOOOOOOOOO",
"OOOOOOOOOOOOOOOOOOOOOOOOOOOOOOOOOOOOOOOOOOOOOOOOOOOOOOOOOOOOOOOO",
"OXOOOOOOO$+OOOOOOOOOOO@OOOOOOOOO$OOOOOO@OOOOOOOOOOOOO@OOOOOOOOOO",
"OXOOOOOOOXXO+@&OOOOOOOXOOOOOOOOOOOOOOOOOOOOO++OOOOOOOOOOOOOOOOOO",
"OOOOOOOOOOOOOO@OOOOOOOOOOOOO+X@OOOOOOOOOOOOXXXOOOOOOOOOOOOO@@OOO",
"OOO@OOOOOOOO@OOOO@O+OOOOOOO#OO+O#OOOO+OOOO@OOOOO@+OOOOOOOO+OXOO@",
"O+XXOOOXOOOOOOOOO@+OOOOOOOOOOOOO$@OOOOOOOOOOOOOO+XOOOOOOOOXOOOO=",
"OOOO@@OOO$OOOO++OOOOOOOOOOOOOOOOOOO@OOOXOOOO@$OOOOOOOOOOOOOOOOOO",
"OOOOOOOOOOOOOOOOOOOOOOOOOOOOOOOOOOOOOOOOOOOOOOOOOOOOOOOOOOOOOOOO"
};
