/* XPM */
static char *_86a541c8d314fd0b46a1659397b40e0[] = {
/* columns rows colors chars-per-pixel */
"64 64 4 1 ",
"  c #72751B",
". c #7F8226",
"X c #787B21",
"o c #656C17",
/* pixels */
"                                                                ",
"                                                                ",
"                                                                ",
"                                                                ",
"                                                                ",
"                   .XX                                          ",
"                    XXX                                         ",
"                     oo                                         ",
"                                                                ",
"                                                                ",
"                                                                ",
"                                                                ",
"                                                                ",
"      .                                                         ",
"..   .                                                          ",
".XX ..                                 XX                       ",
"oXX XX                                .X                        ",
" oXoXo                               XXo                        ",
"  o o                            ..X XXo                        ",
"                                  .XXoXo                        ",
"                                  oXXoo                         ",
"                                   oo                           ",
"                                                                ",
"                                                                ",
"                                                      .         ",
"                                               X..   .          ",
"                                                .XX ..          ",
"                                                oXX XX          ",
"                                                 oX Xo          ",
"                                                  o o           ",
"                                                                ",
"                                                                ",
"                                                                ",
"                                                                ",
"                                                                ",
"                                                                ",
"                                                                ",
"                                                                ",
"                 ..                                             ",
"                  .X    .                                       ",
"                  XXX X.                                        ",
"               .XXoXXXXo                                        ",
"                XXXooXXo                                        ",
"                oXX  Xo                                         ",
"                 oX                                             ",
"                                   .X                           ",
"                              .X  X.o                           ",
"                              oXX XX                            ",
"                               oXXXo                            ",
"                               oXXo                             ",
"                                oX                              ",
"                                                                ",
"                                                                ",
"                                                                ",
"                                                   X..          ",
"                                                  XX.           ",
"                                                  XXo           ",
"                                                  oo            ",
"                                                                ",
"                                                                ",
"                                                                ",
"                                                                ",
"                                                                ",
"                                                                "
};
