/* XPM */
static char *_e5e7c51632b4137edeb6427175e4d4denTWFzpWS2Gz7uWy[] = {
/* columns rows colors chars-per-pixel */
"64 64 135 2 ",
"   c #4F2713",
".  c #4E2913",
"X  c #532C14",
"o  c #542E19",
"O  c #57321C",
"+  c #59341D",
"@  c #5D381E",
"#  c #5B3721",
"$  c #5E3B24",
"%  c #613D25",
"&  c #613E29",
"*  c #646B17",
"=  c #686F16",
"-  c #72751B",
";  c #624127",
":  c #64442C",
">  c #674B2F",
",  c #694A2F",
"<  c #674731",
"1  c #654A35",
"2  c #6A4D31",
"3  c #634C38",
"4  c #6C4E39",
"5  c #6E5134",
"6  c #66513D",
"7  c #68523F",
"8  c #705335",
"9  c #735539",
"0  c #75593B",
"q  c #785A3E",
"w  c #787B21",
"e  c #675341",
"r  c #695542",
"t  c #6C5843",
"y  c #6F5F4D",
"u  c #7A5E43",
"i  c #6F604E",
"p  c #7D6144",
"a  c #73624E",
"s  c #7F6548",
"d  c #746552",
"f  c #796653",
"g  c #7A6A56",
"h  c #7C6D5C",
"j  c #7E705E",
"k  c #A2783C",
"l  c #806649",
"z  c #836A4D",
"x  c #876E52",
"c  c #886F52",
"v  c #806F5E",
"b  c #877053",
"n  c #8A7256",
"m  c #81715F",
"M  c #8C765A",
"N  c #8E795C",
"B  c #907A5D",
"V  c #827564",
"C  c #857866",
"Z  c #867968",
"A  c #897C6B",
"S  c #957F64",
"D  c #947F63",
"F  c #7F8226",
"G  c #7F8124",
"H  c #A2814F",
"J  c #BD9842",
"K  c #8D806F",
"L  c #8D816F",
"P  c #8F816E",
"I  c #948064",
"U  c #958064",
"Y  c #948065",
"T  c #958065",
"R  c #958165",
"E  c #968064",
"W  c #968164",
"Q  c #968065",
"!  c #978065",
"~  c #968165",
"^  c #978165",
"/  c #958166",
"(  c #978266",
")  c #968267",
"_  c #978267",
"`  c #978367",
"'  c #988167",
"]  c #988267",
"[  c #988367",
"{  c #988468",
"}  c #998468",
"|  c #9A866A",
" . c #9C876C",
".. c #8E8270",
"X. c #8F8270",
"o. c #8F8273",
"O. c #918374",
"+. c #918576",
"@. c #938676",
"#. c #928677",
"$. c #948778",
"%. c #93887B",
"&. c #94897B",
"*. c #968B7B",
"=. c #968B7C",
"-. c #978B7E",
";. c #978C7C",
":. c #978C7D",
">. c #968A7B",
",. c #988B7E",
"<. c #988D7E",
"1. c #C6A740",
"2. c #998F81",
"3. c #988E81",
"4. c #9B9082",
"5. c #9B9182",
"6. c #9A9183",
"7. c #9C9384",
"8. c #9E9487",
"9. c #9E9488",
"0. c #9F9488",
"q. c #9F9588",
"w. c #9F968A",
"e. c #A09589",
"r. c #A09689",
"t. c #A09789",
"y. c #A0968A",
"u. c #A1978A",
"i. c #A1978B",
"p. c #A1988B",
"a. c #A2988C",
"s. c #A2998C",
"d. c #A3998D",
"f. c #9CA8AD",
"g. c #B3B0A9",
/* pixels */
"* w - - - - - - - - - - - - - - - - - - - - - - - - - - - - - - - - - - - - - - - - - - - - - - - - - - - F - - - - - - - - - - ",
"- - - - - - - - - - - - - - - - - - F w - - - - - - - - - - - - - - - - - - - - - - - - - - - - F F w - - w w - - - - - - - - - ",
"- - - - - - - - - - - - - F w - - w F * - - - - - - - - - - - - - - - - - - - - - - - - - - - - - F w w - * w - - f.f.- - - - - ",
"- - - - - - - - - - - - - * w w - w w - - - - - - - - - - - - - - - - - - - - - - - - - - - - - - * w w w * - w w f.H f.- - - - ",
"- - - - - - - - - - - - - - * w w w * - - - - - - - - - - - - - - - - - - - - - - - - - - - - - F w * w w - g.g.w * f.f.- - - - ",
"- - - - - - - - - - - - - - * w w * - - - - - - - - - - - - - - - - - - - - - - - - - - - - - - * w w * w g.H H g.- * * - - - - ",
"- - - - - - - - - - - - - - - * w - - - - - - - - - - - - - - - - - - - - - - - - - - - - - - - - * w * * * g.g.* - g.g.- - - - ",
"- - - - - - - - - - - - - - - - - - - - - - - - - - - - - - - - - - - - - - - - - - - - - - - - - - - - - - * * - g.H H g.- - - ",
"- - - - - - - - - - - - - - - - - - - - - - - - - - - - - - - - - - - - - - - - - - - - - - - - - - f.f.- - - g.g.* g.g.* - - - ",
"- - - - - - - - - - - - - - - - - - - - - - - - - - - - - - - - - - - - - - - - - - - - - - - - - - H f.- - g.H g.- * * - - - - ",
"- - - - - - - - - - - - - - - - - - - - - - - - - - - - - - - - - - w F F - - - - - - - - - - - - - * * - - g.g.* - - - - - - - ",
"- - - - - - - - - - - - - - - - - - - - - - - - - - - - - - - - - w w F - - - - - - - - - - - - - - - - - - * * - - - - - - - - ",
"- - - - - - - - - - - - - - - - - - - - - - - - - - - - - - - - - w w * - - - - - - - - - - - - - - - - - - - - - - - - - - - - ",
"- - - - - - - - - - - - - - - - - - - - - - - - - - - - - - - - - * * - - - - - - - - - - - - - - - - - - - - - - - - - - - - - ",
"- - - - - - - - - - - - - - - - - - - - - - - - - - - - - - - - - - - - - - - - - - - - - - - - - - - - - - - - - - - - - - - - ",
"- - - - - - - - - - - - - - - - - - - - - - - - - - - - - - - - - - - - - - - - - - - - - - - - - - - - - - - - - - - - - - - - ",
"- - - - - - - - - - - - - - - - - $ + + + - - - - - - - - - - - - - - - - - - - - - - $ + + $ - - - - - - - - - - - - - - - - - ",
"- - - - - - - - - - - - - - - - # v g f + X X X X X + - X X X X X X X X - X X X X X X $ f f h + - - - - - - - - - - - - - - - - ",
"- - - - - - - - - - - - - - - - : C v h $ 8 5 5 8 8 z + z 5 5 8 8 8 5 0 $ s 5 5 8 8 5 : h h C % - - - - - - - - - - - - - - - - ",
"- - - - - - - - - - - - - - - - 1 &.A A % p z z z z b : N z z z z z z n : b z z z z z : Z Z %.: - - - - - - - - - - - - - - - - ",
"- - - - - - - - - - - - - - - - 4 2.@.@.& l z z z z N , D z z z z z z N : M z z z z z : @.@.2.: - - - - - - - - - - - - - - - - ",
"- - - - - - - - - - - - - - - - 4 q.$.$.& s M N N N [ 0 B M N N N N N B , M M M M M M : @.@.q.< - - - - - - - - - - - - - - - - ",
"- - - - - - - - - - - - - - - - 4 u.4.4.& z N N N N [ 0 U N N N N N N D 2 N N N N N N : =.,.q.< - - - - - - - - - - - - - - - - ",
"- - - - - - - - - - - - - - - - 4 a.u.u.: z U U U U  .9 [ S S S S S S U 2 U S S S S S < u.u.u.1 - - - - - - - - - - - - - - - - ",
"- - - - - - - - - - - - - - - - 4 a.u.u.& z U U U U } 9 [ U U U U U U U 2 U S U U U U < q.q.a.1 - - - - - - - - - - - - - - - - ",
"- - - - - - - - - - - - - - - - 4 a.u.q.% z S [ U U } 9 } S U S S S S U , U S S S S S < 8.q.u.1 - - - - - - - - - - - - - - - - ",
"- - - - - - - - - - - - - - - - : p.<.<.% s B B B B } 9 [ B B B N N N U , U N N N N B : ;.<.u.1 - - - - - - - - - - - - - - - - ",
"- - - - - - - - - - - - - - - - : u.;.;.$ p B B B B U 9 U B B B N N N U , U N N N N N : &.&.q.1 - - - - - - - - - - - - - - - - ",
"- - - - - - - - - - - - - - - - & 7.X.X.+ p B B B B S 2 U N N N N N N U : U B N N N N : P P 4.1 - - - - - - - - - - - - - - - - ",
"- - - - - - - - - - - - - - - - % 4.X.X.+ q z z z z n 2 n z z z z z z M % M z z z z z : P P 2.< - - - - - - - - - - - - - w F - ",
"- - - - - - - - - - - - - - - - % =.Z Z X 0 z z z z c % n z z z z z z M + n z z z z z & Z Z &.: - - - - - - - - - - - - - - F F ",
"- - - - - - - - - - - - - - - - $ O.Z Z X 0 z z z l c @ c p u u u u u n + n z z z z z & C C X.& - - - - - - - - - - - - - - * w ",
"- - - - - - - - - - - - - - - - + X X X X 0 q q 0 0 l X 8 $ $ $ # # + u O 0 0 9 9 9 5 $ X X X # - - - - - - - - - - - - - - * w ",
"w - - - - - - - - - - - - - - - + &.=.&.X X X X X X X X X X P P P P + X X X X X X X X O &.&.&.$ - - - - - - - - - - - - - - - * ",
"- - - - - - - - - - - - - - - - $ A h h X : & : & & & X $ X h X X g X $ X 5 : : : : : X h h A $ - - - - - - - - - - - - - - - - ",
"- - - - - - - - - - - - - - - - $ Z h h X : 8 8 9 9 0 X 2 X d m X i X $ X 0 5 5 5 5 5 X h h C # - - - - - - - - - - - - - - - - ",
"F - - - - - - - - - - - - - - - % V d d X : 5 5 5 5 0 X 2 X a i X i X $ X 0 2 2 2 2 2 X d d V + - - - - - - - - - - - - - - - - ",
"= - - - - - - - - - - - - - - - $ h a d X : 5 5 2 2 0 X 2 X r 7 g r X $ X 9 2 2 2 2 2 X d a h o - - - - - - - - - - - - - - - - ",
"- - - - - - - - - - - - - - - - O d a a X : 2 2 2 2 0 X 2 ; X X X X $ 2 X 9 2 2 2 2 2 . y i d X - - - - - - - - - - - - - - - - ",
"- - - - - - - - - - - - - - - - X a t t . % , , , , 0 X 2 2 ; ; ; ; 2 2 X 9 2 > > > 2 . t t a X - - - - - - - - - - - - - - - - ",
"- - - - - - - - - - - - - - - - . a t t . % > > > > 9 X 2 2 2 2 2 2 2 2 X 9 > > > > > . r t a   - - J J - - - - - - - - - - - - ",
"- - - - - - - - - - - - - - - - . a t r . $ 2 > > > 9 X 2 2 2 2 2 2 2 2 X 9 > > > > 2 . r t a   - J k k J - 1.1.- - - - - - - - ",
"- - - - - - - - - - - - - - - -   # # O O $ $ $ $ $ 0 X $ $ $ $ $ $ $ $ X 9 $ $ $ $ $ O O O O   - * J J * 1.k 1.- - - - - - - - ",
"- - - - - - - - - - - - - - - -   C V V C . . . X X X X X X X X X X X X X X X X . . . C V V C   - - * * - 1.1.* - - - - - - - - ",
"- - - - - - - - - - - - - - - - . i i i d . g h h m V C A A A A A Z Z Z Z C V j h h . d y y i   - - - - - * * - - - - - - - - - ",
"- - - - - - - - - - - - - - - -   3 3 3 a . 6 6 6 6 e e r r r r r t r r r r r e e e . a 3 3 3   - - - - - - - - - - - - - - - - ",
"- - - - - - - - - - - - - - - -                                                                 - - - - - - - - - - - - - - - - ",
"- - - - - - - - - - - - - - - - - - - - - - - - - - - - - - - - - - - - - - - - - - - - - - - - - - - - - - - - - - - - - - - - ",
"- - - - - - - - - - - - - - - - - - - - - - - - - - - - - - - - - - - - - - - - - - - - - - - - - - - - - - - - - - - - - - - - ",
"- - - - - - - - - - - - - - - - - - - - - - - - - - - - - - - - - - - - - - - - - - - - - - - - - - - - - - - - - - - - - - - - ",
"- - - - - - - - - - - - - - - - - - - - - - - - - - - - - - - - - - - - - - - - - - - - - - - - - - - - - - - - - - - - - - - - ",
"- - - - - - - - - - - - - - - - - - - - - - - - - - - - - - - - - - - - - - - - - - - - - - - - - - - - - - - - - - - - - - - - ",
"- - - - - - - - - - - - - - - - - - - - - - - - - - - - - - - - - - - - - - - - - - - - - - - - - - - - - - - - - - - - - - - - ",
"- - - - - - - - - - - - - - - - - - - - - - - - - - - - - - - - - - - - - - - - - - - - - - - - - - - - - - - - - - - - - - - - ",
"- - - - - - - - - - - - - - - - - - - - - - - - - - - - - - - - - - - - - - - - - - - - - - - - - - - - - - - - - - - - - - - - ",
"- - - - - - - - - - - - - - - - - - - - - - - - - - - - - - - - - - - - - - - - - - - - - - - - F - - - - - - - - - - - - - - - ",
"- - - - - - - - - - - - - - - - - - - - - - - - - - - - - - - - - - - - - - - - - - - - - - - - - F - - - - - - - - - - - - - - ",
"- - - - - w - - - - - - - - - - - - - - - - - - - - - - - - - - - - - - - - - - - - - - - - - - - w w - - - - - - - - - - - - - ",
"- - - - F F - - - - - - - - - - - - - - - - - - - - - - - - - - - - - - - - - - - - - - - - - - = w w - - - - - - - - - - - - - ",
"- - - w F = - - - - - - - - - - - - - - - - - - - - - - - - - - - - - - - - - - - - - - - - - F w = = - - - - - - - - - - - - - ",
"- - - w w - - - - - - - - - - - - - - - - - - - - - - - - - - - - - - - - - - - - - - - - - - w w - - - - - - - - - - - - - - - ",
"- - - = = - - - - - - - - - - - - - - - - - - - - - - - - - - - - - - - - - - - - - - - - - - = = - - - - - - - - - - - - - - - ",
"- - - - - - - - - - - - - - - - - - - - - - - - - - - - - - - - - - - - - - - - - - - - - - - - - - - - - - - - - - - - - - - - ",
"- - - - - - - - - - - - - - - - - - - - - - - - - - - - - - - - F - - - - - - - - - - - - - - - - - - - - - - - - - - - - - - - "
};
