/* XPM */
static char *bda6f4b354444e8be0082ed622cee3805mfUWRlAzPWgwLHw[] = {
/* columns rows colors chars-per-pixel */
"64 64 124 2 ",
"   c #4F2713",
".  c #4F2913",
"X  c #502713",
"o  c #522A15",
"O  c #552F19",
"+  c #56321B",
"@  c #59351D",
"#  c #5C391F",
"$  c #5B3721",
"%  c #5D3C22",
"&  c #603D25",
"*  c #633E28",
"=  c #646A17",
"-  c #686F16",
";  c #72751B",
":  c #5F4024",
">  c #5F4531",
",  c #614126",
"<  c #64442A",
"1  c #68442B",
"2  c #66492C",
"3  c #694C2E",
"4  c #6B502F",
"5  c #644732",
"6  c #684731",
"7  c #6C4D32",
"8  c #644D39",
"9  c #6D4E39",
"0  c #6E5334",
"q  c #66513D",
"w  c #68533F",
"e  c #715536",
"r  c #725837",
"t  c #745739",
"y  c #755B3B",
"u  c #795F3F",
"i  c #787B21",
"p  c #79603F",
"a  c #6A5542",
"s  c #6D5A44",
"d  c #795F40",
"f  c #715E49",
"g  c #795F4C",
"h  c #6F604E",
"j  c #7B6242",
"k  c #74624D",
"l  c #766552",
"z  c #796752",
"x  c #776854",
"c  c #796955",
"v  c #7D6D5B",
"b  c #7F705F",
"n  c #A2783C",
"m  c #816747",
"M  c #806546",
"N  c #836849",
"B  c #826949",
"V  c #836A4A",
"C  c #856C4D",
"Z  c #866E4E",
"A  c #846B4A",
"S  c #886F4F",
"D  c #88704F",
"F  c #886F50",
"G  c #826F5C",
"H  c #887151",
"J  c #897252",
"K  c #8A7353",
"L  c #8C7453",
"P  c #8C7555",
"I  c #8C7556",
"U  c #8D7656",
"Y  c #8D7657",
"T  c #82705D",
"R  c #81715E",
"E  c #8D7758",
"W  c #8E7958",
"Q  c #8F7958",
"!  c #8E7859",
"~  c #8E7959",
"^  c #8F7959",
"/  c #8F7A5B",
"(  c #917C5D",
")  c #927D5E",
"_  c #837563",
"`  c #857966",
"'  c #897A66",
"]  c #877B6A",
"[  c #8C7C6B",
"{  c #8D7E6C",
"}  c #8A7D6C",
"|  c #937F60",
" . c #7F8226",
".. c #7F8125",
"X. c #A2814F",
"o. c #BD9842",
"O. c #8F816F",
"+. c #8E806E",
"@. c #8F8270",
"#. c #928675",
"$. c #928574",
"%. c #958875",
"&. c #948877",
"*. c #968976",
"=. c #948877",
"-. c #958978",
";. c #968979",
":. c #9A8E7F",
">. c #998E7D",
",. c #C6A740",
"<. c #9A8F80",
"1. c #9C9281",
"2. c #9E9382",
"3. c #9F9585",
"4. c #9D9283",
"5. c #A09686",
"6. c #A09687",
"7. c #A39888",
"8. c #A39889",
"9. c #A49989",
"0. c #A4998A",
"q. c #A59A8A",
"w. c #9CA8AD",
"e. c #B3B0A9",
/* pixels */
"= i ; ; ; ; ; ; ; ; ; ; ; ; ; ; ; ; ; ; ; ; ; ; ; ; ; ; ; ; ; ; ; ; ; ; ; ; ; ; ; ; ; ; ; ; ; ; ; ; ; ; ;  .; ; ; ; ; ; ; ; ; ; ",
"; ; ; ; ; ; ; ; ; ; ; ; ; ; ; ; ; ;  .i ; ; ; ; ; ; ; ; ; ; ; ; ; ; ; ; ; ; ; ; ; ; ; ; ; ; ; ;  . .i ; ; i i ; ; ; ; ; ; ; ; ; ",
"; ; ; ; ; ; ; ; ; ; ; ; ;  .i ; ; i  .= ; ; ; ; ; ; ; ; ; ; ; ; ; ; ; ; ; ; ; ; ; ; ; ; ; ; ; ; ;  .i i ; = i ; ; w.w.; ; ; ; ; ",
"; ; ; ; ; ; ; ; ; ; ; ; ; = i i ; i i ; ; ; ; ; ; ; ; ; ; ; ; ; ; ; ; ; ; ; ; ; ; ; ; ; ; ; ; ; ; = i i i = ; i i w.X.w.; ; ; ; ",
"; ; ; ; ; ; ; ; ; ; ; ; ; ; = i i 1 1 1 1 ; ; ; ; ; ; ; ; ; ; ; ; ; ; ; ; ; ; ; ; ; ; 1 1 1 1 ;  .i = i i ; e.e.i = w.w.; ; ; ; ",
"; ; ; ; ; ; ; ; ; ; ; ; ; ; = i 7 2.*.*.1 1 1 1 1 , , , , , , , , , , , , , 1 1 1 1 1 1 *.*.1.7 = i i = i e.X.X.e.; = = ; ; ; ; ",
"; ; ; ; ; ; ; ; ; ; ; ; ; ; ; = 7 5.*.*.1 j N F L U U Q Q Q Q Q E U H H H H H C N N M 1 *.*.3.7 ; = i = = = e.e.= ; e.e.; ; ; ; ",
"; ; ; ; ; ; ; ; ; ; ; ; ; ; ; ; 7 9.9.9.1 M D U Q ) ) | | % & & % % $ Q Q Q Q U S C M 1 8.9.8.7 ; ; ; ; ; ; = = ; e.X.X.e.; ; ; ",
"; ; ; ; ; ; ; ; ; ; ; ; ; ; ; ; O T l l o 7 7 e e t t t t o O.g [ { o t t t t e e 7 7 * l l G o ; ; w.w.; ; ; e.e.= e.e.= ; ; ; ",
"; ; ; ; ; ; ; ; ; ; ; ; ; ; ; ; o v k l o o o o o o o o o o *.-.9 #.o o o o o o o o o o k k v o ; ; X.w.; ; e.X.e.; = = ; ; ; ; ",
"; ; ; ; ; ; ; ; ; ; ; ; ; ; ; ; o c k k o & % % % % % % & o :.:.<.:.o % % % % % % # % o k k c o ; ; = = ; ; e.e.= ; ; ; ; ; ; ; ",
"; ; ; ; ; ; ; ; ; ; ; ; ; ; ; ; o c f k o % % % % % % % % o k l l l o % % % % # # # # o k k c o ; ; ; ; ; ; = = ; ; ; ; ; ; ; ; ",
"; ; ; ; ; ; ; ; ; ; ; ; ; ; ; ; o z f f o % , , , 1 1 < 1 , o o o o , , , , : % & % % o f f z o ; ; ; ; ; ; ; ; ; ; ; ; ; ; ; ; ",
"; ; ; ; ; ; ; ; ; ; ; ; ; ; ; ; o l s f o & & , , , , , , , , , , , , , , , % % % % % o s s l o ; ; ; ; ; ; ; ; ; ; ; ; ; ; ; ; ",
"; ; ; ; ; ; ; ; ; ; ; ; ; ; ; ; X k s s o % & , , , , , , , , , , , , , & , % % % % % o s s k X ; ; ; ; ; ; ; ; ; ; ; ; ; ; ; ; ",
"; ; ; ; ; ; ; ; ; ; ; ; ; ; ; ;   k s s X , < < 2 2 2 2 2 2 2 2 2 2 2 2 2 2 2 2 2 , , X a a k   ; ; ; ; ; ; ; ; ; ; ; ; ; ; ; ; ",
"; ; ; ; ; ; ; ; ; ; ; ; ; ; ; ;   k a a X , 2 2 2 2 2 2 2 2 2 2 2 2 2 2 2 2 2 2 2 , ,   a a k   ; ; ; ; ; ; ; ; ; ; ; ; ; ; ; ; ",
"; ; ; ; ; ; ; ; ; ; ; ; ; ; ; ;   f a a   , 2 2 2 3 2 2 2 3 3 3 3 3 3 3 3 3 3 3 2 , ,   a a f   ; ; ; ; ; ; ; ; ; ; ; ; ; ; ; ; ",
"; ; ; ; ; ; ; ; ; ; ; ; ; ; ; ;   f w q   , 2 2 3 3 3 3 3 3 7 7 7 3 3 3 3 3 3 3 2 < ,   q w f   ; ; ; ; ; ; ; ; ; ; ; ; ; ; ; ; ",
"; ; ; ; ; ; ; ; ; ; ; ; ; ; ; ;   s q q   3 e r e e e r r r r y r r r e e e e 0 0 7 7   q q s   ; ; ; ; ; ; ; ; ; ; ; ; ; ; ; ; ",
"; ; ; ; ; ; ; ; ; ; ; ; ; ; ; ;   s q 8   3 r r r r y y y r y y y y y y y y y e e 0 7 X 8 q s   ; ; ; ; ; ; ; ; ; ; ; ; ; ; ; ; ",
"; ; ; ; ; ; ; ; ; ; ; ; ; ; ; ;   a 8 8   3 r r y y y y y y y y y y y y y y y y e 0 0 X 8 8 a   ; ; ; ; ; ; ; ; ; ; ; ; ; ; ; ; ",
"; ; ; ; ; ; ; ; ; ; ; ; ; ; ; ;   8 > >   3 r r r y y y y y y y y u y y y y y y r 0 0 o 5 > 8   ; ; ; ; ; ; ; ; ; ; ; ; ; ; ; ; ",
"; ; ; ; ; ; ; ; ; ; ; ; ; ; ; ; % , % % + 0 y y u u u u u p u u u u u j j j j u u u e o X X     ; ; ; ; ; ; ; ; ; ; ; ; ; ; ; ; ",
"; ; ; ; ; ; ; ; ; ; ; ; ; ; ; ; $ @.@.[ O % % % % , , , , 2 2 2 2 2 2 2 2 1 , , , & % o $.@.@.  ; ; ; ; ; ; ; ; ; ; ; ; ; ; ; ; ",
"; ; ; ; ; ; ; ; ; ; ; ; ; ; ; ; O s a a         X X X o o o o o X X X X o o o X o o o o s s a % ; ; ; ; ; ; ; ; ; ; ; ; ; ; ; ; ",
"; ; ; ; ; ; ; ; ; ; ; ; ; ; ; ; + $ $ $ + 0 r r y y y y u u d j j j j d d u u y y e e o % % % % ; ; ; ; ; ; ; ; ; ; ; ; ; ; ; ; ",
"; ; ; ; ; ; ; ; ; ; ; ; ; ; ; ; O _ x l o 2 2 2 2 2 2 2 2 2 2 2 2 2 2 2 2 2 2 2 2 2 2 o l x _ O ; ; ; ; ; ; ; ; ; ; ; ; ; ; ; ; ",
"; ; ; ; ; ; ; ; ; ; ; ; ; ; ; ; + ` c c o 2 2 2 2 < 2 < 2 2 2 2 2 2 2 2 2 2 2 2 2 2 2 o c c ` + ; ; ; ; ; ; ; ; ; ; ; ; ; ; ; ; ",
"; ; ; ; ; ; ; ; ; ; ; ; ; ; ; ; @ { T T o < 2 2 < 2 < < , < < < < < < 2 2 2 2 2 2 < 2 o T T } @ ; ; ; ; ; ; ; ; ; ; ; ; ; i  .; ",
"; ; ; ; ; ; ; ; ; ; ; ; ; ; ; ; % $._ _ O % % % % % % % % % % % % % % % % % % % % % % O _ _ @.$ ; ; ; ; ; ; ; ; ; ; ; ; ; ;  . .",
"; ; ; ; ; ; ; ; ; ; ; ; ; ; ; ; * #.' ] + % % % % % % % % % % % % % % % % % % % % % % + ` ' #.& ; ; ; ; ; ; ; ; ; ; ; ; ; ; = i ",
"; ; ; ; ; ; ; ; ; ; ; ; ; ; ; ; , &.[ [ @ % % % % % % % % % % % % % % % % % % % % % % @ [ ] #.* ; ; ; ; ; ; ; ; ; ; ; ; ; ; = i ",
"i ; ; ; ; ; ; ; ; ; ; ; ; ; ; ; 1 -.O.O.$ , % % % % % % % % % % % % % % % % % % % % % @ O.O.-.1 ; ; ; ; ; ; ; ; ; ; ; ; ; ; ; = ",
"; ; ; ; ; ; ; ; ; ; ; ; ; ; ; ; 1 :.$.$.% @ @ @ @ @ @ @ @ @ @ @ + + + + + + + + + + + % @.@.:.1 ; ; ; ; ; ; ; ; ; ; ; ; ; ; ; ; ",
"; ; ; ; ; ; ; ; ; ; ; ; ; ; ; ; 1 :.$.$.% @ @ @ @ @ @ @ @ @ + + + + + + + + + + + + + % @.@.:.2 ; ; ; ; ; ; ; ; ; ; ; ; ; ; ; ; ",
" .; ; ; ; ; ; ; ; ; ; ; ; ; ; ; 2 :.#.$.& @ @ @ @ + @ @ @ + + + + + + + + + + + + + + % $.$.:.2 ; ; ; ; ; ; ; ; ; ; ; ; ; ; ; ; ",
"- ; ; ; ; ; ; ; ; ; ; ; ; ; ; ; 2 2.&.#.& @ @ @ @ + @ @ + + + + + + + + + + + + + + + & #.&.1.1 ; ; ; ; ; ; ; ; ; ; ; ; ; ; ; ; ",
"; ; ; ; ; ; ; ; ; ; ; ; ; ; ; ; 6 3.*.*.& o o o o o o %                 @   X o o o o & &.&.4.6 ; ; ; ; ; ; ; ; ; ; ; ; ; ; ; ; ",
"; ; ; ; ; ; ; ; ; ; ; ; ; ; ; ; 2 5.4.2.& y C C C C V o V N N N C C C C o N V V V C V & 1.4.3.1 ; ; ; ; ; ; ; ; ; ; ; ; ; ; ; ; ",
"; ; ; ; ; ; ; ; ; ; ; ; ; ; ; ; o } b v o 0 u u u y j o j y y y y y u j o j y y y y j + v b } % ; ; o.o.; ; ; ; ; ; ; ; ; ; ; ; ",
"; ; ; ; ; ; ; ; ; ; ; ; ; ; ; ; o ] v v o 2 u u u y j o j y y y y y y j o j y y y y u + v v ] % ; o.n n o.; ,.,.; ; ; ; ; ; ; ; ",
"; ; ; ; ; ; ; ; ; ; ; ; ; ; ; ; o _ z c o 2 u u u y j o j y y y y y y j o j y y y y u o x x _ $ ; = o.o.= ,.n ,.; ; ; ; ; ; ; ; ",
"; ; ; ; ; ; ; ; ; ; ; ; ; ; ; ; o v l l o 2 e e e 0 u o u 0 0 0 0 0 0 p o j 0 0 0 0 e o l l v + ; ; = = ; ,.,.= ; ; ; ; ; ; ; ; ",
"; ; ; ; ; ; ; ; ; ; ; ; ; ; ; ; o c k k o < 0 0 0 0 u o y 0 0 0 0 0 0 p o u 0 0 0 0 e o k k c O ; ; ; ; ; = = ; ; ; ; ; ; ; ; ; ",
"; ; ; ; ; ; ; ; ; ; ; ; ; ; ; ; o k k k X < 0 0 0 0 y o r 0 0 0 0 0 0 u o u 0 0 0 0 0 . s s k o ; ; ; ; ; ; ; ; ; ; ; ; ; ; ; ; ",
"; ; ; ; ; ; ; ; ; ; ; ; ; ; ; ; o l s s o , 7 3 3 3 r o 0 3 3 3 3 3 3 e o r 0 0 0 4 0   s s k o ; ; ; ; ; ; ; ; ; ; ; ; ; ; ; ; ",
"; ; ; ; ; ; ; ; ; ; ; ; ; ; ; ; o k s s o , 7 3 3 3 r X 0 3 3 3 3 3 3 0 o r 3 3 3 3 4 . s s k   ; ; ; ; ; ; ; ; ; ; ; ; ; ; ; ; ",
"; ; ; ; ; ; ; ; ; ; ; ; ; ; ; ; o % % @ + % < , , < y o 3 < < 2 2 < < 7 o 0 < < < < < + @ @ @   ; ; ; ; ; ; ; ; ; ; ; ; ; ; ; ; ",
"; ; ; ; ; ; ; ; ; ; ; ; ; ; ; ; X ` _ _ ` . . . o o o o o o o o o o o o o o o o . . . ` _ _ `   ; ; ; ; ; ; ; ; ; ; ; ; ; ; ; ; ",
"; ; ; ; ; ; ; ; ; ; ; ; ; ; ; ;   h h h x . c v v _ _ ` } } } } } [ ] ] ] ` ` b v v . x h h h   ; ; ; ; ; ; ; ; ; ; ; ; ; ; ; ; ",
"; ; ; ; ; ; ; ; ; ; ; ; ; ; ; ;   8 8 8 l . q q q q a a a a a a a a a a a a a a a a o l 8 8 8   ; ; ; ; ; ; ; ; ; ; ; ; ; ; ; ; ",
"; ; ; ; ; ; ; ; ; ; ; ; ; ; ; ;                                                                 ; ; ; ; ; ; ; ; ; ; ; ; ; ; ; ; ",
"; ; ; ; ; ; ; ; ; ; ; ; ; ; ; ; ; ; ; ; ; ; ; ; ; ; ; ; ; ; ; ; ; ; ; ; ; ; ; ; ; ; ; ; ; ; ; ; ; ; ; ; ; ; ; ; ; ; ; ; ; ; ; ; ",
"; ; ; ; ; ; ; ; ; ; ; ; ; ; ; ; ; ; ; ; ; ; ; ; ; ; ; ; ; ; ; ; ; ; ; ; ; ; ; ; ; ; ; ; ; ; ; ; ; ; ; ; ; ; ; ; ; ; ; ; ; ; ; ; ",
"; ; ; ; ; ; ; ; ; ; ; ; ; ; ; ; ; ; ; ; ; ; ; ; ; ; ; ; ; ; ; ; ; ; ; ; ; ; ; ; ; ; ; ; ; ; ; ;  .; ; ; ; ; ; ; ; ; ; ; ; ; ; ; ",
"; ; ; ; ; ; ; ; ; ; ; ; ; ; ; ; ; ; ; ; ; ; ; ; ; ; ; ; ; ; ; ; ; ; ; ; ; ; ; ; ; ; ; ; ; ; ; ; ;  .; ; ; ; ; ; ; ; ; ; ; ; ; ; ",
"; ; ; ; ; i ; ; ; ; ; ; ; ; ; ; ; ; ; ; ; ; ; ; ; ; ; ; ; ; ; ; ; ; ; ; ; ; ; ; ; ; ; ; ; ; ; ; ; i i ; ; ; ; ; ; ; ; ; ; ; ; ; ",
"; ; ; ;  . .; ; ; ; ; ; ; ; ; ; ; ; ; ; ; ; ; ; ; ; ; ; ; ; ; ; ; ; ; ; ; ; ; ; ; ; ; ; ; ; ; ; - i i ; ; ; ; ; ; ; ; ; ; ; ; ; ",
"; ; ; i  .- ; ; ; ; ; ; ; ; ; ; ; ; ; ; ; ; ; ; ; ; ; ; ; ; ; ; ; ; ; ; ; ; ; ; ; ; ; ; ; ; ;  .i - - ; ; ; ; ; ; ; ; ; ; ; ; ; ",
"; ; ; i i ; ; ; ; ; ; ; ; ; ; ; ; ; ; ; ; ; ; ; ; ; ; ; ; ; ; ; ; ; ; ; ; ; ; ; ; ; ; ; ; ; ; i i ; ; ; ; ; ; ; ; ; ; ; ; ; ; ; ",
"; ; ; - - ; ; ; ; ; ; ; ; ; ; ; ; ; ; ; ; ; ; ; ; ; ; ; ; ; ; ; ; ; ; ; ; ; ; ; ; ; ; ; ; ; ; - - ; ; ; ; ; ; ; ; ; ; ; ; ; ; ; ",
"; ; ; ; ; ; ; ; ; ; ; ; ; ; ; ; ; ; ; ; ; ; ; ; ; ; ; ; ; ; ; ; ; ; ; ; ; ; ; ; ; ; ; ; ; ; ; ; ; ; ; ; ; ; ; ; ; ; ; ; ; ; ; ; ",
"; ; ; ; ; ; ; ; ; ; ; ; ; ; ; ; ; ; ; ; ; ; ; ; ; ; ; ; ; ; ; ;  .; ; ; ; ; ; ; ; ; ; ; ; ; ; ; ; ; ; ; ; ; ; ; ; ; ; ; ; ; ; ; "
};
