/* XPM */
static char *out[] = {
/* columns rows colors chars-per-pixel */
"64 64 145 2 ",
"   c #492513",
".  c #4F2913",
"X  c #502C16",
"o  c #522E19",
"O  c #563915",
"+  c #54321D",
"@  c #5A361E",
"#  c #573F18",
"$  c #5D391F",
"%  c #4D2F20",
"&  c #4E3122",
"*  c #4E3529",
"=  c #553522",
"-  c #583721",
";  c #573924",
":  c #5B3A23",
">  c #553B2A",
",  c #593D2B",
"<  c #543E33",
"1  c #613F24",
"2  c #594914",
"3  c #5D4E1D",
"4  c #5E5015",
"5  c #5E521C",
"6  c #625517",
"7  c #625418",
"8  c #615B1B",
"9  c #626216",
"0  c #63621C",
"q  c #6B641C",
"w  c #6B6C19",
"e  c #6F711B",
"r  c #73751D",
"t  c #75781F",
"y  c #5C4722",
"u  c #5C4A23",
"i  c #57402F",
"p  c #5B412E",
"a  c #5E4D28",
"s  c #554034",
"d  c #5B4333",
"f  c #5F4835",
"g  c #56453C",
"h  c #5B4739",
"j  c #57483F",
"k  c #5E4A3C",
"l  c #634126",
"z  c #614E26",
"x  c #65452A",
"c  c #68462A",
"v  c #66492E",
"b  c #6B4B2E",
"n  c #625120",
"m  c #624733",
"M  c #624936",
"N  c #6C4E32",
"B  c #644D3B",
"V  c #6E5234",
"C  c #655D35",
"Z  c #65513E",
"A  c #6A523D",
"S  c #6A5F38",
"D  c #715536",
"F  c #735738",
"G  c #755A3B",
"H  c #795D3E",
"J  c #626124",
"K  c #6B6524",
"L  c #6B6B25",
"P  c #6C662C",
"I  c #737622",
"U  c #7A7D25",
"Y  c #73752A",
"T  c #7C613F",
"R  c #747631",
"E  c #7A7D34",
"W  c #73743C",
"Q  c #797A3C",
"!  c #574A41",
"~  c #5C4D42",
"^  c #5A4E48",
"/  c #5C5247",
"(  c #5D534B",
")  c #604E41",
"_  c #645344",
"`  c #695342",
"'  c #6C5945",
"]  c #62554B",
"[  c #62584E",
"{  c #6C5B4C",
"}  c #765C45",
"|  c #7A5F42",
" . c #715E4C",
".. c #605750",
"X. c #645D54",
"o. c #6C5F50",
"O. c #665F58",
"+. c #6C634F",
"@. c #7D6241",
"#. c #74624D",
"$. c #7C614A",
"%. c #767643",
"&. c #75744C",
"*. c #797848",
"=. c #666057",
"-. c #6B6255",
";. c #676159",
":. c #6A655C",
">. c #6D685F",
",. c #726555",
"<. c #7C6652",
"1. c #7B6A55",
"2. c #71675B",
"3. c #716B5E",
"4. c #7F6F5D",
"5. c #77765F",
"6. c #7D725D",
"7. c #6E6960",
"8. c #726E62",
"9. c #747165",
"0. c #7B7366",
"q. c #767469",
"w. c #7A766A",
"e. c #7D7B6E",
"r. c #7D7A71",
"t. c #816746",
"y. c #826846",
"u. c #846A4A",
"i. c #81725D",
"p. c #847664",
"a. c #887663",
"s. c #867866",
"d. c #81776C",
"f. c #83786B",
"g. c #897B6A",
"h. c #817E74",
"j. c #8D806E",
"k. c #848276",
"l. c #868579",
"z. c #89867D",
"x. c #8A887E",
"c. c #8D8C83",
"v. c #918E87",
"b. c #918F88",
"n. c #929089",
/* pixels */
"r B B B B B B B B B B B A M B B Z k Z Z k B Z Z B Z B B Z Z M Z Z M Z B B B B B Z B B B B B B B B B Z B B B Z M B Z B B B B B r ",
"A l.l.l.l.l.l.l.l.l.l.l.l.o l.l.l.l.l.l.l.l.l.l.k.l.l.l.l.l.k.z.{ l.z.k.l.l.l.l.k.k.l.l.l.l.l.l.l.l.` l.z.k.l.l.l.l.l.l.l.l.l.' ",
"` l.l.l.c.c.c.c.v.x.v.x.c.' v.x.c.c.c.c.x.c.c.x.x.x.x.x.c.x.c.c.,.b.c.c.c.x.x.c.c.c.x.c.c.c.x.c.c.c.{ v.c.c.c.c.x.c.c.x.l.l.l. .",
"` l.l.c.k 7.7.7.>.>.>.>.:.p 8.3.>.>.9.>.3.7.>.>.>.>.>.>.>.>.>.>.k >.>.>.>.>.>.>.:.>.>.>.>.>.>.>.>.>.f >.>.>.>.>.>.>.>._ v.l.l.' ",
"` l.l.c.k >.7.>.>.7.7.7.7.p 7.7.>.>.>.>.>.>.>.>.>.7.>.>.:.>.>.>.k >.>.>.>.>.>.>.:.7.7.7.7.:.:.>.>.>.k >.:.>.>.>.7.:.:._ v.l.l.{ ",
"` x.x.v.k [ 7.>.:.>.:.7.:.d 7.7.>.>.>.>.>.>.>.>.>.>.>.>.>.:.:.>.k >.:.:.>.:.:.:.:.7.:.7.>.>.>.>.>.>.f :.:.:.:.>.:.7.:._ v.l.l. .",
"; ' _ d h ..>.>.:.7.:.:.:.d >.7.>.>.>.>.>.:.>.>.>.>.:.>.>.:.>.:.Z >.:.:.:.:.:.:.:.:.7.:.:.:.>.>.:.:.k :.>.:.:.:.:.:.:.k , ] ' ; ",
"` l.l.c.d [ ;.:.:.:.:.:.:., :.:.:.>.;.:.>.;.;.>.:.:.:.:.:.:.:.:.h ;.:.:.:.:.:.:.:.:.:.:.:.:.:.:.:.:.i :.:.:.:.;.:.:.:.M v.l.l.{ ",
"Z l.l.c.i ( =.;.;.:.:.;.:.p ;.;.;.:.;.:.;.:.;.:.:.:.:.:.:.:.:.:.i ;.:.;.:.;.;.:.;.:.;.:.:.:.:.:.;.=.i =.:.;.;.:.;.:.:.k b.l.l.{ ",
"_ l.l.c.i ( ( =.=.=.;.;.;.p ;.;.;.=.;.:.;.;.;.;.=.=.=.;.;.;.;.;.i :.;.:.;.;.:.;.:.;.;.;.;.:.O.O.;.=.y ;.;.:.;.;.:.=.;.h c.l.l.{ ",
"_ l.l.x.i / / X.X.=.=.;.;.o ;.;.=.=.;.=.;.=.=.=.;.;.;.;.;.;.;.;.i ;.;.;.O.;.;.X.;.;.;.;.O.O.O.O.;.;.i =.=.;.=.=.=.=.;.s c.l.z.{ ",
"A l.l.l.% % & & = & % . . . . . X   X X X X . . . . . . . . . . h . . . . . X X     . X . . X . . . j . X X . . . . . . b.l.l.{ ",
"_ l.k.z.i ! / / / / ( / / / / / / / j / ( / / / / / / ( / / / / / / > G @.l @.G F H T @.c G T 1 s ( / ( / / i / / / / > c.l.l.{ ",
"` l.k.l.i / / / / / / / / / / / / / ! / / / / / / / / ( / / / / ^ O D u.@.c @.@.G H @.T V T T N V j / / / / i j / / / , c.z.l.{ ",
"` l.k.l.s ! / / / / / ( / / / ( / / ! / / / / / / ( / / / / ( / - G T @.t.b T @.G @.@.T V T T D T C k ( ( / i ( / / / , v.l.l.{ ",
"` z.l.x.s ^ / / [ [ ( [ [ [ [ ( [ [ ( [ [ [ [ [ [ ( ..( [ [ [ ! x G H @.@.b T @.G @.T @.V T T D T T i [ ( ( s ( [ ( ( , v.z.z.+.",
"= _ _ , > ( ^ ( X.X.X.;.;.;.:.X.:.X.X.O.O.;.;.:.:.;.;.;.;.;.O.d G G | @.t.b H | H y.@.@.V T T F H H + =.O.=., ;.;.;.:., - _ _ = ",
"` l.k.c.> ! ! ! < [ X.-.X.X.X.X.[ o.o.X.X.O.X.X.X.X.) X.X.;.o.B c c b b $.b | | H y.@.T b <.b c c x x _ [ [ [ [ -.X.X.d v.l.l.{ ",
"` l.l.x.> ^ ( ( < ;.;.;.:.;.;.:.O.;.;.;.;.;.:.;.;.;.) ;.;.;.;.) i.<.p.i.i.N H H G y.T H | 1.i.1.1.1.> ;.;.;.;.;.;.;.;.< v.l.l. .",
"` l.l.c.> ( ( ( ^ ;.;.;.;.;.;.;.;.;.;.;.;.;.;.;.;.;./ ;.;.;.;.) #.$.1.1.u.$ H | G y.@.T x 1.#.#.#.#.; ;.;.;.;.;.;.;.;.d v.l.l.{ ",
"_ l.l.c.> ^ ( ( ! O.:.;.O.O.O.O.;.;.;.;.;.X.;.;.;.;./ ;.;.;.;.k @ $ $ $ v D H H G y.T @.l B $ $ @ @ + :.;.;.;.;.;.;.;.d c.l.l.{ ",
"` l.l.c.> ( ( ( ! O.O.O.:.O.O.O.;.;.;.O.;.:.;.;.;.;.h ;.;.;.;.B F F G H b D H H G u.T @.V v T F F F p ;.;.;.;.O.;.;.;., v.k.l.{ ",
"` l.l.c.; g g g g g ^ ] ] ] ] ] ] ) h h ] ^ ) ) ~ k > k ( [ / B F F G H G b H H H u.@.T N T T D F F V j / / / _ ] [ [ , v.l.l.{ ",
"` l.l.c.> ( ( ( ....:.:.:.O.7.O.:.:.< :.;.:.:.:.;.;.;.:.;.;.;.h F F H H F V G G G u.@.@.V T T F V F ; :.:.:.~ :.:.:.:.< v.l.l.{ ",
"` l.l.v.> ^ ^ ( ....O.O.O.O.O.O.X.O.~ O.O.O.O.O.O.O.O.O.O.O.O.h F D H G G N H G F u.@.@.V H T V D D : ;.O.O.~ O.O.O.O., b.l.l. .",
") l.l.c.> ^ ( ( ....O.O.O.O.O.O.O.O.] O.O.O.O.O.O.O.O.O.O.O.O.d D F H F F N G D | | N H F G G V D D , O.O.X.] O.O.O.O.< b.l.l.{ ",
"` c.c.z.> ^ ^ ] ..( ( O.O.O.O.O.O.O.] O.O.O.O.O.O.O.O.O.O.O.;.d D D G F F b G B #.#.: T V G H N N D > O.X.O.) O.O.O.O., z.z.z. .",
"M f.w.f.> ^ ^ ^ ( ( ] O.O.O.O.O.O.O.] O.O.O.O.;.X.O.O.O.O.O.;.d F D G F F N G v B } ; G V G G V D N - O.O.O.> O.O.O.O.< d.w.w.` ",
"` l.l.c.= g ! < * < ! ^ ..] ] ....[ ..[ ..{ ....[ ] k ] [ ] ^ B D D H F N N F : x m @ F D N G N N N v ~ ) ) ~ ~ ] ] ] , v.l.l.{ ",
"` l.l.c.> ^ ^ ! < ( ( ..O.O.O.O.O.O.O.O.O.O.O.O.O.O.~ O.O.O.O.k @ $ : : u.N F N l x V F c a.1 : - @ = O.O.O.O.O.O.O.O.< v.l.l.{ ",
"` l.l.c.> ^ ^ ^ ! ( ( ..O.O.O.O.O.O.O.O.O.O.O.O.O.O._ O.O.O.O.k #.#.1.1.1.| V F N G F N $.#.<.#.#. ., O.O.O.O.O.O.O.O., v.l.l.{ ",
"` l.l.c.* ^ ^ ^ ! ^ ( ( O.O.O.O.O.O.O.O.O.O.O.O.O.O.( O.O.O.O.k A A } ` #.+ A F V F F F : #.` A A A , O.O.O.O.O.O.O.O., v.l.l.{ ",
"` l.l.c.> ^ ^ ^ < ( ( ( O.O.O.;.O.O.O.O.O.O.O.O.O.O.h O.O.O.O.g 1 1 : l : l F F N F V V l @ : $ y $ - ;.;.O.O.O.O.O.O.< v.l.l.' ",
"` l.l.c.; < < < * < < d g k ~ k k ~ k ! k k k ^ ) ) , ~ ) ~ ~ > N b N D N l F V v F V V x V G b N b = B k ^ ) ) ) ) ) > v.k.l.{ ",
"` l.l.c.> [ O...O.O.X.X.;.8.-.w.q.q.q.q.q.q.q.q.q.q.q.q.q.q.q.r.; D b F V l V F c F F V x F G v N N 0.q.q.q.q.q.q.q.q.M c.l.l. .",
"' c.c.v.> ( O.o.O.O.X.X.>.9.8.w.q.q.q.q.q.q.q.9.q.q.q.q.q.q.q.w.: A A A ` A A A m ' ' A ' A A A B M 0.q.q.q.q.q.q.q.q.k b.c.c. .",
", { { M > ..O.:.O.:.=.-.:.q.9.w.w.q.w.w.w.e.q.e.w.w.w.w.q.w.w.r., i.p.6.p.p.s.g.#.j.g.g.p.6.6.6.4.1.0.w.w.w.w.w.r.w.w.M m { { > ",
"` k.z.c.; ^ ........O...O.:.=.>.:.7.7.7.:.>.:.>.:.:.:.7.:.7.7.7.@ Z Z ` ' ' ' ' Z ,.' ' ' ' ' A B B 2.:.:.>.:.>.:.:.7.d c.z.l.{ ",
"_ k.l.c.> ! ( [ [ ..[ [ X.X.X.;.O.O.O.X.=.=.=.O.;.;.;.;.=.=.O.7.= ` _ ' ' ' ' ' A #.{ ' ' ' _ ' ' B -.-.;.=.=.;.=.=.;.d v.l.l.{ ",
"_ z.k.c.o X X X X X X X X X X X . . . . . . . . . . X X X X X o X X X X . X X X o . X . . . .     X X X . + X X o X X X c.l.l.{ ",
"` l.l.c.d q.q.q.7.8.3.7.8.8.7.8.d 4 6 q w X 6 n 7 7 w.r.r.r.r.r.r.r.r.q.q.q.q.w.q.q.q.3 w e e e u L L e V q.q.7.9.9.8.h c.l.l.{ ",
"` l.l.c.m r.r.r.q.q.q.q.w.0.0.q.a 0 r r r p %.Y Y e O.O.;.;.=.O.;.=.=.....X.X.( X.X...5 w e I I ^ q.q.&.n O.O.O.O.O.:.d v.l.l.{ ",
"` l.l.c.p ;.O.O.X.X.X.X.....O.X.3 r r Y I < q.q.q.e ..O.;.:.;.:.;.;.=...............X.5 I t I q._ q.q.w.&., < > > > , o c.z.l.{ ",
"` l.l.c.; h k h k ~ ~ ^ ~ h d d 8 I r *.w.~ w.w.w.q.' [ _ _ _ _ Z k f [ { { [ ' ] / 5 e I I q.w.] w.e.w.q.w.w.w.w.w.q.h v.l.l.{ ",
"` l.l.c.d q.3.-.q.q.q.w.q.w.w.W r r I q.w.k w.w.w.q.r.r.q.e.q.q.9.>.-.0.q.q.w.q.w.e.R t t I w.r.] w.w.w.q.w.w.r.w.w.q.B c.l.l.{ ",
"` l.l.c.m 8.3.-.q.q.q.q.q.w.q.0.I r I r.r._ l.r.r.r.r.r.h.h.h.h.e.k.h.k.h.e.r.r.r.r.e.E E E k.k.{ q.q.q.q.8.q.7.9.9.8.M c.z.l.{ ",
"M h.h.d.M d.h.d.r.r.q.q.w.w.w.0.R *.*.h.r.B 7.7.7.7.7.:.7.7.>.:.=.X.[ ;.;.;.:.;.;.:.;.9 -.:.>.7.g 7.7.7.:.7.7.7.:.7.:., d.h.h.` ",
"` k.k.z.d =.X.X.;.;.;.7.O.7.;.:.9 0 O.:.7.< 7.7.7.:.7.7.7.7.>.>.-.=.-.;.:.;.;.:.;.;.J 9 9 0 >.:., 7.7.7.7.7.:.7.:.:.:., z.h.h.' ",
"` l.l.c., ;.X.X.;.;.:.-.:.:.;.J 9 5 3 Z B + k B k _ _ [ j k _ k h h a f k Z Z k :.[ 9 5 ' _ ' ' _ ) ` ` ' ] Z _ _ ' _ , v.l.l.{ ",
"` l.l.c.= > + @ - p p u p X.] 8 p q.q.q.q.q.q.q.q.q.q.Z w.q.q.q.q.q.q.e.e.e.e.j.p _ d q.q.q.q.q.0.q.q.q.q.q.Z q.q.q.q.k c.l.l.{ ",
"` l.l.c.d 0.q.q.f.e.h.k.e.p p 2.q.q.w.q.q.q.q.q.q.q.q.{ r.q.q.q.q.q.5.e.e.e.0.e.Z >.q.w.q.q.w.q.q.w.q.q.q.q.' w.q.q.q.M v.l.l.{ ",
"` l.l.c.d q.q.q.f.e.e.e.e.Z e.e.e.e.e.w.r.e.e.e.e.e.e.,.h.w.e.r.e.w.e.e.k.k.k.k.+.e.e.e.e.r.e.e.e.e.r.e.r.h.{ r.q.q.w.k v.l.l.{ ",
"` l.l.c.M l.h.l.k.k.k.k.l.A 5.>.8.3.9.9.8.8.3.>.9.9.9.{ 9.;.=.;.;.;.X.:.,.>.>.3.{ 3.3.3.3.9.3.3.3.9.8.8.8.3._ 7.=.O.O.d v.l.l.{ ",
"` l.l.c.< X.X.X.,.,.2.2.3.B 9.>.>.5.3.8.3.>.5.5.5.3.7.+.7.;.=.=.X.X.=.:.,.>.>.3.f _ _ _ _ _ _ Z f f f f f f +.d d d , + c.l.l.' ",
"` l.l.c., ] ] _ { +.+.-.+.k f M f M M M M O @ ; = - - { ; ; - - @ O O y m f M d 9.3.9.5.9.3.9.P r w.w.w.w.q.q.q.9.q.q.h v.l.l.{ ",
"` v.b.b., 2.K q +.:.2.-.>.9.9.9.9.9.q.q.C r 5.0.w.q.q.q.q.q.q.q.q.r r 7.9.9.9.9.9.9.9.9.q.q.q.P r I I &.w.q.q.q.q.9.q.M v.x.x.,.",
"p 2.2.' d 8.I r 5.8.9.9.9.8.9.9.9.q.q.q.C r r r Y w.w.q.9.q.q.q.W r r q.w.w.e.w.e.e.e.w.r.r.w.P t t W Q e.r.r.w.r.w.w.z ' 2.,.d ",
"` l.l.c.d r r r h.h.l.l.l.l.l.l.l.l.l.l.S U U k.l.h.l.k.l.l.k.k.l.k.k.=.=.=.=.:.;.:.=.;.:.=.;.5 9 9 =.=.X.;.;.:.O.O.O., v.l.z.' ",
"` l.l.c.d 8.8.7.=.=.=.:.:.:.O.:.:.:.=.=.# 9 C O.O.X.X.O.O.O.=.O.X.....=.;.X.;.;.:.;.-.:.;.=.=.2 J ..=.X.X.X.O.O.O.O.X.< v.l.l.{ ",
"` l.l.c.; ~ / / ( ] ] ] ] ] ] ..[ { ] ] O 5 ( ( / ( ] ] ] ..[ _ ../ ( o o + + f + @ ; : > = - = > i k , > - _ _ ( [ ( ; v.l.l.{ ",
"` l.l.l.0.0.0.p.w.w.p.w.d.B f.0.w.p.w.0.0.f.0.w.w.0.w.p.w.0.0.0.{ f.0.w.p.w.w.p.w.0.e.0.0.0.w.0.w.0.+.0.w.p.w.w.w.w.0.0.l.l.l.{ ",
"` k.l.l.l.l.l.l.l.l.l.l.l.` l.l.l.l.z.l.l.l.l.l.l.l.l.l.l.l.z.l.,.l.l.l.l.l.l.l.k.z.l.l.z.l.z.l.l.l.+.x.l.l.l.l.l.l.l.l.l.l.l.{ ",
"M v.b.b.v.v.n.n.v.v.b.v.b.` v.v.v.v.v.v.v.v.v.v.b.v.v.v.v.v.v.v.,.v.v.v.v.v.b.v.v.v.v.v.v.v.v.v.v.v.{ v.v.v.v.b.v.b.v.b.v.v.b. .",
", 8.7.8.>.:.:.;.;.;.;.;.;.X ;.;.;.;.;.;.;.;.;.;.;.;.;.;.;.;.;.;.> ;.;.;.;.;.;.;.;.;.;.;.;.-.;.;.;.=.@ =.;.;.;.:.;.;.:.O.7.7.7.B "
};
