/* XPM */
static char *_9948ab950d946c7877e88849c64ad14[] = {
/* columns rows colors chars-per-pixel */
"64 64 77 1 ",
"  c #533523",
". c #553D2D",
"X c #593D2B",
"o c #583F30",
"O c #666218",
"+ c #6B651D",
"@ c #72751B",
"# c #5E4A26",
"$ c #59402E",
"% c #564336",
"& c #5B4435",
"* c #5E4837",
"= c #5A4739",
"- c #5D4A3C",
"; c #604D2A",
": c #644D3C",
"> c #684F3F",
", c #64503F",
"< c #6C5E3B",
"1 c #757820",
"2 c #6D603D",
"3 c #5E4E42",
"4 c #5D5247",
"5 c #5D5349",
"6 c #614F42",
"7 c #655343",
"8 c #6A5646",
"9 c #61564B",
"0 c #695648",
"q c #63594D",
"w c #6D5B4C",
"e c #635B51",
"r c #695E52",
"t c #665F58",
"y c #715F51",
"u c #666057",
"i c #6A6255",
"p c #676159",
"a c #6A645C",
"s c #6C685C",
"d c #6C685E",
"f c #6D685E",
"g c #706051",
"h c #726354",
"j c #756355",
"k c #726454",
"l c #766457",
"z c #726659",
"x c #766659",
"c c #71685B",
"v c #756A5B",
"b c #776C5E",
"n c #7A695C",
"m c #786D5F",
"M c #6E6A60",
"N c #726F63",
"B c #7C6D60",
"V c #7A6F64",
"C c #747166",
"Z c #757266",
"A c #797062",
"S c #797065",
"D c #767469",
"F c #7B736A",
"G c #78766B",
"H c #7C746B",
"J c #7C756C",
"K c #7E7870",
"L c #7F7C73",
"P c #807C74",
"I c #817E76",
"U c #838077",
"Y c #838178",
"T c #848179",
"R c #868579",
"E c #88877C",
"W c #8D8B82",
/* pixels */
"@@@@@@@+wgghkhggg0ggggggggggggg0gggggggggggg0ggggggggg+@@@@@@@@1",
"@@@@@@@xRRRRRRRRRkRRRRRRRRRRRRRkRRRRRRRRRRRRkRRRRRRRRRx@@@@@@@@@",
"@@@@@@@xRRSSFHKKK0KKKKKKKKKKKKK8KKKKKKKKKKKK0KKKJHVSRRx@@@@@@@@@",
"@@@@@@@xRR8XX$&&&#&&&&&&&&&&&&&#&&&&&&&&&&&&#&&&&$X8RRx@@@@@@@@@",
"@@@@@@@xRRwO@@@@@@@@@@@@@@@@@@@@@@@@@@@@@@@@@@@@@@@wWWx@@@@@@@@@",
"@@@@@@@>BB:O@@@@@@@@@@@@@@@@@@@@@@@@@@@@@@@@@@@@@@@$bb:@@@@@@@@@",
"@@@@@@@xRRwO@@@@@@@@@@@@@@@@@@@@@@@@@@@@@@@@@@@@@@@8RRx@@@@@@@@@",
"@@@@@@@xRRwO@@@@@@@@@@@@@@@@@@@@@@@@@@@@@@@@@@@@@@@8RRx@@@@@@@@@",
"@@@@@@@xRRwO@@@@@@@@@@@@@@@@@@@@@@@@@@@@@@@@@@@@@@@8RRx@@@@@@@@@",
"@@@@@@@xRRwO@@@@@@@@@@@@@@@@@@@@@@@@@@@@@@@@@@@@@@@8RRx@@@@@@@@@",
"@@@@@@@xRRwO@@@@@@@@@@@@@@@@@@@@@@@@@@@@@@@@@@@@@@@8RRx@@@@@@@@@",
"@@@@@@@xRRwO@@@@@@@@@@@@@@@@@@@@@@@@@@@@@@@@@@@@@@@8RRx@@@@@@@@@",
"@@@@@@@lRRwO@@@@@@@@@@@@@@@@@@@@@@@@@@@@@@@@@@@@@@@wWWx@@@@@@@@@",
"@@@@@@@:BB:O@@@@@@@@@@@@@@@@@@@@@@@@@@@@@@@@@@@@@@@$bb:@@@@@@@@@",
"@@@@@@@lRRwO@@@@@@@@@@@@@@@@@@@@@@@@@@@@@@@@@@@@@@@8RRx@@@@@@@@@",
"@@@@@@@lRRwO@@@@@@@@@@@@@@@@@@@@@@@@@@@@@@@@@@@@@@@8RRx@@@@@@@@@",
"@@@@@@@lRRwO@@@@@@@@@@@@@@@@@@@@@@@@@@@@@@@@@@@@@@@8RRx@@@@@@@@@",
"@@@@@@@lRRwO@@@@@@@@@@@@@@@@@@@@@@@@@@@@@@@@@@@@@@@8RRx@@@@@@@@@",
"@@@@@@@lRRwO@@@@@@@@@@@@@@@@@@@@@@@@@@@@@@@@@@@@@@@8RRx@@@@@@@@@",
"@@@@@@@lRRwO@@@@@@@@@@@@@@@@@@@@@@@@@@@@@@@@@@@@@@@8RRx@@@@@@@@@",
"@@@@@@@lRRwO@@@@@@@@@@@@@@@@@@@@@@@@@@@@@@@@@@@@@@@wWWx@@@@@@@@@",
"@@@@@@@:BB:O@@@@@@@@@@@@@@@@@@@@@@@@@@@@@@@@@@@@@@@$bb:@@@@@@@@@",
"@@@@@@@lRRwO@@@@@@@@@@@@@@@@@@@@@@@@@@@@@@@@@@@@@@@8RRx@@@@@@@@@",
"@@@@@@@lRRwO@@@@@@@@@@@@@@@@@@@@@@@@@@@@@@@@@@@@@@@8RRx@@@@@@@@@",
"@@@@@@@lRRwO@@@@@@@@@@@@@@@@@@@@@@@@@@@@@@@@@@@@@@@8RRx@@@@@@@@@",
"@@@@@@@lRRwO@@@@@@@@@@@@@@@@@@@@@@@@@@@@@@@@@@@@@@@8RRx@@@@@@@@@",
"@@@@@@@lRRwO@@@@@@@@@@@@@@@@@@@@@@@@@@@@@@@@@@@@@@@8RRx@@@@@@@@@",
"@@@@@@@lRRwO@@@@@@@@@@@@@@@@@@@@@@@@@@@@@@@@@@@@@@@8RRx@@@@@@@@@",
"@@@@@@@lRRwO@@@@@@@@@@@@@@@@@@@@@@@@@@@@@@@@@@@@@@@wWWx@@@@@@@@@",
"@@@@@@@:BB:O@@@@@@@@@@@@@@@@@@@@@@@@@@@@@@@@@@@@@@@$bb:@@@@@@@@@",
"@@@@@@@lRRwO@@@@@@@@@@@@@@@@@@@@@@@@@@@@@@@@@@@@@@@8RRx@@@@@@@@@",
"@@@@@@@jRRwO@@@@@@@@@@@@@@@@@@@@@@@@@@@@@@@@@@@@@@@8RRx@@@@@@@@@",
"@@@@@@@lRRAwwwggg2ggggggggggggg<gggggggggggg2ggggg8mRRx@@@@@@@@@",
"@@@@@@@lRRRRRRRRRbRRRRRRRRRRRRRvRRRRRRRRRRREmRRRRRRRRRn@@@@@@@@@",
"@@@@@@@8TTUIIIIIUzTIILLLKKKKLIIkIIIIIIIIIIIIzIIIIIIKII8@@@@@@@@@",
"@@@@@@@8fffffMMMM9MMMMfffffffff9fffffffffffa9ffaaaaaaa8@@@@@@@@@",
"@@@@@@@7aaaaffffM9fMMfffffffaaa9aaaaaaaaaaaa9aaaaaaaaa7@@@@@@@@@",
"@@@@@@@7aaaaaaaaa6ffaaaaaaaaaaa7aaaaaaaaaaaa7aaaaaaaaa7@@@@@@@@@",
"@@@@@@@:uppaaaaaa-aaaaaaaaaaaaa-aaaaaaaaaaaa-aaaaaaaau:@@@@@@@@@",
"@@@@@@@:ttppppppp=pppaaaaaaaaaa-aaaaaaaaaaaa-aaaappuut:@@@@@@@@@",
"@@@@@@@;tttuupppp&ppppppppppppp=pppppppppppp*ppppputtt;@@@@@@@@@",
"@@@@@@@@X&&& ....= ............=.. .........=.... $$$ @@@@@@@@@@",
"@@@@@@@@,fff*55554%444444444444444%44444444444555$qqq$@@@@@@@@@@",
"@@@@@@@@,fff*55555%444444444444444%44444444444555$qqq$@@@@@@@@@@",
"@@@@@@@@7fff*teeee-eeeeeeeeeeeeeee-eeeeeeeeeeeeee$9qq&@@@@@@@@@@",
"@@@@@@@@7fffq*3444-9qqqqqq9qeeee94&3eeee93349e94&-qqq&@@@@@@@@@@",
"@@@@@@@@7fff*Maaaaaaaaaaaaqaaaaaaaaaaaaaaa3aaaaaa$qqr&@@@@@@@@@@",
"@@@@@@@@7fff-apppppppppppp9ppppppppppppppp9pppppa$qqr&@@@@@@@@@@",
"@@@@@@@@7fff*apppppppppppp9pppppppppppppppepppppa$qrr&@@@@@@@@@@",
"@@@@@@@@7fff*aaapppppppppp4pppppppppppppppepppppa$qrr&@@@@@@@@@@",
"@@@@@@@@7ZZZr--eee9&9q999339eeett97qetttttttttq9*-rii&@@@@@@@@@@",
"@@@@@@@@:0q7Xappttt3tttttttttttttt9tttttttttttttaX---X@@@@@@@@@@",
"@@@@@@@@wNNN:atttttetttttttttttttt9ttttttttttttta&rrr8@@@@@@@@@@",
"@@@@@@@@wNNN:atttttetttttttttttttt4ttttttttttttta&rrf8@@@@@@@@@@",
"@@@@@@@@wZZZr*-4eee9eeee999999999-o-999994-9eee4&7rrD8@@@@@@@@@@",
"@@@@@@@@wZZZ:aaaaaaaaaaaaa9aaaaaaaaaaaaaaa3aaaaaf&ifD8@@@@@@@@@@",
"@@@@@@@@wDDD:atttttttttttt9tttttttttttttttettttta&iDD8@@@@@@@@@@",
"@@@@@@@@wDDD:atttttttttttt9tttttttttttttttettttta&MDD8@@@@@@@@@@",
"@@@@@@@@wGGG:atttttttttttt3ttttttttttttttt3ttttta&DDD8@@@@@@@@@@",
"@@@@@@@@yGGGG7777:77777777777777777777777777:7777DDDDw@@@@@@@@@@",
"@@@@@@@@gGGGGGDDDiDDDDDDDDDDDDDiDDDDDDDDDDDDiDDDDDDDDw@@@@@@@@@@",
"@@@@@@@@gYUILLLLLcLLLLLLLLLLLLLcLLLLLLLLLLLLcLLLLLLUUw@@@@@@@@@@",
"@@@@@@@@*uuuuuuuuquuuuuuuuuuuuuquuuuuuuuuuuuquuuuuuuu*@@@@@@@@@@",
"@@@@@@@@;&&&&&&&& &&&&&&&&&&&&& &&&&&&&&&&&& &&&&&&&&;@@@@@@@@@@"
};
