/* XPM */
static char *result[] = {
/* columns rows colors chars-per-pixel */
"64 64 128 2 ",
"   c #4F2913",
".  c #55321D",
"X  c #55331D",
"o  c #54331F",
"O  c #55341E",
"+  c #56341E",
"@  c #56341F",
"#  c #56351F",
"$  c #563420",
"%  c #573520",
"&  c #563620",
"*  c #573621",
"=  c #573723",
"-  c #583622",
";  c #583623",
":  c #583723",
">  c #583724",
",  c #583824",
"<  c #5B3C29",
"1  c #5B3F2D",
"2  c #5C402D",
"3  c #5D402D",
"4  c #5C412E",
"5  c #5D4330",
"6  c #5F4735",
"7  c #5F4836",
"8  c #604331",
"9  c #604532",
"0  c #614835",
"q  c #624835",
"w  c #624836",
"e  c #624B39",
"r  c #644A38",
"t  c #664C3A",
"y  c #664C3B",
"u  c #664C3C",
"i  c #644E3D",
"p  c #644F3F",
"a  c #645242",
"s  c #665546",
"d  c #685342",
"f  c #6B5746",
"g  c #6D5846",
"h  c #6F5A49",
"j  c #685C4E",
"k  c #6E5E4E",
"l  c #705A49",
"z  c #705C4D",
"x  c #6B5F51",
"c  c #6F5F51",
"v  c #6E6051",
"b  c #6B6256",
"n  c #6E6456",
"m  c #6D6559",
"M  c #6F6658",
"N  c #6E675B",
"B  c #716356",
"V  c #73675A",
"C  c #746759",
"Z  c #71685B",
"A  c #716A5F",
"S  c #786C5F",
"D  c #736E63",
"F  c #746C60",
"G  c #746D62",
"H  c #756F63",
"J  c #746F64",
"K  c #786E60",
"L  c #767063",
"P  c #747064",
"I  c #767164",
"U  c #777165",
"Y  c #757166",
"T  c #7A7163",
"R  c #787265",
"E  c #7A7265",
"W  c #7B7265",
"Q  c #7A7366",
"!  c #7C7164",
"~  c #7D7567",
"^  c #79766A",
"/  c #79766B",
"(  c #7D7669",
")  c #7E7668",
"_  c #7C786C",
"`  c #7E796C",
"'  c #7F7B6F",
"]  c #7F7C70",
"[  c #83786D",
"{  c #857B70",
"}  c #857B71",
"|  c #817E71",
" . c #807D73",
".. c #847C70",
"X. c #857C72",
"o. c #887F74",
"O. c #838074",
"+. c #888075",
"@. c #888076",
"#. c #878279",
"$. c #868379",
"%. c #868579",
"&. c #888279",
"*. c #88877B",
"=. c #88857C",
"-. c #8A857C",
";. c #88877C",
":. c #89877C",
">. c #8A867E",
",. c #89887D",
"<. c #8A887D",
"1. c #8A887E",
"2. c #8A897E",
"3. c #8C8981",
"4. c #8C8B81",
"5. c #8D8B81",
"6. c #8D8B82",
"7. c #8D8C83",
"8. c #8E8C82",
"9. c #8E8C83",
"0. c #8E8D83",
"q. c #8E8D84",
"w. c #908F86",
"e. c #918F87",
"r. c #918F88",
"t. c #939189",
"y. c #94928B",
"u. c None",
/* pixels */
"> y.%.%.%.%.%.@ u.u.u.u.u.u.u.u.u.u.u.u.u.u.u.u.u.u.u.u.u.u.u.u.u.u.u.u.u.u.u.u.u.u.u.u.u.u.u.u.u.u.u.u.u.u.u.u.  %.%.%.%.%.y.< ",
"> y.%.%.%.%.%.@ u.u.u.u.u.u.u.u.u.u.u.u.u.u.u.u.u.u.u.u.u.u.u.u.u.u.u.u.u.u.u.u.u.u.u.u.u.u.u.u.u.u.u.u.u.u.u.u.  %.%.%.%.%.y.< ",
"> y.%.%.%.%.%.@ u.u.u.u.u.u.u.u.u.u.u.u.u.u.u.u.u.u.u.u.u.u.u.u.u.u.u.u.u.u.u.u.u.u.u.u.u.u.u.u.u.u.u.u.u.u.u.u.  %.%.%.%.%.y.< ",
"> y.%.%.%.%.%.@ u.u.u.u.u.u.u.u.u.u.u.u.u.u.u.u.u.u.u.u.u.u.u.u.u.u.u.u.u.u.u.u.u.u.u.u.u.u.u.u.u.u.u.u.u.u.u.u.  %.%.%.%.%.y.< ",
"> y.%.%.%.%.%.@ u.u.u.u.u.u.u.u.u.u.u.u.u.u.u.u.u.u.u.u.u.u.u.u.u.u.u.u.u.u.u.u.u.u.u.u.u.u.u.u.u.u.u.u.u.u.u.u.  %.%.%.%.,.3.< ",
">  .q.%.%.%.%.@ u.u.u.u.u.u.u.u.u.u.u.u.u.u.u.u.u.u.u.u.u.u.u.u.u.u.u.u.u.u.u.u.u.u.u.u.u.u.u.u.u.u.u.u.u.u.u.u.  %.%.%.%.t.J < ",
"> / Y $.$.;.;.@ u.u.u.u.u.u.u.u.u.u.u.u.u.u.u.u.u.u.u.u.u.u.u.u.u.u.u.u.u.u.u.u.u.u.u.u.u.u.u.u.u.u.u.u.u.u.u.u.  [ X.X.>.A P < ",
"> N b 1 1 h h @ u.u.u.u.u.u.u.u.u.u.u.u.u.u.u.u.u.u.u.u.u.u.u.u.u.u.u.u.u.u.u.u.u.u.u.u.u.u.u.u.u.u.u.u.u.u.u.u.  K W E 4 b m < ",
"= t w %.%.%.%.@ u.u.u.u.u.u.u.u.u.u.u.u.u.u.u.u.u.u.u.u.u.u.u.u.u.u.u.u.u.u.u.u.u.u.u.u.u.u.u.u.u.u.u.u.u.u.u.u.  %.%.%.%.f z < ",
"> y.%.%.%.%.%.@ u.u.u.u.u.u.u.u.u.u.u.u.u.u.u.u.u.u.u.u.u.u.u.u.u.u.u.u.u.u.u.u.u.u.u.u.u.u.u.u.u.u.u.u.u.u.u.u.  %.%.%.%.%.y.< ",
"> y.%.%.%.%.%.@ u.u.u.u.u.u.u.u.u.u.u.u.u.u.u.u.u.u.u.u.u.u.u.u.u.u.u.u.u.u.u.u.u.u.u.u.u.u.u.u.u.u.u.u.u.u.u.u.  %.%.%.%.%.y.< ",
"> y.%.%.%.%.%.@ u.u.u.u.u.u.u.u.u.u.u.u.u.u.u.u.u.u.u.u.u.u.u.u.u.u.u.u.u.u.u.u.u.u.u.u.u.u.u.u.u.u.u.u.u.u.u.u.  %.%.%.%.%.y.< ",
"> y.%.%.%.%.%.@ u.u.u.u.u.u.u.u.u.u.u.u.u.u.u.u.u.u.u.u.u.u.u.u.u.u.u.u.u.u.u.u.u.u.u.u.u.u.u.u.u.u.u.u.u.u.u.u.  %.%.%.%.%.y.< ",
"> y.%.%.%.%.%.@ u.u.u.u.u.u.u.u.u.u.u.u.u.u.u.u.u.u.u.u.u.u.u.u.u.u.u.u.u.u.u.u.u.u.u.u.u.u.u.u.u.u.u.u.u.u.u.u.  %.%.%.%.%.y.< ",
"> y.%.%.%.%.%.@ u.u.u.u.u.u.u.u.u.u.u.u.u.u.u.u.u.u.u.u.u.u.u.u.u.u.u.u.u.u.u.u.u.u.u.u.u.u.u.u.u.u.u.u.u.u.u.u.  %.%.%.%.%.y.< ",
"> y.%.%.%.%.%.@ u.u.u.u.u.u.u.u.u.u.u.u.u.u.u.u.u.u.u.u.u.u.u.u.u.u.u.u.u.u.u.u.u.u.u.u.u.u.u.u.u.u.u.u.u.u.u.u.  %.%.%.%.%.y.< ",
"> y.%.%.%.%.%.@ u.u.u.u.u.u.u.u.u.u.u.u.u.u.u.u.u.u.u.u.u.u.u.u.u.u.u.u.u.u.u.u.u.u.u.u.u.u.u.u.u.u.u.u.u.u.u.u.  1.1.1.1.1.y.< ",
"> y.8.9.0.0.7.+ u.u.u.u.u.u.u.u.u.u.u.u.u.u.u.u.u.u.u.u.u.u.u.u.u.u.u.u.u.u.u.u.u.u.u.u.u.u.u.u.u.u.u.u.u.u.u.u.  8 B B B B 8 < ",
"> u g g g g q + u.u.u.u.u.u.u.u.u.u.u.u.u.u.u.u.u.u.u.u.u.u.u.u.u.u.u.u.u.u.u.u.u.u.u.u.u.u.u.u.u.u.u.u.u.u.u.u.  %.%.%.%.%.y.< ",
", y.%.%.%.%.%.* u.u.u.u.u.u.u.u.u.u.u.u.u.u.u.u.u.u.u.u.u.u.u.u.u.u.u.u.u.u.u.u.u.u.u.u.u.u.u.u.u.u.u.u.u.u.u.u.  %.%.%.%.%.y.< ",
"* y.%.%.%.%.%.. u.u.u.u.u.u.u.u.u.u.u.u.u.u.u.u.u.u.u.u.u.u.u.u.u.u.u.u.u.u.u.u.u.u.u.u.u.u.u.u.u.u.u.u.u.u.u.u.  %.%.%.%.%.y.< ",
"; y.%.%.%.%.%.@ u.u.u.u.u.u.u.u.u.u.u.u.u.u.u.u.u.u.u.u.u.u.u.u.u.u.u.u.u.u.u.u.u.u.u.u.u.u.u.u.u.u.u.u.u.u.u.u.  %.%.%.%.%.y.< ",
"> y.%.%.%.%.%.@ u.u.u.u.u.u.u.u.u.u.u.u.u.u.u.u.u.u.u.u.u.u.u.u.u.u.u.u.u.u.u.u.u.u.u.u.u.u.u.u.u.u.u.u.u.u.u.u.  %.%.%.%.%.y.< ",
"> y.%.%.%.%.%.@ u.u.u.u.u.u.u.u.u.u.u.u.u.u.u.u.u.u.u.u.u.u.u.u.u.u.u.u.u.u.u.u.u.u.u.u.u.u.u.u.u.u.u.u.u.u.u.u.  %.%.%.%.%.y.< ",
"> y.%.%.%.%.%.@ u.u.u.u.u.u.u.u.u.u.u.u.u.u.u.u.u.u.u.u.u.u.u.u.u.u.u.u.u.u.u.u.u.u.u.u.u.u.u.u.u.u.u.u.u.u.u.u.  %.%.%.%.%.y.< ",
"> y.%.%.%.%.%.@ u.u.u.u.u.u.u.u.u.u.u.u.u.u.u.u.u.u.u.u.u.u.u.u.u.u.u.u.u.u.u.u.u.u.u.u.u.u.u.u.u.u.u.u.u.u.u.u.  %.%.%.%.%.y.< ",
"> y.%.%.%.%.<.@ u.u.u.u.u.u.u.u.u.u.u.u.u.u.u.u.u.u.u.u.u.u.u.u.u.u.u.u.u.u.u.u.u.u.u.u.u.u.u.u.u.u.u.u.u.u.u.u.  -.-.1.1.%.y.< ",
"> y.%.%.e.e.S @ u.u.u.u.u.u.u.u.u.u.u.u.u.u.u.u.u.u.u.u.u.u.u.u.u.u.u.u.u.u.u.u.u.u.u.u.u.u.u.u.u.u.u.u.u.u.u.u.  L I C V e.y.< ",
"> { +.+.k c D @ u.u.u.u.u.u.u.u.u.u.u.u.u.u.u.u.u.u.u.u.u.u.u.u.u.u.u.u.u.u.u.u.u.u.u.u.u.u.u.u.u.u.u.u.u.u.u.u.  ^ b b j d 8 < ",
"> } ) ) 5 J m @ u.u.u.u.u.u.u.u.u.u.u.u.u.u.u.u.u.u.u.u.u.u.u.u.u.u.u.u.u.u.u.u.u.u.u.u.u.u.u.u.u.u.u.u.u.u.u.u.  N b p ( %.y.< ",
"> y.%.%.%.@ b @ u.u.u.u.u.u.u.u.u.u.u.u.u.u.u.u.u.u.u.u.u.u.u.u.u.u.u.u.u.u.u.u.u.u.u.u.u.u.u.u.u.u.u.u.u.u.u.u.  9 0 %.%.%.y.< ",
"> y.%.%.%.T 1 @ u.u.u.u.u.u.u.u.u.u.u.u.u.u.u.u.u.u.u.u.u.u.u.u.u.u.u.u.u.u.u.u.u.u.u.u.u.u.u.u.u.u.u.u.u.u.u.u.  %.%.%.%.%.y.< ",
"> y.%.%.%.%.%.@ u.u.u.u.u.u.u.u.u.u.u.u.u.u.u.u.u.u.u.u.u.u.u.u.u.u.u.u.u.u.u.u.u.u.u.u.u.u.u.u.u.u.u.u.u.u.u.u.  %.%.%.%.%.y.< ",
"> y.%.%.%.%.%.@ u.u.u.u.u.u.u.u.u.u.u.u.u.u.u.u.u.u.u.u.u.u.u.u.u.u.u.u.u.u.u.u.u.u.u.u.u.u.u.u.u.u.u.u.u.u.u.u.  %.%.%.%.%.y.< ",
"> y.%.%.%.%.%.@ u.u.u.u.u.u.u.u.u.u.u.u.u.u.u.u.u.u.u.u.u.u.u.u.u.u.u.u.u.u.u.u.u.u.u.u.u.u.u.u.u.u.u.u.u.u.u.u.  %.%.%.%.%.y.< ",
"> y.%.%.%.%.%.@ u.u.u.u.u.u.u.u.u.u.u.u.u.u.u.u.u.u.u.u.u.u.u.u.u.u.u.u.u.u.u.u.u.u.u.u.u.u.u.u.u.u.u.u.u.u.u.u.  %.%.%.%.%.y.< ",
"> y.%.%.%.%.%.@ u.u.u.u.u.u.u.u.u.u.u.u.u.u.u.u.u.u.u.u.u.u.u.u.u.u.u.u.u.u.u.u.u.u.u.u.u.u.u.u.u.u.u.u.u.u.u.u.  %.%.%.%.%.y.< ",
"> y.%.%.%.%.%.@ u.u.u.u.u.u.u.u.u.u.u.u.u.u.u.u.u.u.u.u.u.u.u.u.u.u.u.u.u.u.u.u.u.u.u.u.u.u.u.u.u.u.u.u.u.u.u.u.  %.%.%.%.%.y.< ",
"> y.:.;.;.;.;.@ u.u.u.u.u.u.u.u.u.u.u.u.u.u.u.u.u.u.u.u.u.u.u.u.u.u.u.u.u.u.u.u.u.u.u.u.u.u.u.u.u.u.u.u.u.u.u.u.  [ &.&.&.&.[ < ",
"> y l h h h r + u.u.u.u.u.u.u.u.u.u.u.u.u.u.u.u.u.u.u.u.u.u.u.u.u.u.u.u.u.u.u.u.u.u.u.u.u.u.u.u.u.u.u.u.u.u.u.u.  K ` ` ` ` [ < ",
", y.%.%.%.%.%.& u.u.u.u.u.u.u.u.u.u.u.u.u.u.u.u.u.u.u.u.u.u.u.u.u.u.u.u.u.u.u.u.u.u.u.u.u.u.u.u.u.u.u.u.u.u.u.u.  %.%.%.%.%.y.< ",
"- y.%.%.%.%.%.X u.u.u.u.u.u.u.u.u.u.u.u.u.u.u.u.u.u.u.u.u.u.u.u.u.u.u.u.u.u.u.u.u.u.u.u.u.u.u.u.u.u.u.u.u.u.u.u.  %.%.%.%.%.y.< ",
"% y.%.%.%.%.%.O u.u.u.u.u.u.u.u.u.u.u.u.u.u.u.u.u.u.u.u.u.u.u.u.u.u.u.u.u.u.u.u.u.u.u.u.u.u.u.u.u.u.u.u.u.u.u.u.  %.%.%.%.%.y.< ",
"> y.%.%.%.%.%.@ u.u.u.u.u.u.u.u.u.u.u.u.u.u.u.u.u.u.u.u.u.u.u.u.u.u.u.u.u.u.u.u.u.u.u.u.u.u.u.u.u.u.u.u.u.u.u.u.  %.%.%.%.%.y.< ",
"> y.%.%.%.%.%.@ u.u.u.u.u.u.u.u.u.u.u.u.u.u.u.u.u.u.u.u.u.u.u.u.u.u.u.u.u.u.u.u.u.u.u.u.u.u.u.u.u.u.u.u.u.u.u.u.  %.%.%.%.%.y.< ",
"> y.%.%.%.%.%.@ u.u.u.u.u.u.u.u.u.u.u.u.u.u.u.u.u.u.u.u.u.u.u.u.u.u.u.u.u.u.u.u.u.u.u.u.u.u.u.u.u.u.u.u.u.u.u.u.  %.%.%.%.%.y.< ",
"> y.%.%.%.%.%.@ u.u.u.u.u.u.u.u.u.u.u.u.u.u.u.u.u.u.u.u.u.u.u.u.u.u.u.u.u.u.u.u.u.u.u.u.u.u.u.u.u.u.u.u.u.u.u.u.  %.%.%.%.%.y.< ",
"> y.%.%.%.%.%.@ u.u.u.u.u.u.u.u.u.u.u.u.u.u.u.u.u.u.u.u.u.u.u.u.u.u.u.u.u.u.u.u.u.u.u.u.u.u.u.u.u.u.u.u.u.u.u.u.  %.%.%.%.%.y.< ",
"> y.%.%.%.%.%.@ u.u.u.u.u.u.u.u.u.u.u.u.u.u.u.u.u.u.u.u.u.u.u.u.u.u.u.u.u.u.u.u.u.u.u.u.u.u.u.u.u.u.u.u.u.u.u.u.  1.1.1.1.1.y.< ",
"> y.4.5.5.6.4.@ u.u.u.u.u.u.u.u.u.u.u.u.u.u.u.u.u.u.u.u.u.u.u.u.u.u.u.u.u.u.u.u.u.u.u.u.u.u.u.u.u.u.u.u.u.u.u.u.  8 B B B B 8 < ",
"> u g g g g q @ u.u.u.u.u.u.u.u.u.u.u.u.u.u.u.u.u.u.u.u.u.u.u.u.u.u.u.u.u.u.u.u.u.u.u.u.u.u.u.u.u.u.u.u.u.u.u.u.  %.%.%.%.%.y.< ",
"> y.%.%.%.%.%.@ u.u.u.u.u.u.u.u.u.u.u.u.u.u.u.u.u.u.u.u.u.u.u.u.u.u.u.u.u.u.u.u.u.u.u.u.u.u.u.u.u.u.u.u.u.u.u.u.  %.%.%.%.%.y.< ",
"> y.%.%.%.%.%.@ u.u.u.u.u.u.u.u.u.u.u.u.u.u.u.u.u.u.u.u.u.u.u.u.u.u.u.u.u.u.u.u.u.u.u.u.u.u.u.u.u.u.u.u.u.u.u.u.  %.%.%.%.%.y.< ",
"> y.%.%.%.%.%.@ u.u.u.u.u.u.u.u.u.u.u.u.u.u.u.u.u.u.u.u.u.u.u.u.u.u.u.u.u.u.u.u.u.u.u.u.u.u.u.u.u.u.u.u.u.u.u.u.  %.%.%.%.%.y.< ",
"> y.%.%.%.%.%.@ u.u.u.u.u.u.u.u.u.u.u.u.u.u.u.u.u.u.u.u.u.u.u.u.u.u.u.u.u.u.u.u.u.u.u.u.u.u.u.u.u.u.u.u.u.u.u.u.  O.%.%.%.%.y.< ",
"> y.%.%.%.%.%.@ u.u.u.u.u.u.u.u.u.u.u.u.u.u.u.u.u.u.u.u.u.u.u.u.u.u.u.u.u.u.u.u.u.u.u.u.u.u.u.u.u.u.u.u.u.u.u.u.  $.R %.%.%.y.< ",
"> n y.%.%.%.%.@ u.u.u.u.u.u.u.u.u.u.u.u.u.u.u.u.u.u.u.u.u.u.u.u.u.u.u.u.u.u.u.u.u.u.u.u.u.u.u.u.u.u.u.u.u.u.u.u.  %.2.Q ' | H < ",
"> U y.%.%.%._ @ u.u.u.u.u.u.u.u.u.u.u.u.u.u.u.u.u.u.u.u.u.u.u.u.u.u.u.u.u.u.u.u.u.u.u.u.u.u.u.u.u.u.u.u.u.u.u.u.  %.%.*.#.Z Z < ",
"> U n -.] G 6.@ u.u.u.u.u.u.u.u.u.u.u.u.u.u.u.u.u.u.u.u.u.u.u.u.u.u.u.u.u.u.u.u.u.u.u.u.u.u.u.u.u.u.u.u.u.u.u.u.  %.%.%.r.x M < ",
"> U U x =.;.%.@ u.u.u.u.u.u.u.u.u.u.u.u.u.u.u.u.u.u.u.u.u.u.u.u.u.u.u.u.u.u.u.u.u.u.u.u.u.u.u.u.u.u.u.u.u.u.u.u.  e.e.w.v s x < ",
"> F x x ..) ~ + u.u.u.u.u.u.u.u.u.u.u.u.u.u.u.u.u.u.u.u.u.u.u.u.u.u.u.u.u.u.u.u.u.u.u.u.u.u.u.u.u.u.u.u.u.u.u.u.  3 i e 6 7 a < ",
"# 2 2 3 @.@.o.+ u.u.u.u.u.u.u.u.u.u.u.u.u.u.u.u.u.u.u.u.u.u.u.u.u.u.u.u.u.u.u.u.u.u.u.u.u.u.u.u.u.u.u.u.u.u.u.u.  %.%.%.K ! o < ",
": y.w.w.%.%.%.@ u.u.u.u.u.u.u.u.u.u.u.u.u.u.u.u.u.u.u.u.u.u.u.u.u.u.u.u.u.u.u.u.u.u.u.u.u.u.u.u.u.u.u.u.u.u.u.u.  %.%.%.%.%.y.< ",
"$ y.%.%.%.%.%.O u.u.u.u.u.u.u.u.u.u.u.u.u.u.u.u.u.u.u.u.u.u.u.u.u.u.u.u.u.u.u.u.u.u.u.u.u.u.u.u.u.u.u.u.u.u.u.u.  %.%.%.%.%.y.< "
};
