/* XPM */
static char *ffddeaf7451f477fa07e3f737e07ee92[] = {
/* columns rows colors chars-per-pixel */
"64 64 74 1 ",
"  c #53321E",
". c #533522",
"X c #553D2D",
"o c #583E2D",
"O c #583F30",
"+ c #5F4E16",
"@ c #5E4B1B",
"# c #604F17",
"$ c #64551E",
"% c #696219",
"& c #6C6B19",
"* c #72751B",
"= c #5E4A26",
"- c #58402F",
"; c #554335",
": c #5B4435",
"> c #5C4739",
", c #5E4A3C",
"< c #665822",
"1 c #604C3C",
"2 c #695936",
"3 c #6C5D3A",
"4 c #757820",
"5 c #6D603D",
"6 c #5F4E42",
"7 c #5D5247",
"8 c #5D5349",
"9 c #655343",
"0 c #6A5747",
"q c #61564C",
"w c #695648",
"e c #63594D",
"r c #6D5C4B",
"t c #635B51",
"y c #665F58",
"u c #666057",
"i c #6B6255",
"p c #676159",
"a c #6A645C",
"s c #6D695E",
"d c #706151",
"f c #736659",
"g c #71685B",
"h c #756A5B",
"j c #776C5E",
"k c #78685A",
"l c #6E6961",
"z c #726E62",
"x c #736F66",
"c c #7C6D60",
"v c #737064",
"b c #747065",
"n c #7B7267",
"m c #757169",
"M c #777469",
"N c #7A7268",
"B c #7B746A",
"V c #7C756B",
"C c #78746C",
"Z c #7D766E",
"A c #7C796E",
"S c #7E7A72",
"D c #7F7C73",
"F c #7F7C74",
"G c #817D76",
"H c #838077",
"J c #838078",
"K c #85827A",
"L c #868579",
"P c #89877F",
"I c #8D8B81",
"U c #8E8D83",
"Y c #8F8E84",
"T c #908E85",
/* pixels */
"**2idddddddd0ddddddddddddddddddddddddd0dddddddddddd0ddddddddd3*4",
"*<ILLLLLLLLLdLLLLLLLLLLLLLLLLLLLLLLLLLdLLLLLLLLLLLLdLLLLLLLLLI<*",
"*<ILLfNBZSSSwSSSSSSSSSSSSSSSSSSSSSSSSS0SSSSSSSSSSSSwSSSZVnfLLI<*",
"*<ILL oo::::=:::::::::::::::::::::::::=::::::::::::=::::-o LLI<*",
"*<ILL@&***************************************************#IIT<*",
"*<kck@&***************************************************#djd<*",
"*<ILL@&***************************************************#LLI<*",
"*<ILL@&***************************************************#LLI<*",
"*<ILL@&***************************************************#LLI<*",
"*<ILL@&***************************************************#LLI<*",
"*<ILL@&***************************************************#LLI<*",
"*<ILL@&***************************************************#LLI<*",
"*$ILL@&***************************************************#IIT<*",
"*$kck@&***************************************************#djd<*",
"*$ILL@&***************************************************#LLI<*",
"*$ILL@&***************************************************#LLI<*",
"*$ILL@&***************************************************#LLI<*",
"*$ILL@&***************************************************#LLI<*",
"*$ILL@&***************************************************#LLI<*",
"*$ILL@&***************************************************#LLI<*",
"*$ILL@&***************************************************#IIT<*",
"*$kck@&***************************************************#djd<*",
"*$ILL@&***************************************************#LLI<*",
"*$ILL@&***************************************************#LLI<*",
"*$ILL@&***************************************************#LLI<*",
"*$ILL@&***************************************************#LLI<*",
"*$ILL@&***************************************************#LLI<*",
"*$ILL@&***************************************************#LLI<*",
"*$ILL@&***************************************************#IIT<*",
"*$kck@&***************************************************#djd<*",
"*$ILL@&***************************************************#LLI<*",
"*$ILL@&***************************************************#LLI<*",
"*$ULLrrrrddd5ddddddddddddddddddddddddd3dddddddddddd5dddddr0LLI<*",
"*$TLLLLLLLLLjLLLLLLLLLLLLLLLLLLLLLLLLLhLLLLLLLLLLLLcPLLLLLLLLY<*",
"*#KKKGGGGGGKfKGDDDDSSSSGHHKGDDDDSSSSGHfGGGGGGGGGGGHfGGGGGGFGGJ#*",
"*#Csssssllllwlllsssssssssslllsssssssss9ssssssssssss9sssaaaaaam#*",
"*#maaasssssswllssssssssaasllssssssssaa9aaaaaaaaaaaa9aaaaaaappx#*",
"*#xppaaaaaaa9ssaaaaaaaaaaassaaaaaaaaaa9aaaaaaaaaaaa9aaaaappppx#*",
"*+lppppppppa,aaaaaaaaaaaaaaaaaaaaaaaaa,pppaaaaaapaa,aapppppppl#*",
"*+lyuppppppp>ppppppppppppppppppppppppp,pppppppppppp,pppppppuys#*",
"*%qyyupppppp:ppppppppppppppppppppppppp>pppppppppppp,ppppppyyyq%*",
"**+,:::.XXXX>.XXXXXXXXXXXX.XXXXXXXXXXX>XXX.XXXXXXXX>XXXX.----#**",
"**#xsssX88888;777777777778;777777777777777;7778888888888Xqqeq#**",
"**#xsssX88888;777777777778;777777777777777;7778888888888Xeeqq#**",
"**#xsss:ttttt,tttttttttttt,ttttttttttttttt,ttttttttttttt:qqqe#**",
"**$vsss,>7777,eeeeeeqeettq,eeeeeeqeetttt76:qtttt7,77tt7,:qeet#**",
"**$vsss,aaaaaaaaaaaaeaaaaaaaaaaaaeaaaaaaaaaaaaaaa6aaaaaa,qeet#**",
"**$bsss1ppppppppppppqppppppppppppqpppppppppppppppqpppppp,eett#**",
"**$bsss,ppppppppppppqppppppppppppqppppppppppppppptpppppp1eett#**",
"**$bsss,pppppppppppp7pppppppppppp7ppppppppppppppptpppppp1ettt#**",
"**$Mbbb,,9tte:9eqqq9,6ttte:9eqqq9,6ttttytq9qyyyyttyyyyq6:ttii#**",
"**$iw99,yyyyy6yyyyyyyyyyyy6yyyyyyyyyyyyyyyqyyyyyyyyyyyyy1,,,,#**",
"**$Azzz,yyyyytyyyyyyyyyyyytyyyyypyyyyyyyyyqyyyyyyyyyyyyy,tttb#**",
"**$Axzz,yyyyytyyyyyyyyyyyytyyyyyyyyyyyyyyy7yyyyyyyyyyyyy,tttS#**",
"**$Abbv1>6qttqtttttqqqqqqqqtttttqqqqqqqq7,O7qqqqq66tteq,:tisS#**",
"**$Abbb,ppppppppppppqppppppppppppqppppppppppppppp6pppppp,iiMA#**",
"**$SMMM,pppyyyyyyyyyqyyyyyyyyyyyyqyyyyyyyyyyyyyyytyyyyyy,isMA#**",
"**$DMMM,ypyyyyyyyyyyqyyyyyyyyyyyyqyyyyyyyyyyyyyyytyyyyyy,pMMA#**",
"**$DBBB>yyyyyyyyyyyy6yyyyyyyyyyyy6yyyyyyyyyyyyyyy6yyyyyy,zMMA#**",
"**$HCCBi999919999999999999999999999999999999999999919999iMMMG#**",
"**$JCCBBMMMMiMMMMMMMMMMMMMMMMMMMMMMMMMiMMMMMMMMMMMMiMMMMMMMMH#**",
"**$PJHDDDDDDgDDDDDDDDDDDDDDDDDDDDDDDDDgDDDDDDDDDDDDgDDDDDDGHP#**",
"**#auuuuuuuueuuuuuuuuuuuuuuuuuuuuuuuuueuuuuuuuuuuuueuuuuuuuua#**",
"**%>::::::::.:::::::::::::::::::::::::.::::::::::::.::::::::>%**"
};
