/* XPM */
static char *b7642c94290d4704936b2117577bacd1[] = {
/* columns rows colors chars-per-pixel */
"64 64 130 2 ",
"   c #522F1A",
".  c #53321E",
"X  c #543523",
"o  c #563A27",
"O  c #563B29",
"+  c #583F2E",
"@  c #583F30",
"#  c #5D4716",
"$  c #5F4B1A",
"%  c #614F1F",
"&  c #625419",
"*  c #6A6319",
"=  c #6D6D1A",
"-  c #72751B",
";  c #59402F",
":  c #5E4929",
">  c #574232",
",  c #5B4434",
"<  c #574739",
"1  c #5B4638",
"2  c #5D4B3D",
"3  c #604D21",
"4  c #635121",
"5  c #695E21",
"6  c #624D3D",
"7  c #6B5D3A",
"8  c #777922",
"9  c #6E603E",
"0  c #5E4E42",
"q  c #5C5247",
"w  c #5E5449",
"e  c #604F41",
"r  c #625143",
"t  c #6C5D40",
"y  c #61554B",
"u  c #63594E",
"i  c #695A4A",
"p  c #725F4F",
"a  c #645C53",
"s  c #6C5D50",
"d  c #665F58",
"f  c #6F604F",
"g  c #706348",
"h  c #666057",
"j  c #6A6155",
"k  c #676159",
"l  c #69645C",
"z  c #6D695E",
"x  c #726354",
"c  c #786657",
"v  c #746758",
"b  c #706658",
"n  c #746858",
"m  c #756859",
"M  c #756959",
"N  c #74685A",
"B  c #75695A",
"V  c #76695A",
"C  c #766A5B",
"Z  c #73685C",
"A  c #756B5C",
"S  c #766B5C",
"D  c #776C5D",
"F  c #71695D",
"G  c #796C5F",
"H  c #6D6860",
"J  c #6D6960",
"K  c #6E6960",
"L  c #6E6A60",
"P  c #6E6A61",
"I  c #6F6A61",
"U  c #6F6B61",
"Y  c #6F6B60",
"T  c #766B60",
"R  c #726E62",
"E  c #726E63",
"W  c #726F63",
"Q  c #766C61",
"!  c #716D64",
"~  c #736F66",
"^  c #776E64",
"/  c #776F65",
"(  c #726E62",
")  c #747165",
"_  c #797164",
"`  c #7A7264",
"'  c #767269",
"]  c #767469",
"[  c #787268",
"{  c #797269",
"}  c #78746B",
"|  c #79756D",
" . c #7A746C",
".. c #7A756C",
"X. c #7A756D",
"o. c #7A766D",
"O. c #7B766D",
"+. c #7A756E",
"@. c #7A766E",
"#. c #7B766E",
"$. c #79766B",
"%. c #7B786F",
"&. c #7B796E",
"*. c #7C7870",
"=. c #7C7970",
"-. c #7D7970",
";. c #7D7971",
":. c #7D7A71",
">. c #7E7A72",
",. c #7E7B72",
"<. c #7F7B72",
"1. c #7F7B73",
"2. c #7D7B71",
"3. c #807D74",
"4. c #817D74",
"5. c #827F77",
"6. c #837F77",
"7. c #807E74",
"8. c #838177",
"9. c #868579",
"0. c #858379",
"q. c #88877B",
"w. c #8A887F",
"e. c #8C8A80",
"r. c #8D8C82",
"t. c #8E8D83",
"y. c #8E8D84",
"u. c #8C8A81",
"i. c #919086",
"p. c #929088",
/* pixels */
"- - - - t v B B S S B B B B i v v v v v v v v v v v v v v v v v v v v v i v v v v v v v v v v v v i v v v v v v v v v 7 - - - 8 ",
"- - - 4 e.9.9.9.9.9.9.9.9.9.D 9.9.9.9.9.9.9.9.9.9.9.9.9.9.9.9.9.9.9.9.9.f 9.9.9.9.9.9.9.9.9.9.9.9.f 9.9.9.9.9.9.9.9.9.y.5 - - - ",
"- - - 4 e.9.9.x Q ^ {  . . .i  . . . . . . . . . . . . . . . . . . . . .6  . . . . . . . . . . . .6  . . .{ ^ T i 9.9.y.5 - - - ",
"- - - 4 e.9.9.. o O + + ; ; : ; ; ; ; ; + ; ; ; ; ; ; ; ; + ; ; ; ; ; ; 3 ; ; ; ; ; ; ; ; ; ; ; ; 3 ; ; + + O o   9.9.y.5 - - - ",
"- - - 4 e.9.9.$ = - - - - - - - - - - - - - - - - - - - - - - - - - - - - - - - - - - - - - - - - - - - - - - - # y.y.p.5 - - - ",
"- - - 4 x c p & = - - - - - - - - - - - - - - - - - - - - - - - - - - - - - - - - - - - - - - - - - - - - - - - # S ` G 5 - - - ",
"- - - 4 e.9.9.& = - - - - - - - - - - - - - - - - - - - - - - - - - - - - - - - - - - - - - - - - - - - - - - - # 9.9.y.5 - - - ",
"- - - 4 e.9.9.& = - - - - - - - - - - - - - - - - - - - - - - - - - - - - - - - - - - - - - - - - - - - - - - - # 9.9.y.5 - - - ",
"- - - 4 e.9.9.% = - - - - - - - - - - - - - - - - - - - - - - - - - - - - - - - - - - - - - - - - - - - - - - - # 9.9.y.5 - - - ",
"- - - 4 e.9.9.% = - - - - - - - - - - - - - - - - - - - - - - - - - - - - - - - - - - - - - - - - - - - - - - - # 9.9.y.5 - - - ",
"- - - 4 e.9.9.& = - - - - - - - - - - - - - - - - - - - - - - - - - - - - - - - - - - - - - - - - - - - - - - - # 9.9.y.5 - - - ",
"- - - 4 e.9.9.& = - - - - - - - - - - - - - - - - - - - - - - - - - - - - - - - - - - - - - - - - - - - - - - - # 9.9.y.5 - - - ",
"- - - 4 e.9.9.& = - - - - - - - - - - - - - - - - - - - - - - - - - - - - - - - - - - - - - - - - - - - - - - - # y.y.p.5 - - - ",
"- - - 4 x c p & = - - - - - - - - - - - - - - - - - - - - - - - - - - - - - - - - - - - - - - - - - - - - - - - # S ` G 5 - - - ",
"- - - 4 e.9.9.& = - - - - - - - - - - - - - - - - - - - - - - - - - - - - - - - - - - - - - - - - - - - - - - - # 9.9.y.5 - - - ",
"- - - 4 e.9.9.& = - - - - - - - - - - - - - - - - - - - - - - - - - - - - - - - - - - - - - - - - - - - - - - - # 9.9.y.5 - - - ",
"- - - 4 e.9.9.& = - - - - - - - - - - - - - - - - - - - - - - - - - - - - - - - - - - - - - - - - - - - - - - - # 9.9.y.5 - - - ",
"- - - 3 e.9.9.& = - - - - - - - - - - - - - - - - - - - - - - - - - - - - - - - - - - - - - - - - - - - - - - - # 9.9.y.5 - - - ",
"- - - 3 e.9.9.& = - - - - - - - - - - - - - - - - - - - - - - - - - - - - - - - - - - - - - - - - - - - - - - - # 9.9.y.5 - - - ",
"- - - 3 e.9.9.& = - - - - - - - - - - - - - - - - - - - - - - - - - - - - - - - - - - - - - - - - - - - - - - - # 9.9.y.5 - - - ",
"- - - 4 e.9.9.& = - - - - - - - - - - - - - - - - - - - - - - - - - - - - - - - - - - - - - - - - - - - - - - - # y.y.p.5 - - - ",
"- - - 4 x c p & = - - - - - - - - - - - - - - - - - - - - - - - - - - - - - - - - - - - - - - - - - - - - - - - # S ` G 5 - - - ",
"- - - 4 e.9.9.& = - - - - - - - - - - - - - - - - - - - - - - - - - - - - - - - - - - - - - - - - - - - - - - - # 9.9.y.5 - - - ",
"- - - 4 e.9.9.& = - - - - - - - - - - - - - - - - - - - - - - - - - - - - - - - - - - - - - - - - - - - - - - - # 9.9.y.5 - - - ",
"- - - 4 e.9.9.& = - - - - - - - - - - - - - - - - - - - - - - - - - - - - - - - - - - - - - - - - - - - - - - - # 9.9.y.5 - - - ",
"- - - 4 e.9.9.& = - - - - - - - - - - - - - - - - - - - - - - - - - - - - - - - - - - - - - - - - - - - - - - - # 9.9.y.5 - - - ",
"- - - 4 e.9.9.& = - - - - - - - - - - - - - - - - - - - - - - - - - - - - - - - - - - - - - - - - - - - - - - - # 9.9.y.5 - - - ",
"- - - 4 e.9.9.& = - - - - - - - - - - - - - - - - - - - - - - - - - - - - - - - - - - - - - - - - - - - - - - - # 9.9.y.5 - - - ",
"- - - & e.9.9.% = - - - - - - - - - - - - - - - - - - - - - - - - - - - - - - - - - - - - - - - - - - - - - - - # y.y.p.5 - - - ",
"- - - 4 x c p % = - - - - - - - - - - - - - - - - - - - - - - - - - - - - - - - - - - - - - - - - - - - - - - - # S ` G 5 - - - ",
"- - - 4 e.9.9.% = - - - - - - - - - - - - - - - - - - - - - - - - - - - - - - - - - - - - - - - - - - - - - - - # 9.9.y.5 - - - ",
"- - - % e.9.9.$ = - - - - - - - - - - - - - - - - - - - - - - - - - - - - - - - - - - - - - - - - - - - - - - - # 9.9.y.5 - - - ",
"- - - % t.9.9.x x v v v v v g v v v v v v v v v v v B v v v v v v v v B 7 v v v v v v v v v v v v 9 B v v v v x x 9.9.y.5 - - - ",
"- - - % t.9.9.9.9.9.9.9.9.9.` 9.9.9.9.9.9.9.9.9.9.9.9.9.9.9.9.9.9.9.9.9.x 9.9.9.9.9.9.9.9.9.9.9.9.B q.9.9.9.9.9.9.9.9.i.5 - - - ",
"- - - # 3.3.3.>.>.>.>.>.>.3.Z 3.>.>.>.>.%.%.%.%.%.>.>.>.>.%.%.%.%.%.>.>.s >.>.>.>.>.>.>.>.>.>.>.>.s >.>.>.>.>.>.>.>.>.3.& - - - ",
"- - - # ' z z z z J J J J J i J J J J z z z z z z z z z z z z z z z z z r z z z z z z z z z z z z r z z z l l l l l l } & - - - ",
"- - - # ~ l l l z z z z J J i J J J z z z z z z z l l z z z z z z z l l r l l l l l l l l l l l z r z l l l l l l k k ' & - - - ",
"- - - # ~ k k l l l l l l l y z z l l l l l l l l l l l l l l l l l l l e l l l l l l l l l l l l r l l l l l l k k k ~ & - - - ",
"- - - # z k k k k k k k l l r l l l l l l l l l l l l l l l l l l l l l 1 k k k l l l l l l l l l 1 l l k k k k k k k ~ & - - - ",
"- - - # z d h k k k k k k k 2 k k k k k k k k k k k k k k k k k k k k k , k k k k k k k k k k k k 1 k k k k k k k h h J & - - - ",
"- - - * y d d k k k k k k k 2 k k k k k k k k k k k k k k k k k k k k k > k k k k k k k k k k k k , k k k k k k d d d e = - - - ",
"- - - - # r 2 2 2 o > > > > 2 O > > > > > > > > > > > > > > > > > > > > 2 > > > O > > > > > > > > 0 > > , , X , , , , & - - - - ",
"- - - - # W z z z , w w w w w < q q q q q q q q q q q q q q q q q q q q q q q q < q q q w w w w w w w w w w O y u u y & - - - - ",
"- - - - # W z z z , w w w w w < q q q q q q q q q q q q q q q q q q q q q q q q < q q q w w w w w w w w w w O u u u y & - - - - ",
"- - - - $ W z z z 2 a a a a a q a a a a a a a a a a a a a a a a a a a a a a a a 0 a a a a a a a a a a a a a + y y y i & - - - - ",
"- - - - $ W z z z 1 , 0 0 0 0 2 y y y y y y y y y u u u y y y y y y u u u u 0 2 > y u u u u 0 1 0 0 u u 0 , > u u u a & - - - - ",
"- - - - $ ~ z z z r l l l l l l l l l l l l y k k k k l l l l y k k k k k k k k k k k k k k k 2 k k k k k k , u u i a & - - - - ",
"- - - - $ ) z z z r k k k k k k k k k k k k y k k k k k k k k y k k k k k k k k k k k k k k k y k k k k k k , u u u a & - - - - ",
"- - - - $ ) z z z r k k k k k k k k k k k k y k k k k k k k k y k k k k k k k k k k k k k k k u k k k k k k , u u a a & - - - - ",
"- - - - $ ) J Y J r k k k k k k k k k k k k 0 k k k k k k k k 0 k k k k k k k k k k k k k k k u k k k k k k , u a a a & - - - - ",
"- - - - $ } ' ' ' 6 r i a a a , y a a u u y r y d d d a u u y r y d d d d h a a y a d d d d d d d d d d i r 1 a j j j & - - - - ",
"- - - - % j i i i r d d d d d 0 d d d d d d d d d d d d d d d d d d d d d d d d y d d d d d d d d d d d d d 1 0 e r r & - - - - ",
"- - - - % } W W W r d d d d d u d d d d d d d d d d d d d d d d d d d d d d d d y d d d d d d d d d d d d d , a a a } & - - - - ",
"- - - - %  .) ) ) r d d d d d u d d d d d d d d d d d d d d d d d d d d d d d d y d d d d d d d d d d d d d , a a a ,.& - - - - ",
"- - - - % %.' ' ' 1 > 0 y u u y u u u u u y y y y y y y u u y y y y y y y y 0 1 @ 0 y y y y q 2 0 u u u q , 1 j j W >.& - - - - ",
"- - - - % %.' ' ' r k k k k k k k k k k k k y k k k k k k k k y k k k k k k k k k k k k k k k 2 k k k k k k , j j ] >.& - - - - ",
"- - - - % >.] ] ] r d d d d d d d d d d d d y d d d d d d d d y d d d d d d d d d d d d d d d u d d d d d d , j W ] >.& - - - - ",
"- - - - % >.] ] ] r d d d d d d d d d d d d q d d d d d d d d q d d d d d d d d d d d d d d d u d d d d d d , k ] ] >.& - - - - ",
"- - - - % >.} } } 2 d d d d d d d d d d d d 2 d d d d d d d d 2 d d d d d d d d d d d d d d d 2 d d d d d d , W ] ] >.& - - - - ",
"- - - - % 3. . .} b i i i i 6 i i i i i i i i i i i i i i i i i i i i i r i i i i i i i i i i i i 6 i i i i Z ] ] ] 8.& - - - - ",
"- - - - % 8. . .} } ] ] ] ] z ] ] ] ] ] ] ] ] ] ] ] ] ] ] ] ] ] ] ] ] ] j ] ] ] ] ] ] ] ] ] ] ] ] j ] ] ] ] ] ] ] ] 0.& - - - - ",
"- - - - % w.9.0.3.3.3.3.3.3.Q 3.3.3.3.3.3.3.3.3.3.3.3.3.3.3.3.3.3.3.3.3.x 3.3.3.3.3.3.3.3.3.3.3.3.x 3.3.3.3.3.3.8.9.e.& - - - - ",
"- - - - # l h h h h h h h h i h h h h h h h h h h h h h h h h h h h h h i h h h h h h h h h h h h i h h h h h h h h l & - - - - ",
"- - - - * > + + + + + + + + X + + + + + + + + + + + + + + + + + + + + + . + + + + + + + + + + + + . + + + + + + ; ; > = - - - - "
};
