/* XPM */
static char *out[] = {
/* columns rows colors chars-per-pixel */
"64 64 148 2 ",
"   c #060505",
".  c #090606",
"X  c #0A0806",
"o  c #160D08",
"O  c #190F09",
"+  c #1B110A",
"@  c #26140B",
"#  c #351E10",
"$  c #432310",
"%  c #4F2913",
"&  c #512D16",
"*  c #512E18",
"=  c #563915",
"-  c #54321C",
";  c #58331B",
":  c #573F18",
">  c #5C381F",
",  c #4D2F20",
"<  c #4E3122",
"1  c #4E3529",
"2  c #553622",
"3  c #583721",
"4  c #573924",
"5  c #593A24",
"6  c #553B2A",
"7  c #593D2A",
"8  c #543E33",
"9  c #603E23",
"0  c #594914",
"q  c #5D4E1D",
"w  c #5E5015",
"e  c #5E521C",
"r  c #625517",
"t  c #625418",
"y  c #615B1B",
"u  c #626216",
"i  c #63621C",
"p  c #6B641C",
"a  c #6B6C19",
"s  c #6F711B",
"d  c #73751D",
"f  c #75781F",
"g  c #5C4722",
"h  c #5C4A23",
"j  c #57402F",
"k  c #5C412E",
"l  c #5E4D28",
"z  c #554034",
"x  c #5B4332",
"c  c #5F4835",
"v  c #56453C",
"b  c #5B4739",
"n  c #57483F",
"m  c #5E4A3C",
"M  c #634126",
"N  c #684326",
"B  c #614E26",
"V  c #64452B",
"C  c #69472A",
"Z  c #67492D",
"A  c #6D4C2F",
"S  c #625120",
"D  c #614634",
"F  c #614936",
"G  c #6B4E32",
"H  c #644D3B",
"J  c #714F31",
"K  c #6F5235",
"L  c #655D35",
"P  c #66513F",
"I  c #69523B",
"U  c #6A5F38",
"Y  c #715234",
"T  c #765739",
"R  c #755A3C",
"E  c #795C3C",
"W  c #626124",
"Q  c #6B6524",
"!  c #6B6B25",
"~  c #6C662C",
"^  c #737622",
"/  c #7A7D25",
"(  c #73752A",
")  c #6F6D3E",
"_  c #747631",
"`  c #7A7D34",
"'  c #73743C",
"]  c #797A3C",
"[  c #574A41",
"{  c #5C4D42",
"}  c #5A4E48",
"|  c #5C5247",
" . c #5D534B",
".. c #604E41",
"X. c #645344",
"o. c #685342",
"O. c #6B5A46",
"+. c #62554B",
"@. c #62584E",
"#. c #6C5B4C",
"$. c #7D5F40",
"%. c #705E4F",
"&. c #605750",
"*. c #645D54",
"=. c #6C5F50",
"-. c #665F58",
";. c #6C634F",
":. c #7E6243",
">. c #78604A",
",. c #767643",
"<. c #75744C",
"1. c #797848",
"2. c #666057",
"3. c #6B6255",
"4. c #676159",
"5. c #6A655C",
"6. c #6D685F",
"7. c #726455",
"8. c #786551",
"9. c #7C6852",
"0. c #71675B",
"q. c #716B5E",
"w. c #77765F",
"e. c #78755A",
"r. c #6E6960",
"t. c #726E62",
"y. c #747165",
"u. c #7B7366",
"i. c #767469",
"p. c #7A766B",
"a. c #7D7B6E",
"s. c #7D7A71",
"d. c #806446",
"f. c #846B4B",
"g. c #8A7252",
"h. c #887661",
"j. c #81776C",
"k. c #81786C",
"l. c #817E74",
"z. c #9A8464",
"x. c #848276",
"c. c #868579",
"v. c #89867D",
"b. c #8A887E",
"n. c #8D8C83",
"m. c #918E87",
"M. c #918F88",
"N. c #929089",
/* pixels */
"d H H H H P H H H H H H I F H H P m P P H H P H H H H H P P H H P H I P H H H H m P H P H H H H P H P H P H H H H H H H H H H d ",
"I c.c.c.c.c.c.c.c.c.c.c.c.* c.c.c.c.c.c.c.c.c.c.c.c.c.c.c.c.c.c.;.c.c.c.c.c.c.c.x.x.x.c.c.c.c.x.c.c.I c.c.x.c.c.c.c.c.c.c.c.c.O.",
"o.c.c.c.n.n.n.n.b.n.n.n.n.O.n.n.n.n.n.n.b.b.n.b.n.b.b.b.n.b.n.n.3.b.M.b.n.b.b.n.n.n.c.n.b.n.b.n.n.n.3.m.n.n.n.n.n.b.n.n.c.c.c.%.",
"o.c.c.n.m r.r.r.q.6.6.6.r.7 t.q.r.r.6.t.r.r.r.r.6.6.r.q.6.6.6.6.m 6.6.6.6.6.6.q.6.r.r.6.6.r.6.6.6.6.F 5.6.6.6.6.6.6.6.X.m.c.c.O.",
"o.c.c.b.H r.6.6.6.6.6.6.r.k t.r.6.6.6.6.6.6.6.6.6.6.6.6.6.6.6.6.m 6.6.6.6.6.5.6.6.6.6.r.r.6.6.6.6.6.F 6.6.6.6.5.5.r.5.X.m.c.c.O.",
"o.b.v.m.m @.r.6.6.5.6.6.5.8 6.r.6.6.6.6.6.6.6.6.6.6.6.5.6.6.5.6.m 5.5.5.6.6.5.5.6.6.5.6.6.5.6.6.6.5.b 5.6.5.6.5.5.5.5.X.m.c.v.%.",
"5 O.+.k b &.r.6.5.6.6.5.6.k 6.6.6.6.6.6.5.6.6.6.6.5.6.6.4.6.5.6.P 6.5.5.5.5.5.5.6.5.6.6.5.5.6.5.5.6.b 5.5.5.5.5.5.6.6.m 7 O.O.2 ",
"o.c.c.m.x  .5.5.5.5.5.5.5.8 5.5.6.4.6.4.6.4.4.6.5.5.5.5.5.5.5.4.x 5.5.5.5.5.5.5.4.5.5.5.5.5.5.5.5.5.j 5.5.5.5.5.5.5.4.m n.c.c.#.",
"O.c.c.n.j  .2.4.4.5.4.4.5.j 4.5.4.4.5.5.4.5.4.5.5.5.4.5.4.5.4.5.z 5.5.2.5.4.5.5.5.5.4.5.4.5.4.4.5.2.6 2.4.4.4.5.5.4.5.b n.c.c.#.",
"P c.c.b.j  . .2.-.-.4.4.4.x 4.4.4.4.4.4.4.4.4.4.2.4.4.5.4.4.5.4.j 5.5.4.4.4.4.4.4.4.4.4.4.4.4.5.5.5.6 5.5.5.4.4.5.4.4.b n.c.v.#.",
"o.c.c.b.j | | *.*.*.*.4.4.% 4.4.2.2.4.2.4.4.4.4.4.4.4.4.4.4.5.5.j 4.2.4.4.4.4.2.4.5.4.4.4.4.4.4.2.2.j 2.4.4.4.4.4.4.4.z n.c.c.#.",
"o.c.c.c., , < < 2 2 * * % % % % = $ & & & % % % % % % % % % % % x % % % % % % % $ $ % % % % % % % % n % % % % % % % % % m.c.c.#.",
"o.c.x.c.j n | | | | | |  .| | | | | n | | | | | | | | | | | | | | | 6 o                       4 z  .| | | | g | | | | 6 n.c.c.#.",
"o.x.x.v.j | | | | | | | | | | | | | n | | |  .| | | | | | | | | | - ;                         R K n |  . .| 1 | | | | 6 m.c.c.#.",
"X.x.x.c.z | | | |  .| | |  .| | | | n | | |  .| |  .| |  .| | | 2 G =                         T >.g.m  . .| 6  .| | | 6 m.c.c.#.",
"o.v.v.v.z | | |  .@. .*. . .*. .@.@. .@.&.&.@.@. .@.@. .&. .@.m Z G -                         R :.z.l *. . .z  .@.@.+.7 m.b.b.;.",
"2 X.X.7 8 } } | *.-.-.-.4.4.4.4.4.-.*.-.4.4.4.4.4.4.4.2.4.4.2.x d.* ;       .                 T Y z.> 4.=.5.6 4.4.4.5.8 3 X.X.- ",
"o.c.x.b.6 { { [ 8 @.*.=.*.-.=.2.*.@.*.=.=.-.-.-.-.-.{ -.-.=.*.X.M F &                         N >.E G  .@.@.@.&.=.-.=.8 m.c.c.#.",
"o.c.c.n.6  . .| 8 -.4.4.2.4.4.4.2.4.4.4.4.4.2.4.5.-.| 4.4.4.4.H 8.* ; .                     X J G h.k 4.4.4.4.4.5.5.-.8 m.c.c.#.",
"o.c.c.n.6  .|  .} 5.4.4.4.4.4.4.4.4.4.4.4.4.4.4.-.5.{ 4.4.4.4.{ I C *                         J K 9.4 5.4.4.4.4.-.-.4.x n.c.c.%.",
"..c.c.n.6 }  . .[ -.5.4.5.-.-.-.4.4.4.4.4.4.4.4.4.4.{ 4.4.4.4.m 9 Z ; .               .       J E J 2 5.2.4.4.4.4.4.-.x m.c.c.#.",
"o.c.c.n.6 }  . .[ -.-.-.-.-.-.-.4.4.4.4.4.4.4.4.4.4.b 4.4.4.4...T Z ; .                       J :.g.k 5.4.4.4.4.4.4.4.x n.c.c.#.",
"o.c.c.n.6 v [ v 8 [ +.} +.+.+.+.+.{ b b +.| ..{ { b 6 m +.+.{ X.R Z k @                     * G E g.$.m { { | { | &.+.7 m.c.c.#.",
"o.c.c.n.6  . . .&.&.5.r.-.5.r.-.5.5.7 5.4.5.4.5.4.5.4.5.4.4.5.x Y M j @                     * G E g.7 5.5.5.| 6.5.5.4.x n.c.c.%.",
"o.c.c.n.6 } }  . .&.-.-.-.-.-.-.-.-.{ -.-.-.-.-.-.-.-.-.-.-.-.x Y M 7 @                     & V T g.5 4.-.-.{ -.-.-.-.x m.c.c.#.",
"o.c.c.n.8 }  .+.&.&.*.-.-.-.-.-.-.-.+.-.-.-.-.-.-.-.-.-.-.-.-.b K V -                       . C T g.7 4.-.-.+.-.-.-.-.7 m.c.c.#.",
"I m.m.v.6 } }  . .&.&.-.-.-.-.-.-.-. .-.-.-.-.-.-.-.-.-.-.-.-.b K 9 &                         C Y f.7 4.-.-.} -.-.-.-.x v.v.v.#.",
"F a.u.j.6 } }  . .} +.-.-.-.-.-.-.-.+.-.-.-.-.-.*.-.-.-.-.-.-.x K g * .                       9 C f.5 -.*.-.6 =.-.-.-.8 k.k.u.o.",
"o.c.c.n.2 v v 1 1 8 [ } &.+.+.&.&.@.&.@.*.@.&.*.@.+.{ +.+.+...H G ; &                         ; o.f.G { m { m { +.+.+.6 m.c.c.#.",
"o.c.c.n.6 } } } 8  . .&.-.-.-.-.-.-.-.-.-.=.-.-.-.*.{ -.-.-.-.m ; k %                         > C & - 2.-.-.-.-.-.-.-.x m.x.c.#.",
"o.c.c.n.6 } } } [  . .&.-.-.-.-.-.-.-.-.-.-.-.-.-.-.+.-.-.-.-.{ #.& 5 O                     @ V 5 8.7 4.-.-.-.-.-.-.-.8 m.c.c.%.",
"o.c.c.n.6 } } } [ }  . .-.-.-.-.-.-.-.-.-.-.-.-.-.-.{ -.-.-.-.m V > 7 @                     $ 5 N I 7 4.-.-.-.-.-.-.-.7 m.c.c.#.",
"X.c.c.n.6 } } } 8  . .| -.-.-.-.-.-.-.-.-.-.-.4.-.-.x -.-.-.-.b 9 & x @                     $ P : C 4 5.-.-.-.-.-.-.-.8 m.c.c.#.",
"o.c.c.n.2 8 8 8 1 8 8 8 v m { m m m { m [ m m { ..{ 7 ..{ { { 6 A & 4 # + + + + + + + + + + $ H = :.3 { m { { ........7 m.x.c.#.",
"o.c.c.n.6  .-.-.-.-.-.*.5.t.5.p.i.i.i.i.i.i.i.i.i.i.i.i.i.i.i.s.& H & i.i.i.i.i.i.i.i.i.i.i.i.k O.$.u.i.i.i.i.i.i.i.i.b m.c.c.%.",
"O.n.n.M.7  .=.2.*.-.=.*.5.i.t.i.i.i.i.i.i.i.i.i.i.i.i.i.i.i.p.p.2 x X.i.i.i.i.i.i.i.i.i.i.i.i.b %.D u.i.i.i.i.i.i.i.i.F m.n.b.%.",
"7 #.#.H 6 @.4.2.-.-.4.=.6.i.t.p.p.p.p.p.i.a.p.p.p.p.a.p.a.p.p.s.- j 6.i.p.p.p.p.p.p.p.p.i.p.i.m %.I u.p.p.p.p.p.a.p.p.H D #.#.7 ",
"o.x.c.n.6 [ &.&.*.&.*.*.-.6.3.6.r.5.4.r.6.5.5.6.6.5.r.5.5.5.5.r.- * 5.6.5.r.5.r.6.5.6.5.6.6.5.2.D H 0.5.5.r.6.6.5.6.5.x n.c.c.#.",
"o.c.c.n.4 n  . .&. .&.&.&.2.&.4.4.4.-.-.2.2.2.2.4.4.-.-.-.2.4.5.- % 4.2.2.4.4.4.4.4.2.2.4.4.2.2.7 I 3.-.4.-.-.2.2.2.2.j m.c.c.#.",
"o.c.c.n.- & - * * * & * & & * % % % % % % % % % % % % * * * * * * * * * % * * % & & & % % & % % & & & & & * & * * * & & m.c.c.#.",
"o.c.c.n.x i.i.i.t.q.t.t.t.6.t.t.x w r u a & r S t t i.s.s.s.s.s.s.s.s.i.i.i.p.i.p.i.i.l a s s s g ! ! ! Y r.y.r.t.y.t.b m.c.c.#.",
"o.c.c.n.F s.s.s.i.i.i.i.i.i.i.i.l u f f f k ) _ ( s -.=.4.4.-.4.4.2.4.@.&.&.&.&.*.@.@.e a d ^ ^ { i.p.<.Q 5.-.-.4.-.4.x m.c.c.#.",
"o.c.c.n.x 4.-.4.*.*.*.&.*.*.*.*.h d f ( ^ x p.p.p.a &.-.4.-.-.4.2.2.2.&.&.*.*.&.*.*.&.e s ^ ^ i.+.p.p.i.<.4 8 6 6 6 7 * m.c.c.#.",
"o.x.c.n.4 F b b m { { } H b z x y ^ d ,.p.m p.p.p.p.#.&.+.O.+.X.P m m  .O.@.O.O.+.| e s ^ ^ p.p.+.p.p.p.p.p.s.i.p.p.i.b m.c.c.#.",
"I c.c.n.x t.0.7.i.i.i.p.i.p.a.,.f ^ ^ p.p.m p.p.p.p.p.i.p.p.i.i.y.6.3.i.i.i.i.i.i.p._ s ^ ^ p.s.O.p.p.p.p.p.i.s.p.p.p.F n.c.c.#.",
"o.c.c.m.x i.q.3.i.i.i.i.i.p.i.w.f d d s.s.| c.s.s.s.s.c.s.l.x.l.a.x.s.l.x.a.s.a.s.s.a.` ` ` x.x.@.i.i.i.y.y.i.r.y.y.t.F m.x.c.#.",
"H l.l.j.D s.l.a.p.s.p.p.p.i.i.i.( 1.1.l.s.H r.r.r.r.r.r.r.r.6.5.4.2.@.4.5.5.4.5.5.5.4.u ;.6.6.r.b r.r.r.6.6.6.6.5.r.5.7 j.l.l.o.",
"o.l.x.v.8 4.=.*.-.r.4.4.r.4.5.5.u S -.5.r.8 r.r.r.r.4.r.r.r.5.5.3.2.;.5.4.4.4.5.4.4.W u i i 6.5.8 5.r.r.6.6.6.r.5.5.5.7 v.x.l.O.",
"o.c.c.m.7 4.-.*.4.4.3.5.5.2.5.W u e q H ..- m H m P X.*.b ..X.m c z l c m P P P 3.@.u e O.X.O.O.o...H X.O.X.H o.+.O.X.7 n.c.c.#.",
"o.c.x.m.2 6 - - 3 k k h k *.O.y k p.i.i.i.i.i.p.i.i.i.H a.i.i.i.i.i.i.x.a.a.a.a.k +.x i.i.i.i.p.p.i.p.i.i.i.H p.i.i.i.F n.v.c.#.",
"I c.x.m.x p.i.y.k.a.x.k.a.j j 7.i.i.i.i.i.i.i.i.i.i.i.#.s.i.i.i.i.i.p.a.a.a.a.a.P 6.p.i.i.i.i.i.p.i.i.i.p.i.O.a.i.i.i.b m.c.c.#.",
"o.c.c.n.x i.i.p.x.a.a.a.a.P a.a.a.a.a.a.s.a.a.a.l.a.a.7.s.a.a.a.a.a.w.a.x.x.x.a.;.a.a.a.a.a.k.a.a.a.l.k.a.x.@.s.p.p.i.m n.c.c.#.",
"o.c.c.n.F c.l.c.x.c.x.x.c.o.w.6.t.q.t.t.q.y.t.y.y.w.t.=.t.5.4.2.2.2.2.3.7.6.q.q.#.6.w.6.6.w.r.6.q.t.t.t.t.q.X.r.2.-.-.8 m.c.c.#.",
"o.c.c.n.7 *.*.*.;.7.7.6.q.P q.6.w.q.t.q.q.q.q.t.6.6.t.*.t.4.-.-.*.*.*.3.3.6.q.q.F o.o.o.X.o.o.X.c F c c c c ;.x x x j - n.c.v.#.",
"o.c.c.n.6 X.+.X.;.@.;.2.3.c F H F c F F c : : 4 5 5 : O.4 2 4 2 ; = = k b c c c y.q.y.q.t.y.t.~ d p.p.p.p.i.i.i.i.i.i.c m.c.c.#.",
"O.m.m.M.x 5.Q p 7.7.7.6.7.y.y.y.y.y.i.i.L d e.i.p.p.i.i.i.i.i.i.i.d s y.w.y.y.y.y.y.y.i.i.i.i.~ d ^ ^ <.p.i.i.i.i.i.i.F m.b.n.;.",
"j 7.7.#.k i.^ d y.y.y.w.y.t.t.i.y.i.i.y.L d d d ( p.i.i.i.i.i.i.' d d i.p.p.a.p.a.p.p.s.p.s.a.~ d ^ ] ] s.a.p.a.p.p.p.B O.7.7.x ",
"o.c.c.n.c s d d s.x.c.v.c.c.c.c.c.c.l.n.U / / x.c.l.c.c.l.c.l.c.x.x.x.-.2.-.2.4.4.5.5.4.5.4.2.e u u *.*.*.4.4.4.-.-.-.8 m.c.c.#.",
"o.c.c.n.k r.6.r.4.4.2.2.5.-.-.5.5.5.4.4.; i L 2.*.*.-.-.4.-.-.-.*.&.*.4.4.4.4.4.5.5.5.5.5.4.2.0 W *.*.*.*.*.2.4.-.-.*.7 m.c.c.#.",
"o.c.c.n.4 | X.| +.+.+.+.@.@.+.+.O.@.@.O.= e  .| | | +.+.+.+.+.+.*.| | * & - - D - ; 5 5 2 2 2 2 6 j P j 4 2 X.+.+.+.| 6 n.c.c.%.",
"o.c.c.v.u.u.p.u.u.u.j.u.j.H u.j.u.a.u.u.k.u.u.j.u.u.a.u.u.u.k.u.;.u.u.j.u.j.u.a.u.k.u.u.u.a.u.u.p.p.;.u.u.k.u.k.u.j.u.u.c.c.c.#.",
"o.c.c.c.c.x.c.c.v.c.c.c.c.o.c.c.c.c.c.c.c.c.c.c.v.c.c.c.c.c.c.c.7.c.c.c.c.c.c.c.c.c.v.c.c.c.v.c.c.c.;.c.c.c.c.c.c.c.c.c.c.c.c.#.",
"F m.m.m.M.M.M.M.m.m.m.m.m.X.m.m.m.m.m.m.m.m.m.m.m.m.N.m.m.m.m.m.7.m.m.m.m.m.m.m.m.m.m.m.m.m.M.m.M.n.#.m.m.m.M.M.M.M.M.M.M.M.M.%.",
"x t.r.6.6.5.5.5.5.3.4.4.4.* 4.4.4.4.4.4.4.3.4.4.4.4.4.4.4.4.4.4.7 4.4.4.4.4.2.2.4.4.4.4.4.2.4.4.4.2.> 2.4.4.4.4.4.5.-.5.r.5.r.H "
};
