/* XPM */
static char *_27d5fd11ae54ee6afa507373a13e5bc[] = {
/* columns rows colors chars-per-pixel */
"64 64 92 1 ",
"  c #72751B",
". c #6C5D40",
"X c #746759",
"o c #75695A",
"O c #766A5B",
"+ c #766B5C",
"@ c #756959",
"# c #746858",
"$ c #6F5F4F",
"% c #746758",
"& c #6C5B4A",
"* c #6A5B38",
"= c #777922",
"- c #635222",
"; c #8C8A80",
": c #868579",
"> c #776C5D",
", c #6F604F",
"< c #8E8D84",
"1 c #695E21",
"2 c #645323",
"3 c #706153",
"4 c #766C61",
"5 c #776E64",
"6 c #797269",
"7 c #7A746C",
"8 c #7A756D",
"9 c #7A766D",
"0 c #6B5A4D",
"q c #7A756E",
"w c #79756D",
"e c #7A756C",
"r c #634C3C",
"t c #7B766D",
"y c #7B766E",
"u c #7A766E",
"i c #634C3D",
"p c #787268",
"a c #776F65",
"s c #766B60",
"d c #6F5C4D",
"f c #53321E",
"g c #563A27",
"h c #573B29",
"j c #583D2C",
"k c #593F2E",
"l c #59402F",
"z c #5E4929",
"x c #593F2F",
"c c #59402E",
"v c #604D21",
"b c #5A402F",
"n c #573C2A",
"m c #563927",
"M c #522F1A",
"N c #5E4E19",
"B c #6D6D1A",
"V c #5D4716",
"C c #929088",
"Z c #746153",
"A c #786657",
"S c #725F4F",
"D c #60501B",
"F c #756B5C",
"G c #797164",
"H c #796C5F",
"J c #625020",
"K c #7A6D5F",
"L c #796D5E",
"P c #756858",
"I c #563F18",
"U c #676318",
"Y c #574319",
"T c #686519",
"R c #5A471A",
"E c #6A6719",
"W c #635121",
"Q c #918F87",
"! c #564018",
"~ c #624F1F",
"^ c #5C491A",
"/ c #6B6919",
"( c #715E4E",
") c #726150",
"_ c #6D5948",
"` c #5C4A1A",
"' c #6B6A19",
"] c #736255",
"[ c #786D60",
"{ c #705D4F",
"} c #5D4C1A",
"| c #6C6B19",
/* pixels */
"    .XoO++OO@#$%%%%%%%%%%%%%%%%%%%%%&%%%%%%%%%%%%&%%%%%%%%%*   =",
"   -;:::::::::>:::::::::::::::::::::,::::::::::::,:::::::::<1   ",
"   2;::34567890888q8w8eeeee88w8eeeeereee888tyyuqqi88epasd::<1   ",
"   2;::fghjkllzlllllxllllclllxllllclvlllllbbbbbllvllkjnmM::<1   ",
"   2;::NB                                               V<<C1   ",
"   2ZASDB                                               VFGH1   ",
"   2;::DB                                               V::<1   ",
"   2;::DB                                               V::<1   ",
"   2;::DB                                               V::<1   ",
"   2;::DB                                               V::<1   ",
"   2;::DB                                               V::<1   ",
"   2;::DB                                               V::<1   ",
"   J;::DB                                               V<<C1   ",
"   2KLPIU                                               VFGH1   ",
"   2;::IU                                               V::<1   ",
"   2;::IU                                               V::<1   ",
"   2;::YT                                               V::<1   ",
"   2;::RE                                               V::<1   ",
"   2;::RE                                               V::<1   ",
"   W;::RE                                               V::<1   ",
"   JQ<<RE                                               V::<1   ",
"   JKLPRE                                               V::<1   ",
"   J;::RE                                               V::<1   ",
"   J;::RE                                               V::<1   ",
"   J;::RE                                               V::<1   ",
"   J;::RE                                               V<<C1   ",
"   J;::RE                                               VFGH1   ",
"   J;::RE                                               V::<1   ",
"   JQ<<RE                                               V::<1   ",
"   JKLPIU                                               V::<1   ",
"   J;::IU                                               V::<1   ",
"   J;::IU                                               V::<1   ",
"   J;::IU                                               V::<1   ",
"   J;::IU                                               V<<C1   ",
"   J;::IU                                               VFGH1   ",
"   J;::IU                                               V::<1   ",
"   JQ<<IU                                               V::<1   ",
"   JKLP!U                                               V::<1   ",
"   J;::IU                                               V::<1   ",
"   ~;::^/                                               V::<1   ",
"   J;::DB                                               V::<1   ",
"   J;::DB                                               V<<C1   ",
"   J;::DB                                               VFGH1   ",
"   J;::DB                                               V::<1   ",
"   -()_`'                                               V::<1   ",
"   2;::RE                                               V::<1   ",
"   2;::RE                                               V::<1   ",
"   2;::RE                                               V][{1   ",
"   2;::RE                                               V::<1   ",
"   2;::RE                                               V::<1   ",
"   2;::RE                                               V::<1   ",
"   J;::RE                                               V::<1   ",
"   JZASRE                                               V::<1   ",
"   J;::RE                                               V::<1   ",
"   J;::RE                                               V::<1   ",
"   J;::}|                                               V][{1   ",
"   J;::DB                                               V::<1   ",
"   J;::DB                                               V::<1   ",
"   J;::DB                                               V::<1   ",
"   J;::DB                                               V::<1   ",
"   JZASDB                                               V::<1   ",
"   J;::DB                                               V::<1   ",
"   J;::DB                                               V::<1   ",
"   J;::DB                                               V][{1   "
};
