/* XPM */
static char *_ef463b155e94c5e85f2e95ccd5d9c00[] = {
/* columns rows colors chars-per-pixel */
"64 64 125 2 ",
"   c #553D2D",
".  c #6F721B",
"X  c #71741B",
"o  c #78771E",
"O  c #76781E",
"+  c #7A791F",
"@  c #5E4D27",
"#  c #5F4E2D",
"$  c #574132",
"%  c #594435",
"&  c #574739",
"*  c #5A4739",
"=  c #57493C",
"-  c #5B4A3C",
";  c #604B3C",
":  c #625636",
">  c #685B36",
",  c #63563C",
"<  c #665A3E",
"1  c #6A5E3F",
"2  c #6C622F",
"3  c #737522",
"4  c #767824",
"5  c #7C7A22",
"6  c #73752B",
"7  c #76792B",
"8  c #797C2C",
"9  c #747632",
"0  c #767834",
"q  c #7B7C34",
"w  c #74753C",
"e  c #77783B",
"r  c #787A3D",
"t  c #5D4E42",
"y  c #5C5146",
"u  c #5E554B",
"i  c #604F42",
"p  c #625445",
"a  c #62554B",
"s  c #63584E",
"d  c #6A5C4E",
"f  c #655D55",
"g  c #695F52",
"h  c #655F58",
"j  c #6E6346",
"k  c #6D614F",
"l  c #71644B",
"z  c #72684F",
"x  c #757644",
"c  c #777943",
"v  c #797A45",
"b  c #76764B",
"n  c #78774B",
"m  c #7A7B4C",
"M  c #666057",
"N  c #6A6156",
"B  c #676159",
"V  c #6A655C",
"C  c #6B685F",
"Z  c #736751",
"A  c #756B56",
"S  c #71675C",
"D  c #786F5D",
"F  c #767554",
"G  c #787755",
"H  c #7B7B54",
"J  c #777659",
"K  c #78725C",
"L  c #7C7B5B",
"P  c #6D6960",
"I  c #736D63",
"U  c #757165",
"Y  c #797462",
"T  c #7D7C64",
"R  c #76756A",
"E  c #79756C",
"W  c #7A7968",
"Q  c #7B7A6B",
"!  c #7C7A68",
"~  c #7C7B6A",
"^  c #7E7D69",
"/  c #7F7E68",
"(  c #7B7A6E",
")  c #7C7B6D",
"_  c #7F7E6F",
"`  c #7B7A70",
"'  c #7C7B70",
"]  c #7F7E71",
"[  c #7F7E74",
"{  c #807A22",
"}  c #837E23",
"|  c #827B24",
" . c #837E24",
".. c #857E25",
"X. c #897E28",
"o. c #8D7F2A",
"O. c #807F5F",
"+. c #807F6B",
"@. c #807C6E",
"#. c #807F6E",
"$. c #807F73",
"%. c #807F74",
"&. c #7F803B",
"*. c #7D803D",
"=. c #7F8143",
"-. c #8B8128",
";. c #90832A",
":. c #82823D",
">. c #838341",
",. c #868445",
"<. c #808349",
"1. c #838449",
"2. c #848551",
"3. c #808058",
"4. c #828264",
"5. c #84836B",
"6. c #81806F",
"7. c #828173",
"8. c #858472",
"9. c #828176",
"0. c #858475",
"q. c #87867A",
"w. c #88877C",
"e. c #8A8A7E",
"r. c #8C8C81",
/* pixels */
"Y J w W W G 9 b ~ G n T e e G W ~ c L T 9 3 b W W 6 X X X X X X X X X X X X X X X X X X X X X X O X X X X X X X X X X X X X X X ",
"( ~ H $.] / H %.] T m L +.L / ] %.H T _ _ m $.$.L X X X X X X X X X X X X X X X X X X O X X + ;.X X X X X X X X X X X X X X X X ",
"( ~ m ] ] / L ] ] T L 9.9.L T ] [ G b b _ m ] ] / 6 X O 4 X X X X X X X X X X X X X X 5 -.X O X X X X 3 X X X X X X O X X X X X ",
"G n 3 e G m e G G c c H H r 3 c G e n w v 0 G G G 6 X X <.q O X X X X X X X 7 4 O X O o.+ X X X X X 4 :.X X X X X X X X X X X X ",
"X X X X X X X X X X X X X X X X X X X X X X X X X X X X 3 :.4 X X X X X X X 3 >.4 X X o + X X X X X X X X X X q q X X X X X X X ",
"X X X X X X O X X X X X X X X X X X X X X X X X . X X X X X X X X X X X X X X X X X X X X X X } O X X X X q =.3 3 X X X X X X X ",
"X X X X X X X X X X X X X X X X X X X X X X X X X X X X X X X X X X X X X X X X X X X X X X X X X X X X X 3 X X X X X X X X 3 X ",
"X X X X X X X X X X X X X X X X X X X X X X X X X X X X X X X X X X X X X X X X X X X X X X X X X X X X X X X X X X X X X e / T ",
"X X X X X X X X O X X X X X X X X X X X X X X X X X X X X X X X X X X X X X X X X X X X X X X X X X X X X X X X X X X X X v ] _ ",
"X X X O 5 X X X X O X X 3 X X X X X X X X X 3 X X X X X X X X X X X X X X X X X X X X X X X X X X X X X X X X X X X X X X v %._ ",
"3 X X X X X X } { X X 8 >.7 X X X X X X X 8 :.q X X X 3 3 X X X 3 X X 3 X X X 3 3 X X 3 3 X X 3 X X 3 3 3 X 3 3 3 X X X X 9 J J ",
":.4 X X X X X 5 X.O X X X O X X X X X X X X 7 *.X X e _ _ / v L b L n _ L 0 H 6.6.m L _ _ m T _ G 9 W W W c 8.8.8.6 X X X e W W ",
"X X X X | 5 X  .O X X X X X X X X X X X X X X X X X 3 L ] _ m ] L n H ] ] T O.7.#.n / ] %.H / ] ] n ~ ( ) m 0.0.q.7 X X X v ` W ",
"X X X O } X X X X X X X X X X X X X X X X X X X X X 6 / %._ w ~ %.+.L %.%.T T L L H / 9.[ H / $.%.n _ _ ' m q.q.w.7 X X X v ] ) ",
"X X X X X X X X X X X X X X X X O X X X X X X X X X 6 L L w X 9 G b w J J w 9 e L w c L w 3 b J F 9 F F F 9 L L L 3 X X X 9 J F ",
"X X X X X X X X X X X X X X X X X X X X X X X X X X r 0.8.4.v W W L G _ _ m H _ _ n 4.0.0.H L W W m / _ _ v / _ _ 6 X X X e _ / ",
"X X X X 2.&.3 X X X X X X X X X X X X X X X X X X X v q.O.9 e J W T H ] %.T L ] ] H 5.q.q.3.~ ( ) n _ _ $.m $.] $.6 X X X v $._ ",
"X X X O 8 3 4 X X X X X X 7 X X X X X X X X X X X X 9 G L 0.3 X c G G $.n 9 n / $.H 5.q.q.m x T ) n ] ] $.m $.$.%.6 X X X v %.] ",
"X X X X X X X X X X X X X 3 ,.3 X X X X X X X X X X X X e w X X X X 6 w X X X 3 w 6 0 c w X X 4 w 6 w w w 3 w w w X X X X 9 L G ",
"X X X X X X X X X X X X X X 4 O X X X X X X X X X X X X X X X X X X X X X X X X X X X X X X X X X X X X X X X X X X X X X m q.0.",
"X X X X X 7 7 X X X X X X X X X X X X X X X 5 ... X X X X X X X O X X X X X X X X X X X X X X X X X X X X X X X X X X X X v 5.0.",
"X X X X X 4 8 X X X X X X X X X X X X X X X X O X X X X X X X X X X X X X X X X X X X X X X X X X X X X X X X X X X X X X X q 5.",
"X X X X X X X X X X X X X X X X X X X X X X X X X X X X X X X X X X X X X X X X X X 9 e e X X X X X X X X 3 e e e X X X X X X m ",
"X X X X X X X X X X X X X X X X X X X X X X X X X X X X X X X X X X X X X X X X X X / ] ] v X X X X X X X 9 $.] $.7 X X X e L _ ",
"X X X X X O X X X X X X X X X X X X X X X X X X X X X X X X X X X X X X X X X X X X / ] ] n X X X X X X X 9 $.] $.6 X X X v %._ ",
"X X X X X X X X X X X X X X X X X X X X X X X X X X X X X X X X X X X X X X X O X X n _ %.m X X X X X X X 6 ] ~ w X X X X c %._ ",
"X X X X X X X 4 q X X X X X X X X X X X X X X X X X 3 v v e X X X X X X X X e c v 6 X 3 6 3 X X X X X X X X 6 3 X X X X X 3 F F ",
"X X X X X X X ,.1.X X X X X + X.5 O X X X X X X X X r $.] #.3 X X X X X X X L ] ] H X X X X X X X X X X X X X X X X X X X c ( W ",
"X X X X X X X O 4 X X X X X X 5 5 X X X X X X X X X r ] ] #.3 X X X X X X X L $.] H X X X X X X X X X X O X X X X X X X X v ( W ",
"X X X X X X X X X X X X X X X X X X X X X X X X X X 0 / / G X X X X X X X X 0 F ~ n X X X X X X X X X X X X X X X X X X X w W T ",
"X X X X X X X X X X X X X X X X X X X X X X X X X X . 3 3 X X X X X X X X X X X 3 3 X X X X r c 4 3 w c c 3 X X X X X X X 6 n m ",
"D D D D D D A 2 1 k A K D D D D D D D D D D K D j K D D D D D D D D K D D D D K z Z K K D D D D D D D K K D D K D l A D D D D D ",
"w.w.w.w.w.w.w.D U q.w.w.w.w.w.w.w.w.w.w.w.w.r.w.Y r.w.w.w.w.w.w.w.w.w.w.w.w.w.r.#.#.r.w.w.e.e.e.w.w.w.w.w.w.w.9.U S q.w.w.w.w.w.",
"R R R R E E E N I E E E E E E E R R R R R E E R N E E E E E R R E E R R R R E E S S E E E E E E R R R R R R E U S g U E E E R R ",
"C C C C C C C a V C C C C C C C C C C C C C C V a C C C C C C C C C C C C C C C s f C C C C C C C C C C C C C P I d V C C C C C ",
"C C C C C C C a V C C C C C C C C C C C C C C V a C C C C C C C C C C C C C C C s f C C C C C C C C C C C C C C C s V C C C C C ",
"V C V V C C V p N C C V V V V V V V V C C C C V p C V C V V V V V C C V B V V C s s C V V V V V V V C C C C C C V a N V C V V V ",
"V V V V V V V i f V V V V V V V V V V V V V V N - V V V V V V V V V V V V f M V a a C V V V V V V V V V V V V V V i f V V V V V ",
"V B B V V B B t f B B B B B B B B B B V V V V f - V B B B B B B B B B B B V f f = a V B B B B B B B B B B V V B B t f B B B B B ",
"f f f f f f f - s f f f f f f f f f f f f f f * $ s f f f f f f f f f f f y % $   - f f f f f f f f f f f f f f f - s f f f f f ",
"$ $ $ $ $ $ $ % $ $     $ $ $ $ $ $ $ $ $ $ $ * = $ $         $ $ $ $ $   $ * * - *   $     $ $ $ $ $ $ $ $ $ $ $ % $ $     $ $ ",
"y y y y y y y y y y t % y y y y y y y y y y y y y y y = & t t t y y y y y y y y y y y y $ t y y y y y y y y y y y y y y t $ y y ",
"y y y y y y y y y y t & y y y y y y y y y y y y y y y = = y y y y y y y y y y y y y y y % t y y y y y y y y y y y y y y t % y y ",
"u u u u u u u u u u y = u u u u u u u u u u u u u u u t t u u u u u u u u u u u u u u u = y u u u u u u u u u u u u u u y * u u ",
"f f f f f f f f f s y * s f f f f f f f f f f f f f s t - f f f f f f f f f f f f f s s * y f f f f f f f f f f f f f s p * s f ",
"f f s f f f f f f f s a f f f f f f f s V V V V V V f f f V V V V V V f f f f f f f f s a s f f f f f f a f f f f f f f s a f f ",
"B B s B B B B B B B B B B B B B B B f f B B B B B B B V V B B B B B V f f B B B B B B B B B B B B B B B s B B B B B B B B B B B ",
"M f s M B B B B B B B B B B B B f f f s B B f f f B B B B B B B f B B s f B B B B B B B B B B B M B B f s M B B B B B B B B B B ",
"M f a f B B B B B B B B B B B B B B f a B B B B B B B B B B B B f f B s f B B B B B B B B B B B B B B f a M B B B B B B B B B B ",
"a p - a f f f s a p p p a s s s s a t - s f f f f f s s s s f f s s a - t f f f f f f s s s f f f s s p - a s a a a a a s s s f ",
"f f f f f f f f f s - t f f f f f f f f f B B B B B f f s f B B f f f f f f f f f B M h s f B B h f f f f f s t a y a f f s f f ",
"f f f f f f f f f f s a f f f f f f f h f f f f f f f f f f f f f f f f f f f f f f f h s f f f f f f f f f f a t y f f f s f f ",
"h h f f f f f f f f f a f f f f f h f f f f f f f f h f f f f f f f h f f f f f f f f h s f f f f f h f f f f f f f f f f s h f ",
"f f f f f f f f f f f y f f f f f f f f f f f f f f f a a f f f f f f f f f f f f f f h t f f f f f f f f f f f f f f f f t h f ",
"f a a s f f f f f p - - p s s s f s a a s f s s s s t - - a s s f f s a s f f f s s s t - t s s s f s a - t s s s s s a - - y s ",
"V f s B B B B B B B B B B B B B B B f s B B B B B B B B B B B B B B V s s B B B B B B B B B B B B B B B t s B B B B B B B B B B ",
"f f s f f f f f f f f f f f f f f f f f f f f f f f f f f f f f f f h a * f f s f f f f f f f f f f f f s h f f f f f f f f f f ",
"h f a f f f h h h h h h h h h h h h f a h h h f f h h h h h h h h f B a = t - s f h h h h h h h h h h f a f f h f f h h h h h h ",
"a a - a a a a f s a s a a a a a a a p - a a a a f a a s a a a a a a s - * * $ p s s a a a a a a a a a a - a a a a f s a a a a a ",
"d d d d d d d p d d d d d d d d d d d d d d d a ; d d d d d d d d d d d d d d d a a d d d d d d d d d d d d d d d a d d d d d d ",
"R R R R R R R V U R R R R R R R R R R R R U I p ; R R R R R R R R R R R R R R R S S R R R R R R R R R R R R R R R V U R R R R R ",
"E E E E E E E S R E E E E E E E E E E E E N a * ; ( E E E E E E E E E E E E E E I I ( E E E E E E E E E E E E E E S U E E E E E ",
"C C C C V C C g V C C C C C C C C V V V V B u $ % C C C C C C C V V V V V V V V g g C V V V V V V V V V V V V C C f V V V V V V ",
", p p p , , p - , , p p p , p p , , : : : , @ > j , p , , p p , : : : : : : : : # : p , , , : , , , : : : : < d , # : : : : : : "
};
