/* XPM */
static char *_94a1981cb0d421187452aa3b6ca6fce[] = {
/* columns rows colors chars-per-pixel */
"64 64 106 2 ",
"   c #553D14",
".  c #533623",
"X  c #533826",
"o  c #553D2D",
"O  c #5A4716",
"+  c #5A4718",
"@  c #5F4C1B",
"#  c #5E5116",
"$  c #604D1C",
"%  c #635617",
"&  c #655B17",
"*  c #645718",
"=  c #665D1A",
"-  c #685F19",
";  c #646017",
":  c #646118",
">  c #686119",
",  c #6E6D19",
"<  c #6E721A",
"1  c #72751B",
"2  c #76791E",
"3  c #5A422F",
"4  c #564133",
"5  c #5B4434",
"6  c #5C4837",
"7  c #57473B",
"8  c #5A4639",
"9  c #57493C",
"0  c #5D4A3B",
"q  c #645423",
"w  c #64542D",
"e  c #675828",
"r  c #614736",
"t  c #634A37",
"y  c #634D3C",
"u  c #68533E",
"i  c #6D5B3F",
"p  c #6E7128",
"a  c #787B21",
"s  c #6E613D",
"d  c #5D4E42",
"f  c #5C5146",
"g  c #5C5349",
"h  c #604F41",
"j  c #615245",
"k  c #6B5444",
"l  c #6D5A46",
"z  c #61554A",
"x  c #6D5748",
"c  c #63594E",
"v  c #6E5A4B",
"b  c #705D4D",
"n  c #645C54",
"m  c #685F54",
"M  c #655F58",
"N  c #6F614A",
"B  c #706447",
"V  c #72654D",
"C  c #7E7A45",
"Z  c #666056",
"A  c #6B6356",
"S  c #676159",
"D  c #6A645B",
"F  c #6D695E",
"G  c #736653",
"H  c #756856",
"J  c #73675A",
"K  c #746B5D",
"L  c #796C5D",
"P  c #6E6A61",
"I  c #736E62",
"U  c #7A6E61",
"Y  c #747166",
"T  c #7A7163",
"R  c #7D7062",
"E  c #7B7567",
"W  c #7D7667",
"Q  c #767269",
"!  c #7D7768",
"~  c #79756C",
"^  c #7E7B74",
"/  c #80786B",
"(  c #837A6E",
")  c #817D70",
"_  c #857F73",
"`  c #807E76",
"'  c #838275",
"]  c #848276",
"[  c #858476",
"{  c #858478",
"}  c #878479",
"|  c #89867B",
" . c #89877D",
".. c #87887B",
"X. c #88887A",
"o. c #88887C",
"O. c #8A8D7F",
"+. c #8C8A80",
"@. c #8A8C80",
"#. c #8D8D83",
"$. c #8D8E84",
"%. c #908F86",
"&. c #8E9086",
"*. c #909086",
"=. c #909088",
"-. c #92948C",
/* pixels */
"v #.] o.G + : 1 1 1 1 1 1 1 1 1 1 1 1 1 1 1 1 1 1 1 1 1 1 1 1 1 1 1 1 1 1 1 1 1 1 1 1 1 1 1 1 1 1 1 1 1 1 1 1 1 1 1 * V o.] #.v ",
"v #.] o.G + : 1 1 1 1 1 1 1 1 1 1 1 1 1 1 1 1 1 1 1 1 1 1 1 1 1 1 1 1 1 1 1 1 1 1 1 1 1 1 1 1 1 1 1 1 1 1 1 1 1 1 1 * V o.] #.v ",
"v #.] o.G + : 1 1 1 1 1 1 1 1 1 1 1 1 1 1 1 1 1 1 1 1 1 1 1 1 1 1 1 1 2 1 1 1 1 1 1 1 1 1 1 1 1 1 1 1 1 1 1 1 1 1 1 * V o.] #.v ",
"v #.] o.G + : 1 1 1 1 1 1 1 1 1 1 1 1 1 1 1 1 1 1 1 1 1 1 1 1 1 1 1 1 2 1 1 1 1 1 1 1 1 1 1 1 1 1 1 1 1 1 1 1 1 1 1 * V o.] #.v ",
"v #.' o.G + : 1 1 2 1 1 1 1 1 1 1 1 1 1 1 1 1 1 1 1 1 1 1 1 1 1 1 1 1 1 1 1 1 1 1 1 1 1 1 1 1 1 1 1 1 1 1 1 1 1 1 1 * G o.] $.v ",
"v $.] o.G + : 1 2 2 1 < a 2 1 1 1 1 1 1 1 1 1 1 1 1 1 1 1 1 1 1 1 1 1 1 1 1 1 1 1 1 1 1 1 1 1 1 1 1 1 1 1 1 1 1 1 1 * G @.} $.v ",
"k #.} o.H + : 1 2 1 < 1 1 1 1 1 1 1 1 1 1 1 1 1 1 1 1 1 1 1 1 1 1 1 1 1 1 1 1 1 1 1 1 1 1 1 1 1 1 1 1 1 1 1 1 1 1 1 * l _ ) ( y ",
"r L L L u + ; 1 < 1 1 < < 1 1 1 1 1 1 1 1 1 1 1 1 2 2 2 2 1 1 1 1 1 1 1 1 1 1 1 1 1 1 1 1 1 1 1 1 1 1 1 1 1 1 1 1 1 * u ! E ! y ",
"k | ) ] G + : 1 1 1 1 1 1 1 1 1 1 1 1 1 1 1 1 1 1 < 1 1 1 1 1 1 1 1 1 1 1 1 1 1 1 1 1 1 2 1 1 1 1 1 1 1 1 1 1 1 1 1 * G o.] $.v ",
"x $.] o.G + : 1 1 1 1 1 1 1 1 1 1 1 1 1 1 1 1 1 1 1 < < 1 1 1 1 1 1 1 1 1 1 1 1 1 1 2 2 1 < 1 1 1 1 1 1 1 1 1 1 1 1 * V o.' #.v ",
"x $.' o.G + : 1 1 1 1 1 1 1 1 1 1 1 1 1 1 1 1 1 1 1 1 1 1 1 1 1 1 1 1 1 1 1 1 1 1 1 1 1 < < 1 1 1 1 1 1 1 1 1 1 1 1 * V o.] #.v ",
"x $.] o.G + : 1 1 1 1 1 1 1 1 1 1 1 1 1 1 1 1 1 1 1 1 1 1 1 1 1 1 1 1 1 1 1 1 1 1 1 1 < 1 1 1 1 1 1 1 1 1 1 1 1 1 1 * V o.] #.v ",
"x $.] o.G + : 1 1 1 1 1 1 1 1 1 1 1 1 1 1 1 1 1 1 1 1 1 1 1 1 1 1 1 1 1 1 1 1 1 1 1 1 1 1 1 1 1 1 1 2 1 2 1 1 1 1 1 * V o.] #.v ",
"x $.] o.G + : 1 1 1 1 1 1 1 1 1 1 1 1 1 1 1 1 1 1 1 1 1 1 1 1 1 1 1 1 1 1 1 1 1 1 1 1 1 1 1 1 1 1 1 a 2 a 1 1 1 1 1 * V o.] #.v ",
"x $.] o.G + : 1 1 1 1 1 1 1 1 1 1 1 1 1 1 1 1 1 1 1 1 1 1 1 1 1 1 1 1 1 1 1 1 1 1 1 1 1 1 1 1 1 1 1 < 1 < 1 1 1 1 1 * V o.' #.v ",
"x #.' ..G + : 1 1 1 1 1 1 1 1 1 1 1 1 1 1 1 1 1 1 1 1 1 1 1 1 1 1 1 1 1 1 1 1 1 1 1 1 1 1 1 1 1 1 1 1 1 1 1 1 1 1 1 * G o.] $.v ",
"v =.} @.H + : 1 1 1 1 1 1 1 1 1 1 1 1 1 1 1 1 1 1 1 1 1 1 1 1 1 1 1 1 1 1 1 1 1 1 1 1 1 1 1 1 1 1 1 1 1 1 1 1 1 1 1 * V o.} +.x ",
"y _ ( _ b + : 1 1 1 1 1 1 1 1 1 1 1 1 1 1 1 1 1 1 1 1 1 1 1 1 1 1 1 1 1 1 1 1 1 1 1 1 1 1 1 1 1 1 1 1 1 1 1 1 1 1 1 * t U I J r ",
"t L L L u + ; 1 1 1 1 1 1 1 1 1 1 1 1 1 1 1 1 1 1 1 1 1 1 1 1 1 1 1 1 1 1 1 1 1 1 1 1 1 1 1 1 1 1 1 1 1 1 1 1 1 1 1 * N } )  .x ",
"v $.] o.H + : 1 1 1 1 1 1 1 1 1 1 1 1 1 1 1 1 1 1 1 1 1 1 1 1 1 1 1 2 1 1 1 1 1 1 1 1 1 1 1 1 1 1 1 1 1 1 1 1 1 1 1 * G o.] #.v ",
"x #.' ..G + : 1 1 1 1 1 1 1 1 1 1 1 1 2 1 1 1 1 1 1 1 1 1 1 1 1 1 1 2 2 2 2 1 1 1 1 1 1 1 1 1 1 1 1 1 1 1 1 1 1 1 1 * V o.] #.v ",
"x $.] o.G + : 1 1 1 1 1 1 1 1 1 1 a 2 1 2 1 1 1 1 1 1 1 1 1 1 1 1 2 1 < 1 < 1 1 1 1 1 1 1 1 1 1 1 1 1 1 1 1 1 1 1 1 % V o.] #.v ",
"x $.] o.G + : 1 1 1 1 1 1 1 1 1 1 1 1 1 1 < 1 1 1 1 1 1 1 1 1 1 1 1 1 1 1 1 1 1 1 1 1 1 1 1 1 1 1 1 1 1 1 1 1 1 1 1 * V o.] #.v ",
"x $.] o.G + : 1 1 1 1 1 1 1 1 1 1 < < 1 < < 1 1 1 1 1 1 1 1 1 1 1 1 1 1 1 1 1 1 1 2 1 2 1 1 1 1 1 1 1 1 1 1 1 1 1 1 * G o.] #.v ",
"x $.] o.G + : 1 1 1 1 1 1 1 1 1 1 1 1 1 1 1 1 1 1 1 1 1 1 1 1 1 1 1 1 1 1 1 1 1 1 < 2 1 1 1 1 1 1 1 1 1 1 1 1 1 1 1 * G o.] #.v ",
"x $.] o.G + : 1 1 1 1 1 1 1 1 1 1 1 1 1 1 1 1 1 1 1 1 1 1 1 1 1 1 1 1 1 1 1 1 1 1 < 1 1 1 1 1 1 1 1 1 1 1 1 1 1 1 1 % G o.' #.v ",
"x #.' } G + : 1 1 1 1 1 1 1 1 1 1 1 1 1 1 1 1 1 1 1 1 1 1 1 1 1 1 1 1 1 1 1 1 1 1 1 1 1 1 1 1 1 1 1 1 1 1 1 1 1 1 1 % H #.} =.b ",
"v -.o.&.L + : 1 1 1 1 1 1 1 1 1 1 1 1 1 1 1 1 1 1 1 1 1 1 1 1 1 1 1 1 1 1 1 1 1 1 1 1 1 1 1 1 1 1 1 1 2 2 1 1 1 1 1 % l ] _ _ k ",
"t U U R k + : 1 1 1 1 1 1 1 1 1 1 1 1 1 1 1 1 1 1 1 1 1 1 1 1 1 1 1 1 1 1 1 1 1 1 1 1 1 1 1 1 1 1 1 1 2 1 1 1 1 1 1 * t T I L t ",
"y / T W l + : 1 1 2 2 1 1 2 1 1 1 1 1 1 1 1 1 1 1 1 1 1 1 1 1 1 1 1 1 1 1 1 1 1 1 1 1 1 1 1 1 1 1 1 1 < 1 1 1 1 1 1 * G O.} &.b ",
"v =.} @.L + : 1 1 1 < 1 2 1 1 1 1 1 1 1 1 1 1 1 1 1 1 1 1 1 1 1 1 1 1 1 1 1 1 1 1 1 1 1 1 1 1 1 1 1 1 1 1 1 1 1 1 1 * V o.' #.v ",
"k $.] o.G   # = = = = = = > , - > - - - - - - - - - - - - - - > , > - - - - - - - - - - - - - > = , > = - - - - - & O V o.] #.v ",
"k $.] } ! v V V V V V V V B s V V V V V V V V V V V V V V V V B s B V V V V V V V V V V V V V V V s B V V V V V V N v E } ] $.v ",
"k *.] } } } } } } } } } } ) L } [ } [ [ } } } } } } } } } [ } ( L ] [ } } } } } } } } } } } } [ X.L ) } [ } } } } [ } } } ] $.b ",
"y *.+.#.+. . . . . . . .+.] L +.o. .| |  . . . . . . . . . .o.] U  .o.o.o.o.o.o.o.o.o.o.o.o.o. .+.U ] +. . .o. . . . .o.o.o.%.k ",
"r ` ~ ~ ~ ~ ~ ~ ~ ~ ~ ~ ~ I v ~ ~ ~ Q Q Q Q Q Q Q Q Q Q Q Q ~ I m Q ~ Q Q Q Q Q Q Q Q Q Q Q Q Q ~ v I ~ Q Q Q Q Q Q Q Q Q I ^ t ",
"t ~ D D D D F F F F F F P D j P F F F F F D D D D D D D D D F Z z D D D D D D D D D D D D D D D D j Z D D D D D D D D D D S Q r ",
"6 Q D D D D F F F F F F P D j P F P F F F F D D F F F F D D D Z z D D D D D D D D D D D D D D D D j m D D D D D D D D D D D Q 6 ",
"6 Q S D D D D D D D D D F Z j F F F F D D D D D D D D D D D D Z z D D D D D D D D D D D D D D D D j M D D D D D D D D D D Z I 6 ",
"6 I Z S D D D D D D D D D n 0 D D D D D D D D D D D D D D D D n j D D D D D D D D D D D D D D D D j M D D D D D D D D D D Z I 5 ",
"4 P M S S D D D D D D D D n 0 D D D D D D D D D D D D D D D D n 0 D D D D D D D D D D D D D D D D 0 n D D D D D D D D D S M P 5 ",
"4 P M Z Z S S S S S S S D c 8 S S S D D D D D D D D D D D D D c 0 Z S S D D D D S D D D D D D D D 0 n D D D D D S Z Z Z Z M P 5 ",
"3 F M M M Z S S S S S S S c 5 S S S S S S S S S S S S S S S S c 0 M S S S S S S S S S S S S S Z D 0 n D S S S S S S Z Z Z M D 3 ",
"= t f f f f j f j j j j z d 4 z g g g g z z z z j j z z z z z d 5 j z j z z z z z z z z j j z j z 5 d z z z z j z j j j j j t = ",
", @ 5 6 5 5 5 . o o o o o 4 7 . X o o o o o o o o o o o o o o 4 8 o o o X X o o o o o o o o o o o 7 4 o o o o o . o o o 3 o $ , ",
", * A F F F D 6 f g g g g g g 4 d f f f f f f f f f f f f f f f f f f f 7 7 f g g g g g g g g g g g g g g g g d 4 z c c c f @ , ",
", q A F D D D 6 d g g g g g g 4 d f f f f f f f f f f f f f f f f f f f 9 9 f f f f f f f f f f f f f g g g g d 4 z c z c f $ , ",
", q A F F F D 6 d g g g g g g 4 d g f f f f f f f f f f f f f f f f f f 9 9 f f f f f f f f f f f f f g g g g d 4 z c z c f @ , ",
", q A F F F D 0 c n n n n n c 9 g n n n c c c c c c c n n c c c n n c c d d n n n n n c c c n n n n n c n n n z 4 j z z c f $ , ",
", q A F F F D j j z c c c c c d c M M M n n n n n n n M n M n n M M c c 0 0 n M M M M M n c z c c c n M n c z d 5 z c c c j @ , ",
", q A F F F D j j z c c c c c c n M M M M n n n n z c M M M M M M M c c z z c M M M M M n z 0 d c c M M n c z 0 0 z c c c j @ , ",
", q A F F F D 0 m S D S S S S S S S S S S S S S S c M S S S S S S S S S S S S S S S S S S S z z S S S S S Z S m 5 z c c n j @ , ",
", q A F F F D y m S S S S S S S S S S S S S S S S c M S S S S S S S S S S Z S S S S S S S Z c n S S S S S S S m 5 z c c n j @ , ",
", q G F F F F y M S S S S S S S S S S S S S S S Z c M S S S S S S S S S S S S Z S S M M Z S n n S S S S S S S m 5 z c c n j @ , ",
", q A F F F D 0 Z S S S S S S S S S S S S S S S S z M S S S S S S S S S S S S S S S S S S S n M S S S S S S S Z 5 z c c n j @ , ",
", q A F F F F j h d f n c c c z z z c c c c c z j 5 d c n n n n n n c c c c c n n n n n n n c c n n n n c z f 0 0 c c c c j @ , ",
", q A I I I K j j j z n n n n j 5 z n n c c c z j j z n n n n M M M n n z z n n M M M M M M M M M M M M n c z y 0 c n n m j $ , ",
", q x x j j y 3 M S S S M M M n d M S S S Z Z S M M M M M M M M S S S S n n S S M M M M M S S S S S S S M S S Z o 0 0 0 0 6 @ , ",
", e K I I I F y M M M M M M M n c M M M M M M M M M M M M M M M M M M M c c M M M M M M M M M M M M M M M M M M 6 c n n n v $ , ",
", e K I I I K y M M M M M M M M n M M M M M M M M M M M M M M M M M M M n n M M M M M M M M M M M M M M M M M M 6 c n n Z J q , ",
", e K Y I I K t Z S S M M M M M n M M M M M M M M M M M M M M M M M M S c c M M M M M M M M M S M M M M M M S Z 6 c n n F K e , ",
"1 e I Y Y Y I j j f z c n n n n c n n n n n n c c c c n n n n n n c c f 8 8 z n c c n n n c z j c n n n n c z h 0 n n Z Y I i p ",
", e I Y Y Y Y z 0 h j c n M M M M n n n M M M n c f c n n n n n n n c j j h z n n n n n n c 0 0 c M n n M c j 0 0 n m F Q K w C ",
", e I Q Y Y I y D D D D S S S S S S S S S S S S S c M S S S S S S S S D D D D S S S S S S S c n S S S S S S D D 6 n Z I ~ K q , "
};
