/* XPM */
static char *d5d0d12d5a1e4a3a925df7182d66475f[] = {
/* columns rows colors chars-per-pixel */
"64 64 98 2 ",
"   c #563E2D",
".  c #583F2E",
"X  c #695F1E",
"o  c #6A631D",
"O  c #6D6A1C",
"+  c #6F731B",
"@  c #72751B",
"#  c #75781E",
"$  c #79781E",
"%  c #5A422C",
"&  c #5F4D2C",
"*  c #564234",
"=  c #5A4536",
"-  c #5F4D32",
";  c #564538",
":  c #5A4739",
">  c #57483B",
",  c #5C4B3D",
"<  c #604E2A",
"1  c #614E36",
"2  c #6A6221",
"3  c #6D6A21",
"4  c #747623",
"5  c #767925",
"6  c #7D7A22",
"7  c #76792A",
"8  c #7B7C2E",
"9  c #777A32",
"0  c #7B7D33",
"q  c #7B7D39",
"w  c #5D4E42",
"e  c #5C5146",
"r  c #5E5449",
"t  c #635346",
"y  c #64564A",
"u  c #62584F",
"i  c #6D5D4C",
"p  c #645C54",
"a  c #6A5F53",
"s  c #655F58",
"d  c #6F6440",
"f  c #716644",
"g  c #72674C",
"h  c #73694B",
"j  c #666057",
"k  c #686156",
"l  c #676159",
"z  c #6A655C",
"x  c #6C685E",
"c  c #716252",
"v  c #726653",
"b  c #706356",
"n  c #746955",
"m  c #706558",
"M  c #72685C",
"N  c #726A5C",
"B  c #6B6860",
"V  c #756D61",
"C  c #746E62",
"Z  c #777166",
"A  c #797062",
"S  c #7B7365",
"D  c #77776C",
"F  c #787268",
"G  c #79746A",
"H  c #7D7769",
"J  c #7B766C",
"K  c #7B766E",
"L  c #7E796B",
"P  c #7B786E",
"I  c #7C786F",
"U  c #7D7A71",
"Y  c #7E7B72",
"T  c #837E22",
"R  c #8D7F2A",
"E  c #817B6E",
"W  c #807C6F",
"Q  c #817E75",
"!  c #8B8128",
"~  c #8E8229",
"^  c #81813E",
"/  c #808245",
"(  c #868444",
")  c #838449",
"_  c #87854A",
"`  c #81834E",
"'  c #888648",
"]  c #8C8956",
"[  c #898958",
"{  c #8E8B58",
"}  c #838174",
"|  c #858275",
" . c #868478",
".. c #88867A",
"X. c #89897C",
"o. c #89897F",
"O. c #8A8B80",
"+. c #8B8D81",
/* pixels */
"c c c c c c c c c i i c c c c c c c c c c c c c c c c i c c c c c c c c c c c c c c c c i i c c c c c c c c c c c i i c c c c c ",
"o.o.o.o.o.o.o.o.O.} A +.o.o.o.o.o.o.o.o.o.o.o.o.o.o.o.A  .o.o.o.o.o.o.o.o.o.o.O.o.o.o.o.W S o.o.o.o.o.o.o.o.o.o.+.L H +.o.o.o.o.",
"K K K K K K K K P V i U K K K K K K K K K K K K K K G i Z K K K K K K K K K K I K K K K M a P K K K K K K K K K U m b U K G F S ",
"- - - - - - - - - & & - - - - - - = = = = = = = = = = % - - - - - - = = = = = - - - - - & & - - - 1 1 - - - - - - & < - - - & % ",
"O O O O O O O O O O O O O O O O O o o o o o o o o o o o O O O O O O o 2 2 o o o O O O O O O O O O O O O O 3 O O O O O O O O O O ",
"@ @ @ @ @ @ @ @ @ @ @ @ @ @ @ @ @ @ @ @ @ @ @ @ @ @ + @ @ @ @ @ @ @ @ @ @ @ @ @ @ @ @ @ @ / 7 @ @ @ @ @ 0 { ^ @ @ @ + @ @ 8 5 @ ",
"@ @ @ @ @ @ @ @ @ @ @ @ @ @ @ @ @ @ @ @ @ @ @ @ @ @ @ @ @ # # @ @ @ @ @ @ @ @ @ @ @ @ @ @ 4 @ @ @ @ @ @ 4 4 @ @ @ @ @ @ @ q ^ @ ",
"@ @ @ @ @ @ @ @ @ @ @ @ @ @ @ @ @ @ @ @ @ @ @ @ @ @ @ @ @ @ @ @ @ @ @ @ @ @ @ @ @ @ @ @ @ @ @ @ @ @ @ @ @ @ @ @ @ @ @ @ @ @ @ @ ",
"@ @ @ @ @ @ @ @ @ @ @ @ @ @ @ @ @ @ @ @ @ @ @ @ @ @ @ @ @ @ @ @ @ @ @ @ @ @ @ @ @ @ @ @ @ @ @ @ @ @ @ @ @ @ @ @ @ @ @ @ @ @ @ @ ",
"@ @ @ @ @ @ @ @ @ @ @ @ @ @ @ @ @ @ @ @ @ @ @ @ @ @ @ @ @ @ @ @ @ @ @ @ @ @ @ @ @ @ @ @ @ @ @ @ @ @ @ @ @ @ @ @ @ @ @ @ @ @ @ @ ",
"@ @ @ @ @ @ @ @ @ @ @ @ @ # @ @ @ @ @ @ @ @ @ @ @ @ @ @ @ @ @ @ @ @ @ @ @ @ @ @ @ @ @ @ @ # 7 @ @ @ @ @ @ 6 6 @ @ @ @ @ @ @ @ @ ",
"@ @ @ @ @ @ @ @ @ @ @ @ @ @ @ @ @ @ @ @ @ @ @ @ @ @ @ @ @ @ @ @ @ @ # 0 0 @ @ @ @ @ @ @ @ _ ) @ @ @ @ @ $ ~ 6 # @ @ @ @ @ @ @ @ ",
"@ @ @ @ @ @ @ @ @ @ @ @ @ @ @ @ @ @ @ @ @ @ @ @ @ @ @ @ @ @ @ @ @ @ 7 ] _ @ @ @ @ @ @ @ @ 4 7 @ @ @ @ @ @ @ @ @ @ @ @ @ @ @ @ @ ",
"@ @ @ @ @ @ @ @ @ @ @ @ @ @ @ @ @ @ @ @ @ @ @ @ @ @ @ @ @ @ @ @ @ @ q ( 7 @ @ @ @ @ @ @ @ @ @ @ @ @ @ @ @ @ @ @ @ @ @ @ @ @ @ @ ",
"@ @ @ @ @ @ @ @ @ @ @ @ @ @ @ @ @ @ @ @ @ @ @ @ @ @ @ @ @ @ @ @ @ @ @ @ @ @ @ @ @ @ @ @ @ @ @ @ @ @ @ @ @ @ @ @ @ @ @ @ @ @ @ @ ",
"@ @ @ @ @ @ @ @ @ @ @ @ @ @ @ @ @ @ @ @ @ @ @ @ @ @ @ @ @ @ @ @ @ @ @ @ @ @ @ @ @ @ @ @ @ @ @ @ @ @ @ @ @ @ @ @ @ @ @ @ @ @ @ @ ",
"@ @ @ @ @ @ @ @ @ @ @ @ @ @ @ @ @ @ @ @ @ @ @ @ @ @ @ @ @ @ @ @ @ @ @ @ @ @ @ @ @ @ @ @ @ @ @ @ @ @ @ @ @ @ @ @ @ @ @ @ @ @ @ @ ",
"@ @ @ @ @ @ @ @ @ @ @ @ @ @ @ @ @ @ @ @ @ @ @ @ @ @ @ @ @ # @ @ @ @ @ @ @ @ @ @ @ @ @ 7 5 @ @ @ @ @ @ @ @ @ @ @ @ @ @ @ @ @ @ @ ",
"@ @ @ @ @ @ @ @ @ @ @ @ @ @ @ @ @ @ @ @ @ @ @ @ @ @ @ @ @ @ @ @ @ @ @ @ @ @ @ @ @ @ @ q 5 @ @ @ @ @ @ @ @ @ @ @ @ @ @ @ @ ~ @ @ ",
"@ @ @ @ @ @ @ @ @ @ @ @ @ @ @ @ @ @ @ @ @ # @ @ @ @ @ @ @ @ @ @ @ @ @ @ @ @ @ @ @ @ @ @ @ @ @ @ @ @ @ @ # # @ @ @ @ @ @ @ # @ @ ",
"@ @ @ @ @ @ @ @ @ @ @ @ @ @ @ @ @ @ @ @ @ @ @ @ @ @ @ @ @ @ @ @ @ @ @ @ @ @ @ @ @ @ @ @ @ @ @ @ @ @ @ @ ( 5 @ @ @ @ @ @ @ @ @ @ ",
"@ @ @ @ @ @ @ @ @ # @ @ @ @ @ @ @ @ @ @ @ @ @ @ @ @ @ @ @ @ @ @ @ # ~ T @ @ @ @ @ 5 5 @ @ @ @ @ @ @ @ 5 7 @ @ @ @ @ @ @ @ @ @ @ ",
"@ @ @ @ @ @ @ @ @ @ @ @ @ @ @ @ @ # @ @ @ @ @ @ @ @ @ @ @ @ @ @ @ @ @ @ @ @ @ @ @ 5 [ q 5 @ @ @ @ @ @ @ @ @ @ @ @ @ @ @ @ @ @ @ ",
"@ @ @ @ @ @ @ @ @ @ @ @ @ @ @ @ @ @ @ @ @ @ @ @ @ @ @ @ @ @ @ @ @ @ @ @ @ @ @ @ @ @ 7 @ @ @ @ @ @ @ @ @ @ @ @ @ @ @ @ @ @ @ @ @ ",
"@ @ @ @ @ @ @ @ @ @ @ @ @ @ @ @ @ @ @ @ @ @ @ @ @ @ @ @ @ @ @ @ @ @ @ @ @ @ @ @ @ @ @ @ @ @ @ @ @ @ @ @ @ @ @ @ @ @ @ @ @ @ @ @ ",
"@ @ @ @ @ @ @ @ @ # @ @ @ @ @ @ @ @ @ @ @ @ @ @ @ @ @ @ @ @ @ @ @ @ @ @ @ @ @ @ @ # # @ @ @ @ @ @ @ @ @ @ @ @ @ @ @ @ @ @ @ @ @ ",
"@ @ @ @ @ @ @ @ @ @ @ @ @ @ # @ @ @ @ @ @ @ @ @ @ @ @ @ @ @ @ @ @ @ @ @ @ @ @ @ @ $ ~ # @ # # @ @ @ @ @ @ @ @ @ @ @ @ @ @ @ @ @ ",
"@ @ @ @ @ @ @ @ @ @ @ @ @ @ @ @ @ @ @ @ @ @ @ @ @ @ @ @ @ @ # @ @ @ @ @ @ @ 8 @ @ @ @ # # ! 6 @ @ @ @ @ @ @ @ @ @ @ @ @ @ 0 # @ ",
"@ @ @ @ @ @ @ @ @ @ @ @ @ @ @ @ @ # @ @ @ @ @ @ @ @ @ # @ @ @ @ @ @ @ @ @ 4 ^ @ @ @ @ @ @ 6 R @ @ 5 0 0 @ @ @ @ @ @ @ # 8 ` 7 @ ",
"@ @ @ @ @ @ @ @ @ @ @ @ @ @ @ @ @ @ @ @ @ @ @ @ @ @ @ @ @ @ @ @ # ' 4 5 @ @ @ @ @ # # @ @ $ @ @ @ 4 q @ @ @ @ @ @ @ @ @ q @ @ @ ",
"@ @ @ @ @ @ @ @ @ @ @ @ @ @ @ @ @ @ @ @ @ @ @ @ @ @ @ @ @ @ @ @ @ 4 4 h 9 @ @ @ @ # # @ @ @ # @ @ @ @ @ @ @ @ @ @ @ @ @ @ @ @ @ ",
"O 3 3 O O 3 3 O O 3 3 O O 3 3 O o o o o o 2 2 o o 2 2 o O O O O O O X X 2 o o o O O O O O O O O O O O O O O O O O O O O O O O O ",
"n n n n n n n n n n v n n n n n g v v v v v v v v v v i g h h h h h v v v v v g h h h h f d h h h h h h h h h h h f f h h h h g ",
" . . . . . . . .o.Q A o. . . . . . . . . . . . . .....A | .. . . . . . . . ...o. . . ...E S o. . . . . . . . . .o.W I o. . . . .",
"U U U U U U U U U K M Q U U U U U U U U U U U U U U U M I U U U U U U U U U U U U U U U F M Q U U U U U U U U U Q S V Q U U U U ",
"x z z z z z z z z k y z z z z z z x x z z z z z z z z y l z z z z z z z z z z z z z z z p y z z z z z z z z z z z p y z z z z z ",
"B x x x x x z z x k y B z z z z x x x x x x x z z z z y l z x x z z z z z z z x x z z z a y x z z z x z z z z z x p p z z z z z ",
"z z z z z z z z z k y z z z z z z z z z z z z z z z l y l z z z z z z z z z z z z z z z p y z z z z z z z z z z z y y z z z z l ",
"z z z z z z z z z p t z l l l l l z z z z z z z z z l t s l l l l l l l z z l z z z z z y t l l l l l l l l l l z y y z l l l l ",
"l l l l l l l l l p w z l l l l l l l l l l l l l l j w s l l l l l l l l l l l l l l l u t l l l l l l l l l l z y y z l l l l ",
"p u u u p p p p p y , p p p p p p p p p p p u u p p u , y p p p p p p p p p p p p p p p t , p p p p p p p p p y p e w p p p u u ",
"= = = * = = = = = = : = =   * = = = = = = = * * = = = : = = *   = = = = = = = = = = = = : : = =   * = = = = = = = : : = = : * % ",
"e e e e e e e e e e e e e * w e e e e e e e e e e e e e e e , ; e e e e e e e e e e e e e e e e * w e e e e e e e e e e r r : : ",
"e e e e e e e e e e e e e ; w e e e e e e e e e e e e e e e w > e e e e e e e e e e e e e e e e ; e e e e e e e e e e r r r , : ",
"u u u u u u u u u u u u u , r u u u u u u u u u u u r u u u r w u u u u u u u u u u u u r u u u , y u u u p u u u u u p p p w , ",
"p p p p p u p s s s s p y , t p s p p p p p p p p s p s p y t w p s s p p y t y p p s s s s u y , y s s s s u t y y p s u y , , ",
"j j j j p y s s j j s s p p p s s j j j j s u s s s j j s p p p s j j j s p , u u j s j j s s p p p j j j s s t t p s s s p t , ",
"l l l l s u l l l l l l l l l l l l l l l l u s l l l l l l l l l l l l l l y s p l j l l l l l l l l l l l l p p l l l l z y , ",
"l l l l s u l l l l l l l l j l l l l l l j u s j j l l l l j l l l l l l j p p u l j l l l l l l j l l l l l s p j l l l l y , ",
"s s s s y e s s s s s s s s p s s p s s s p e p s s s s s s p s s s s s s s u u e s s s s s s s s p s s s s s p p s s s s s t , ",
"u y y y e w y p p p p p u y y p p u u y y t w t p p p p s y y y u p s s s s p y w u p p p s p y y u p s s s p p p p s p u t , w ",
"l l l l l l l l s j l l l y s l s l l l l l l l j j j j l l s p s l l l l l l l l l l j l l l l y s l l l l l l l l l l s l y = ",
"s s s s s s s s s s s s s y p s s s s s s s s s s s s s s s p p s s s s s s s s s s s s s s s s y s s s s s s s s s s s s l y , ",
"s s s s s s s s s s s s s r p s s s s s s s s s s s s s s s p y s s s s s s s s s s s s s s s s t s s s s s s s s s s s s l y , ",
"p p p u y y p p p p p u t : w u p p p p p u y p p p p u p t w , y p p p u y e y y p p p p p y e : t u u u u p t t p p p p t , t ",
"s s s s p y j s s s s s p p p s s s s s s s y s s s s s s p p p p s s s s s w u y s s s s s s p p p s s s s s y t s s s s s t t ",
"s s s s s p s s s s s s s s s s s s s s s s p s s s s s s s s s s s s s s s p s p s s s s s s s s s s s s s s p p s s s s l y t ",
"s s s l s y l s s s s s s s s s s s s s s s y s s s s s s s s s s s s s s l p s y l s s s s s s s s s s s s s s s s s s s l y t ",
"u u u p y w p y u p p y u u u u u u u u u y w y y u u p p u u u u u u u u p w t w u y u p p u u u u u u u u u t t p p u y p t y ",
"y y y y t t y y y t t y y y y y y t t t y y t y y y y t t y y y y y y y y y t t t t t t t t y y y y y y y y y t t t t y y y i V ",
"D D D D D D D D K Z x P D D D D D D D D D D D D D D D x F D D D D D D D D D D P D D D D V M K D D D D D D D D D P M M P D D D D ",
"G G G G G G G G G Z M K D G G G G G G G G G G G G G F M Z D G G G G G G G G G G G G G G V M G G G G G G G G G D K V M K D G G G ",
"z z z x z z z z z l p B z z z z z x x x z z z z z z z p z z z z z z x x z z z z z z x z k p z z z z x x z z z z B k s B z z z z ",
"= = = = = = = = = *   : = = = = = = = = = = = = = = =   = = = = = = = = = = = = = = = = *   = = = = = = = = = = : .   = = = = = "
};
