/* XPM */
static char *result[] = {
/* columns rows colors chars-per-pixel */
"64 64 78 1 ",
"  c #4F2913",
". c #56341F",
"X c #573621",
"o c #583724",
"O c #583824",
"+ c #5B3C29",
"@ c #656C17",
"# c #686F16",
"$ c #666218",
"% c #686E18",
"& c #6B7117",
"* c #6C721A",
"= c #72751B",
"- c #75791F",
"; c #5C402D",
": c #5E4533",
"> c #5E5535",
", c #635E22",
"< c #604331",
"1 c #624835",
"2 c #654C3B",
"3 c #6E6F26",
"4 c #6B662C",
"5 c #6F7027",
"6 c #6C712E",
"7 c #797C21",
"8 c #71722A",
"9 c #65623D",
"0 c #68653F",
"q c #757730",
"w c #767832",
"e c #797B35",
"r c #655444",
"t c #6A5544",
"y c #6D5846",
"u c #625949",
"i c #6D5B4B",
"p c #6C5F51",
"a c #696740",
"s c #6E6B44",
"d c #6B6556",
"f c #6D6957",
"g c #6E665A",
"h c #6E6B59",
"j c #716356",
"k c #72675A",
"l c #706B5B",
"z c #786C5F",
"x c #777056",
"c c #74715E",
"v c #7C7C5B",
"b c #756D63",
"n c #786E60",
"m c #767164",
"M c #797067",
"N c #7D7D60",
"B c #7C766A",
"V c #7C7B6E",
"C c #7F7D71",
"Z c #807F62",
"A c #83786D",
"S c #807F72",
"D c #887F74",
"F c #7E8125",
"G c #7F8139",
"H c #81833C",
"J c #838263",
"K c #868669",
"L c #88876A",
"P c #838176",
"I c #888076",
"U c #868579",
"Y c #88867D",
"T c #8A887F",
"R c #8D8B82",
"E c #908E85",
"W c #918F88",
"Q c #94928B",
/* pixels */
"oQUUUUU.$4SSSSSSSSSSSSw==wCVVVVVVVVVVVq==eSSSSSSSSSSSSe= UUUUUQ+",
"oQUUUUU.$bSSSSCSSSSSSSY==UVVVVVVVVVVVVU=*YSSSSSSSSSSSSY= UUUPUQ+",
"oQUUUUU.$bCSSSUCSSSSSSU*5PVVVVVVVVVVVVU*=CVPSSSSSSSSSSY= UUUUUQ+",
"oQUUUUU.$bSSSSCCSSSSSSR*=PVVVVVVVVVVVVY=*6VPSSSSSSSSSSY= UUUUUQ+",
"oQUUUUU.$MSSSSSSSSSSSSR==UVVVVVVVVVVVVP*=wUSSSSSSSSSSSY= UUUUYR+",
"oCRYUUU.$MSSSSSSSSSSSSY=*UVVVVVVVVVVVVY==USSSSSSSSSSSSY= UUUUWb+",
"oBmYUYY.$MSSSSSSSSSSSSU=*UVVVVVVVVVVVVU*=RSSSSSSSSSSSSU= ASSRlb;",
"ogd++iiX$MSSSSSSSSSSSSU==UVVVVVVVVVVVCU==USSSSSSSSSSSGG= nMM+dd+",
"o21UUUU.$lUPPUPPPUPPPUS=*VSSSSCCCSSSSSV==CPPPPPPPPPPPU77 UUUUti+",
"oQUUUUU.$,hlhlhhhhhhhh6==3dddddfdddddh5*=5hhhhhhhhhhhh@7 UUUUUW+",
"oWUUUUU.$$wwwewwFwGGew====wwqwqwwwwwqq====wqwqwwwwwwww=% UUUUUQ+",
"oQPUUUU.$cUUUUUYUUPLUUK==NSSSSSSSSSSSSJ*=NSSSSSSCPSCSCJ= UUUUYQ+",
"oQUUUUU.@BLTUUUUUUUTUUR==USSSSSSSSSSSSR*=YSSSSSSSSSSSCR= UUUUUW+",
"oQUUUUU.$ATUUUTUUUUUUYR==YSSSSSSSSSSSSU==YSSSSSSSSSSSSY* UUUUUQ+",
"oQUUUUU.$BUUUUUUUTUUUUR==YSSSSSSSSSSSSU==USSSSSSSSSSSSY= UUUUUQ+",
"oQUUUUU.$BUUUUUUUUUUUUR==YSSSSSSSSSSSSR*=YSSSSSSSSSSCCY= UUUUUQ+",
"oQUUUUU.$BUUUUUUUUUUTUE==YCSSSSSSSCPSCT==USSSSSSSSSSSSY= YYYYTQ+",
"oQRRRRR.$BUUUUUUUUUULTT==YSSSSSSSSSCSCY==TSSSSSSSSSSSSY= :jjkj<+",
"o2yyyy1.$BUUUUUUUUUUUUE-=YCCSSSCSSCCSSU==TSSPSKSSSSSKSU= UUUUUQ+",
"oQUUUUUo$dRWWEEEEEEEEEx==fRTRYYRYYRTTTf==hTTTTTTYYRYTTh= UUUUUQ+",
".QUUUUU.$$aasssssssa00-===aa0a0aaa0000====900000aa0000== UUUUUQ+",
"oQUUUUU.$$vvvvvvNvvvvv====vvvvvvvvvvvv====JJJJJJJJJJJJ== UUUUUQ+",
"oQUUPUU.$MSSKCSSPSSSCKU-=YSSSSPCSSPSSSU=-TUUUUUUUUUUUUT= UUUUUQ+",
"oQUUUUU.$MSSSSSSSSCCCPU==YSSSSCCSSSSSST==RUUUTLUUUUUUUT- UUUUUQ+",
"oQUUUUU.$bPCSSSSSSSSSSR==YCSSSSPSSSSUhs==RUUUUTUUUUUUUR= UUUUUQ+",
"oQUUUUU.$MCPSSSSSSSSSSY*=YSSSSSSSSSSSY===RUUUUUUUUUUUUR= UUUUUQ+",
"OQUPUUY.$MCSSSPCSSSSSSY==YSSSSSSSSSSSCR*=EUUUUUUUTUUUUE= UYTYUQ+",
"oQUUWWz.$MSSSPVPSSSSSCY==YSSSSSSSSSSSCY==vTUUUUUTLUUUUR= bbkkEQ+",
"oSDDipb.$MSSSSPVSSSSSSY==YSSSSSSSSSSSSR*==0EUUUUUUUUUUR= Bddit<+",
"oSBA<bk.$MCCSSSSSSSCGeh==YCCSSSSSSSSSSY=FF=TUUUUUUUUUUR= gd2BUQ+",
"oQIUU.d.$>PPPPP77KP7F&===aPPPPPSUSPSSPP=*---TTUUTUTTTYa= :<UUUQ+",
"oQUUUm+.$$55555*&787&*====5555555855555=-=*#8788888785== UUUUUQ+",
"OQUUUUPo$4SSSSSS63F@=======&GVVVVVVVVVq*=wSSSSSSSSSSqq*= UUUUPQ+",
"OQPUUUU.$mSSSSSSSvvvv======cVVVVVVVCVVY==USSSSSSSSSSSSJ= UUYUUQ+",
"OQUUUUU.$MSSSSSSSSSSSSR*=UVVVVVVVVVBVCU*=RSSSSSSSSSSSSR= UUUUUQ+",
"OQUUUUU.$MSSSSSSSSSSSSU*&GVVVVVVVVVCVBU==USSSSSSSSSSSSY* UUUUUQ+",
"OQUUUUU.$MPSSSSSSSSSSSU=FFVVVVVVVVVVVVP*=USSSSSSSSSSSSU* UUUUUQ+",
"OQUUUUU.$MSSSSSSSSSSSSPFFvVVVVVVVVVVVVY==TSSSSSSSSSSSSR= UUTUUQ+",
"+QYYUUU.,MSSSSSSSSSSSSY&#PVVVVVVVVVVVVP*=USSSSSSSSSSSSU= ADDDUV+",
"o2yiii2.$mSSSSSSSSSSSSY==SVVVVVVVVVVVUT5=TSSSSSSSSSSSRR= nVVVVA+",
"oQUUUUU.$gPPPPPPPPPPPPS3=SSSSSSSSSSSS00==SSSPPPPSUSS5H7= UUUUUW+",
".QUUUUU.$,hhhhhhhhhhhh6==5hfddddfddd5====5hhhhhhll88=*77 UUUUUW+",
".QUUPUU.$$wwwwwwFqqqqF====wGwGqwweweGw====wwqwqqwwww8w*7 UUUUUQ+",
"OQUUUUU.$xSSSSSSSSSSSSJ==JUUUUPUUUUUULK==JSSSSSSSSSSSSJ= UUUUUQ+",
"oQUUUUU.$mSSSSSSSSSSSSY*=TLULUUUUUUUUUT==YSSSSSSSSSSSSY= UUUUUW+",
"oQUUUUU.$MSSSSSSSSSSSSY3FTUUTUUUUUUTUUT==YSPSSSSSSSSSSH7 UUUUUQ+",
"oQUUUUU.$mSSSSSSSSSSSSY==TUUTUUUUUUUUUT==aS6FKSPSSSSSSR7 UUUUUQ+",
"oQUUPUU.@mSSSSSSSSSSSSY=FTUUUUUUUUUUUUEF==55F-5fUSSSCCY% UUUUUQ+",
"oQUUUUU.$MCPCSSSSSSSSSY==RUUTUUUUUUUUUR=====%%==0SSSCCT= TTTTTW+",
"oQRRRRY.$uUCSSSSSSSSSSY==EUUUUUUUUUUUUR==vvvv====3TSCCY= :jdjj<+",
"O2tyyy:o$$aCPSSSSSSSSSU==EUUUUUULUUUUYU==SSSSSq===TSCCY= UUUIYW+",
"oQUUUUU.$$=5fRYYTTTTTTf==cEEEEEG=TEEEm8==kYRYRR===hlRYR= UUUUUQ+",
"oQUUUUU.$$===0000000a9a===ssss--&ssss=====aaaaa=====aaa= UUUUUQ+",
"oQUUUUU.$$vvv*=Jvcvxvv======vvvvvvvJvv========Zvvvvvvv== UUUUUQ+",
"oQUUUUU.$bVVVV8VCVVVBVS==wPSPSSSSSKCCCR=====eYSSSSSSSST= SUUUUQ+",
"oQUUUUP.$bVVVVV5dYUVVCU==USSSSSSSSSCCCY===JJSSSSSSSSSST= UMUUUQ+",
"ogQUUUU.$bVVVVV8*99CCCC==YSSSSSSSSSSSSY==YSSSSSSSSSSSCY= UTBVAb+",
"obQUUUB.$bVVVVVCv==3333==YSSSSSSSSSSSSY==YSSSSSSSSSSSCY= UUUYkl+",
"oMjTCbT.$bVVVVVVVVC8w*===YSSSSSSSSSSSSY**TSSSSSSSSSSSSY= UUUWdg+",
"ombpYUU.$bVVVVVVVVVVVvZ==YSSSSSSSSSSSPY=*RSSSSSSSSSCSSY= EEEpri+",
"ozppSAB.$bVCVVVVVVVVVVU==SPSPPVSSSPCSSY==YSSSSSSSSSSSSY= +r111r+",
".;;;DSD.$bVBVVVVVVVVVCU==5hYYYPASPVCSSY==YSSSSSSSSSSSSY= UUUnnX+",
"OQRWUUU.$$CCCCCCCCCCCCS*===a00SPPPPPPPP==aSSSSSSSSSSCSa= UUUUUQ+",
".QUUUUU.$$3333333333335=======555555555===338455555553== UUUUUW+"
};
