/* XPM */
static char *_0e05a050a514613987f0c2e72067754[] = {
/* columns rows colors chars-per-pixel */
"64 64 74 1 ",
"  c #523523",
". c #553724",
"X c #553D2D",
"o c #583F30",
"O c #72751B",
"+ c #5E4A26",
"@ c #564335",
"# c #564437",
"$ c #594233",
"% c #5B4434",
"& c #5C4536",
"* c #5B4739",
"= c #5C4738",
"- c #59483B",
"; c #5D493B",
": c #5A4B3F",
"> c #5E4B3C",
", c #5C4C3F",
"< c #604B3C",
"1 c #624D3E",
"2 c #66503E",
"3 c #6C5E3B",
"4 c #6D603D",
"5 c #5D4C40",
"6 c #5F4F44",
"7 c #5C5247",
"8 c #5C5248",
"9 c #5D544A",
"0 c #614F42",
"q c #615042",
"w c #665342",
"e c #605247",
"r c #635447",
"t c #695647",
"y c #615348",
"u c #61564B",
"i c #655749",
"p c #62574D",
"a c #695648",
"s c #62594F",
"d c #655A4D",
"f c #6B5948",
"g c #615950",
"h c #645A50",
"j c #645C53",
"k c #655D54",
"l c #665F58",
"z c #666057",
"x c #6D6456",
"c c #676159",
"v c #69635B",
"b c #69645B",
"n c #6A655D",
"m c #6C675E",
"M c #6D685F",
"N c #706050",
"B c #716353",
"V c #736657",
"C c #726659",
"Z c #71685B",
"A c #756A5B",
"S c #776C5E",
"D c #786D5F",
"F c #6F6A61",
"G c #77756A",
"H c #7D776E",
"J c #7E7870",
"K c #7F7C73",
"L c #807C74",
"P c #817E75",
"I c #838077",
"U c #848178",
"Y c #868579",
"T c #88877C",
/* pixels */
"BBBfBBBBBBBBBBBBBfBBBBBBBBBBBBfBBBBBBBBBBBBBBBBBfBBBBBBBBBBBBfBB",
"YYYVYYYYYYYYYYYYYVYYYYYYYYYYYYVYYYYYYYYYYYYYYYYYVYYYYYYYYYYYYVYY",
"JJJaJJJJJJJJJJJJJtJJJJJJJJJJJJaJJJHJJJJJJJJJJJJJaJJJJJJJJJJJJtJJ",
"%%%+&%%%%%%%%%%%%.%%&&&&&&&&&%.&&%$&&&&&&&&%%%%%.%%%%%%%&%%%%+%%",
"OOOOOOOOOOOOOOOOOOOOOOOOOOOOOOOOOOOOOOOOOOOOOOOOOOOOOOOOOOOOOOOO",
"OOOOOOOOOOOOOOOOOOOOOOOOOOOOOOOOOOOOOOOOOOOOOOOOOOOOOOOOOOOOOOOO",
"OOOOOOOOOOOOOOOOOOOOOOOOOOOOOOOOOOOOOOOOOOOOOOOOOOOOOOOOOOOOOOOO",
"OOOOOOOOOOOOOOOOOOOOOOOOOOOOOOOOOOOOOOOOOOOOOOOOOOOOOOOOOOOOOOOO",
"OOOOOOOOOOOOOOOOOOOOOOOOOOOOOOOOOOOOOOOOOOOOOOOOOOOOOOOOOOOOOOOO",
"OOOOOOOOOOOOOOOOOOOOOOOOOOOOOOOOOOOOOOOOOOOOOOOOOOOOOOOOOOOOOOOO",
"OOOOOOOOOOOOOOOOOOOOOOOOOOOOOOOOOOOOOOOOOOOOOOOOOOOOOOOOOOOOOOOO",
"OOOOOOOOOOOOOOOOOOOOOOOOOOOOOOOOOOOOOOOOOOOOOOOOOOOOOOOOOOOOOOOO",
"OOOOOOOOOOOOOOOOOOOOOOOOOOOOOOOOOOOOOOOOOOOOOOOOOOOOOOOOOOOOOOOO",
"OOOOOOOOOOOOOOOOOOOOOOOOOOOOOOOOOOOOOOOOOOOOOOOOOOOOOOOOOOOOOOOO",
"OOOOOOOOOOOOOOOOOOOOOOOOOOOOOOOOOOOOOOOOOOOOOOOOOOOOOOOOOOOOOOOO",
"OOOOOOOOOOOOOOOOOOOOOOOOOOOOOOOOOOOOOOOOOOOOOOOOOOOOOOOOOOOOOOOO",
"OOOOOOOOOOOOOOOOOOOOOOOOOOOOOOOOOOOOOOOOOOOOOOOOOOOOOOOOOOOOOOOO",
"OOOOOOOOOOOOOOOOOOOOOOOOOOOOOOOOOOOOOOOOOOOOOOOOOOOOOOOOOOOOOOOO",
"OOOOOOOOOOOOOOOOOOOOOOOOOOOOOOOOOOOOOOOOOOOOOOOOOOOOOOOOOOOOOOOO",
"OOOOOOOOOOOOOOOOOOOOOOOOOOOOOOOOOOOOOOOOOOOOOOOOOOOOOOOOOOOOOOOO",
"OOOOOOOOOOOOOOOOOOOOOOOOOOOOOOOOOOOOOOOOOOOOOOOOOOOOOOOOOOOOOOOO",
"OOOOOOOOOOOOOOOOOOOOOOOOOOOOOOOOOOOOOOOOOOOOOOOOOOOOOOOOOOOOOOOO",
"OOOOOOOOOOOOOOOOOOOOOOOOOOOOOOOOOOOOOOOOOOOOOOOOOOOOOOOOOOOOOOOO",
"OOOOOOOOOOOOOOOOOOOOOOOOOOOOOOOOOOOOOOOOOOOOOOOOOOOOOOOOOOOOOOOO",
"OOOOOOOOOOOOOOOOOOOOOOOOOOOOOOOOOOOOOOOOOOOOOOOOOOOOOOOOOOOOOOOO",
"OOOOOOOOOOOOOOOOOOOOOOOOOOOOOOOOOOOOOOOOOOOOOOOOOOOOOOOOOOOOOOOO",
"OOOOOOOOOOOOOOOOOOOOOOOOOOOOOOOOOOOOOOOOOOOOOOOOOOOOOOOOOOOOOOOO",
"OOOOOOOOOOOOOOOOOOOOOOOOOOOOOOOOOOOOOOOOOOOOOOOOOOOOOOOOOOOOOOOO",
"OOOOOOOOOOOOOOOOOOOOOOOOOOOOOOOOOOOOOOOOOOOOOOOOOOOOOOOOOOOOOOOO",
"OOOOOOOOOOOOOOOOOOOOOOOOOOOOOOOOOOOOOOOOOOOOOOOOOOOOOOOOOOOOOOOO",
"OOOOOOOOOOOOOOOOOOOOOOOOOOOOOOOOOOOOOOOOOOOOOOOOOOOOOOOOOOOOOOOO",
"OOOOOOOOOOOOOOOOOOOOOOOOOOOOOOOOOOOOOOOOOOOOOOOOOOOOOOOOOOOOOOOO",
"BBB4BBBBBBBBBBBBB2BBBBBBBBBBBBwBBBBBBBBBBBBBBBBBwBBBBBBBBBBBB3BB",
"YYYSYYYYYYYYYYYYYAYYYYYYYYYYYTDYYYYYYYYYYYYYTYYYSYYYYYYYYYYYYAYY",
"PPICUPPKKKJJJJKPPVPPPPPPPPPPPPCPPPPPPPPPPPPPPPPUCUPKKKKJJJJPICPP",
"FFFiFFFFMMmmMMMMmiMmMmmmmmmmmnrmmnnmmmmmmmmnMFFFiFFFMMmmMMMMMrMm",
"mMFiMFFMMmmmmmnnnrnnnnnnnnnnnnrnnnnnnnnnnnnnnMMMiFFMMmmmmmmnnrnn",
"nnn0mmnnnnnnnnnnnennnnnnbbbnnnenbbnnnnnnbnnnnnnnqmmnnnnnnnnnnenn",
"vvb>bbbbbbbbbbbbb>vvvbbbvbvbbb>bvvvbbbbbbvbbvvvb>bbbbbbbbbbbb>vv",
"ccc*cccvvvvvvvvvv>vvvvvvvvvvvv>vvvvvvvvvvvvvvccc*ccvvvvvvvvvv>vv",
"ccc%ccccccccccccc=cccccccccccc;ccccccccccccccccc%cccccccccccc=cc",
"XXX- XXXXXXXXXXXX*XX XXXXXXXXX-XXXX XXXXXXXXXXXX- XXXXXXXXXXX*XX",
"9998@877777777777777@77778888888998@7778888899998@77777777777777",
"9999#777777777777777#77778888888998#7778888899998#77777777777777",
"gggg:ggggggggggggggg:gggggggggggggg:ggggggggggggg:gggggggggggggg",
"5777,usssssspsggggu7$5ggggu557ugu7;$ugggg7,7,7777,sssssspssgggg7",
"nnnnnnnnnnnnsnnnnnnnnnnnnnnn5nnnnnnnnnnnnn5nnnnnnnnnnnnnsnnnnnnn",
"ccccccccccccpcccccccccccccvcuccccccccvccccucccccccccccccpccccccc",
"ccccccccccccpcccccccccccccccgcccccccccccccgcccccccccccccpccccccc",
"cccccccccccc7cccccccccccccccgcccccccccccccgccccccccccccc7ccccccc",
",hhhu%usuuy55uhhhkkpeshkkkkkkkkksu0epkkkkkkkuehhs%espuue,5hhhjkh",
"lllll6llllllllllllllullllllllllllllulllllllllllll6llllllllllllll",
"lllllgllllllllllllllpklllllllllllllplllllllllllllgllllllllllllll",
"lllllgllllllllllllll7llllllllllllll7lllllllllllllgllllllllllllll",
">7gggpggggpuupppppp>o>ppppp7,uggg7*o7ppppu5566uggpggggguupppppp7",
"vvvvvvvvvvvvpvvvvvvvvvvvvvvv5vvvvvvvvvvvvv5vvvvvvvvvvvvvpvvvvvvv",
"llllllllllllplllllllllllllllglllllllllllllglllllllllllllplllllll",
"llllllllllllulllllllllllllllglllllllllllllglllllllllllllulllllll",
"llllllllllll5lllllllllllllll5lllllllllllll5lllllllllllll5lllllll",
"www<wwwwwwwwwwwwwwwwwwwwwwwwww1wwwwwwwwwwwwwwwww<wwwwwwwwwwwwwww",
"GGGxGGGGGGGGGGGGGxGGGGGGGGGGGGxGGGGGGGGGGGGGGGGGxGGGGGGGGGGGGxGG",
"KKKZKKKKKKKKKKKKKZKKKKKKKKKKKKZKKKKKKKKKKKKKKKKKZKKKKKKKKKKKKZKK",
"zzzdzzzzzzzzzzzzzdzzzzzzzzzzzzdzzzzzzzzzzzzzzzzzdzzzzzzzzzzzzdzz",
"%%%.%%%%%%%%%%%%%.%%%%%%%%%%%%.%%%%%%%%%%%%%%%%%.%%%%%%%%%%%%.%%"
};
