/* XPM */
static char *_04c7d796dab47bf88cebfaa990f794e[] = {
/* columns rows colors chars-per-pixel */
"64 64 79 1 ",
"  c #553927",
". c #583D26",
"X c #553C2A",
"o c #563F31",
"O c #635C17",
"+ c #645D18",
"@ c #656018",
"# c #6F6E1A",
"$ c #6F701A",
"% c #72751B",
"& c #5A422D",
"* c #5E4C28",
"= c #564132",
"- c #5A4434",
"; c #5D4A36",
": c #564538",
"> c #5A4739",
", c #5D4B3D",
"< c #604E28",
"1 c #63532C",
"2 c #614F3E",
"3 c #66523D",
"4 c #69553F",
"5 c #6C6622",
"6 c #6E623F",
"7 c #5E4E42",
"8 c #5C5247",
"9 c #5E5349",
"0 c #624F40",
"q c #655445",
"w c #6A5642",
"e c #6B5947",
"r c #62564B",
"t c #62594F",
"y c #6D5D4B",
"u c #645C53",
"i c #685F55",
"p c #665F58",
"a c #6F604F",
"s c #71644F",
"d c #676057",
"f c #6C6255",
"g c #676159",
"h c #69635B",
"j c #6C685C",
"k c #6C685E",
"l c #706151",
"z c #746452",
"x c #726354",
"c c #726454",
"v c #776754",
"b c #776957",
"n c #73675B",
"m c #756A5B",
"M c #71685C",
"N c #74685C",
"B c #776D5F",
"V c #786958",
"C c #6E6A60",
"Z c #726E62",
"A c #786E63",
"S c #7D6F62",
"D c #747166",
"F c #7A7063",
"G c #7B7164",
"H c #767469",
"J c #7A7268",
"K c #7A746B",
"L c #79766B",
"P c #7C766D",
"I c #7D786F",
"U c #7D7970",
"Y c #7F7C73",
"T c #817C73",
"R c #807C74",
"E c #838077",
"W c #848175",
"Q c #87857A",
"! c #88877B",
/* pixels */
"aayeaaaaaaaaaaayeaaaaaaaaaaaaeylllaaaaaaaaaaaayeflllcxlfy5%%%%%%",
"QQWmQQQQQQQQQQQWmQQQQQQQQQQQQmWQQQQQQQQQQQQQQQWmQQQQQQQQQz%%%%%%",
"IUKyUUUUUUUUUUUKeIIIUUUUUUUUUyKUIPIIIIUUUUUUUUKyUUPKJAGQQb%%%%%%",
";;;.;;;;;;;;;;;;.;;;;;;;;;;;;.;;;;;;;;;;;;;;;;;*;;;-&.eQQV%%%%%%",
"$$$$$$$$$$$$$$$$$$$$$$$$$$$$$$$$$$$#$$$$$$$$$$$%$$$$#OyQQV%%%%%%",
"%%%%%%%%%%%%%%%%%%%%%%%%%%%%%%%%%%%%%%%%%%%%%%%%%%%%%@3SSw%%%%%%",
"%%%%%%%%%%%%%%%%%%%%%%%%%%%%%%%%%%%%%%%%%%%%%%%%%%%%%@yEWv%%%%%%",
"%%%%%%%%%%%%%%%%%%%%%%%%%%%%%%%%%%%%%%%%%%%%%%%%%%%%%@yQQV%%%%%%",
"%%%%%%%%%%%%%%%%%%%%%%%%%%%%%%%%%%%%%%%%%%%%%%%%%%%%%@yQQV%%%%%%",
"%%%%%%%%%%%%%%%%%%%%%%%%%%%%%%%%%%%%%%%%%%%%%%%%%%%%%@yQQV%%%%%%",
"%%%%%%%%%%%%%%%%%%%%%%%%%%%%%%%%%%%%%%%%%%%%%%%%%%%%%@yQQV%%%%%%",
"%%%%%%%%%%%%%%%%%%%%%%%%%%%%%%%%%%%%%%%%%%%%%%%%%%%%%@yQQm%%%%%%",
"%%%%%%%%%%%%%%%%%%%%%%%%%%%%%%%%%%%%%%%%%%%%%%%%%%%%%@yQQv%%%%%%",
"%%%%%%%%%%%%%%%%%%%%%%%%%%%%%%%%%%%%%%%%%%%%%%%%%%%%%@3SS4%%%%%%",
"%%%%%%%%%%%%%%%%%%%%%%%%%%%%%%%%%%%%%%%%%%%%%%%%%%%%%@yEWz%%%%%%",
"%%%%%%%%%%%%%%%%%%%%%%%%%%%%%%%%%%%%%%%%%%%%%%%%%%%%%@yQQv%%%%%%",
"%%%%%%%%%%%%%%%%%%%%%%%%%%%%%%%%%%%%%%%%%%%%%%%%%%%%%@yQQv%%%%%%",
"%%%%%%%%%%%%%%%%%%%%%%%%%%%%%%%%%%%%%%%%%%%%%%%%%%%%%@yQQv%%%%%%",
"%%%%%%%%%%%%%%%%%%%%%%%%%%%%%%%%%%%%%%%%%%%%%%%%%%%%%@yQQv%%%%%%",
"%%%%%%%%%%%%%%%%%%%%%%%%%%%%%%%%%%%%%%%%%%%%%%%%%%%%%@yQQv%%%%%%",
"%%%%%%%%%%%%%%%%%%%%%%%%%%%%%%%%%%%%%%%%%%%%%%%%%%%%%@yQQv%%%%%%",
"%%%%%%%%%%%%%%%%%%%%%%%%%%%%%%%%%%%%%%%%%%%%%%%%%%%%%@3SSw%%%%%%",
"%%%%%%%%%%%%%%%%%%%%%%%%%%%%%%%%%%%%%%%%%%%%%%%%%%%%%+eEWz%%%%%%",
"%%%%%%%%%%%%%%%%%%%%%%%%%%%%%%%%%%%%%%%%%%%%%%%%%%%%%+yQQv%%%%%%",
"%%%%%%%%%%%%%%%%%%%%%%%%%%%%%%%%%%%%%%%%%%%%%%%%%%%%%@yQQv%%%%%%",
"%%%%%%%%%%%%%%%%%%%%%%%%%%%%%%%%%%%%%%%%%%%%%%%%%%%%%@yQQv%%%%%%",
"%%%%%%%%%%%%%%%%%%%%%%%%%%%%%%%%%%%%%%%%%%%%%%%%%%%%%@yQQv%%%%%%",
"%%%%%%%%%%%%%%%%%%%%%%%%%%%%%%%%%%%%%%%%%%%%%%%%%%%%%@yQQv%%%%%%",
"%%%%%%%%%%%%%%%%%%%%%%%%%%%%%%%%%%%%%%%%%%%%%%%%%%%%%@yQQv%%%%%%",
"%%%%%%%%%%%%%%%%%%%%%%%%%%%%%%%%%%%%%%%%%%%%%%%%%%%%%@3SSw%%%%%%",
"%%%%%%%%%%%%%%%%%%%%%%%%%%%%%%%%%%%%%%%%%%%%%%%%%%%%%@yEWz%%%%%%",
"%%%%%%%%%%%%%%%%%%%%%%%%%%%%%%%%%%%%%%%%%%%%%%%%%%%%#+yQQv%%%%%%",
"ssswsssssssssssa4sssssssssssswsssssssssssssssss6sssssyFQQv%%%%%%",
"QQQFQQQQQQQQQQQWBQQQQQQQQQQQQFWQQQQQQQQQQQQQQQWFQQQQQQQQ!v%%%%%%",
"URUnRYYYYYYUYYRUnRYUUUUUUUURRNTRRRRRUUUUUUUUYRTNRRRRRRRWEe$%%%%%",
"kkhrhkkkkkkkkkkhrkkkkkkkkkCCCtkCCCkkkkkkkkkCCCktCCCCkkkkCw$%%%%%",
"hhhrhhhhhhhhhhhhrhhkkkkkkkkCCrkkkkhhhkkkkkkkkCkrkkkkkhhhhq$%%%%%",
"hhhrhhhhhhhhhhhhqhhhhhhhhhhkkrhhhhhhhhhhhhhhhkhrhhhhhhhhhq$%%%%%",
"hhd7hhhhhhhhhhhd7hhhhhhhhhhhh,dhhhhhhhhhhhhhhhd,hhhhhhhhg3$%%%%%",
"hhd7hhhhhhhhhhhp,hhhhhhhhhggg,pggghhhhhhhhhhggp,ggggggdpd3$%%%%%",
"ppu,uuuupppppppu>pppppuuppppp>tupuuuppppppuuppu>pppppuuut1%%%%%%",
"===>======== X==>=========== :=o=============X >===o >>>&#%%%%%%",
"999988899888:888888888888888:89999888888888888:99999>kkk3$%%%%%%",
"999999899888:888888888888888:89999888888888888:99999>kkk3$%%%%%%",
"uuuutuuuuttt,rtttttttttttttt7ruuuutttttttttttr7utuut,kkk3$%%%%%%",
"ruurr7ruuuur>7ruuuuutruuuutt7rrr8,uuutrtuuuuur7rrr7,rkkkq%%%%%%%",
"dhhdp7hhhhhhgghhhhhhgthhhhhhhhhhhhhhhhthhhhhhhhhhhhd2kkkq%%%%%%%",
"ggggprggggggggggggggptggggggggggggggggtpggggggggggghqkkkq%%%%%%%",
"ggggguggggggggggggggprggggggggggggggggrpgggggggggggh2kkkq%%%%%%%",
"ppggpudgggdppppggggdu8pppppppppppppggp8upppppppppppi2kkCq%%%%%%%",
"rupppuuppputrrupuuuur7rrrtt8>tuur7uuur7rrrrrr>ruut7,eZZZq%%%%%%%",
"pppppppppppprppppppppppppppp8pppppppppppppppp8pppppd-qyy3$%%%%%%",
"pppppppppppprpppppppppppppppuppppppppppppppppuppppph2ZZZy%%%%%%%",
"pppppppppppprpppppppppppppppuppppppppppppppppuppppphqDZDy%%%%%%%",
"ruuu87rrrrrr-,rtttttrrruuuuuruur8,rtttrrruuuuruuur7,yDDDy%%%%%%%",
"hhhhprhhhhhpdddhhhhhprhhhhhhhhhhgphhhhrphhhhhhhhhhppqDDHy%%%%%%%",
"pppppuppppppppppppppprpppppppppppppppprpppppppppppphqHHHy%%%%%%%",
"pppppuppppppppppppppprpppppppppppppppprpppppppppppphqHHKy%%%%%%%",
"puppu7ppppupppppppppu7pppppppppppppppp7uppppppppuupuqKKKy%%%%%%%",
"qqqqqqqqqqqqqqqqqqqqqqqqqqqqq0qqqqqqqqqqqqqqqqq0qqqeDKKKs%%%%%%%",
"HHDfHHHHHHHHHHHDfHHHHHHHHHHHHfDHHHHHHHHHHHHHHHDfHHHKKKKKl%%%%%%%",
"IIKMIIIIIIIIIIIKMIIIIIIIIIIIIMKIUUIIIIIIIIIIIIKMIUUUUURRl%%%%%%%",
"hhpthhhhhhhhhhhdthhhhhhhhhhhhtdhhhhhhhhhhhhhhhdthhhhhhhh2$%%%%%%",
"--= -----------= ------------ =---------------= --------<%%%%%%%"
};
