/* XPM */
static char *db4b855b2b67442aa6c772c3977888ac[] = {
/* columns rows colors chars-per-pixel */
"64 64 71 1 ",
"  c #543624",
". c #553D2D",
"X c #593D2B",
"o c #583F30",
"O c #666218",
"+ c #6A641C",
"@ c #72751B",
"# c #5E4A26",
"$ c #59402F",
"% c #564336",
"& c #5B4435",
"* c #5E4837",
"= c #5B4739",
"- c #5D4A3C",
"; c #614D2A",
": c #634C3C",
"> c #684F3F",
", c #65503F",
"< c #6D603D",
"1 c #5E4E42",
"2 c #5D5247",
"3 c #5D5449",
"4 c #614F42",
"5 c #655343",
"6 c #6A5646",
"7 c #61564B",
"8 c #695648",
"9 c #63594E",
"0 c #6D5C4C",
"q c #635A51",
"w c #6A5E51",
"e c #665F58",
"r c #715F51",
"t c #666057",
"y c #6D6456",
"u c #676159",
"i c #69635B",
"p c #6A655C",
"a c #6C665E",
"s c #6D685E",
"d c #706051",
"f c #726354",
"g c #756355",
"h c #726454",
"j c #766457",
"k c #726659",
"l c #766659",
"z c #71685B",
"x c #756A5B",
"c c #776C5E",
"v c #786D5F",
"b c #6F6A61",
"n c #726F63",
"m c #7C6D60",
"M c #747166",
"N c #757266",
"B c #797062",
"V c #797065",
"C c #767469",
"Z c #7B736A",
"A c #78766B",
"S c #7C746B",
"D c #7D766E",
"F c #7E7870",
"G c #7F7C73",
"H c #817E76",
"J c #838077",
"K c #838178",
"L c #848179",
"P c #868579",
"I c #88877C",
/* pixels */
"@@@@@@+0ddfhfddd8ddddddddddddddddd8dddddddddddd8dddddddddddd8ddd",
"@@@@@@lPPPPPPPPPhPPPPPPPPPPPPPPPPPhPPPPPPPPPPPPhPPPPPPPPPPPPhPPP",
"@@@@@@lPPVVZSFFF8FFFFFFFFFFFFFDFFF8FFFFFFFFFFFF6FFFFFFFFFFFF8FFF",
"@@@@@@lPP6XX$&&&#&&&&&&&&&&&&&&&&& &&&&&&&&&&&& &&&&&&&&&&&& &&&",
"@@@@@@lPP0O@@@@@@@@@@@@@@@@@@@@@@@@@@@@@@@@@@@@@@@@@@@@@@@@@@@@@",
"@@@@@@>mm:O@@@@@@@@@@@@@@@@@@@@@@@@@@@@@@@@@@@@@@@@@@@@@@@@@@@@@",
"@@@@@@lPP0O@@@@@@@@@@@@@@@@@@@@@@@@@@@@@@@@@@@@@@@@@@@@@@@@@@@@@",
"@@@@@@lPP0O@@@@@@@@@@@@@@@@@@@@@@@@@@@@@@@@@@@@@@@@@@@@@@@@@@@@@",
"@@@@@@lPP0O@@@@@@@@@@@@@@@@@@@@@@@@@@@@@@@@@@@@@@@@@@@@@@@@@@@@@",
"@@@@@@lPP0O@@@@@@@@@@@@@@@@@@@@@@@@@@@@@@@@@@@@@@@@@@@@@@@@@@@@@",
"@@@@@@lPP0O@@@@@@@@@@@@@@@@@@@@@@@@@@@@@@@@@@@@@@@@@@@@@@@@@@@@@",
"@@@@@@lPP0O@@@@@@@@@@@@@@@@@@@@@@@@@@@@@@@@@@@@@@@@@@@@@@@@@@@@@",
"@@@@@@jPP0O@@@@@@@@@@@@@@@@@@@@@@@@@@@@@@@@@@@@@@@@@@@@@@@@@@@@@",
"@@@@@@:mm:O@@@@@@@@@@@@@@@@@@@@@@@@@@@@@@@@@@@@@@@@@@@@@@@@@@@@@",
"@@@@@@jPP0O@@@@@@@@@@@@@@@@@@@@@@@@@@@@@@@@@@@@@@@@@@@@@@@@@@@@@",
"@@@@@@jPP0O@@@@@@@@@@@@@@@@@@@@@@@@@@@@@@@@@@@@@@@@@@@@@@@@@@@@@",
"@@@@@@jPP0O@@@@@@@@@@@@@@@@@@@@@@@@@@@@@@@@@@@@@@@@@@@@@@@@@@@@@",
"@@@@@@jPP0O@@@@@@@@@@@@@@@@@@@@@@@@@@@@@@@@@@@@@@@@@@@@@@@@@@@@@",
"@@@@@@jPP0O@@@@@@@@@@@@@@@@@@@@@@@@@@@@@@@@@@@@@@@@@@@@@@@@@@@@@",
"@@@@@@jPP0O@@@@@@@@@@@@@@@@@@@@@@@@@@@@@@@@@@@@@@@@@@@@@@@@@@@@@",
"@@@@@@jPP0O@@@@@@@@@@@@@@@@@@@@@@@@@@@@@@@@@@@@@@@@@@@@@@@@@@@@@",
"@@@@@@:mm:O@@@@@@@@@@@@@@@@@@@@@@@@@@@@@@@@@@@@@@@@@@@@@@@@@@@@@",
"@@@@@@jPP0O@@@@@@@@@@@@@@@@@@@@@@@@@@@@@@@@@@@@@@@@@@@@@@@@@@@@@",
"@@@@@@jPP0O@@@@@@@@@@@@@@@@@@@@@@@@@@@@@@@@@@@@@@@@@@@@@@@@@@@@@",
"@@@@@@jPP0O@@@@@@@@@@@@@@@@@@@@@@@@@@@@@@@@@@@@@@@@@@@@@@@@@@@@@",
"@@@@@@jPP0O@@@@@@@@@@@@@@@@@@@@@@@@@@@@@@@@@@@@@@@@@@@@@@@@@@@@@",
"@@@@@@jPP0O@@@@@@@@@@@@@@@@@@@@@@@@@@@@@@@@@@@@@@@@@@@@@@@@@@@@@",
"@@@@@@jPP0O@@@@@@@@@@@@@@@@@@@@@@@@@@@@@@@@@@@@@@@@@@@@@@@@@@@@@",
"@@@@@@jPP0O@@@@@@@@@@@@@@@@@@@@@@@@@@@@@@@@@@@@@@@@@@@@@@@@@@@@@",
"@@@@@@:mm:O@@@@@@@@@@@@@@@@@@@@@@@@@@@@@@@@@@@@@@@@@@@@@@@@@@@@@",
"@@@@@@jPP0O@@@@@@@@@@@@@@@@@@@@@@@@@@@@@@@@@@@@@@@@@@@@@@@@@@@@@",
"@@@@@@gPP0O@@@@@@@@@@@@@@@@@@@@@@@@@@@@@@@@@@@@@@@@@@@@@@@@@@@@@",
"@@@@@@jPPB000ddd<ddddddddddddd0ddd5dddddddddddd,dddddddddddd5ddd",
"@@@@@@jPPPPPPPPPcPPPPPPPPPPPPPPPPPcPPPPPPPPPPPPxPPPPPPPPPPPPvIPP",
"@@@@@@6LLJHHHHHJkLHHGGGFFFFGHHHHHLkLHGGGGFFFFHJkHHHHHHHHHHHHkHHH",
"@@@@@@6sssssbbbb7bbbbssssssssabbbb7bbbsssssssss7saasaaaaaaap7aaa",
"@@@@@@5ppppaaasb7sbbssaaaaapppssss7bbssaaaaaapp7pppppppppppp7ppp",
"@@@@@@5uuupppppp4aappppppppppppppp5aapppppppppp7ppppppppippp7ppp",
"@@@@@@:tuuuuuuui-iiiiiiiiiiiiiuuui-iiiiiiiiiiii-uuuiiiiiiuii-iiu",
"@@@@@@:eeuuuuuuu=uuuuuuuuuuuuuuuuu=uuuuuuuuuuuu-uuuuuuuuuuuu-uuu",
"@@@@@@;eeeuuuuuu&uuuuuuuuuuuuuuuuu&uuuuuuuuuuuu=uuuuuuuuuuuu-uuu",
"@@@@@@@X&&& ....= ................= ...........=... ........=...",
"@@@@@@@,sss*33332%22222222222233332%222222222222222%222222222233",
"@@@@@@@,sss*33333%22222222222233332%222222222222222%222222222233",
"@@@@@@@5sss-eqqqq-qqqqqqqqqqqqqqqqq-qqqqqqqqqqqqqqq-qqqqqqqqqqqq",
"@@@@@@@5sss9-1222-799999979qqq=2222-999999799qqqq21&7qqqq2-22qq2",
"@@@@@@@5sss-bpppppppppppp9pppppppppppppppp9ppppppppppppppp1piiip",
"@@@@@@@5sss-puuuuuuuuuuuu7uuuuuuuuuuuuuuuu7uuuuuuuuuuuuuuu7uuuuu",
"@@@@@@@5sss-puuuuuuuuuuuu7uuuuuuuuuuuuuuuu7uuuuuuuuuuuuuuuquuuuu",
"@@@@@@@5sss-puuuuuuuuuuuu2uuuuuuuuuuuuuuuu2uuuuuuuuuuuuuuuquuuuu",
"@@@@@@@5MMMw--qqq7&79777117qqq-7qq9&797777-1qqqqeq777eeeeeeeeee7",
"@@@@@@@:895Xpeuuee1eeeeeeeeeeeeeeee1eeeeeeeeeeeeeee7eeeeeeeeeeee",
"@@@@@@@0nnn:peeeeeqeeeeeeeeeeeeeeeeqeeeeeeeeeeeeeee7eeeeeeeeeeee",
"@@@@@@@0nnn:peeeeeqeeeeeeeeueeeeeeeqeeeeeeeeeeeeeee2eeeeeeeeeeee",
"@@@@@@@0MMMw--2qqq7qqqq7777777=17qq7qqqqq777777772-o27777711qqq7",
"@@@@@@@0MMM:puuuuuuuuuuuu7uuuuuuuuuuuuuuuu7uuuuuuuuuuuuuuu1uuuuu",
"@@@@@@@0CCC:peeeeeeeeeeee7eeeeeeeeeeeeeeee7eeeeeeeeeeeeeeeqeeeee",
"@@@@@@@0CCC:peeeeeeeeeeee7eeeeeeeeeeeeeeee7eeeeeeeeeeeeeeeqeeeee",
"@@@@@@@0AAA:ueeeeeeeeeeee1eeeeeeeeeeeeeeee1eeeeeeeeeeeeeee1eeeee",
"@@@@@@@rAAAA5555:55555555555555555:5555555555555555555555555:555",
"@@@@@@@dAAAAACCCyCCCCCCCCCCCCCCCCCyCCCCCCCCCCCCyCCCCCCCCCCCCyCCC",
"@@@@@@@dKJHGGGGGzGGGGGGGGGGGGGGGGGzGGGGGGGGGGGGzGGGGGGGGGGGGzGGG",
"@@@@@@@-tttttttt9ttttttttttttttttt9tttttttttttt9tttttttttttt9ttt",
"@@@@@@@;&&&&&&&& &&&&&&&&&&&&&&&&& &&&&&&&&&&&& &&&&&&&&&&&& &&&"
};
