/* XPM */
static char *out[] = {
/* columns rows colors chars-per-pixel */
"16 13 16 1 ",
"  c None",
". c #563915",
"X c #5A4016",
"o c #5A4117",
"O c #5F4C18",
"+ c #604C19",
"@ c #604D19",
"# c #604E19",
"$ c #625019",
"% c #64531A",
"& c #64541A",
"* c #65551A",
"= c #65571A",
"- c #685C1B",
"; c #787B21",
": c #888930",
/* pixels */
"                ",
" .              ",
".;..            ",
" .;;.        .. ",
"  .::.      X:;.",
"  .::.  .  o:.. ",
".. .;. .;.@::.  ",
";:.O;;.::.+;;.  ",
".::#;;%::.;;=   ",
" &;;;;*;;$;;-   ",
"                ",
"                ",
"                "
};
