/* XPM */
static char *out[] = {
/* columns rows colors chars-per-pixel */
"15 13 14 1 ",
"  c None",
". c #563915",
"X c #583E15",
"o c #594016",
"O c #5C4516",
"+ c #5C4616",
"@ c #5D4817",
"# c #5F4C17",
"$ c #604C18",
"% c #625218",
"& c #66591A",
"* c #685D1B",
"= c #787B21",
"- c #888930",
/* pixels */
"           .   ",
"          .=.  ",
"         .-.   ",
" .      .--. . ",
".=.   . .-. .=.",
" .-. .=.==..-. ",
" .-. .-X==.-.  ",
" +==O--o==.=@  ",
" *==#==#==$=&  ",
"     ==%       ",
"               ",
"               ",
"               "
};
