/* XPM */
static char *out[] = {
/* columns rows colors chars-per-pixel */
"17 13 19 1 ",
"  c None",
". c #543414",
"X c #543514",
"o c #553615",
"O c #563815",
"+ c #563915",
"@ c #583D16",
"# c #593E16",
"$ c #593F16",
"% c #5B4217",
"& c #5C4617",
"* c #604C18",
"= c #65571A",
"- c #66571A",
"; c #6A5F1C",
": c #6C641D",
"> c #6D651D",
", c #787B21",
"< c #888930",
/* pixels */
"                 ",
"                 ",
"     +           ",
"    X,O.         ",
"     O<<#        ",
"      o<<$  Oo   ",
"    +. $,,$$<,O  ",
"   +,<$$,,%<<$,@ ",
"    &<,*,,:,$ O  ",
"     ;,,;,>,-    ",
"           ,=    ",
"                 ",
"                 "
};
