/* XPM */
static char *out[] = {
/* columns rows colors chars-per-pixel */
"14 13 19 1 ",
"  c None",
". c #553615",
"X c #573916",
"o c #573B16",
"O c #583C16",
"+ c #593D16",
"@ c #593E16",
"# c #593F16",
"$ c #5A3F17",
"% c #5A4017",
"& c #5A4117",
"* c #5E4718",
"= c #604C19",
"- c #625019",
"; c #695E1C",
": c #777920",
"> c #787A21",
", c #787B21",
"< c #888930",
/* pixels */
"   O          ",
"  .,%         ",
"   +:=    .   ",
"    #:.  .,.  ",
"    &<. .<.   ",
"    %<<.<<.   ",
" .. $<<.,,.   ",
".,<.X,,.,*    ",
" .<<o,,.,*    ",
"  @>;,,-      ",
"              ",
"              ",
"              "
};
