/* XPM */
static char *out[] = {
/* columns rows colors chars-per-pixel */
"13 12 7 1 ",
"  c None",
". c #563915",
"X c #5F4C17",
"o c #645619",
"O c #695E1B",
"+ c #787B21",
"@ c #888930",
/* pixels */
"             ",
"          .  ",
"        ..+. ",
"       .@+.  ",
"      .@@. . ",
" .    .@. .+.",
".+.. .++..@. ",
" .@@..++X@@X ",
"  X++X++o++O ",
"  o++o       ",
"             ",
"             "
};
