/* XPM */
static char *out[] = {
/* columns rows colors chars-per-pixel */
"12 12 9 1 ",
"  c None",
". c #563915",
"X c #5E4818",
"o c #63501A",
"O c #66571B",
"+ c #695E1B",
"@ c #777A20",
"# c #787B21",
"$ c #888930",
/* pixels */
"         .  ",
"        .#. ",
"       .$.  ",
"  .    .$.  ",
" .#.  .$$.  ",
"  .$. .##X  ",
"   .$..##X  ",
"   .$$.##O  ",
"   o##X     ",
"   +@#O     ",
"            ",
"            "
};
