/* XPM */
static char *out[] = {
/* columns rows colors chars-per-pixel */
"97 140 88 1 ",
"  c None",
". c #553714",
"X c #563D14",
"o c #593E14",
"O c #4A4F12",
"+ c #554413",
"@ c #5C4415",
"# c #564A14",
"$ c #5D4A15",
"% c #56461E",
"& c #5F4518",
"* c #5D4E18",
"= c #4E5313",
"- c #525513",
"; c #5A5313",
": c #565913",
"> c #5A5D14",
", c #575319",
"< c #5F5118",
"1 c #604717",
"2 c #614C16",
"3 c #604719",
"4 c #634C19",
"5 c #655415",
"6 c #655C15",
"7 c #6A5A15",
"8 c #65521A",
"9 c #6A541B",
"0 c #6A5C1C",
"q c #5E6115",
"w c #636516",
"e c #6C6516",
"r c #666916",
"t c #6A6C16",
"y c #666619",
"u c #6F6518",
"i c #676918",
"p c #6C6E19",
"a c #706417",
"s c #706916",
"d c #716518",
"f c #736B19",
"g c #6F7017",
"h c #6F7019",
"j c #717117",
"k c #74741C",
"l c #78731E",
"z c #77781D",
"x c #79791F",
"c c #5E4F2A",
"v c #57543C",
"b c #59553D",
"n c #5D593F",
"m c #604C22",
"M c #665323",
"N c #695420",
"B c #767621",
"V c #787720",
"C c #777820",
"Z c #7C7B22",
"A c #7F7C29",
"S c #5C5740",
"D c #5E5A43",
"F c #5F5B48",
"G c #615D45",
"H c #615E4A",
"J c #656045",
"K c #66614B",
"L c #68634B",
"P c #656050",
"I c #6D6457",
"U c #69665A",
"Y c #747065",
"T c #7E7A6F",
"R c #777774",
"E c #817E25",
"W c #827F2A",
"Q c #807C70",
"! c #838125",
"~ c #86822B",
"^ c #89852D",
"/ c #8C882E",
"( c #868231",
") c #8A8532",
"_ c #8E8932",
"` c #918B35",
"' c #868278",
"] c #8E8A84",
/* pixels */
"                                                                                                 ",
"                                               999                                               ",
"                                              9^^^9                                              ",
"                                       999   9^^^)9 99                                           ",
"                                      9^^^9  9^)^^l9)^9                                          ",
"                                      9^)^^09ZlB))lV^))9                                         ",
"                                      9/^^^^_zzBzzf)/_/9                                         ",
"                                       9^))/_^VVz)_/__0 99                                       ",
"                                  999  9E//)~^~Z___!//faEx9                                      ",
"                                 9~^^99EZ~^~^~^!___^!fffll9                                      ",
"                                9^^)^ZEZA^/_/^!Z/^_!!/ffxxE 999                                  ",
"                                9^^^)^ZE~^__/_!!E^^^!/!jfEx9xxx9                                 ",
"                                 9^^^^Z~~~__``!!``//!/!/^^~!xxxZ9                                ",
"                                 9)/__/^~^^/```/`/`/!!!/^^^^jExZ9                                ",
"                              999)^)_^/^^^jk````_```/!!!^/^jjZxx9                                ",
"                             8)))`//^_//ffff````f~/`!//!!jjjjxxZC99                              ",
"                            8)))__pp)_//jjj/````gh^~/g/!~!!hfjjk^~~4                             ",
"                            8)))))ip_)/kzzz``/`kghggg!/!!!!h!EE!~^~9                             ",
"                            8))_/tgZxZzkkezzzzzZZhgh!/!!!!!!!ZEE^^W4                             ",
"                             4hpggzxxxzjrtjzzzZ!EEg/!//^/__/!EEEejj9                             ",
"                         444 4hjgtzZZZqirrrkzZ!xZZh^!/!x_/__/ffs9j9  444                         ",
"                        4)))4pph!E!zZwiwwrzkzxZZ!^^/^^xxx`__`sfzk9  9fpk4                        ",
"                   844  4()))xZiEEE!Zwwiykzzz!^!!/~/kkxxxx__zkkzkkM8qppk3                        ",
"                  8())4  3)))xxiEEE!qwyiwkkk!!!//!/gkj/~~xjfzkxCxxkq0Bpp4 333                    ",
"                  8()()* 3))Cxiii!!!>wiwrwjj!!~!~~^hkk^^^!zzzjZxxxxwqqBph%VAC*                   ",
"                  8)()))3WCxZxrirtrt>>qyww667!~^!``_hh^~^~zzueCCxxCwyqyiyAACC8                   ",
"                   8))))~AgxC>iiZApi>:qqwwr566jjz/__`fh~~~zzkiy6CV6qyiiiiZCAA4                   ",
"               99  M)))A~At>>>qCCCC>>>:Bjrr6jjzjk`__)sspffVzkiy6666qqpiiiqq!AZ&&                 ",
"             88))88))))~E~p>>>>CZxx>>>kjjhw6!~!zjk__fdfVxxVzrerw666qqppiqwqqtthh&                ",
"            8)))))AA)))~Wegg>>CZCxjj>qphfhp!!!!jjj0edfaZZVEerxxx66,:qqqqqqgpgkkh&                ",
"            8)))))ZA_))uupppghjCChfjqqqhhfp!!!hjjj6saEExxxzrzxxxx;::,whhqhpghkhh&                ",
"            8))))ZAZ))uupg~!Ehhjgghpw>qqppp!!>>jj>>9nZZExxkkxxxzkk:-hhhhqhgtkhkho                ",
"             9tgAEEEiiuugWW!^^jphpgqq>trqq6:>>>--::NKZZEEjzE!zzzlj>gjjhhjjxEEZj&                 ",
"            8ptgAAEAuu~~gAW^)^hjjqw>>ttetqw>>:qw,::MJ9ZZxk!!!!jzjspk!xZggxEExZ&                  ",
"           8gpgghAAA)_)WA~/^)jp~~EE>>tyrr66:>qqqq-:9L9>qwj!!!x!!!ssZZZChtEExx1                   ",
"           8ttgp)))))_`~~ZZ^^h!!!~EE>rerr>;>qqqww-MLL5wqzzzE!!ZE!EhEC^^^jxExE1                   ",
"           8tgg)))`)))WWZZZZ!E!~~AAAwwrrrrrr>qwq-:MK9>zzzlzkEEEEE!Z^^(~(ggxxEx11                 ",
"            8tg))`)`k`_`ZZZZ!A>~!!Wwwwwwrrwwyqq-:-MK5kzklz!^~!k!Z!!~~~~-:tggVxEE@  @@@           ",
"             4BB)))kh))))Z^^EZqwqqqwwwqwyyiryw>>>-NGlzzlk^^~~^jffsZ^~~-:::tttEEE3 $kkh&          ",
"            4qBBZChhhk`)_^))^eueqqqqwww>>ywy::::>:Mnzlzzs^~~~fff~^~t:::::gttWEEE1 @jhk$          ",
"           4w>BBCC,hhk)`)k^^^^euqqqqeeqq:::--->>jzzn7fjss~^~ffj~~~Whpp:=>tttEEErr$>ggj*  &$@@    ",
"           4qwwVA,>hkh_)kjE^^EAhhhqeseewqq-----hzz!!jjjjjjjlzzk^~~^~rprq::tt$rrrrt>>www$$BBBB@   ",
"           4qwwwq::khkhBkj!EEZZjhggeeeesqqq-khkkl!!!!!jjjjkzzzjj~~~Wptp::1bn$-wrwe>qwwwwwBBBB$   ",
"            4qww0::>hhh<pkjZZEjghghseseew>w-kgkzl!^^!!!jhjzkkkjjg~Aprrt:2nb@---rr>>wwwwwqBBBB@   ",
"             4w6w66,hh8;kkkfjgZEZgt4neeqwqqqqjkzzz!!!!!auhzEEEgjggpttt:>@n@====:::wwqw:wwwBB$    ",
"              &660q>5<;>;*hZ!xZxZZp5Dn5qqqqqqqqkttj!~!!adg!ZxExjjknn<:::2G$-===:::qww>>qBBB*     ",
"          *34 40>qqqqq>;:gZEZZZZZZCq2n2qqq>qqw>>tg!!!!a!!^!xxEEkzj2nD$::1G$-jj;;:::>>>>wBBBB@    ",
"         4BBB*giq>>qqqq;hEZZZZuCxZZ>2nn2>>>qwttttg!!!!!^!!!jEExxkkl2GG$#GG$zjzj-;::>>>wwwBBBB@   ",
"        4BkBBtpigqq:qiiptZxExee-ZZ>>>*kkz::>A!ttp!!!!!!!~!!gt^(xCjj>2GGHG&-kkkh-;hh:>wwwwwkkB@   ",
"        8zBBktpipt::iiiipxExuue--:>>>BkBlz::ZZEtt!~~!!!g!!jgp^)^Ztt::$GH&-==kkk,hhhh:wwwwwww@    ",
"         4BB))Zgtp::itiipjpgpe--->>>qkBxzl:Z!!Ett!!!!!!ggtgstk^^tr::::@F@-=:rrrthhgg::wwwww#     ",
"        <tr))(AZg-::qiihppppp*-=::kk-wwqzzpZZEZ!!!!~!!!tzjgtkjk,;;:::-$S$-=prtrrhhg=::::EE$      ",
"      84ttt()ZZA::-hpqppptpgt,q:>kBkkqwwwpptpEEEEEj!!!qjjzjjjjj;;$,-=$Hkkk-ttttttr:===WEWWW@     ",
"     8((((tZAAEr:-hpppi<chptt,-:-kkkkpwwrpuuppZEEEkkjj5zzzj>jj=:;;==O$rkBzjpetrtrtr===WWWWA@     ",
"     5((((AAAAAwi-phpgi<Hcpp*=:::-thhtgBZCuetj))^E!!!j;;jj;;--=::::=1HilhBkiitzxxrtrrwrWWWW@     ",
"     8A(^AEAAryriihphh:4HG$*=:::->tipgBCCCCZs))))Z!!!!!;;;=:==:::gj$GGiphBztpzxxxz67rzWWW+@      ",
"      8AAAAAAAZiyqZCxg::4H4-==::::=ipzCCCCCCC~)))5AE!EE-->>-==>:hkkkkFwwwppiyCVVCC66CCWW@        ",
"       4A^((AWEr())Bxxui4H*::::==-qiqzzqBxCCxZZps5nEEE:->>q>==>:kkkhhwwwqppiqiwVBBe6VVBB@        ",
"       4((((WWE))))CxxyuuHH2:-=--wrqqiq(((CCCZChj2n2---=q>>>===:-kkrrwwt~~pwiCZZwywwwwBzW+       ",
"     44()(())AA))))CxBeppKK3ptt-=iqirq((((CBCCxs;2G2--:>>>>:=====@Drrtw~WWAwAZZVwwwrVzVWWW@      ",
"    4(((((~(CCEZ()iCCuhppFHttttw=qqqiq((((q(),,;<*G2::>>>>:==:==@DGttpWWWW(VCVVZABwCVCWWWW@      ",
"    *(((^A77ZZZVV-uyiupppptttttwiCkkqqi((qq(((;,-2HG2>>>>:=:====$DvvrrWW~~6VCAZZWWWCCBWWW@       ",
"    3(()ZA666ZZZ*=,ieyppgptgtwwrBkBBCrriiqq(((,==-$H$>>>>===>>==pklbtteWW06eZZqiWWWtCCW~r@  @@   ",
"     3ACZ&wwr677=,==ueepptiBBBwwkBkkzirqrwgg((tt==$H$::>>:=>>>=jzkktptttZZeuiiiqWWwwttrrwr@@WW@  ",
"      &&@wwwww667=tgZZZgiABABBrwBAAAzqriwhihipgpp-$F2>>>::=>>:=kkkBrrprxZZZtttwwwwwr-rrrrrj!WW&  ",
"         $qww>>w7ghAZAZZpAW)WzBzAAAAkkkqwihppgipp=$tte::>==:tt:zBktitppxZZC=tttwwwtt##;#rrz!WW&  ",
"         @qq>>q:ppZZ))(AAV)W)WzzAAApkkkkwhggqqttt=tptzx:--=tpeptpprWWtyVZxt==rr=trtrt#;;;:xxW@   ",
"          @>q>::ppZ()((AZAAW)WseAApikkBkkqqqqqptptteWWWx==ueghhppw~~~Wwrww-===;$rrtrt;#::xxx&    ",
"       &&&Bt:qqq>ph)()pAZ((((eeeit$rtkkhqqqqqtiir>>~W^WVe=u7W^WhrrW^W^rww-=:::#-=rrrr:::zzxxq@@  ",
"      &BzzBtiq:q=-pphppV((((~satu#=@tiip*qqqqtttt>>~WWZetet~^WWerr~~~xwrqq::-::==-rr::>:xxxx>rr@ ",
"      @lzzxtpqqq--,hhprA)(((&ete@==Otwt-*riiwwpi;>wwwxZxtee!~~~~yZCZZzwqqwq:--:==:::::::>xx>str@ ",
"      ozBxtp=:q=-wq-iiry(((*b$+*=====tw=$rrprwr>wwwwwZZZZZe^~B^~~~ZZxyw6wqqre:::=>:>::>:>>q>rtr@ ",
"       &tpt-:--,qyqqpiiiiie*SD2==>>-===%FFyrr==wwqqr~~~VZZ!AEx~(^WZZCw6wqweree::-:::>:=rwr>qtt&  ",
"    @&@tt---,::qyqiqpiiiiiir&F3>q>>>=,-$FD@=====wqq~~~~AZZZZZzB~^^ZZ^(~wqseeer:===:>=->wrwwq@@   ",
"   &BzBttppp=-qyqqqiueueuVlllFH@>>>>=::*G&=-=-:==qw~~~C~~AZABBB^^AZ~^~W^!sese;;--===->>rrwr@     ",
"  *lkkxBpppph=qiAE!qeeu~WWllllH$>q>>-::@D$::::-=trttZZZ(~^ZEpkkkjZZ^^~^W!!tt;;>jzk---::>>wwe*    ",
"  &zkBB~~~ppph>wZA^~ueZWW^WlBVH$;;,:>:-@G$::>::rrrtrtZZ^^~ArBkklEZW^d(^^~~rw;;zzzkt-->~~>>rtp1   ",
"   3kk~~~~uphphZZ~^^ZuZ^^~^ll3H@2;;,:>@Hn@:::::rrrrtCAW~~~yipkkzZ^^^ufp~~rrrgtzjkkt--W~~~>tti@   ",
"    &BW(~ueEZjjA^^^^ZEZEZ^^:;$PP$;==:>$Grr>>:::=trtxZ~^auyriyikjAWW/uhhrirwrttjzztt-Z~~~~>>>>2   ",
"  @$~~(~~uZEZApE^~^jEZEZAZZE-2PP$--=>:@trrr::===-rtCE^W7ahhiZirwr^)fkhhirirgtgtgttttZZ^~tt>$@    ",
" $W~~WB~(~(AZEZ!(^hhZZA~^^ZZZZ$GH@-zVZ@twrr::==gjhktW~tptppZxErrrwwjhhiZEtrpttprttptZxxspe2      ",
" $WW(WB~~^~kEZZ^^phhA^~)~~A~~ZZ2Gn@ZZZZtrrr:>:hggshrr::tppxxxEwwwywhhhCZxxptpssspEE!xpggW)^1     ",
" $(WWkk~(^WzkE^^^^hg!^^~^ZZ~~~~@nxZZZCZrrr--::hpggttr::-ttZxxxwwwrppphZZxZZitsssEE!WZgtZ^W~1     ",
"  &3kjzZ~~VlxB^^^^ghg~~^ZZZ^^~~2ZZxZZZZrrt-=-tpkjjrr--:::tZxxwppegzztpgxxZxyssssE~W~ZxZZ~~^1     ",
"    $&ZAAB~(xx~(()ph-,:-EZZZ^~~ZZW~~Czkkkrr-trr--rr---::wrrwytttpkzzzt5tCZrwiwre7~!ZxZx23*1      ",
"      $AZ~~~xuu^)d>,-::-^^^ZZptZW^~~wlBkkzrtttw:-:>>--ttewwwrtttkkkkk2$tttrrriw5-::xZZ@          ",
"      1C~~^^~~aaudq--:-)~~^<;peZ^W^twwzkzktxExrr:>>>=tpttpwrkkk+kkjk#$25trwBk66:::::::>@         ",
"    @$tt~~^N~)~Zyqqqq--(^~;>>;tt^WetwrkzZxxxxxrrr>q>jtttt++rjlzk###=====2;kkkk:::::66y>@         ",
"   &rttrp~~0~~^ZZq>>>q>5;;>>6;tttttrtrprZZWW^errr>>>grtg%bc+jzjj=-;;OO==rrjzBkk-::w66w6&         ",
"   @rrttiip0N^~ZZ>rri>>>6;5rw;rttttrtpxkk~^WWxr>>>:-#gtt%bb##jj+===;;O=rrrzjhBB-:-6ww6&          ",
"    @ttttt@0NyZZZ3rwyr>&>;wwrwtttt;;txElk^WWxxzx--->>;+%vv@O=+#====;;;rrrttjkO=,-::@&&           ",
"     @@@@$qqqqqq$ @rrw@ 2wrwzzttZx;;;xxWWW^W~xxx--->q>+cvv+OOOO=-:>#;;rrjjr===qqq:@              ",
"         &qqqqq*  1rrr@ @wwzlkztZZZ--x!^!@$EWWx$q>->>>@vvv@O;-;=>:>>#+@rjjBh=Oqq>q>&             ",
"         @wqqw*    @@@   &wkzzzzEZCA;z^E!@:#W~$>>>;;;@vvv+-;;#;::>::@ R&jkhkO@>qqq>&             ",
"          1@@@           @zz^WkkAAZZ#1^E11=-++q>q@;;-+vvc@;;-;-=::>:=+  @hjk@ @qqqo              ",
"                         &k^W~@kA~~C;@@$bb@=;-qqo +oX@vvv+>>#;======-+   @@o   ooo               ",
"                         @~~~@ @!~~::@bbbb@-;;:-o    @vvbXqq>===Oq>q=o                           ",
"                          o@@  o:>::::@bbbo>q;;;X   XbvvXqqq>===qqqqo                            ",
"                              o>:ww:>:obbbboqqq;@   XvvvX+qq>-Xqq>qX                             ",
"                              owwqw::qqobbvoqqqo    XvvvX XX+X Xqqqo                             ",
"                              owwwXoqwwXbvvbooo     XvvvX       XXX                              ",
"                               ooo  XwwXvbbbX      Xvvvvo                                        ",
"                                    XwwXbbbv@      XvvvX                                         ",
"                                     XqqoGvvvX    @vvvvX                                         ",
"                                      oo+HPHSo    @vvvvX                                         ",
"                                        XHHHFF@  @FvvSS.                                         ",
"                                         oUHFPH@+KHHHSo                                          ",
"                                         oUUHFFFHFHHHHo                                          ",
"                                         oUUUUUFHHHPPX                                           ",
"                                         @UUUUUUUUUHP+                                           ",
"                                          @YUUUUUUUUU@                                           ",
"                                          +YYYUUUUUUU+                                           ",
"                                          @YYYYYUUUU@                                            ",
"                                          @IYYYYYYUU@                                            ",
"                                          @IIYYYYYYY$                                            ",
"                                          @TTIITTYYY$                                            ",
"                                           $'TTTTTY@                                             ",
"                                           $'Q'''TT$                                             ",
"                                           $']]'''T$                                             ",
"                                           $']]]''T$                                             ",
"                                           *']]]]'I$                                             ",
"                                           3']]]III$                                             ",
"                                           4']]]]'T$                                             ",
"                                           8']]]]'Q*                                             ",
"                                           $']]]]'Q$                                             ",
"                                           $']]]]'Q$                                             ",
"                                           $I]]]]'Q2                                             ",
"                                          @IIII]]'Q$                                             ",
"                                          @'']]]]'Q3                                             ",
"                                          @']]]]]'QQ&                                            ",
"                                          @']]]]]''I@                                            ",
"                                          o']]]]]'II@                                            ",
"                                          o']]]]IIIT@                                            ",
"                                          o'']]]]''To                                            ",
"                                           o'']]'''o                                             ",
"                                            .'''''o                                              ",
"                                             .....                                               ",
"                                                                                                 ",
"                                                                                                 ",
"                                                                                                 "
};
