/* XPM */
static char *out[] = {
/* columns rows colors chars-per-pixel */
"80 124 87 1 ",
"  c None",
". c #4F2D12",
"X c #512D12",
"o c #4F3212",
"O c #533413",
"+ c #553B13",
"@ c #593D15",
"# c #51371A",
"$ c #553C1B",
"% c #583F1D",
"& c #544C0F",
"* c #4E520F",
"= c #54570F",
"- c #464C10",
"; c #494E11",
": c #554212",
"> c #5B4415",
", c #544C11",
"< c #5D4B15",
"1 c #56421E",
"2 c #5C411B",
"3 c #5D491A",
"4 c #4D5210",
"5 c #525511",
"6 c #5C5312",
"7 c #555912",
"8 c #5A5D13",
"9 c #5A5B1E",
"0 c #624C17",
"q c #634D18",
"w c #625415",
"e c #655D13",
"r c #6A5E16",
"t c #655319",
"y c #68561A",
"u c #6A5A1B",
"i c #5E6114",
"p c #636515",
"a c #6B6215",
"s c #666914",
"d c #6A6C16",
"f c #666719",
"g c #676919",
"h c #6D6E1A",
"j c #716B15",
"k c #716919",
"l c #6E7017",
"z c #6F7019",
"x c #74751C",
"c c #78771E",
"v c #77781D",
"b c #79791E",
"n c #5A4622",
"m c #5D4823",
"M c #5F4929",
"N c #56543A",
"B c #604B2A",
"V c #635333",
"C c #767621",
"Z c #787722",
"A c #7C7B23",
"S c #7F7C28",
"D c #5B5644",
"F c #5F5D47",
"G c #5E594A",
"H c #605D47",
"J c #615D4A",
"K c #655F50",
"L c #676454",
"P c #6D6556",
"I c #726B5D",
"U c #736F60",
"Y c #786F62",
"T c #7D796C",
"R c #807F23",
"E c #817E2A",
"W c #807C6F",
"Q c #817D70",
"! c #818023",
"~ c #85822C",
"^ c #89842E",
"/ c #8A8530",
"( c #8E8935",
") c #858176",
"_ c #878379",
"` c #888479",
"' c #8E8B83",
/* pixels */
"                                                                                ",
"                                                                                ",
"                                     uuu                                        ",
"                                    t~^^y                                       ",
"                                ttyrh^~~u                                       ",
"                               y!!Alh^~~~t                                      ",
"                               uAAA!A!/~/zy   333                               ",
"                               u!!A!!RRE~/~u t~~^3                              ",
"                                yA!ARRRR~/^a t~~^3                              ",
"                             tyt^//!!!Rl/^/ut~~/Zq                              ",
"                            y//^/~//!!lljkhkz//AAl3qq                           ",
"                            t^^^/////(llRRkkdRAddlCCCq                          ",
"                            y^^///R/////RR!ll^/~lCxCCq                          ",
"                             qt/~/vRR///!!Ax^^~/^CCCCt                          ",
"                               q!RRR///((RRA~/~/~ZCCt  ttt                      ",
"                              thRA////h((((R///CZZist thxzt                     ",
"                        ruy  tzxx(((/(h((((^~/~/sigsdt~S~zx9qtq                 ",
"                       y!!!qqfhxx(((/kkR((/^/~/~sggdd~~~~zhZZZZ3                ",
"                       y!!!!!ffxz(((izzR!!R~/~~bvRAAd~~~EhhZZZA3                ",
"                       tb!!!!fpsgi9iihdg!!R!RbvbvbRbbE~!zhffZAZ<                ",
"                        w!!!zzgsgfiiiddgds!Rbbbv~~~Rbddd77ifgif                 ",
"                    qqqq!!!!!zziii9hliiisdR~~~Rb~~~bdd&677ffiff3<3              ",
"                   yCCCZ~//!!llpizxzlliisR~~^~bA~~!Abbd6,67iffiCZC<             ",
"                   txcc^/~~/!zj8!!zzllbRd!~~~bRssp^^^bddgg774ssCZZ>             ",
"                   tcc~~~~~^bbj!!RRll^~RRbRd!!~!aa^^^^ssgs57ssdsCZ<             ",
"                    0<E~!~abbb!!!!R!R!~~bRdd~~E~daa^^^dsssssCvvdd>              ",
"                      0R~!dccc^^A!bb!b!~bbdsslxxss5555Ccxsssvvvv>               ",
"                       0ppaacc(^^bbRbap~E~!slll!Rss55xxxCsesCbvv>               ",
"                       <iiiaaaE^ERRRaasRRRSszzSSSSss=xxcxeeevv>>                ",
"                <q0   <ii8i==bR^^^R^^assS!Ssp=*SSAAp=ccxeeeee>   >><><          ",
"               6zzh>>>iidd==bR^^^^^^^sssslllpp4>AAA7===iii777<  >7ZSZZ>         ",
"              0dzzz~^~bddds=b^^^jRE^^llsilllsi3DD&88===8ii;777>>88ZAZZ>         ",
"              <djl~~~~bddss=R^^^jj55zlz**jlldpnD:=88=**8i*-7777877ihZZZq>       ",
"               3ps^~^bRbcde=6^^jj<54llz***lds&DF:8=8*****-*77cC=785zhhZZZ3      ",
"             wwkppsiRbbbbpip6&>J:===plll*****>N:===8&&*=*=**hCcC475zhhZSZ3      ",
"            wxxx^~^bbRRbpiii6<JH:7ddpppp**sss:F+i--*&&==7*=*kCxC55ssgfra>       ",
"           yxhxE~^~RbRhddiilddH&=lddvxsp*issdsN:-----===7**5CChg5sssssr<        ",
"           wxxz^^~RbRbbRddddddd==llvxxliiissssH:----====dd55CCgspssdssaf<       ",
"            <00hd^~^dR!bblb!blddsllvvvvpiiisd+N:ds--===dddh45dh8isdss757>       ",
"               0~^~^abR^^~!bbdddds^^!lddjiiiiiidsdd***=dhdAAAASiipsss7550       ",
"               0!^~/hdl^^^~bRvvsd~~~!sddddiiiiisdsd**4&lddbb!AZbvips5dd< >>>    ",
"            uuub~~rehxxx~^^Rvvvvx~~~ssldddxliisdd**44&&&ippRSvvvvppisdss>CcC>   ",
"           qEERAArrylxzxxlhhvvvvj^EbcsssllxxiddddA444ddipspppcxbcivbvdssscCx<   ",
"          y^^^^RRe8866xxx66hlvv~~~bbccxpvvxv&ddsSSS&ddlCbpppAASSccSESssdssscC>  ",
"          uE^^^/Ar87887666w6d^~~~~~~Rbvsvvl&&&sRSSE,ddCAvppARAEArCSSSzhSEsg~EE< ",
"          u^^/^^wff9ifp9976hd~~~~b~!EEbsssp&&&=RES,,dACCxeeAAEErrSSShhhSESSSEE> ",
"           uuyqqsgfiipp888zddl^~abb^~Sessp&ssp=*4&,,7CZxaeiapsfrr4gzhh,SSEEs~S> ",
"             qsgscxCfp88iillvvaabbbbraesssssppp*4,,-7i77nDeasspp-4--<,,<SSSss>  ",
"       yyy   tgsgcccxilziiigbbaAAbbbvaessvxsppp44*44;i7inG1iisis;;;-55,,<pssss< ",
"      ybbvu  ycccbxvvzzdhllvvvbxbAbEEsdsvvvxpdll*544;i79nGCCCgsspe55=45,hSSpsi7<",
"      ybbbZ0qvcvv8vbvzlzvvvvxvxcdd~~~ssdvAAvllddd,4;;;;nGCCCCC;ppep545*zSSSZ8i7<",
"      ybbbblhbCRSRsszlzvbvvvvvvdddE~dsiiASAslldhh,;4;;;nGCCCz--eeep44*4xSZS8888<",
"   ttwshbbbhhh!RSS!sll!AvbdvvvZAbddbbbpiSAs,hzdh,4;4;;;nGCZZ-;;;iip-;4**SZ-888> ",
"  wxcchshx!!!dhARRSsslRR!Azdd~~~bddbbZiiisss,,,44;;7747nG1;;-55555-;-;**544::<  ",
"  yxxcshdR!!!dhjjl~~~lSAAldz^~~~ddAbbbZvvsss,,44;;77777nG+;;54545-;-==4744:     ",
"  tcc^//^!!!!!!jj^~~~zhhldM5~~~aAbbbbbbvESsps,4ps;5557nGGggg554555--==77745<3   ",
"   q^^//^hRR!!!!x~~~777hlKB557aab~~Evv~SEEEssppssi575nGGghghs455ssi47577=5ggg<  ",
"    q^//qhhd!!^^zRR77775@KLM77aa~~E~ii~SEEEpssxxssg5sssGdsxcc44siss477dg5pggh<  ",
"    qqwqdddd!////RR777777>KM7xzxE~Eiiiv:EEpfs,xkzzs4issigccxcp4sgsshzdzhhighg<  ",
"  qqhhi9!!!!///^/RR!qe7xxxKM5xxlzdii8Zcb,,J:,4xxxCzgEEssdccCxsssZAZzzzhzsiii>   ",
" 3hkhChR/////^^^ARAA0ixxxxxl7xlxdsiibbvb,,J>55:zzCzEEEgipcxcCrrASAZZzhzhiii>    ",
" qhzhkh(^///ytt^^/^qiixxxzlxdddssraEEEES,;JG:441,,EEEEssrrvCerCAZASAgsfzxzi>    ",
" 0Chhk8t^^/qwpp0///qiiilxx~~dssssaeEEES>5;>G>57744EEEiiirrvxcccZZSAippsxzxxx<   ",
"  030988tttewfpp3VMiii5d~~~~~dsaaa>>EE>;;;:GG>757$GKiiiipvCxcCcCxsssssg@hhhCt   ",
"     3fghhw878finLKq577h^~~~~dsar>,5>@*4;*&:G>574>GCviiiCAZcccCZwfsssp+ >zxC6   ",
"     qghggg897ifi%KKVxgaaa~~Ebbbb55,5,,7784:GG>4$GCAZZiZZAAfSZZZ6w6sss=@ 36q    ",
"      000sgppifip82KvjxvaaAbbEEEZb5,,,,77555:G:4+GZASZCAAA,gZZSEw6ww7757>       ",
"         3pieiii6wwcxvlbbbbAb~E~Ecs4,5**8878@GG+GGGZZCgZAZ6,SAA5=5=47777>       ",
"        <hhiildle86xxxRbRbbbba~EEvd7****4i7CCCCGGG+55ssZZs7556&=7ii7*55:        ",
"       0dddpldl!AA8lddbbbbbcbarasss47=**;;CCCCCxGGO44szzpsp6,&6i8i7i55> :<3     ",
"       <hlllhdhbbbw7hdjjj~E~brasssO7*i88**CCAZCxGpsps4zzzsspspi88izz555>sgd<    ",
"        >ddAblhbRhhd87jj~~~EpippGFO*i78ii;4CCCsssppzhzhzjsssss8iilxzz55isgs<    ",
"         >^^AAhjjhddddjj~E~~iipGFFG+8888i*4**pspccxhhllxhsccbaiilllzd55iiii7    ",
"       tth~~^Zjjjdcxxxdd~~~zzzpJFsps88=6574;*sppxcxchxiiixvbbsssxxxziiizzii3    ",
"      wAZA~E^^jAbecvvvxdsdsxxjhGsspss6667577**=ppxcxiiiiicvbZassssiiiixzzzi<    ",
"      <AAZC^E^jAbb6vxlx5dsdjzadavxpps66ighd*;=ppppiiiicccbvcaaacbvviiixxxx>     ",
"      0ZZZZZAA^E^~66545Zbbbasjacvvxpps8ihhhg*;ppAZAiipcccvvaarbAbbbiidxxx>      ",
"       tyZCC!bE^~~78555Zbbbbbdavxvvpspii8hhh;4pCZZZAp85CESESEabbRbbCddsd@       ",
"         >j~~~~E~77855pbbbbcccvRSSvsllziii8+**OCZCZZccc,EEE~Eb77=b~!!sddh@      ",
"        <jj~~~~767777iipbbb,6cRRSRxzlvCC:::,&ONO+:CvccC58E~ERb57=A~~~dxxxx>     ",
"        0ddsEE66pp777iii66,bccRRRSczZZCZ:,;:4ONNo*ccccC59i8bbbb5fp~EExxxcx2     ",
"         <ddh2>piii77ii8766bcxSSA77zAZx:;,,44ONNO-:CcC,8i8ibAbbppfpf>xxcx2      ",
"          >00  @8pi$+7757CCcSScc777$1%$No&;;ONNNO;;::5987iZb~~bffsgff@@3>       ",
"                @@@  <575CEESSxcxvx$NNNN+*;&ONNO*&4zkhpiivR~EEffgzxkx2          ",
"                   <<ssd5ERES<cSSARv@NNNNO+ONNNO-47hChhfpEEE~E@>zhChx>          ",
"                  >CxxsgfEEE>4,SSSSS#NNNNNNNNNNO577hhzhhrrE~E@  >xCkk>          ",
"                  3hhChgs><,4*&+ASS##NNNNNNNNNNO5aeehhhxxhzxxh@  3>@@           ",
"                  >xChh@+pi55=6&+++6XNNNNNNNNNO77erCZZChOhhhhx@                 ",
"                   +@>>  +ipi*=o=&&&6oHHNNNNNNX77eCCZZZ$ @xkhq                  ",
"                         +ipii+ o88&&.HHJHJNNN#piOZZCZC@  00>                   ",
"                          +i8pO O885&.HHHHHJJH#ipiO+ZZC@                        ",
"                           oOo  +88is.HHHHHHHOipiiO O@@                         ",
"                                 O+ps.LLHJHHHOiii+                              ",
"                                   +ifOLLLLHF+ii@                               ",
"                                   +if$LLLLLDO+@                                ",
"                                    oO%LLLDFD+                                  ",
"                                      $IULLLL+                                  ",
"                                      $UUUULL1                                  ",
"                                      @TUUUUU@                                  ",
"                                      %TTTTUU:                                  ",
"                                      %ITTTTT@                                  ",
"                                      1IIITTT>                                  ",
"                                      n))Q)TT>                                  ",
"                                      m)''))T>                                  ",
"                                      B_`''TT3                                  ",
"                                      B`''')T1                                  ",
"                                      BQ'`')T>                                  ",
"                                      BQ''')T<                                  ",
"                                      B_'''_I>                                  ",
"                                      3_'UUIP3                                  ",
"                                      B`'''__Q>                                 ",
"                                      BQ''''_Q>                                 ",
"                                      m`''''QQ2                                 ",
"                                      >_''''`Qq                                 ",
"                                      @I''''`Q2                                 ",
"                                     @IPW'''`Qq                                 ",
"                                     @`'WIW'QQ0                                 ",
"                                     >`'''Q''Q@                                 ",
"                                     @`''''QQQ2                                 ",
"                                     $``''''QQO                                 ",
"                                      X`Q``QQX                                  ",
"                                       ##O#O#                                   ",
"                                                                                ",
"                                                                                "
};
