/* XPM */
static char *out[] = {
/* columns rows colors chars-per-pixel */
"24 23 65 1 ",
"  c None",
". c #563316",
"X c #563416",
"o c #563516",
"O c #563616",
"+ c #573616",
"@ c #573717",
"# c #593917",
"$ c #5A3A17",
"% c #5A3B17",
"& c #5A3C17",
"* c #5C3E17",
"= c #5B3C18",
"- c #5B3D18",
"; c #5C3E18",
": c #5D4018",
"> c #5E4018",
", c #5E4118",
"< c #5F4218",
"1 c #5F4318",
"2 c #505414",
"3 c #535714",
"4 c #585C17",
"5 c #595C17",
"6 c #604318",
"7 c #604319",
"8 c #614418",
"9 c #604519",
"0 c #614519",
"q c #614619",
"w c #634619",
"e c #624719",
"r c #634719",
"t c #634919",
"y c #63481A",
"u c #644919",
"i c #644A19",
"p c #64491A",
"a c #644A1A",
"s c #654A1A",
"d c #654B1A",
"f c #645B17",
"g c #606318",
"h c #636518",
"j c #626419",
"k c #636619",
"l c #686B1A",
"z c #6A6D1B",
"x c #70711E",
"c c #71721E",
"v c #71721F",
"b c #72721F",
"n c #7F731E",
"m c #797921",
"M c #7B7A23",
"N c #7B7B23",
"B c #7C7B24",
"V c #84822B",
"C c #85822B",
"Z c #85822C",
"A c #85832C",
"S c #86832C",
"D c #86832D",
"F c #86842D",
"G c #87842D",
/* pixels */
"                        ",
"                        ",
"          dds           ",
"         dVVVi          ",
"         dVVVmia        ",
"         dVVVmllp       ",
"       daVVmmlllt       ",
"      aVVVVmmmmllrrr    ",
"      aVVVVmlmmVVllle   ",
"   iiaBBBVVllmVVVVllq   ",
"  iDFVBBBMNmmlVVVVllf80 ",
"  uDGGGBzCSZAmlllllff337",
"   pGDGnnVDAAmlvvfff333<",
"   ybccnnnnAAllvvvv22>, ",
"  wxvvv5vvvllllffvvv*   ",
"  0xvv55vvvfllffvvvv2=  ",
"  955555vvff2222vvv22#  ",
"   1<65khg22255522222@  ",
"      :hggj2$45552+oo   ",
"       ;ggj% #555o      ",
"        -&$   OX.       ",
"                        ",
"                        "
};
