/* XPM */
static char *out[] = {
/* columns rows colors chars-per-pixel */
"38 35 219 2 ",
"   c None",
".  c #593916",
"X  c #5A3916",
"o  c #593A17",
"O  c #593B17",
"+  c #5A3A16",
"@  c #5A3B16",
"#  c #5A3A17",
"$  c #5A3B17",
"%  c #5A3C16",
"&  c #5A3C17",
"*  c #5A3D17",
"=  c #5B3D17",
"-  c #5B3E17",
";  c #5B3C18",
":  c #5B3D18",
">  c #5B3F18",
",  c #574115",
"<  c #5C4017",
"1  c #5B4118",
"2  c #5C4218",
"3  c #5D4318",
"4  c #5D4418",
"5  c #5F4418",
"6  c #5E4519",
"7  c #5F4618",
"8  c #5F4718",
"9  c #5F4619",
"0  c #5F4719",
"q  c #4D5213",
"w  c #4E5213",
"e  c #4E5313",
"r  c #4F5313",
"t  c #4F5413",
"y  c #4F5414",
"u  c #505414",
"i  c #505514",
"p  c #585413",
"a  c #585414",
"s  c #595414",
"d  c #595514",
"f  c #5A5514",
"g  c #5A5614",
"h  c #5B5614",
"j  c #555916",
"k  c #565916",
"l  c #555A16",
"z  c #565A16",
"x  c #575A16",
"c  c #575B16",
"v  c #565A17",
"b  c #575A17",
"n  c #565B17",
"m  c #575B17",
"M  c #575C17",
"N  c #5A5C17",
"B  c #5A5D17",
"V  c #5B5D17",
"C  c #5A5E16",
"Z  c #5B5E16",
"A  c #5B5F16",
"S  c #5A5D18",
"D  c #5B5D18",
"F  c #5A5E18",
"G  c #5B5E18",
"H  c #5B5F18",
"J  c #5C5F18",
"K  c #604718",
"L  c #604818",
"P  c #604918",
"I  c #604819",
"U  c #604919",
"Y  c #614919",
"T  c #604A19",
"R  c #614A19",
"E  c #624A19",
"W  c #634B19",
"Q  c #614A1A",
"!  c #614B1A",
"~  c #624B1A",
"^  c #634C19",
"/  c #634D19",
"(  c #634C1A",
")  c #634D1A",
"_  c #644C1A",
"`  c #644D1A",
"'  c #654D1A",
"]  c #654E1A",
"[  c #654F1A",
"{  c #5C6018",
"}  c #5D6018",
"|  c #5C6019",
" . c #5D6019",
".. c #5D6119",
"X. c #5E6119",
"o. c #5F6219",
"O. c #666117",
"+. c #676117",
"@. c #616318",
"#. c #606219",
"$. c #606319",
"%. c #606418",
"&. c #616418",
"*. c #616518",
"=. c #616419",
"-. c #626518",
";. c #626419",
":. c #636519",
">. c #626618",
",. c #626619",
"<. c #636619",
"1. c #63661A",
"2. c #656718",
"3. c #64661A",
"4. c #64671A",
"5. c #686318",
"6. c #696318",
"7. c #696418",
"8. c #6A6418",
"9. c #6A6518",
"0. c #6B6518",
"q. c #6B6618",
"w. c #656818",
"e. c #666818",
"r. c #65681A",
"t. c #65691A",
"y. c #65681B",
"u. c #66691A",
"i. c #66681B",
"p. c #66691B",
"a. c #666A1A",
"s. c #6A6B1A",
"d. c #696C1A",
"f. c #6A6C1A",
"g. c #6B6C1A",
"h. c #6A6D1A",
"j. c #6A6D1B",
"k. c #6B6D1B",
"l. c #6B6E1B",
"z. c #6C6E1B",
"x. c #6C6F1B",
"c. c #6D6F1B",
"v. c #786D1C",
"b. c #796E1C",
"n. c #7A6E1C",
"m. c #7A6F1C",
"M. c #7B6F1C",
"N. c #6D701B",
"B. c #6E701B",
"V. c #6E711B",
"C. c #6F711B",
"Z. c #6E711C",
"A. c #6F711C",
"S. c #6F721C",
"D. c #70721C",
"F. c #70731C",
"G. c #72731E",
"H. c #72741E",
"J. c #74751E",
"K. c #74761E",
"L. c #75761E",
"P. c #75771E",
"I. c #7B701C",
"U. c #7B701D",
"Y. c #7C701D",
"T. c #7C711D",
"R. c #747620",
"E. c #757620",
"W. c #767620",
"Q. c #767621",
"!. c #767721",
"~. c #777721",
"^. c #757522",
"/. c #757622",
"(. c #757623",
"). c #777722",
"_. c #767623",
"`. c #767723",
"'. c #787723",
"]. c #797920",
"[. c #797A20",
"{. c #7A7A20",
"}. c #7B7A21",
"|. c #7B7B21",
" X c #7B7B22",
".X c #7C7B22",
"XX c #7B7C21",
"oX c #7C7C21",
"OX c #7D7D21",
"+X c #7D7C22",
"@X c #7D7D22",
"#X c #7E7D22",
"$X c #7E7E22",
"%X c #7F7E22",
"&X c #7F7E23",
"*X c #7F7F23",
"=X c #787824",
"-X c #797824",
";X c #807F23",
":X c #807F28",
">X c #817F28",
",X c #807E29",
"<X c #817E29",
"1X c #817F29",
"2X c #827F28",
"3X c #827F29",
"4X c #818023",
"5X c #828029",
"6X c #868231",
"7X c #878231",
"8X c #878331",
"9X c #888331",
"0X c #888431",
"qX c #898431",
"wX c #898531",
"eX c #898532",
"rX c #8A8532",
"tX c #8A8632",
"yX c #8B8632",
/* pixels */
"                                                                            ",
"                                  ) ) ` (                                   ",
"                                ` 0X0X0X0X)                                 ",
"                        ` ` '   [ qXwXqXqXs.) ) )                           ",
"                      ` R.W.W.] W.wXwXwXf.g.$X#X#X^                         ",
"                      ] E.W.W.Q.Q.].].].].%X%X$X#Xc.^                       ",
"                    ] wXeXeX!.!.~.2.{.{.[.&X&X%X$XN./                       ",
"                    [ wXeXrX;XQ.2.w.tXtX{.;XeXwXB.B.N.^ W E                 ",
"              ` ' ' V.D.rXrX;X;Xe.tXtXtXtX|.rXeXwX%XB.#X@X+XE               ",
"            _ #X$X%XA.2.2.w.;X;Xe.yXyXtXtX|.tXrXeX%X$X#X#X@XE               ",
"            ` #X$X%XA.2.2.;X;X4X4XyXyXyXtX|.|.rXrXwX%X#X#Xb.b.v.Q Y         ",
"            ` #X%X&X*X;Xe.;X4X4XyXyXyXyXoX|.|.tXrXeXwXm.n.b.x.c.1X,XU       ",
"          _ c.B.B.Z.;X;X;X;XyXyXyXyXyXOXoXXXT.Y.rXeXwXP.L.K.x.1X1X,XU       ",
"        ( c.N.qXwXeXrXtX;XtXyXyXyXyXyXyXoX|.|.Y.Y.U.M.P.L.K.J.1X1X<XI       ",
"        ( c.N.qXwXeXrXtX;XyXyXyX4XyXyXyXD.tXtXtXY.A.B.P.L.K.J.z.l.R         ",
"        ( x.c.B.wXeXrXtX;XyXyX4X4XyXyXyXD.tXtXrX*XZ.B.N.5X5X3Xz.l.Y         ",
"    ! ~ +X@X#X#XM.I.&X;XT.T.T.4X4X4XyXyXD.D.tXrXA.V.B.9.5X5X1X1Xl.k.L I     ",
"  T 6X8X+X@X@X#XB.I.eXrXtXT.D.D.4X4X4XD.D.S.A.A.A.o.o.9.8.5X1X1X| k.j.h.0   ",
"U 6X6X8X8X+X@Xc.B.B.wXrXrXA.S.D.;X;X;X;XS.A.A.$.#.o.o.8.8.7.6.5.J j.j.h.d.9 ",
"U 6X6X7X8X+X9X0XV.B.q.eXrXA.A.S.F.tXtX;X;XA.A.Z.B.$.N.c.X. . ...} { h.f.d.9 ",
"T 6X6X6X8X8X9X0X0X0.0.q.q.=.D.;X;XrXrXrX*X&XZ.%X$X#Xc.x.x. .| } j.j.h.G F 6 ",
"  U 6X6XH.H.8X9X0X9.0.0.;.eXeXeXeXrXeXeX&X%XB.$X#X#X@Xx.z.,....X X|.f.F 4   ",
"    Y G.G.H.6.7.8.8.9.B.B.wXwXwXwXZ.wXwXB.B.B.#X#X@X@X7.<.,..X X|.}.+.F 3   ",
"    U =X-XH.X. .7.c.c.N.V.qXqXwXC.B.B.B.o.N.#X#X8.7.7.6.,.-. X X|.+.O.q q 2 ",
"  P ).=X-XG.1.3.4.x.c.c.c.h N.V.h B.B.N.o.X.#X@X@X7.6.`._.-.*.>.&.+.%.q q 1 ",
"  8 '.=X=X:.1.1.3.z.x.x.f g g g g N.a.u.o.X.5X2X>X:X5.`._.(.*.e &.%.%.q q > ",
"    8 H H :.:.1.1.s d d d x x f f f t.t.t.M 3X:X:X:Xy _.(.(.-.w %.>.q - -   ",
"      7 8 7 K :.G F D G d z z z i p.t.t.r.M m :X>Xy t (./.^.&.q q q &       ",
"              5 V N S G G j k z i i.r.r.b v v y t r e e >.@.q C C C &       ",
"              3 V N B F S : ; y u y.t.m n l c t r A A e e w q C C O         ",
"                < V V V =     % a p a p @ @ , e A A A C w O O O O           ",
"                  * & &         X . + +       # A Z Z C o                   ",
"                                                $ # o o                     ",
"                                                                            ",
"                                                                            "
};
