/* XPM */
static char *out[] = {
/* columns rows colors chars-per-pixel */
"48 46 40 1 ",
"  c None",
". c #573B17",
"X c #593C17",
"o c #5A3F18",
"O c #5B4017",
"+ c #5C4418",
"@ c #5F4919",
"# c #4E5313",
"$ c #515514",
"% c #5E5714",
"& c #545815",
"* c #5F5914",
"= c #5B5E18",
"- c #614B1A",
"; c #615A15",
": c #605618",
"> c #625819",
", c #5D6117",
"< c #5E6118",
"1 c #636618",
"2 c #6D631A",
"3 c #66691A",
"4 c #6A6D1A",
"5 c #75691A",
"6 c #7B6F1C",
"7 c #6E711B",
"8 c #72741D",
"9 c #7C711D",
"0 c #77781F",
"q c #78791F",
"w c #777820",
"e c #7C7C22",
"r c #7F7E28",
"t c #807F23",
"y c #807E28",
"u c #818023",
"i c #86822E",
"p c #88832F",
"a c #878331",
"s c #898531",
/* pixels */
"                                                ",
"                     ---                        ",
"                    -asa-                       ",
"                 ----aiaa-                      ",
"                -saaaaaas- ---                  ",
"            --- -ssss0ssss-aaa-                 ",
"           -iii-sssss00eeesaaa-                 ",
"           -iiiissss000eeeasss- ----            ",
"           -ppyi7pssqqttuesss44-saaa-           ",
"            -pp577sssssuuuet434qpsaaa-          ",
"         ---ww6t678pssssesssp44qesasa@          ",
"        -w0eww6wsst0ssssusssp4443eeeee----      ",
"        -w0006ssssuutssst5ss2444ssaeeeytre-     ",
"        -00eeessssu90tutt>222>ppspser4yyrr@     ",
"       -44qqssssss9t9uuu88e022ssssete4yyrr@     ",
"    ---7878ssssusss687877500e2spseeee44yr@      ",
"   @eeee77ssssuussss878qqqeqq77sssa744474@      ",
"  @eeeet74pssuq8tsssu87qqquut87sssaa777444@@    ",
"  @eete3334tuuu8uupuu8qqquuuuu48ssase4443www@   ",
"  @eee333444uuq89uuuu33qquusspuqeeeee47,ww7w@   ",
"   -3333ppsutt888qqqq33378tssssteeeee4,<8w88@   ",
"    @33spipttue88qqqq3337878sspsst77,,,=w8w@    ",
"   -88ipiittuuqu439q34343uteepssaa7444,%%8w7@   ",
"  @880piiu55uuut743343878tusssssaar4444=%%%%e+@ ",
"  @8808equ555ut888343888eutspss4etee444<=*3eeww@",
"   -8833iipp5557783347uuue2sss47eeee444=<44ewee+",
"    -133iipp578774337ssssu222477:eer44<=4334eeeO",
"   @aia3ippii77331378ssss2778&444>>>&&<<44443w@ ",
"  -yyaayipiiiu3333578ppp7848&##4444$&&,,44344@  ",
" oewsyys1eeeuq33337777774ete#&$444&&$$ewe344+   ",
" -eeewy3133qq333;;;887;87eeee#;;==,=&ewee488O   ",
"  oeer111113333;;1<,;;;47eeee$;*,==,&we0e488wO  ",
"   +11444113333*;1=1;;%;42tee7===<===www%%7w7.  ",
"   +44444##3113*&11=1&ww442224w=====#%>>>%%ww.  ",
"    +444#$##33**&1,1&80888747w8==44=##%%###oo   ",
"     o#$##:;*:&&&&&&&880w0#8888#=443===###.     ",
"     o####%**;&&&&&&&&75w##8887##4443=&==#o     ",
"      o##;O;*$&1111&&&&&####87###3444=====o     ",
"       ooo O%&11111##&&&$&######oo43==&o..      ",
"            Oo1111####&&=$=====.  o===.         ",
"             o111##o##&&.======X   ...          ",
"              o###X XX.o .===XX                 ",
"               Xo.        XX.                   ",
"                                                ",
"                                                ",
"                                                "
};
