/* XPM */
static char *out[] = {
/* columns rows colors chars-per-pixel */
"42 46 235 2 ",
"   c None",
".  c #553516",
"X  c #563516",
"o  c #553616",
"O  c #563716",
"+  c #553916",
"@  c #563916",
"#  c #563917",
"$  c #583C17",
"%  c #593D17",
"&  c #593E17",
"*  c #5A3E17",
"=  c #5B3E18",
"-  c #5C4117",
";  c #5C4217",
":  c #594018",
">  c #5A4018",
",  c #5C4018",
"<  c #5C4118",
"1  c #5D4218",
"2  c #5D4318",
"3  c #5D4319",
"4  c #5D4418",
"5  c #5D4419",
"6  c #5E4418",
"7  c #5E4518",
"8  c #5E4419",
"9  c #5E4519",
"0  c #5F4519",
"q  c #5E4619",
"w  c #5F4619",
"e  c #5F461A",
"r  c #4D5213",
"t  c #4E5213",
"y  c #4E5313",
"u  c #4F5413",
"i  c #505414",
"p  c #505514",
"a  c #515514",
"s  c #515614",
"d  c #535715",
"f  c #545715",
"g  c #5C5615",
"h  c #5C5715",
"j  c #5D5715",
"k  c #545815",
"l  c #545816",
"z  c #555916",
"x  c #565916",
"c  c #565A16",
"v  c #565B16",
"b  c #565A17",
"n  c #575A17",
"m  c #575B17",
"M  c #5C5815",
"N  c #5D5815",
"B  c #5C5F17",
"V  c #5D5F18",
"C  c #5C5F19",
"Z  c #60471A",
"A  c #61471A",
"S  c #60481A",
"D  c #61481A",
"F  c #60491A",
"G  c #61491A",
"H  c #614A1A",
"J  c #624A1A",
"K  c #634A1A",
"L  c #634B1A",
"P  c #644B1A",
"I  c #634C1A",
"U  c #644C1A",
"Y  c #654C1A",
"T  c #644D1A",
"R  c #654D1A",
"E  c #654C1B",
"W  c #654D1B",
"Q  c #664D1B",
"!  c #654E1B",
"~  c #664E1B",
"^  c #674E1B",
"/  c #674F1B",
"(  c #684E1B",
")  c #684F1B",
"_  c #67511B",
"`  c #68501B",
"'  c #5D6017",
"]  c #5D6018",
"[  c #5C6019",
"{  c #5D6019",
"}  c #5D6119",
"|  c #5E6018",
" . c #5F6118",
".. c #5E6119",
"X. c #5E6218",
"o. c #5F6218",
"O. c #5E6219",
"+. c #5F6219",
"@. c #606218",
"#. c #606219",
"$. c #60631A",
"%. c #616418",
"&. c #616518",
"*. c #626418",
"=. c #626518",
"-. c #626419",
";. c #626519",
":. c #636519",
">. c #626619",
",. c #636619",
"<. c #61641A",
"1. c #62641A",
"2. c #62651A",
"3. c #63651A",
"4. c #65671A",
"5. c #64671B",
"6. c #6D631A",
"7. c #6E631A",
"8. c #6F641B",
"9. c #64681A",
"0. c #65681A",
"q. c #66681A",
"w. c #66691A",
"e. c #66691B",
"r. c #67691B",
"t. c #666A1A",
"y. c #676A1A",
"u. c #676A1B",
"i. c #686A1A",
"p. c #686B1A",
"a. c #686A1B",
"s. c #686B1B",
"d. c #696C1A",
"f. c #696C1B",
"g. c #6A6C1A",
"h. c #6A6C1B",
"j. c #6A6D1B",
"k. c #6B6D1B",
"l. c #6B6E1B",
"z. c #6B6F1B",
"x. c #6C6E1B",
"c. c #6C6F1B",
"v. c #6D6F1B",
"b. c #756816",
"n. c #70641B",
"m. c #70651B",
"M. c #70691A",
"N. c #71691A",
"B. c #736A1A",
"V. c #736B1A",
"C. c #736B1B",
"Z. c #746B1B",
"A. c #6D701B",
"S. c #6E701B",
"D. c #6E711B",
"F. c #6E711C",
"G. c #6F711C",
"H. c #6F721C",
"J. c #70721C",
"K. c #71731C",
"L. c #72731C",
"P. c #70721E",
"I. c #71721E",
"U. c #72731E",
"Y. c #71741D",
"T. c #72741C",
"R. c #73741D",
"E. c #72741E",
"W. c #73741E",
"Q. c #74751D",
"!. c #74761D",
"~. c #75761D",
"^. c #74741E",
"/. c #75741E",
"(. c #74751E",
"). c #75751E",
"_. c #75751F",
"`. c #76751F",
"'. c #75771E",
"]. c #75761F",
"[. c #76761E",
"{. c #76771E",
"}. c #76761F",
"|. c #77761F",
" X c #77771F",
".X c #7B701D",
"XX c #7B711D",
"oX c #7C711D",
"OX c #7D711D",
"+X c #7E721D",
"@X c #7E731D",
"#X c #78771F",
"$X c #76781E",
"%X c #77781F",
"&X c #78791F",
"*X c #79791F",
"=X c #797A1F",
"-X c #7A7A1F",
";X c #767620",
":X c #777620",
">X c #787820",
",X c #797920",
"<X c #7A7A20",
"1X c #7A7B20",
"2X c #7B7B20",
"3X c #7D7C22",
"4X c #7D7D22",
"5X c #7E7D22",
"6X c #7E7D23",
"7X c #7E7E22",
"8X c #7F7E22",
"9X c #7F7E23",
"0X c #7F7F23",
"qX c #807F23",
"wX c #807E27",
"eX c #807F27",
"rX c #817F28",
"tX c #808023",
"yX c #818023",
"uX c #828123",
"iX c #828027",
"pX c #818028",
"aX c #828028",
"sX c #88852E",
"dX c #878331",
"fX c #888331",
"gX c #888431",
"hX c #898432",
"jX c #898532",
"kX c #8A8532",
"lX c #8A8632",
"zX c #8B8632",
"xX c #8C8733",
"cX c #8D8733",
"vX c #8D8833",
/* pixels */
"                                                    W W W                           ",
"                                                  ! qXqXqXW                         ",
"                                                  ~ qXqXqX!   R T U                 ",
"                                                  ~ qXqXqXqX! 9XiXpXI               ",
"                                              ~ ~ qXyXqXzXzXkX9XiXpXU               ",
"                                            ~ zXzXzXzXyXzXzXlXqX9XT                 ",
"                                            ~ zXzXxXzXJ.J.zXzXkXG.S.U               ",
"                                            / sXxXxXK.K.K.zXzXlXG.S.U               ",
"                                              / yX*X*XK.K.J.J.H.G.S.U               ",
"                                            / xXxXuX*X*X8.J.J.H.G.R                 ",
"                                          / xXxXxXuX=X=X8.J.yXqXG.(._ I             ",
"                                        / xXxXxXxX-X-X=X8.8.yXqXqX].%X}.L           ",
"                                        / uXuX-X-X-X-X8.8.8.yXqXqX9X{.}.L           ",
"                                          ` uXuXb.b.m.n.3.2.1.qXqX9X&X XK           ",
"                                        ` xXxXuXuXb.m.n.3.2.x.x.h.h.%XU             ",
"                                        ) xXcXuXuXT.T.L.3.v.x.x.h.h.T               ",
"                                        ) xXcXuXT.T.T.xXxXv.v.x.k.k.g.P J           ",
"                      Y E           ^ ( xXxXcXvXvXT.T.xXxXxXx.x.k.k.S.A.v.H         ",
"                    Y kXkXQ       ^ xXxXxXxXcXvXvXvXuXxXxXxXxXyXl.0X8XA.v.c.G       ",
"                    E kXkXlXQ     ^ xXxXxXxX$XcXcXcX@XxXxXxXxXtXqX0X8X5Xv.c.{ F     ",
"              P Y E 0XkXlXzXqXQ ^ (.[.xXxX$X$XxXcX@X@X+X+XxXxXyXqXkXjX5Xv.} { S     ",
"            P jXkXkXqXqXlXzXqXqXyXyX{.{.{.$X$X$X~.~.+X+X+XxXzXJ.H.kXjXhX..} { S     ",
"            P jXkXkXkXlXqXqXqXqXtXyXyX{.{.{.$X$X!.K.K.xXxXxXJ.J.G.G.jXhX..{ D       ",
"        J P 7X8X9XkXkXkXlXZ.zXzXzXyXyX'.{.yXyXuXK.K.uXxXxXxX2X<XG.F.S.A.v.H         ",
"      J gXhXhXjX9X9XkXkXC.lXlXzXzXJ.%X{.zXxXxXyXK.K.yXxXxX*X1X<X,XF.7.A.c.x.S       ",
"    D fXfXhXhXhX(.9X9X0XZ.kXkXlXqXY. XJ.zXzXzXyXK.K.yXyXOX2X<X<X>X7.6.v.c.x.Z       ",
"    D dXfXgXhXQ.(.8X8XM.N.Z.Z.G.G.G.G.J.zXzXyXyXyXyXOXOXOX<.<X,X$.+.+.v.c.A         ",
"      D fXfXR.R.).(.B.B.B.V.9X9X9XG.G.G.G.J.qXqXtXtXtXoXXX<.$.$.+.S.v.v.S           ",
"    S e.a.s.4XaX^.^.W.W.W.7X8X8X8XD.D.G.G.G.lXzXzXqXqX9X.X$.$.#.+.A.v.c.Z           ",
"  q 5.u.u.3XrXaX(.(...O.U.hXhX7XS.S.N N D.kXkXkXjX9X9X9X$.$.+.+.c.x.z.x.l.9         ",
"  7 e.r.u.wXeXW.W.....U.U.gXgXh h j j S.S.jXjXkXD.6X5X5X+.v.v.#X#Xl.k.k.l.C 3       ",
"    9 e.r.U.E.E.{ { { I.I.c.c g g g M v.A.A.A.S.S.4X4Xv.v.c.#X X Xk.k.[ C C 2       ",
"      7 9 e.r.[ [ [ { P.I.n m v v p.y.t.v.v.v.s A.c.c.c.x.x. X|.|.k.j.[ C 1         ",
"          6 e.e.C e [ [ [ [ b n y.i.q.0.p p a a c.x.x... X`.|.|.}.}._.f.3           ",
"          4 w.w.8   9 C C C w b y.w.0.x z x p p p p p :X|.}.}.,.`._._.).d.<         ",
"            1 1       2 5 8   5 9.9.4.0 z X.o.@.i i i ;X_.}.,.:.:._.)./.p.>         ",
"                                2 3 2 l V |  .o.z u ,.:.-.:.:.;.).).^.^.>           ",
"                                      2 B ' ] 1 l l >.;.;.=.y /./.^.%.%.:           ",
"                                        ; - ;   , k =.*.=.y t ^.^.^.%.&.a &         ",
"                                                = f d k a r %.^.^.%.&.a a $         ",
"                                                  % & * * a &.%.&.=.i a a #         ",
"                                                          * a =.*.a i + @           ",
"                                                          * a i i i O               ",
"                                                            O i i i o               ",
"                                                              X X .                 ",
"                                                                                    "
};
