/* XPM */
static char *out[] = {
/* columns rows colors chars-per-pixel */
"40 36 45 1 ",
"  c None",
". c #573216",
"X c #593517",
"o c #5A3917",
"O c #583718",
"+ c #5C3D19",
"@ c #5E4417",
"# c #5E4518",
"$ c #535714",
"% c #5C5714",
"& c #555914",
"* c #5B5D15",
"= c #604619",
"- c #634C19",
"; c #605614",
": c #645B17",
"> c #67501A",
", c #695E1A",
"< c #5E6117",
"1 c #5F6218",
"2 c #626417",
"3 c #6A6117",
"4 c #676917",
"5 c #646618",
"6 c #6C631B",
"7 c #666919",
"8 c #6B6C1B",
"9 c #746717",
"0 c #71661B",
"q c #716B1A",
"w c #6F701C",
"e c #72731D",
"r c #7F731D",
"t c #7D7C1F",
"y c #767621",
"u c #787720",
"i c #7D7C23",
"p c #7E7C29",
"a c #817F25",
"s c #817E29",
"d c #838126",
"f c #86832A",
"g c #88852C",
"h c #8B8632",
"j c #8D8832",
/* pixels */
"                                        ",
"                                        ",
"                      --                ",
"                 ->> -ww-               ",
"           ---  >777>hhw-   -#          ",
"          -wwe>-788dhhh8w- #yy#         ",
"         -hhjeee77djhhhwww-7yy7#        ",
"         >hhhhee87fghhqehhh7777#        ",
"       --ajjhhhfdeeddewdhhjepa77##      ",
"     --eeaijhhhfddefddddhhjeppp7yp#     ",
"    -77eeiidhhhhjdfdddddhheyssp7pp#     ",
"   -748aaaijjjhhjfddfdhhhwwwedi77#      ",
"   -777ajhhhjhyydddddahhjaeww77754#@    ",
"    -7ahhjhhjjhytyidddhjyaahhhwww5ww#   ",
"   -eeahhhjdjjjytjjjjdtyaaajhhhww7ww#   ",
"  -eiiihhj9ddjjyjjjjjaaaaaejhhjw77ww#   ",
" =7yipiee99dddwtjjjjddaadeeejgh7777#    ",
" -55ii7ydaddddtdiiiaddiaeideee577711-#  ",
"  -5757dffggdfgfiiitdddtdffwwwwgf15777# ",
"   -555gfffggfgfitittdrrrffew8ggfh17775#",
"   -55effgdaggggwtttggfrrdfffwdgfh11755=",
"  =55ee686dfgg0qy3tfgfffphfggphgf878*<5=",
" #2<yeyeeffff006eaffffffiggggg636877*<= ",
"#778eyyyqfgfhqqyddfffwdd3ghgghqwwww*<#  ",
"+7885yyy*ggf6wwwfdffdw8w86fhf78qww:**#  ",
" +78155*w666wwwwefdd28w87733677e8w:&#   ",
"  ++*118wwe88eey848833337477757::::*&#  ",
"    +88wwwq;%www%qeww33378847e8ew::&&&+ ",
"   +w8w:8w%;%%:*eewe83<<2we4;ew8w8&*$&+ ",
"   O88w*<<*<%88*eee8*3<*wee&%%8ew8$<<+  ",
"   O88****<*888**e8**<*<qw8&%%%&$$<2<+  ",
"    O*&O**&6778****<<<*Xww*&&$&&$$2<<o  ",
"     OO O%%777%%%%%*77O O%&&&55*$o<<o   ",
"        O%%%OO*%%%%877O  O*&X555o oo    ",
"         OOO  O%%.%776.   .. X55O       ",
"               .O .77.        OO        "
};
